<svg width="18" height="9" viewBox="0 0 18 9" fill="none" xmlns="http://www.w3.org/2000/svg">
<mask id="path-1-inside-1_503_2210" fill="white">
<path d="M9 9C8.78635 9 8.60831 8.93401 8.43027 8.80202L0.240356 1.34464C-0.0801187 1.04766 -0.0801187 0.585701 0.240356 0.288726C0.560831 -0.00824907 1.05935 -0.00824907 1.37982 0.288726L9 7.18515L16.6202 0.222731C16.9407 -0.0742438 17.4392 -0.0742438 17.7596 0.222731C18.0801 0.519707 18.0801 0.981669 17.7596 1.27864L9.56973 8.73602C9.39169 8.90101 9.21365 9 9 9Z"/>
</mask>
<path d="M9 9C8.78635 9 8.60831 8.93401 8.43027 8.80202L0.240356 1.34464C-0.0801187 1.04766 -0.0801187 0.585701 0.240356 0.288726C0.560831 -0.00824907 1.05935 -0.00824907 1.37982 0.288726L9 7.18515L16.6202 0.222731C16.9407 -0.0742438 17.4392 -0.0742438 17.7596 0.222731C18.0801 0.519707 18.0801 0.981669 17.7596 1.27864L9.56973 8.73602C9.39169 8.90101 9.21365 9 9 9Z" fill="#6B6B6B"/>
<path d="M8.43027 8.80202L-25.233 45.772L-23.3703 47.4681L-21.3466 48.9684L8.43027 8.80202ZM0.240356 1.34464L-33.7448 38.019L-33.5845 38.1675L-33.4229 38.3147L0.240356 1.34464ZM1.37982 0.288726L-32.6053 36.9631L-32.3894 37.1632L-32.1711 37.3607L1.37982 0.288726ZM9 7.18515L-24.551 44.2572L9.16018 74.7665L42.7263 44.0977L9 7.18515ZM16.6202 0.222731L50.3465 37.1353L50.4763 37.0166L50.6053 36.8971L16.6202 0.222731ZM17.7596 1.27864L51.4229 38.2487L51.5845 38.1015L51.7448 37.953L17.7596 1.27864ZM9.56973 8.73602L-24.0936 -28.234L-24.2551 -28.0869L-24.4154 -27.9384L9.56973 8.73602ZM9 -41C14.2472 -41 19.8035 -40.1545 25.346 -38.1979C30.7753 -36.2812 35.0571 -33.6996 38.2071 -31.3644L-21.3466 48.9684C-13.7398 54.6076 -3.32438 59 9 59V-41ZM42.0936 -28.168L33.9037 -35.6254L-33.4229 38.3147L-25.233 45.772L42.0936 -28.168ZM34.2255 -35.3297C43.8319 -26.4278 50 -13.5093 50 0.816682C50 15.1427 43.8319 28.0611 34.2255 36.9631L-33.7448 -36.3856C-55.4184 -16.3013 -55.4184 17.9347 -33.7448 38.019L34.2255 -35.3297ZM34.2255 36.9631C15.3725 54.4336 -13.7524 54.4336 -32.6053 36.9631L35.365 -36.3856C15.8711 -54.4501 -14.2509 -54.4501 -33.7448 -36.3856L34.2255 36.9631ZM-32.1711 37.3607L-24.551 44.2572L42.551 -29.8868L34.9308 -36.7833L-32.1711 37.3607ZM42.7263 44.0977L50.3465 37.1353L-17.1061 -36.6898L-24.7263 -29.7274L42.7263 44.0977ZM50.6053 36.8971C31.7524 54.3676 2.62746 54.3676 -16.2255 36.8971L51.7448 -36.4516C32.2509 -54.5161 2.12894 -54.5161 -17.365 -36.4516L50.6053 36.8971ZM-16.2255 36.8971C-25.8319 27.9951 -32 15.0766 -32 0.750688C-32 -13.5753 -25.8319 -26.4937 -16.2255 -35.3957L51.7448 37.953C73.4184 17.8687 73.4184 -16.3673 51.7448 -36.4516L-16.2255 36.8971ZM-15.9037 -35.6914L-24.0936 -28.234L43.233 45.706L51.4229 38.2487L-15.9037 -35.6914ZM-24.4154 -27.9384C-19.8632 -32.1568 -8.42644 -41 9 -41V59C26.8537 59 38.6466 49.9588 43.5549 45.4104L-24.4154 -27.9384Z" fill="white" mask="url(#path-1-inside-1_503_2210)"/>
</svg>
