<svg width="15" height="14" viewBox="0 0 15 14" fill="none" xmlns="http://www.w3.org/2000/svg">
<path d="M9.52983 1.01457C9.05987 0.544621 8.32883 0.544621 7.85888 1.01457C7.38893 1.48453 7.38893 2.21557 7.85888 2.68552L10.9919 5.87077H1.95835C1.33174 5.87077 0.80957 6.39294 0.80957 7.01954C0.80957 7.64615 1.33174 8.16832 1.95835 8.16832H10.9919L7.85888 11.3536C7.38893 11.8235 7.38893 12.5546 7.85888 13.0245C8.06775 13.2334 8.38105 13.3378 8.69435 13.3378C9.00766 13.3378 9.32096 13.2334 9.52983 12.9723L14.6471 7.8028C15.1171 7.33285 15.1171 6.60181 14.6471 6.13185L9.52983 1.01457Z" fill="#108313"/>
</svg>
