<svg width="15" height="15" viewBox="0 0 15 15" fill="none" xmlns="http://www.w3.org/2000/svg">
<path d="M13.125 6.98438H3.11719L7.10156 2.92969C7.3125 2.71875 7.3125 2.39062 7.10156 2.17969C6.89062 1.96875 6.5625 1.96875 6.35156 2.17969L1.5 7.10156C1.28906 7.3125 1.28906 7.64062 1.5 7.85156L6.35156 12.7734C6.44531 12.8672 6.58594 12.9375 6.72656 12.9375C6.86719 12.9375 6.98437 12.8906 7.10156 12.7969C7.3125 12.5859 7.3125 12.2578 7.10156 12.0469L3.14062 8.03906H13.125C13.4062 8.03906 13.6406 7.80469 13.6406 7.52344C13.6406 7.21875 13.4062 6.98438 13.125 6.98438Z" fill="#6B6B6B"/>
</svg>
