<svg width="15" height="15" viewBox="0 0 15 15" fill="none" xmlns="http://www.w3.org/2000/svg">
<path d="M13.5 7.125L8.64844 2.20312C8.4375 1.99219 8.10938 1.99219 7.89844 2.20312C7.6875 2.41406 7.6875 2.74219 7.89844 2.95313L11.8359 6.96094H1.875C1.59375 6.96094 1.35938 7.19531 1.35938 7.47656C1.35938 7.75781 1.59375 8.01562 1.875 8.01562H11.8828L7.89844 12.0703C7.6875 12.2812 7.6875 12.6094 7.89844 12.8203C7.99219 12.9141 8.13281 12.9609 8.27344 12.9609C8.41406 12.9609 8.55469 12.9141 8.64844 12.7969L13.5 7.875C13.7109 7.66406 13.7109 7.33594 13.5 7.125Z" fill="#6B6B6B"/>
</svg>
