<svg width="18" height="18" viewBox="0 0 18 18" fill="none" xmlns="http://www.w3.org/2000/svg">
<g clip-path="url(#clip0_346_8191)">
<path d="M15.8629 17.5219H12.1785C11.2785 17.5219 10.5191 16.7906 10.5191 15.8625V12.8812C10.5191 12.6562 10.3504 12.4875 10.1254 12.4875H7.87539C7.65039 12.4875 7.48164 12.6562 7.48164 12.8812V15.8625C7.48164 16.7906 6.75039 17.5219 5.82227 17.5219H2.13789C1.23789 17.5219 0.478516 16.7906 0.478516 15.8625V6.38437C0.478516 5.90625 0.703516 5.48437 1.09727 5.23125L8.26914 0.703125C8.71914 0.421875 9.28164 0.421875 9.70352 0.703125L16.8754 5.25937C17.2691 5.5125 17.4941 5.93437 17.4941 6.4125V15.8625C17.5223 16.7625 16.7629 17.5219 15.8629 17.5219ZM7.87539 11.2219H10.1254C11.0535 11.2219 11.7848 11.9531 11.7848 12.8812V15.8625C11.7848 16.0875 11.9535 16.2562 12.1785 16.2562H15.8629C16.0879 16.2562 16.2566 16.0875 16.2566 15.8625V6.38437C16.2566 6.35625 16.2285 6.32812 16.2285 6.3L9.02852 1.77187C9.00039 1.74375 8.97227 1.74375 8.94414 1.77187L1.80039 6.3C1.77227 6.32812 1.74414 6.35625 1.74414 6.38437V15.8625C1.74414 16.0875 1.91289 16.2562 2.13789 16.2562H5.82227C6.04727 16.2562 6.21602 16.0875 6.21602 15.8625V12.8812C6.21602 11.9812 6.94727 11.2219 7.87539 11.2219Z" fill="#6B6B6B"/>
</g>
<defs>
<clipPath id="clip0_346_8191">
<rect width="18" height="18" fill="white"/>
</clipPath>
</defs>
</svg>
