<svg width="418" height="105" viewBox="0 0 418 105" fill="none" xmlns="http://www.w3.org/2000/svg">
<path d="M182.113 100.491C154.019 95.1455 132.907 69.983 125.862 58.0699C128.038 55.8945 134.875 61.6367 142.955 62.5762C151.035 63.5156 153.677 60.0481 168.749 59.4684C183.822 58.8887 190.245 63.4049 194.388 66.1501C191.799 67.963 185.345 72.8629 180.248 77.9596C175.151 83.0563 179.368 95.1041 182.113 100.491Z" fill="white"/>
<path d="M210.548 47.9904C182.454 42.645 161.342 17.4825 154.298 5.56943C156.473 3.39397 163.31 9.13621 171.391 10.0757C179.471 11.0151 182.112 7.54764 197.185 6.96794C212.258 6.38824 218.68 10.9044 222.824 13.6496C220.234 15.4625 213.78 20.3624 208.684 25.4591C203.587 30.5558 207.803 42.6036 210.548 47.9904Z" fill="white"/>
<path d="M265.867 96.7819C237.773 91.4365 216.66 66.274 209.616 54.3609C211.792 52.1855 218.629 57.9277 226.709 58.8672C234.789 59.8066 237.431 56.3391 252.503 55.7594C267.576 55.1797 273.999 59.6959 278.142 62.4411C275.553 64.254 269.099 69.1539 264.002 74.2506C258.905 79.3473 263.121 91.3951 265.867 96.7819Z" fill="white"/>
<path d="M345.736 96.7819C317.642 91.4365 296.53 66.274 289.485 54.3609C291.661 52.1855 298.498 57.9277 306.578 58.8672C314.658 59.8066 317.3 56.3391 332.372 55.7594C347.445 55.1797 353.868 59.6959 358.011 62.4411C355.422 64.254 348.968 69.1539 343.871 74.2506C338.774 79.3473 342.991 91.3951 345.736 96.7819Z" fill="white"/>
<path d="M404.784 61.0431C376.69 55.6977 355.577 30.5353 348.533 18.6222C350.709 16.4467 357.546 22.1889 365.626 23.1284C373.706 24.0679 376.348 20.6004 391.42 20.0207C406.493 19.441 412.916 23.9572 417.059 26.7023C414.47 28.5152 408.016 33.4151 402.919 38.5118C397.822 43.6086 402.038 55.6563 404.784 61.0431Z" fill="white"/>
<path d="M113.583 118.223C85.4893 112.877 64.3773 87.7149 57.333 75.8019C59.5084 73.6264 66.3455 79.3686 74.4257 80.3081C82.5059 81.2476 85.1475 77.7801 100.22 77.2004C115.293 76.6207 121.715 81.1368 125.859 83.882C123.269 85.6949 116.816 90.5948 111.719 95.6915C106.622 100.788 110.838 112.836 113.583 118.223Z" fill="white"/>
<path d="M123.843 43.0182C95.7491 37.6728 74.637 12.5103 67.5928 0.597267C69.7682 -1.5782 76.6053 4.16404 84.6855 5.10351C92.7656 6.04297 95.4072 2.57548 110.48 1.99578C125.553 1.41608 131.975 5.93226 136.119 8.67744C133.529 10.4903 127.075 15.3902 121.979 20.4869C116.882 25.5837 121.098 37.6314 123.843 43.0182Z" fill="white"/>
<path d="M56.4028 61.0431C28.3087 55.6977 7.1966 30.5353 0.152344 18.6222C2.32778 16.4467 9.16485 22.1889 17.245 23.1284C25.3252 24.0679 27.9668 20.6004 43.0394 20.0207C58.1121 19.441 64.5348 23.9572 68.6785 26.7023C66.0887 28.5152 59.6349 33.4151 54.5381 38.5118C49.4414 43.6086 53.6576 55.6563 56.4028 61.0431Z" fill="white"/>
</svg>
