<svg width="191" height="49" viewBox="0 0 191 49" fill="none" xmlns="http://www.w3.org/2000/svg">
<path d="M83.3639 46.9052C70.493 44.4563 60.8209 32.9286 57.5938 27.4708C58.5904 26.4742 61.7227 29.1049 65.4244 29.5353C69.1262 29.9657 70.3364 28.3771 77.2417 28.1115C84.1469 27.8459 87.0894 29.9149 88.9877 31.1726C87.8013 32.0031 84.8446 34.2479 82.5096 36.5829C80.1746 38.9179 82.1062 44.4373 83.3639 46.9052Z" fill="white"/>
<path d="M96.3912 22.8529C83.5204 20.4041 73.8483 8.87633 70.6211 3.41857C71.6177 2.42192 74.75 5.05262 78.4518 5.48302C82.1536 5.91342 83.3638 4.32485 90.269 4.05927C97.1743 3.79369 100.117 5.86269 102.015 7.12035C100.829 7.95088 97.8719 10.1957 95.537 12.5307C93.202 14.8656 95.1336 20.3851 96.3912 22.8529Z" fill="white"/>
<path d="M121.734 45.206C108.863 42.7571 99.1911 31.2294 95.9639 25.7716C96.9605 24.7749 100.093 27.4056 103.795 27.836C107.496 28.2664 108.707 26.6779 115.612 26.4123C122.517 26.1467 125.46 28.2157 127.358 29.4734C126.171 30.3039 123.215 32.5487 120.88 34.8837C118.545 37.2187 120.476 42.7381 121.734 45.206Z" fill="white"/>
<path d="M158.325 45.206C145.454 42.7571 135.782 31.2294 132.555 25.7716C133.552 24.7749 136.684 27.4056 140.386 27.836C144.088 28.2664 145.298 26.6779 152.203 26.4123C159.108 26.1467 162.051 28.2157 163.949 29.4734C162.763 30.3039 159.806 32.5487 157.471 34.8837C155.136 37.2187 157.068 42.7381 158.325 45.206Z" fill="white"/>
<path d="M185.377 28.8329C172.506 26.384 162.834 14.8563 159.607 9.39855C160.604 8.4019 163.736 11.0326 167.438 11.463C171.139 11.8934 172.35 10.3048 179.255 10.0392C186.16 9.77367 189.103 11.8427 191.001 13.1003C189.814 13.9309 186.858 16.1757 184.523 18.5106C182.188 20.8456 184.119 26.3651 185.377 28.8329Z" fill="white"/>
<path d="M51.9693 55.0287C39.0985 52.5798 29.4264 41.0521 26.1992 35.5943C27.1959 34.5977 30.3281 37.2284 34.0299 37.6588C37.7317 38.0892 38.9419 36.5006 45.8472 36.235C52.7524 35.9695 55.6949 38.0385 57.5932 39.2961C56.4067 40.1267 53.4501 42.3715 51.1151 44.7064C48.7801 47.0414 50.7117 52.5609 51.9693 55.0287Z" fill="white"/>
<path d="M56.669 20.5751C43.7982 18.1262 34.1261 6.5985 30.8989 1.14073C31.8956 0.144086 35.0278 2.77479 38.7296 3.20519C42.4314 3.63558 43.6416 2.04701 50.5469 1.78144C57.4521 1.51586 60.3946 3.58486 62.2929 4.84252C61.1064 5.67305 58.1498 7.91785 55.8148 10.2528C53.4798 12.5878 55.4114 18.1072 56.669 20.5751Z" fill="white"/>
<path d="M25.7726 28.8329C12.9017 26.384 3.22964 14.8563 0.00244141 9.39855C0.999076 8.4019 4.13136 11.0326 7.83314 11.463C11.5349 11.8934 12.7451 10.3048 19.6504 10.0392C26.5556 9.77367 29.4981 11.8427 31.3964 13.1003C30.21 13.9309 27.2533 16.1757 24.9183 18.5106C22.5833 20.8456 24.5149 26.3651 25.7726 28.8329Z" fill="white"/>
</svg>
