<svg width="25" height="25" viewBox="0 0 25 25" fill="none" xmlns="http://www.w3.org/2000/svg">
<g clip-path="url(#clip0_1750_5213)">
<path d="M15.1792 8.32764C15.1792 6.45264 13.6792 4.95264 11.8042 4.95264C9.9292 4.95264 8.4292 6.45264 8.4292 8.32764C8.4292 10.2026 9.9292 11.7026 11.8042 11.7026C13.6792 11.7026 15.1792 10.2026 15.1792 8.32764ZM10.1167 8.32764C10.1167 7.39014 10.8667 6.64014 11.8042 6.64014C12.7417 6.64014 13.4917 7.39014 13.4917 8.32764C13.4917 9.26514 12.7417 10.0151 11.8042 10.0151C10.8667 10.0151 10.1167 9.26514 10.1167 8.32764Z" fill="#2B40C7"/>
<path d="M23.3544 22.1278L21.8169 15.1903C21.7419 14.8528 21.4794 14.5903 21.1044 14.5528L16.6419 13.9153C18.0669 11.8903 19.2294 9.75283 19.2294 8.10283C19.2294 4.12783 15.8919 0.902832 11.8044 0.902832C7.71687 0.902832 4.37937 4.12783 4.37937 8.10283C4.37937 9.75283 5.54187 11.8903 6.96687 13.9153L2.46687 14.5528C2.09187 14.5903 1.82937 14.8903 1.75437 15.2653L0.704372 22.2028C0.666872 22.5028 0.779372 22.8028 1.00437 22.9903C1.22937 23.1778 1.52937 23.2528 1.82937 23.1403L6.77937 21.4153L11.7669 23.1028C11.9544 23.1778 12.1419 23.1778 12.2919 23.1028L17.2794 21.4153L22.2669 23.1028C22.3419 23.1403 22.4544 23.1403 22.5294 23.1403C22.7169 23.1403 22.9419 23.0653 23.0919 22.9153C23.3169 22.7653 23.4294 22.4278 23.3544 22.1278ZM11.8044 2.59033C14.9919 2.59033 17.5419 5.06533 17.5419 8.10283C17.5419 10.1653 14.5794 14.1028 11.8044 17.1403C9.02937 14.1403 6.06687 10.1653 6.06687 8.10283C6.06687 5.06533 8.61687 2.59033 11.8044 2.59033ZM17.5419 19.7278C17.3544 19.6528 17.1669 19.6528 17.0169 19.7278L12.0294 21.4153L7.04187 19.7278C6.85437 19.6528 6.66687 19.6528 6.51687 19.7278L2.57937 21.0778L3.32937 16.1653L8.09187 15.4528C8.95437 16.5403 9.85437 17.5528 10.5669 18.3403C10.8669 18.6778 11.3169 18.8653 11.7669 18.8653C12.2169 18.8653 12.6669 18.6778 12.9669 18.3403C13.6794 17.5528 14.5794 16.5403 15.4419 15.4528L20.3169 16.1653L21.4044 21.0403L17.5419 19.7278Z" fill="#2B40C7"/>
</g>
<defs>
<clipPath id="clip0_1750_5213">
<rect width="24" height="24" fill="white" transform="translate(0.0292969 0.0405273)"/>
</clipPath>
</defs>
</svg>
