<svg width="18" height="19" viewBox="0 0 18 19" fill="none" xmlns="http://www.w3.org/2000/svg">
<path d="M9.18847 18.5919C8.72045 18.5919 8.28167 18.3286 8.04765 17.8898L0.149667 2.76664C-0.113599 2.26936 -0.0258437 1.65507 0.383682 1.27479C0.793207 0.86527 1.37824 0.777514 1.90478 1.04078L17.028 8.96802C17.496 9.20203 17.7593 9.67006 17.73 10.1966C17.7007 10.6939 17.379 11.1327 16.9109 11.3374L12.2599 13.151L10.4463 17.8021C10.2708 18.2701 9.83201 18.5919 9.30548 18.6211C9.24698 18.5626 9.21773 18.5919 9.18847 18.5919ZM1.34899 2.2401L9.18847 17.217L11.0898 12.3612C11.1483 12.1857 11.2946 12.0395 11.4701 11.981L16.3552 10.0796L1.34899 2.2401Z" fill="#6B6B6B"/>
</svg>
