<svg width="16" height="17" viewBox="0 0 16 17" fill="none" xmlns="http://www.w3.org/2000/svg">
<path d="M14.075 16.0751H2.075C1.225 16.0751 0.5 15.3751 0.5 14.5001V2.50005C0.5 1.65005 1.2 0.925049 2.075 0.925049H8.7C9 0.925049 9.275 1.17505 9.275 1.50005C9.275 1.82505 9.025 2.07505 8.7 2.07505H2.075C1.825 2.07505 1.65 2.25005 1.65 2.50005V14.5001C1.65 14.7501 1.85 14.9501 2.1 14.9501H14.1C14.35 14.9501 14.55 14.7501 14.55 14.5001V7.90005C14.55 7.60005 14.8 7.32505 15.125 7.32505C15.45 7.32505 15.7 7.57505 15.7 7.90005V14.5001C15.65 15.3501 14.925 16.0751 14.075 16.0751Z" fill="#108313"/>
<path d="M8.07461 9.07495C7.92461 9.07495 7.77461 9.02495 7.67461 8.89995C7.44961 8.67495 7.44961 8.32495 7.67461 8.09995L13.6746 2.09995H11.5746C11.2746 2.09995 10.9996 1.84995 10.9996 1.52495C10.9996 1.19995 11.2496 0.949951 11.5746 0.949951H15.0746C15.3746 0.949951 15.6496 1.19995 15.6496 1.52495V4.99995C15.6496 5.29995 15.3996 5.57495 15.0746 5.57495C14.7496 5.57495 14.4996 5.32495 14.4996 4.99995V2.84995L8.47461 8.89995C8.37461 8.99995 8.22461 9.07495 8.07461 9.07495Z" fill="#108313"/>
</svg>
