<svg width="46" height="45" viewBox="0 0 46 45" fill="none" xmlns="http://www.w3.org/2000/svg">
<g clip-path="url(#clip0_349_3060)">
<path fill-rule="evenodd" clip-rule="evenodd" d="M40.209 21.9165H43.5158C44.9423 21.9165 46.1742 23.1485 45.9797 24.6398V26.1311C45.9797 27.0388 45.2665 27.7521 44.3587 27.7521C43.451 27.7521 42.7377 27.0388 42.7377 26.1311V25.2882H40.2738V26.1311C40.2738 27.0388 39.5606 27.7521 38.6529 27.7521H38.4584C37.5506 27.7521 36.8374 27.0388 36.8374 26.1311V18.4152L25.1015 22.3056C24.6476 22.4353 24.1937 22.5001 23.7398 22.5001C23.286 22.5001 22.8321 22.4353 22.3782 22.3056L10.8368 18.4801V40.3309C10.8368 40.9793 11.3556 41.4331 11.9391 41.4331H16.1537V35.7921C16.1537 33.5876 17.9692 31.8369 20.1089 31.8369H27.5005C29.7051 31.8369 31.4557 33.6524 31.4557 35.7921V41.4331H34.2438C35.2164 41.4331 35.9945 42.2112 35.9945 43.1838C35.9945 44.1564 35.2164 44.9345 34.2438 44.9345H11.8743C9.47522 44.9345 7.40037 42.9244 7.40037 40.4606V38.4505H5.97391C4.87164 38.4505 3.63969 37.9967 2.79678 37.1538C1.95387 36.3109 1.5 35.2086 1.5 33.9766V24.7046C1.5 23.2133 2.73194 21.9814 4.15841 21.9814H7.40037V11.4774C7.40037 7.97611 10.2533 5.12319 13.6898 5.12319H14.4678V3.95608C14.5327 1.49219 16.4779 -0.517822 19.0066 -0.517822H28.6028C31.0667 -0.517822 33.0119 1.49219 33.0119 3.89124V4.99351H33.9196C37.3561 4.99351 40.209 7.84644 40.209 11.3478V21.9165ZM28.7325 2.85382H19.0714C18.4879 2.85382 17.9692 3.30769 17.9692 3.95608V5.05835H29.8347V3.95608C29.7699 3.37253 29.2512 2.85382 28.7325 2.85382ZM33.9844 8.42999H13.8195C12.1985 8.42999 10.9017 9.85645 10.9017 11.4126V14.8491L23.6102 19.0636C23.8047 19.1285 23.9992 19.1285 24.1937 19.0636L36.967 14.8491V11.4126C36.9022 9.79161 35.5406 8.42999 33.9844 8.42999ZM5.26067 34.6899C5.45519 34.8844 5.77939 35.0141 6.03874 35.0141H7.40037V25.2882H4.93648V33.9118C4.93648 34.236 5.00132 34.4305 5.26067 34.6899ZM19.655 35.857V41.498H28.2138V35.857C28.2138 35.4679 27.8896 35.2734 27.6302 35.2734H20.2385C19.8495 35.2734 19.655 35.5976 19.655 35.857Z" fill="#75B276"/>
<path d="M44.8131 33.5227C44.6186 31.4478 42.8031 29.6972 40.6634 29.5027C38.7182 29.3081 36.8379 30.2807 35.9301 31.9017C35.4762 32.7446 35.8004 33.782 36.5785 34.1711C37.4214 34.6249 38.4588 34.3008 38.8479 33.5227C39.0424 33.0688 39.6908 32.7446 40.2743 32.8743C40.8579 32.9391 41.3118 33.393 41.3766 33.9766C41.4414 34.4953 41.1821 34.9491 40.7282 35.2085C39.3666 35.8569 38.394 37.413 38.394 38.9043V39.9418C38.394 40.8495 39.1721 41.6924 40.1447 41.6924C41.1172 41.6924 41.8953 40.9144 41.8953 39.9418V38.9043C41.8953 38.7747 42.0898 38.3856 42.2843 38.3208C44.0998 37.3482 45.0724 35.4679 44.8131 33.5227ZM41.7656 43.2486C41.7656 43.1837 41.7008 43.054 41.636 42.9244L41.4414 42.7299C41.3766 42.665 41.2469 42.5353 41.1172 42.5353C41.0524 42.4705 40.9227 42.4057 40.793 42.4057C40.7282 42.4057 40.5985 42.3408 40.4689 42.3408C39.9501 42.276 39.3666 42.4057 38.9776 42.7947L38.783 42.9892C38.7182 43.054 38.6534 43.1837 38.6534 43.3134C38.5237 43.3134 38.5237 43.5079 38.5237 43.5728V44.1563C38.5237 44.286 38.5885 44.3508 38.5885 44.4805C38.5885 44.5454 38.6534 44.675 38.7182 44.8047L38.9127 44.9992C39.2369 45.3234 39.6908 45.5179 40.1447 45.5179C40.5985 45.5179 41.0524 45.3883 41.3766 44.9992C41.7008 44.675 41.8305 44.2212 41.8305 43.7673V43.4431C41.8305 43.5079 41.8305 43.4431 41.7656 43.2486Z" fill="#4F5ED2"/>
</g>
<defs>
<clipPath id="clip0_349_3060">
<rect width="45" height="45" fill="white" transform="translate(0.5)"/>
</clipPath>
</defs>
</svg>
