<svg width="24" height="20" viewBox="0 0 24 20" fill="none" xmlns="http://www.w3.org/2000/svg">
<g clip-path="url(#clip0_1702_11168)">
<path fill-rule="evenodd" clip-rule="evenodd" d="M20.0922 9.58994H21.7526C22.4689 9.58994 23.0875 10.1049 22.9898 10.7283V11.3517C22.9898 11.7312 22.6317 12.0293 22.1759 12.0293C21.7201 12.0293 21.3619 11.7312 21.3619 11.3517V10.9994H20.1247V11.3517C20.1247 11.7312 19.7666 12.0293 19.3108 12.0293H19.2131C18.7573 12.0293 18.3992 11.7312 18.3992 11.3517V8.12632L12.5062 9.75257C12.2783 9.80678 12.0504 9.83388 11.8225 9.83388C11.5946 9.83388 11.3667 9.80678 11.1388 9.75257L5.34357 8.15343V17.2875C5.34357 17.5586 5.60403 17.7483 5.89705 17.7483H8.0133V15.3902C8.0133 14.4687 8.92491 13.7369 9.99931 13.7369H13.7109C14.8178 13.7369 15.6969 14.4958 15.6969 15.3902V17.7483H17.0969C17.5852 17.7483 17.9759 18.0735 17.9759 18.4801C17.9759 18.8867 17.5852 19.2119 17.0969 19.2119H5.86449C4.65986 19.2119 3.61802 18.3717 3.61802 17.3417V16.5015H2.90175C2.34827 16.5015 1.72968 16.3118 1.30643 15.9594C0.883177 15.6071 0.655273 15.1463 0.655273 14.6313V10.7554C0.655273 10.132 1.27387 9.61705 1.99014 9.61705H3.61802V5.22618C3.61802 3.76256 5.05055 2.56997 6.77611 2.56997H7.1668V2.0821C7.19936 1.05214 8.17609 0.211914 9.44583 0.211914H14.2644C15.5016 0.211914 16.4783 1.05214 16.4783 2.055V2.51577H16.9341C18.6596 2.51577 20.0922 3.70835 20.0922 5.17197V9.58994ZM14.3295 1.62133H9.47839C9.18537 1.62133 8.92491 1.81106 8.92491 2.0821V2.54287H14.883V2.0821C14.8504 1.83816 14.5899 1.62133 14.3295 1.62133ZM16.9666 3.95228H6.84122C6.02728 3.95228 5.37613 4.54858 5.37613 5.19908V6.63559L11.7574 8.39736C11.8551 8.42447 11.9528 8.42447 12.0504 8.39736L18.4643 6.63559V5.19908C18.4317 4.52147 17.748 3.95228 16.9666 3.95228ZM2.54362 14.9295C2.64129 15.0108 2.80408 15.065 2.93431 15.065H3.61802V10.9994H2.38083V14.6042C2.38083 14.7397 2.41339 14.821 2.54362 14.9295ZM9.77141 15.4173V17.7754H14.069V15.4173C14.069 15.2547 13.9062 15.1734 13.776 15.1734H10.0644C9.86908 15.1734 9.77141 15.3089 9.77141 15.4173Z" fill="#55A257"/>
<path d="M21.8627 14.7249C21.7675 13.9488 20.8791 13.2939 19.832 13.2211C18.88 13.1484 17.9598 13.5122 17.5156 14.1185C17.2935 14.4338 17.4521 14.8219 17.8329 14.9674C18.2454 15.1372 18.7531 15.0159 18.9435 14.7249C19.0387 14.5551 19.356 14.4338 19.6416 14.4823C19.9271 14.5066 20.1493 14.6764 20.181 14.8947C20.2127 15.0887 20.0858 15.2585 19.8637 15.3555C19.1973 15.598 18.7214 16.1801 18.7214 16.738V17.1261C18.7214 17.4656 19.1021 17.7809 19.5781 17.7809C20.0541 17.7809 20.4348 17.4899 20.4348 17.1261V16.738C20.4348 16.6895 20.53 16.544 20.6252 16.5197C21.5137 16.1559 21.9897 15.4525 21.8627 14.7249ZM20.3714 18.363C20.3714 18.3388 20.3396 18.2903 20.3079 18.2417L20.2127 18.169C20.181 18.1447 20.1175 18.0962 20.0541 18.0962C20.0223 18.072 19.9589 18.0477 19.8954 18.0477C19.8637 18.0477 19.8002 18.0235 19.7368 18.0235C19.4829 17.9992 19.1973 18.0477 19.0069 18.1932L18.9118 18.266C18.88 18.2903 18.8483 18.3388 18.8483 18.3873C18.7848 18.3873 18.7848 18.46 18.7848 18.4843V18.7026C18.7848 18.7511 18.8166 18.7753 18.8166 18.8238C18.8166 18.8481 18.8483 18.8966 18.88 18.9451L18.9752 19.0179C19.1339 19.1392 19.356 19.2119 19.5781 19.2119C19.8002 19.2119 20.0223 19.1634 20.181 19.0179C20.3396 18.8966 20.4031 18.7268 20.4031 18.5571V18.4358C20.4031 18.46 20.4031 18.4358 20.3714 18.363Z" fill="#4F5ED2"/>
</g>
<defs>
<clipPath id="clip0_1702_11168">
<rect width="23.6558" height="19" fill="white" transform="translate(0 0.211914)"/>
</clipPath>
</defs>
</svg>
