<svg width="46" height="45" viewBox="0 0 46 45" fill="none" xmlns="http://www.w3.org/2000/svg">
<g clip-path="url(#clip0_349_3073)">
<path d="M43.7601 5.18519C42.8868 5.18519 42.0862 5.91298 42.0862 6.85912V12.4631C42.0862 12.8998 41.7951 13.2637 41.4312 13.4821L39.7572 14.1371V6.85912C39.7572 5.03963 38.5928 3.3657 36.9188 2.78346C24.6191 -1.80166 13.7749 1.25509 9.69927 2.78346C8.02534 3.43847 6.86087 5.03963 6.86087 6.85912V14.1371L5.25971 13.4821C4.82304 13.3365 4.6047 12.8998 4.6047 12.4631V6.85912C4.6047 5.98576 3.8769 5.18519 2.93077 5.18519C1.98463 5.18519 1.25684 5.91298 1.25684 6.85912V12.4631C1.25684 14.2099 2.34853 15.811 3.94968 16.466L6.93364 17.7033V17.9216C4.9686 18.7222 3.65856 20.6145 3.65856 22.7978V39.3916C3.65856 41.7933 5.62361 43.7584 8.02534 43.7584H11.8099C14.2116 43.7584 16.1767 41.7933 16.1767 39.3916V36.6987H30.587V39.3916C30.587 41.7933 32.5521 43.7584 34.9538 43.7584H38.7383C41.1401 43.7584 43.1051 41.7933 43.1051 39.3916V22.7978C43.1051 20.6145 41.7223 18.7222 39.83 17.9216V17.7033L42.7412 16.466C44.3424 15.811 45.4341 14.2099 45.4341 12.4631V6.85912C45.4341 5.91298 44.6335 5.18519 43.7601 5.18519ZM10.2087 10.7892H21.7079V17.4849H10.2087V10.7892ZM24.983 10.7892H36.4822V17.4849H24.983V10.7892ZM10.8637 5.8402C14.5755 4.45739 24.4735 1.69176 35.7544 5.8402C36.191 5.98576 36.4822 6.42244 36.4822 6.85912V7.51413H10.2087V6.85912C10.2087 6.42244 10.4998 5.98576 10.8637 5.8402ZM12.8288 39.4644C12.8288 40.0466 12.3193 40.5561 11.7371 40.5561H7.95256C7.37032 40.5561 6.86087 40.0466 6.86087 39.4644V36.7715H12.8288V39.4644ZM28.2581 33.4964H18.5056V31.5314C18.5056 30.9492 19.0151 30.4397 19.5973 30.4397H27.2392C27.8214 30.4397 28.3308 30.9492 28.3308 31.5314V33.4964H28.2581ZM39.83 39.4644C39.83 40.0466 39.3206 40.5561 38.7383 40.5561H34.9538C34.3716 40.5561 33.8621 40.0466 33.8621 39.4644V36.7715H39.83V39.4644ZM39.83 33.4964H31.5332V31.5314C31.5332 29.1297 29.5681 27.1646 27.1664 27.1646H19.5973C17.1956 27.1646 15.2305 29.1297 15.2305 31.5314V33.4964H6.93364V22.7978C6.93364 21.7062 7.807 20.76 8.97147 20.76H37.865C38.9567 20.76 39.9028 21.6334 39.9028 22.7978V33.4964H39.83Z" fill="#75B276"/>
<path d="M12.1736 28.5474H10.2814C9.408 28.5474 8.60742 29.2752 8.60742 30.2213C8.60742 31.1674 9.33522 31.8952 10.2814 31.8952H12.1736C13.047 31.8952 13.8476 31.1674 13.8476 30.2213C13.8476 29.2752 13.047 28.5474 12.1736 28.5474Z" fill="#4F5ED2"/>
<path d="M36.4822 28.5474H34.5899C33.7166 28.5474 32.916 29.2752 32.916 30.2213C32.916 31.1674 33.6438 31.8952 34.5899 31.8952H36.4822C37.3556 31.8952 38.1561 31.1674 38.1561 30.2213C38.1561 29.2752 37.4284 28.5474 36.4822 28.5474Z" fill="#4F5ED2"/>
</g>
<defs>
<clipPath id="clip0_349_3073">
<rect width="45" height="44.2105" fill="white" transform="translate(0.5)"/>
</clipPath>
</defs>
</svg>
