<svg width="25" height="25" viewBox="0 0 25 25" fill="none" xmlns="http://www.w3.org/2000/svg">
<path d="M22.2422 5.11276C21.8468 5.11276 21.4844 5.4314 21.4844 5.84564V8.29921C21.4844 8.4904 21.3526 8.64972 21.1878 8.74532L20.43 9.0321V5.84564C20.43 5.04903 19.9028 4.31614 19.145 4.06123C13.5766 2.05376 8.66722 3.39207 6.82208 4.06123C6.06425 4.34801 5.53707 5.04903 5.53707 5.84564V9.0321L4.81219 8.74532C4.6145 8.68159 4.51565 8.4904 4.51565 8.29921V5.84564C4.51565 5.46327 4.18616 5.11276 3.75783 5.11276C3.32949 5.11276 3 5.4314 3 5.84564V8.29921C3 9.06396 3.49423 9.76498 4.21911 10.0518L5.57002 10.5935V10.6891C4.6804 11.0396 4.08731 11.868 4.08731 12.824V20.0891C4.08731 21.1406 4.97694 22.001 6.06425 22.001H7.77759C8.86491 22.001 9.75453 21.1406 9.75453 20.0891V18.9101H16.2784V20.0891C16.2784 21.1406 17.168 22.001 18.2554 22.001H19.9687C21.056 22.001 21.9456 21.1406 21.9456 20.0891V12.824C21.9456 11.868 21.3196 11.0396 20.4629 10.6891V10.5935L21.7809 10.0518C22.5058 9.76498 23 9.06396 23 8.29921V5.84564C23 5.4314 22.6376 5.11276 22.2422 5.11276ZM7.05272 7.56633H12.2586V10.4979H7.05272V7.56633ZM13.7414 7.56633H18.9473V10.4979H13.7414V7.56633ZM7.34926 5.39954C9.02965 4.79411 13.5107 3.58326 18.6178 5.39954C18.8155 5.46327 18.9473 5.65445 18.9473 5.84564V6.13242H7.05272V5.84564C7.05272 5.65445 7.18451 5.46327 7.34926 5.39954ZM8.23888 20.121C8.23888 20.3759 8.00824 20.5989 7.74465 20.5989H6.0313C5.76771 20.5989 5.53707 20.3759 5.53707 20.121V18.942H8.23888V20.121ZM15.2241 17.5081H10.8089V16.6477C10.8089 16.3928 11.0395 16.1698 11.3031 16.1698H14.7628C15.0264 16.1698 15.257 16.3928 15.257 16.6477V17.5081H15.2241ZM20.4629 20.121C20.4629 20.3759 20.2323 20.5989 19.9687 20.5989H18.2554C17.9918 20.5989 17.7611 20.3759 17.7611 20.121V18.942H20.4629V20.121ZM20.4629 17.5081H16.7068V16.6477C16.7068 15.5962 15.8171 14.7359 14.7298 14.7359H11.3031C10.2158 14.7359 9.32619 15.5962 9.32619 16.6477V17.5081H5.57002V12.824C5.57002 12.346 5.9654 11.9318 6.49259 11.9318H19.5733C20.0675 11.9318 20.4959 12.3141 20.4959 12.824V17.5081H20.4629Z" fill="#55A257"/>
<path d="M6.48611 16.2939H5.43484C4.94965 16.2939 4.50488 16.6983 4.50488 17.2239C4.50488 17.7495 4.90921 18.1539 5.43484 18.1539H6.48611C6.9713 18.1539 7.41607 17.7495 7.41607 17.2239C7.41607 16.6983 6.9713 16.2939 6.48611 16.2939Z" fill="#4F5ED2"/>
<path d="M19.991 16.2939H18.9397C18.4545 16.2939 18.0098 16.6983 18.0098 17.2239C18.0098 17.7495 18.4141 18.1539 18.9397 18.1539H19.991C20.4762 18.1539 20.921 17.7495 20.921 17.2239C20.921 16.6983 20.5166 16.2939 19.991 16.2939Z" fill="#4F5ED2"/>
</svg>
