<svg width="46" height="45" viewBox="0 0 46 45" fill="none" xmlns="http://www.w3.org/2000/svg">
<g clip-path="url(#clip0_349_3054)">
<path d="M43.8609 18.5886H41.3278V17.0985C41.3278 14.4909 39.2417 12.4048 36.6341 12.4048H36.5596V9.49917C36.5596 7.41308 34.846 5.625 32.6854 5.625H9.29139C6.98179 5.625 5.1192 7.48758 5.1192 9.79719V10.6912V20.8237C2.28808 23.2823 0.5 26.9329 0.5 30.9561C0.5 38.332 6.53477 44.3667 13.8361 44.3667C19.0513 44.3667 23.596 41.3121 25.7566 36.9909H36.6341C39.2417 36.9909 41.3278 34.9048 41.3278 32.2972V28.721H43.8609C44.755 28.721 45.5 27.976 45.5 27.082V20.3022C45.5 19.3336 44.755 18.5886 43.8609 18.5886ZM8.39735 9.79719C8.39735 9.35017 8.76987 8.97765 9.21689 8.97765H32.6854C32.9834 8.97765 33.2815 9.20116 33.2815 9.57368V12.4793H9.29139C8.84437 12.4793 8.47185 12.1068 8.47185 11.6598V9.79719H8.39735ZM13.8361 41.0141C8.32285 41.0141 3.85265 36.4694 3.85265 30.9561C3.85265 25.4429 8.32285 20.8982 13.8361 20.8982C19.3493 20.8982 23.8195 25.3684 23.8195 30.9561C23.8195 36.5439 19.3493 41.0141 13.8361 41.0141ZM37.9752 32.2227C37.9752 32.9677 37.3791 33.5637 36.6341 33.5637H26.9487C27.0977 32.6697 27.2467 31.8502 27.2467 30.8816C27.2467 23.5058 21.2119 17.471 13.9106 17.471C11.9735 17.471 10.1854 17.918 8.47185 18.5886V15.6084C8.76987 15.6829 8.99338 15.6829 9.29139 15.6829H36.7086C37.4536 15.6829 38.0497 16.279 38.0497 17.024V18.5141H35.8891C33.5795 18.5141 31.7169 20.3767 31.7169 22.6863V24.4743C31.7169 26.7839 33.5795 28.6465 35.8891 28.6465H38.0497V32.2227H37.9752ZM42.2219 25.3684H35.8891C35.4421 25.3684 35.0695 24.9959 35.0695 24.5488V22.7608C35.0695 22.3137 35.4421 21.9412 35.8891 21.9412H42.2219V25.3684Z" fill="#75B276"/>
<path d="M12.9429 28.3485H16.8916C17.7857 28.3485 18.5307 27.6035 18.5307 26.7094C18.5307 25.8154 17.7857 24.9958 16.8916 24.9958H16.1466V24.8468C16.1466 23.9528 15.4015 23.2078 14.5075 23.2078C13.6135 23.2078 12.8684 23.9528 12.8684 24.8468V24.9958C10.8568 25.0703 9.21777 26.7094 9.21777 28.7955C9.21777 30.8816 10.9313 32.5952 13.0174 32.5952H14.8055C15.029 32.5952 15.2525 32.8187 15.2525 33.0422C15.2525 33.2657 15.029 33.4892 14.8055 33.4892H10.8568C9.96281 33.4892 9.21777 34.2343 9.21777 35.1283C9.21777 36.0223 9.96281 36.7674 10.8568 36.7674H12.7939V36.9164C12.7939 37.8104 13.539 38.5554 14.433 38.5554C15.327 38.5554 16.0721 37.8104 16.0721 36.9164V36.5439C17.4876 36.0223 18.5307 34.6068 18.5307 33.0422C18.5307 30.9561 16.8171 29.2425 14.731 29.2425H12.9429C12.7194 29.2425 12.4959 29.019 12.4959 28.7955C12.4959 28.572 12.6449 28.3485 12.9429 28.3485Z" fill="#4F5ED2"/>
</g>
<defs>
<clipPath id="clip0_349_3054">
<rect width="45" height="45" fill="white" transform="translate(0.5)"/>
</clipPath>
</defs>
</svg>
