<svg width="25" height="25" viewBox="0 0 25 25" fill="none" xmlns="http://www.w3.org/2000/svg">
<path d="M23.4349 11.2553H22.1826V10.5187C22.1826 9.22962 21.1514 8.19834 19.8623 8.19834H19.8254V6.76191C19.8254 5.73063 18.9783 4.84668 17.9102 4.84668H6.34513C5.20336 4.84668 4.28257 5.76747 4.28257 6.90924V7.35122V12.3603C2.88298 13.5757 1.99902 15.3805 1.99902 17.3694C1.99902 21.0157 4.98237 23.999 8.59185 23.999C11.17 23.999 13.4168 22.4889 14.4849 20.3527H19.8623C21.1514 20.3527 22.1826 19.3214 22.1826 18.0323V16.2644H23.4349C23.8769 16.2644 24.2452 15.8961 24.2452 15.4541V12.1025C24.2452 11.6237 23.8769 11.2553 23.4349 11.2553ZM5.90315 6.90924C5.90315 6.68825 6.08731 6.50409 6.3083 6.50409H17.9102C18.0575 6.50409 18.2049 6.61459 18.2049 6.79875V8.23517H6.34513C6.12414 8.23517 5.93999 8.05101 5.93999 7.83003V6.90924H5.90315ZM8.59185 22.3416C5.86632 22.3416 3.65644 20.0949 3.65644 17.3694C3.65644 14.6438 5.86632 12.3971 8.59185 12.3971C11.3174 12.3971 13.5273 14.607 13.5273 17.3694C13.5273 20.1317 11.3174 22.3416 8.59185 22.3416ZM20.5252 17.9955C20.5252 18.3638 20.2306 18.6585 19.8623 18.6585H15.0742C15.1478 18.2165 15.2215 17.8113 15.2215 17.3325C15.2215 13.6862 12.2382 10.7029 8.62868 10.7029C7.67106 10.7029 6.78711 10.9239 5.93999 11.2553V9.78209C6.08731 9.81892 6.19781 9.81892 6.34513 9.81892H19.8991C20.2674 9.81892 20.5621 10.1136 20.5621 10.4819V11.2185H19.494C18.3522 11.2185 17.4314 12.1393 17.4314 13.2811V14.165C17.4314 15.3068 18.3522 16.2276 19.494 16.2276H20.5621V17.9955H20.5252ZM22.6246 14.607H19.494C19.273 14.607 19.0888 14.4229 19.0888 14.2019V13.3179C19.0888 13.0969 19.273 12.9128 19.494 12.9128H22.6246V14.607Z" fill="#55A257"/>
<path d="M8.15016 16.0814H10.1022C10.5442 16.0814 10.9125 15.7131 10.9125 15.2711C10.9125 14.8291 10.5442 14.424 10.1022 14.424H9.73392V14.3503C9.73392 13.9084 9.3656 13.54 8.92362 13.54C8.48165 13.54 8.11333 13.9084 8.11333 14.3503V14.424C7.11888 14.4608 6.30859 15.2711 6.30859 16.3024C6.30859 17.3337 7.15572 18.1808 8.187 18.1808H9.07095C9.18144 18.1808 9.29194 18.2913 9.29194 18.4018C9.29194 18.5123 9.18144 18.6228 9.07095 18.6228H7.11888C6.67691 18.6228 6.30859 18.9911 6.30859 19.4331C6.30859 19.875 6.67691 20.2434 7.11888 20.2434H8.0765V20.317C8.0765 20.759 8.44482 21.1273 8.88679 21.1273C9.32877 21.1273 9.69708 20.759 9.69708 20.317V20.1329C10.3969 19.875 10.9125 19.1752 10.9125 18.4018C10.9125 17.3705 10.0654 16.5234 9.03412 16.5234H8.15016C8.03967 16.5234 7.92918 16.4129 7.92918 16.3024C7.92918 16.1919 8.00284 16.0814 8.15016 16.0814Z" fill="#4F5ED2"/>
</svg>
