<svg width="574" height="153" viewBox="0 0 574 153" fill="none" xmlns="http://www.w3.org/2000/svg">
<path d="M241.933 173.205C206.279 159.788 184.303 121.953 177.773 104.713C181.123 102.353 188.788 111.447 199.179 114.521C209.57 117.595 213.827 113.646 233.741 116.32C253.656 118.993 261.056 126.384 265.869 130.931C262.057 132.72 252.47 137.681 244.62 143.209C236.769 148.737 239.558 165.509 241.933 173.205Z" fill="#EFEFEF"/>
<path d="M291.216 110.781C255.561 97.3642 233.586 59.5291 227.055 42.2887C230.406 39.9291 238.071 49.0234 248.461 52.0975C258.852 55.1715 263.109 51.2225 283.024 53.8959C302.938 56.5694 310.338 63.9601 315.151 68.5071C311.339 70.2964 301.753 75.2568 293.902 80.7848C286.052 86.3127 288.84 103.086 291.216 110.781Z" fill="#EFEFEF"/>
<path d="M352.701 187.423C317.046 174.006 295.071 136.171 288.54 118.93C291.891 116.571 299.556 125.665 309.947 128.739C320.338 131.813 324.595 127.864 344.509 130.538C364.423 133.211 371.824 140.602 376.637 145.149C372.825 146.938 363.238 151.898 355.387 157.426C347.537 162.954 350.325 179.727 352.701 187.423Z" fill="#EFEFEF"/>
<path d="M457.528 205.621C421.874 192.204 399.898 154.369 393.367 137.129C396.718 134.769 404.383 143.863 414.774 146.937C425.165 150.011 429.422 146.062 449.336 148.736C469.25 151.409 476.651 158.8 481.464 163.347C477.652 165.136 468.065 170.097 460.215 175.625C452.364 181.153 455.153 197.925 457.528 205.621Z" fill="#EFEFEF"/>
<path d="M543.169 172.168C507.514 158.751 485.539 120.916 479.008 103.676C482.359 101.316 490.024 110.411 500.415 113.485C510.805 116.559 515.062 112.61 534.977 115.283C554.891 117.957 562.292 125.347 567.105 129.894C563.292 131.684 553.706 136.644 545.855 142.172C538.005 147.7 540.793 164.473 543.169 172.168Z" fill="#EFEFEF"/>
<path d="M147.954 180.869C112.299 167.453 90.3239 129.618 83.793 112.377C87.1439 110.018 94.8089 119.112 105.2 122.186C115.591 125.26 119.848 121.311 139.762 123.984C159.676 126.658 167.077 134.048 171.89 138.596C168.078 140.385 158.491 145.345 150.64 150.873C142.79 156.401 145.578 173.174 147.954 180.869Z" fill="#EFEFEF"/>
<path d="M178.552 84.4992C142.897 71.0825 120.922 33.2474 114.391 16.0069C117.742 13.6474 125.407 22.7417 135.797 25.8157C146.188 28.8898 150.445 24.9407 170.36 27.6142C190.274 30.2876 197.674 37.6783 202.487 42.2254C198.675 44.0146 189.089 48.9751 181.238 54.503C173.387 60.031 176.176 76.8038 178.552 84.4992Z" fill="#EFEFEF"/>
<path d="M85.9344 92.7902C50.2799 79.3735 28.3044 41.5384 21.7735 24.298C25.1243 21.9384 32.7893 31.0327 43.1802 34.1068C53.571 37.1808 57.8281 33.2318 77.7424 35.9052C97.6567 38.5786 105.057 45.9693 109.87 50.5164C106.058 52.3056 96.4713 57.2661 88.6208 62.794C80.7703 68.322 83.5588 85.0948 85.9344 92.7902Z" fill="#EFEFEF"/>
</svg>
