<svg width="24" height="24" viewBox="0 0 24 24" fill="none" xmlns="http://www.w3.org/2000/svg">
<g clip-path="url(#clip0_131_1093)">
<path d="M21.9182 16.8174C21.9182 14.8248 20.3603 13.267 18.3678 13.267C16.3752 13.267 14.7812 14.8611 14.7812 16.8174C14.7812 17.9767 15.9405 20.0055 16.81 21.3822H6.08637C5.57917 21.3822 5.07197 21.1648 4.70969 20.8025C4.23872 20.3316 4.05758 19.6794 4.20249 18.9911C4.38363 18.1216 5.21689 17.4695 6.19505 17.4695H9.78166C10.7236 17.4695 11.6293 17.1072 12.3176 16.4189C13.2958 15.4407 13.6219 14.0278 13.1509 12.6874C12.6799 11.2745 11.3033 10.2963 9.7092 10.2963H5.07197C5.94145 8.88339 7.13699 6.74592 7.13699 5.55038C7.13699 3.55782 5.57917 2 3.58661 2C1.59405 2 0 3.59405 0 5.55038C0 7.21689 2.4273 10.8397 2.89827 11.5643C2.9345 11.6005 2.97073 11.6367 3.00696 11.673L3.04318 11.7092C3.07941 11.7454 3.11564 11.7454 3.15187 11.7817L3.1881 11.8179C3.22433 11.8541 3.26055 11.8541 3.29678 11.8541H3.33301C3.40547 11.8541 3.4417 11.8903 3.51415 11.8903H9.67298C10.5425 11.8903 11.3033 12.3975 11.5569 13.1583C11.8105 13.9191 11.6293 14.6799 11.0859 15.2234C10.7236 15.5856 10.2526 15.803 9.7092 15.803H6.1226C4.34741 15.803 2.86204 16.9985 2.53599 18.6288C2.28239 19.8244 2.64467 21.0561 3.51415 21.8894C4.20249 22.5777 5.07197 22.94 6.05014 22.94H18.2953C18.3678 22.94 18.404 22.94 18.4765 22.9038H18.5127C18.5489 22.9038 18.5852 22.8675 18.6214 22.8675C18.6576 22.8675 18.6576 22.8313 18.6938 22.8313C18.7301 22.7951 18.7663 22.7951 18.8025 22.7589L18.8388 22.7226C18.875 22.6864 18.9112 22.6502 18.9112 22.6139C18.9112 22.6139 18.9474 22.6139 18.9474 22.5777C19.4909 21.9981 21.9182 18.5201 21.9182 16.8174ZM3.58661 3.63028C4.67346 3.63028 5.50671 4.46353 5.50671 5.55038C5.50671 6.23872 4.52855 8.08637 3.58661 9.60796C2.60844 8.08637 1.63028 6.27495 1.63028 5.55038C1.63028 4.49976 2.49976 3.63028 3.58661 3.63028ZM18.3316 14.8973C19.4184 14.8973 20.2517 15.7306 20.2517 16.8174C20.2517 17.5057 19.2735 19.2809 18.2953 20.7301C17.3534 19.2809 16.339 17.5057 16.339 16.8174C16.3752 15.7668 17.2447 14.8973 18.3316 14.8973Z" fill="#B3B3B3"/>
<path d="M4.3836 5.51413C4.3836 5.29676 4.31114 5.07939 4.16623 4.93447C3.8764 4.64465 3.29675 4.64465 3.00692 4.93447C2.97069 4.9707 2.93446 5.00693 2.89824 5.04316C2.86201 5.07939 2.86201 5.15184 2.82578 5.18807C2.78955 5.2243 2.78955 5.29676 2.78955 5.33298C2.78955 5.36921 2.78955 5.44167 2.78955 5.4779C2.78955 5.51413 2.78955 5.58658 2.78955 5.62281C2.78955 5.65904 2.82578 5.7315 2.82578 5.76772C2.82578 5.80395 2.86201 5.87641 2.89824 5.91264C2.93446 5.94887 2.97069 5.9851 3.00692 6.02132C3.15183 6.16624 3.3692 6.27492 3.58657 6.27492C3.80395 6.27492 4.02132 6.20247 4.16623 6.02132C4.27491 5.94887 4.3836 5.7315 4.3836 5.51413Z" fill="#B3B3B3"/>
<path d="M18.9109 17.5419C19.0558 17.397 19.1645 17.1796 19.1645 16.9622C19.1645 16.7449 19.092 16.5275 18.9109 16.3826C18.8746 16.3464 18.8384 16.3101 18.8022 16.2739C18.7659 16.2377 18.6935 16.2377 18.6573 16.2015C18.621 16.2015 18.5486 16.1652 18.5123 16.1652C18.4037 16.1652 18.295 16.1652 18.1863 16.1652C18.1501 16.1652 18.0776 16.2015 18.0414 16.2015C18.0051 16.2377 17.9327 16.2377 17.8965 16.2739C17.8602 16.3101 17.824 16.3464 17.7878 16.3826C17.6429 16.5275 17.5342 16.7449 17.5342 16.9622C17.5342 17.1796 17.6066 17.397 17.7878 17.5419C17.824 17.5781 17.8602 17.6144 17.8965 17.6506C17.9327 17.6868 18.0051 17.6868 18.0414 17.723C18.0776 17.723 18.1501 17.7593 18.1863 17.7593C18.2225 17.7593 18.295 17.7593 18.3312 17.7593C18.5486 17.7593 18.7659 17.6868 18.9109 17.5419Z" fill="#B3B3B3"/>
</g>
<defs>
<clipPath id="clip0_131_1093">
<rect width="24" height="24" fill="white"/>
</clipPath>
</defs>
</svg>
