<svg width="25" height="27" viewBox="0 0 25 27" fill="none" xmlns="http://www.w3.org/2000/svg">
<path d="M22.0837 10.7333L20.1595 9.51424C20.1595 8.42353 19.2762 7.49322 18.1721 7.49322H16.9734C16.9419 7.49322 16.9419 7.46114 16.9103 7.46114L13.2511 5.11932C13.0303 4.95892 12.7149 4.95892 12.494 5.11932L8.77174 7.49322H7.57303C6.5005 7.49322 5.58569 8.39145 5.58569 9.51424L3.66145 10.7333C3.44063 10.8616 3.31445 11.0861 3.31445 11.3428V20.4534C3.31445 21.6403 4.2608 22.5707 5.39642 22.5707H20.2857C21.4528 22.5707 22.3676 21.6083 22.3676 20.4534V11.3428C22.4307 11.0861 22.3045 10.8616 22.0837 10.7333ZM21.0112 11.7277V12.5618L20.1595 12.8826V11.2145L21.0112 11.7277ZM12.8726 6.56291L14.3237 7.49322H11.4531L12.8726 6.56291ZM7.57303 8.9368H8.96101H18.1721C18.4876 8.9368 18.74 9.19344 18.74 9.51424V13.46L12.7464 15.7056L7.00522 13.5884V9.48216C7.00522 9.19344 7.25758 8.9368 7.57303 8.9368ZM5.58569 11.2145V13.043L4.73398 12.7222V11.7598L5.58569 11.2145ZM20.3172 21.1271H5.42797C5.04943 21.1271 4.76552 20.8063 4.76552 20.4534V14.262L12.5256 17.1171C12.5887 17.1492 12.6833 17.1492 12.778 17.1492C12.8726 17.1492 12.9357 17.1492 13.0303 17.1171L21.0112 14.1016V20.4213C21.0112 20.8063 20.6957 21.1271 20.3172 21.1271Z" fill="#55A257"/>
<path d="M10.1279 11.6641H15.6167C15.9952 11.6641 16.3422 11.3433 16.3422 10.9263C16.3422 10.5093 16.0268 10.1885 15.6167 10.1885H10.1279C9.74934 10.1885 9.40234 10.5093 9.40234 10.9263C9.40234 11.3433 9.74934 11.6641 10.1279 11.6641Z" fill="#4F5ED2"/>
<path d="M10.1279 14.005H15.6167C15.9952 14.005 16.3422 13.6842 16.3422 13.2671C16.3422 12.8501 16.0268 12.5293 15.6167 12.5293H10.1279C9.74934 12.5293 9.40234 12.8501 9.40234 13.2671C9.40234 13.6842 9.74934 14.005 10.1279 14.005Z" fill="#4F5ED2"/>
</svg>
