<svg width="46" height="46" viewBox="0 0 46 46" fill="none" xmlns="http://www.w3.org/2000/svg">
<path d="M44.2109 16.5949L39.9219 13.8777C39.9219 11.4466 37.9531 9.37293 35.4922 9.37293H32.8203C32.75 9.37293 32.75 9.30143 32.6797 9.30143L24.5234 4.08162C24.0312 3.7241 23.3281 3.7241 22.8359 4.08162L14.5391 9.37293H11.8672C9.47656 9.37293 7.4375 11.3751 7.4375 13.8777L3.14844 16.5949C2.65625 16.8809 2.375 17.3814 2.375 17.9534V38.2606C2.375 40.9063 4.48438 42.9799 7.01563 42.9799H40.2031C42.8047 42.9799 44.8438 40.8348 44.8438 38.2606V17.9534C44.9844 17.3814 44.7031 16.8809 44.2109 16.5949ZM41.8203 18.8115V20.6706L39.9219 21.3856V17.6674L41.8203 18.8115ZM23.6797 7.29931L26.9141 9.37293H20.5156L23.6797 7.29931ZM11.8672 12.5906H14.9609H35.4922C36.1953 12.5906 36.7578 13.1627 36.7578 13.8777V22.6727L23.3984 27.678L10.6016 22.9587V13.8062C10.6016 13.1627 11.1641 12.5906 11.8672 12.5906ZM7.4375 17.6674V21.7432L5.53906 21.0281V18.883L7.4375 17.6674ZM40.2734 39.7622H7.08594C6.24219 39.7622 5.60938 39.0472 5.60938 38.2606V24.4603L22.9062 30.8242C23.0469 30.8957 23.2578 30.8957 23.4688 30.8957C23.6797 30.8957 23.8203 30.8957 24.0312 30.8242L41.8203 24.1028V38.1891C41.8203 39.0472 41.1172 39.7622 40.2734 39.7622Z" fill="#75B276"/>
<path d="M17.5625 18.6686H29.7969C30.6406 18.6686 31.4141 17.9535 31.4141 17.024C31.4141 16.0944 30.7109 15.3794 29.7969 15.3794H17.5625C16.7187 15.3794 15.9453 16.0944 15.9453 17.024C15.9453 17.9535 16.7187 18.6686 17.5625 18.6686Z" fill="#4F5ED2"/>
<path d="M17.5625 23.8883H29.7969C30.6406 23.8883 31.4141 23.1733 31.4141 22.2437C31.4141 21.3142 30.7109 20.5991 29.7969 20.5991H17.5625C16.7187 20.5991 15.9453 21.3142 15.9453 22.2437C15.9453 23.1733 16.7187 23.8883 17.5625 23.8883Z" fill="#4F5ED2"/>
</svg>
