<svg width="18" height="17" viewBox="0 0 18 17" fill="none" xmlns="http://www.w3.org/2000/svg">
<path d="M17.7521 15.3448L12.8437 11.4747C14.8665 8.78881 14.6583 4.94765 12.1297 2.52166C10.7911 1.22202 9.0062 0.5 7.10233 0.5C5.19846 0.5 3.41358 1.22202 2.07492 2.52166C-0.69164 5.20758 -0.69164 9.59747 2.07492 12.2834C3.41358 13.583 5.19846 14.3051 7.10233 14.3051C8.91695 14.3051 10.6126 13.6408 11.9512 12.4567L16.9192 16.3556C17.0381 16.4422 17.1869 16.5 17.3356 16.5C17.5439 16.5 17.7224 16.4134 17.8413 16.269C18.0793 15.9801 18.0496 15.5758 17.7521 15.3448ZM7.10233 13.0054C5.55543 13.0054 4.12753 12.4278 3.02686 11.3592C0.76601 9.16426 0.76601 5.61191 3.02686 3.44585C4.12753 2.37726 5.55543 1.79964 7.10233 1.79964C8.64922 1.79964 10.0771 2.37726 11.1778 3.44585C13.4386 5.64079 13.4386 9.19314 11.1778 11.3592C10.1069 12.4278 8.64922 13.0054 7.10233 13.0054Z" fill="#111928"/>
</svg>
