<svg width="501" height="228" viewBox="0 0 501 228" fill="none" xmlns="http://www.w3.org/2000/svg">
<mask id="path-1-inside-1_515_2378" fill="white">
<path d="M501 228L-3.05176e-05 228L-1.6294e-05 80C-1.20478e-05 35.8172 35.8172 8.78281e-06 80 1.22964e-05L501 4.57764e-05L501 228Z"/>
</mask>
<path d="M501 228L-3.05176e-05 228L501 228ZM-1.00002 80C-1.00001 35.2649 35.2649 -0.999991 80 -0.999988L501 -0.999954L501 1.00005L80 1.00001C36.3695 1.00001 0.999988 36.3695 0.999984 80L-1.00002 80ZM501 4.57764e-05L501 228L501 4.57764e-05ZM-1.00003 228L-1.00002 80C-1.00001 35.2649 35.2649 -0.999991 80 -0.999988L80 1.00001C36.3695 1.00001 0.999988 36.3695 0.999984 80L0.999969 228L-1.00003 228Z" fill="#108313" mask="url(#path-1-inside-1_515_2378)"/>
</svg>
