<svg width="117" height="105" viewBox="0 0 117 105" fill="none" xmlns="http://www.w3.org/2000/svg">
<path d="M99.7063 21.8134H84.9412V16.4766C84.9412 9.89456 79.6045 4.37988 72.8445 4.37988H16.0967C9.51468 4.37988 4 9.71667 4 16.4766V52.7667C4 59.3488 9.33678 64.6855 15.9188 64.8634C14.1399 71.0897 12.5389 75.1812 11.2936 76.9601C10.2262 78.3833 10.4041 80.3401 11.6494 81.7632C12.361 82.6527 13.6062 83.1864 14.6736 83.1864C15.2072 83.1864 15.7409 83.0085 16.2746 82.8306C21.9672 80.3401 33.7081 71.8013 39.0449 64.8634H41.8912C41.8912 66.2866 41.8912 67.8876 41.8912 70.2002C41.8912 76.7822 47.228 82.2969 53.9879 82.2969H76.7582C82.2728 89.2347 93.8359 97.7736 99.5285 100.264C100.062 100.62 100.596 100.62 101.129 100.62C102.375 100.62 103.62 100.086 104.332 99.0188C105.399 97.5957 105.399 95.461 104.154 94.0378C102.197 91.7252 101.129 86.2106 100.24 81.9411C106.644 81.5854 111.625 76.2486 111.625 69.8444V33.9101C111.803 27.3281 106.288 21.8134 99.7063 21.8134ZM37.0881 56.8583C35.6649 56.8583 34.4197 57.5698 33.7081 58.6372C31.9292 61.4835 27.4819 65.575 23.0345 69.1329C23.7461 66.6424 24.4577 64.1519 24.9914 61.8393C25.3471 60.594 24.9914 59.3488 24.2798 58.2814C23.5682 57.214 22.323 56.6804 21.0777 56.6804H16.0967C13.7841 56.6804 12.0052 54.9014 12.0052 52.5888V16.4766C12.0052 14.164 13.7841 12.3851 16.0967 12.3851H72.6666C74.9792 12.3851 76.7582 14.164 76.7582 16.4766V52.7667C76.7582 55.0793 74.9792 56.8583 72.6666 56.8583H37.0881ZM103.798 70.0223C103.798 72.3349 102.019 74.1139 99.7063 74.1139H95.4369C94.1917 74.1139 93.1243 74.6475 92.2348 75.7149C91.3454 76.7822 91.1675 77.8496 91.5233 79.0949C91.7012 79.9843 92.0569 81.2296 92.2348 82.6527C92.4127 84.0759 92.7685 85.499 93.1243 86.9221C88.4991 83.3643 84.0518 79.2727 82.0949 76.2486C81.3834 75.1812 80.1381 74.4696 78.715 74.4696H53.81C51.4974 74.4696 49.7185 72.6907 49.7185 70.3781C49.7185 68.4213 49.7185 66.4645 49.7185 65.0413H72.6666C79.2487 65.0413 84.7633 59.7045 84.7633 52.9446V29.8186H99.5285C101.841 29.8186 103.62 31.5975 103.62 33.9101V70.0223H103.798Z" fill="white"/>
<path d="M22.8534 31.0635H22.6755C20.5408 31.0635 18.584 32.8424 18.584 35.155C18.584 37.4676 20.3629 39.2465 22.6755 39.2465H22.8534C24.9881 39.2465 26.9449 37.4676 26.9449 35.155C26.9449 32.8424 25.166 31.0635 22.8534 31.0635Z" fill="white"/>
<path d="M44.2011 31.0635H44.0232C41.8885 31.0635 39.9316 32.8424 39.9316 35.155C39.9316 37.4676 41.7106 39.2465 44.0232 39.2465H44.2011C46.3358 39.2465 48.2926 37.4676 48.2926 35.155C48.2926 32.8424 46.5137 31.0635 44.2011 31.0635Z" fill="white"/>
<path d="M65.5468 31.0635H65.3689C63.2342 31.0635 61.2773 32.8424 61.2773 35.155C61.2773 37.4676 63.0563 39.2465 65.3689 39.2465H65.5468C67.6815 39.2465 69.6383 37.4676 69.6383 35.155C69.6383 32.8424 67.8594 31.0635 65.5468 31.0635Z" fill="white"/>
</svg>
