<svg width="15" height="13" viewBox="0 0 15 13" fill="none" xmlns="http://www.w3.org/2000/svg">
<path d="M6.27974 0.352466C6.7497 -0.117489 7.48074 -0.117489 7.95069 0.352466C8.42064 0.82242 8.42064 1.55346 7.95069 2.02341L4.81766 5.20866H13.8512C14.4778 5.20866 15 5.73083 15 6.35744C15 6.98404 14.4778 7.50621 13.8512 7.50621H4.81766L7.95069 10.6915C8.42064 11.1614 8.42064 11.8925 7.95069 12.3624C7.74182 12.5713 7.42852 12.6757 7.11522 12.6757C6.80191 12.6757 6.48861 12.5713 6.27974 12.3102L1.16247 7.14069C0.692511 6.67074 0.692511 5.9397 1.16247 5.46974L6.27974 0.352466Z" fill="#6B6B6B"/>
</svg>
