<svg width="16" height="15" viewBox="0 0 16 15" fill="none" xmlns="http://www.w3.org/2000/svg">
<g clip-path="url(#clip0_1869_4609)">
<path d="M9.293 2.29913C9.48053 2.11166 9.73484 2.00635 10 2.00635C10.2652 2.00635 10.5195 2.11166 10.707 2.29913L15.207 6.79913C15.3945 6.98666 15.4998 7.24097 15.4998 7.50613C15.4998 7.7713 15.3945 8.02561 15.207 8.21313L10.707 12.7131C10.5184 12.8953 10.2658 12.9961 10.0036 12.9938C9.7414 12.9915 9.49059 12.8864 9.30518 12.701C9.11977 12.5155 9.0146 12.2647 9.01233 12.0025C9.01005 11.7403 9.11084 11.4877 9.293 11.2991L12 8.50613H2.5C2.23478 8.50613 1.98043 8.40078 1.79289 8.21324C1.60536 8.0257 1.5 7.77135 1.5 7.50613C1.5 7.24092 1.60536 6.98656 1.79289 6.79903C1.98043 6.61149 2.23478 6.50613 2.5 6.50613H12L9.293 3.71313C9.10553 3.52561 9.00021 3.2713 9.00021 3.00613C9.00021 2.74097 9.10553 2.48666 9.293 2.29913Z" fill="#108313"/>
</g>
<defs>
<clipPath id="clip0_1869_4609">
<rect width="15" height="14.9875" fill="white" transform="translate(0.5 0.00634766)"/>
</clipPath>
</defs>
</svg>
