<svg width="83" height="77" viewBox="0 0 83 77" fill="none" xmlns="http://www.w3.org/2000/svg">
<g clip-path="url(#clip0_1073_9510)">
<path fill-rule="evenodd" clip-rule="evenodd" d="M70.3497 36.1531H76.1459C78.6462 36.1531 80.8056 38.1109 80.4646 40.4809V42.8509C80.4646 44.2935 79.2145 45.427 77.6234 45.427C76.0322 45.427 74.7821 44.2935 74.7821 42.8509V41.5114H70.4633V42.8509C70.4633 44.2935 69.2132 45.427 67.6221 45.427H67.2811C65.69 45.427 64.4398 44.2935 64.4398 42.8509V30.5887L43.869 36.7714C43.0734 36.9775 42.2779 37.0805 41.4823 37.0805C40.6868 37.0805 39.8912 36.9775 39.0956 36.7714L18.8658 30.6918V65.4175C18.8658 66.4479 19.775 67.1692 20.7978 67.1692H28.1851V58.2044C28.1851 54.701 31.3674 51.9188 35.1179 51.9188H48.0741C51.9382 51.9188 55.0068 54.804 55.0068 58.2044V67.1692H59.8938C61.5986 67.1692 62.9624 68.4058 62.9624 69.9514C62.9624 71.4971 61.5986 72.7336 59.8938 72.7336H20.6842C16.4791 72.7336 12.8422 69.5392 12.8422 65.6236V62.4292H10.3419C8.40986 62.4292 6.25049 61.7079 4.77302 60.3684C3.29556 59.0288 2.5 57.2771 2.5 55.3192V40.584C2.5 38.214 4.65937 36.2561 7.15969 36.2561H12.8422V19.5631C12.8422 13.9987 17.8429 9.4648 23.8664 9.4648H25.2302V7.61001C25.3439 3.69435 28.7534 0.5 33.1858 0.5H50.0062C54.3249 0.5 57.7344 3.69435 57.7344 7.50697V9.25871H59.3255C65.349 9.25871 70.3497 13.7926 70.3497 19.357V36.1531ZM50.2335 5.85827H33.2994C32.2766 5.85827 31.3674 6.57958 31.3674 7.61001V9.36175H52.1655V7.61001C52.0519 6.68262 51.1427 5.85827 50.2335 5.85827ZM59.4392 14.72H24.0937C21.2524 14.72 18.9794 16.987 18.9794 19.46V24.9213L41.255 31.6192C41.596 31.7222 41.9369 31.7222 42.2779 31.6192L64.6671 24.9213V19.46C64.5535 16.8839 62.1668 14.72 59.4392 14.72ZM9.09176 56.4527C9.43272 56.7618 10.001 56.9679 10.4556 56.9679H12.8422V41.5114H8.52351V55.2162C8.52351 55.7314 8.63716 56.0405 9.09176 56.4527ZM34.3223 58.3075V67.2723H49.3242V58.3075C49.3242 57.6892 48.756 57.3801 48.3014 57.3801H35.3452C34.6633 57.3801 34.3223 57.8953 34.3223 58.3075Z" fill="black"/>
<path d="M78.4182 54.5978C78.0772 51.3004 74.895 48.5182 71.1445 48.2091C67.735 47.8999 64.4391 49.4456 62.848 52.0217C62.0524 53.3612 62.6207 55.0099 63.9845 55.6282C65.462 56.3495 67.2804 55.8343 67.9623 54.5978C68.3033 53.8765 69.4398 53.3612 70.4626 53.5673C71.4855 53.6704 72.281 54.3917 72.3947 55.3191C72.5083 56.1434 72.0537 56.8647 71.2582 57.2769C68.8715 58.3073 67.1667 60.7804 67.1667 63.1504V64.7991C67.1667 66.2417 68.5306 67.5813 70.2353 67.5813C71.9401 67.5813 73.3039 66.3447 73.3039 64.7991V63.1504C73.3039 62.9443 73.6449 62.326 73.9858 62.223C77.168 60.6773 78.8728 57.6891 78.4182 54.5978ZM73.0766 70.0543C73.0766 69.9513 72.9629 69.7452 72.8493 69.5391L72.5083 69.23C72.3947 69.1269 72.1674 68.9208 71.9401 68.9208C71.8264 68.8178 71.5991 68.7147 71.3718 68.7147C71.2582 68.7147 71.0309 68.6117 70.8036 68.6117C69.8944 68.5087 68.8715 68.7147 68.1896 69.333L67.8486 69.6421C67.735 69.7452 67.6213 69.9513 67.6213 70.1574C67.394 70.1574 67.394 70.4665 67.394 70.5695V71.4969C67.394 71.703 67.5077 71.8061 67.5077 72.0121C67.5077 72.1152 67.6213 72.3213 67.735 72.5274L68.0759 72.8365C68.6442 73.3517 69.4398 73.6608 70.2353 73.6608C71.0309 73.6608 71.8264 73.4547 72.3947 72.8365C72.9629 72.3213 73.1902 71.6 73.1902 70.8787V70.3634C73.1902 70.4665 73.1902 70.3634 73.0766 70.0543Z" fill="black"/>
</g>
<defs>
<clipPath id="clip0_1073_9510">
<rect width="82" height="76" fill="white" transform="translate(0.5 0.5)"/>
</clipPath>
</defs>
</svg>
