<svg width="85" height="77" viewBox="0 0 85 77" fill="none" xmlns="http://www.w3.org/2000/svg">
<path d="M69.4008 11.9209H64.3099V9.21044C64.3099 7.7963 63.1529 6.5 61.6488 6.5C60.1446 6.5 58.9876 7.67845 58.9876 9.21044V11.9209H25.781V9.21044C25.781 7.7963 24.624 6.5 23.1198 6.5C21.6157 6.5 20.4587 7.67845 20.4587 9.21044V11.9209H15.4835C11.0868 11.9209 7.5 15.5741 7.5 20.0522V52.8131C7.5 57.2912 11.0868 60.9444 15.4835 60.9444H50.0785C49.9628 61.4158 49.9628 62.0051 49.9628 62.4764C49.9628 70.1364 56.095 76.5 63.7314 76.5C71.3678 76.5 77.5 70.2542 77.5 62.4764C77.5 60.8266 77.2686 59.2946 76.6901 57.8805C77.1529 56.9377 77.5 55.995 77.5 54.9343V20.0522C77.5 15.5741 73.7975 11.9209 69.4008 11.9209ZM15.4835 17.2239H20.5744V18.4024C20.5744 19.8165 21.7314 21.1128 23.2355 21.1128C24.7397 21.1128 25.8967 19.9343 25.8967 18.4024V17.2239H59.219V18.4024C59.219 19.8165 60.376 21.1128 61.8802 21.1128C63.3843 21.1128 64.5413 19.9343 64.5413 18.4024V17.2239H69.6322C71.1364 17.2239 72.4091 18.5202 72.4091 20.0522V27.1229H12.7066V20.0522C12.7066 18.4024 13.8636 17.2239 15.4835 17.2239ZM15.4835 55.6414C13.9793 55.6414 12.7066 54.3451 12.7066 52.8131V32.3081H72.2934V51.5168C69.9793 49.6313 66.9711 48.4529 63.7314 48.4529C58.6405 48.4529 54.1281 51.2811 51.814 55.5236H15.4835V55.6414ZM63.7314 71.197C58.9876 71.197 55.1694 67.3081 55.1694 62.4764C55.1694 57.6448 58.9876 53.7559 63.7314 53.7559C68.4752 53.7559 72.2934 57.6448 72.2934 62.4764C72.2934 67.3081 68.3595 71.197 63.7314 71.197Z" fill="#111928"/>
<path d="M33.9989 36.1968H31.5691C30.8749 36.1968 30.4121 36.6682 30.4121 37.3752V39.85C30.4121 40.557 30.8749 41.0284 31.5691 41.0284H33.9989C34.6931 41.0284 35.1559 40.557 35.1559 39.85V37.3752C35.1559 36.786 34.6931 36.1968 33.9989 36.1968Z" fill="#111928"/>
<path d="M44.7547 36.1968H42.325C41.6308 36.1968 41.168 36.6682 41.168 37.3752V39.85C41.168 40.557 41.6308 41.0284 42.325 41.0284H44.7547C45.449 41.0284 45.9118 40.557 45.9118 39.85V37.3752C45.9118 36.786 45.449 36.1968 44.7547 36.1968Z" fill="#111928"/>
<path d="M56.6754 39.85V37.3752C56.6754 36.6682 56.2126 36.1968 55.5184 36.1968H53.0887C52.3945 36.1968 51.9316 36.6682 51.9316 37.3752V39.85C51.9316 40.557 52.3945 41.0284 53.0887 41.0284H55.5184C56.0969 41.0284 56.6754 40.557 56.6754 39.85Z" fill="#111928"/>
<path d="M23.2352 45.2712H20.8055C20.1112 45.2712 19.6484 45.7426 19.6484 46.4497V48.9244C19.6484 49.6315 20.1112 50.1029 20.8055 50.1029H23.2352C23.9294 50.1029 24.3922 49.6315 24.3922 48.9244V46.4497C24.3922 45.7426 23.9294 45.2712 23.2352 45.2712Z" fill="#111928"/>
<path d="M33.9989 45.2712H31.5691C30.8749 45.2712 30.4121 45.7426 30.4121 46.4497V48.9244C30.4121 49.6315 30.8749 50.1029 31.5691 50.1029H33.9989C34.6931 50.1029 35.1559 49.6315 35.1559 48.9244V46.4497C35.1559 45.7426 34.6931 45.2712 33.9989 45.2712Z" fill="#111928"/>
<path d="M44.7547 45.2712H42.325C41.6308 45.2712 41.168 45.7426 41.168 46.4497V48.9244C41.168 49.6315 41.6308 50.1029 42.325 50.1029H44.7547C45.449 50.1029 45.9118 49.6315 45.9118 48.9244V46.4497C45.9118 45.7426 45.449 45.2712 44.7547 45.2712Z" fill="#111928"/>
<path d="M67.1995 60.9445H65.6954V59.6482C65.6954 58.234 64.5383 56.9377 63.0342 56.9377C61.5301 56.9377 60.373 58.1162 60.373 59.6482V63.6549C60.373 65.0691 61.5301 66.3654 63.0342 66.3654H67.0838C68.4722 66.3654 69.7449 65.1869 69.7449 63.6549C69.7449 62.1229 68.7036 60.9445 67.1995 60.9445Z" fill="#111928"/>
</svg>
