<svg width="562" height="160" viewBox="0 0 562 160" fill="none" xmlns="http://www.w3.org/2000/svg">
<path d="M245.063 135.193C207.226 127.994 178.792 94.1047 169.305 78.0602C172.235 75.1303 181.443 82.8639 192.325 84.1292C203.207 85.3945 206.765 80.7245 227.065 79.9437C247.365 79.163 256.015 85.2454 261.596 88.9426C258.108 91.3841 249.416 97.9833 242.551 104.848C235.687 111.712 241.366 127.938 245.063 135.193Z" fill="#EFEFEF"/>
<path d="M283.361 64.487C245.523 57.2879 217.09 23.3991 207.603 7.35459C210.532 4.42468 219.741 12.1583 230.623 13.4236C241.505 14.6889 245.063 10.0188 265.363 9.2381C285.663 8.45736 294.313 14.5397 299.893 18.237C296.405 20.6785 287.714 27.2777 280.849 34.142C273.985 41.0062 279.663 57.2321 283.361 64.487Z" fill="#EFEFEF"/>
<path d="M357.863 130.2C320.026 123.001 291.592 89.1119 282.105 73.0674C285.035 70.1375 294.243 77.8711 305.125 79.1364C316.008 80.4017 319.565 75.7317 339.865 74.9509C360.165 74.1702 368.815 80.2526 374.396 83.9498C370.908 86.3913 362.216 92.9905 355.352 99.8548C348.487 106.719 354.166 122.945 357.863 130.2Z" fill="#EFEFEF"/>
<path d="M465.431 130.2C427.594 123.001 399.16 89.1119 389.673 73.0674C392.603 70.1375 401.811 77.8711 412.693 79.1364C423.576 80.4017 427.133 75.7317 447.433 74.9509C467.733 74.1702 476.383 80.2526 481.964 83.9498C478.476 86.3913 469.784 92.9905 462.92 99.8548C456.055 106.719 461.734 122.945 465.431 130.2Z" fill="#EFEFEF"/>
<path d="M544.956 82.0663C507.119 74.8672 478.685 40.9783 469.198 24.9338C472.128 22.0039 481.336 29.7375 492.218 31.0028C503.101 32.2681 506.658 27.5981 526.958 26.8173C547.258 26.0366 555.908 32.119 561.489 35.8162C558.001 38.2577 549.309 44.8569 542.444 51.7212C535.58 58.5855 541.259 74.8113 544.956 82.0663Z" fill="#EFEFEF"/>
<path d="M152.772 159.08C114.935 151.881 86.5009 117.992 77.0137 101.948C79.9435 99.0176 89.1517 106.751 100.034 108.017C110.916 109.282 114.474 104.612 134.774 103.831C155.074 103.05 163.724 109.133 169.305 112.83C165.817 115.271 157.125 121.871 150.26 128.735C143.396 135.599 149.075 151.825 152.772 159.08Z" fill="#EFEFEF"/>
<path d="M166.584 57.7902C128.747 50.5911 100.313 16.7023 90.8262 0.65775C93.756 -2.27216 102.964 5.46148 113.847 6.72675C124.729 7.99202 128.287 3.322 148.586 2.54126C168.886 1.76052 177.536 7.84291 183.117 11.5401C179.629 13.9817 170.937 20.5809 164.073 27.4451C157.209 34.3094 162.887 50.5353 166.584 57.7902Z" fill="#EFEFEF"/>
<path d="M75.7581 82.0663C37.9209 74.8672 9.4872 40.9783 0 24.9338C2.92987 22.0039 12.138 29.7375 23.0204 31.0028C33.9028 32.2681 37.4605 27.5981 57.7603 26.8173C78.0601 26.0366 86.7102 32.119 92.2909 35.8162C88.803 38.2577 80.111 44.8569 73.2467 51.7212C66.3825 58.5855 72.0608 74.8113 75.7581 82.0663Z" fill="#EFEFEF"/>
</svg>
