<svg width="196" height="54" viewBox="0 0 196 54" fill="none" xmlns="http://www.w3.org/2000/svg">
<path d="M85.3312 45.8788C72.1562 43.4358 62.2556 31.9355 58.9521 26.4908C59.9723 25.4965 63.1786 28.1209 66.9679 28.5503C70.7571 28.9797 71.9959 27.3949 79.0643 27.13C86.1327 26.865 89.1447 28.9291 91.0879 30.1837C89.8734 31.0123 86.8469 33.2517 84.4567 35.5812C82.0666 37.9106 84.0438 43.4169 85.3312 45.8788Z" fill="#EFEFEF"/>
<path d="M98.6661 21.8847C85.4912 19.4417 75.5906 7.9414 72.2871 2.49665C73.3073 1.50237 76.5136 4.1268 80.3028 4.55618C84.0921 4.98555 85.3309 3.40077 92.3993 3.13582C99.4677 2.87087 102.48 4.93495 104.423 6.18961C103.208 7.01816 100.182 9.25761 97.7917 11.587C95.4015 13.9164 97.3787 19.4227 98.6661 21.8847Z" fill="#EFEFEF"/>
<path d="M124.609 44.1835C111.434 41.7405 101.533 30.2402 98.2295 24.7955C99.2497 23.8012 102.456 26.4256 106.245 26.855C110.034 27.2844 111.273 25.6996 118.342 25.4346C125.41 25.1697 128.422 27.2338 130.365 28.4884C129.151 29.317 126.124 31.5564 123.734 33.8858C121.344 36.2153 123.321 41.7215 124.609 44.1835Z" fill="#EFEFEF"/>
<path d="M162.063 44.1835C148.888 41.7405 138.987 30.2402 135.684 24.7955C136.704 23.8012 139.91 26.4256 143.699 26.855C147.489 27.2844 148.727 25.6996 155.796 25.4346C162.864 25.1697 165.876 27.2338 167.819 28.4884C166.605 29.317 163.578 31.5564 161.188 33.8858C158.798 36.2153 160.775 41.7215 162.063 44.1835Z" fill="#EFEFEF"/>
<path d="M189.755 27.8495C176.58 25.4065 166.679 13.9062 163.376 8.46149C164.396 7.46722 167.602 10.0916 171.392 10.521C175.181 10.9504 176.42 9.36561 183.488 9.10066C190.557 8.83572 193.569 10.8998 195.512 12.1545C194.297 12.983 191.271 15.2225 188.881 17.5519C186.49 19.8813 188.468 25.3876 189.755 27.8495Z" fill="#EFEFEF"/>
<path d="M53.1944 53.9843C40.0195 51.5413 30.1189 40.041 26.8154 34.5963C27.8356 33.602 31.0419 36.2264 34.8312 36.6558C38.6204 37.0852 39.8592 35.5004 46.9276 35.2354C53.996 34.9705 57.008 37.0346 58.9512 38.2892C57.7367 39.1178 54.7101 41.3572 52.32 43.6866C49.9299 46.016 51.9071 51.5223 53.1944 53.9843Z" fill="#EFEFEF"/>
<path d="M58.005 19.6113C44.8301 17.1682 34.9294 5.66796 31.626 0.223209C32.6462 -0.771064 35.8524 1.85337 39.6417 2.28274C43.4309 2.71211 44.6697 1.12733 51.7381 0.862383C58.8066 0.597437 61.8185 2.66151 63.7617 3.91617C62.5472 4.74472 59.5207 6.98417 57.1305 9.31358C54.7404 11.643 56.7176 17.1493 58.005 19.6113Z" fill="#EFEFEF"/>
<path d="M26.379 27.8495C13.2041 25.4065 3.30345 13.9062 0 8.46149C1.02018 7.46722 4.22647 10.0916 8.01572 10.521C11.805 10.9504 13.0438 9.36561 20.1122 9.10066C27.1806 8.83572 30.1926 10.8998 32.1358 12.1545C30.9213 12.983 27.8947 15.2225 25.5046 17.5519C23.1144 19.8813 25.0916 25.3876 26.379 27.8495Z" fill="#EFEFEF"/>
</svg>
