<svg width="60" height="55" viewBox="0 0 60 55" fill="none" xmlns="http://www.w3.org/2000/svg">
<path d="M44.8703 54.5955C46.4242 54.5191 47.2011 54.4766 48.755 54.3832C49.3663 54.345 49.897 53.8058 49.9437 53.1818C50.139 50.5071 50.2239 49.1698 50.3683 46.4951C47.8719 46.6055 46.6195 46.6522 44.1231 46.7286C44.0213 49.4372 43.9618 50.7915 43.826 53.5002C43.792 54.1327 44.259 54.6252 44.8703 54.5955Z" fill="#4E516B" stroke="#4E516B" stroke-width="0.446302" stroke-miterlimit="10"/>
<path d="M10.7305 54.3862C12.2843 54.4796 13.0612 54.522 14.6151 54.5984C15.2264 54.6282 15.6934 54.1357 15.6595 53.5031C15.5236 50.7945 15.4642 49.4402 15.3623 46.7315C12.866 46.6551 11.6135 46.6084 9.11719 46.498C9.26153 49.1727 9.34644 50.51 9.54174 53.1847C9.58844 53.8088 10.1191 54.348 10.7305 54.3862Z" fill="#4E516B" stroke="#4E516B" stroke-width="0.446302" stroke-miterlimit="10"/>
<path d="M51.1426 52.2182C36.8523 52.9951 22.6342 52.9951 8.33965 52.2182C7.22309 52.1503 6.24238 51.1738 6.15747 50.0445C5.13855 34.7098 5.19375 19.4982 6.31455 4.17201C6.40795 3.04696 7.38866 2.06625 8.49673 1.98983C22.6851 1.14922 36.7929 1.14922 50.9813 1.98983C52.0894 2.06625 53.0701 3.04696 53.1635 4.17201C54.2885 19.4982 54.3437 34.7098 53.3206 50.0402C53.2357 51.1653 52.2549 52.1418 51.1384 52.2139L51.1426 52.2182Z" fill="white" stroke="#4E516B" stroke-width="0.822135" stroke-miterlimit="10"/>
<path d="M15.0189 48.7326C12.4758 48.6434 11.2022 48.5883 8.65915 48.4609C8.33225 48.4439 8.05205 48.1637 8.03082 47.8368C7.97987 47.0089 7.9544 46.5929 7.91195 45.7608C7.89497 45.4339 8.14545 45.1791 8.4766 45.1919C11.0409 45.298 12.3273 45.3447 14.8915 45.4211C15.2227 45.4296 15.4986 45.7056 15.5071 46.041C15.5368 46.8858 15.5538 47.3061 15.5878 48.1467C15.6005 48.4779 15.3458 48.7411 15.0189 48.7284V48.7326Z" fill="#F3D143"/>
<path d="M50.7602 48.46C48.2639 48.5874 47.0157 48.6383 44.5194 48.7275C44.1585 48.7402 43.8783 48.5067 43.891 48.201C43.925 47.3137 43.942 46.8722 43.976 45.9849C43.9887 45.6835 44.2901 45.4287 44.651 45.4202C47.1686 45.3481 48.4295 45.3014 50.947 45.1952C51.3079 45.1782 51.5881 45.4075 51.5754 45.7047C51.5287 46.5793 51.5032 47.0123 51.448 47.8869C51.431 48.184 51.1253 48.4388 50.7645 48.46H50.7602Z" fill="#F3D143"/>
<path d="M15.3253 51.2213C12.6422 51.1151 11.3048 51.0514 8.62168 50.8986C8.4179 50.8859 8.23959 50.7075 8.22261 50.4995C8.19713 50.1387 8.1844 49.9561 8.15893 49.5952C8.14619 49.3872 8.30327 49.2301 8.50706 49.2386C11.2029 49.383 12.5488 49.4424 15.2446 49.54C15.4527 49.5485 15.6267 49.7226 15.6352 49.9349C15.6522 50.3042 15.6607 50.4868 15.6734 50.8519C15.6819 51.0642 15.5248 51.2255 15.3168 51.217L15.3253 51.2213Z" fill="#F3D143"/>
<path d="M50.8516 50.8947C48.1684 51.0476 46.8311 51.1155 44.148 51.2174C43.9442 51.2259 43.7828 51.0603 43.7913 50.8523C43.8083 50.4829 43.8168 50.3004 43.8295 49.9352C43.838 49.723 44.0121 49.5489 44.2201 49.5404C46.916 49.4428 48.2618 49.3833 50.9577 49.239C51.1657 49.2263 51.3186 49.3876 51.3058 49.5956C51.2804 49.9565 51.2676 50.139 51.2422 50.4999C51.2294 50.7079 51.0511 50.8862 50.8431 50.899L50.8516 50.8947Z" fill="#F3D143"/>
<path d="M19.3225 45.6416C26.1874 45.7732 33.0524 45.7944 39.9173 45.6459C40.8131 45.6289 41.433 46.4652 41.1485 47.3228C41.1061 47.4502 41.0848 47.5139 41.0424 47.6412C40.3928 49.6239 38.5503 51.0249 36.5124 51.0588C31.9188 51.114 27.3379 51.1098 22.7401 51.0588C20.7574 51.0206 18.9574 49.696 18.2611 47.7898C18.1974 47.62 18.1677 47.5351 18.104 47.3653C17.7856 46.4992 18.4054 45.6246 19.3225 45.6459V45.6416Z" fill="#B2B2B2"/>
<path d="M53.9217 39.6733C37.7931 40.1276 21.6857 40.1276 5.55713 39.6733C5.22598 29.0511 5.38306 18.5223 6.02837 7.91281C21.8555 7.11891 37.619 7.11891 53.4462 7.91281C54.0915 18.518 54.2486 29.0468 53.9175 39.669L53.9217 39.6733Z" fill="#F8F6FE" stroke="#4E516B" stroke-width="0.755581" stroke-miterlimit="10"/>
<path d="M5.97838 21.8311C9.92668 17.2969 13.8453 12.7415 17.7256 8.15217C18.4559 8.13094 18.821 8.12245 19.547 8.10547C15.0722 13.476 10.5083 18.7701 5.91895 24.0388C5.93593 23.1557 5.94866 22.7142 5.97414 21.8269L5.97838 21.8311Z" fill="#DDE2FE"/>
<path d="M5.93983 25.992C11.0769 20.0568 16.1799 14.0919 21.2151 8.06755C22.5567 8.04207 23.2317 8.02934 24.5733 8.0166C18.4343 15.3528 12.1977 22.5998 5.92285 29.8214C5.92285 28.293 5.92285 27.5246 5.93983 25.9962V25.992Z" fill="#DDE2FE"/>
<path d="M53.3693 38.9859C37.6058 39.3935 21.8593 39.3935 6.09583 38.9859C6.07884 38.2642 6.07035 37.9075 6.05762 37.1858C14.192 27.4849 22.3603 17.8137 30.3418 7.98535C37.8818 8.04054 45.4005 8.24433 52.932 8.60519C53.5136 18.7477 53.658 28.8307 53.3736 38.9859H53.3693Z" fill="#DDE2FE"/>
<path d="M58.1543 11.1643C57.4325 11.1219 57.0674 11.1049 56.3457 11.0667C56.1079 7.48772 53.4927 6.63013 53.3738 6.59192C53.3187 5.92963 53.2889 5.59848 53.2295 4.94043C53.3951 4.99138 57.8189 6.41361 58.1585 11.1686L58.1543 11.1643Z" fill="white" stroke="#4E516B" stroke-width="0.755581" stroke-miterlimit="10"/>
<path d="M57.1113 9.89673C56.5933 9.86701 56.3344 9.85003 55.8164 9.82031C56.0202 12.7539 56.1051 14.2186 56.2282 17.1523C56.7547 17.1693 57.0179 17.1777 57.5443 17.199C58.4359 17.2287 59.1279 16.5621 59.0812 15.7046C58.992 14.0403 58.9411 13.2082 58.8222 11.5397C58.7628 10.6821 57.9943 9.94343 57.1155 9.89249L57.1113 9.89673Z" fill="#4E516B" stroke="#4E516B" stroke-width="0.411067" stroke-miterlimit="10"/>
<path d="M1.28745 11.1643C2.00918 11.1219 2.37429 11.1049 3.09603 11.0667C3.33377 7.48772 5.94899 6.63013 6.06787 6.59192C6.12306 5.92963 6.15278 5.59848 6.21221 4.94043C6.04664 4.99138 1.62284 6.41361 1.2832 11.1686L1.28745 11.1643Z" fill="white" stroke="#4E516B" stroke-width="0.755581" stroke-miterlimit="10"/>
<path d="M2.33054 9.89673C2.84848 9.86701 3.10746 9.85003 3.62541 9.82031C3.42163 12.7539 3.33672 14.2186 3.2136 17.1523C2.68716 17.1693 2.42394 17.1777 1.8975 17.199C1.00594 17.2287 0.31393 16.5621 0.36063 15.7046C0.449785 14.0403 0.500731 13.2082 0.619605 11.5397C0.679042 10.6821 1.44747 9.94343 2.32629 9.89249L2.33054 9.89673Z" fill="#4E516B" stroke="#4E516B" stroke-width="0.411067" stroke-miterlimit="10"/>
<path d="M29.7393 41.2953C29.9091 41.5288 30.1978 41.6094 30.546 41.4651C30.6224 42.0467 30.3719 42.9043 30.1299 43.142C30.1044 42.0085 29.5992 42.3694 29.7351 41.291L29.7393 41.2953Z" fill="#F8172A"/>
<path d="M28.2871 43.5355C28.5206 43.3657 28.6013 43.077 28.4569 42.7288C29.0386 42.6524 29.8919 42.9029 30.1296 43.1449C28.9961 43.1789 29.3612 43.6798 28.2871 43.5397V43.5355Z" fill="#0B24BB"/>
<path d="M31.9763 42.7448C31.7428 42.9146 31.6622 43.2033 31.8023 43.5514C31.2206 43.6321 30.3715 43.3816 30.1338 43.1439C31.2631 43.1099 30.9065 42.6132 31.9763 42.7448Z" fill="#F3D143"/>
<path d="M30.52 44.9962C30.3501 44.7627 30.0657 44.682 29.7176 44.8264C29.6369 44.2447 29.8874 43.3872 30.1294 43.1494C30.1591 44.283 30.6558 43.9221 30.52 44.9962Z" fill="#1A811E"/>
<path d="M31.7102 44.1719C31.4257 44.1295 31.1668 44.2738 31.0182 44.622C30.5554 44.2653 30.1309 43.4842 30.1309 43.1445C30.9502 43.9257 31.0521 43.3143 31.7059 44.1677L31.7102 44.1719Z" fill="#B2B2B2"/>
<path d="M29.1059 44.733C29.1484 44.4443 29.004 44.1853 28.6602 44.041C29.0125 43.574 29.7937 43.1494 30.1291 43.1494C29.3522 43.973 29.9593 44.0707 29.1059 44.7372V44.733Z" fill="#B2B2B2"/>
<path d="M28.5449 42.1151C28.8294 42.1618 29.0883 42.0132 29.2369 41.665C29.7039 42.0217 30.1285 42.8028 30.1285 43.1425C29.3091 42.3613 29.2115 42.9726 28.5449 42.1151Z" fill="#B2B2B2"/>
<path d="M31.1625 41.5576C31.1158 41.8463 31.2602 42.1053 31.6083 42.2496C31.2517 42.7209 30.4705 43.1454 30.1309 43.1454C30.9078 42.3218 30.3007 42.2242 31.1583 41.5576H31.1625Z" fill="#B2B2B2"/>
<path d="M51.1426 52.2182C36.8523 52.9951 22.6342 52.9951 8.33965 52.2182C7.22309 52.1503 6.24238 51.1738 6.15747 50.0445C5.13855 34.7098 5.19374 19.4982 6.31455 4.17201C6.40795 3.04696 7.38866 2.06625 8.49673 1.98983C22.6851 1.14922 36.7929 1.14922 50.9813 1.98983C52.0894 2.06625 53.0701 3.04696 53.1635 4.17201C54.2885 19.4982 54.3437 34.7098 53.3206 50.0403C53.2357 51.1653 52.2549 52.1418 51.1384 52.2139L51.1426 52.2182Z" stroke="#4E516B" stroke-width="0.822135" stroke-miterlimit="10"/>
</svg>
