<svg width="153" height="139" viewBox="0 0 153 139" fill="none" xmlns="http://www.w3.org/2000/svg">
<path d="M115.144 137.986C119.113 137.791 121.098 137.682 125.067 137.444C126.628 137.346 127.984 135.969 128.103 134.375C128.602 127.543 128.819 124.127 129.188 117.294C122.811 117.576 119.612 117.696 113.235 117.891C112.975 124.81 112.823 128.269 112.476 135.188C112.389 136.804 113.582 138.062 115.144 137.986Z" fill="#4E516B" stroke="#4E516B" stroke-width="1.14" stroke-miterlimit="10"/>
<path d="M27.9325 137.454C31.9016 137.693 33.8862 137.801 37.8553 137.997C39.4169 138.073 40.6098 136.815 40.5231 135.199C40.176 128.28 40.0242 124.82 39.7639 117.902C33.3873 117.706 30.1882 117.587 23.8115 117.305C24.1802 124.137 24.3971 127.553 24.896 134.385C25.0153 135.98 26.3708 137.357 27.9325 137.454Z" fill="#4E516B" stroke="#4E516B" stroke-width="1.14" stroke-miterlimit="10"/>
<path d="M131.162 131.913C94.659 133.898 58.3404 133.898 21.8266 131.913C18.9745 131.739 16.4694 129.245 16.2525 126.361C13.6498 87.1898 13.7908 48.3336 16.6537 9.18455C16.8923 6.31073 19.3974 3.80563 22.2279 3.61042C58.4705 1.46319 94.5072 1.46319 130.75 3.61042C133.58 3.80563 136.085 6.31073 136.324 9.18455C139.198 48.3336 139.339 87.1898 136.725 126.35C136.508 129.224 134.003 131.718 131.151 131.902L131.162 131.913Z" fill="white" stroke="#4E516B" stroke-width="2.1" stroke-miterlimit="10"/>
<path d="M38.8962 123.009C32.4003 122.782 29.1469 122.641 22.651 122.315C21.8159 122.272 21.1002 121.556 21.046 120.721C20.9158 118.607 20.8508 117.544 20.7423 115.418C20.6989 114.583 21.3388 113.933 22.1847 113.965C28.7348 114.236 32.0207 114.355 38.5709 114.551C39.4167 114.572 40.1216 115.277 40.1433 116.134C40.2192 118.292 40.2626 119.366 40.3494 121.513C40.3819 122.359 39.7312 123.031 38.8962 122.999V123.009Z" fill="#F3D143"/>
<path d="M130.186 122.326C123.81 122.652 120.621 122.782 114.245 123.01C113.323 123.042 112.607 122.446 112.64 121.665C112.726 119.398 112.77 118.271 112.857 116.004C112.889 115.234 113.659 114.583 114.581 114.562C121.012 114.377 124.233 114.258 130.663 113.987C131.585 113.944 132.301 114.529 132.268 115.288C132.149 117.522 132.084 118.628 131.943 120.862C131.9 121.621 131.119 122.272 130.197 122.326H130.186Z" fill="#F3D143"/>
<path d="M39.6777 129.364C32.8239 129.093 29.4078 128.931 22.554 128.54C22.0335 128.508 21.578 128.052 21.5346 127.521C21.4696 126.599 21.437 126.133 21.372 125.211C21.3394 124.679 21.7407 124.278 22.2612 124.3C29.1475 124.669 32.5853 124.82 39.4716 125.07C40.003 125.092 40.4476 125.536 40.4693 126.078C40.5127 127.022 40.5344 127.488 40.5669 128.421C40.5886 128.963 40.1874 129.375 39.656 129.354L39.6777 129.364Z" fill="#F3D143"/>
<path d="M130.436 128.541C123.582 128.931 120.166 129.104 113.312 129.365C112.792 129.386 112.38 128.963 112.401 128.432C112.445 127.489 112.466 127.022 112.51 126.09C112.531 125.547 112.976 125.103 113.507 125.081C120.394 124.832 123.831 124.68 130.718 124.311C131.249 124.279 131.64 124.691 131.607 125.222C131.542 126.144 131.509 126.61 131.444 127.532C131.412 128.063 130.956 128.519 130.425 128.551L130.436 128.541Z" fill="#F3D143"/>
<path d="M49.8819 115.115C67.4177 115.451 84.9534 115.505 102.489 115.126C104.777 115.082 106.361 117.219 105.634 119.409C105.526 119.735 105.471 119.897 105.363 120.223C103.704 125.287 98.9971 128.866 93.7917 128.952C82.0579 129.093 70.3565 129.083 58.6118 128.952C53.5474 128.855 48.9493 125.471 47.1708 120.602C47.0081 120.168 46.9322 119.951 46.7695 119.518C45.9562 117.305 47.5395 115.071 49.8819 115.126V115.115Z" fill="#B2B2B2"/>
<path d="M138.265 99.8672C97.0664 101.028 55.9219 101.028 14.7233 99.8672C13.8774 72.734 14.2786 45.8394 15.927 18.7387C56.3557 16.7108 96.6217 16.7108 137.05 18.7387C138.699 45.8286 139.1 72.7232 138.254 99.8564L138.265 99.8672Z" fill="#F8F6FE" stroke="#4E516B" stroke-width="1.93" stroke-miterlimit="10"/>
<path d="M15.7972 54.2872C25.8827 42.7051 35.8923 31.0689 45.8043 19.3459C47.6695 19.2916 48.6022 19.2699 50.4674 19.2266C39.0372 32.945 27.3793 46.4682 15.6562 59.9264C15.6996 57.6707 15.7322 56.5429 15.7972 54.2763V54.2872Z" fill="#DDE2FE"/>
<path d="M15.6996 64.9368C28.8216 49.7761 41.8568 34.5394 54.7185 19.1509C58.1563 19.0858 59.8697 19.0533 63.2966 19.0208C47.6153 37.7602 31.6846 56.272 15.6562 74.7187C15.6562 70.8146 15.6563 68.8517 15.6996 64.9477V64.9368Z" fill="#DDE2FE"/>
<path d="M136.856 98.1211C96.5902 99.1622 56.3675 99.1622 16.1015 98.1211C16.0581 96.2776 16.0364 95.3666 16.0039 93.523C36.7822 68.7431 57.6472 44.0391 78.0351 18.9338C97.2951 19.0748 116.501 19.5954 135.739 20.5171C137.225 46.4249 137.594 72.1809 136.867 98.1211H136.856Z" fill="#DDE2FE"/>
<path d="M149.121 27.0457C147.277 26.9372 146.345 26.8938 144.501 26.7962C143.894 17.6542 137.213 15.4636 136.91 15.366C136.769 13.6743 136.693 12.8284 136.541 11.1475C136.964 11.2776 148.264 14.9105 149.132 27.0565L149.121 27.0457Z" fill="white" stroke="#4E516B" stroke-width="1.93" stroke-miterlimit="10"/>
<path d="M146.465 23.8141C145.142 23.7382 144.48 23.6948 143.157 23.6189C143.678 31.1125 143.895 34.8539 144.209 42.3475C145.554 42.3909 146.226 42.4126 147.571 42.4668C149.848 42.5427 151.616 40.8401 151.497 38.6495C151.269 34.3984 151.139 32.2729 150.835 28.011C150.683 25.8204 148.721 23.9334 146.476 23.8033L146.465 23.8141Z" fill="#4E516B" stroke="#4E516B" stroke-width="1.05" stroke-miterlimit="10"/>
<path d="M3.86827 27.0457C5.71185 26.9372 6.64448 26.8938 8.48807 26.7962C9.09537 17.6542 15.7756 15.4636 16.0793 15.366C16.2203 13.6743 16.2962 12.8284 16.448 11.1475C16.0251 11.2776 4.72499 14.9105 3.85742 27.0565L3.86827 27.0457Z" fill="white" stroke="#4E516B" stroke-width="1.93" stroke-miterlimit="10"/>
<path d="M6.53565 23.8141C7.85869 23.7382 8.52021 23.6948 9.84325 23.6189C9.32271 31.1125 9.10582 34.8539 8.79132 42.3475C7.44659 42.3909 6.77423 42.4126 5.4295 42.4668C3.15213 42.5427 1.38446 40.8401 1.50375 38.6495C1.73148 34.3984 1.86162 32.2729 2.16527 28.011C2.31709 25.8204 4.27997 23.9334 6.5248 23.8033L6.53565 23.8141Z" fill="#4E516B" stroke="#4E516B" stroke-width="1.05" stroke-miterlimit="10"/>
<path d="M75.4967 104.01C75.9305 104.606 76.668 104.812 77.5572 104.444C77.7524 105.929 77.1126 108.12 76.4945 108.727C76.4294 105.832 75.1389 106.754 75.4859 103.999L75.4967 104.01Z" fill="#F8172A"/>
<path d="M71.7773 109.747C72.3738 109.313 72.5798 108.575 72.2111 107.686C73.6968 107.491 75.8766 108.131 76.4839 108.749C73.5884 108.836 74.521 110.115 71.7773 109.757V109.747Z" fill="#0B24BB"/>
<path d="M81.2114 107.719C80.615 108.152 80.4089 108.89 80.7668 109.779C79.2811 109.985 77.1122 109.345 76.5049 108.738C79.3895 108.651 78.4786 107.382 81.2114 107.719Z" fill="#F3D143"/>
<path d="M77.4923 113.466C77.0585 112.87 76.332 112.664 75.4427 113.033C75.2367 111.547 75.8765 109.356 76.4946 108.749C76.5705 111.645 77.8394 110.723 77.4923 113.466Z" fill="#1A811E"/>
<path d="M80.5283 111.362C79.8017 111.254 79.1402 111.623 78.7607 112.512C77.5786 111.601 76.4941 109.606 76.4941 108.738C78.5871 110.733 78.8474 109.172 80.5175 111.352L80.5283 111.362Z" fill="#B2B2B2"/>
<path d="M73.8809 112.794C73.9893 112.057 73.6206 111.395 72.7422 111.026C73.6423 109.833 75.6377 108.749 76.4944 108.749C74.5099 110.853 76.0606 111.102 73.8809 112.805V112.794Z" fill="#B2B2B2"/>
<path d="M72.4502 106.103C73.1768 106.222 73.8383 105.843 74.2179 104.953C75.4108 105.864 76.4952 107.86 76.4952 108.727C74.4022 106.732 74.1528 108.294 72.4502 106.103Z" fill="#B2B2B2"/>
<path d="M79.1294 104.682C79.0101 105.42 79.3788 106.081 80.2681 106.45C79.3571 107.654 77.3617 108.738 76.4941 108.738C78.4787 106.634 76.9279 106.385 79.1185 104.682H79.1294Z" fill="#B2B2B2"/>
</svg>
