<svg width="82" height="160" viewBox="0 0 82 160" fill="none" xmlns="http://www.w3.org/2000/svg">
<path d="M43.4132 70.6606H37.8193V159.95H43.4132V70.6606Z" fill="#8F8F8F"/>
<path d="M40.6162 70.6606H37.8193V159.95H40.6162V70.6606Z" fill="#6B6B6B"/>
<path d="M40.9728 82.8958C63.6015 82.8958 81.9456 64.5517 81.9456 41.923C81.9456 19.2944 63.6015 0.950195 40.9728 0.950195C18.3442 0.950195 0 19.2944 0 41.923C0 64.5517 18.3442 82.8958 40.9728 82.8958Z" fill="#7380DA"/>
<path d="M40.9725 77.8054C21.1953 77.8054 5.08984 61.7132 5.08984 41.9227C5.08984 22.1322 21.1953 6.04004 40.9725 6.04004C60.7498 6.04004 76.8552 22.1322 76.8552 41.9227C76.8552 61.7132 60.763 77.8054 40.9725 77.8054ZM40.9725 10.1227C23.4355 10.1227 9.17254 24.3857 9.17254 41.9227C9.17254 59.4598 23.4355 73.7227 40.9725 73.7227C58.5096 73.7227 72.7725 59.4598 72.7725 41.9227C72.7725 24.3857 58.5096 10.1227 40.9725 10.1227Z" fill="white"/>
<g style="mix-blend-mode:multiply" opacity="0.2">
<path d="M40.5089 54.3567C27.2136 42.1086 18.8228 26.3478 16.291 9.22168C6.40242 16.6978 0 28.5615 0 41.9231C0 64.5502 18.3456 82.8959 40.9728 82.8959C51.8291 82.8959 61.6912 78.6674 69.0215 71.7745C58.5231 67.8244 48.7671 61.9522 40.5089 54.3435V54.3567Z" fill="#208CCE"/>
</g>
<path d="M30.8981 45.3162L30.0497 46.4164C29.7714 46.0585 29.2544 45.5415 28.5121 44.8257V48.6035H27.0805V44.8787C26.3382 45.9922 25.5428 46.8936 24.7077 47.5563C24.4691 47.1852 24.151 46.8273 23.7666 46.4959C24.3101 46.138 24.8536 45.6608 25.397 45.0643C25.9405 44.4678 26.4177 43.8183 26.7889 43.1555H24.1378V41.8962H27.0937V40.4514H24.098V39.1921H25.7417C25.6887 38.6089 25.5031 37.9328 25.1849 37.1375L26.2586 36.8591H24.3233V35.6264H27.107V34.1152H28.5386V35.6264H31.3222V36.8591H29.4002L30.5137 37.1242C30.116 38.1184 29.8244 38.8077 29.6388 39.1921H31.4813V40.4514H28.5253V41.8962H31.3355V43.1555H28.5253V43.4206C28.6844 43.5399 28.9363 43.7387 29.2676 43.9906C29.599 44.2425 29.9437 44.5208 30.3016 44.8124C30.6595 45.1041 30.8583 45.2631 30.9113 45.3162H30.8981ZM29.1351 36.8724H26.3117C26.6696 37.6412 26.8816 38.3305 26.9479 38.9535L26.02 39.2054H29.5195L28.4325 38.9535C28.7639 38.1714 29.0025 37.4821 29.1483 36.8724H29.1351ZM38.5333 39.3114V40.6767H36.8498V48.5505H35.4182V40.6767H33.3636V40.8225C33.3636 44.4015 32.5418 47.0261 30.8716 48.6963C30.792 48.5372 30.633 48.3517 30.4076 48.1396C30.1823 47.9275 29.9967 47.7684 29.8244 47.6756C30.2751 47.2117 30.6595 46.6947 30.9644 46.1115C31.2692 45.5282 31.4813 44.9317 31.6139 44.2955C31.7464 43.6592 31.8392 43.076 31.879 42.559C31.9187 42.042 31.9453 41.4588 31.9453 40.8093V35.3082L32.9394 35.5866C34.9278 35.1094 36.3328 34.6587 37.1679 34.2213L38.3609 35.295C37.1812 35.8385 35.511 36.3157 33.3636 36.7398V39.3247H38.52L38.5333 39.3114Z" fill="white"/>
<path d="M43.9163 42.3471V40.5046H44.9899V42.3869C44.9899 44.6005 44.7514 46.284 44.2742 47.424C44.0488 47.1323 43.7307 46.8937 43.333 46.7082C43.7307 45.7007 43.9295 44.2559 43.9295 42.3603L43.9163 42.3471ZM49.815 39.5104H47.429V48.6435H46.0636V39.5104H43.5981V38.1848H49.8282V39.5104H49.815ZM49.4438 35.0565V36.3556H44.1018V35.0565H49.4438ZM48.4496 46.2972V40.4913H49.5366V46.2972H48.4496ZM54.5604 46.8009H58.0201V48.2458H49.6029V46.8009H53.0493V40.7299H50.2391V39.2983H53.0493V34.354H54.5604V39.2983H57.4634V40.7299H54.5604V46.8009Z" fill="white"/>
</svg>
