<svg width="86" height="167" viewBox="0 0 86 167" fill="none" xmlns="http://www.w3.org/2000/svg">
<path d="M45.3235 73.7295H39.4834V166.95H45.3235V73.7295Z" fill="#8F8F8F"/>
<path d="M42.4034 73.7295H39.4834V166.95H42.4034V73.7295Z" fill="#6B6B6B"/>
<path d="M42.7767 86.503C66.4016 86.503 85.5533 67.3513 85.5533 43.7264C85.5533 20.1015 66.4016 0.949707 42.7767 0.949707C19.1518 0.949707 0 20.1015 0 43.7264C0 67.3513 19.1518 86.503 42.7767 86.503Z" fill="#7380DA"/>
<path d="M42.7759 81.1886C22.128 81.1886 5.31348 64.3879 5.31348 43.7261C5.31348 23.0643 22.128 6.26367 42.7759 6.26367C63.4239 6.26367 80.2384 23.0643 80.2384 43.7261C80.2384 64.3879 63.4377 81.1886 42.7759 81.1886ZM42.7759 10.5261C24.4668 10.5261 9.57592 25.417 9.57592 43.7261C9.57592 62.0352 24.4668 76.9261 42.7759 76.9261C61.085 76.9261 75.9759 62.0352 75.9759 43.7261C75.9759 25.417 61.085 10.5261 42.7759 10.5261Z" fill="white"/>
<g style="mix-blend-mode:multiply" opacity="0.2">
<path d="M42.2923 56.7076C28.4117 43.9203 19.6515 27.4656 17.0083 9.58545C6.68429 17.3907 0 29.7767 0 43.7265C0 67.3499 19.1533 86.5032 42.7767 86.5032C54.1109 86.5032 64.4072 82.0885 72.0602 74.8922C61.0996 70.7681 50.9141 64.6374 42.2923 56.6937V56.7076Z" fill="#208CCE"/>
</g>
<path d="M38.5555 45.761H34.5837C35.3033 46.4806 36.189 47.1449 37.2131 47.7538C38.2372 48.3627 39.2613 48.8471 40.2992 49.1931C39.9117 49.4975 39.5381 49.9404 39.1921 50.5216C38.168 50.1064 37.1301 49.5252 36.0921 48.8056C35.0542 48.0859 34.1408 47.3109 33.3797 46.4668V50.7154H31.7743V46.536C31.0132 47.3663 30.1136 48.1413 29.1034 48.8332C28.0931 49.5252 27.0829 50.0926 26.0588 50.5078C25.7405 49.9819 25.3945 49.5529 24.9932 49.2069C26.0034 48.8332 27.0137 48.3489 28.0239 47.74C29.0342 47.131 29.8784 46.4668 30.5842 45.7471H26.8476V39.6026H31.7743V38.3847H25.436V36.9593H31.7743V35.4785H33.3797V36.9593H39.8702V38.3847H33.3797V39.6026H38.5693V45.7471L38.5555 45.761ZM28.3422 40.8066V42.1213H31.7605V40.8066H28.3422ZM28.3422 43.2284V44.5708H31.7605V43.2284H28.3422ZM36.9917 40.8066H33.3797V42.1213H36.9917V40.8066ZM36.9917 44.5846V43.2422H33.3797V44.5846H36.9917Z" fill="white"/>
<path d="M49.7512 39.146H48.6579C48.395 40.2255 47.5231 40.9866 46.0423 41.4295C45.9178 41.1112 45.7102 40.7929 45.4473 40.5023C46.5821 40.267 47.274 39.8103 47.5093 39.146H45.5857V38.1358H48.5472V37.3746H46.1807V36.3921H48.5472V35.5063H49.9727V36.3921H52.3668V37.3746H49.9727V38.1358H53.0034V39.146H50.9137V39.7688C50.9137 39.9072 50.9137 39.9902 50.9552 40.0317C50.9967 40.0733 51.0521 40.0871 51.1628 40.0871H51.7579C51.8686 40.0871 51.9378 40.0594 51.9793 39.9902C52.0208 39.921 52.0485 39.7688 52.0762 39.5197C52.2561 39.6442 52.5744 39.7688 53.0173 39.8657C52.9757 40.2808 52.8789 40.5576 52.7128 40.7237C52.5467 40.8898 52.2976 40.9728 51.9378 40.9728H50.9691C50.4709 40.9728 50.1387 40.8898 49.9865 40.7375C49.8343 40.5853 49.7374 40.267 49.7374 39.7826V39.1599L49.7512 39.146ZM56.394 37.4023H59.1203C59.1203 38.288 59.1203 39.1184 59.1203 39.8933C59.1203 40.6683 59.148 41.3326 59.1756 41.9C59.2033 42.4674 59.2587 42.9103 59.3417 43.2424C59.4248 43.5745 59.5355 43.7268 59.6739 43.7268C59.7569 43.7268 59.8261 43.5607 59.8676 43.2147C59.9091 42.8688 59.9368 42.3705 59.9506 41.7339C60.2274 42.0661 60.518 42.3567 60.8225 42.592C60.7533 43.5192 60.6426 44.1696 60.4765 44.5156C60.3105 44.8616 60.006 45.0553 59.5493 45.0553C59.2864 45.0553 59.0649 44.9861 58.8574 44.8477C58.6498 44.7093 58.4975 44.5018 58.373 44.1973C58.2484 43.8928 58.1516 43.5884 58.0685 43.2424C57.9855 42.8964 57.9301 42.4674 57.8886 41.9415C57.8471 41.4156 57.8194 40.8898 57.8056 40.4054C57.7917 39.921 57.7779 39.3259 57.7641 38.6201H56.3248C56.2556 39.3951 56.1587 40.1286 56.0065 40.7929C56.7815 41.2773 57.3212 41.6647 57.6257 41.9554L56.9476 43.0902C56.6569 42.7857 56.2141 42.4259 55.6328 42.0246C55.1762 43.187 54.4704 44.0866 53.4878 44.7232C53.3217 44.3772 53.0449 44.0589 52.699 43.7683V44.3219C49.4191 44.571 47.0526 44.737 45.5857 44.8201L45.4888 43.6991C45.8071 43.6991 46.3468 43.6576 47.0803 43.6161C47.8138 43.5745 48.312 43.533 48.5611 43.533V42.5781H46.1807V41.6094H48.5611V40.7652H49.9865V41.6094H52.436V42.5781H49.9865V43.4362C50.7061 43.3946 51.6195 43.3393 52.699 43.2562V43.7129C53.5155 43.1594 54.1244 42.3705 54.5119 41.3326C53.6954 40.8759 53.1972 40.613 53.0588 40.5576L53.7092 39.5889C53.8753 39.6581 54.2489 39.8518 54.844 40.1424C54.8994 39.8241 54.9547 39.3259 55.0239 38.6478H53.3909V37.4161H55.0931C55.0931 37.4161 55.107 36.7242 55.1485 35.5202H56.477C56.4494 36.1845 56.4355 36.8072 56.4217 37.4161L56.394 37.4023ZM53.4878 45.7473H59.1618C59.1341 46.0379 59.1203 46.2455 59.0926 46.3839C58.8712 48.5013 58.5529 49.7883 58.11 50.2312C57.7779 50.5218 57.3489 50.6878 56.823 50.7155C56.2279 50.757 55.4391 50.757 54.4704 50.7017C54.4288 50.1758 54.2766 49.7191 54.0275 49.3178C54.7471 49.387 55.4668 49.4146 56.1864 49.4146C56.5047 49.4146 56.7123 49.3593 56.8368 49.2624C57.1136 49.0271 57.3212 48.2522 57.4734 46.9374H53.128C52.7266 47.9754 52.0208 48.7919 50.9829 49.4008C49.945 50.0097 48.4088 50.4664 46.3468 50.757C46.2084 50.3003 45.9732 49.8852 45.6549 49.4977C47.3847 49.2763 48.6995 48.9718 49.5852 48.5705C50.4709 48.1691 51.1075 47.6156 51.4811 46.9374H46.5959V45.7334H51.8963C51.9655 45.4567 52.0208 45.1384 52.0762 44.8062H53.6262L53.4739 45.7334L53.4878 45.7473Z" fill="white"/>
</svg>
