<svg width="46" height="89" viewBox="0 0 46 89" fill="none" xmlns="http://www.w3.org/2000/svg">
<path d="M24.3001 39.0205H21.1689V89H24.3001V39.0205Z" fill="#8F8F8F"/>
<path d="M22.7345 39.0205H21.1689V89H22.7345V39.0205Z" fill="#6B6B6B"/>
<path d="M22.9345 45.8689C35.6008 45.8689 45.8689 35.6008 45.8689 22.9345C45.8689 10.2681 35.6008 0 22.9345 0C10.2681 0 0 10.2681 0 22.9345C0 35.6008 10.2681 45.8689 22.9345 45.8689Z" fill="#7380DA"/>
<path d="M22.9339 43.0199C11.8636 43.0199 2.84863 34.0124 2.84863 22.9347C2.84863 11.857 11.8636 2.84937 22.9339 2.84937C34.0042 2.84937 43.0192 11.857 43.0192 22.9347C43.0192 34.0124 34.0116 43.0199 22.9339 43.0199ZM22.9339 5.13465C13.1176 5.13465 5.13392 13.1183 5.13392 22.9347C5.13392 32.751 13.1176 40.7347 22.9339 40.7347C32.7503 40.7347 40.7339 32.751 40.7339 22.9347C40.7339 13.1183 32.7503 5.13465 22.9339 5.13465Z" fill="white"/>
<g style="mix-blend-mode:multiply" opacity="0.2">
<path d="M22.6748 29.8942C15.2328 23.0383 10.5361 14.2162 9.11888 4.62988C3.58374 8.81463 0 15.4553 0 22.9344C0 35.6 10.2689 45.8689 22.9345 45.8689C29.0113 45.8689 34.5316 43.502 38.6347 39.6437C32.7582 37.4326 27.2973 34.1457 22.6748 29.8867V29.8942Z" fill="#208CCE"/>
</g>
<path d="M19.1648 25.8876H21.3982V26.5034H13.5703V25.8876H15.8482C15.7517 25.6279 15.6182 25.3608 15.4475 25.0863L15.6033 25.0343H14.661V23.3575H20.4187V25.0343H19.4987L19.6545 25.0863C19.4987 25.3682 19.3355 25.6279 19.1574 25.8876H19.1648ZM21.2943 22.4003V22.9939H13.7113V22.4003H21.2943ZM20.9233 18.7424V22.0293H14.06V18.7424H14.7723V21.458H15.6701V21.0648H14.9949V20.6492H15.6701V20.3005H15.0839V19.885H15.6701V19.5363H15.0246V19.1134H15.6701V18.6608H16.1821V19.1134H16.8424V19.5363H16.1821V19.885H16.7979V20.3005H16.1821V20.6492H16.8869V21.0648H16.1821V21.458H17.1095V18.5198H17.8293V21.458H18.7419V21.0648H18.0518V20.6492H18.7419V20.3005H18.1409V19.885H18.7419V19.5363H18.0889V19.1134H18.7419V18.6608H19.2613V19.1134H19.9216V19.5363H19.2613V19.885H19.8623V20.3005H19.2613V20.6492H19.9661V21.0648H19.2613V21.458H20.1739V18.7424H20.9159H20.9233ZM15.4475 23.8694V24.5224H19.6026V23.8694H15.4475ZM18.8235 25.0343H16.2785C16.4566 25.3237 16.5827 25.5908 16.6644 25.8431L16.516 25.8876H18.4599L18.3635 25.8579C18.5935 25.4869 18.7493 25.2124 18.8235 25.0343Z" fill="white"/>
<path d="M31.6379 23.721H29.4788V25.8505C29.4788 26.0582 29.4491 26.2215 29.3972 26.3253C29.3452 26.4292 29.2488 26.5183 29.1078 26.5702C28.9075 26.6518 28.4474 26.6889 27.7129 26.6889C27.6758 26.4886 27.5942 26.2437 27.468 25.9618C27.7722 25.9618 28.121 25.9692 28.4994 25.9692C28.6107 25.9692 28.6626 25.9247 28.6626 25.8282V23.7136H26.5702V20.4637H28.3881C28.4548 20.1966 28.4994 19.9443 28.5365 19.7143H25.8654V21.5396C25.8654 23.8397 25.5611 25.5463 24.9527 26.6592C24.7005 26.4663 24.463 26.3328 24.2256 26.2511C24.463 25.8282 24.6485 25.3088 24.7746 24.7004C24.9008 24.092 24.9824 23.5578 25.0121 23.1052C25.0418 22.6526 25.0492 22.1258 25.0492 21.5322V18.9575H32.3131V19.7143H29.5233C29.4862 19.8627 29.4046 20.1076 29.2859 20.4637H31.6231V23.7136L31.6379 23.721ZM27.2083 24.0994L28.0022 24.3368C27.7945 24.7004 27.5274 25.064 27.2083 25.4127C26.8893 25.7614 26.5702 26.0656 26.2438 26.3179C26.036 26.1324 25.806 25.9692 25.5463 25.8282C25.8802 25.6205 26.1918 25.3608 26.4886 25.0566C26.7854 24.7524 27.0228 24.4333 27.2083 24.0994ZM27.4012 21.1167V21.7919H30.7847V21.1167H27.4012ZM27.4012 22.3929V23.0903H30.7847V22.3929H27.4012ZM30.1095 24.4556L30.7476 24.0623C31.0814 24.3294 31.4079 24.6262 31.7344 24.9601C32.0609 25.294 32.3131 25.5759 32.4764 25.8208L31.8012 26.266C31.6379 26.0137 31.4005 25.7095 31.074 25.3682C30.7476 25.0269 30.4285 24.7227 30.1169 24.4556H30.1095Z" fill="white"/>
</svg>
