<svg width="62" height="120" viewBox="0 0 62 120" fill="none" xmlns="http://www.w3.org/2000/svg">
<path d="M32.7503 52.5901H28.5303V119.95H32.7503V52.5901Z" fill="#8F8F8F"/>
<path d="M30.6403 52.5901H28.5303V119.95H30.6403V52.5901Z" fill="#6B6B6B"/>
<path d="M30.91 61.82C47.9811 61.82 61.82 47.9811 61.82 30.91C61.82 13.8389 47.9811 0 30.91 0C13.8389 0 0 13.8389 0 30.91C0 47.9811 13.8389 61.82 30.91 61.82Z" fill="#7380DA"/>
<path d="M30.9098 57.9801C15.9898 57.9801 3.83984 45.8401 3.83984 30.9101C3.83984 15.9801 15.9898 3.84009 30.9098 3.84009C45.8298 3.84009 57.9798 15.9801 57.9798 30.9101C57.9798 45.8401 45.8398 57.9801 30.9098 57.9801ZM30.9098 6.92009C17.6798 6.92009 6.91984 17.6801 6.91984 30.9101C6.91984 44.1401 17.6798 54.9001 30.9098 54.9001C44.1398 54.9001 54.8998 44.1401 54.8998 30.9101C54.8998 17.6801 44.1398 6.92009 30.9098 6.92009Z" fill="white"/>
<g style="mix-blend-mode:multiply" opacity="0.2">
<path d="M30.56 40.29C20.53 31.05 14.2 19.16 12.29 6.23999C4.83 11.88 0 20.83 0 30.91C0 47.98 13.84 61.82 30.91 61.82C39.1 61.82 46.54 58.63 52.07 53.43C44.15 50.45 36.79 46.02 30.56 40.28V40.29Z" fill="#208CCE"/>
</g>
<path d="M22.9303 27.2299H24.0403C24.6503 28.1299 25.4203 28.9599 26.3403 29.7299C27.2603 30.4999 28.2003 31.0999 29.1403 31.5299C28.9103 31.7599 28.6703 32.0799 28.4303 32.4999C27.9203 32.2199 27.4503 31.9199 27.0003 31.6099V35.9699H25.8003V35.5199H21.3503V35.9799H20.2003V31.6099C19.7503 31.9299 19.2703 32.2299 18.7503 32.5199C18.5103 32.1099 18.2803 31.8199 18.0703 31.6399C19.0603 31.1299 20.0103 30.4699 20.9003 29.6399C21.7903 28.8099 22.4703 28.0099 22.9303 27.2199V27.2299ZM21.4303 25.1999L22.5303 25.5899C22.1203 26.1799 21.6303 26.7499 21.0503 27.3099C20.4703 27.8699 19.8903 28.3499 19.3203 28.7499C19.0903 28.4799 18.7803 28.2199 18.4203 27.9499C18.9903 27.6099 19.5503 27.1999 20.1003 26.7099C20.6503 26.2199 21.0903 25.7099 21.4403 25.1999H21.4303ZM20.8303 31.1399H26.3503C25.0903 30.1599 24.1503 29.2299 23.5403 28.3299C22.9203 29.2599 22.0203 30.1999 20.8303 31.1399ZM21.3503 34.5399H25.8003V32.1299H21.3503V34.5399ZM28.6103 27.9499L27.6703 28.6299C27.3703 28.2299 26.9103 27.7599 26.3203 27.2099C25.7303 26.6599 25.1303 26.1699 24.5303 25.7499L25.4103 25.1499C26.0303 25.5999 26.6503 26.0799 27.2503 26.5899C27.8503 27.0999 28.3003 27.5599 28.6103 27.9499Z" fill="white"/>
<path d="M43.2595 25.4499V34.6499C43.2595 34.9499 43.2295 35.1899 43.1695 35.3499C43.1095 35.5099 42.9895 35.6399 42.8195 35.7299C42.5395 35.8699 41.9895 35.9399 41.1795 35.9399C41.1395 35.5999 41.0395 35.2399 40.8595 34.8499C41.1795 34.8499 41.5595 34.8599 41.9795 34.8599C42.1195 34.8599 42.1895 34.7799 42.1895 34.6399V29.1899H39.8895L40.1195 29.2999C39.7395 29.7699 39.4295 30.1399 39.1795 30.4099C39.3095 30.5299 39.4295 30.6499 39.5395 30.7699C39.9195 30.3499 40.1595 30.0599 40.2695 29.8999L40.8795 30.1699C40.3695 30.7499 39.8795 31.2599 39.3895 31.6899C39.5095 31.6899 39.6995 31.6699 39.9495 31.6599C40.1995 31.6499 40.3795 31.6399 40.4995 31.6299C40.3795 31.4299 40.2795 31.2699 40.1995 31.1399L40.7895 30.9599C41.1895 31.4899 41.4295 31.9599 41.5295 32.3699L40.9095 32.5899C40.8895 32.4999 40.8495 32.3699 40.7895 32.2099C40.4995 32.2299 40.0795 32.2599 39.5195 32.2999C38.9595 32.3399 38.5595 32.3699 38.3095 32.3899L38.2895 32.3199L37.7495 32.5099H37.8595V33.6099C37.8595 34.1499 37.7495 34.5999 37.5195 34.9799C37.2895 35.3599 36.8395 35.6499 36.1595 35.8899C36.0395 35.6599 35.8595 35.4399 35.6395 35.2599C36.2695 35.0699 36.6895 34.7999 36.8895 34.4399H35.3995V32.7099H36.1295V33.7899H37.0795V32.5199H37.7095C37.6895 32.4199 37.6495 32.3199 37.5995 32.2199C36.8295 32.2899 35.9895 32.3499 35.0595 32.4099L34.9795 31.7499L35.6895 31.7099C35.8495 31.5599 36.0095 31.3999 36.1695 31.2299C35.8695 30.8499 35.5195 30.5099 35.0995 30.2199L35.5095 29.7999C35.5995 29.8499 35.6995 29.9299 35.8095 30.0199C36.1095 29.5799 36.2995 29.2999 36.3695 29.1799H34.3395V35.9799H33.2695V25.4399H37.7295V29.1799H36.8595L37.1295 29.2999C36.7195 29.8199 36.4195 30.1799 36.2195 30.3899C36.4295 30.5999 36.5495 30.7299 36.5795 30.7699C36.9195 30.3799 37.1495 30.0799 37.2895 29.8799L37.8995 30.1499C37.2895 30.8199 36.7995 31.3299 36.4395 31.6899L37.2995 31.6399C37.2495 31.5199 37.1595 31.3799 37.0495 31.2099L37.6095 31.0499C37.8795 31.4199 38.0795 31.7699 38.2095 32.0999L38.1295 31.7599L38.5395 31.7399C38.5395 31.7399 38.7195 31.5699 39.0595 31.2599C38.7795 30.9099 38.4095 30.5599 37.9495 30.2099L38.3995 29.7899C38.4995 29.8599 38.6095 29.9499 38.7295 30.0499C39.0495 29.5699 39.2295 29.2799 39.2795 29.2099H38.6795V25.4699H43.2295L43.2595 25.4499ZM36.7395 26.2299H34.3795V26.9799H36.7395V26.2299ZM34.3795 27.6799V28.4099H36.7395V27.6799H34.3795ZM41.0595 34.4499H39.3495V35.7499H38.5595V32.5299H39.3495V33.7999H40.3195V32.7199H41.0595V34.4499ZM42.1995 26.2299H39.7695V26.9799H42.1995V26.2299ZM39.7695 28.4099H42.1995V27.6799H39.7695V28.4099Z" fill="white"/>
</svg>
