<svg width="665" height="184" viewBox="0 0 665 184" fill="none" xmlns="http://www.w3.org/2000/svg">
<path d="M245.063 159.193C207.226 151.994 178.792 118.105 169.305 102.06C172.235 99.1303 181.443 106.864 192.325 108.129C203.207 109.394 206.765 104.724 227.065 103.944C247.365 103.163 256.015 109.245 261.596 112.943C258.108 115.384 249.416 121.983 242.551 128.848C235.687 135.712 241.366 151.938 245.063 159.193Z" fill="#0518BF"/>
<path d="M283.361 88.487C245.523 81.2879 217.09 47.3991 207.603 31.3546C210.532 28.4247 219.741 36.1583 230.623 37.4236C241.505 38.6889 245.063 34.0188 265.363 33.2381C285.663 32.4574 294.313 38.5397 299.893 42.237C296.405 44.6785 287.714 51.2777 280.849 58.142C273.985 65.0062 279.663 81.2321 283.361 88.487Z" fill="#B3B3B3"/>
<path d="M357.863 154.2C320.026 147.001 291.592 113.112 282.105 97.0674C285.035 94.1375 294.243 101.871 305.125 103.136C316.008 104.402 319.565 99.7316 339.865 98.9509C360.165 98.1702 368.815 104.253 374.396 107.95C370.908 110.391 362.216 116.991 355.352 123.855C348.487 130.719 354.166 146.945 357.863 154.2Z" fill="#B3B3B3"/>
<path d="M465.431 154.2C427.594 147.001 399.16 113.112 389.673 97.0674C392.603 94.1375 401.811 101.871 412.693 103.136C423.576 104.402 427.133 99.7316 447.433 98.9509C467.733 98.1702 476.383 104.253 481.964 107.95C478.476 110.391 469.784 116.991 462.92 123.855C456.055 130.719 461.734 146.945 465.431 154.2Z" fill="#B3B3B3"/>
<path d="M544.956 106.066C507.119 98.8672 478.685 64.9783 469.198 48.9338C472.128 46.0039 481.336 53.7375 492.218 55.0028C503.101 56.2681 506.658 51.5981 526.958 50.8173C547.258 50.0366 555.908 56.119 561.489 59.8162C558.001 62.2577 549.309 68.8569 542.444 75.7212C535.58 82.5855 541.259 98.8113 544.956 106.066Z" fill="#F5D32F"/>
<path d="M152.772 183.08C114.935 175.881 86.5009 141.992 77.0137 125.948C79.9435 123.018 89.1517 130.751 100.034 132.017C110.916 133.282 114.474 128.612 134.774 127.831C155.074 127.05 163.724 133.133 169.305 136.83C165.817 139.271 157.125 145.871 150.26 152.735C143.396 159.599 149.075 175.825 152.772 183.08Z" fill="#B3B3B3"/>
<path d="M166.584 81.7902C128.747 74.5911 100.313 40.7023 90.8262 24.6577C93.756 21.7278 102.964 29.4615 113.847 30.7267C124.729 31.992 128.287 27.322 148.586 26.5413C168.886 25.7605 177.536 31.8429 183.117 35.5401C179.629 37.9817 170.937 44.5809 164.073 51.4451C157.209 58.3094 162.887 74.5353 166.584 81.7902Z" fill="#108313"/>
<path d="M75.7581 106.066C37.9209 98.8672 9.4872 64.9783 0 48.9338C2.92987 46.0039 12.138 53.7375 23.0204 55.0028C33.9028 56.2681 37.4605 51.5981 57.7603 50.8173C78.0601 50.0366 86.7102 56.119 92.2909 59.8162C88.803 62.2577 80.111 68.8569 73.2467 75.7212C66.3825 82.5855 72.0608 98.8113 75.7581 106.066Z" fill="#FC0E1E"/>
</svg>
