<svg width="421" height="119" viewBox="0 0 421 119" fill="none" xmlns="http://www.w3.org/2000/svg">
<path d="M183.806 101.134C155.503 95.7487 134.234 70.399 127.137 58.3973C129.329 56.2056 136.217 61.9906 144.357 62.9371C152.498 63.8835 155.159 60.3902 170.344 59.8062C185.528 59.2222 191.999 63.772 196.173 66.5376C193.564 68.3639 187.062 73.3003 181.928 78.4349C176.793 83.5696 181.041 95.7069 183.806 101.134Z" fill="#0518BF"/>
<path d="M212.458 48.2416C184.155 42.8565 162.886 17.5068 155.789 5.50507C157.981 3.31343 164.869 9.09839 173.009 10.0448C181.149 10.9913 183.811 7.498 198.995 6.91399C214.18 6.32997 220.651 10.8798 224.825 13.6454C222.216 15.4717 215.714 20.4081 210.58 25.5427C205.445 30.6774 209.693 42.8147 212.458 48.2416Z" fill="#B3B3B3"/>
<path d="M268.182 97.3984C239.879 92.0133 218.61 66.6636 211.513 54.6619C213.705 52.4703 220.593 58.2552 228.733 59.2017C236.874 60.1482 239.535 56.6549 254.72 56.0708C269.904 55.4868 276.375 60.0366 280.549 62.8022C277.94 64.6286 271.438 69.5649 266.304 74.6996C261.169 79.8342 265.417 91.9716 268.182 97.3984Z" fill="#B3B3B3"/>
<path d="M348.644 97.3984C320.34 92.0133 299.071 66.6636 291.975 54.6619C294.166 52.4703 301.054 58.2552 309.194 59.2017C317.335 60.1482 319.996 56.6549 335.181 56.0708C350.366 55.4868 356.836 60.0366 361.011 62.8022C358.401 64.6286 351.9 69.5649 346.765 74.6996C341.63 79.8342 345.878 91.9716 348.644 97.3984Z" fill="#B3B3B3"/>
<path d="M408.132 61.3934C379.829 56.0083 358.56 30.6586 351.463 18.6569C353.655 16.4653 360.542 22.2502 368.683 23.1967C376.823 24.1431 379.484 20.6499 394.669 20.0658C409.854 19.4818 416.324 24.0316 420.499 26.7972C417.89 28.6236 411.388 33.5599 406.253 38.6946C401.119 43.8292 405.366 55.9666 408.132 61.3934Z" fill="#F5D32F"/>
<path d="M114.77 119C86.4664 113.615 65.1972 88.2652 58.1006 76.2635C60.2922 74.0719 67.1801 79.8568 75.3204 80.8033C83.4607 81.7497 86.122 78.2564 101.307 77.6724C116.492 77.0884 122.962 81.6382 127.136 84.4038C124.527 86.2301 118.026 91.1665 112.891 96.3011C107.756 101.436 112.004 113.573 114.77 119Z" fill="#B3B3B3"/>
<path d="M125.102 43.2335C96.7984 37.8484 75.5293 12.4987 68.4326 0.497018C70.6242 -1.69463 77.5122 4.09033 85.6525 5.03678C93.7927 5.98324 96.454 2.48994 111.639 1.90593C126.824 1.32192 133.294 5.8717 137.469 8.63731C134.859 10.4637 128.358 15.4 123.223 20.5347C118.088 25.6693 122.336 37.8067 125.102 43.2335Z" fill="#108313"/>
<path d="M57.1702 61.3934C28.867 56.0083 7.59788 30.6586 0.501221 18.6569C2.69284 16.4653 9.58077 22.2502 17.7211 23.1967C25.8614 24.1431 28.5226 20.6499 43.7074 20.0658C58.8921 19.4818 65.3626 24.0316 69.5371 26.7972C66.9281 28.6236 60.4263 33.5599 55.2916 38.6946C50.157 43.8292 54.4045 55.9666 57.1702 61.3934Z" fill="#FC0E1E"/>
</svg>
