<svg width="303" height="86" viewBox="0 0 303 86" fill="none" xmlns="http://www.w3.org/2000/svg">
<path d="M132.245 72.955C111.827 69.0701 96.4829 50.7825 91.3633 42.1242C92.9443 40.5431 97.9134 44.7165 103.786 45.3993C109.658 46.0821 111.578 43.562 122.533 43.1406C133.487 42.7193 138.155 46.0016 141.167 47.9968C139.285 49.3143 134.594 52.8755 130.89 56.5797C127.186 60.2839 130.25 69.04 132.245 72.955Z" fill="#0518BF"/>
<path d="M152.912 34.7997C132.493 30.9148 117.149 12.6272 112.03 3.96896C113.611 2.38787 118.58 6.56123 124.452 7.24402C130.325 7.9268 132.245 5.40669 143.199 4.98537C154.154 4.56406 158.822 7.84634 161.833 9.84149C159.951 11.159 155.261 14.7202 151.556 18.4244C147.852 22.1286 150.916 30.8847 152.912 34.7997Z" fill="#B3B3B3"/>
<path d="M193.116 70.2607C172.697 66.3758 157.354 48.0881 152.234 39.4299C153.815 37.8488 158.784 42.0222 164.657 42.705C170.529 43.3877 172.449 40.8676 183.403 40.4463C194.358 40.025 199.026 43.3073 202.037 45.3024C200.155 46.62 195.465 50.1812 191.761 53.8854C188.056 57.5896 191.121 66.3457 193.116 70.2607Z" fill="#B3B3B3"/>
<path d="M251.164 70.2607C230.745 66.3758 215.401 48.0881 210.282 39.4299C211.863 37.8488 216.832 42.0222 222.704 42.705C228.577 43.3877 230.497 40.8676 241.451 40.4463C252.406 40.025 257.074 43.3073 260.085 45.3024C258.203 46.62 253.513 50.1812 249.808 53.8854C246.104 57.5896 249.168 66.3457 251.164 70.2607Z" fill="#B3B3B3"/>
<path d="M294.078 44.2861C273.66 40.4012 258.316 22.1135 253.196 13.4553C254.777 11.8742 259.746 16.0476 265.619 16.7303C271.491 17.4131 273.411 14.893 284.366 14.4717C295.32 14.0504 299.988 17.3327 303 19.3278C301.118 20.6454 296.427 24.2065 292.723 27.9108C289.019 31.615 292.083 40.3711 294.078 44.2861Z" fill="#F5D32F"/>
<path d="M82.4409 85.8454C62.0226 81.9605 46.6787 63.6728 41.5591 55.0146C43.1401 53.4335 48.1092 57.6069 53.9817 58.2897C59.8543 58.9725 61.7741 56.4523 72.7287 56.031C83.6832 55.6097 88.3511 58.892 91.3627 60.8871C89.4804 62.2047 84.7899 65.7659 81.0857 69.4701C77.3815 73.1743 80.4458 81.9304 82.4409 85.8454Z" fill="#B3B3B3"/>
<path d="M89.8945 31.1857C69.4762 27.3008 54.1323 9.01316 49.0127 0.354946C50.5938 -1.22614 55.5628 2.94722 61.4354 3.63C67.3079 4.31279 69.2278 1.79267 80.1823 1.37136C91.1368 0.950042 95.8047 4.23232 98.8163 6.22748C96.9341 7.54503 92.2436 11.1062 88.5393 14.8104C84.8351 18.5146 87.8994 27.2707 89.8945 31.1857Z" fill="#108313"/>
<path d="M40.8819 44.2861C20.4635 40.4012 5.11964 22.1135 0 13.4553C1.58107 11.8742 6.55013 16.0476 12.4227 16.7303C18.2952 17.4131 20.2151 14.893 31.1696 14.4717C42.1241 14.0504 46.792 17.3327 49.8036 19.3278C47.9214 20.6454 43.2309 24.2065 39.5267 27.9108C35.8224 31.615 38.8867 40.3711 40.8819 44.2861Z" fill="#FC0E1E"/>
</svg>
