<svg width="35" height="35" viewBox="0 0 35 35" fill="none" xmlns="http://www.w3.org/2000/svg">
<path d="M13.8318 0C15.4262 2.16357 18.0984 2.90082 21.3669 1.58934C22.1078 6.97286 19.7554 14.8454 17.5144 17.0551C17.2578 6.58545 12.5509 9.93136 13.8318 0Z" fill="#FC0E1E"/>
<path d="M0.21875 20.705C2.40881 19.1284 3.15455 16.4864 1.82755 13.2548C7.27646 12.5223 15.2449 14.8478 17.4816 17.0638C6.88484 17.3528 10.2712 21.971 0.21875 20.705Z" fill="#0518BF"/>
<path d="M34.7807 13.4331C32.5928 15.0097 31.847 17.6512 33.173 20.8833C27.7283 21.6158 19.7663 19.2903 17.5312 17.0743C28.12 16.7853 24.7363 12.1671 34.7807 13.4331Z" fill="#F5D32F"/>
<path d="M21.1821 34.143C19.5872 31.9794 16.9155 31.2421 13.647 32.5536C12.9061 27.1701 15.258 19.2975 17.4995 17.0879C17.792 27.5575 22.4625 24.2116 21.1821 34.143Z" fill="#108313"/>
<path d="M32.3187 26.5745C29.6438 26.1596 27.2272 27.5065 25.8535 30.7185C21.4798 27.4303 17.5128 20.2188 17.5176 17.0898C25.2112 24.2882 26.1214 18.6564 32.3187 26.5745Z" fill="#B3B3B3"/>
<path d="M7.89219 31.7134C8.3122 29.0687 6.94984 26.6797 3.70117 25.3211C7.02698 20.9966 14.3204 17.0743 17.4855 17.0791C10.2049 24.6865 15.9008 25.5863 7.89219 31.7134Z" fill="#B3B3B3"/>
<path d="M2.69531 7.57078C5.37021 7.98571 7.78689 6.6393 9.1605 3.42676C13.5342 6.71498 17.5013 13.9265 17.4965 17.056C9.80231 9.85714 8.89264 15.4889 2.69531 7.57078Z" fill="#B3B3B3"/>
<path d="M27.1207 2.42676C26.7012 5.07142 28.063 7.46045 31.3122 8.81903C27.9859 13.1435 20.6924 17.0658 17.5273 17.061C24.8079 9.4536 19.1126 8.55388 27.1207 2.42676Z" fill="#B3B3B3"/>
</svg>
