<svg width="258" height="51" viewBox="0 0 258 51" fill="none" xmlns="http://www.w3.org/2000/svg">
<path d="M13.6131 8.42773C15.2074 10.5913 17.8796 11.3285 21.1481 10.0171C21.889 15.4006 19.5366 23.2732 17.2957 25.4828C17.0391 15.0132 12.3321 18.3591 13.6131 8.42773Z" fill="#FC0E1E"/>
<path d="M0 29.1328C2.19006 27.5561 2.9358 24.9141 1.6088 21.6825C7.05771 20.95 15.0262 23.2756 17.2628 25.4915C6.66609 25.7805 10.0524 30.3987 0 29.1328Z" fill="#0518BF"/>
<path d="M34.5619 21.8598C32.374 23.4365 31.6283 26.0779 32.9542 29.3101C27.5096 30.0426 19.5476 27.717 17.3125 25.5011C27.9012 25.2121 24.5175 20.5939 34.5619 21.8598Z" fill="#F5D32F"/>
<path d="M20.9633 42.5707C19.3685 40.4071 16.6968 39.6699 13.4283 40.9813C12.6874 35.5978 15.0392 27.7252 17.2807 25.5156C17.5732 35.9852 22.2437 32.6393 20.9633 42.5707Z" fill="#108313"/>
<path d="M32.1 35.0023C29.4251 34.5873 27.0084 35.9343 25.6348 39.1463C21.2611 35.8581 17.294 28.6465 17.2988 25.5176C24.9925 32.7159 25.9027 27.0842 32.1 35.0023Z" fill="#B3B3B3"/>
<path d="M7.67344 40.1401C8.09345 37.4955 6.73109 35.1064 3.48242 33.7479C6.80823 29.4234 14.1017 25.5011 17.2668 25.5059C9.98618 33.1133 15.6821 34.013 7.67344 40.1401Z" fill="#B3B3B3"/>
<path d="M2.47656 15.9995C5.15146 16.4144 7.56814 15.068 8.94175 11.8555C13.3155 15.1437 17.2825 22.3552 17.2777 25.4847C9.58356 18.2858 8.67389 23.9176 2.47656 15.9995Z" fill="#B3B3B3"/>
<path d="M26.9019 10.8555C26.4824 13.5001 27.8443 15.8892 31.0935 17.2477C27.7671 21.5722 20.4737 25.4945 17.3086 25.4897C24.5892 17.8823 18.8938 16.9826 26.9019 10.8555Z" fill="#B3B3B3"/>
<path d="M50.4667 25.1416C50.3383 24.7598 50.3204 24.5564 50.4132 24.5314C50.8771 24.5564 51.3231 24.6991 51.7513 24.9667C52.3901 25.4306 52.5221 25.9944 52.151 26.6546C52.0689 26.7831 52.1688 26.8473 52.4472 26.8473H54.2206C54.499 26.8473 54.6952 26.6724 54.813 26.3263C54.9058 25.9659 54.9736 25.6055 55.0199 25.2486C55.0414 24.8668 55.234 24.6991 55.5945 24.7455C55.987 24.8276 56.3831 24.9239 56.7756 25.0417C57.1217 25.2272 57.3037 25.3486 57.3144 25.4056C57.3251 25.5805 57.2288 25.684 57.0182 25.7197C56.8791 25.7661 56.7649 25.8303 56.6721 25.9124C56.4865 26.1086 56.2938 26.2835 56.0976 26.4334C55.7836 26.6653 55.6444 26.7938 55.6801 26.8152C56.3295 26.8509 56.9968 26.8616 57.6819 26.8509C57.971 26.8509 58.2493 26.6832 58.5169 26.3477L58.8987 25.8624C59.2235 25.527 59.4376 25.3628 59.541 25.3771C60.0263 25.6554 60.4902 26.0266 60.9327 26.4905C61.2681 26.908 61.418 27.1471 61.3859 27.2041C61.3288 27.2719 61.1183 27.3076 60.7614 27.3076H46.9698L46.4131 27.4111C46.042 27.4682 45.8172 27.3826 45.7351 27.1506C45.6673 26.8616 45.8386 26.7331 46.2561 26.7688C46.463 26.7795 46.6914 26.808 46.9341 26.8544H50.4632C50.7415 26.8544 50.8414 26.7973 50.7593 26.6796C50.5952 26.4833 50.5274 26.2371 50.5524 25.9481C50.5881 25.659 50.5595 25.3914 50.4667 25.1487V25.1416ZM52.5899 11.8205C52.5899 11.4494 52.7505 11.271 53.0752 11.2817C53.482 11.2924 53.9102 11.3566 54.3634 11.4744C54.631 11.5101 54.8023 11.6136 54.8844 11.7884C54.8844 11.9276 54.7916 12.0275 54.606 12.0846C54.4669 12.1417 54.3991 12.3094 54.3991 12.5878V17.58C54.3991 17.8691 54.5382 18.0154 54.8166 18.0154H58.3635C58.6525 18.0154 58.7988 17.8762 58.7988 17.5979V17.1625C58.7988 16.8735 58.6597 16.7272 58.3813 16.7272H57.632C57.3429 16.7272 57.1966 16.8021 57.1966 16.952C57.2073 17.473 56.8933 17.7014 56.2582 17.63C55.8764 17.5622 55.7086 17.3516 55.755 17.0055C55.755 16.877 55.6087 16.8199 55.3197 16.8307C55.0164 16.8663 54.8273 16.7736 54.7452 16.5523C54.6988 16.3097 54.6988 16.1741 54.7452 16.1526L55.3375 16.1883C55.6159 16.2133 55.755 16.0563 55.755 15.7173C55.755 15.3783 55.6337 15.2177 55.3911 15.232C55.0877 15.2677 54.9058 15.1749 54.8344 14.9536C54.788 14.686 54.92 14.5647 55.234 14.5897C55.5837 14.6253 55.755 14.4755 55.755 14.1365C55.755 13.7975 55.6159 13.619 55.3375 13.6333C55.0592 13.669 54.8844 13.5691 54.8166 13.3371C54.7809 13.0945 54.92 12.9767 55.234 12.991C55.5837 13.0267 55.755 12.9089 55.755 12.6413V12.1702C55.755 11.7991 55.9334 11.6243 56.2938 11.6493C56.6543 11.6956 57.0289 11.7599 57.425 11.842C57.6677 11.9704 57.6641 12.1203 57.4072 12.2951C57.268 12.4593 57.2002 12.627 57.2002 12.7983C57.2002 13.0053 57.3322 12.966 57.5999 12.677C57.8532 12.3879 58.0102 12.2381 58.0709 12.2238C58.128 12.2488 58.2743 12.3737 58.5062 12.6056C58.7025 12.8732 58.8024 12.8304 58.8024 12.4843V12.0132C58.8024 11.6421 58.9808 11.4744 59.3412 11.5101C60.1048 11.5922 60.6472 11.7171 60.9577 11.8919C60.9934 11.949 60.9505 12.0703 60.8364 12.2559C60.6508 12.4878 60.558 12.7269 60.558 12.9696V17.8405C60.6972 18.4329 60.4653 18.7933 59.8622 18.9182C59.5268 18.9753 59.1949 18.8789 58.8702 18.622C58.7988 18.5185 58.6383 18.465 58.3849 18.465H48.6433C48.365 18.465 48.2151 18.5221 48.1901 18.6399C48.0617 19.0823 47.7048 19.2643 47.1125 19.1965C46.5344 19.1287 46.3025 18.8076 46.4167 18.2402V12.0097C46.4167 11.6385 46.5951 11.4708 46.9555 11.5065C47.7191 11.5886 48.2615 11.7135 48.5719 11.8883C48.6076 11.9454 48.5612 12.0668 48.4328 12.2523C48.2579 12.4843 48.1723 12.7234 48.1723 12.966V17.5765C48.1723 17.8655 48.3115 18.0118 48.5898 18.0118H52.1546C52.4436 18.0118 52.5899 17.8726 52.5899 17.5943V17.1589C52.5899 16.9163 52.44 16.795 52.1367 16.795H51.3695C51.0912 16.795 50.9449 16.8877 50.9342 17.0733C50.8307 17.63 50.4061 17.7763 49.6639 17.5087C49.5354 17.4159 49.4783 17.2589 49.489 17.0376C49.489 16.9234 49.3391 16.877 49.0358 16.8985C48.7468 16.9341 48.5612 16.8342 48.4792 16.6023C48.4221 16.3596 48.5648 16.2419 48.9145 16.2561L49.0715 16.274C49.3498 16.2847 49.489 16.1241 49.489 15.7887C49.489 15.4532 49.3391 15.2891 49.0358 15.3034C48.7325 15.339 48.5505 15.2391 48.4792 15.0072C48.4328 14.7752 48.5898 14.661 48.9502 14.661C49.3106 14.686 49.489 14.5397 49.489 14.2257C49.489 13.9117 49.3391 13.7618 49.0358 13.7725C48.7325 13.8082 48.5505 13.7083 48.4792 13.4763C48.4328 13.2444 48.4328 13.1159 48.4792 13.0945C48.6754 13.0945 48.8717 13.1123 49.0715 13.148C49.3498 13.1587 49.489 13.0267 49.489 12.7483V12.1738C49.489 11.8027 49.6674 11.6278 50.0278 11.6528C50.1777 11.6635 50.3454 11.6921 50.531 11.7385C50.9699 11.8098 51.2197 11.8776 51.2803 11.9454C51.316 12.0275 51.2696 12.1417 51.1412 12.2951C51.002 12.4593 50.9342 12.6484 50.9342 12.8697C50.9342 13.0909 51.0734 13.0659 51.3517 12.8019C51.6193 12.5128 51.787 12.3737 51.8548 12.3844C51.9369 12.4307 52.0475 12.5592 52.1867 12.7662C52.4543 13.1587 52.5863 13.2087 52.5863 12.9054V11.8277L52.5899 11.8205ZM58.103 18.8968C58.2172 18.6184 58.4099 18.5542 58.6775 18.7041C59.302 19.0395 59.905 19.5141 60.4867 20.1315C60.5081 20.3384 60.3011 20.4098 59.8622 20.3384H47.6299L47.0911 20.4062C46.7307 20.4312 46.5166 20.3242 46.4488 20.0922C46.3774 19.8496 46.5308 19.7461 46.902 19.7782C47.1232 19.7889 47.3587 19.8174 47.6156 19.8638H57.0254C57.3608 19.9566 57.5892 19.8638 57.7033 19.5855C57.8175 19.3535 57.9531 19.1216 58.103 18.8896V18.8968ZM48.2936 21.541C48.2936 21.1699 48.4685 21.0236 48.8146 21.1057C49.1143 21.1984 49.4176 21.3126 49.7174 21.4554C49.8316 21.5232 50.0314 21.5589 50.3097 21.5589H56.59C56.8684 21.5589 57.1003 21.4447 57.2859 21.2127C57.4821 21.0164 57.7676 20.9879 58.1387 21.1271C58.5098 21.2912 58.9095 21.5196 59.3377 21.8229C59.6267 22.0763 59.5303 22.3082 59.0415 22.5188C58.9951 22.6008 58.9737 22.7793 58.9737 23.0576C58.9844 23.5108 58.9737 23.9783 58.938 24.4671C58.6133 24.8597 58.1565 24.9988 57.5642 24.8847C57.3429 24.8026 57.2216 24.6598 57.2002 24.4493C57.1752 24.3565 57.0361 24.3101 56.7827 24.3101H50.5024C50.2241 24.3101 50.0564 24.3958 49.9993 24.5706C49.6853 24.9881 49.2178 25.1344 48.5898 25.006C48.3222 24.9239 48.2258 24.6634 48.2936 24.2245V21.5446V21.541ZM50.5881 22.012C50.2419 22.0584 50.0671 22.219 50.0671 22.4974V23.418C50.0671 23.7071 50.2062 23.8534 50.4846 23.8534H56.7649C57.0539 23.8534 57.2002 23.7142 57.2002 23.4359V22.4795C57.2002 22.1655 57.0503 22.0085 56.747 22.0085H50.5916L50.5881 22.012ZM52.5899 14.0116C52.5899 13.6975 52.5614 13.5727 52.5043 13.6297C52.1332 13.6654 51.7549 13.6761 51.3731 13.6654C51.0841 13.6654 50.9378 13.8403 50.9378 14.1864C50.9378 14.5326 50.9663 14.7146 51.0234 14.7253C51.0912 14.7253 51.266 14.5754 51.5444 14.2721C51.812 13.983 52.0618 13.9473 52.2937 14.1686C52.49 14.4469 52.5899 14.3934 52.5899 14.0116ZM52.5899 15.6816C52.5899 15.3569 52.4579 15.1963 52.1902 15.1963H51.3731C51.0841 15.1963 50.9378 15.3819 50.9378 15.753C50.9378 16.1241 50.9592 16.3204 51.0056 16.3453C51.0626 16.3346 51.2197 16.1776 51.4766 15.8743C51.7442 15.3069 52.0546 15.364 52.4151 16.0492C52.4614 16.1669 52.5078 16.2133 52.5542 16.1883C52.5756 16.1419 52.5899 15.9742 52.5899 15.6852V15.6816ZM58.7988 13.8724C58.7988 13.6405 58.649 13.5227 58.3457 13.5227H57.632C57.3429 13.5227 57.1966 13.7011 57.1966 14.0615C57.1966 14.4541 57.318 14.5147 57.5606 14.2364C57.814 13.958 57.971 13.8189 58.0316 13.8189C58.0994 13.8653 58.2279 14.0044 58.4135 14.2364C58.6668 14.6075 58.7953 14.6432 58.7953 14.3399V13.8688L58.7988 13.8724ZM58.7988 15.5068C58.7988 15.1713 58.7739 15.025 58.731 15.0714C58.6739 15.1071 58.4705 15.1249 58.1208 15.1249H57.6355C57.3465 15.1249 57.2002 15.2641 57.2002 15.5424V15.8743C57.2002 16.2097 57.3608 16.2062 57.6855 15.8565C57.9638 15.5424 58.1244 15.3926 58.1708 15.4033C58.4134 15.5781 58.5954 15.7744 58.7096 15.9956C58.7667 16.0063 58.7953 15.8458 58.7953 15.5068H58.7988Z" fill="black"/>
<path d="M77.146 11.2644C77.2852 11.0217 77.4529 10.9646 77.6492 11.0895C78.1594 11.4143 78.6233 11.7925 79.0408 12.2207C79.3762 12.6632 79.5154 12.9059 79.4583 12.9523C79.3762 13.0094 79.1621 13.0379 78.816 13.0379H73.0067C72.7498 13.0379 72.7748 13.1021 73.0745 13.2306C73.492 13.4376 73.7061 13.5803 73.7168 13.6481C73.6705 13.8694 73.5598 13.9728 73.385 13.9621C73.2565 14.0085 73.1423 14.0799 73.0353 14.1691C72.7677 14.4367 72.5036 14.6723 72.236 14.8828C71.922 15.1147 71.9006 15.2289 72.1682 15.2289H74.3092C74.5875 15.2289 74.848 15.1183 75.0907 14.8971C75.3333 14.6651 75.6759 14.6366 76.1183 14.8114C76.7785 15.1362 77.2067 15.4216 77.4065 15.6643C77.4529 15.8713 77.2959 16.064 76.9355 16.2388C76.8998 16.3209 76.882 16.4886 76.882 16.742V20.3782C77.0211 21.0277 76.7178 21.4059 75.9792 21.5094C75.3654 21.6379 75.0514 21.3988 75.0407 20.7957C75.0407 20.5888 74.9015 20.4817 74.6232 20.4817H73.8239C73.5349 20.4817 73.3886 20.6209 73.3886 20.8992V26.4482C73.1459 27.5151 72.5143 28.0468 71.4938 28.0468C71.1441 28.0575 70.9014 27.8898 70.7623 27.5437C70.4839 27.0798 70.1414 26.78 69.7346 26.6409C69.4313 26.5588 69.2528 26.4838 69.1957 26.416C69.1387 26.3126 69.1565 26.2233 69.2493 26.1555C69.4098 26.1306 69.6882 26.1377 70.0843 26.1734L70.6945 26.2091C71.0085 26.2091 71.1976 26.1912 71.269 26.1555C71.4438 25.9807 71.5009 25.763 71.4438 25.4954V20.9206C71.4438 20.6316 71.3046 20.4853 71.0263 20.4853H70.5232C70.2448 20.4853 70.0985 20.5424 70.0878 20.6601C70.0414 21.1597 69.7453 21.4309 69.1993 21.4773C68.4785 21.6415 68.1574 21.3667 68.2252 20.6601V15.0434C68.2252 14.6616 68.4036 14.5152 68.764 14.608C69.1351 14.6901 69.5312 14.84 69.9451 15.0612C70.1307 15.179 70.3376 15.2361 70.5696 15.2361C70.8015 15.2361 70.9764 15.0612 71.0905 14.7151C71.194 14.3226 71.269 13.9193 71.3153 13.5161C71.351 13.2021 71.2333 13.045 70.9656 13.045H66.9834C66.6943 13.045 66.548 13.1842 66.548 13.4626V17.081C66.4909 19.4005 66.2697 21.3702 65.8879 22.9939C65.424 24.978 64.5498 26.5017 63.2616 27.5687C63.1331 27.5901 63.1403 27.4045 63.2794 27.012C63.8575 25.5632 64.2286 23.7433 64.3927 21.5487C64.5212 20.3532 64.5997 18.9972 64.6354 17.4771V12.3099C64.6354 11.9174 64.8138 11.7818 65.1742 11.9103L66.3553 12.4313C66.5409 12.5241 66.7728 12.5704 67.0512 12.5704H75.5902C75.972 12.7096 76.3075 12.5062 76.6001 11.9602C76.7642 11.7283 76.9426 11.4963 77.1389 11.2644H77.146ZM67.8576 22.2552C67.9504 21.8734 68.1752 21.7271 68.5356 21.8199C68.9281 21.9483 69.3242 22.0982 69.7167 22.2731C70.1449 22.5514 70.3555 22.7263 70.3412 22.7941C70.2948 22.9796 70.1628 23.0724 69.9415 23.0724C69.8238 23.0724 69.6347 23.2508 69.367 23.6112C68.3358 25.0493 67.1939 26.1199 65.9414 26.83C65.5703 27.0155 65.3598 27.0905 65.3169 27.0548C65.3062 27.0084 65.4311 26.8121 65.6988 26.4624C66.6943 25.2456 67.4151 23.8432 67.854 22.2517L67.8576 22.2552ZM75.0407 16.1496C75.0407 15.8356 74.8908 15.6786 74.5875 15.6786H70.6052C70.2555 15.725 70.0843 15.8855 70.0843 16.1639V17.2059C70.0843 17.4949 70.2234 17.6412 70.5018 17.6412H74.6054C74.8944 17.6412 75.0407 17.502 75.0407 17.2237V16.146V16.1496ZM75.0407 18.5869C75.0407 18.2728 74.9122 18.1158 74.6589 18.1158H70.5196C70.2306 18.1158 70.0843 18.255 70.0843 18.5333V19.5932C70.0843 19.8822 70.2234 20.0285 70.5018 20.0285H74.6054C74.8944 20.0285 75.0407 19.8893 75.0407 19.611V18.5833V18.5869ZM74.1879 22.1517C74.2343 22.0697 74.4305 22.0661 74.7802 22.1339C75.6259 22.298 76.4966 22.6906 77.3887 23.3151C78.5127 24.2072 79.0158 25.1064 78.9017 26.0128C78.6697 26.8371 78.1416 27.0619 77.3173 26.6908C77.014 26.4696 76.8606 26.1805 76.8463 25.8201C76.5573 24.5105 75.8507 23.4328 74.7231 22.5835C74.352 22.3623 74.1736 22.2195 74.1843 22.1482L74.1879 22.1517Z" fill="black"/>
<path d="M80.7285 15.9918C80.7642 15.8883 80.9605 15.8776 81.3209 15.9561C81.7491 16.0596 82.1773 16.2416 82.609 16.4949C83.4654 17.0623 83.7688 17.7475 83.5118 18.5468C83.3156 19.1856 82.8624 19.4104 82.1559 19.2248C81.7491 19.0178 81.535 18.6681 81.5136 18.1828C81.5849 17.6618 81.4743 17.1408 81.1817 16.6163C80.8784 16.2559 80.7285 16.0489 80.7285 15.9918ZM87.7903 11.2957C87.8367 11.2243 88.0329 11.2208 88.3826 11.2779C88.8215 11.3706 89.3175 11.5348 89.8599 11.7632C90.2096 11.9951 90.388 12.145 90.3987 12.2164C90.4451 12.3555 90.3345 12.4733 90.0669 12.5661C89.8135 12.5197 89.6315 12.666 89.5281 13.0014C89.4103 13.187 89.3211 13.3904 89.2497 13.6116C89.1463 13.89 89.2319 14.0291 89.5102 14.0291H93.232C93.5103 14.0291 93.7637 13.89 93.9992 13.6116C94.2312 13.2655 94.5023 12.9336 94.8164 12.6196C94.8877 12.5982 95.0876 12.6767 95.4266 12.8623C96.0867 13.3618 96.5399 13.8186 96.7825 14.2361C96.7825 14.5038 96.5756 14.5894 96.1581 14.4966H89.3068C89.0285 14.4966 88.7966 14.6715 88.611 15.0176C87.776 16.7804 86.5949 18.2399 85.0641 19.3997C84.7964 19.5281 84.6002 19.7708 84.4717 20.1312C84.3076 20.538 84.1648 20.9591 84.0364 21.4016C83.6439 22.3401 83.5332 23.2572 83.7045 24.1493C83.8187 24.6132 83.9543 25.0771 84.1042 25.541C84.3111 26.3082 84.2184 27.0005 83.8258 27.6285C83.3834 28.0817 82.9266 28.1602 82.452 27.8712C82.1737 27.6856 81.9881 27.3216 81.8954 26.7757C81.8704 26.3831 81.9239 25.8229 82.0524 25.1056C82.1202 24.7809 82.1273 24.2956 82.0702 23.6461C82.0131 23.2857 81.774 22.9574 81.3565 22.6541C80.9854 22.4114 80.7999 22.2616 80.7999 22.2009C80.8106 22.1331 81.0033 22.1188 81.3744 22.1652C81.8847 22.3615 82.2308 22.2366 82.4163 21.7834C83.4583 19.6959 84.5217 17.6083 85.5993 15.5208C85.7849 15.1746 85.9133 14.9819 85.9811 14.9462C86.0953 14.9569 86.1025 15.1496 85.999 15.5208L85.0427 18.4255C84.9249 18.7966 84.9784 18.843 85.1997 18.5647C86.5449 16.4664 87.4085 14.0434 87.7903 11.2957ZM82.188 11.5063C82.1987 11.4135 82.4378 11.3778 82.9016 11.4028C83.9579 11.4848 84.7572 11.9666 85.3031 12.848C85.4316 13.3476 85.4031 13.7758 85.2175 14.1362C85.0676 14.3682 84.8535 14.5073 84.5752 14.5537C84.2041 14.6215 83.8865 14.5073 83.6189 14.2076C83.4547 13.9756 83.3227 13.5867 83.2192 13.0407C83.1157 12.6482 82.9159 12.2984 82.6269 11.9987C82.3378 11.7311 82.1915 11.5705 82.1915 11.5134L82.188 11.5063ZM92.1722 18.793C92.554 18.4576 92.7753 18.2899 92.8324 18.2899C93.4925 18.5575 94.0849 18.9393 94.6058 19.4389C94.7807 19.6602 94.7057 19.8315 94.381 19.9599C94.2062 20.042 94.1027 20.1062 94.067 20.1526C93.9992 21.5193 94.2347 22.9646 94.7807 24.4847C94.9662 24.97 95.266 25.3947 95.6835 25.7551C95.8583 25.7908 95.9903 25.7158 96.0831 25.5303C96.3044 25.1021 96.5292 24.4919 96.7611 23.7032C96.8182 23.6568 96.8753 23.6354 96.936 23.6354C96.9931 23.6818 97.0216 23.8781 97.0216 24.2278L96.9538 25.4446C96.8039 26.012 96.9538 26.5187 97.407 26.9577C97.7317 27.6285 97.5283 28.0318 96.7968 28.1567C95.266 28.1781 94.0385 27.2574 93.1107 25.3911C92.4505 23.953 92.1437 22.1509 92.1901 19.9813C92.1901 19.6673 92.0402 19.5103 91.7369 19.5103H87.5619L87.0231 19.5959C86.652 19.6887 86.4379 19.6066 86.3808 19.3533C86.3237 19.0856 86.4807 18.9643 86.8518 18.9893L87.4941 19.0607H91.4086C91.6869 19.0607 91.9403 18.975 92.1722 18.8002V18.793ZM92.8002 16.131C93.0536 15.7848 93.3391 15.4423 93.6531 15.1033C93.7209 15.0925 93.9314 15.1853 94.2775 15.3816C94.9484 15.8812 95.398 16.3558 95.6157 16.809C95.5336 17.0052 95.2981 17.0695 94.902 17.0017H89.3889L88.8322 17.0873C88.4611 17.1444 88.2363 17.0659 88.1543 16.8447C88.0829 16.5556 88.2542 16.4271 88.6574 16.4628L89.3175 16.5306H92.0295C92.3185 16.5306 92.5754 16.3986 92.7967 16.131H92.8002Z" fill="black"/>
<path d="M106.036 11.5924C106.036 11.2427 106.211 11.0892 106.557 11.1213C106.964 11.157 107.367 11.207 107.774 11.2784C108.192 11.2891 108.452 11.4461 108.556 11.7494C108.591 11.8886 108.488 12.0063 108.242 12.0991C107.963 12.2026 107.871 12.5452 107.963 13.1268C107.963 13.4159 108.103 13.5622 108.381 13.5622H110.675C111.093 13.6799 111.425 13.4765 111.667 12.952L111.946 12.6058C112.295 12.199 112.509 12.0028 112.588 12.0135C113.145 12.2811 113.701 12.7343 114.258 13.3695C114.479 13.6942 114.565 13.8905 114.518 13.9618C114.436 13.9975 114.229 14.0154 113.894 14.0154H108.399C108.11 14.0154 107.963 14.1545 107.963 14.4329V15.5641C107.963 15.8531 108.103 15.9994 108.381 15.9994L110.536 15.9816C110.583 15.9602 110.665 15.8781 110.779 15.7389C111.093 15.3214 111.296 15.1073 111.389 15.0966C112.049 15.2715 112.688 15.6069 113.302 16.1065C113.462 16.3135 113.369 16.5061 113.023 16.681C112.859 16.7845 112.781 16.9772 112.781 17.2555V21.7768C112.884 22.5868 112.477 23.0043 111.564 23.0293C111.018 23.0079 110.782 22.7331 110.85 22.2121C110.85 21.9909 110.711 21.8802 110.433 21.8802H108.399C108.11 21.8802 107.963 22.0194 107.963 22.2977V23.4967C107.963 23.7858 108.103 23.9321 108.381 23.9321H111.443C111.86 24.0499 112.192 23.8465 112.435 23.3219L112.695 22.9722C113.02 22.5797 113.223 22.3798 113.305 22.3798C113.826 22.5868 114.394 23.0293 115.011 23.7002C115.243 24.0463 115.328 24.2497 115.271 24.3104C115.214 24.3567 115.004 24.3782 114.647 24.3782H108.402C108.113 24.3782 107.967 24.5173 107.967 24.7957V26.9689C108.06 27.5006 107.899 27.8788 107.482 28.1001C106.868 28.2963 106.397 28.1679 106.072 27.7182C106.047 27.6362 106.036 27.4221 106.036 27.0759V24.8135C106.036 24.5245 105.897 24.3782 105.619 24.3782H99.9489L99.3744 24.4816C99.0032 24.5387 98.7784 24.4424 98.6964 24.1855C98.6607 23.9178 98.8177 23.8036 99.1674 23.8393C99.3886 23.85 99.6241 23.8786 99.8811 23.925H105.605C105.894 23.925 106.04 23.7858 106.04 23.5075V22.3085C106.04 22.0194 105.901 21.8731 105.623 21.8731H103.621C103.332 21.8731 103.185 21.973 103.185 22.1693C103.175 22.6439 102.914 22.9187 102.404 22.9865C101.558 23.172 101.176 22.9008 101.255 22.1693V15.821C101.255 15.4499 101.433 15.3179 101.794 15.4213C102.186 15.5248 102.589 15.6783 102.993 15.8745C103.132 15.9566 103.342 15.9959 103.617 15.9959H105.601C105.89 15.9959 106.036 15.8567 106.036 15.5783V14.4471C106.036 14.1581 105.897 14.0118 105.619 14.0118H100.712L100.156 14.0974C99.7847 14.1652 99.5421 14.0332 99.4243 13.6978L99.3708 13.4908C99.3922 13.4444 99.5777 13.4373 99.9274 13.473C100.17 13.4837 100.413 13.5122 100.659 13.5586H105.598C105.887 13.5586 106.033 13.4194 106.033 13.1411V11.5924H106.036ZM103.76 16.4455L103.275 16.4633C103.217 16.499 103.189 16.656 103.189 16.9344V18.2725C103.189 18.5616 103.328 18.7079 103.606 18.7079H105.608C105.897 18.7079 106.044 18.5687 106.044 18.2904V16.8808C106.044 16.5918 105.904 16.4455 105.626 16.4455H103.763H103.76ZM106.036 19.6285C106.036 19.3145 105.908 19.1575 105.655 19.1575H103.621C103.332 19.1575 103.185 19.2967 103.185 19.575V20.9667C103.185 21.2558 103.325 21.4021 103.603 21.4021H105.605C105.894 21.4021 106.04 21.2629 106.04 20.9846V19.6285H106.036ZM110.854 16.8987C110.854 16.5739 110.668 16.4241 110.297 16.4455H108.402C108.113 16.4455 107.967 16.5847 107.967 16.863V18.2725C107.967 18.5616 108.106 18.7079 108.384 18.7079H110.418C110.707 18.7079 110.854 18.5687 110.854 18.2904V16.8987ZM110.854 19.6285C110.854 19.3145 110.725 19.1575 110.472 19.1575H108.402C108.113 19.1575 107.967 19.2967 107.967 19.575V20.9667C107.967 21.2558 108.106 21.4021 108.384 21.4021H110.418C110.707 21.4021 110.854 21.2629 110.854 20.9846V19.6285Z" fill="black"/>
<path d="M124.074 11.7676C124.074 11.4215 124.249 11.2502 124.595 11.2645C125.291 11.3109 125.894 11.4286 126.404 11.6142C126.625 11.8105 126.565 11.9925 126.229 12.153C126.09 12.2101 126.022 12.385 126.022 12.674V13.1772C126.022 13.4662 126.161 13.6125 126.44 13.6125H129.762C130.087 13.6839 130.34 13.5947 130.529 13.352C130.922 12.8525 131.339 12.7954 131.782 13.1772C132.559 13.6054 133.063 13.9872 133.295 14.3262C133.352 14.5011 133.255 14.6046 132.998 14.6403C132.709 14.6295 132.417 14.7616 132.128 15.0399C131.364 15.5966 130.668 16.0355 130.04 16.3602C129.833 16.4637 129.723 16.4352 129.708 16.2746C129.719 16.1604 129.808 15.957 129.969 15.6644C130.144 15.2826 130.294 14.8936 130.422 14.4975C130.49 14.2192 130.386 14.08 130.108 14.08L119.724 14.0978C119.378 14.1228 119.167 14.3048 119.1 14.6545C118.982 15.2683 118.828 15.7286 118.629 16.0284C118.108 16.6315 117.544 16.7242 116.941 16.3067C116.57 15.982 116.552 15.5181 116.887 14.915C117.084 14.6474 117.305 14.4761 117.547 14.394C118.218 13.8481 118.643 13.195 118.818 12.4278C118.875 12.4064 118.928 12.4171 118.975 12.4635C119.057 12.6954 119.107 12.9274 119.132 13.1593C119.167 13.4377 119.364 13.5876 119.724 13.6125H123.639C123.928 13.6125 124.074 13.4734 124.074 13.195V11.7676ZM121.933 14.915C122.061 14.5225 122.286 14.3512 122.611 14.4119C123.003 14.4832 123.417 14.5974 123.846 14.7616C124.124 14.8294 124.284 14.9686 124.331 15.1791C124.263 15.3432 124.167 15.411 124.053 15.3861C123.935 15.411 123.785 15.5431 123.599 15.7857C123.449 16.0534 123.514 16.1854 123.792 16.1854H126.072C126.465 16.2889 126.822 16.0926 127.132 15.593C127.293 15.4289 127.432 15.3682 127.55 15.4003C128.21 15.7964 128.738 16.2889 129.134 16.8777C129.145 17.1453 128.995 17.2773 128.681 17.2773C128.438 17.2773 128.245 17.4415 128.106 17.7627C127.724 18.4121 127.3 18.9902 126.836 19.5005C126.533 19.8502 126.55 20.1036 126.889 20.2641C128.781 20.96 130.815 21.3133 132.995 21.324C133.063 21.3811 133.098 21.4346 133.098 21.481C133.063 21.5381 132.874 21.6594 132.524 21.845C132.163 22.1126 131.921 22.3838 131.792 22.6621C131.653 23.044 131.567 23.2545 131.532 23.2866C131.393 23.333 131.139 23.3152 130.768 23.2331L130.526 23.1974C130.19 23.151 130.072 23.2045 130.176 23.3544C130.351 23.5293 130.315 23.7041 130.072 23.8754C129.783 23.9789 129.68 24.2073 129.758 24.5534V26.9015C129.919 27.5509 129.619 27.922 128.856 28.0148C128.31 28.1647 127.981 27.997 127.864 27.5117C127.853 27.2226 127.707 27.0763 127.428 27.0763H123.046C122.768 27.0763 122.622 27.1405 122.611 27.269C122.565 27.8471 122.168 28.1504 121.43 28.1718C120.805 28.2075 120.556 27.9006 120.68 27.2512V23.5114C120.68 23.2331 120.506 23.1046 120.159 23.1296C118.547 23.3616 117.423 23.4543 116.784 23.4079C116.727 23.3616 116.702 23.308 116.716 23.2509C118.443 22.9262 119.985 22.4445 121.344 21.8057C122.272 21.3311 122.968 20.9029 123.432 20.5175C123.803 20.2035 123.842 19.8859 123.553 19.5612C123.018 18.876 122.65 18.3336 122.44 17.9268C122.3 17.6378 122.058 17.6413 121.708 17.9446C120.805 18.6869 119.924 19.2257 119.064 19.5612C118.6 19.711 118.379 19.7396 118.404 19.6468C120.316 18.0802 121.494 16.4994 121.933 14.8972V14.915ZM125.726 21.4382C125.344 21.1848 124.984 21.167 124.648 21.3846C123.999 21.8021 123.264 22.1804 122.44 22.5158C122.151 22.6336 122.104 22.7371 122.3 22.8299C122.522 22.9583 122.772 23.0226 123.05 23.0226H127.189C127.467 23.0226 127.682 22.9476 127.831 22.7977C127.96 22.6372 127.839 22.473 127.467 22.3124C127.004 22.1162 126.54 21.8878 126.076 21.6344L125.73 21.4417L125.726 21.4382ZM127.846 23.9432C127.846 23.6292 127.696 23.4722 127.393 23.4722H123.061C122.757 23.4722 122.607 23.6185 122.607 23.9075V26.1878C122.607 26.4768 122.747 26.6231 123.025 26.6231H127.407C127.696 26.6231 127.842 26.484 127.842 26.2056V23.9432H127.846ZM123.239 16.6564C123.064 16.7028 122.914 16.7849 122.786 16.8991C122.657 17.0383 122.729 17.2773 122.993 17.6128C123.446 18.1231 123.896 18.5406 124.349 18.8653C124.663 19.0973 124.962 19.058 125.252 18.744C125.797 18.0731 126.208 17.4058 126.486 16.7421C126.475 16.685 126.329 16.6564 126.051 16.6564H123.232H123.239Z" fill="black"/>
<path d="M136.928 19.5757C137.078 19.3437 137.253 19.2973 137.449 19.4365C137.799 19.6327 138.145 19.854 138.491 20.0966C138.805 20.3857 138.901 20.6319 138.787 20.8282C138.612 21.0708 138.527 21.3099 138.527 21.5419V24.0469C138.527 24.3253 138.619 24.5822 138.805 24.8141C139.476 25.3601 140.289 25.6956 141.239 25.824C141.992 25.9382 142.844 26.0096 143.797 26.031H146.356C147.783 25.9846 149.096 25.8454 150.302 25.6135C150.534 25.5671 150.695 25.5492 150.788 25.56C150.891 25.642 150.795 25.8097 150.491 26.0631C149.924 26.5627 149.664 27.1979 149.71 27.9758C149.617 28.0222 149.424 28.0507 149.135 28.0614L148.493 28.0793H146.545C143.772 28.0686 141.792 27.8009 140.596 27.2799C139.601 26.8375 138.748 26.0346 138.038 24.8605C137.795 24.5465 137.545 24.5715 137.288 24.9319C136.778 25.7419 136.307 26.5556 135.879 27.3656C135.704 27.7831 135.486 27.8402 135.219 27.5404C135.023 27.2371 134.841 26.9302 134.68 26.6198C134.505 26.238 134.623 25.9132 135.03 25.6456C135.447 25.3922 135.872 25.0247 136.3 24.5501C136.496 24.3074 136.596 24.0505 136.596 23.7864V20.9852C136.596 20.6961 136.457 20.5498 136.179 20.5498C135.9 20.5391 135.615 20.5677 135.326 20.6355C134.955 20.6819 134.741 20.5891 134.684 20.3571C134.616 20.1145 134.769 19.9967 135.155 20.0074L136.043 20.0931C136.321 20.0931 136.618 19.9182 136.932 19.5721L136.928 19.5757ZM134.926 14.9688C134.973 14.9224 135.169 14.9153 135.519 14.9509C136.493 15.0794 137.285 15.5148 137.902 16.257C138.109 16.6031 138.141 17.0278 137.988 17.5274C137.802 18.0377 137.453 18.2767 136.946 18.2411C136.389 18.0912 136.093 17.7843 136.057 17.3204C135.954 16.6031 135.733 16.0215 135.397 15.5826C135.083 15.2328 134.926 15.033 134.926 14.9723V14.9688ZM135.415 11.5074C135.472 11.3575 135.715 11.3218 136.147 11.4039C136.725 11.4717 137.189 11.6109 137.538 11.8214C138.512 12.4245 138.766 13.1881 138.305 14.1159C138.002 14.4299 137.656 14.5584 137.264 14.4977C136.857 14.3693 136.614 14.0874 136.532 13.6449C136.439 12.949 136.186 12.3709 135.768 11.907C135.547 11.7001 135.433 11.5645 135.422 11.5074H135.415ZM141.121 11.6287C141.249 11.2005 141.381 11.1898 141.521 11.593C141.592 11.9285 141.817 12.114 142.199 12.1497H147.523C147.801 12.1497 147.994 12.1212 148.097 12.0641C148.572 11.4967 148.986 11.3682 149.332 11.6822C150.188 12.1461 150.705 12.5422 150.88 12.8634C150.845 13.0026 150.741 13.0775 150.566 13.0882C150.463 13.0882 150.324 13.1417 150.149 13.2452C149.846 13.3951 149.539 13.5699 149.228 13.7662C148.971 13.9304 148.989 14.1373 149.282 14.3907L149.489 14.6155C149.767 14.9866 149.87 15.2007 149.803 15.2578C149.71 15.3042 149.489 15.3256 149.143 15.3256H146.099C145.81 15.3256 145.663 15.4648 145.663 15.7431V16.3855C145.663 16.6745 145.803 16.8208 146.081 16.8208H146.795C147.084 16.8208 147.294 16.7387 147.419 16.5782C147.569 16.414 147.68 16.3105 147.751 16.2641C147.819 16.2284 148.068 16.2998 148.5 16.4711C149.171 16.7958 149.549 17.1027 149.631 17.3918C149.56 17.5202 149.407 17.6487 149.16 17.7736C149.135 17.8307 149.125 17.9984 149.125 18.2767V21.0958C149.285 21.756 148.986 22.1164 148.222 22.1735C147.655 22.2413 147.387 22.0129 147.423 21.4776C147.423 21.3171 147.283 21.235 147.005 21.235H146.102C145.813 21.235 145.667 21.3742 145.667 21.6525V22.2948C145.667 22.5839 145.806 22.7302 146.084 22.7302H147.858C148.172 22.8229 148.415 22.7302 148.589 22.4518C148.889 22.0343 149.168 21.7381 149.424 21.5633C149.796 21.7595 150.167 22.0557 150.538 22.4518C150.78 22.8015 150.898 23.0085 150.884 23.0763C150.827 23.1441 150.616 23.1798 150.259 23.1798H146.102C145.813 23.1798 145.667 23.319 145.667 23.5973V24.5001C145.735 25.3815 145.324 25.7348 144.432 25.56C144.236 25.5243 144.068 25.3958 143.929 25.1781C143.893 24.6571 143.883 24.1361 143.894 23.6116C143.894 23.3225 143.754 23.1762 143.476 23.1762H140.571L140.015 23.2797C139.644 23.3368 139.419 23.2512 139.337 23.0192C139.269 22.7302 139.44 22.6017 139.858 22.6374C140.065 22.6481 140.293 22.6766 140.536 22.723H143.458C143.747 22.723 143.894 22.5839 143.894 22.3055V21.6632C143.894 21.3742 143.754 21.2278 143.476 21.2278H142.816C142.538 21.2278 142.391 21.3135 142.381 21.4883C142.231 22.0093 141.824 22.2377 141.164 22.1664C140.932 22.1093 140.785 22.045 140.728 21.9737C140.693 21.8916 140.675 21.6775 140.675 21.3313V16.7744C140.675 16.3819 140.853 16.2356 141.214 16.3391C141.492 16.4069 141.77 16.5175 142.049 16.6709C142.224 16.7637 142.448 16.8101 142.727 16.8101H143.458C143.747 16.8101 143.894 16.6709 143.894 16.3926V15.7503C143.894 15.4612 143.754 15.3149 143.476 15.3149H141.546L141.007 15.4006C140.636 15.4577 140.429 15.447 140.382 15.3649C140.289 15.2935 140.125 15.215 139.897 15.1222C139.397 14.7154 139.347 14.223 139.74 13.6449C140.507 13.1239 140.967 12.4459 141.132 11.6109L141.121 11.6287ZM142.37 12.6207L142.109 12.6564C141.842 12.6814 141.717 12.8777 141.728 13.2488C141.717 13.5842 141.635 13.9732 141.485 14.4157C141.321 14.7047 141.413 14.8617 141.763 14.8867H143.451C143.74 14.8867 143.886 14.7475 143.886 14.4692V13.4272C143.886 13.0347 144.09 12.8491 144.497 12.8705C144.96 12.9276 145.424 13.0026 145.888 13.0953C146.316 13.2452 146.334 13.4736 145.942 13.7733C145.756 13.8661 145.663 14.0767 145.663 14.3978C145.663 14.719 145.803 14.8831 146.081 14.8831C146.58 14.9652 146.937 14.8831 147.159 14.6405C147.448 14.2337 147.744 13.8768 148.047 13.5628C148.093 13.5414 148.151 13.3772 148.222 13.0775C148.258 12.7777 148.136 12.6243 147.858 12.6243H142.381L142.37 12.6207ZM142.926 17.2811C142.555 17.3275 142.37 17.4774 142.37 17.7343V18.3945C142.37 18.6835 142.509 18.8298 142.787 18.8298H143.447C143.736 18.8298 143.883 18.6907 143.883 18.4123V17.7165C143.883 17.4274 143.744 17.2811 143.465 17.2811H142.926ZM143.886 19.7327C143.886 19.4436 143.747 19.2973 143.469 19.2973H142.809C142.52 19.2973 142.373 19.4365 142.373 19.7148V20.3571C142.373 20.6462 142.513 20.7925 142.791 20.7925H143.451C143.74 20.7925 143.886 20.6533 143.886 20.375V19.7327ZM147.415 17.7165C147.415 17.4025 147.23 17.2597 146.859 17.2811H146.095C145.806 17.2811 145.66 17.4203 145.66 17.6986V18.3945C145.66 18.6835 145.799 18.8298 146.077 18.8298H146.98C147.269 18.8298 147.415 18.6907 147.415 18.4123V17.7165ZM147.415 19.7327C147.415 19.4436 147.276 19.2973 146.998 19.2973H146.095C145.806 19.2973 145.66 19.4365 145.66 19.7148V20.3571C145.66 20.6462 145.799 20.7925 146.077 20.7925H146.98C147.269 20.7925 147.415 20.6533 147.415 20.375V19.7327Z" fill="black"/>
<path d="M153.38 11.3486C153.416 11.3023 153.605 11.3486 153.955 11.4878C154.347 11.652 154.743 11.834 155.136 12.0445C155.821 12.437 156.363 12.305 156.77 11.6448C156.977 11.2059 157.302 11.1631 157.744 11.5235C158.554 11.916 159.043 12.3121 159.204 12.7047C159.204 12.8331 159.086 12.958 158.858 13.0865C158.451 13.2149 158.301 13.4861 158.404 13.9037V26.3932C158.265 27.3674 157.709 27.9063 156.734 28.0098C156.363 28.0312 156.156 27.8706 156.11 27.5209C155.971 27.057 155.667 26.7144 155.207 26.4932C154.929 26.4682 154.797 26.3362 154.808 26.0935C154.865 26.0471 155.068 26.0221 155.418 26.0221C155.846 26.0435 156.167 25.9971 156.374 25.883C156.524 25.7438 156.581 25.5118 156.549 25.1871V21.0477C156.549 20.7587 156.41 20.6123 156.131 20.6123H155.418C155.139 20.6123 154.982 20.7872 154.947 21.1333C154.854 22.1646 154.722 23.0353 154.547 23.7419C154.258 25.155 153.712 26.4325 152.913 27.5673C152.645 27.867 152.477 28.0205 152.41 28.0205C152.352 27.9634 152.37 27.76 152.463 27.4103C153.009 24.7089 153.305 21.4545 153.352 17.6541V11.9232C153.352 11.577 153.362 11.3843 153.387 11.3486H153.38ZM156.545 17.1938C156.545 16.8797 156.417 16.7227 156.163 16.7227H155.625C155.346 16.7227 155.196 16.8619 155.171 17.1402C155.146 18.0109 155.104 18.8781 155.032 19.7488C155.032 20.0271 155.171 20.1663 155.45 20.1663H156.11C156.399 20.1663 156.545 20.0271 156.545 19.7488V17.1902V17.1938ZM156.545 13.1757C156.545 12.851 156.399 12.6904 156.11 12.6904H155.625C155.336 12.6904 155.189 12.8296 155.189 13.1079V15.8199C155.189 16.109 155.328 16.2553 155.607 16.2553H156.11C156.399 16.2553 156.545 16.1161 156.545 15.8378V13.1757ZM164.927 19.3134C165.195 19.0601 165.53 18.9958 165.937 19.1207C166.622 19.3884 167.104 19.7024 167.382 20.0592C167.464 20.3126 167.343 20.4839 167.018 20.5624C166.833 20.6445 166.683 20.8586 166.565 21.2047C166.173 22.2253 165.616 23.2066 164.895 24.1451C164.674 24.4235 164.738 24.6625 165.088 24.8588C166.073 25.3691 167.058 25.7152 168.046 25.9008C168.406 25.9472 168.621 25.9936 168.688 26.04C168.756 26.1327 168.556 26.2648 168.078 26.4396C167.407 26.7893 166.947 27.321 166.704 28.0383C166.658 28.074 166.447 28.0205 166.08 27.8813C165.199 27.4388 164.389 26.9142 163.646 26.2969C163.286 25.9722 162.94 25.9258 162.604 26.1577C161.363 26.9927 160.032 27.5566 158.604 27.8456C158.255 27.892 158.055 27.9027 157.994 27.8813C157.969 27.8242 158.133 27.7029 158.479 27.5173C159.753 26.9142 160.895 26.172 161.905 25.2906C162.183 25.023 162.205 24.7161 161.976 24.3699C161.395 23.2816 160.917 22.004 160.531 20.5445C160.506 20.2662 160.324 20.1342 159.974 20.1449L159.489 20.2127C159.129 20.2591 158.915 20.1734 158.847 19.9522C158.79 19.6988 158.94 19.5739 159.3 19.5882C159.543 19.5989 159.785 19.6275 160.032 19.6738H164.189C164.467 19.6738 164.717 19.5525 164.938 19.3099L164.927 19.3134ZM160.303 11.991C160.303 11.6091 160.481 11.4807 160.842 11.6091C161.234 11.7483 161.63 11.9053 162.023 12.0802C162.244 12.255 162.679 12.2943 163.329 12.2015C163.653 11.8768 163.96 11.6448 164.249 11.5057C164.342 11.4949 164.592 11.6163 164.999 11.8696C165.438 12.1123 165.716 12.3799 165.834 12.669C165.834 12.7725 165.787 12.8652 165.695 12.9473C165.555 13.0294 165.488 13.2042 165.488 13.4683V15.9555C165.338 16.5586 165.602 16.8369 166.287 16.7905C166.472 16.7691 166.676 16.7227 166.897 16.6514C167.129 16.4551 167.322 16.0768 167.472 15.5202C167.621 15.174 167.725 14.9992 167.786 14.9992C167.946 15.1169 168 15.3703 167.943 15.7664C167.932 16.2196 168.057 16.555 168.324 16.7763C168.731 17.0653 168.81 17.4471 168.567 17.9253C167.964 18.4463 166.926 18.6747 165.455 18.6033C164.981 18.5569 164.553 18.4249 164.167 18.2036C163.878 17.9717 163.703 17.6256 163.646 17.1617V13.1257C163.646 12.8367 163.507 12.6904 163.229 12.6904H162.672C162.322 12.7475 162.144 12.9509 162.133 13.3006C162.123 14.0071 162.08 14.7315 162.012 15.4738C161.837 17.0724 160.899 18.2179 159.193 18.8995C158.843 18.9816 158.654 18.9994 158.619 18.953C158.815 18.6997 159.036 18.4356 159.279 18.1715C159.639 17.754 159.882 17.2901 160.01 16.7798C160.217 15.5737 160.317 13.9786 160.306 11.9981L160.303 11.991ZM164.649 20.5838C164.706 20.2841 164.592 20.1306 164.299 20.1306H161.309C161.031 20.1306 160.949 20.3055 161.066 20.6516C161.437 21.5687 162.041 22.4608 162.876 23.3315C163.154 23.5742 163.414 23.5171 163.657 23.1567C164.142 22.368 164.474 21.5116 164.649 20.5838Z" fill="black"/>
<path d="M172.808 11.8042C172.865 11.4545 173.122 11.2939 173.571 11.3189C174.057 11.401 174.52 11.533 174.963 11.7186C175.263 11.8114 175.448 11.9327 175.52 12.0826C175.52 12.3859 175.313 12.5536 174.895 12.5857C174.849 12.6321 174.802 12.732 174.756 12.8819C174.503 13.6456 174.221 14.4306 173.921 15.23C173.817 15.5083 173.857 15.6939 174.042 15.7866C174.506 15.9151 174.599 16.1185 174.321 16.3968C174.135 16.5931 174.042 16.8322 174.042 17.1105V27.5982C173.878 28.0978 173.486 28.3012 172.861 28.2084C172.258 28.1371 172.008 27.7659 172.112 27.0951V19.0411C172.112 18.7413 171.962 18.7877 171.659 19.1802C171.37 19.5299 171.034 19.8939 170.649 20.2757C170.196 20.6005 169.96 20.7289 169.935 20.6576C169.91 20.5862 170.021 20.3685 170.267 19.9974C171.808 17.5637 172.654 14.8303 172.808 11.8042ZM177.072 12.9176C177.072 12.4787 177.257 12.2574 177.628 12.2574C178.021 12.2824 178.435 12.3252 178.863 12.3966C179.245 12.3859 179.495 12.5144 179.612 12.7784C179.623 12.8712 179.545 12.9711 179.37 13.0746C179.206 13.121 179.074 13.3173 178.97 13.667C178.599 14.6875 178.21 15.544 177.803 16.2398C177.143 17.446 176.326 18.4487 175.352 19.248C174.899 19.5835 174.649 19.7333 174.602 19.7012C174.578 19.6441 174.688 19.43 174.934 19.0589C176.223 17.1676 176.936 15.1229 177.075 12.9176H177.072ZM182.078 17.9063C182.357 17.5923 182.71 17.5245 183.138 17.6993C183.845 18.1275 184.305 18.4487 184.512 18.6557C184.779 18.9697 184.658 19.2195 184.148 19.405C183.916 19.5906 183.83 19.8511 183.887 20.1865C183.877 22.6666 183.591 24.7542 183.035 26.4492C182.663 27.3199 181.95 27.8409 180.893 28.0157C180.451 28.0371 180.205 27.8658 180.144 27.4947C180.087 27.0772 179.794 26.6847 179.273 26.3136C178.82 26.1851 178.67 25.9888 178.82 25.7212C178.877 25.6962 179.081 25.6962 179.43 25.7212C179.791 25.7426 180.148 25.7498 180.508 25.739C181.122 25.7498 181.457 25.4607 181.518 24.8683C181.832 23.2554 181.982 21.3962 181.971 19.2837C181.993 18.8448 181.807 18.6878 181.414 18.8127H180.216C179.937 18.8127 179.78 18.9875 179.744 19.3337C179.616 21.4783 179.209 23.2768 178.528 24.7256C177.903 26.0602 176.929 27.0451 175.605 27.6839C175.152 27.798 174.927 27.8159 174.927 27.7374C174.927 27.691 175.141 27.459 175.57 27.0415C176.24 26.2315 176.736 25.3037 177.047 24.2581C177.486 22.9128 177.771 21.2499 177.9 19.2659C177.91 18.9875 177.743 18.8591 177.397 18.8841L177.19 18.9197C176.829 18.9768 176.622 18.884 176.565 18.6414C176.497 18.388 176.64 18.2703 177 18.2917C177.222 18.2917 177.457 18.3167 177.714 18.3631H181.229C181.518 18.3631 181.803 18.2132 182.082 17.9099L182.078 17.9063ZM181.768 11.6972C182.057 11.3832 182.371 11.401 182.706 11.7507C183.252 12.054 183.284 12.3324 182.81 12.5857C182.382 12.6892 182.353 13.1032 182.724 13.8204C183.456 15.1764 184.601 16.1399 186.168 16.7073C186.549 16.8714 186.742 16.9678 186.742 17.0035C186.325 17.2604 185.961 17.7243 185.647 18.3952C185.554 18.7449 185.482 18.9411 185.44 18.9875C184.904 18.8733 184.326 18.413 183.702 17.6137C182.774 16.3861 182.15 14.8303 181.825 12.9533C181.882 12.3859 181.436 12.236 180.487 12.5001C180.105 12.5572 179.884 12.4787 179.827 12.2574C179.769 11.9898 179.966 11.8756 180.419 11.9113C181.079 12.0505 181.532 11.9791 181.775 11.7043L181.768 11.6972Z" fill="black"/>
<path d="M193.544 11.8717C193.647 11.4542 193.875 11.2615 194.222 11.2972C195.114 11.447 195.727 11.6433 196.066 11.8895C196.206 12.0965 196.12 12.2357 195.806 12.307C195.735 12.332 195.592 12.5318 195.371 12.9172C195.267 13.1028 195.178 13.2883 195.11 13.4739C194.971 13.7986 195.024 13.9592 195.267 13.9592H200.084C200.477 14.0984 200.809 13.895 201.076 13.349C201.237 13.1171 201.419 12.8851 201.615 12.6532C201.836 12.2928 202.172 12.3534 202.625 12.828C202.925 13.0493 203.246 13.3312 203.581 13.6809C203.849 14.0163 203.97 14.2269 203.945 14.3054C203.899 14.3874 203.692 14.4267 203.321 14.4267H195.092C194.814 14.4267 194.575 14.6015 194.379 14.9477C193.879 15.7113 193.665 16.2466 193.736 16.5463C193.736 16.8604 193.875 17.0174 194.154 17.0174H198.693C199.017 17.0638 199.271 16.9995 199.456 16.8247C199.642 16.5571 199.849 16.3073 200.081 16.0753C200.138 16.0539 200.348 16.1146 200.705 16.268C201.237 16.5356 201.701 16.8247 202.097 17.1387C202.411 17.5562 202.29 17.8417 201.733 17.9916C201.501 18.12 201.415 18.3627 201.472 18.7231V26.3774C201.323 27.3623 200.752 27.9083 199.767 28.0118C199.396 28.0332 199.146 27.8334 199.017 27.4016C198.878 27.0305 198.561 26.7129 198.061 26.4452C197.758 26.3525 197.597 26.2811 197.572 26.2383C197.469 26.1348 197.504 26.0349 197.676 25.9421L199.014 25.9599C199.421 25.9492 199.592 25.6637 199.535 25.1071V23.8367C199.535 23.5477 199.396 23.4013 199.117 23.4013H194.161C193.872 23.4013 193.726 23.5405 193.726 23.8189V26.8984C193.726 27.2446 193.715 27.4551 193.69 27.5229C193.387 28.0332 192.883 28.1724 192.177 27.9404C191.841 27.7549 191.72 27.4301 191.813 26.9662V19.2619C191.813 18.9836 191.645 19.0086 191.31 19.3297C190.546 20.1291 189.715 20.8142 188.823 21.3816C188.451 21.5886 188.248 21.6706 188.212 21.6243C188.202 21.5672 188.362 21.3638 188.698 21.0141C190.343 19.2512 191.642 17.2172 192.594 14.9084C192.734 14.5837 192.68 14.4231 192.437 14.4231H189.376L188.819 14.5266C188.437 14.5623 188.216 14.4731 188.159 14.2661C188.077 13.9771 188.245 13.8486 188.662 13.8843L189.304 13.9521H192.523C192.801 13.9521 193.005 13.7772 193.133 13.4311C193.297 12.9101 193.429 12.3891 193.533 11.8645L193.544 11.8717ZM199.506 17.5598C199.449 17.5134 199.285 17.4884 199.017 17.4884H194.164C193.875 17.4884 193.729 17.6276 193.729 17.9059V19.5938C193.729 19.8829 193.868 20.0292 194.147 20.0292H199.103C199.392 20.0292 199.538 19.89 199.538 19.6117C199.549 18.9265 199.538 18.2449 199.503 17.5598H199.506ZM199.542 20.9355C199.542 20.6358 199.41 20.4824 199.142 20.4824H194.168C193.879 20.4824 193.733 20.6215 193.733 20.8999V22.4985C193.733 22.7876 193.872 22.9339 194.15 22.9339H199.107C199.396 22.9339 199.542 22.7947 199.542 22.5164V20.932V20.9355Z" fill="black"/>
<path d="M206.186 12.0095C206.186 11.6384 206.361 11.4885 206.707 11.5563C207.089 11.6741 207.488 11.8275 207.906 12.0273C208.07 12.1094 208.288 12.1487 208.566 12.1487H209.262C209.54 12.1487 209.829 11.9809 210.132 11.6455C210.354 11.4029 210.643 11.4207 211.003 11.699C211.606 12.0024 211.999 12.3235 212.184 12.6732C212.138 12.8481 212.02 12.9516 211.838 12.9872C211.631 13.105 211.474 13.3191 211.367 13.6296C210.857 14.7536 210.279 15.8848 209.626 17.0196C209.626 17.1124 209.793 17.2979 210.129 17.5763C211.114 18.4934 211.706 19.3926 211.902 20.2705C212.191 21.4088 211.995 22.4258 211.31 23.3322C210.821 23.8175 210.268 24.0816 209.64 24.1137C209.258 24.1244 209.062 23.9531 209.048 23.5927C209.037 23.2787 208.862 22.9504 208.527 22.6007C208.191 22.3794 208.024 22.408 208.024 22.6863V27.3146C207.906 27.8356 207.606 28.1032 207.121 28.1139C206.368 28.1853 206.054 27.8606 206.182 27.1397V12.0095H206.186ZM209.786 13.0872C209.822 12.7731 209.704 12.6161 209.437 12.6161H208.462C208.173 12.6161 208.027 12.7553 208.027 13.0336V21.4338C208.027 21.7228 208.206 21.8905 208.566 21.9369C209.297 22.0547 209.754 21.9441 209.94 21.6051C210.275 21.1198 210.311 20.3525 210.043 19.3105C209.986 18.9858 209.811 18.6397 209.522 18.2686C209.347 18.0366 209.198 17.8047 209.069 17.5727C208.862 17.2944 208.798 17.0624 208.876 16.8769C209.294 15.635 209.594 14.3718 209.783 13.0836L209.786 13.0872ZM212.691 11.4885C212.737 11.4421 212.934 11.4778 213.283 11.592C213.572 11.6848 213.861 11.8168 214.154 11.9916C214.443 12.1558 214.711 12.2343 214.953 12.2343H217.683C217.951 12.3735 218.333 12.1415 218.832 11.5385C219.203 11.6205 219.642 11.8168 220.152 12.1308C220.581 12.4092 220.82 12.6126 220.866 12.741C220.866 12.8445 220.795 12.9551 220.659 13.0729C220.356 13.2014 220.249 13.444 220.327 13.8044V18.4827C220.441 19.0286 220.263 19.3712 219.788 19.5104C218.953 19.8458 218.49 19.6567 218.397 18.9359C218.397 18.6682 218.258 18.5362 217.979 18.5362H217.023C216.745 18.5362 216.605 18.711 216.605 19.0572C216.745 20.1598 217.123 21.2447 217.737 22.3081C217.897 22.5971 218.136 22.5757 218.45 22.2402C219.064 21.4623 219.471 20.8307 219.667 20.3454C219.863 19.9743 220.138 19.8708 220.484 20.0314C220.855 20.2633 221.244 20.5417 221.651 20.8664C221.837 20.9949 221.883 21.1447 221.79 21.3196C221.733 21.366 221.623 21.3874 221.458 21.3874C221.284 21.3981 221.134 21.4588 221.005 21.5622C220.288 22.2117 219.499 22.6827 218.639 22.9718C218.361 23.0753 218.354 23.3036 218.622 23.6498C219.457 24.7168 220.406 25.4804 221.473 25.9443C221.89 26.1299 222.069 26.2512 222.011 26.3083C221.537 26.5295 221.109 26.9185 220.723 27.4752C220.481 27.8356 220.188 27.9141 219.853 27.7178C218.275 26.5795 217.262 25.2199 216.809 23.6319C216.366 21.9619 216.159 20.4382 216.184 19.0572C216.184 18.7075 216.045 18.5362 215.767 18.5362H215.053C214.764 18.5362 214.618 18.6754 214.618 18.9537V24.6597C214.618 24.938 214.793 25.0415 215.139 24.9737L216.181 24.6953C216.53 24.6133 216.73 24.5847 216.791 24.6097C216.894 24.7739 216.766 24.9344 216.409 25.095C215.667 25.6053 214.739 26.0763 213.626 26.5046C213.162 26.6901 212.698 26.8971 212.234 27.129C212.002 27.2575 211.827 27.3895 211.713 27.5287C211.631 27.7714 211.481 27.8284 211.26 27.7036C211.132 27.4609 210.964 27.0148 210.757 26.3654L210.653 26.0192C210.586 25.6695 210.578 25.4733 210.636 25.4269C211.157 25.3912 211.695 25.3734 212.252 25.3734C212.53 25.3377 212.67 25.1807 212.67 24.9023V12.063L212.687 11.4885H212.691ZM215.214 12.6875C214.821 12.7339 214.621 12.8731 214.621 13.105V14.7929C214.621 15.0819 214.761 15.2282 215.039 15.2282H217.961C218.25 15.2282 218.397 15.0891 218.397 14.8107V13.1585C218.397 12.8445 218.247 12.6875 217.944 12.6875H215.214ZM218.397 16.1489C218.397 15.8349 218.268 15.6779 218.015 15.6779H215.057C214.768 15.6779 214.621 15.817 214.621 16.0954V17.6262C214.621 17.9153 214.761 18.0616 215.039 18.0616H217.961C218.25 18.0616 218.397 17.9224 218.397 17.6441V16.1489Z" fill="black"/>
<path d="M227.596 12.221C227.632 12.1746 227.821 12.1853 228.171 12.2567C229.041 12.535 229.684 12.8597 230.101 13.2309C230.194 13.4735 230.083 13.627 229.769 13.6841C229.562 13.602 229.38 13.7519 229.23 14.1372L227.614 16.9206C226.85 18.1625 225.766 19.2865 224.363 20.2964C223.91 20.5533 223.657 20.639 223.6 20.5569C223.6 20.4748 223.749 20.2678 224.053 19.9324C225.455 18.3088 226.44 16.4532 227.011 14.3656C227.232 13.6591 227.428 12.9454 227.603 12.2246L227.596 12.221ZM229.109 18.1518C229.181 17.7342 229.387 17.5487 229.734 17.5951C230.404 17.6879 231.054 17.902 231.682 18.2374C231.857 18.4586 231.757 18.6085 231.386 18.6906C231.293 18.7477 231.179 18.9618 231.04 19.3329C230.24 21.3741 229.166 23.2297 227.821 24.8997C227.532 25.2351 227.56 25.3993 227.907 25.385C229.809 25.3279 232.128 25.1352 234.865 24.8105C235.19 24.7534 235.282 24.5964 235.143 24.3395C234.84 23.7721 234.401 23.2047 233.819 22.6337C233.366 22.3911 233.198 22.177 233.316 21.9914C233.363 21.97 233.57 22.0271 233.941 22.1663C235.739 22.8407 237.024 23.9826 237.802 25.592C238.091 26.2629 238.055 26.8445 237.698 27.3298C237.42 27.6296 237.077 27.7223 236.67 27.6082C236.242 27.444 236 27.1514 235.939 26.7196C235.893 26.3842 235.818 26.0487 235.714 25.7097C235.621 25.4207 235.4 25.3136 235.054 25.3957C232.11 26.0666 229.163 26.7125 226.219 27.3263C225.905 27.3726 225.709 27.4904 225.626 27.676C225.509 27.8829 225.373 27.9365 225.209 27.833C224.977 27.4975 224.752 26.8838 224.531 25.9881C224.495 25.617 224.677 25.4385 225.07 25.4492H226.376C226.654 25.4492 226.893 25.2744 227.089 24.9282C228.178 22.5267 228.852 20.2678 229.106 18.1446L229.109 18.1518ZM233.163 11.75C233.313 11.543 233.602 11.5251 234.033 11.6964C234.647 11.8927 234.736 12.1675 234.294 12.5136C233.98 12.6171 233.948 12.8597 234.19 13.2451C235.279 16.0285 236.974 17.6736 239.268 18.1839C239.614 18.241 239.818 18.3052 239.878 18.3766C239.889 18.4444 239.721 18.5693 239.375 18.7406C238.751 19.0296 238.241 19.4828 237.844 20.0966C237.68 20.4463 237.573 20.6247 237.513 20.6354C237.013 20.3678 236.492 19.8932 235.946 19.208C235.286 18.373 234.765 17.4452 234.38 16.4246C234.066 15.636 233.759 14.4834 233.459 12.9632C233.413 12.6385 233.266 12.4779 233.024 12.4779C232.224 12.4422 231.632 12.4779 231.25 12.5814C230.89 12.6492 230.676 12.56 230.608 12.3031C230.54 12.0497 230.683 11.9248 231.043 11.9391C231.507 12.0319 232 12.0604 232.52 12.0247C232.799 12.0247 233.013 11.9319 233.163 11.7464V11.75Z" fill="black"/>
<path d="M254.832 11.7855C255.064 11.2752 255.389 11.211 255.807 11.5928C256.306 11.8461 256.717 12.1959 257.041 12.6348C257.113 12.7847 257.063 12.9203 256.902 13.0344C256.52 13.1736 256.374 13.4341 256.467 13.8159V26.3055C256.246 27.3154 255.653 27.8578 254.693 27.9399C254.297 27.9863 254.044 27.8185 253.93 27.4367C253.616 26.8229 253.07 26.4161 252.295 26.2199C252.203 26.0129 252.27 25.9237 252.502 25.9594L253.145 25.9772C253.712 26.0236 254.126 25.9844 254.379 25.8559C254.529 25.7274 254.586 25.4919 254.554 25.1422V13.3485C254.554 13.0701 254.529 12.9024 254.483 12.8453L253.98 12.8275H243.492L242.936 12.9131C242.554 12.9702 242.34 12.8917 242.293 12.6705C242.236 12.4028 242.422 12.2815 242.85 12.3065L243.442 12.3743H253.862C254.279 12.5027 254.604 12.3065 254.836 11.7819L254.832 11.7855ZM250.675 14.5154C250.918 14.2477 251.068 14.0978 251.128 14.0622C251.221 14.0622 251.443 14.1728 251.789 14.394C252.413 14.8686 252.838 15.329 253.059 15.7679C252.966 15.9641 252.734 16.0284 252.363 15.9606H243.631L243.075 16.0641C242.704 16.1212 242.479 16.0355 242.397 15.8036C242.325 15.5145 242.497 15.3861 242.9 15.4217C243.107 15.4217 243.335 15.4467 243.578 15.4931H249.423C249.794 15.6323 250.119 15.4217 250.397 14.8686L250.675 14.5189V14.5154ZM243.667 18.0802C243.667 17.7091 243.853 17.5699 244.224 17.6627C244.595 17.7662 244.987 17.9161 245.405 18.1159C245.658 18.2801 245.915 18.3586 246.169 18.3586H248.795C249.073 18.3586 249.316 18.2551 249.526 18.0446C249.737 17.834 249.869 17.727 249.926 17.7127C250.286 17.8055 250.722 17.9982 251.232 18.2872C251.903 18.5763 252.049 18.8724 251.667 19.1758C251.353 19.3399 251.25 19.5754 251.353 19.8894V23.5079C251.514 24.168 251.189 24.5498 250.379 24.6569C250.147 24.6926 249.937 24.664 249.755 24.5713C249.512 24.3393 249.43 24.0681 249.512 23.7541C249.512 23.4293 249.373 23.2688 249.095 23.2688H245.965C245.676 23.2688 245.53 23.4079 245.53 23.6863C245.587 24.3928 245.537 24.8674 245.373 25.1137C244.977 25.4491 244.52 25.5526 243.999 25.4277C243.696 25.3242 243.589 25.0566 243.667 24.6283V18.0874V18.0802ZM249.512 19.3328C249.641 18.926 249.487 18.7547 249.059 18.8118H245.962C245.672 18.8118 245.526 18.9509 245.526 19.2293V22.3767C245.526 22.6657 245.665 22.812 245.944 22.812H249.073C249.362 22.812 249.508 22.6728 249.508 22.3945V19.3328H249.512Z" fill="black"/>
<path d="M95.7162 33.8194V35.145H95.3185V34.9462C95.3185 34.3376 95.2944 34.2442 94.7853 34.2442H93.7098V35.8048H94.5895V35.157H94.9872V36.9466H94.5895V36.2296H93.7098V37.9588H94.8395V38.3866H92.6855V37.9588H93.3152V34.2442H92.6855V33.8164H95.7162V33.8194Z" fill="black"/>
<path d="M96.5153 36.9954C96.5545 37.6582 96.9883 38.0528 97.6752 38.0528C98.0789 38.0528 98.4645 37.8992 98.8621 37.6943L98.9766 38.0829C98.5729 38.3179 98.0729 38.4776 97.624 38.4776C96.4641 38.4776 96.0996 37.5648 96.0996 36.8779C96.0996 35.9018 96.7021 35.1426 97.5276 35.1426C98.353 35.1426 98.835 35.73 98.835 36.673C98.835 36.7785 98.829 36.8869 98.8079 36.9924H96.5123L96.5153 36.9954ZM98.4313 36.5676C98.4313 35.9741 98.0156 35.5704 97.5336 35.5704C97.0516 35.5704 96.6117 35.9982 96.5153 36.5676H98.4313Z" fill="black"/>
<path d="M99.913 37.962H100.35V38.3898H99.0815V37.962H99.5183V35.6633L99.0514 35.7387L98.9941 35.35C99.199 35.335 99.4099 35.3048 99.5575 35.1452C99.6087 35.0759 99.6479 35.0156 99.7292 35.0156C99.916 35.0156 99.916 35.2295 99.916 35.3952V35.5097C100.241 35.3259 100.564 35.1452 100.934 35.1452C101.242 35.1452 101.576 35.2807 101.724 35.6242C101.838 35.8893 101.832 36.2418 101.832 36.537V37.962H102.269V38.3898H101.001V37.962H101.437V36.5521C101.437 36.0881 101.464 35.57 100.937 35.57C100.573 35.57 100.22 35.7748 99.919 35.9978V37.962H99.913Z" fill="black"/>
<path d="M105.097 35.236V35.6638H104.63C104.76 35.8988 104.823 36.0735 104.823 36.3657C104.823 37.1189 104.38 37.5527 103.766 37.5527L103.549 37.5286C103.471 37.5738 103.23 37.8178 103.23 37.9082C103.23 37.9624 103.453 37.9624 103.549 37.9624H104.531C105.1 37.9624 105.441 38.2275 105.441 38.7849C105.441 39.752 104.498 39.9719 103.856 39.9719C103.356 39.9719 102.516 39.8875 102.516 39.0892C102.516 38.7548 102.708 38.4414 102.946 38.2667C102.883 38.2125 102.811 38.1131 102.811 37.9474C102.811 37.7335 103.004 37.5437 103.157 37.375C102.823 37.14 102.645 36.8417 102.645 36.3687C102.645 35.715 103.112 35.1426 103.663 35.1426C103.835 35.1426 104.01 35.1817 104.176 35.233H105.097V35.236ZM103.38 38.3872C103.175 38.5559 102.925 38.7367 102.925 39.0651C102.925 39.529 103.534 39.5441 103.817 39.5441C104.239 39.5441 105.022 39.4537 105.022 38.8361C105.022 38.4173 104.745 38.3872 104.465 38.3872H103.38ZM103.76 35.5704C103.38 35.5704 103.061 35.8686 103.061 36.3326C103.061 36.8508 103.356 37.1249 103.778 37.1249C104.2 37.1249 104.408 36.8056 104.408 36.3717C104.408 35.9078 104.157 35.5734 103.76 35.5734V35.5704Z" fill="black"/>
<path d="M106.745 35.2363V35.6641H106.245L107.11 37.6434L107.86 35.6641H107.354V35.2363H108.679V35.6641H108.269L107.082 38.8395C106.872 39.4028 106.685 39.9753 106.076 39.9753C105.826 39.9753 105.564 39.8698 105.365 39.7011L105.519 39.2914C105.679 39.445 105.883 39.5505 106.097 39.5505C106.432 39.5505 106.597 39.0112 106.712 38.7039L106.911 38.1797L105.814 35.6671H105.41V35.2393H106.745V35.2363Z" fill="black"/>
<path d="M111.041 38.197C110.728 38.3506 110.463 38.4802 110.111 38.4802C109.496 38.4802 109.137 38.0916 109.137 37.1787V35.6633L108.671 35.7387L108.613 35.35C108.818 35.335 109.029 35.3048 109.177 35.1452C109.228 35.0759 109.267 35.0156 109.348 35.0156C109.535 35.0156 109.535 35.2295 109.535 35.3952V37.0251C109.535 37.8084 109.683 38.0524 110.105 38.0524C110.424 38.0524 110.758 37.8987 111.041 37.733V35.6633L110.574 35.7387L110.517 35.35C110.722 35.335 110.933 35.3048 111.081 35.1452C111.132 35.0759 111.171 35.0156 111.252 35.0156C111.439 35.0156 111.439 35.2295 111.439 35.3952V37.962H111.951V38.3898H111.041V38.2V38.197Z" fill="black"/>
<path d="M114.099 38.1584C113.713 38.3482 113.343 38.4778 112.933 38.4778C112.466 38.4778 112.035 38.2187 112.035 37.6011C112.035 36.9835 112.439 36.7545 112.882 36.634C113.279 36.5195 113.671 36.4984 114.099 36.4804V36.2815C114.099 35.8477 114.156 35.5645 113.668 35.5645C113.349 35.5645 113.026 35.6489 112.758 35.8628V36.3117H112.361V35.5796C112.731 35.3145 113.195 35.1367 113.611 35.1367C114.264 35.1367 114.496 35.3416 114.496 36.0887V37.9536H115.03V38.3814H114.099V38.1524V38.1584ZM114.099 36.8871C113.734 36.9021 113.337 36.9413 112.99 37.0407C112.728 37.116 112.451 37.2245 112.451 37.6041C112.451 37.9626 112.695 38.053 112.951 38.053C113.349 38.053 113.74 37.8782 114.099 37.6794V36.8871Z" fill="black"/>
<path d="M115.94 37.962H116.377V38.3898H115.109V37.962H115.546V35.6633L115.079 35.7387L115.021 35.35C115.226 35.335 115.437 35.3048 115.585 35.1452C115.636 35.0759 115.675 35.0156 115.757 35.0156C115.943 35.0156 115.943 35.2295 115.943 35.3952V35.5097C116.272 35.3259 116.591 35.1452 116.962 35.1452C117.269 35.1452 117.603 35.2807 117.751 35.6242C117.865 35.8893 117.859 36.2418 117.859 36.537V37.962H118.296V38.3898H117.028V37.962H117.465V36.5521C117.465 36.0881 117.492 35.57 116.965 35.57C116.6 35.57 116.248 35.7748 115.946 35.9978V37.962H115.94Z" fill="black"/>
<path d="M121.553 38.1125L122.225 37.9588V34.3346L121.559 34.2804V33.8164C121.797 33.8465 122.041 33.9068 122.276 33.9068C122.634 33.9068 122.987 33.8164 123.345 33.8164C123.851 33.8164 124.339 34.1809 124.339 34.8377C124.339 35.2324 124.122 35.6361 123.827 35.8349C124.345 36.0337 124.662 36.4585 124.662 37.1213C124.662 37.9739 124.18 38.3866 123.559 38.3866C123.207 38.3866 122.848 38.2962 122.496 38.2962C122.194 38.2962 121.887 38.3957 121.643 38.471L121.553 38.1125ZM122.622 35.7144H122.905C123.695 35.7144 123.924 35.2715 123.924 34.8618C123.924 34.4521 123.656 34.2442 123.315 34.2442C123.083 34.2442 122.848 34.2834 122.622 34.3286V35.7144ZM122.622 37.9468L123.384 38.0372C123.903 38.0974 124.243 37.6877 124.243 37.1153C124.243 36.6212 123.999 36.1392 123.128 36.1392H122.622V37.9438V37.9468Z" fill="black"/>
<path d="M127.071 38.197C126.757 38.3506 126.495 38.4802 126.14 38.4802C125.525 38.4802 125.167 38.0916 125.167 37.1787V35.6633L124.7 35.7387L124.643 35.35C124.847 35.335 125.058 35.3048 125.206 35.1452C125.257 35.0759 125.296 35.0156 125.378 35.0156C125.564 35.0156 125.564 35.2295 125.564 35.3952V37.0251C125.564 37.8084 125.712 38.0524 126.134 38.0524C126.453 38.0524 126.788 37.8987 127.071 37.733V35.6633L126.604 35.7387L126.547 35.35C126.751 35.335 126.962 35.3048 127.11 35.1452C127.161 35.0759 127.2 35.0156 127.282 35.0156C127.468 35.0156 127.468 35.2295 127.468 35.3952V37.962H127.981V38.3898H127.071V38.2V38.197Z" fill="black"/>
<path d="M130.418 34.9844L130.771 35.0687C130.72 35.3128 130.68 35.5568 130.68 35.8068C130.68 35.9755 130.692 36.1352 130.726 36.2949L130.34 36.334L130.322 36.1653C130.277 35.7918 130.18 35.5718 129.548 35.5718C129.246 35.5718 128.804 35.6773 128.804 36.1352C128.804 36.9426 130.804 36.2497 130.804 37.5602C130.804 38.2923 130.066 38.4821 129.566 38.4821C129.207 38.4821 128.975 38.4068 128.65 38.2381L128.587 38.5122L128.246 38.3917C128.297 38.1929 128.325 37.988 128.325 37.7831C128.325 37.5933 128.307 37.3945 128.24 37.2198L128.638 37.1595C128.713 37.7922 128.831 38.0573 129.599 38.0573C129.837 38.0573 130.388 37.9729 130.388 37.5542C130.388 36.7076 128.388 37.4638 128.388 36.1684C128.388 35.4664 128.978 35.1471 129.536 35.1471C129.819 35.1471 130.087 35.2163 130.355 35.3218L130.418 34.9874V34.9844Z" fill="black"/>
<path d="M137.528 33.8203V35.4261H137.131V34.8476C137.131 34.3144 137.091 34.2451 136.649 34.2451H136.13V37.9597H136.971V38.3875H134.895V37.9597H135.736V34.2451H135.218C134.775 34.2451 134.736 34.3144 134.736 34.8476V35.4261H134.338V33.8203H137.531H137.528Z" fill="black"/>
<path d="M138.822 37.9638H139.982V38.3916H137.867V37.9638H138.425V35.6712L137.958 35.7465L137.9 35.3578C138.105 35.3428 138.316 35.3127 138.464 35.153C138.515 35.0837 138.554 35.0234 138.635 35.0234C138.822 35.0234 138.822 35.2373 138.822 35.403V35.8067C139.175 35.5025 139.515 35.1439 139.976 35.1439C140.31 35.1439 140.521 35.4091 140.624 35.7615L140.226 35.9513C140.175 35.7917 140.112 35.5717 139.937 35.5717C139.611 35.5717 139.072 36.111 138.822 36.3791V37.9638Z" fill="black"/>
<path d="M142.954 38.1584C142.569 38.3482 142.198 38.4778 141.788 38.4778C141.321 38.4778 140.891 38.2187 140.891 37.6011C140.891 36.9835 141.294 36.7545 141.737 36.634C142.135 36.5195 142.526 36.4984 142.954 36.4804V36.2815C142.954 35.8477 143.011 35.5645 142.523 35.5645C142.204 35.5645 141.882 35.6489 141.614 35.8628V36.3117H141.216V35.5796C141.587 35.3145 142.05 35.1367 142.466 35.1367C143.12 35.1367 143.352 35.3416 143.352 36.0887V37.9536H143.885V38.3814H142.954V38.1524V38.1584ZM142.954 36.8871C142.59 36.9021 142.192 36.9413 141.846 37.0407C141.584 37.116 141.306 37.2245 141.306 37.6041C141.306 37.9626 141.55 38.053 141.806 38.053C142.204 38.053 142.596 37.8782 142.954 37.6794V36.8871Z" fill="black"/>
<path d="M144.796 37.962H145.233V38.3898H143.964V37.962H144.401V35.6633L143.934 35.7387L143.877 35.35C144.082 35.335 144.293 35.3048 144.44 35.1452C144.492 35.0759 144.531 35.0156 144.612 35.0156C144.799 35.0156 144.799 35.2295 144.799 35.3952V35.5097C145.127 35.3259 145.447 35.1452 145.817 35.1452C146.124 35.1452 146.459 35.2807 146.606 35.6242C146.721 35.8893 146.715 36.2418 146.715 36.537V37.962H147.152V38.3898H145.883V37.962H146.32V36.5521C146.32 36.0881 146.347 35.57 145.82 35.57C145.456 35.57 145.103 35.7748 144.802 35.9978V37.962H144.796Z" fill="black"/>
<path d="M149.655 34.9844L150.007 35.0687C149.956 35.3128 149.917 35.5568 149.917 35.8068C149.917 35.9755 149.929 36.1352 149.962 36.2949L149.576 36.334L149.558 36.1653C149.513 35.7918 149.417 35.5718 148.784 35.5718C148.483 35.5718 148.04 35.6773 148.04 36.1352C148.04 36.9426 150.04 36.2497 150.04 37.5602C150.04 38.2923 149.302 38.4821 148.802 38.4821C148.444 38.4821 148.212 38.4068 147.886 38.2381L147.823 38.5122L147.483 38.3917C147.534 38.1929 147.561 37.988 147.561 37.7831C147.561 37.5933 147.543 37.3945 147.477 37.2198L147.874 37.1595C147.953 37.7922 148.067 38.0573 148.835 38.0573C149.073 38.0573 149.625 37.9729 149.625 37.5542C149.625 36.7076 147.624 37.4638 147.624 36.1684C147.624 35.4664 148.215 35.1471 148.772 35.1471C149.055 35.1471 149.323 35.2163 149.591 35.3218L149.655 34.9874V34.9844Z" fill="black"/>
<path d="M151.346 39.4623H151.96V39.8901H150.562V39.4623H150.948V35.6633L150.481 35.7387L150.424 35.35C150.629 35.335 150.84 35.3048 150.987 35.1452C151.038 35.0759 151.078 35.0156 151.159 35.0156C151.346 35.0156 151.346 35.2295 151.346 35.3952V35.4796C151.602 35.2807 151.789 35.1452 152.108 35.1452C152.891 35.1452 153.352 35.9285 153.352 36.7961C153.352 38.0765 152.421 38.4802 152.051 38.4802C151.807 38.4802 151.578 38.4109 151.346 38.3356V39.4623ZM151.346 37.8626C151.538 37.9921 151.737 38.0524 151.954 38.0524C152.545 38.0524 152.936 37.4649 152.936 36.7961C152.936 36.2086 152.653 35.57 152.102 35.57C151.813 35.57 151.505 35.7899 151.346 36.0731V37.8626Z" fill="black"/>
<path d="M153.771 36.8125C153.771 35.8695 154.374 35.1465 155.169 35.1465C155.965 35.1465 156.567 35.8695 156.567 36.8125C156.567 37.7555 155.965 38.4815 155.169 38.4815C154.374 38.4815 153.771 37.7494 153.771 36.8125ZM156.148 36.8125C156.148 36.1346 155.757 35.5713 155.166 35.5713C154.576 35.5713 154.184 36.1346 154.184 36.8125C154.184 37.4903 154.576 38.0537 155.166 38.0537C155.757 38.0537 156.148 37.4813 156.148 36.8125Z" fill="black"/>
<path d="M158.057 37.9638H159.216V38.3916H157.102V37.9638H157.659V35.6712L157.192 35.7465L157.135 35.3578C157.34 35.3428 157.55 35.3127 157.698 35.153C157.749 35.0837 157.788 35.0234 157.87 35.0234C158.057 35.0234 158.057 35.2373 158.057 35.403V35.8067C158.409 35.5025 158.749 35.1439 159.21 35.1439C159.545 35.1439 159.756 35.4091 159.858 35.7615L159.46 35.9513C159.409 35.7917 159.346 35.5717 159.171 35.5717C158.843 35.5717 158.307 36.111 158.057 36.3791V37.9638Z" fill="black"/>
<path d="M161.341 35.2372H162.835V35.665H161.341V37.1864C161.341 37.581 161.302 38.054 161.751 38.054C162.097 38.054 162.534 37.9245 162.871 37.804L163.001 38.2077C162.609 38.3372 162.109 38.4818 161.712 38.4818C161.23 38.4818 160.943 38.1474 160.943 37.4003V35.665H160.021V35.2372H160.943V34.3906H161.341V35.2372Z" fill="black"/>
<path d="M165.394 38.1584C165.008 38.3482 164.638 38.4778 164.228 38.4778C163.761 38.4778 163.33 38.2187 163.33 37.6011C163.33 36.9835 163.734 36.7545 164.177 36.634C164.574 36.5195 164.966 36.4984 165.394 36.4804V36.2815C165.394 35.8477 165.451 35.5645 164.963 35.5645C164.644 35.5645 164.321 35.6489 164.053 35.8628V36.3117H163.655V35.5796C164.026 35.3145 164.49 35.1367 164.906 35.1367C165.559 35.1367 165.791 35.3416 165.791 36.0887V37.9536H166.325V38.3814H165.394V38.1524V38.1584ZM165.394 36.8871C165.029 36.9021 164.632 36.9413 164.285 37.0407C164.023 37.116 163.746 37.2245 163.746 37.6041C163.746 37.9626 163.99 38.053 164.246 38.053C164.644 38.053 165.035 37.8782 165.394 37.6794V36.8871Z" fill="black"/>
<path d="M167.753 35.2372H169.247V35.665H167.753V37.1864C167.753 37.581 167.714 38.054 168.163 38.054C168.509 38.054 168.946 37.9245 169.283 37.804L169.413 38.2077C169.021 38.3372 168.521 38.4818 168.124 38.4818C167.642 38.4818 167.355 38.1474 167.355 37.4003V35.665H166.434V35.2372H167.355V34.3906H167.753V35.2372Z" fill="black"/>
<path d="M169.93 37.9628H171.204V35.6792C170.987 35.7244 170.767 35.7696 170.544 35.7545L169.999 35.7154L169.936 35.2966L170.52 35.3418C170.719 35.3569 171.096 35.3267 171.237 35.1279C171.288 35.0586 171.328 35.0134 171.409 35.0134C171.608 35.0134 171.602 35.2424 171.602 35.4081V37.9598H172.731V38.3876H169.93V37.9598V37.9628ZM171.34 34.45C171.117 34.45 170.924 34.2452 170.924 33.9771C170.924 33.7089 171.117 33.498 171.34 33.498C171.563 33.498 171.749 33.7029 171.749 33.9771C171.749 34.2512 171.556 34.45 171.34 34.45Z" fill="black"/>
<path d="M173.008 36.8125C173.008 35.8695 173.61 35.1465 174.406 35.1465C175.201 35.1465 175.803 35.8695 175.803 36.8125C175.803 37.7555 175.201 38.4815 174.406 38.4815C173.61 38.4815 173.008 37.7494 173.008 36.8125ZM175.385 36.8125C175.385 36.1346 174.993 35.5713 174.403 35.5713C173.812 35.5713 173.421 36.1346 173.421 36.8125C173.421 37.4903 173.812 38.0537 174.403 38.0537C174.993 38.0537 175.385 37.4813 175.385 36.8125Z" fill="black"/>
<path d="M176.85 37.962H177.287V38.3898H176.019V37.962H176.456V35.6633L175.989 35.7387L175.932 35.35C176.136 35.335 176.347 35.3048 176.495 35.1452C176.546 35.0759 176.585 35.0156 176.667 35.0156C176.853 35.0156 176.853 35.2295 176.853 35.3952V35.5097C177.182 35.3259 177.501 35.1452 177.872 35.1452C178.179 35.1452 178.513 35.2807 178.661 35.6242C178.776 35.8893 178.769 36.2418 178.769 36.537V37.962H179.206V38.3898H177.938V37.962H178.375V36.5521C178.375 36.0881 178.402 35.57 177.875 35.57C177.51 35.57 177.158 35.7748 176.857 35.9978V37.962H176.85Z" fill="black"/>
<path d="M185.156 33.7276L185.515 33.8632C185.424 34.1132 185.385 34.3874 185.4 34.6615L185.433 35.24L185.054 35.3153C185.027 34.6133 184.879 34.1494 184.213 34.1494C183.321 34.1494 183.02 35.2068 183.02 36.0896C183.02 36.9723 183.339 38.0478 184.201 38.0478C184.855 38.0478 185.099 37.5296 185.099 36.8156H185.496V37.7917C185.138 38.2014 184.689 38.4756 184.183 38.4756C183.49 38.4756 182.607 37.8429 182.607 36.0534C182.607 34.2639 183.493 33.7246 184.198 33.7246C184.499 33.7246 184.813 33.824 185.078 33.9837L185.162 33.7246L185.156 33.7276Z" fill="black"/>
<path d="M185.828 36.8125C185.828 35.8695 186.431 35.1465 187.226 35.1465C188.021 35.1465 188.624 35.8695 188.624 36.8125C188.624 37.7555 188.021 38.4815 187.226 38.4815C186.431 38.4815 185.828 37.7494 185.828 36.8125ZM188.208 36.8125C188.208 36.1346 187.816 35.5713 187.226 35.5713C186.635 35.5713 186.244 36.1346 186.244 36.8125C186.244 37.4903 186.635 38.0537 187.226 38.0537C187.816 38.0537 188.208 37.4813 188.208 36.8125Z" fill="black"/>
<path d="M190.431 37.4297C190.675 37.4297 190.88 37.6647 190.88 37.9539C190.88 38.2431 190.675 38.4781 190.431 38.4781C190.187 38.4781 189.982 38.2491 189.982 37.9539C189.982 37.6587 190.187 37.4297 190.431 37.4297Z" fill="black"/>
<path d="M193.255 38.6917C193.397 38.6526 193.523 38.5863 193.626 38.4628C193.415 38.4477 193.246 38.2579 193.246 37.9988C193.246 37.6945 193.433 37.4746 193.689 37.4746C193.972 37.4746 194.156 37.7729 194.156 38.0922C194.156 38.6496 193.668 39.0291 193.252 39.1346V38.6917H193.255Z" fill="black"/>
<path d="M200.222 33.8203V34.2481H199.499V37.9627H200.511C201.216 37.9627 201.198 37.8181 201.198 37.0047V36.7908H201.596V38.3905H198.408V37.9627H199.101V34.2481H198.408V33.8203H200.222Z" fill="black"/>
<path d="M203.017 35.2372H204.511V35.665H203.017V37.1864C203.017 37.581 202.978 38.054 203.426 38.054C203.773 38.054 204.21 37.9245 204.547 37.804L204.677 38.2077C204.285 38.3372 203.785 38.4818 203.387 38.4818C202.905 38.4818 202.619 38.1474 202.619 37.4003V35.665H201.697V35.2372H202.619V34.3906H203.017V35.2372Z" fill="black"/>
<path d="M207.057 38.2671C206.813 38.3876 206.62 38.481 206.352 38.481C205.596 38.481 205.051 37.7037 205.051 36.8361C205.051 35.9684 205.584 35.1459 206.352 35.1459C206.578 35.1459 206.84 35.2303 207.057 35.3056V34.0403L206.482 34.1307L206.425 33.742C206.629 33.6969 206.949 33.727 207.096 33.5221C207.148 33.4528 207.187 33.3926 207.268 33.3926C207.455 33.3926 207.455 33.6065 207.455 33.7722V37.9598H207.955V38.3876H207.057V38.2671ZM207.057 35.7846C206.87 35.6551 206.659 35.5707 206.443 35.5707C205.828 35.5707 205.47 36.1492 205.47 36.8421C205.47 37.4597 205.828 38.0532 206.379 38.0532C206.623 38.0532 206.867 37.9477 207.06 37.779V35.7846H207.057Z" fill="black"/>
<path d="M209.666 37.4297C209.91 37.4297 210.115 37.6647 210.115 37.9539C210.115 38.2431 209.91 38.4781 209.666 38.4781C209.422 38.4781 209.217 38.2491 209.217 37.9539C209.217 37.6587 209.422 37.4297 209.666 37.4297Z" fill="black"/>
</svg>
