<svg width="147" height="21" viewBox="0 0 147 21" fill="none" xmlns="http://www.w3.org/2000/svg">
<path d="M3.82766 9.89386C3.73891 9.63007 3.72658 9.48955 3.79068 9.47229C4.11116 9.48955 4.41931 9.58816 4.71513 9.77306C5.15641 10.0935 5.24762 10.4831 4.99124 10.9391C4.93454 11.0279 5.00356 11.0723 5.19585 11.0723H6.42106C6.61335 11.0723 6.74894 10.9515 6.83029 10.7123C6.89439 10.4633 6.94123 10.2143 6.97327 9.96782C6.98806 9.70403 7.12119 9.58816 7.37017 9.62021C7.64135 9.67692 7.91499 9.74348 8.18616 9.82483C8.42529 9.95303 8.55101 10.0368 8.55841 10.0763C8.5658 10.1971 8.49924 10.2686 8.3538 10.2932C8.25765 10.3253 8.17876 10.3697 8.11467 10.4264C7.98648 10.562 7.85336 10.6828 7.71777 10.7863C7.50083 10.9465 7.40469 11.0353 7.42934 11.0501C7.87801 11.0747 8.339 11.0821 8.81233 11.0747C9.01201 11.0747 9.2043 10.9589 9.38919 10.7271L9.65297 10.3918C9.8773 10.1601 10.0252 10.0467 10.0967 10.0566C10.432 10.2489 10.7525 10.5053 11.0581 10.8257C11.2899 11.1142 11.3934 11.2794 11.3712 11.3188C11.3318 11.3656 11.1863 11.3903 10.9398 11.3903H1.41174L1.02717 11.4618C0.770785 11.5012 0.615476 11.4421 0.558776 11.2818C0.511937 11.0821 0.630268 10.9934 0.918698 11.018C1.06168 11.0254 1.21945 11.0452 1.38709 11.0772H3.82519C4.01748 11.0772 4.0865 11.0378 4.0298 10.9564C3.9164 10.8208 3.86956 10.6507 3.88682 10.451C3.91147 10.2513 3.89175 10.0664 3.82766 9.89879V9.89386ZM5.29446 0.690932C5.29446 0.434542 5.40539 0.311277 5.62973 0.318673C5.91076 0.326069 6.20659 0.370444 6.51967 0.451799C6.70456 0.476452 6.8229 0.547945 6.87959 0.668745C6.87959 0.764891 6.8155 0.833919 6.68731 0.873364C6.59116 0.912808 6.54433 1.02868 6.54433 1.22097V4.66991C6.54433 4.8696 6.64047 4.97068 6.83276 4.97068H9.28318C9.48287 4.97068 9.58394 4.87453 9.58394 4.68224V4.38147C9.58394 4.18178 9.4878 4.08071 9.29551 4.08071H8.77781C8.57813 4.08071 8.47706 4.13248 8.47706 4.23602C8.48445 4.59595 8.26751 4.75373 7.8287 4.70442C7.56493 4.65758 7.44906 4.51213 7.48111 4.273C7.48111 4.18425 7.38003 4.1448 7.18035 4.1522C6.97081 4.17685 6.84015 4.11275 6.78345 3.95991C6.7514 3.79227 6.7514 3.69859 6.78345 3.68379L7.19268 3.70845C7.38496 3.7257 7.48111 3.61723 7.48111 3.38303C7.48111 3.14883 7.39729 3.03789 7.22966 3.04775C7.02011 3.0724 6.89439 3.00831 6.84508 2.85546C6.81303 2.67056 6.90425 2.58674 7.12119 2.604C7.36278 2.62865 7.48111 2.52511 7.48111 2.29091C7.48111 2.0567 7.38496 1.93344 7.19268 1.9433C7.00039 1.96795 6.87959 1.89892 6.83276 1.73868C6.8081 1.57104 6.90425 1.48969 7.12119 1.49955C7.36278 1.5242 7.48111 1.44285 7.48111 1.25795V0.93253C7.48111 0.67614 7.60437 0.555341 7.85336 0.572598C8.10234 0.604647 8.36119 0.649022 8.63483 0.705724C8.80247 0.794474 8.8 0.898017 8.6225 1.01882C8.52636 1.13222 8.47952 1.24809 8.47952 1.36642C8.47952 1.50941 8.57073 1.48229 8.75563 1.2826C8.93066 1.08291 9.03913 0.979371 9.08104 0.96951C9.12048 0.986767 9.22155 1.07305 9.38179 1.2333C9.51738 1.41819 9.5864 1.38861 9.5864 1.14948V0.824058C9.5864 0.567668 9.70967 0.451799 9.95865 0.476452C10.4862 0.533154 10.8609 0.619439 11.0754 0.740238C11.1 0.779683 11.0705 0.863503 10.9916 0.991698C10.8634 1.15194 10.7993 1.31712 10.7993 1.48476V4.84988C10.8954 5.25912 10.7352 5.50811 10.3186 5.59439C10.0868 5.63384 9.85758 5.56728 9.63324 5.38978C9.58394 5.31828 9.473 5.2813 9.29797 5.2813H2.56793C2.37564 5.2813 2.2721 5.32075 2.25485 5.4021C2.1661 5.7078 1.91958 5.83353 1.51035 5.78669C1.11098 5.73985 0.950746 5.51797 1.02963 5.12599V0.821593C1.02963 0.565202 1.15289 0.449334 1.40188 0.473987C1.92944 0.530688 2.30415 0.616973 2.51862 0.737773C2.54328 0.777217 2.51123 0.861037 2.42248 0.989232C2.30169 1.14948 2.24252 1.31465 2.24252 1.48229V4.66745C2.24252 4.86713 2.33866 4.96821 2.53095 4.96821H4.9937C5.19339 4.96821 5.29446 4.87206 5.29446 4.67977V4.37901C5.29446 4.21137 5.19092 4.12755 4.98138 4.12755H4.45136C4.25907 4.12755 4.15799 4.19164 4.1506 4.31984C4.07911 4.70442 3.78575 4.8055 3.27298 4.6206C3.18423 4.55651 3.14479 4.44803 3.15219 4.29519C3.15219 4.2163 3.04865 4.18425 2.8391 4.19904C2.63942 4.22369 2.51123 4.15466 2.45453 3.99442C2.41509 3.82678 2.51369 3.74543 2.75529 3.75529L2.86375 3.76761C3.05604 3.77501 3.15219 3.66407 3.15219 3.43233C3.15219 3.2006 3.04865 3.08719 2.8391 3.09706C2.62956 3.12171 2.50383 3.05268 2.45453 2.89244C2.42248 2.73219 2.53095 2.6533 2.77994 2.6533C3.02892 2.67056 3.15219 2.56948 3.15219 2.35254C3.15219 2.13559 3.04865 2.03205 2.8391 2.03945C2.62956 2.0641 2.50383 1.99507 2.45453 1.83483C2.42248 1.67458 2.42248 1.58583 2.45453 1.57104C2.59012 1.57104 2.7257 1.58337 2.86375 1.60802C3.05604 1.61542 3.15219 1.5242 3.15219 1.33191V0.934996C3.15219 0.678606 3.27545 0.557806 3.52443 0.575063C3.62797 0.582459 3.74384 0.602182 3.87203 0.634231C4.17525 0.683536 4.34782 0.730377 4.38972 0.777217C4.41438 0.833919 4.38233 0.912808 4.29358 1.01882C4.19744 1.13222 4.1506 1.26288 4.1506 1.41573C4.1506 1.56858 4.24674 1.55132 4.43903 1.36889C4.62392 1.1692 4.73979 1.07305 4.78662 1.08045C4.84332 1.1125 4.91975 1.20125 5.01589 1.34423C5.20078 1.61542 5.29199 1.64993 5.29199 1.44038V0.695863L5.29446 0.690932ZM9.10322 5.5796C9.18211 5.38731 9.31523 5.34294 9.50012 5.44648C9.93154 5.67821 10.3482 6.0061 10.75 6.43259C10.7648 6.57558 10.6218 6.62489 10.3186 6.57558H1.86781L1.49556 6.62242C1.24657 6.63968 1.09866 6.56572 1.05182 6.40548C1.00252 6.23784 1.10852 6.16634 1.3649 6.18853C1.51775 6.19593 1.68045 6.21565 1.85795 6.2477H8.35873C8.59046 6.31179 8.74823 6.2477 8.82712 6.0554C8.906 5.89516 8.99968 5.73492 9.10322 5.57467V5.5796ZM2.32634 7.40638C2.32634 7.14999 2.44713 7.04892 2.68626 7.10562C2.89334 7.16971 3.10288 7.2486 3.30996 7.34722C3.38885 7.39406 3.5269 7.41871 3.71919 7.41871H8.05797C8.25026 7.41871 8.4105 7.33982 8.53869 7.17958C8.67427 7.04398 8.87149 7.02426 9.12787 7.12041C9.38426 7.23381 9.66036 7.39159 9.95619 7.60114C10.1559 7.77618 10.0893 7.93642 9.75157 8.08187C9.71953 8.13857 9.70473 8.26184 9.70473 8.45413C9.71213 8.76722 9.70474 9.09017 9.68008 9.42792C9.45575 9.6991 9.1402 9.79525 8.73097 9.71636C8.57813 9.65966 8.49431 9.56105 8.47952 9.41559C8.46227 9.3515 8.36612 9.31945 8.19109 9.31945H3.85231C3.66002 9.31945 3.54416 9.37861 3.50471 9.49941C3.28777 9.78785 2.96483 9.88893 2.53095 9.80018C2.34606 9.74348 2.2795 9.56351 2.32634 9.26028V7.40885V7.40638ZM3.91147 7.7318C3.67235 7.76385 3.55155 7.87479 3.55155 8.06708V8.70312C3.55155 8.90281 3.64769 9.00389 3.83998 9.00389H8.17876C8.37845 9.00389 8.47952 8.90774 8.47952 8.71545V8.05475C8.47952 7.83781 8.37598 7.72934 8.16644 7.72934H3.91394L3.91147 7.7318ZM5.29446 2.20462C5.29446 1.98767 5.27474 1.90139 5.23529 1.94083C4.97891 1.96549 4.7176 1.97288 4.45382 1.96549C4.25414 1.96549 4.15306 2.08629 4.15306 2.32542C4.15306 2.56455 4.17279 2.69028 4.21223 2.69768C4.25907 2.69768 4.37986 2.59414 4.57215 2.38459C4.75704 2.1849 4.92961 2.16025 5.08985 2.31309C5.22543 2.50539 5.29446 2.46841 5.29446 2.20462ZM5.29446 3.35838C5.29446 3.13403 5.20325 3.0231 5.01836 3.0231H4.45382C4.25414 3.0231 4.15306 3.15129 4.15306 3.40768C4.15306 3.66407 4.16786 3.79966 4.1999 3.81692C4.23935 3.80952 4.34782 3.70105 4.52531 3.4915C4.7102 3.09952 4.92468 3.13897 5.17366 3.6123C5.20571 3.69366 5.23776 3.7257 5.26981 3.70845C5.2846 3.6764 5.29446 3.56053 5.29446 3.36084V3.35838ZM9.58394 2.10847C9.58394 1.94823 9.4804 1.86688 9.27086 1.86688H8.77781C8.57813 1.86688 8.47706 1.99014 8.47706 2.23913C8.47706 2.51032 8.56087 2.55223 8.72851 2.35993C8.90354 2.16764 9.01201 2.07149 9.05392 2.07149C9.10076 2.10354 9.1895 2.19969 9.3177 2.35993C9.49273 2.61632 9.58147 2.64098 9.58147 2.43143V2.10601L9.58394 2.10847ZM9.58394 3.23758C9.58394 3.00584 9.56668 2.90476 9.5371 2.93681C9.49766 2.96146 9.35714 2.97379 9.11555 2.97379H8.78028C8.5806 2.97379 8.47952 3.06994 8.47952 3.26223V3.4915C8.47952 3.72324 8.59046 3.72077 8.81479 3.47918C9.00708 3.26223 9.11801 3.15869 9.15006 3.16608C9.3177 3.28688 9.44342 3.42247 9.52231 3.57532C9.56175 3.58272 9.58147 3.47178 9.58147 3.23758H9.58394Z" fill="black"/>
<path d="M22.259 0.30769C22.3551 0.14005 22.471 0.100605 22.6066 0.186891C22.9591 0.411232 23.2796 0.672553 23.568 0.968387C23.7998 1.27408 23.8959 1.44172 23.8565 1.47377C23.7998 1.51322 23.6518 1.53294 23.4127 1.53294H19.3993C19.2219 1.53294 19.2391 1.57731 19.4462 1.66606C19.7346 1.80905 19.8825 1.90766 19.8899 1.9545C19.8579 2.10735 19.7815 2.17884 19.6607 2.17145C19.5719 2.2035 19.493 2.2528 19.4191 2.31444C19.2342 2.49933 19.0518 2.66204 18.8669 2.80749C18.6499 2.96774 18.6351 3.04663 18.82 3.04663H20.2992C20.4914 3.04663 20.6714 2.9702 20.839 2.81735C21.0067 2.65711 21.2433 2.63739 21.549 2.75819C22.0051 2.98253 22.3009 3.17975 22.439 3.34739C22.471 3.49038 22.3625 3.6235 22.1136 3.7443C22.0889 3.801 22.0766 3.91687 22.0766 4.09191V6.60404C22.1727 7.05272 21.9632 7.31404 21.4529 7.38554C21.0289 7.47429 20.8119 7.30911 20.8045 6.89248C20.8045 6.74949 20.7084 6.67553 20.5161 6.67553H19.9639C19.7642 6.67553 19.6631 6.77168 19.6631 6.96397V10.7975C19.4955 11.5346 19.0591 11.9019 18.3541 11.9019C18.1125 11.9093 17.9449 11.7935 17.8487 11.5543C17.6564 11.2339 17.4198 11.0268 17.1387 10.9306C16.9292 10.8739 16.8059 10.8222 16.7665 10.7753C16.7271 10.7038 16.7394 10.6422 16.8035 10.5953C16.9144 10.5781 17.1067 10.583 17.3803 10.6077L17.8019 10.6323C18.0188 10.6323 18.1495 10.62 18.1988 10.5953C18.3196 10.4745 18.359 10.3242 18.3196 10.1393V6.97876C18.3196 6.77908 18.2234 6.678 18.0312 6.678H17.6836C17.4913 6.678 17.3902 6.71744 17.3828 6.7988C17.3508 7.14394 17.1461 7.3313 16.769 7.36335C16.271 7.47675 16.0491 7.28693 16.096 6.7988V2.91843C16.096 2.65465 16.2192 2.55357 16.4682 2.61767C16.7246 2.67437 16.9982 2.77791 17.2842 2.93076C17.4124 3.01211 17.5554 3.05156 17.7156 3.05156C17.8758 3.05156 17.9966 2.93076 18.0755 2.69162C18.147 2.42044 18.1988 2.14187 18.2308 1.86329C18.2555 1.64634 18.1741 1.53787 17.9892 1.53787H15.2381C15.0384 1.53787 14.9373 1.63402 14.9373 1.82631V4.32611C14.8979 5.92855 14.745 7.28939 14.4812 8.4111C14.1608 9.7818 13.5568 10.8345 12.6668 11.5716C12.5781 11.5864 12.583 11.4582 12.6792 11.187C13.0785 10.1861 13.3349 8.92881 13.4483 7.41265C13.5371 6.58678 13.5913 5.64997 13.6159 4.59976V1.03002C13.6159 0.758838 13.7392 0.665157 13.9882 0.753907L14.8042 1.11384C14.9324 1.17794 15.0926 1.20999 15.2849 1.20999H21.1842C21.4479 1.30613 21.6797 1.16561 21.8818 0.788421C21.9952 0.628178 22.1185 0.467933 22.2541 0.30769H22.259ZM15.842 7.90078C15.9061 7.637 16.0614 7.53592 16.3104 7.60002C16.5816 7.68877 16.8552 7.79231 17.1264 7.91311C17.4222 8.1054 17.5677 8.2262 17.5578 8.27304C17.5258 8.40124 17.4346 8.46533 17.2817 8.46533C17.2004 8.46533 17.0697 8.5886 16.8848 8.83759C16.1724 9.8311 15.3835 10.5707 14.5182 11.0613C14.2618 11.1895 14.1164 11.2412 14.0868 11.2166C14.0794 11.1845 14.1657 11.049 14.3506 10.8074C15.0384 9.96669 15.5364 8.99784 15.8396 7.89832L15.842 7.90078ZM20.8045 3.68267C20.8045 3.46573 20.701 3.35725 20.4914 3.35725H17.7403C17.4987 3.3893 17.3803 3.50024 17.3803 3.69253V4.4124C17.3803 4.61209 17.4765 4.71316 17.6688 4.71316H20.5038C20.7034 4.71316 20.8045 4.61702 20.8045 4.42472V3.68021V3.68267ZM20.8045 5.36646C20.8045 5.14952 20.7158 5.04105 20.5407 5.04105H17.6811C17.4814 5.04105 17.3803 5.13719 17.3803 5.32949V6.06168C17.3803 6.26136 17.4765 6.36244 17.6688 6.36244H20.5038C20.7034 6.36244 20.8045 6.2663 20.8045 6.074V5.364V5.36646ZM20.2153 7.82929C20.2474 7.77259 20.383 7.77012 20.6246 7.81696C21.2088 7.93037 21.8103 8.20155 22.4266 8.63297C23.2032 9.2493 23.5508 9.87055 23.4719 10.4967C23.3117 11.0662 22.9468 11.2215 22.3773 10.9651C22.1678 10.8123 22.0618 10.6126 22.0519 10.3636C21.8522 9.45884 21.3641 8.71433 20.5851 8.12759C20.3287 7.97474 20.2055 7.87613 20.2129 7.82682L20.2153 7.82929Z" fill="black"/>
<path d="M24.7344 3.57111C24.759 3.49961 24.8946 3.49222 25.1436 3.54645C25.4394 3.61795 25.7353 3.74368 26.0335 3.91871C26.6252 4.31069 26.8347 4.78403 26.6572 5.33625C26.5217 5.77754 26.2086 5.93285 25.7205 5.80466C25.4394 5.66167 25.2915 5.42007 25.2767 5.08479C25.326 4.72486 25.2496 4.36493 25.0475 4.00253C24.8379 3.75354 24.7344 3.61055 24.7344 3.57111ZM29.613 0.326786C29.6451 0.27748 29.7807 0.275014 30.0223 0.314459C30.3255 0.378557 30.6682 0.49196 31.0429 0.649739C31.2845 0.809982 31.4077 0.913524 31.4151 0.96283C31.4472 1.05898 31.3707 1.14033 31.1859 1.20443C31.0108 1.17238 30.8851 1.27346 30.8136 1.50519C30.7322 1.63339 30.6706 1.77391 30.6213 1.92676C30.5498 2.11905 30.609 2.2152 30.8013 2.2152H33.3725C33.5648 2.2152 33.7398 2.11905 33.9025 1.92676C34.0628 1.68763 34.2501 1.45835 34.4671 1.24141C34.5164 1.22662 34.6544 1.28085 34.8886 1.40905C35.3447 1.75419 35.6578 2.06975 35.8254 2.35818C35.8254 2.54308 35.6824 2.60225 35.394 2.53815H30.6608C30.4685 2.53815 30.3082 2.65895 30.18 2.89808C29.6032 4.11594 28.7872 5.12424 27.7296 5.92546C27.5447 6.01421 27.4091 6.18185 27.3204 6.43084C27.207 6.71189 27.1084 7.00279 27.0196 7.30849C26.7485 7.95686 26.672 8.59044 26.7904 9.20676C26.8693 9.52725 26.9629 9.84774 27.0665 10.1682C27.2095 10.6983 27.1454 11.1765 26.8742 11.6104C26.5685 11.9235 26.2529 11.9777 25.9251 11.7781C25.7328 11.6499 25.6046 11.3984 25.5405 11.0212C25.5232 10.75 25.5602 10.363 25.649 9.86746C25.6958 9.64312 25.7007 9.30784 25.6613 8.85915C25.6219 8.61016 25.4567 8.38335 25.1683 8.1738C24.9119 8.00616 24.7837 7.90262 24.7837 7.86071C24.7911 7.81387 24.9242 7.80401 25.1806 7.83606C25.5331 7.97165 25.7722 7.88536 25.9004 7.57227C26.6203 6.13008 27.3549 4.68788 28.0994 3.24569C28.2276 3.00656 28.3163 2.87343 28.3632 2.84878C28.4421 2.85617 28.447 2.9893 28.3755 3.24569L27.7148 5.25243C27.6335 5.50882 27.6705 5.54087 27.8233 5.34858C28.7527 3.89899 29.3493 2.22506 29.613 0.326786ZM25.7427 0.472238C25.75 0.40814 25.9152 0.383487 26.2357 0.400744C26.9654 0.457446 27.5176 0.79026 27.8948 1.39919C27.9835 1.74433 27.9638 2.04016 27.8356 2.28916C27.7321 2.4494 27.5842 2.54555 27.3919 2.5776C27.1355 2.62444 26.9161 2.54555 26.7312 2.33846C26.6178 2.17822 26.5266 1.9095 26.4551 1.53231C26.3836 1.26113 26.2456 1.01953 26.0459 0.812448C25.8462 0.627551 25.7451 0.516613 25.7451 0.477168L25.7427 0.472238ZM32.6403 5.50636C32.9041 5.27462 33.057 5.15875 33.0964 5.15875C33.5525 5.34365 33.9617 5.60744 34.3216 5.95258C34.4424 6.10542 34.3906 6.22376 34.1663 6.31251C34.0455 6.36921 33.974 6.41359 33.9494 6.44563C33.9025 7.38984 34.0652 8.38828 34.4424 9.4385C34.5706 9.77378 34.7777 10.0671 35.0661 10.3161C35.1869 10.3408 35.2781 10.289 35.3422 10.1608C35.4951 9.86499 35.6504 9.44343 35.8106 8.8986C35.85 8.86655 35.8895 8.85176 35.9314 8.85176C35.9708 8.88381 35.9906 9.0194 35.9906 9.261L35.9437 10.1017C35.8402 10.4936 35.9437 10.8437 36.2568 11.1469C36.4811 11.6104 36.3406 11.889 35.8353 11.9753C34.7777 11.9901 33.9296 11.354 33.2887 10.0647C32.8326 9.07117 32.6206 7.8262 32.6527 6.3273C32.6527 6.11036 32.5491 6.00188 32.3396 6.00188H29.4553L29.083 6.06105C28.8266 6.12515 28.6787 6.06845 28.6393 5.89341C28.5998 5.70851 28.7083 5.62469 28.9647 5.64195L29.4084 5.69126H32.1128C32.3051 5.69126 32.4801 5.63209 32.6403 5.51129V5.50636ZM33.0742 3.66725C33.2492 3.42812 33.4465 3.19145 33.6634 2.95725C33.7102 2.94985 33.8557 3.01395 34.0948 3.14954C34.5583 3.49468 34.8689 3.82257 35.0193 4.13566C34.9626 4.27125 34.7999 4.31562 34.5262 4.26878H30.7175L30.3329 4.32795C30.0765 4.3674 29.9212 4.31316 29.8645 4.16031C29.8152 3.96062 29.9335 3.87187 30.2121 3.89653L30.6682 3.94337H32.5417C32.7414 3.94337 32.9189 3.85215 33.0717 3.66725H33.0742Z" fill="black"/>
<path d="M42.2189 0.533372C42.2189 0.291773 42.3397 0.185766 42.5788 0.207953C42.8599 0.232606 43.1384 0.26712 43.4195 0.316426C43.7079 0.323822 43.8879 0.432295 43.9594 0.641845C43.984 0.737991 43.9125 0.819345 43.7424 0.883443C43.5501 0.954936 43.486 1.1916 43.5501 1.59345C43.5501 1.79314 43.6463 1.89421 43.8386 1.89421H45.4237C45.7121 1.97557 45.9414 1.83504 46.109 1.47265L46.3013 1.23351C46.5429 0.952471 46.6908 0.81688 46.7451 0.824276C47.1296 1.00917 47.5142 1.32226 47.8988 1.76109C48.0516 1.98543 48.1108 2.12102 48.0787 2.17032C48.022 2.19498 47.8791 2.2073 47.6473 2.2073H43.8509C43.6512 2.2073 43.5501 2.30345 43.5501 2.49574V3.27724C43.5501 3.47693 43.6463 3.578 43.8386 3.578L45.3276 3.56568C45.3596 3.55089 45.4163 3.49419 45.4952 3.39804C45.7121 3.1096 45.8526 2.96168 45.9167 2.95429C46.3728 3.07509 46.8141 3.30682 47.2381 3.65196C47.349 3.79495 47.2849 3.92808 47.0458 4.04888C46.9324 4.12037 46.8782 4.25349 46.8782 4.44579V7.56931C46.9497 8.12893 46.6686 8.41737 46.0375 8.43463C45.6604 8.41984 45.4976 8.23001 45.5445 7.87007C45.5445 7.71723 45.4483 7.6408 45.2561 7.6408H43.8509C43.6512 7.6408 43.5501 7.73695 43.5501 7.92924V8.75758C43.5501 8.95727 43.6463 9.05834 43.8386 9.05834H45.9537C46.2421 9.1397 46.4714 8.99918 46.639 8.63678L46.819 8.39518C47.0433 8.124 47.1839 7.98594 47.2406 7.98594C47.6005 8.12893 47.9924 8.43463 48.4189 8.8981C48.5792 9.13723 48.6383 9.27776 48.5989 9.31967C48.5594 9.35172 48.414 9.36651 48.1675 9.36651H43.8533C43.6537 9.36651 43.5526 9.46265 43.5526 9.65495V11.1563C43.6167 11.5236 43.5058 11.785 43.2173 11.9378C42.7933 12.0734 42.4679 11.9846 42.2436 11.674C42.2263 11.6173 42.2189 11.4694 42.2189 11.2303V9.66727C42.2189 9.46758 42.1228 9.36651 41.9305 9.36651H38.0132L37.6163 9.438C37.36 9.47744 37.2047 9.41088 37.148 9.23338C37.1233 9.04848 37.2318 8.96959 37.4734 8.99425C37.6262 9.00164 37.7889 9.02137 37.9664 9.05341H41.9206C42.1203 9.05341 42.2214 8.95727 42.2214 8.76498V7.93664C42.2214 7.73695 42.1252 7.63587 41.9329 7.63587H40.55C40.3503 7.63587 40.2492 7.7049 40.2492 7.84049C40.2418 8.16838 40.0618 8.3582 39.7093 8.40504C39.1251 8.53324 38.8613 8.34588 38.9155 7.84049V3.45474C38.9155 3.19835 39.0388 3.10713 39.2878 3.17863C39.5589 3.25012 39.8375 3.35613 40.1161 3.49172C40.2122 3.54842 40.3577 3.57554 40.5475 3.57554H41.9182C42.1178 3.57554 42.2189 3.47939 42.2189 3.2871V2.5056C42.2189 2.30592 42.1228 2.20484 41.9305 2.20484H38.5408L38.1562 2.26401C37.8998 2.31085 37.7322 2.21963 37.6509 1.98789L37.6139 1.84491C37.6287 1.81286 37.7569 1.80793 37.9985 1.83258C38.1661 1.83998 38.3337 1.8597 38.5038 1.89175H41.9157C42.1154 1.89175 42.2164 1.7956 42.2164 1.60331V0.533372H42.2189ZM40.6461 3.88617L40.3108 3.89849C40.2714 3.92315 40.2517 4.03162 40.2517 4.22391V5.14839C40.2517 5.34808 40.3478 5.44916 40.5401 5.44916H41.9231C42.1228 5.44916 42.2238 5.35301 42.2238 5.16072V4.18693C42.2238 3.98724 42.1277 3.88617 41.9354 3.88617H40.6486H40.6461ZM42.2189 6.08521C42.2189 5.86826 42.1302 5.75979 41.9551 5.75979H40.55C40.3503 5.75979 40.2492 5.85593 40.2492 6.04823V7.00969C40.2492 7.20938 40.3453 7.31045 40.5376 7.31045H41.9206C42.1203 7.31045 42.2214 7.21431 42.2214 7.02202V6.08521H42.2189ZM45.547 4.19926C45.547 3.97492 45.4188 3.87137 45.1624 3.88617H43.8533C43.6537 3.88617 43.5526 3.98231 43.5526 4.1746V5.14839C43.5526 5.34808 43.6487 5.44916 43.841 5.44916H45.2462C45.4459 5.44916 45.547 5.35301 45.547 5.16072V4.19926ZM45.547 6.08521C45.547 5.86826 45.4582 5.75979 45.2832 5.75979H43.8533C43.6537 5.75979 43.5526 5.85593 43.5526 6.04823V7.00969C43.5526 7.20938 43.6487 7.31045 43.841 7.31045H45.2462C45.4459 7.31045 45.547 7.21431 45.547 7.02202V6.08521Z" fill="black"/>
<path d="M54.6788 0.658722C54.6788 0.419589 54.7996 0.301255 55.0387 0.311116C55.5194 0.343165 55.9361 0.42452 56.2886 0.552715C56.4414 0.688306 56.3995 0.814035 56.1678 0.924974C56.0716 0.964418 56.0248 1.08522 56.0248 1.28491V1.63251C56.0248 1.8322 56.1209 1.93328 56.3132 1.93328H58.6084C58.8327 1.98258 59.0077 1.92095 59.1384 1.75331C59.4096 1.40817 59.698 1.36873 60.0037 1.63251C60.5411 1.92835 60.8887 2.19213 61.0489 2.42634C61.0884 2.54713 61.0218 2.61863 60.8443 2.64328C60.6446 2.63588 60.4425 2.7271 60.2428 2.91939C59.7152 3.30398 59.2345 3.60721 58.8006 3.83155C58.6577 3.90304 58.5812 3.88332 58.5714 3.77238C58.5788 3.69349 58.6404 3.55297 58.7513 3.35082C58.8721 3.08703 58.9757 2.81832 59.0644 2.54467C59.1113 2.35238 59.0398 2.25623 58.8475 2.25623L51.6737 2.26856C51.4346 2.28581 51.2891 2.41154 51.2423 2.65314C51.1609 3.07717 51.0549 3.39519 50.9169 3.60228C50.557 4.01891 50.1674 4.08301 49.7508 3.79457C49.4944 3.57023 49.4821 3.24974 49.7138 2.83311C49.8494 2.64821 50.0023 2.52988 50.1699 2.47318C50.6334 2.09599 50.9267 1.64484 51.0475 1.1148C51.087 1.10001 51.124 1.1074 51.156 1.13945C51.2127 1.2997 51.2472 1.45994 51.2645 1.62019C51.2891 1.81248 51.4247 1.91602 51.6737 1.93328H54.378C54.5777 1.93328 54.6788 1.83713 54.6788 1.64484V0.658722ZM53.1997 2.83311C53.2884 2.56193 53.4437 2.44359 53.6681 2.4855C53.9392 2.53481 54.2252 2.6137 54.521 2.7271C54.7133 2.77394 54.8242 2.87009 54.8563 3.01554C54.8095 3.12894 54.7429 3.17578 54.664 3.15853C54.5827 3.17578 54.4791 3.267 54.3509 3.43464C54.2474 3.61954 54.2918 3.71075 54.484 3.71075H56.0593C56.3305 3.78224 56.577 3.64665 56.7915 3.30151C56.9024 3.18811 56.9986 3.1462 57.0799 3.16839C57.536 3.44203 57.9008 3.78224 58.1745 4.18902C58.1819 4.37391 58.0783 4.46513 57.8614 4.46513C57.6938 4.46513 57.5606 4.57853 57.4645 4.80041C57.2007 5.24909 56.9074 5.64847 56.5869 6.00101C56.3773 6.2426 56.3897 6.41764 56.6239 6.52858C57.9304 7.00931 59.3356 7.25337 60.8418 7.26077C60.8887 7.30021 60.9133 7.33719 60.9133 7.36924C60.8887 7.40869 60.758 7.49251 60.5164 7.6207C60.2674 7.8056 60.0998 7.99296 60.0111 8.18525C59.9149 8.44904 59.8558 8.59449 59.8311 8.61668C59.735 8.64873 59.5599 8.6364 59.3035 8.5797L59.1359 8.55505C58.9042 8.523 58.8228 8.55998 58.8943 8.66352C59.0151 8.78432 58.9905 8.90512 58.8228 9.02345C58.6231 9.09494 58.5517 9.25272 58.6059 9.49186V11.114C58.7168 11.5627 58.5097 11.8191 57.9822 11.8832C57.605 11.9867 57.3782 11.8709 57.2969 11.5356C57.2895 11.3359 57.1884 11.2348 56.9961 11.2348H53.9688C53.7765 11.2348 53.6755 11.2792 53.6681 11.3679C53.636 11.7673 53.3624 11.9769 52.8521 11.9917C52.4207 12.0163 52.2481 11.8043 52.3344 11.3556V8.77199C52.3344 8.5797 52.2136 8.49095 51.9745 8.5082C50.8602 8.66845 50.0836 8.73255 49.6424 8.7005C49.6029 8.66845 49.5857 8.63147 49.5955 8.59202C50.7887 8.36768 51.8537 8.03487 52.7929 7.59358C53.4339 7.2657 53.9146 6.96986 54.2351 6.70361C54.4914 6.48667 54.5186 6.26726 54.3189 6.04291C53.9491 5.56958 53.6952 5.19486 53.5497 4.91381C53.4536 4.71412 53.2859 4.71659 53.0444 4.92614C52.4207 5.43892 51.8117 5.81118 51.2176 6.04291C50.8972 6.14646 50.7443 6.16618 50.7616 6.10208C52.0829 5.01982 52.8964 3.9277 53.1997 2.82078V2.83311ZM55.8202 7.33966C55.5564 7.16462 55.3074 7.1523 55.0757 7.30268C54.627 7.59112 54.1192 7.85244 53.5497 8.08418C53.35 8.16553 53.318 8.23702 53.4536 8.30112C53.6064 8.38987 53.779 8.43425 53.9713 8.43425H56.8309C57.0232 8.43425 57.1711 8.38247 57.2747 8.27893C57.3634 8.16799 57.2796 8.05459 57.0232 7.94365C56.7027 7.80806 56.3823 7.65028 56.0618 7.47525L55.8227 7.34212L55.8202 7.33966ZM57.2845 9.07029C57.2845 8.85335 57.181 8.74487 56.9714 8.74487H53.9787C53.7691 8.74487 53.6656 8.84595 53.6656 9.04564V10.621C53.6656 10.8206 53.7617 10.9217 53.954 10.9217H56.9813C57.181 10.9217 57.2821 10.8256 57.2821 10.6333V9.07029H57.2845ZM54.1019 4.03617C53.9811 4.06822 53.8776 4.12492 53.7889 4.20381C53.7001 4.29996 53.7494 4.46513 53.9318 4.69687C54.2449 5.0494 54.5555 5.33784 54.8686 5.56218C55.0856 5.72243 55.2926 5.69531 55.4923 5.47836C55.8695 5.01489 56.153 4.55388 56.3453 4.09534C56.3379 4.05589 56.2368 4.03617 56.0445 4.03617H54.097H54.1019Z" fill="black"/>
<path d="M63.5604 6.05208C63.664 5.89184 63.7847 5.85979 63.9203 5.95594C64.1619 6.09153 64.4011 6.24438 64.6402 6.41202C64.8571 6.6117 64.9237 6.78181 64.8448 6.9174C64.724 7.08504 64.6648 7.25022 64.6648 7.41046V9.14109C64.6648 9.33338 64.7289 9.51089 64.8571 9.67113C65.3206 10.0483 65.8827 10.2801 66.5384 10.3688C67.0586 10.4477 67.6477 10.497 68.306 10.5118H70.0735C71.0596 10.4797 71.9668 10.3836 72.8001 10.2234C72.9603 10.1913 73.0712 10.179 73.1353 10.1864C73.2068 10.2431 73.1403 10.3589 72.9307 10.534C72.5387 10.8791 72.3588 11.3179 72.3908 11.8554C72.3267 11.8874 72.1936 11.9071 71.9939 11.9145L71.5502 11.9269H70.2042C68.2887 11.9195 66.9205 11.7346 66.0947 11.3746C65.4069 11.0689 64.8177 10.5143 64.3271 9.70318C64.1595 9.48623 63.9869 9.50349 63.8094 9.75248C63.4569 10.3121 63.1315 10.8742 62.8356 11.4338C62.7148 11.7223 62.5645 11.7617 62.3796 11.5546C62.244 11.3451 62.1183 11.133 62.0073 10.9186C61.8865 10.6548 61.9679 10.4304 62.2489 10.2455C62.5373 10.0705 62.8307 9.81658 63.1265 9.4887C63.2621 9.32106 63.3311 9.14356 63.3311 8.96113V7.02587C63.3311 6.82618 63.235 6.72511 63.0427 6.72511C62.8504 6.71771 62.6532 6.73743 62.4535 6.78428C62.1972 6.81632 62.0492 6.75223 62.0098 6.59198C61.963 6.42434 62.069 6.34299 62.3352 6.35038L62.949 6.40955C63.1413 6.40955 63.3459 6.28875 63.5629 6.04962L63.5604 6.05208ZM62.1774 2.86939C62.2095 2.83735 62.3451 2.83242 62.5867 2.85707C63.2597 2.94582 63.8069 3.24658 64.2334 3.75936C64.3764 3.9985 64.3986 4.29187 64.2926 4.63701C64.1644 4.98954 63.9228 5.15472 63.5727 5.13006C63.1882 5.02652 62.9836 4.81451 62.9589 4.49402C62.8874 3.9985 62.7346 3.59666 62.5028 3.29342C62.2859 3.05183 62.1774 2.91377 62.1774 2.87186V2.86939ZM62.5152 0.478063C62.5546 0.374521 62.7222 0.349868 63.0205 0.40657C63.4199 0.45341 63.7404 0.549557 63.982 0.695009C64.655 1.11164 64.83 1.63921 64.512 2.28019C64.3024 2.49714 64.0633 2.58589 63.7921 2.54398C63.5111 2.45523 63.3435 2.26047 63.2868 1.95477C63.2227 1.47404 63.0476 1.07466 62.7592 0.754176C62.6064 0.611189 62.5275 0.517508 62.5201 0.478063H62.5152ZM66.457 0.561883C66.5458 0.266048 66.637 0.258652 66.7331 0.53723C66.7825 0.768967 66.9378 0.897163 67.2015 0.921816H70.8796C71.0719 0.921816 71.2051 0.902093 71.2765 0.862649C71.6044 0.470668 71.8904 0.381917 72.1295 0.598862C72.7212 0.91935 73.0786 1.193 73.1994 1.41487C73.1748 1.51102 73.1033 1.56279 72.9825 1.57019C72.911 1.57019 72.8148 1.60717 72.694 1.67866C72.4845 1.7822 72.2725 1.903 72.058 2.03859C71.8805 2.152 71.8928 2.29498 72.095 2.47002L72.238 2.62533C72.4303 2.88172 72.5018 3.02964 72.4549 3.06908C72.3908 3.10113 72.238 3.11592 71.9989 3.11592H69.896C69.6963 3.11592 69.5953 3.21207 69.5953 3.40436V3.84811C69.5953 4.0478 69.6914 4.14888 69.8837 4.14888H70.3767C70.5764 4.14888 70.7219 4.09218 70.8082 3.98124C70.9117 3.86784 70.9881 3.79634 71.0374 3.76429C71.0843 3.73964 71.2568 3.78895 71.5551 3.90728C72.0186 4.13162 72.2799 4.34364 72.3366 4.54333C72.2873 4.63208 72.1813 4.72083 72.0112 4.80711C71.9939 4.84656 71.9865 4.96243 71.9865 5.15472V7.1023C72.0975 7.55838 71.8904 7.80737 71.3628 7.84681C70.9709 7.89365 70.786 7.73588 70.8106 7.36608C70.8106 7.25515 70.7145 7.19844 70.5222 7.19844H69.8985C69.6988 7.19844 69.5977 7.29459 69.5977 7.48688V7.93063C69.5977 8.13032 69.6939 8.2314 69.8862 8.2314H71.1114C71.3283 8.2955 71.4959 8.2314 71.6167 8.03911C71.8238 7.75067 72.0161 7.54605 72.1936 7.42525C72.45 7.56084 72.7064 7.76546 72.9628 8.03911C73.1304 8.28071 73.2117 8.42369 73.2019 8.47053C73.1624 8.51737 73.017 8.54203 72.7705 8.54203H69.8985C69.6988 8.54203 69.5977 8.63817 69.5977 8.83047V9.45418C69.6446 10.0631 69.3611 10.3072 68.7448 10.1864C68.6092 10.1617 68.4933 10.073 68.3972 9.92259C68.3725 9.56266 68.3651 9.20272 68.3725 8.84033C68.3725 8.64064 68.2764 8.53956 68.0841 8.53956H66.0774L65.6928 8.61106C65.4364 8.6505 65.2811 8.59133 65.2244 8.43109C65.1776 8.2314 65.2959 8.14265 65.5844 8.1673C65.7273 8.1747 65.8851 8.19442 66.0528 8.22647H68.0718C68.2714 8.22647 68.3725 8.13032 68.3725 7.93803V7.49428C68.3725 7.29459 68.2764 7.19351 68.0841 7.19351H67.628C67.4357 7.19351 67.3347 7.25268 67.3273 7.37348C67.2237 7.73341 66.9427 7.89119 66.4866 7.84188C66.3264 7.80244 66.2253 7.75806 66.1859 7.70876C66.1612 7.65206 66.1489 7.50414 66.1489 7.26501V4.11683C66.1489 3.84565 66.2722 3.74457 66.5211 3.81607C66.7134 3.86291 66.9057 3.93933 67.098 4.04534C67.2188 4.10944 67.3741 4.14148 67.5664 4.14148H68.0718C68.2714 4.14148 68.3725 4.04534 68.3725 3.85304V3.40929C68.3725 3.2096 68.2764 3.10853 68.0841 3.10853H66.7504L66.3782 3.16769C66.1218 3.20714 65.9788 3.19974 65.9467 3.14304C65.8826 3.09374 65.7693 3.0395 65.6115 2.9754C65.2663 2.69436 65.2318 2.35415 65.503 1.95477C66.033 1.59484 66.351 1.12643 66.4644 0.549557L66.457 0.561883ZM67.3199 1.24723L67.1399 1.27189C66.955 1.28914 66.8687 1.42473 66.8761 1.68112C66.8687 1.91286 66.812 2.18158 66.7085 2.48727C66.5951 2.68696 66.6592 2.79544 66.9008 2.81269H68.0668C68.2665 2.81269 68.3676 2.71655 68.3676 2.52425V1.80439C68.3676 1.53321 68.5081 1.40501 68.7891 1.4198C69.1096 1.45925 69.4301 1.51102 69.7506 1.57512C70.0464 1.67866 70.0587 1.83644 69.7876 2.04352C69.6594 2.10762 69.5953 2.25307 69.5953 2.47495C69.5953 2.69682 69.6914 2.81023 69.8837 2.81023C70.2288 2.86693 70.4754 2.81023 70.6282 2.64259C70.8279 2.36154 71.0325 2.11502 71.242 1.89807C71.2741 1.88328 71.3135 1.76988 71.3628 1.56279C71.3875 1.35571 71.3037 1.2497 71.1114 1.2497H67.3273L67.3199 1.24723ZM67.7044 4.4669C67.4481 4.49895 67.3199 4.60249 67.3199 4.77999V5.23607C67.3199 5.43576 67.416 5.53684 67.6083 5.53684H68.0644C68.2641 5.53684 68.3651 5.44069 68.3651 5.2484V4.76767C68.3651 4.56798 68.269 4.4669 68.0767 4.4669H67.7044ZM68.3676 6.16056C68.3676 5.96087 68.2714 5.85979 68.0792 5.85979H67.6231C67.4234 5.85979 67.3223 5.95594 67.3223 6.14823V6.59198C67.3223 6.79167 67.4185 6.89275 67.6108 6.89275H68.0668C68.2665 6.89275 68.3676 6.7966 68.3676 6.60431V6.16056ZM70.8057 4.76767C70.8057 4.55072 70.6775 4.45211 70.4211 4.4669H69.8936C69.6939 4.4669 69.5928 4.56305 69.5928 4.75534V5.23607C69.5928 5.43576 69.6889 5.53684 69.8812 5.53684H70.5049C70.7046 5.53684 70.8057 5.44069 70.8057 5.2484V4.76767ZM70.8057 6.16056C70.8057 5.96087 70.7095 5.85979 70.5173 5.85979H69.8936C69.6939 5.85979 69.5928 5.95594 69.5928 6.14823V6.59198C69.5928 6.79167 69.6889 6.89275 69.8812 6.89275H70.5049C70.7046 6.89275 70.8057 6.7966 70.8057 6.60431V6.16056Z" fill="black"/>
<path d="M74.9255 0.364917C74.9502 0.332868 75.0808 0.364917 75.3224 0.461063C75.5936 0.574467 75.8672 0.700197 76.1384 0.845649C76.6117 1.11683 76.9864 1.02561 77.2675 0.569536C77.4104 0.266306 77.6348 0.236722 77.9405 0.485716C78.5001 0.756898 78.8378 1.03055 78.9487 1.30173C78.9487 1.39048 78.8674 1.47676 78.7096 1.56551C78.4286 1.65426 78.325 1.84163 78.3965 2.13006V10.7586C78.3004 11.4316 77.9158 11.8039 77.2428 11.8754C76.9864 11.8901 76.8434 11.7792 76.8114 11.5376C76.7152 11.2171 76.5057 10.9805 76.1877 10.8276C75.9954 10.8104 75.9042 10.7191 75.9116 10.5515C75.951 10.5194 76.0915 10.5022 76.3331 10.5022C76.629 10.517 76.8508 10.4849 76.9938 10.406C77.0974 10.3099 77.1368 10.1497 77.1146 9.92531V7.06558C77.1146 6.86589 77.0185 6.76481 76.8262 6.76481H76.3331C76.1409 6.76481 76.0324 6.88561 76.0077 7.12474C75.9436 7.83721 75.8524 8.43874 75.7316 8.92687C75.5319 9.90312 75.1548 10.7857 74.6026 11.5697C74.4177 11.7767 74.3018 11.8828 74.255 11.8828C74.2155 11.8433 74.2278 11.7028 74.2919 11.4612C74.6691 9.59496 74.8737 7.34662 74.9058 4.72108V0.761829C74.9058 0.522696 74.9132 0.38957 74.9304 0.364917H74.9255ZM77.1121 4.40306C77.1121 4.18612 77.0234 4.07764 76.8484 4.07764H76.4761C76.2838 4.07764 76.1803 4.17379 76.163 4.36608C76.1458 4.96761 76.1162 5.56668 76.0669 6.16821C76.0669 6.3605 76.163 6.45665 76.3553 6.45665H76.8114C77.0111 6.45665 77.1121 6.3605 77.1121 6.16821V4.4006V4.40306ZM77.1121 1.62715C77.1121 1.4028 77.0111 1.29187 76.8114 1.29187H76.4761C76.2764 1.29187 76.1754 1.38801 76.1754 1.58031V3.45393C76.1754 3.65361 76.2715 3.75469 76.4638 3.75469H76.8114C77.0111 3.75469 77.1121 3.65854 77.1121 3.46625V1.62715ZM82.9029 5.86744C83.0878 5.69241 83.3196 5.64803 83.6006 5.73432C84.0739 5.91922 84.4067 6.13616 84.599 6.38269C84.6557 6.55773 84.5719 6.67606 84.3476 6.7303C84.2194 6.787 84.1158 6.93492 84.0345 7.17405C83.7633 7.87912 83.3787 8.55708 82.8808 9.20545C82.7279 9.39774 82.7723 9.56291 83.0139 9.69851C83.6943 10.051 84.3747 10.2902 85.0575 10.4184C85.3065 10.4504 85.4544 10.4825 85.5013 10.5145C85.5481 10.5786 85.4101 10.6698 85.0797 10.7906C84.6163 11.0322 84.2983 11.3996 84.1306 11.8951C84.0986 11.9197 83.9531 11.8828 83.6992 11.7866C83.0903 11.4809 82.5307 11.1185 82.0179 10.692C81.7689 10.4677 81.5298 10.4356 81.2981 10.5959C80.4402 11.1727 79.5207 11.5623 78.5346 11.762C78.293 11.794 78.1549 11.8014 78.113 11.7866C78.0958 11.7472 78.2092 11.6633 78.4483 11.5351C79.3284 11.1185 80.1172 10.6057 80.8149 9.99681C81.0072 9.81191 81.022 9.59989 80.8642 9.36076C80.4624 8.60885 80.132 7.72627 79.8658 6.71797C79.8485 6.52568 79.7228 6.43446 79.4812 6.44186L79.146 6.4887C78.897 6.52075 78.749 6.46158 78.7022 6.30873C78.6628 6.1337 78.7663 6.04741 79.0153 6.05727C79.1829 6.06467 79.3506 6.08439 79.5207 6.11644H82.3926C82.5849 6.11644 82.7575 6.03262 82.9103 5.86498L82.9029 5.86744ZM79.708 0.808669C79.708 0.544883 79.8313 0.456133 80.0803 0.544883C80.3514 0.64103 80.6251 0.749502 80.8963 0.870301C81.0491 0.991101 81.3499 1.01822 81.7985 0.954121C82.0229 0.72978 82.2349 0.569536 82.4346 0.47339C82.4986 0.465994 82.6712 0.549814 82.9523 0.72485C83.2555 0.892489 83.4478 1.07739 83.5291 1.27707C83.5291 1.34857 83.4971 1.41267 83.433 1.46937C83.3368 1.52607 83.29 1.64687 83.29 1.8293V3.54761C83.1864 3.96424 83.3689 4.15653 83.8422 4.12448C83.9704 4.10969 84.1109 4.07764 84.2637 4.02834C84.424 3.89275 84.5571 3.63143 84.6606 3.24684C84.7642 3.00771 84.8357 2.88691 84.8776 2.88691C84.9885 2.96826 85.0255 3.1433 84.9861 3.41695C84.9787 3.73004 85.0649 3.96178 85.2498 4.11462C85.5309 4.31431 85.5851 4.5781 85.4175 4.90845C85.0008 5.26838 84.2835 5.42616 83.2678 5.37685C82.9399 5.3448 82.6441 5.25359 82.3779 5.10074C82.1782 4.9405 82.0574 4.70136 82.0179 4.38087V1.59263C82.0179 1.39294 81.9218 1.29187 81.7295 1.29187H81.3449C81.1033 1.33131 80.9801 1.47183 80.9727 1.71343C80.9653 2.20156 80.9357 2.70201 80.8889 3.21479C80.7681 4.31924 80.1197 5.1106 78.9413 5.58147C78.6997 5.63817 78.5691 5.6505 78.5444 5.61845C78.68 5.44342 78.8329 5.26098 79.0005 5.07855C79.2495 4.79011 79.4171 4.46962 79.5059 4.11709C79.6489 3.28382 79.7179 2.18184 79.7105 0.8136L79.708 0.808669ZM82.7107 6.74509C82.7501 6.538 82.6712 6.432 82.4691 6.432H80.4032C80.2109 6.432 80.1542 6.5528 80.2356 6.79193C80.492 7.42551 80.9086 8.04183 81.4854 8.64336C81.6777 8.811 81.8577 8.77156 82.0253 8.52256C82.3606 7.97773 82.5899 7.38606 82.7107 6.74509Z" fill="black"/>
<path d="M88.3482 0.678818C88.3877 0.437219 88.5652 0.326281 88.8758 0.343538C89.211 0.40024 89.5315 0.491456 89.8372 0.619651C90.0443 0.683748 90.1725 0.767568 90.2218 0.87111C90.2218 1.08066 90.0788 1.19653 89.7904 1.21872C89.7583 1.25077 89.7263 1.31979 89.6942 1.42334C89.5192 1.95091 89.3244 2.49327 89.1174 3.0455C89.0459 3.23779 89.073 3.36598 89.2012 3.43008C89.5217 3.51883 89.5858 3.65935 89.3935 3.85165C89.2653 3.98724 89.2012 4.15241 89.2012 4.3447V11.5902C89.0878 11.9353 88.8166 12.0759 88.3852 12.0118C87.9686 11.9624 87.796 11.7061 87.8675 11.2426V5.67843C87.8675 5.47134 87.764 5.50339 87.5544 5.77457C87.3547 6.01617 87.123 6.26763 86.8568 6.53142C86.5437 6.75576 86.381 6.84451 86.3637 6.7952C86.3465 6.7459 86.4229 6.59551 86.593 6.33912C87.658 4.6578 88.2422 2.76938 88.3482 0.678818ZM91.2941 1.44799C91.2941 1.14476 91.4223 0.99191 91.6787 0.99191C91.9499 1.00917 92.2359 1.03875 92.5317 1.08806C92.7955 1.08066 92.968 1.16941 93.0494 1.35184C93.0568 1.41594 93.0025 1.48497 92.8818 1.55646C92.7684 1.58851 92.6771 1.7241 92.6056 1.9657C92.3493 2.67077 92.0806 3.26244 91.7995 3.74317C91.3435 4.57644 90.7789 5.26919 90.1059 5.82141C89.7928 6.05315 89.6203 6.15669 89.5882 6.1345C89.571 6.09506 89.6474 5.94714 89.8175 5.69075C90.7074 4.38415 91.2005 2.97154 91.2966 1.44799H91.2941ZM94.7528 4.89446C94.9451 4.67752 95.1892 4.63068 95.485 4.75148C95.9731 5.04731 96.2911 5.26919 96.4341 5.41217C96.619 5.62912 96.5352 5.80169 96.1827 5.92988C96.0224 6.05808 95.9633 6.23805 96.0027 6.46978C95.9953 8.18316 95.7981 9.62535 95.4135 10.7964C95.1571 11.3979 94.6641 11.7578 93.9344 11.8786C93.6287 11.8934 93.4586 11.7751 93.4167 11.5187C93.3773 11.2303 93.1751 10.9591 92.8152 10.7027C92.5021 10.6139 92.3986 10.4783 92.5021 10.2934C92.5415 10.2762 92.6821 10.2762 92.9237 10.2934C93.1726 10.3082 93.4192 10.3132 93.6682 10.3058C94.0922 10.3132 94.3239 10.1135 94.3658 9.70424C94.5827 8.58993 94.6863 7.30552 94.6789 5.84607C94.6937 5.54283 94.5655 5.43436 94.2943 5.52065H93.466C93.2737 5.52065 93.1652 5.64145 93.1406 5.88058C93.0518 7.36222 92.7708 8.60472 92.3 9.60563C91.8685 10.5276 91.1955 11.2081 90.2809 11.6494C89.9679 11.7282 89.8126 11.7406 89.8126 11.6863C89.8126 11.6543 89.9605 11.494 90.2563 11.2056C90.7198 10.646 91.0624 10.005 91.2769 9.28268C91.5801 8.35326 91.7773 7.20444 91.8661 5.83374C91.8735 5.64145 91.7576 5.5527 91.5185 5.56995L91.3755 5.59461C91.1265 5.63405 90.9835 5.56995 90.9441 5.40231C90.8973 5.22728 90.9959 5.14592 91.2448 5.16071C91.3977 5.16071 91.5604 5.17797 91.7379 5.21002H94.1661C94.3658 5.21002 94.563 5.10648 94.7553 4.89693L94.7528 4.89446ZM94.5384 0.604859C94.7381 0.387913 94.955 0.40024 95.1867 0.641838C95.5639 0.851388 95.5861 1.04368 95.2582 1.21872C94.9624 1.29021 94.9427 1.57618 95.1991 2.07171C95.7044 3.00852 96.4958 3.67414 97.578 4.06613C97.8418 4.17953 97.9749 4.24609 97.9749 4.27074C97.6865 4.44825 97.435 4.76873 97.2181 5.23221C97.154 5.47381 97.1047 5.6094 97.0751 5.64145C96.7053 5.56256 96.3059 5.24453 95.8745 4.69231C95.2336 3.84425 94.8022 2.76938 94.5778 1.47264C94.6173 1.08066 94.3091 0.977118 93.6534 1.15955C93.3896 1.19899 93.2367 1.14476 93.1973 0.99191C93.1579 0.807013 93.2934 0.728124 93.6065 0.752776C94.0626 0.848923 94.3757 0.799617 94.5433 0.60979L94.5384 0.604859Z" fill="black"/>
<path d="M102.673 0.725974C102.745 0.437535 102.903 0.304409 103.142 0.329062C103.758 0.432604 104.182 0.568195 104.416 0.7383C104.512 0.881287 104.453 0.977433 104.236 1.02674C104.187 1.044 104.088 1.18205 103.936 1.4483C103.864 1.5765 103.803 1.70469 103.756 1.83289C103.66 2.05723 103.697 2.16817 103.864 2.16817H107.192C107.463 2.26431 107.693 2.12379 107.878 1.7466C107.988 1.58636 108.114 1.42612 108.25 1.26587C108.403 1.01688 108.634 1.05879 108.947 1.38667C109.154 1.53952 109.376 1.73428 109.608 1.97588C109.793 2.20761 109.877 2.35307 109.86 2.4073C109.827 2.464 109.685 2.49112 109.428 2.49112H103.743C103.551 2.49112 103.386 2.61192 103.25 2.85105C102.905 3.37863 102.757 3.74842 102.807 3.9555C102.807 4.17245 102.903 4.28092 103.095 4.28092H106.231C106.455 4.31297 106.63 4.2686 106.758 4.1478C106.886 3.9629 107.029 3.79033 107.19 3.63009C107.229 3.61529 107.375 3.6572 107.621 3.76321C107.988 3.94811 108.309 4.1478 108.583 4.36474C108.8 4.65318 108.716 4.8504 108.331 4.95395C108.171 5.0427 108.112 5.21034 108.151 5.45933V10.7474C108.048 11.4278 107.653 11.805 106.973 11.8765C106.716 11.8913 106.544 11.7532 106.455 11.4549C106.359 11.1985 106.14 10.9791 105.794 10.7942C105.585 10.7301 105.474 10.6808 105.457 10.6512C105.385 10.5797 105.41 10.5107 105.528 10.4466L106.453 10.4589C106.734 10.4515 106.852 10.2543 106.813 9.86973V8.99209C106.813 8.7924 106.716 8.69133 106.524 8.69133H103.1C102.9 8.69133 102.799 8.78747 102.799 8.97976V11.1073C102.799 11.3464 102.792 11.4919 102.775 11.5387C102.565 11.8913 102.217 11.9874 101.729 11.8272C101.498 11.699 101.414 11.4746 101.478 11.1542V5.83159C101.478 5.6393 101.362 5.65655 101.13 5.87843C100.603 6.43066 100.028 6.90399 99.412 7.29597C99.1556 7.43896 99.0151 7.49566 98.9904 7.46361C98.983 7.42417 99.0939 7.28364 99.3257 7.04205C100.462 5.82419 101.359 4.41898 102.018 2.82394C102.114 2.59959 102.077 2.48866 101.909 2.48866H99.7941L99.4095 2.56015C99.1457 2.5848 98.9929 2.52317 98.9534 2.38018C98.8967 2.1805 99.0126 2.09174 99.301 2.1164L99.7448 2.16324H101.968C102.161 2.16324 102.301 2.04244 102.39 1.80331C102.503 1.44337 102.595 1.08344 102.666 0.721043L102.673 0.725974ZM106.793 4.65565C106.753 4.6236 106.64 4.60634 106.455 4.60634H103.102C102.903 4.60634 102.802 4.70249 102.802 4.89478V6.06086C102.802 6.26055 102.898 6.36163 103.09 6.36163H106.514C106.714 6.36163 106.815 6.26548 106.815 6.07319C106.822 5.59985 106.815 5.12898 106.79 4.65565H106.793ZM106.817 6.98781C106.817 6.78073 106.726 6.67472 106.541 6.67472H103.105C102.905 6.67472 102.804 6.77086 102.804 6.96316V8.06761C102.804 8.2673 102.9 8.36837 103.093 8.36837H106.517C106.716 8.36837 106.817 8.27223 106.817 8.07993V6.98534V6.98781Z" fill="black"/>
<path d="M111.407 0.824746C111.407 0.568356 111.527 0.464814 111.766 0.511655C112.03 0.593009 112.306 0.699017 112.595 0.837073C112.708 0.893774 112.859 0.920893 113.051 0.920893H113.532C113.724 0.920893 113.924 0.805024 114.133 0.573287C114.286 0.405647 114.486 0.417973 114.735 0.610266C115.151 0.819816 115.422 1.04169 115.551 1.28329C115.519 1.40409 115.437 1.47558 115.311 1.50024C115.168 1.58159 115.06 1.72951 114.986 1.94399C114.634 2.72055 114.234 3.50205 113.783 4.28601C113.783 4.35011 113.899 4.47831 114.131 4.6706C114.811 5.30418 115.22 5.92543 115.356 6.53189C115.556 7.31832 115.42 8.02093 114.947 8.64711C114.609 8.98239 114.227 9.16482 113.793 9.18701C113.529 9.19441 113.394 9.07607 113.384 8.82708C113.376 8.61013 113.255 8.38333 113.024 8.14173C112.792 7.98888 112.676 8.0086 112.676 8.20089V11.3984C112.595 11.7583 112.388 11.9432 112.052 11.9506C111.532 11.9999 111.315 11.7756 111.404 11.2776V0.824746H111.407ZM113.894 1.56926C113.919 1.35232 113.837 1.24385 113.652 1.24385H112.979C112.78 1.24385 112.679 1.33999 112.679 1.53228V7.33558C112.679 7.53526 112.802 7.65113 113.051 7.68318C113.556 7.76454 113.872 7.68811 114 7.45391C114.232 7.11863 114.256 6.58859 114.071 5.86873C114.032 5.64439 113.911 5.40525 113.712 5.14886C113.591 4.98862 113.487 4.82838 113.398 4.66813C113.255 4.47584 113.211 4.3156 113.265 4.1874C113.554 3.32948 113.761 2.45677 113.892 1.5668L113.894 1.56926ZM115.901 0.464814C115.933 0.432765 116.068 0.457418 116.31 0.536307C116.51 0.600405 116.709 0.691621 116.911 0.81242C117.111 0.925823 117.296 0.98006 117.464 0.98006H119.349C119.534 1.07621 119.798 0.915962 120.143 0.499328C120.4 0.55603 120.703 0.691621 121.055 0.908566C121.351 1.10086 121.516 1.24138 121.548 1.33013C121.548 1.40162 121.499 1.47805 121.405 1.5594C121.196 1.64815 121.122 1.81579 121.176 2.06479V5.29678C121.255 5.67397 121.132 5.91064 120.804 6.00679C120.227 6.23852 119.907 6.10786 119.843 5.60987C119.843 5.42498 119.746 5.33376 119.554 5.33376H118.893C118.701 5.33376 118.605 5.45456 118.605 5.69369C118.701 6.45547 118.962 7.20492 119.386 7.93957C119.497 8.13926 119.663 8.12447 119.88 7.89273C120.304 7.3553 120.585 6.91894 120.72 6.58366C120.856 6.32727 121.046 6.25578 121.285 6.36672C121.541 6.52696 121.81 6.71925 122.091 6.9436C122.219 7.03235 122.251 7.13589 122.187 7.25669C122.148 7.28874 122.071 7.30353 121.958 7.30353C121.837 7.31092 121.733 7.35283 121.645 7.42433C121.149 7.87301 120.604 8.19843 120.01 8.39812C119.818 8.46961 119.813 8.62739 119.998 8.86652C120.575 9.60364 121.23 10.1312 121.968 10.4517C122.256 10.5799 122.379 10.6637 122.34 10.7032C122.012 10.856 121.716 11.1247 121.45 11.5093C121.282 11.7583 121.08 11.8125 120.848 11.677C119.759 10.8905 119.059 9.95125 118.746 8.8542C118.44 7.70044 118.297 6.64776 118.314 5.69369C118.314 5.4521 118.218 5.33376 118.026 5.33376H117.533C117.333 5.33376 117.232 5.42991 117.232 5.6222V9.5642C117.232 9.75649 117.353 9.82799 117.592 9.78115L118.312 9.58885C118.553 9.53215 118.691 9.51243 118.733 9.52969C118.805 9.64309 118.716 9.75403 118.469 9.86496C117.957 10.2175 117.316 10.5429 116.547 10.8388C116.226 10.9669 115.906 11.1099 115.585 11.2702C115.425 11.3589 115.304 11.4501 115.225 11.5463C115.168 11.7139 115.065 11.7534 114.912 11.6671C114.823 11.4995 114.707 11.1913 114.565 10.7426L114.493 10.5035C114.446 10.2619 114.441 10.1263 114.481 10.0942C114.841 10.0696 115.213 10.0573 115.597 10.0573C115.79 10.0326 115.886 9.92413 115.886 9.73184V0.861726L115.898 0.464814H115.901ZM117.644 1.29315C117.372 1.3252 117.234 1.42135 117.234 1.58159V2.74767C117.234 2.94736 117.33 3.04844 117.523 3.04844H119.542C119.741 3.04844 119.843 2.95229 119.843 2.76V1.61857C119.843 1.40162 119.739 1.29315 119.529 1.29315H117.644ZM119.843 3.68448C119.843 3.46754 119.754 3.35906 119.579 3.35906H117.535C117.335 3.35906 117.234 3.45521 117.234 3.6475V4.70511C117.234 4.9048 117.33 5.00588 117.523 5.00588H119.542C119.741 5.00588 119.843 4.90973 119.843 4.71744V3.68448Z" fill="black"/>
<path d="M126.199 0.968166C126.223 0.936117 126.354 0.943513 126.595 0.992819C127.197 1.18511 127.641 1.40945 127.929 1.66584C127.993 1.83348 127.917 1.93949 127.7 1.97893C127.557 1.92223 127.431 2.02578 127.328 2.29203L126.211 4.21495C125.683 5.07287 124.934 5.84944 123.965 6.54712C123.652 6.72462 123.477 6.78378 123.438 6.72708C123.438 6.67038 123.541 6.52739 123.751 6.29566C124.719 5.17395 125.4 3.892 125.794 2.4498C125.947 1.96168 126.083 1.46862 126.203 0.970631L126.199 0.968166ZM127.244 5.06548C127.293 4.77704 127.436 4.64884 127.675 4.68089C128.139 4.74499 128.587 4.89291 129.021 5.12464C129.142 5.27749 129.073 5.38103 128.817 5.43774C128.753 5.47718 128.674 5.6251 128.577 5.88149C128.025 7.29163 127.283 8.57358 126.354 9.72734C126.154 9.95908 126.174 10.0725 126.413 10.0626C127.727 10.0232 129.329 9.89005 131.22 9.66571C131.445 9.62626 131.509 9.51779 131.412 9.34029C131.203 8.94831 130.9 8.55633 130.498 8.16188C130.185 7.99424 130.069 7.84632 130.15 7.71813C130.182 7.70334 130.325 7.74278 130.582 7.83893C131.824 8.30487 132.712 9.09376 133.249 10.2056C133.449 10.6691 133.424 11.0709 133.178 11.4062C132.985 11.6133 132.749 11.6774 132.468 11.5985C132.172 11.4851 132.004 11.2829 131.962 10.9846C131.93 10.7529 131.878 10.5212 131.807 10.287C131.743 10.0873 131.59 10.0133 131.351 10.07C129.317 10.5335 127.281 10.9797 125.247 11.4037C125.03 11.4358 124.894 11.5171 124.838 11.6453C124.756 11.7883 124.663 11.8253 124.549 11.7538C124.389 11.5221 124.234 11.098 124.081 10.4793C124.056 10.2229 124.182 10.0996 124.453 10.107H125.355C125.548 10.107 125.713 9.9862 125.848 9.74706C126.6 8.08792 127.066 6.52739 127.241 5.06055L127.244 5.06548ZM130.044 0.642748C130.148 0.499761 130.348 0.487434 130.646 0.605768C131.07 0.741359 131.131 0.931187 130.826 1.17032C130.609 1.24181 130.587 1.40945 130.754 1.6757C131.506 3.59863 132.677 4.73513 134.262 5.08767C134.501 5.12711 134.642 5.17149 134.684 5.22079C134.691 5.26763 134.575 5.35392 134.336 5.47225C133.905 5.67194 133.552 5.98503 133.279 6.40906C133.165 6.65066 133.091 6.77392 133.049 6.78132C132.704 6.59642 132.344 6.26854 131.967 5.7952C131.511 5.21833 131.151 4.57735 130.885 3.87228C130.668 3.32745 130.456 2.53116 130.249 1.48095C130.217 1.25661 130.116 1.14567 129.948 1.14567C129.396 1.12101 128.987 1.14567 128.723 1.21716C128.474 1.264 128.326 1.20237 128.279 1.02487C128.232 0.849832 128.331 0.763547 128.58 0.773408C128.9 0.837506 129.241 0.857228 129.601 0.832575C129.793 0.832575 129.941 0.768477 130.044 0.640282V0.642748Z" fill="black"/>
<path d="M145.015 0.667711C145.176 0.315174 145.4 0.270799 145.688 0.534585C146.034 0.709621 146.317 0.951219 146.541 1.25445C146.591 1.35799 146.556 1.45167 146.445 1.53056C146.181 1.62671 146.08 1.80667 146.145 2.07046V10.699C145.992 11.3967 145.582 11.7714 144.919 11.8281C144.646 11.8601 144.471 11.7443 144.392 11.4805C144.175 11.0564 143.798 10.7754 143.263 10.6398C143.199 10.4968 143.245 10.4352 143.406 10.4598L143.849 10.4722C144.241 10.5042 144.527 10.4771 144.702 10.3883C144.806 10.2996 144.845 10.1369 144.823 9.89529V1.74751C144.823 1.55522 144.806 1.43935 144.774 1.3999L144.426 1.38758H137.181L136.796 1.44674C136.533 1.48619 136.385 1.43195 136.353 1.2791C136.313 1.09421 136.441 1.01039 136.737 1.02764L137.146 1.07448H144.345C144.633 1.16323 144.858 1.02764 145.018 0.665246L145.015 0.667711ZM142.143 2.55366C142.311 2.36876 142.415 2.26522 142.457 2.24057C142.521 2.24057 142.673 2.31699 142.913 2.46984C143.344 2.79772 143.637 3.11574 143.79 3.41897C143.726 3.55456 143.566 3.59894 143.31 3.5521H137.277L136.893 3.62359C136.636 3.66304 136.481 3.60387 136.424 3.44363C136.375 3.24394 136.493 3.15519 136.772 3.17984C136.915 3.17984 137.073 3.1971 137.24 3.22915H141.278C141.535 3.32529 141.759 3.17984 141.951 2.79772L142.143 2.55612V2.55366ZM137.302 5.01648C137.302 4.76009 137.43 4.66395 137.686 4.72804C137.943 4.79954 138.214 4.90308 138.502 5.04113C138.677 5.15454 138.855 5.20877 139.03 5.20877H140.844C141.037 5.20877 141.204 5.13728 141.35 4.99183C141.495 4.84638 141.586 4.77242 141.626 4.76256C141.875 4.82665 142.176 4.95978 142.528 5.15947C142.991 5.35916 143.093 5.56378 142.829 5.77333C142.612 5.88673 142.54 6.04944 142.612 6.26638V8.76619C142.723 9.22227 142.498 9.48605 141.939 9.56001C141.779 9.58466 141.633 9.56494 141.507 9.50084C141.34 9.3406 141.283 9.15324 141.34 8.93629C141.34 8.71195 141.244 8.60101 141.051 8.60101H138.889C138.69 8.60101 138.589 8.69716 138.589 8.88945C138.628 9.37758 138.594 9.70546 138.48 9.87557C138.207 10.1073 137.891 10.1788 137.531 10.0925C137.321 10.021 137.248 9.83612 137.302 9.54029V5.02141V5.01648ZM141.34 5.8818C141.429 5.60075 141.323 5.48242 141.027 5.52187H138.887C138.687 5.52187 138.586 5.61801 138.586 5.8103V7.98469C138.586 8.18438 138.682 8.28545 138.875 8.28545H141.037C141.236 8.28545 141.337 8.18931 141.337 7.99702V5.8818H141.34Z" fill="black"/>
<path d="M35.0879 15.8868V16.8026H34.8132V16.6653C34.8132 16.2448 34.7965 16.1803 34.4448 16.1803H33.7018V17.2584H34.3095V16.811H34.5842V18.0473H34.3095V17.5519H33.7018V18.7466H34.4822V19.0421H32.9941V18.7466H33.4291V16.1803H32.9941V15.8848H35.0879V15.8868Z" fill="black"/>
<path d="M35.6407 18.0827C35.6678 18.5406 35.9675 18.8133 36.442 18.8133C36.7209 18.8133 36.9873 18.7071 37.262 18.5656L37.3411 18.8341C37.0622 18.9964 36.7167 19.1068 36.4066 19.1068C35.6053 19.1068 35.3535 18.4761 35.3535 18.0016C35.3535 17.3272 35.7698 16.8027 36.34 16.8027C36.9103 16.8027 37.2433 17.2086 37.2433 17.86C37.2433 17.9329 37.2391 18.0078 37.2246 18.0807H35.6386L35.6407 18.0827ZM36.9644 17.7872C36.9644 17.3772 36.6772 17.0983 36.3442 17.0983C36.0112 17.0983 35.7073 17.3938 35.6407 17.7872H36.9644Z" fill="black"/>
<path d="M37.9863 18.7484H38.2881V19.044H37.4119V18.7484H37.7137V17.1604L37.3911 17.2124L37.3516 16.9439C37.4931 16.9335 37.6388 16.9127 37.7408 16.8024C37.7761 16.7545 37.8032 16.7129 37.8594 16.7129C37.9884 16.7129 37.9884 16.8607 37.9884 16.9751V17.0542C38.2132 16.9273 38.4359 16.8024 38.6919 16.8024C38.9042 16.8024 39.1352 16.896 39.2372 17.1333C39.3163 17.3165 39.3121 17.56 39.3121 17.764V18.7484H39.6139V19.044H38.7377V18.7484H39.0395V17.7744C39.0395 17.4538 39.0582 17.0959 38.694 17.0959C38.4421 17.0959 38.1986 17.2374 37.9905 17.3914V18.7484H37.9863Z" fill="black"/>
<path d="M41.5688 16.8673V17.1628H41.2462C41.3357 17.3251 41.3794 17.4459 41.3794 17.6477C41.3794 18.1681 41.0735 18.4678 40.6489 18.4678L40.499 18.4511C40.4449 18.4824 40.2784 18.6509 40.2784 18.7134C40.2784 18.7509 40.4324 18.7509 40.499 18.7509H41.1775C41.5709 18.7509 41.8061 18.934 41.8061 19.319C41.8061 19.9872 41.1546 20.1391 40.7113 20.1391C40.3658 20.1391 39.7852 20.0808 39.7852 19.5293C39.7852 19.2982 39.9184 19.0818 40.0828 18.9611C40.0391 18.9236 39.9891 18.8549 39.9891 18.7404C39.9891 18.5927 40.1223 18.4615 40.2285 18.345C39.9974 18.1826 39.8747 17.9766 39.8747 17.6498C39.8747 17.1982 40.1972 16.8027 40.5781 16.8027C40.6968 16.8027 40.8175 16.8298 40.9319 16.8652H41.5688V16.8673ZM40.3825 19.0443C40.241 19.1609 40.0682 19.2857 40.0682 19.5126C40.0682 19.8331 40.4886 19.8435 40.6843 19.8435C40.9756 19.8435 41.5168 19.7811 41.5168 19.3544C41.5168 19.0651 41.3253 19.0443 41.1317 19.0443H40.3825ZM40.6447 17.0983C40.3825 17.0983 40.1619 17.3043 40.1619 17.6249C40.1619 17.9828 40.3658 18.1722 40.6572 18.1722C40.9486 18.1722 41.0922 17.9516 41.0922 17.6519C41.0922 17.3314 40.9194 17.1004 40.6447 17.1004V17.0983Z" fill="black"/>
<path d="M42.7071 16.8652V17.1608H42.3616L42.959 18.5282L43.4772 17.1608H43.1275V16.8652H44.0433V17.1608H43.7602L42.9402 19.3545C42.7945 19.7437 42.6655 20.1392 42.2451 20.1392C42.0723 20.1392 41.8913 20.0663 41.7539 19.9498L41.86 19.6667C41.9704 19.7728 42.1119 19.8457 42.2597 19.8457C42.4907 19.8457 42.6051 19.4731 42.6842 19.2608L42.8216 18.8987L42.064 17.1629H41.7851V16.8673H42.7071V16.8652Z" fill="black"/>
<path d="M45.6755 18.9108C45.4591 19.0169 45.2759 19.1064 45.0324 19.1064C44.6079 19.1064 44.3602 18.8379 44.3602 18.2073V17.1604L44.0376 17.2124L43.998 16.9439C44.1396 16.9335 44.2853 16.9127 44.3872 16.8024C44.4226 16.7545 44.4497 16.7129 44.5059 16.7129C44.6349 16.7129 44.6349 16.8607 44.6349 16.9751V18.1011C44.6349 18.6423 44.7369 18.8109 45.0283 18.8109C45.2489 18.8109 45.4799 18.7047 45.6755 18.5902V17.1604L45.3529 17.2124L45.3134 16.9439C45.4549 16.9335 45.6006 16.9127 45.7026 16.8024C45.738 16.7545 45.765 16.7129 45.8212 16.7129C45.9503 16.7129 45.9503 16.8607 45.9503 16.9751V18.7484H46.3041V19.044H45.6755V18.9128V18.9108Z" fill="black"/>
<path d="M47.787 18.8825C47.5206 19.0136 47.2646 19.1031 46.9815 19.1031C46.6589 19.1031 46.3613 18.9241 46.3613 18.4974C46.3613 18.0708 46.6402 17.9126 46.9462 17.8293C47.2209 17.7502 47.4915 17.7357 47.787 17.7232V17.5858C47.787 17.2861 47.8265 17.0905 47.4894 17.0905C47.2688 17.0905 47.0461 17.1487 46.8608 17.2965V17.6066H46.5861V17.1009C46.8421 16.9177 47.1626 16.7949 47.4498 16.7949C47.9015 16.7949 48.0617 16.9365 48.0617 17.4526V18.741H48.4301V19.0365H47.787V18.8783V18.8825ZM47.787 18.0042C47.5352 18.0146 47.2604 18.0416 47.0211 18.1103C46.84 18.1623 46.6485 18.2373 46.6485 18.4995C46.6485 18.7472 46.8171 18.8096 46.994 18.8096C47.2688 18.8096 47.5393 18.6889 47.787 18.5516V18.0042Z" fill="black"/>
<path d="M49.0606 18.7484H49.3623V19.044H48.4861V18.7484H48.7879V17.1604L48.4653 17.2124L48.4258 16.9439C48.5673 16.9335 48.713 16.9127 48.815 16.8024C48.8504 16.7545 48.8774 16.7129 48.9336 16.7129C49.0626 16.7129 49.0626 16.8607 49.0626 16.9751V17.0542C49.2895 16.9273 49.5101 16.8024 49.7661 16.8024C49.9784 16.8024 50.2094 16.896 50.3114 17.1333C50.3905 17.3165 50.3863 17.56 50.3863 17.764V18.7484H50.6881V19.044H49.8119V18.7484H50.1137V17.7744C50.1137 17.4538 50.1324 17.0959 49.7682 17.0959C49.5164 17.0959 49.2729 17.2374 49.0647 17.3914V18.7484H49.0606Z" fill="black"/>
<path d="M52.9375 18.8527L53.4016 18.7466V16.2428L52.9417 16.2053V15.8848C53.1061 15.9056 53.2747 15.9472 53.437 15.9472C53.6847 15.9472 53.9282 15.8848 54.1758 15.8848C54.5255 15.8848 54.8627 16.1366 54.8627 16.5903C54.8627 16.863 54.7128 17.1419 54.5089 17.2792C54.8668 17.4166 55.0854 17.7101 55.0854 18.168C55.0854 18.757 54.7524 19.0421 54.3236 19.0421C54.0801 19.0421 53.8324 18.9797 53.5889 18.9797C53.3808 18.9797 53.1685 19.0484 52.9999 19.1004L52.9375 18.8527ZM53.6763 17.196H53.872C54.4173 17.196 54.5755 16.89 54.5755 16.607C54.5755 16.3239 54.3902 16.1803 54.155 16.1803C53.9948 16.1803 53.8324 16.2074 53.6763 16.2386V17.196ZM53.6763 18.7383L54.2029 18.8007C54.5609 18.8423 54.7961 18.5593 54.7961 18.1638C54.7961 17.8225 54.6275 17.4895 54.026 17.4895H53.6763V18.7362V18.7383Z" fill="black"/>
<path d="M56.7498 18.9108C56.5333 19.0169 56.3522 19.1064 56.1067 19.1064C55.6821 19.1064 55.4344 18.8379 55.4344 18.2073V17.1604L55.1118 17.2124L55.0723 16.9439C55.2138 16.9335 55.3595 16.9127 55.4615 16.8024C55.4968 16.7545 55.5239 16.7129 55.5801 16.7129C55.7091 16.7129 55.7091 16.8607 55.7091 16.9751V18.1011C55.7091 18.6423 55.8111 18.8109 56.1025 18.8109C56.3231 18.8109 56.5541 18.7047 56.7498 18.5902V17.1604L56.4272 17.2124L56.3876 16.9439C56.5291 16.9335 56.6748 16.9127 56.7768 16.8024C56.8122 16.7545 56.8393 16.7129 56.8954 16.7129C57.0245 16.7129 57.0245 16.8607 57.0245 16.9751V18.7484H57.3783V19.044H56.7498V18.9128V18.9108Z" fill="black"/>
<path d="M59.0614 16.6934L59.3049 16.7516C59.2695 16.9202 59.2425 17.0888 59.2425 17.2616C59.2425 17.3781 59.2508 17.4884 59.2737 17.5987L59.0073 17.6258L58.9948 17.5092C58.9636 17.2512 58.897 17.0992 58.4599 17.0992C58.2518 17.0992 57.9458 17.1721 57.9458 17.4884C57.9458 18.0462 59.3278 17.5675 59.3278 18.4729C59.3278 18.9786 58.8179 19.1098 58.4724 19.1098C58.2247 19.1098 58.0645 19.0577 57.8397 18.9412L57.796 19.1306L57.5608 19.0473C57.5962 18.91 57.6149 18.7684 57.6149 18.6269C57.6149 18.4958 57.6024 18.3584 57.5566 18.2377L57.8314 18.1961C57.8834 18.6331 57.9646 18.8163 58.4953 18.8163C58.6597 18.8163 59.0406 18.758 59.0406 18.4687C59.0406 17.8839 57.6586 18.4063 57.6586 17.5113C57.6586 17.0264 58.0665 16.8057 58.4516 16.8057C58.6472 16.8057 58.8325 16.8536 59.0177 16.9265L59.0614 16.6954V16.6934Z" fill="black"/>
<path d="M63.9736 15.8887V16.998H63.6989V16.5984C63.6989 16.23 63.6718 16.1821 63.3659 16.1821H63.0079V18.7484H63.5886V19.044H62.1546V18.7484H62.7352V16.1821H62.3773C62.0713 16.1821 62.0443 16.23 62.0443 16.5984V16.998H61.7695V15.8887H63.9757H63.9736Z" fill="black"/>
<path d="M64.8687 18.7482H65.67V19.0437H64.209V18.7482H64.594V17.1643L64.2714 17.2163L64.2319 16.9478C64.3734 16.9374 64.5191 16.9166 64.6211 16.8063C64.6565 16.7584 64.6835 16.7168 64.7397 16.7168C64.8687 16.7168 64.8687 16.8646 64.8687 16.979V17.2579C65.1123 17.0477 65.3474 16.8 65.6659 16.8C65.8969 16.8 66.0426 16.9832 66.1133 17.2267L65.8386 17.3578C65.8032 17.2475 65.7595 17.0956 65.6388 17.0956C65.414 17.0956 65.0415 17.4682 64.8687 17.6534V18.7482Z" fill="black"/>
<path d="M67.7225 18.8825C67.4561 19.0136 67.2001 19.1031 66.9171 19.1031C66.5945 19.1031 66.2969 18.9241 66.2969 18.4974C66.2969 18.0708 66.5758 17.9126 66.8817 17.8293C67.1564 17.7502 67.427 17.7357 67.7225 17.7232V17.5858C67.7225 17.2861 67.7621 17.0905 67.4249 17.0905C67.2043 17.0905 66.9816 17.1487 66.7964 17.2965V17.6066H66.5216V17.1009C66.7776 16.9177 67.0982 16.7949 67.3854 16.7949C67.837 16.7949 67.9973 16.9365 67.9973 17.4526V18.741H68.3656V19.0365H67.7225V18.8783V18.8825ZM67.7225 18.0042C67.4707 18.0146 67.196 18.0416 66.9566 18.1103C66.7756 18.1623 66.5841 18.2373 66.5841 18.4995C66.5841 18.7472 66.7527 18.8096 66.9296 18.8096C67.2043 18.8096 67.4749 18.6889 67.7225 18.5516V18.0042Z" fill="black"/>
<path d="M68.9942 18.7484H69.2959V19.044H68.4197V18.7484H68.7215V17.1604L68.3989 17.2124L68.3594 16.9439C68.5009 16.9335 68.6466 16.9127 68.7486 16.8024C68.784 16.7545 68.811 16.7129 68.8672 16.7129C68.9962 16.7129 68.9962 16.8607 68.9962 16.9751V17.0542C69.2231 16.9273 69.4437 16.8024 69.6997 16.8024C69.912 16.8024 70.143 16.896 70.245 17.1333C70.3241 17.3165 70.3199 17.56 70.3199 17.764V18.7484H70.6217V19.044H69.7455V18.7484H70.0473V17.7744C70.0473 17.4538 70.066 17.0959 69.7018 17.0959C69.45 17.0959 69.2064 17.2374 68.9983 17.3914V18.7484H68.9942Z" fill="black"/>
<path d="M72.3524 16.6934L72.5959 16.7516C72.5605 16.9202 72.5335 17.0888 72.5335 17.2616C72.5335 17.3781 72.5418 17.4884 72.5647 17.5987L72.2983 17.6258L72.2858 17.5092C72.2546 17.2512 72.188 17.0992 71.7509 17.0992C71.5428 17.0992 71.2369 17.1721 71.2369 17.4884C71.2369 18.0462 72.6188 17.5675 72.6188 18.4729C72.6188 18.9786 72.1089 19.1098 71.7634 19.1098C71.5157 19.1098 71.3555 19.0577 71.1307 18.9412L71.087 19.1306L70.8518 19.0473C70.8872 18.91 70.9059 18.7684 70.9059 18.6269C70.9059 18.4958 70.8934 18.3584 70.8477 18.2377L71.1224 18.1961C71.1765 18.6331 71.2556 18.8163 71.7863 18.8163C71.9507 18.8163 72.3316 18.758 72.3316 18.4687C72.3316 17.8839 70.9496 18.4063 70.9496 17.5113C70.9496 17.0264 71.3576 16.8057 71.7426 16.8057C71.9382 16.8057 72.1235 16.8536 72.3087 16.9265L72.3524 16.6954V16.6934Z" fill="black"/>
<path d="M73.5197 19.7849H73.9443V20.0805H72.9786V19.7849H73.245V17.1604L72.9224 17.2124L72.8828 16.9439C73.0243 16.9335 73.17 16.9127 73.272 16.8024C73.3074 16.7545 73.3344 16.7129 73.3906 16.7129C73.5197 16.7129 73.5197 16.8607 73.5197 16.9751V17.0334C73.6966 16.896 73.8256 16.8024 74.0462 16.8024C74.5874 16.8024 74.9058 17.3435 74.9058 17.943C74.9058 18.8275 74.2627 19.1064 74.0067 19.1064C73.8381 19.1064 73.6799 19.0585 73.5197 19.0065V19.7849ZM73.5197 18.6797C73.6529 18.7692 73.7902 18.8109 73.9401 18.8109C74.348 18.8109 74.6186 18.405 74.6186 17.943C74.6186 17.5371 74.4229 17.0959 74.0421 17.0959C73.8423 17.0959 73.63 17.2478 73.5197 17.4434V18.6797Z" fill="black"/>
<path d="M75.1953 17.9537C75.1953 17.3023 75.6116 16.8027 76.161 16.8027C76.7105 16.8027 77.1267 17.3023 77.1267 17.9537C77.1267 18.6052 76.7105 19.1068 76.161 19.1068C75.6116 19.1068 75.1953 18.601 75.1953 17.9537ZM76.8374 17.9537C76.8374 17.4854 76.5669 17.0962 76.1589 17.0962C75.751 17.0962 75.4804 17.4854 75.4804 17.9537C75.4804 18.422 75.751 18.8112 76.1589 18.8112C76.5669 18.8112 76.8374 18.4158 76.8374 17.9537Z" fill="black"/>
<path d="M78.1558 18.7482H78.9571V19.0437H77.4961V18.7482H77.8811V17.1643L77.5585 17.2163L77.519 16.9478C77.6605 16.9374 77.8062 16.9166 77.9082 16.8063C77.9436 16.7584 77.9706 16.7168 78.0268 16.7168C78.1559 16.7168 78.1558 16.8646 78.1558 16.979V17.2579C78.3994 17.0477 78.6345 16.8 78.953 16.8C79.184 16.8 79.3297 16.9832 79.4004 17.2267L79.1257 17.3578C79.0903 17.2475 79.0466 17.0956 78.9259 17.0956C78.6991 17.0956 78.3286 17.4682 78.1558 17.6534V18.7482Z" fill="black"/>
<path d="M80.4253 16.8681H81.4576V17.1636H80.4253V18.2147C80.4253 18.4873 80.3982 18.8141 80.7083 18.8141C80.9477 18.8141 81.2494 18.7246 81.4825 18.6413L81.572 18.9202C81.3015 19.0097 80.956 19.1096 80.6813 19.1096C80.3483 19.1096 80.1505 18.8786 80.1505 18.3624V17.1636H79.5137V16.8681H80.1505V16.2832H80.4253V16.8681Z" fill="black"/>
<path d="M83.2245 18.8825C82.9581 19.0136 82.7021 19.1031 82.419 19.1031C82.0965 19.1031 81.7988 18.9241 81.7988 18.4974C81.7988 18.0708 82.0777 17.9126 82.3837 17.8293C82.6584 17.7502 82.929 17.7357 83.2245 17.7232V17.5858C83.2245 17.2861 83.264 17.0905 82.9269 17.0905C82.7063 17.0905 82.4836 17.1487 82.2983 17.2965V17.6066H82.0236V17.1009C82.2796 16.9177 82.6001 16.7949 82.8873 16.7949C83.339 16.7949 83.4992 16.9365 83.4992 17.4526V18.741H83.8676V19.0365H83.2245V18.8783V18.8825ZM83.2245 18.0042C82.9727 18.0146 82.6979 18.0416 82.4586 18.1103C82.2775 18.1623 82.086 18.2373 82.086 18.4995C82.086 18.7472 82.2546 18.8096 82.4315 18.8096C82.7063 18.8096 82.9768 18.6889 83.2245 18.5516V18.0042Z" fill="black"/>
<path d="M84.855 16.8681H85.8873V17.1636H84.855V18.2147C84.855 18.4873 84.8279 18.8141 85.138 18.8141C85.3773 18.8141 85.6791 18.7246 85.9122 18.6413L86.0017 18.9202C85.7312 19.0097 85.3857 19.1096 85.1109 19.1096C84.7779 19.1096 84.5802 18.8786 84.5802 18.3624V17.1636H83.9434V16.8681H84.5802V16.2832H84.855V16.8681Z" fill="black"/>
<path d="M86.3594 18.7505H87.2397V17.1729C87.0899 17.2041 86.938 17.2353 86.7839 17.2249L86.4072 17.1979L86.3635 16.9086L86.7673 16.9398C86.9047 16.9502 87.1648 16.9294 87.2626 16.792C87.298 16.7441 87.3251 16.7129 87.3813 16.7129C87.5186 16.7129 87.5145 16.8711 87.5145 16.9856V18.7485H88.2949V19.044H86.3594V18.7485V18.7505ZM87.3334 16.3237C87.1794 16.3237 87.0462 16.1822 87.0462 15.9969C87.0462 15.8117 87.1794 15.666 87.3334 15.666C87.4874 15.666 87.6165 15.8075 87.6165 15.9969C87.6165 16.1863 87.4833 16.3237 87.3334 16.3237Z" fill="black"/>
<path d="M88.4844 17.9537C88.4844 17.3023 88.9006 16.8027 89.4501 16.8027C89.9995 16.8027 90.4158 17.3023 90.4158 17.9537C90.4158 18.6052 89.9995 19.1068 89.4501 19.1068C88.9006 19.1068 88.4844 18.601 88.4844 17.9537ZM90.1265 17.9537C90.1265 17.4854 89.8559 17.0962 89.448 17.0962C89.0401 17.0962 88.7695 17.4854 88.7695 17.9537C88.7695 18.422 89.0401 18.8112 89.448 18.8112C89.8559 18.8112 90.1265 18.4158 90.1265 17.9537Z" fill="black"/>
<path d="M91.1406 18.7484H91.4424V19.044H90.5662V18.7484H90.868V17.1604L90.5454 17.2124L90.5059 16.9439C90.6474 16.9335 90.7931 16.9127 90.8951 16.8024C90.9304 16.7545 90.9575 16.7129 91.0137 16.7129C91.1427 16.7129 91.1427 16.8607 91.1427 16.9751V17.0542C91.3696 16.9273 91.5902 16.8024 91.8462 16.8024C92.0585 16.8024 92.2895 16.896 92.3915 17.1333C92.4706 17.3165 92.4664 17.56 92.4664 17.764V18.7484H92.7682V19.044H91.892V18.7484H92.1938V17.7744C92.1938 17.4538 92.2125 17.0959 91.8483 17.0959C91.5964 17.0959 91.3529 17.2374 91.1448 17.3914V18.7484H91.1406Z" fill="black"/>
<path d="M96.8779 15.8204L97.1256 15.9141C97.0632 16.0868 97.0361 16.2762 97.0465 16.4657L97.0694 16.8653L96.8072 16.9173C96.7884 16.4323 96.6865 16.1118 96.2265 16.1118C95.6104 16.1118 95.4023 16.8424 95.4023 17.4522C95.4023 18.062 95.6229 18.8051 96.2182 18.8051C96.6698 18.8051 96.8384 18.4471 96.8384 17.9538H97.1131V18.6281C96.8654 18.9112 96.5553 19.1006 96.2057 19.1006C95.727 19.1006 95.1172 18.6635 95.1172 17.4272C95.1172 16.1909 95.7291 15.8184 96.2161 15.8184C96.4242 15.8184 96.6407 15.887 96.8238 15.9974L96.8821 15.8184L96.8779 15.8204Z" fill="black"/>
<path d="M97.3418 17.9537C97.3418 17.3023 97.758 16.8027 98.3075 16.8027C98.857 16.8027 99.2732 17.3023 99.2732 17.9537C99.2732 18.6052 98.857 19.1068 98.3075 19.1068C97.758 19.1068 97.3418 18.601 97.3418 17.9537ZM98.986 17.9537C98.986 17.4854 98.7154 17.0962 98.3075 17.0962C97.8996 17.0962 97.629 17.4854 97.629 17.9537C97.629 18.422 97.8996 18.8112 98.3075 18.8112C98.7154 18.8112 98.986 18.4158 98.986 17.9537Z" fill="black"/>
<path d="M100.523 18.3809C100.692 18.3809 100.833 18.5432 100.833 18.743C100.833 18.9428 100.692 19.1052 100.523 19.1052C100.354 19.1052 100.213 18.947 100.213 18.743C100.213 18.539 100.354 18.3809 100.523 18.3809Z" fill="black"/>
<path d="M102.473 19.253C102.571 19.2259 102.658 19.1801 102.729 19.0948C102.583 19.0844 102.467 18.9533 102.467 18.7743C102.467 18.564 102.596 18.4121 102.773 18.4121C102.968 18.4121 103.095 18.6182 103.095 18.8388C103.095 19.2238 102.758 19.4861 102.471 19.5589V19.253H102.473Z" fill="black"/>
<path d="M107.286 15.8887V16.1842H106.787V18.7505H107.486C107.973 18.7505 107.96 18.6506 107.96 18.0886V17.9409H108.235V19.046H106.033V18.7505H106.512V16.1842H106.033V15.8887H107.286Z" fill="black"/>
<path d="M109.216 16.8641H110.249V17.1597H109.216V18.2108C109.216 18.4834 109.189 18.8102 109.499 18.8102C109.739 18.8102 110.04 18.7207 110.274 18.6374L110.363 18.9163C110.092 19.0058 109.747 19.1057 109.472 19.1057C109.139 19.1057 108.942 18.8747 108.942 18.3585V17.1597H108.305V16.8641H108.942V16.2793H109.216V16.8641Z" fill="black"/>
<path d="M112.009 18.9594C111.841 19.0426 111.707 19.1071 111.522 19.1071C111 19.1071 110.623 18.5702 110.623 17.9707C110.623 17.3713 110.991 16.8031 111.522 16.8031C111.678 16.8031 111.859 16.8614 112.009 16.9134V16.0393L111.612 16.1017L111.572 15.8332C111.714 15.802 111.934 15.8228 112.036 15.6813C112.072 15.6334 112.099 15.5918 112.155 15.5918C112.284 15.5918 112.284 15.7396 112.284 15.854V18.7471H112.629V19.0426H112.009V18.9594ZM112.009 17.2444C111.88 17.1549 111.734 17.0966 111.585 17.0966C111.16 17.0966 110.912 17.4962 110.912 17.9749C110.912 18.4016 111.16 18.8116 111.541 18.8116C111.709 18.8116 111.878 18.7388 112.011 18.6222V17.2444H112.009Z" fill="black"/>
<path d="M113.81 18.3809C113.979 18.3809 114.12 18.5432 114.12 18.743C114.12 18.9428 113.979 19.1052 113.81 19.1052C113.642 19.1052 113.5 18.947 113.5 18.743C113.5 18.539 113.642 18.3809 113.81 18.3809Z" fill="black"/>
</svg>
