<svg width="219" height="60" viewBox="0 0 219 60" fill="none" xmlns="http://www.w3.org/2000/svg">
<path d="M77.616 1.944C77.568 2.28 77.352 2.496 76.752 2.592V3.456H74.304V1.608L77.616 1.944ZM76.152 2.376L76.752 2.736V10.728H76.92L76.128 12.024L73.584 10.488C73.872 10.152 74.4 9.696 74.784 9.576L74.304 10.416V2.376H76.152ZM94.296 1.944C94.248 2.256 94.08 2.472 93.504 2.568V10.752C93.504 10.992 92.376 11.52 91.416 11.52H91.008V1.656L94.296 1.944ZM92.256 10.056V10.728H75.576V10.056H92.256ZM85.944 0.935999C85.896 1.248 85.728 1.464 85.152 1.536V10.416H82.68V0.647999L85.944 0.935999ZM89.712 19.152C89.64 19.44 89.352 19.632 88.824 19.632C88.008 20.376 86.688 21.408 85.608 22.152H85.248C85.608 21.072 85.992 19.416 86.232 18.288L89.712 19.152ZM79.128 18.288C84.816 19.296 81.84 23.232 79.752 21.288C79.752 20.256 79.344 19.128 78.936 18.408L79.128 18.288ZM89.928 17.424V18.096H77.832V17.424H89.928ZM76.512 13.296L79.416 14.4H88.608L89.856 12.984L92.328 14.808C92.184 15.024 91.968 15.144 91.464 15.24V18.144C91.464 18.24 90.6 18.672 89.16 18.672H88.656V15.096H79.176V18.432C79.176 18.624 78.36 19.032 76.992 19.032H76.512V13.296ZM89.28 1.296C89.232 1.536 89.088 1.704 88.656 1.8V10.536H86.952V1.032L89.28 1.296ZM89.544 4.848C89.544 4.848 90.216 5.376 90.624 5.856C90.576 6.12 90.36 6.24 90.072 6.24H85.728L85.536 5.544H89.016L89.544 4.848ZM89.808 7.056C89.808 7.056 90.504 7.656 90.96 8.16C90.888 8.4 90.696 8.52 90.384 8.52H85.536L85.344 7.848H89.184L89.808 7.056ZM89.736 2.448C89.736 2.448 90.432 3.024 90.912 3.528C90.84 3.768 90.648 3.888 90.336 3.888H85.584L85.392 3.216H89.088L89.736 2.448ZM81.048 1.272C81.024 1.512 80.856 1.704 80.424 1.776V10.536H78.744V1.008L81.048 1.272ZM81.288 4.872C81.288 4.872 81.912 5.4 82.32 5.856C82.248 6.12 82.056 6.24 81.744 6.24H77.448L77.256 5.544H80.736L81.288 4.872ZM81.504 7.056C81.504 7.056 82.224 7.656 82.656 8.16C82.608 8.4 82.392 8.52 82.08 8.52H77.256L77.064 7.848H80.88L81.504 7.056ZM81.36 2.448C81.36 2.448 82.08 3.024 82.536 3.528C82.488 3.768 82.272 3.888 81.96 3.888H77.328L77.136 3.216H80.76L81.36 2.448ZM92.184 10.416C92.184 10.416 93.768 11.592 94.728 12.456C94.656 12.72 94.392 12.84 94.056 12.84H73.608L73.416 12.168H90.816L92.184 10.416ZM92.592 20.016C92.592 20.016 94.224 21.24 95.208 22.104C95.136 22.368 94.896 22.488 94.56 22.488H72.984L72.792 21.816H91.128L92.592 20.016ZM104.544 22.272C104.544 22.488 103.704 23.136 102.288 23.136H101.784V15.216L102.12 14.808L104.88 15.84H104.544V22.272ZM113.376 15.84V16.512H103.008V15.84H113.376ZM112.392 7.128V7.824H104.496L104.904 7.128H112.392ZM111.36 15.84L112.632 14.496L115.248 16.464C115.104 16.608 114.84 16.776 114.408 16.872V22.272C114.384 22.416 112.992 22.944 112.08 22.944H111.576V15.84H111.36ZM113.208 20.688V21.384H102.912V20.688H113.208ZM110.664 7.128L112.512 5.52L115.248 8.16C115.008 8.376 114.696 8.448 114.024 8.52C110.712 12.624 103.968 15.864 96.912 17.16L96.768 16.872C103.152 14.88 108.84 11.016 110.976 7.128H110.664ZM108.024 6.024C107.904 6.288 107.568 6.48 107.016 6.384C104.616 9.696 101.448 11.688 98.232 12.864L98.016 12.576C100.368 10.896 102.936 7.848 104.448 4.416L108.024 6.024ZM104.064 7.56C106.704 11.76 113.112 13.464 119.328 13.992L119.304 14.28C118.08 14.568 117.336 15.504 117.048 16.872C110.976 15.6 106.128 13.08 103.752 7.776L104.064 7.56ZM105.672 0.671999C111.984 0.311999 109.8 5.352 107.184 3.696C107.04 2.616 106.296 1.44 105.504 0.816L105.672 0.671999ZM115.224 3.912L116.64 2.472L119.16 4.848C118.968 5.04 118.704 5.112 118.224 5.136C117.456 5.928 116.136 6.984 115.104 7.584L114.888 7.44C115.128 6.432 115.392 4.848 115.488 3.912H115.224ZM100.152 2.568C101.232 5.352 100.512 7.272 99.384 7.992C98.616 8.496 97.488 8.328 97.152 7.44C96.864 6.6 97.368 5.928 98.088 5.568C98.952 5.112 99.888 3.888 99.84 2.568H100.152ZM116.544 3.912V4.608H99.696V3.912H116.544ZM132.624 2.184H140.28V2.856H132.624V2.184ZM131.256 2.184V1.056L134.232 2.184H133.92V22.32C133.92 22.512 133.104 23.16 131.736 23.16H131.256V2.184ZM132.672 10.152H140.616V10.824H132.888L132.672 10.152ZM139.56 10.152H139.296L140.712 8.688L143.208 10.824C143.064 11.064 142.824 11.136 142.296 11.208C141.336 15.624 139.176 20.016 134.208 22.632L133.992 22.368C137.424 19.368 139.008 14.64 139.56 10.152ZM135.312 10.2C136.368 15.888 139.608 18.696 143.712 20.376L143.664 20.64C142.488 20.832 141.6 21.672 141.096 22.992C137.52 20.424 135.696 17.064 134.976 10.344L135.312 10.2ZM122.208 2.184V1.944V1.104L125.208 2.184H124.8V9.168C124.8 13.464 124.728 19.224 120.96 23.16L120.648 22.992C122.232 18.912 122.208 13.704 122.208 9.168V2.184ZM123.456 2.184H128.16V2.856H123.456V2.184ZM123.456 7.728H128.16V8.424H123.456V7.728ZM123.456 13.44H128.16V14.112H123.456V13.44ZM126.96 2.184H126.744L127.944 0.791998L130.488 2.808C130.344 2.976 130.056 3.144 129.624 3.24V19.896C129.624 21.768 129.24 22.8 126.384 23.04C126.336 22.2 126.24 21.528 125.976 21.168C125.688 20.76 125.256 20.448 124.32 20.28V19.944C124.32 19.944 126.096 20.064 126.504 20.064C126.888 20.064 126.96 19.896 126.96 19.608V2.184ZM139.296 2.184H139.056L140.4 0.912L142.824 2.88C142.656 3.048 142.392 3.216 141.936 3.264C141.864 6.168 141.672 7.488 140.784 8.088C140.16 8.52 139.344 8.688 138.096 8.688C138.096 7.968 138.024 7.512 137.664 7.152C137.304 6.792 136.56 6.528 135.72 6.36V6.048C136.512 6.096 137.904 6.192 138.288 6.192C138.648 6.192 138.792 6.144 138.912 6.048C139.176 5.784 139.248 4.512 139.296 2.184ZM153.168 14.424H164.136V15.096H153.384L153.168 14.424ZM163.128 14.424H162.888L164.256 13.128L166.68 15.12C166.488 15.312 166.224 15.456 165.72 15.528C165.48 19.512 164.952 21.576 163.848 22.392C163.128 22.896 162.24 23.136 160.992 23.136C160.992 22.392 160.92 21.744 160.56 21.384C160.2 21.024 159.456 20.736 158.544 20.544V20.208C159.384 20.28 160.824 20.352 161.304 20.352C161.688 20.352 161.88 20.328 162.048 20.184C162.576 19.752 162.936 17.76 163.128 14.424ZM162.192 3.984H165.408C163.728 8.76 159.528 11.736 153.264 13.2L153.12 12.888C158.064 10.944 161.184 7.872 162.192 3.984ZM157.32 0.647999L160.8 1.848C160.704 2.136 160.392 2.352 159.864 2.304C158.544 4.848 156.648 6.672 154.56 7.824L154.296 7.608C155.544 5.952 156.72 3.36 157.32 0.647999ZM157.392 3.984H163.248L164.736 1.992C164.736 1.992 166.368 3.336 167.352 4.272C167.28 4.536 167.04 4.656 166.68 4.656H157.392V3.984ZM157.728 11.52L161.376 11.832C161.328 12.168 161.112 12.408 160.56 12.48C160.056 16.608 158.976 21.024 151.728 23.16L151.512 22.824C156.816 20.304 157.584 15.792 157.728 11.52ZM157.152 4.464C159 7.8 162.144 9.528 167.64 10.104L167.616 10.392C166.872 10.8 166.464 11.76 166.344 13.104C160.56 11.616 158.568 8.904 156.888 4.872L157.152 4.464ZM148.584 8.664H151.368V9.048C150.24 12.888 147.936 16.128 144.792 18.552L144.504 18.264C146.472 15.696 147.864 12.024 148.584 8.664ZM147.168 4.536C153.816 5.016 152.28 9.816 149.76 8.448C149.28 7.152 147.984 5.616 146.976 4.704L147.168 4.536ZM152.04 2.256H151.752L153.264 0.791998L155.784 3.192C155.592 3.408 155.328 3.456 154.824 3.48C153.72 4.344 151.752 5.496 150.384 6.144L150.168 6C150.792 4.992 151.68 3.264 152.04 2.256ZM145.224 2.256H153.504V2.928H145.44L145.224 2.256ZM153.072 8.592H152.808L154.152 7.224L156.528 9.48C156.336 9.672 156.096 9.744 155.592 9.768C154.776 10.656 153.312 11.784 152.112 12.432L151.872 12.264C152.328 11.208 152.88 9.576 153.072 8.592ZM144.816 8.592H153.912V9.264H145.032L144.816 8.592ZM148.896 8.688H151.56V19.752C151.56 21.6 151.104 22.92 148.08 23.16C148.032 22.296 147.912 21.6 147.576 21.192C147.216 20.784 146.688 20.472 145.464 20.28V19.968C145.464 19.968 147.888 20.112 148.392 20.112C148.776 20.112 148.896 19.968 148.896 19.68V8.688ZM172.32 21.336C172.32 21.624 171.336 22.248 170.184 22.248H169.776V4.104L172.44 5.256H176.784V5.928H172.32V21.336ZM177 1.656C176.88 2.04 176.544 2.208 176.016 2.208C175.272 3.24 174.048 4.776 173.256 5.736H172.512C172.68 4.464 172.968 2.232 173.088 0.719999L177 1.656ZM187.248 5.184L188.76 3.6L191.328 5.856C191.136 6.096 190.824 6.24 190.272 6.336C190.104 16.008 189.768 20.4 188.448 21.816C187.608 22.728 186.552 23.112 184.968 23.112C184.968 22.176 184.824 21.504 184.44 21.12C184.008 20.664 183.072 20.28 181.92 20.064L181.944 19.728C183.072 19.824 184.728 19.944 185.328 19.944C185.76 19.944 186 19.848 186.24 19.632C187.128 18.792 187.392 13.776 187.536 5.184H187.248ZM175.752 5.256L177.024 3.816L179.616 5.856C179.472 6.072 179.112 6.264 178.632 6.384V20.664C178.608 20.856 177.336 21.432 176.4 21.432H175.992V5.256H175.752ZM180.768 10.08C187.728 12.12 185.136 17.328 182.592 15.168C182.472 13.464 181.512 11.52 180.552 10.224L180.768 10.08ZM189.048 5.184V5.856H181.68L181.968 5.184H189.048ZM185.736 1.8C185.64 2.088 185.328 2.28 184.8 2.28C183.384 5.904 181.392 8.904 178.992 10.92L178.704 10.728C180.024 8.256 181.32 4.344 181.968 0.696L185.736 1.8ZM177.24 11.904V12.576H171.12V11.904H177.24ZM177.24 18.888V19.584H171.12V18.888H177.24ZM202.44 0.959999C210.816 3.768 208.56 9.936 205.608 7.704C205.176 5.472 203.64 2.88 202.224 1.104L202.44 0.959999ZM202.368 5.352C202.344 5.664 202.128 5.928 201.528 6V18.432C201.528 19.008 201.816 19.2 202.896 19.2H205.824C206.904 19.2 207.768 19.176 208.248 19.128C208.632 19.104 208.872 19.008 209.04 18.744C209.376 18.216 209.808 16.824 210.36 14.976H210.624L210.696 18.888C211.56 19.224 211.824 19.56 211.824 20.112C211.824 21.456 210.576 22.056 205.584 22.056H202.488C199.632 22.056 198.72 21.552 198.72 19.248V4.992L202.368 5.352ZM209.976 8.376C218.736 13.632 214.776 20.208 212.496 17.208C212.352 14.856 211.704 11.16 209.76 8.568L209.976 8.376ZM195.984 7.848C197.76 12.216 197.088 15.24 195.96 16.848C195.192 18.024 193.824 18.192 193.104 17.424C192.504 16.752 192.696 15.864 193.296 15.192C194.52 14.064 195.72 11.112 195.672 7.872L195.984 7.848ZM14.184 44.808C24.744 46.488 23.736 52.776 20.52 51.384C19.224 49.176 16.296 46.56 13.992 45L14.184 44.808ZM0.912 39.144H18.216L19.968 36.936C19.968 36.936 21.912 38.424 23.112 39.432C23.04 39.696 22.776 39.816 22.416 39.816H1.104L0.912 39.144ZM10.488 43.728L11.256 42.744L14.112 43.8C14.04 44.016 13.824 44.184 13.368 44.256V58.488C13.344 58.632 12.072 59.136 11.04 59.136H10.488V43.728ZM11.832 39.288H15.864C13.104 44.616 7.368 49.44 0.816 52.104L0.672 51.864C5.664 48.696 10.224 43.656 11.832 39.288ZM34.248 54.144C35.544 56.112 37.44 56.424 40.824 56.424C42.312 56.424 45.912 56.424 47.496 56.376V56.688C46.728 56.856 46.368 57.744 46.368 58.728C45.144 58.728 42.072 58.728 40.776 58.728C37.128 58.728 35.16 57.816 33.984 54.264L34.248 54.144ZM35.808 43.92C35.304 45.12 34.08 47.688 33.384 48.984H33.576L32.808 49.728L30.96 48.36C31.272 48.144 31.872 47.88 32.304 47.808L31.536 48.504C32.256 47.232 33.504 44.472 33.984 43.128L35.808 43.92ZM33.672 43.152L34.656 42.12L36.72 43.944C36.336 44.352 35.208 44.424 34.248 44.28L33.96 43.152H33.672ZM34.008 48.36L35.232 47.136L37.32 48.96C37.152 49.176 36.936 49.248 36.408 49.296C35.544 52.824 33.648 56.568 30.096 59.016L29.856 58.704C32.304 56.016 33.768 51.936 34.248 48.36H34.008ZM35.088 43.152V43.824H31.416L31.2 43.152H35.088ZM35.52 48.36V49.056H32.544L32.832 48.36H35.52ZM32.688 37.104C37.464 39.216 35.04 42.816 33.312 41.016C33.408 39.744 32.952 38.232 32.4 37.224L32.688 37.104ZM39.072 48.312C44.04 47.304 43.872 50.4 42.288 50.112C41.736 49.704 40.44 49.056 39 48.696L39.072 48.312ZM44.4 46.488V47.184H38.664V46.488H44.4ZM37.776 46.248V45.504L40.392 46.488H40.008V49.032C40.008 51.024 39.672 53.856 36.48 55.584L36.264 55.32C37.704 53.448 37.776 51.096 37.776 49.032V46.248ZM38.928 51.384C40.128 51.312 42.288 50.928 44.232 50.496L44.304 50.832C43.392 51.408 42.12 52.152 40.44 52.92C40.344 53.232 40.128 53.4 39.888 53.472L38.928 51.384ZM43.32 46.488L44.352 45.312L46.752 47.088C46.608 47.28 46.224 47.472 45.744 47.568V53.544C45.744 54.888 45.432 55.608 43.152 55.8C43.104 55.272 43.056 54.84 42.84 54.6C42.624 54.384 42.312 54.168 41.544 54.048V53.712C41.544 53.712 42.792 53.808 43.176 53.808C43.488 53.808 43.56 53.664 43.56 53.4V46.488H43.32ZM43.032 41.928V45.024H40.8V41.928H43.032ZM42.192 37.512C42.12 37.8 41.832 38.016 41.304 38.04C40.2 41.112 38.544 43.56 36.504 45.144L36.168 44.904C37.44 42.888 38.544 39.816 39.024 36.672L42.192 37.512ZM45.144 43.248C45.144 43.248 46.32 44.16 47.04 44.856C46.992 45.12 46.752 45.24 46.416 45.24H37.56L37.368 44.568H44.112L45.144 43.248ZM43.992 40.392C43.992 40.392 45.144 41.28 45.864 41.952C45.816 42.216 45.576 42.336 45.24 42.336H39.312L39.12 41.64H42.96L43.992 40.392ZM45.096 37.896C45.096 37.896 46.44 38.928 47.256 39.672C47.184 39.936 46.944 40.056 46.608 40.056H36.024L35.832 39.36H43.944L45.096 37.896ZM31.008 38.352V39.024H26.88V38.352H31.008ZM25.656 37.368L28.2 38.376H27.888V58.44C27.888 58.608 27.168 59.184 26.04 59.184H25.656V37.368ZM29.376 38.352L30.672 37.128L33.024 39.336C32.832 39.552 32.52 39.624 31.968 39.648C31.272 41.112 29.952 43.776 28.944 45.264C31.08 46.992 31.968 49.152 31.968 51.12C31.968 53.496 31.224 54.72 28.896 54.768C28.896 54.096 28.8 53.28 28.608 52.992C28.44 52.752 28.104 52.584 27.648 52.488V52.152C28.008 52.152 28.608 52.152 28.872 52.152C29.088 52.152 29.208 52.128 29.352 52.032C29.616 51.816 29.784 51.36 29.784 50.544C29.784 48.792 29.424 46.992 28.344 45.336C28.776 43.584 29.424 40.176 29.664 38.352H29.376ZM55.32 53.136V53.808H50.832V53.136H55.32ZM55.392 46.248V46.944H50.88V46.248H55.392ZM55.392 39.456V40.152H50.904V39.456H55.392ZM54.216 39.456L55.464 38.088L57.984 40.08C57.84 40.272 57.48 40.464 57 40.56V54.96C56.976 55.152 55.752 55.704 54.864 55.704H54.456V39.456H54.216ZM49.536 38.184L52.368 39.456H52.056V56.04C52.056 56.208 51.264 56.832 49.968 56.832H49.536V38.184ZM58.656 49.776C65.28 51.36 62.568 56.184 60.12 54.12C60.024 52.656 59.232 51.024 58.44 49.92L58.656 49.776ZM68.592 46.032C68.544 46.392 68.304 46.584 67.752 46.656V55.824C67.752 57.768 67.344 58.848 64.128 59.136C64.056 58.248 63.936 57.624 63.528 57.192C63.144 56.76 62.592 56.448 61.368 56.256V55.92C61.368 55.92 64.008 56.088 64.536 56.088C64.896 56.088 65.016 55.968 65.016 55.656V45.696L68.592 46.032ZM65.856 37.128C65.832 37.464 65.64 37.704 64.992 37.8V45.048H62.256V36.816L65.856 37.128ZM69.384 46.704C69.384 46.704 70.824 47.952 71.664 48.84C71.616 49.104 71.352 49.224 71.016 49.224H57.312L57.12 48.528H68.136L69.384 46.704ZM67.68 42.744C67.68 42.744 69.36 44.112 70.368 45.024C70.296 45.288 70.032 45.408 69.696 45.408H58.464L58.272 44.736H66.192L67.68 42.744ZM68.424 38.4C68.424 38.4 70.032 39.672 70.968 40.584C70.896 40.848 70.656 40.968 70.32 40.968H57.744L57.552 40.272H67.008L68.424 38.4ZM75.096 38.184C82.8 40.872 80.136 46.8 77.328 44.4C77.16 42.312 76.032 39.984 74.856 38.328L75.096 38.184ZM72.696 46.128H90.744L92.376 44.088C92.376 44.088 94.2 45.456 95.28 46.416C95.232 46.68 94.968 46.8 94.608 46.8H72.888L72.696 46.128ZM82.464 36.624L86.256 36.96C86.208 37.296 86.016 37.536 85.368 37.632V46.32H82.464V36.624ZM90.048 37.968L93.912 39.672C93.792 39.96 93.456 40.152 92.904 40.056C91.224 42 89.208 43.824 87.36 45.072L87.096 44.88C87.984 43.224 89.184 40.416 90.048 37.968ZM84.984 46.344H87.864C87.864 46.632 87.864 46.968 87.864 47.184V55.224C87.864 55.632 87.984 55.776 88.704 55.776H90.672C91.392 55.776 91.992 55.752 92.328 55.728C92.64 55.704 92.76 55.632 92.904 55.368C93.216 54.864 93.6 53.424 94.104 51.72H94.368L94.44 55.536C95.208 55.848 95.376 56.184 95.376 56.76C95.376 57.912 94.368 58.488 90.384 58.488H88.032C85.56 58.488 84.984 57.96 84.984 55.968V46.344ZM79.272 46.296H82.512C82.104 52.608 80.088 57.024 72.744 59.136L72.624 58.848C77.976 55.944 79.152 51.744 79.272 46.296ZM114.504 51.264C111.816 56.328 105.192 58.44 96.84 59.184L96.744 58.872C103.752 57.576 109.08 55.2 110.88 51.264H114.504ZM115.8 49.248C115.8 49.248 117.456 50.472 118.464 51.336C118.416 51.6 118.152 51.72 117.816 51.72H103.104V51.048H114.36L115.8 49.248ZM103.2 51.12C105.96 54.888 111.072 56.352 119.448 56.448L119.424 56.736C118.416 57.072 117.864 57.816 117.72 58.968C109.512 58.224 105.84 56.112 102.936 51.48L103.2 51.12ZM107.184 49.776C107.088 50.016 106.872 50.112 106.224 50.016C104.208 52.44 100.824 54.744 97.272 55.824L97.104 55.56C99.696 54.024 102.264 51.216 103.464 48.576L107.184 49.776ZM119.376 40.512C119.208 40.752 118.728 40.92 118.008 40.512L118.728 40.416C117.456 41.688 114.696 43.632 112.464 44.664L112.44 44.4H113.28C113.184 45.408 112.8 45.936 112.416 46.08L111.552 44.088C111.552 44.088 111.936 44.016 112.152 43.896C113.904 42.936 116.208 40.248 117.048 38.832L119.376 40.512ZM117.576 37.968C117.432 38.232 116.976 38.448 116.208 38.088L116.952 37.992C115.944 39.024 114 40.44 112.44 41.184V40.896H113.304C113.208 41.952 112.848 42.456 112.44 42.648L111.552 40.584C111.552 40.584 111.888 40.512 112.08 40.416C113.184 39.72 114.552 37.584 115.008 36.528L117.576 37.968ZM113.112 46.032C114.768 50.904 109.896 49.944 111.624 47.784C112.2 47.52 112.632 46.848 112.752 46.032H113.112ZM114.528 45.72C117.888 47.808 115.8 50.328 114.576 48.888C114.696 47.856 114.504 46.608 114.24 45.816L114.528 45.72ZM111.936 44.088C113.04 44.088 115.536 44.016 117.96 43.896L117.984 44.256C116.928 44.616 114.744 45.288 112.56 45.84L111.936 44.088ZM111.984 40.776C112.848 40.776 114.744 40.728 116.496 40.632L116.544 41.016C115.848 41.28 114.168 41.928 112.656 42.408L111.984 40.776ZM116.568 45.432C120.72 47.184 119.088 50.112 117.624 48.888C117.504 47.808 116.856 46.416 116.28 45.576L116.568 45.432ZM116.52 42.288C120.696 43.8 119.04 46.728 117.576 45.504C117.432 44.496 116.784 43.2 116.232 42.432L116.52 42.288ZM104.568 40.704C104.4 40.944 103.92 41.112 103.2 40.704L103.92 40.608C102.696 41.856 99.984 43.776 97.776 44.784L97.752 44.52H98.592C98.52 45.552 98.136 46.08 97.752 46.224L96.864 44.232C96.864 44.232 97.272 44.136 97.464 44.04C99.192 43.08 101.424 40.416 102.24 39L104.568 40.704ZM103.008 37.968C102.864 38.232 102.408 38.424 101.64 38.088L102.36 37.992C101.4 39 99.48 40.392 97.944 41.088V40.8H98.832C98.736 41.88 98.352 42.384 97.968 42.552L97.08 40.488C97.08 40.488 97.392 40.416 97.584 40.32C98.64 39.648 99.912 37.512 100.344 36.48L103.008 37.968ZM98.736 46.224C100.368 51.6 95.232 50.664 96.984 48.456C97.656 48.072 98.256 47.256 98.4 46.2L98.736 46.224ZM100.104 45.912C103.32 48.288 101.088 50.808 99.912 49.248C100.104 48.192 100.008 46.872 99.792 45.984L100.104 45.912ZM97.176 44.184C98.256 44.184 100.608 44.088 102.96 43.968V44.352C101.976 44.688 99.888 45.384 97.824 45.984L97.176 44.184ZM97.392 40.656C98.256 40.68 100.128 40.656 101.856 40.608L101.904 40.992C101.208 41.28 99.552 41.88 98.064 42.36L97.392 40.656ZM106.32 36.408C110.88 36.888 108.96 40.176 107.208 38.856C107.136 38.04 106.608 37.08 106.08 36.552L106.32 36.408ZM102.024 45.672C105.768 47.328 103.968 49.992 102.6 48.696C102.6 47.76 102.144 46.536 101.736 45.792L102.024 45.672ZM102 42.264C105.984 44.04 104.04 46.872 102.624 45.48C102.6 44.472 102.168 43.2 101.736 42.384L102 42.264ZM108.888 44.688L109.728 43.848L111.456 45.144C111.384 45.264 111.168 45.384 110.928 45.432V48.504C110.904 48.672 109.944 49.056 109.344 49.056H109.032V44.688H108.888ZM105 43.752L107.304 44.688H106.992V48.696C106.992 48.864 106.344 49.32 105.336 49.32H105V43.752ZM110.52 37.848C110.52 37.848 111.552 38.664 112.2 39.288C112.128 39.552 111.912 39.672 111.6 39.672H104.256L104.064 38.976H109.608L110.52 37.848ZM109.56 41.736C109.56 41.736 110.52 42.456 111.12 43.032C111.072 43.296 110.856 43.416 110.544 43.416H105.312L105.12 42.744H108.744L109.56 41.736ZM109.56 39.888C109.56 39.888 110.52 40.608 111.12 41.184C111.072 41.448 110.856 41.568 110.544 41.568H105.312L105.12 40.872H108.744L109.56 39.888ZM109.8 47.424V48.096H105.744V47.424H109.8ZM109.704 44.688V45.36H105.648V44.688H109.704ZM125.352 52.824C126.936 55.8 129.288 56.184 133.872 56.184C135.984 56.184 141.24 56.184 143.448 56.136V56.424C142.536 56.616 142.104 57.528 142.08 58.536C140.28 58.536 135.72 58.536 133.824 58.536C128.976 58.536 126.552 57.456 125.112 52.968L125.352 52.824ZM126.576 43.92C125.952 45.12 124.44 47.688 123.648 48.96H123.816L122.976 49.728L120.912 48.264C121.248 48 121.896 47.736 122.352 47.664L121.464 48.36C122.352 47.088 123.864 44.352 124.44 43.032L126.576 43.92ZM124.536 43.032L125.64 41.904L127.872 43.92C127.464 44.328 126.192 44.376 125.112 44.208L124.848 43.032H124.536ZM124.776 48.408L126.072 47.088L128.352 49.008C128.184 49.248 127.968 49.32 127.44 49.368C126.504 52.968 124.464 56.76 120.744 59.184L120.504 58.92C123.024 56.208 124.512 52.032 125.016 48.408H124.776ZM125.544 43.032V43.704H121.248L121.032 43.032H125.544ZM126.072 48.384V49.056H122.712L122.976 48.384H126.072ZM122.136 36.648C128.496 37.848 126.24 42.6 123.84 40.8C123.696 39.408 122.784 37.8 121.92 36.792L122.136 36.648ZM136.896 48.6L137.928 47.592L139.944 49.176C139.8 49.344 139.536 49.464 139.104 49.536C139.056 51.072 138.912 51.744 138.264 52.152C137.76 52.464 137.112 52.536 136.2 52.56C136.2 52.056 136.152 51.768 135.864 51.504C135.576 51.264 135.024 51.096 134.4 50.976L134.424 50.616C135.024 50.664 136.056 50.736 136.416 50.736C136.704 50.736 136.824 50.712 136.92 50.616C137.064 50.448 137.112 49.824 137.136 48.6H136.896ZM137.016 46.656C144.096 47.568 143.568 51.648 141.384 50.88C140.472 49.584 138.336 47.856 136.824 46.896L137.016 46.656ZM136.08 45.24C135.96 45.504 135.792 45.6 135.168 45.552C133.536 48.096 130.632 50.472 127.272 51.624L127.08 51.384C129.576 49.872 131.76 47.088 132.744 44.4L136.08 45.24ZM130.464 48.576L131.328 47.808L133.32 48.6H133.008V52.944C133.008 53.256 133.104 53.352 133.968 53.352H136.68C137.64 53.352 138.576 53.352 138.96 53.328C139.272 53.304 139.488 53.256 139.632 53.112C139.872 52.848 140.208 52.176 140.568 51.312H140.832L140.928 53.112C141.672 53.376 141.888 53.616 141.888 54.024C141.888 55.104 140.856 55.272 136.416 55.272H133.512C130.992 55.272 130.464 54.84 130.464 53.256V48.576ZM137.928 48.6V49.272H131.088L130.872 48.6H137.928ZM137.736 38.616V44.304H135.72V38.616H137.736ZM134.496 38.592V44.28H132.504V38.592H134.496ZM140.592 44.832C140.592 44.832 141.912 45.84 142.752 46.56C142.68 46.824 142.464 46.944 142.128 46.944H128.256L128.064 46.272H139.392L140.592 44.832ZM140.328 36.528C140.328 36.528 141.84 37.68 142.752 38.52C142.68 38.784 142.44 38.904 142.104 38.904H127.968L127.776 38.208H139.008L140.328 36.528ZM131.184 44.928C131.184 45.12 130.128 45.624 129.168 45.624H128.832V39.816L131.352 40.824H140.424V41.496H131.184V44.928ZM138.864 40.824L139.992 39.672L142.296 41.4C142.152 41.544 141.888 41.712 141.48 41.784V44.592C141.48 44.784 140.304 45.288 139.488 45.288H139.08V40.824H138.864ZM140.208 44.016V44.688H130.056V44.016H140.208ZM149.136 58.128C149.136 58.44 148.008 59.088 146.856 59.088H146.424V42.648L149.376 43.848H164.736V44.544H149.136V58.128ZM162.288 43.848L163.536 42.408L166.272 44.496C166.128 44.688 165.768 44.904 165.288 44.976V55.776C165.288 57.72 164.904 58.848 162.072 59.112C162.024 58.176 161.952 57.48 161.712 57.024C161.472 56.592 161.088 56.256 160.248 56.112V55.776C160.248 55.776 161.664 55.872 162.096 55.872C162.432 55.872 162.528 55.728 162.528 55.44V43.848H162.288ZM159.72 57.528C159.72 57.672 158.928 58.2 157.584 58.2H157.104V43.896H159.72V57.528ZM154.392 57.888C154.368 58.056 153.6 58.56 152.256 58.56H151.8V43.848H154.392V57.888ZM164.088 37.248C164.088 37.248 166.008 38.64 167.16 39.648C167.112 39.912 166.848 40.032 166.488 40.032H144.984L144.768 39.36H162.408L164.088 37.248ZM157.896 39.432C156.744 41.112 155.112 43.176 153.792 44.328H153.36C153.552 43.128 153.792 40.92 153.912 39.432H157.896ZM169.704 44.184L172.752 45.6H172.416V47.04C172.416 47.04 171.576 47.04 169.704 47.04V44.184ZM169.464 54.72C171.048 54.312 175.032 53.016 178.944 51.648L179.016 51.912C177.456 53.136 174.528 55.344 170.76 57.648L169.464 54.72ZM171.768 46.296L172.416 46.704V55.008L170.136 55.896L171.48 54.888C171.864 56.784 171.024 57.816 170.352 58.152L168.792 54.792C169.56 54.384 169.704 54.144 169.704 53.64V46.296H171.768ZM188.88 40.608C188.88 40.608 190.56 41.952 191.568 42.864C191.496 43.128 191.256 43.248 190.896 43.248H181.44V42.552H187.416L188.88 40.608ZM185.328 37.56C185.232 37.872 184.944 38.088 184.392 38.112C182.832 43.344 180.456 47.16 177.144 49.728L176.856 49.512C178.872 46.344 180.624 41.52 181.32 36.576L185.328 37.56ZM189.456 42.552C188.352 50.64 184.704 56.568 174.576 59.136L174.432 58.872C182.592 55.416 185.664 49.728 186.288 42.552H189.456ZM181.008 43.728C182.112 50.064 185.112 54.072 191.28 56.016L191.208 56.28C189.888 56.616 189.168 57.456 188.856 58.824C183.48 56.232 181.608 51.168 180.72 44.232L181.008 43.728ZM174.864 39.192L176.136 37.848L178.728 39.816C178.608 39.984 178.296 40.176 177.84 40.272V46.896C177.816 47.088 176.496 47.688 175.56 47.688H175.104V39.192H174.864ZM176.4 45.6V46.296H170.832V45.6H176.4ZM176.592 39.192V39.864H169.128L168.912 39.192H176.592ZM210.504 51.264C207.816 56.328 201.192 58.44 192.84 59.184L192.744 58.872C199.752 57.576 205.08 55.2 206.88 51.264H210.504ZM211.8 49.248C211.8 49.248 213.456 50.472 214.464 51.336C214.416 51.6 214.152 51.72 213.816 51.72H199.104V51.048H210.36L211.8 49.248ZM199.2 51.12C201.96 54.888 207.072 56.352 215.448 56.448L215.424 56.736C214.416 57.072 213.864 57.816 213.72 58.968C205.512 58.224 201.84 56.112 198.936 51.48L199.2 51.12ZM203.184 49.776C203.088 50.016 202.872 50.112 202.224 50.016C200.208 52.44 196.824 54.744 193.272 55.824L193.104 55.56C195.696 54.024 198.264 51.216 199.464 48.576L203.184 49.776ZM215.376 40.512C215.208 40.752 214.728 40.92 214.008 40.512L214.728 40.416C213.456 41.688 210.696 43.632 208.464 44.664L208.44 44.4H209.28C209.184 45.408 208.8 45.936 208.416 46.08L207.552 44.088C207.552 44.088 207.936 44.016 208.152 43.896C209.904 42.936 212.208 40.248 213.048 38.832L215.376 40.512ZM213.576 37.968C213.432 38.232 212.976 38.448 212.208 38.088L212.952 37.992C211.944 39.024 210 40.44 208.44 41.184V40.896H209.304C209.208 41.952 208.848 42.456 208.44 42.648L207.552 40.584C207.552 40.584 207.888 40.512 208.08 40.416C209.184 39.72 210.552 37.584 211.008 36.528L213.576 37.968ZM209.112 46.032C210.768 50.904 205.896 49.944 207.624 47.784C208.2 47.52 208.632 46.848 208.752 46.032H209.112ZM210.528 45.72C213.888 47.808 211.8 50.328 210.576 48.888C210.696 47.856 210.504 46.608 210.24 45.816L210.528 45.72ZM207.936 44.088C209.04 44.088 211.536 44.016 213.96 43.896L213.984 44.256C212.928 44.616 210.744 45.288 208.56 45.84L207.936 44.088ZM207.984 40.776C208.848 40.776 210.744 40.728 212.496 40.632L212.544 41.016C211.848 41.28 210.168 41.928 208.656 42.408L207.984 40.776ZM212.568 45.432C216.72 47.184 215.088 50.112 213.624 48.888C213.504 47.808 212.856 46.416 212.28 45.576L212.568 45.432ZM212.52 42.288C216.696 43.8 215.04 46.728 213.576 45.504C213.432 44.496 212.784 43.2 212.232 42.432L212.52 42.288ZM200.568 40.704C200.4 40.944 199.92 41.112 199.2 40.704L199.92 40.608C198.696 41.856 195.984 43.776 193.776 44.784L193.752 44.52H194.592C194.52 45.552 194.136 46.08 193.752 46.224L192.864 44.232C192.864 44.232 193.272 44.136 193.464 44.04C195.192 43.08 197.424 40.416 198.24 39L200.568 40.704ZM199.008 37.968C198.864 38.232 198.408 38.424 197.64 38.088L198.36 37.992C197.4 39 195.48 40.392 193.944 41.088V40.8H194.832C194.736 41.88 194.352 42.384 193.968 42.552L193.08 40.488C193.08 40.488 193.392 40.416 193.584 40.32C194.64 39.648 195.912 37.512 196.344 36.48L199.008 37.968ZM194.736 46.224C196.368 51.6 191.232 50.664 192.984 48.456C193.656 48.072 194.256 47.256 194.4 46.2L194.736 46.224ZM196.104 45.912C199.32 48.288 197.088 50.808 195.912 49.248C196.104 48.192 196.008 46.872 195.792 45.984L196.104 45.912ZM193.176 44.184C194.256 44.184 196.608 44.088 198.96 43.968V44.352C197.976 44.688 195.888 45.384 193.824 45.984L193.176 44.184ZM193.392 40.656C194.256 40.68 196.128 40.656 197.856 40.608L197.904 40.992C197.208 41.28 195.552 41.88 194.064 42.36L193.392 40.656ZM202.32 36.408C206.88 36.888 204.96 40.176 203.208 38.856C203.136 38.04 202.608 37.08 202.08 36.552L202.32 36.408ZM198.024 45.672C201.768 47.328 199.968 49.992 198.6 48.696C198.6 47.76 198.144 46.536 197.736 45.792L198.024 45.672ZM198 42.264C201.984 44.04 200.04 46.872 198.624 45.48C198.6 44.472 198.168 43.2 197.736 42.384L198 42.264ZM204.888 44.688L205.728 43.848L207.456 45.144C207.384 45.264 207.168 45.384 206.928 45.432V48.504C206.904 48.672 205.944 49.056 205.344 49.056H205.032V44.688H204.888ZM201 43.752L203.304 44.688H202.992V48.696C202.992 48.864 202.344 49.32 201.336 49.32H201V43.752ZM206.52 37.848C206.52 37.848 207.552 38.664 208.2 39.288C208.128 39.552 207.912 39.672 207.6 39.672H200.256L200.064 38.976H205.608L206.52 37.848ZM205.56 41.736C205.56 41.736 206.52 42.456 207.12 43.032C207.072 43.296 206.856 43.416 206.544 43.416H201.312L201.12 42.744H204.744L205.56 41.736ZM205.56 39.888C205.56 39.888 206.52 40.608 207.12 41.184C207.072 41.448 206.856 41.568 206.544 41.568H201.312L201.12 40.872H204.744L205.56 39.888ZM205.8 47.424V48.096H201.744V47.424H205.8ZM205.704 44.688V45.36H201.648V44.688H205.704Z" fill="black"/>
</svg>
