<svg width="278" height="75" viewBox="0 0 278 75" fill="none" xmlns="http://www.w3.org/2000/svg">
<path d="M99.4859 25.4838C99.2561 24.8006 99.2241 24.4367 99.3901 24.392C100.22 24.4367 101.018 24.6921 101.785 25.171C102.927 26.001 103.164 27.0099 102.5 28.1911C102.353 28.421 102.532 28.5359 103.03 28.5359H106.203C106.701 28.5359 107.052 28.223 107.263 27.6037C107.429 26.9588 107.55 26.3139 107.633 25.6754C107.672 24.9922 108.016 24.6921 108.661 24.7751C109.364 24.922 110.072 25.0944 110.775 25.3051C111.394 25.6371 111.72 25.8542 111.739 25.9563C111.758 26.2692 111.586 26.4544 111.209 26.5182C110.96 26.6012 110.755 26.7161 110.589 26.863C110.257 27.2142 109.913 27.527 109.561 27.7952C109 28.2102 108.751 28.4401 108.814 28.4784C109.977 28.5423 111.171 28.5614 112.396 28.5423C112.914 28.5423 113.412 28.2422 113.891 27.642L114.574 26.7736C115.155 26.1734 115.538 25.8797 115.723 25.9053C116.591 26.4033 117.421 27.0673 118.213 27.8974C118.813 28.6444 119.082 29.0722 119.024 29.1744C118.922 29.2957 118.545 29.3595 117.907 29.3595H93.235L92.2389 29.5447C91.5749 29.6469 91.1726 29.4936 91.0258 29.0786C90.9045 28.5614 91.2109 28.3316 91.958 28.3954C92.3283 28.4146 92.737 28.4656 93.1711 28.5487H99.4859C99.984 28.5487 100.163 28.4465 100.016 28.2358C99.7222 27.8846 99.6009 27.444 99.6455 26.9269C99.7094 26.4097 99.6583 25.9308 99.4923 25.4966L99.4859 25.4838ZM103.285 1.64855C103.285 0.984503 103.572 0.665252 104.153 0.684407C104.881 0.703562 105.647 0.818492 106.458 1.0292C106.937 1.09305 107.244 1.27821 107.391 1.59108C107.391 1.8401 107.225 2.01888 106.893 2.12104C106.644 2.2232 106.522 2.52329 106.522 3.02133V11.954C106.522 12.4712 106.771 12.7329 107.269 12.7329H113.616C114.133 12.7329 114.395 12.4839 114.395 11.9859V11.2069C114.395 10.6897 114.146 10.428 113.648 10.428H112.307C111.79 10.428 111.528 10.562 111.528 10.8302C111.547 11.7624 110.985 12.1711 109.849 12.0434C109.166 11.922 108.866 11.5453 108.949 10.926C108.949 10.6961 108.687 10.594 108.17 10.6131C107.627 10.677 107.288 10.511 107.142 10.1151C107.059 9.68091 107.059 9.43827 107.142 9.39996L108.201 9.46381C108.7 9.50851 108.949 9.22757 108.949 8.62099C108.949 8.01441 108.731 7.72709 108.297 7.75263C107.755 7.81648 107.429 7.65047 107.301 7.2546C107.218 6.77572 107.454 6.55863 108.016 6.60332C108.642 6.66717 108.949 6.399 108.949 5.79243C108.949 5.18585 108.7 4.8666 108.201 4.89214C107.703 4.95599 107.391 4.77721 107.269 4.36218C107.205 3.928 107.454 3.71729 108.016 3.74283C108.642 3.80668 108.949 3.59598 108.949 3.1171V2.27428C108.949 1.61024 109.268 1.29737 109.913 1.34206C110.558 1.42507 111.228 1.54 111.937 1.68686C112.371 1.91672 112.365 2.18489 111.905 2.49775C111.656 2.79146 111.534 3.09156 111.534 3.39804C111.534 3.76837 111.771 3.69814 112.25 3.18095C112.703 2.66376 112.984 2.39559 113.092 2.37005C113.195 2.41475 113.456 2.63822 113.871 3.05325C114.223 3.53213 114.401 3.45551 114.401 2.83616V1.99334C114.401 1.32929 114.721 1.0292 115.365 1.09305C116.732 1.2399 117.702 1.46338 118.258 1.77625C118.322 1.87841 118.245 2.0955 118.041 2.42752C117.709 2.84255 117.543 3.27034 117.543 3.70452V12.4201C117.792 13.48 117.377 14.1249 116.298 14.3484C115.698 14.4505 115.104 14.2781 114.523 13.8184C114.395 13.6332 114.108 13.5375 113.654 13.5375H96.2232C95.7251 13.5375 95.457 13.6396 95.4123 13.8503C95.1824 14.6421 94.5439 14.9677 93.484 14.8464C92.4496 14.7251 92.0346 14.1504 92.2389 13.1352V1.98695C92.2389 1.32291 92.5582 1.02281 93.2031 1.08666C94.5695 1.23352 95.54 1.45699 96.0955 1.76986C96.1593 1.87202 96.0763 2.08911 95.8465 2.42113C95.5336 2.83616 95.3804 3.26396 95.3804 3.69814V11.9476C95.3804 12.4648 95.6294 12.7266 96.1274 12.7266H102.506C103.023 12.7266 103.285 12.4775 103.285 11.9795V11.2005C103.285 10.7664 103.017 10.5493 102.474 10.5493H101.101C100.603 10.5493 100.342 10.7153 100.322 11.0473C100.137 12.0434 99.3774 12.3052 98.0493 11.8263C97.8194 11.6603 97.7173 11.3793 97.7364 10.9835C97.7364 10.7791 97.4683 10.6961 96.9255 10.7344C96.4083 10.7983 96.0763 10.6195 95.9295 10.2045C95.8273 9.7703 96.0827 9.55959 96.7084 9.58513L96.9894 9.61705C97.4874 9.63621 97.7364 9.34888 97.7364 8.74869C97.7364 8.1485 97.4683 7.85479 96.9255 7.88033C96.3828 7.94418 96.0572 7.7654 95.9295 7.35037C95.8465 6.93535 96.1274 6.73102 96.7723 6.73102C97.4172 6.77572 97.7364 6.51393 97.7364 5.95205C97.7364 5.39017 97.4683 5.122 96.9255 5.14115C96.3828 5.205 96.0572 5.02622 95.9295 4.6112C95.8465 4.19617 95.8465 3.96631 95.9295 3.928C96.2806 3.928 96.6318 3.95992 96.9894 4.02377C97.4874 4.04293 97.7364 3.80668 97.7364 3.30865V2.28066C97.7364 1.61662 98.0557 1.30375 98.7006 1.34845C98.9687 1.3676 99.2688 1.41868 99.6009 1.50169C100.386 1.62939 100.833 1.75071 100.942 1.87202C101.006 2.01888 100.923 2.2232 100.693 2.49775C100.444 2.79146 100.322 3.12987 100.322 3.52574C100.322 3.92161 100.571 3.87692 101.069 3.40443C101.548 2.88724 101.848 2.63822 101.97 2.65738C102.117 2.74038 102.314 2.97025 102.564 3.34058C103.042 4.04293 103.279 4.13232 103.279 3.58959V1.64855H103.285ZM113.15 14.3164C113.354 13.8184 113.699 13.7035 114.178 13.9716C115.295 14.5718 116.374 15.421 117.415 16.5257C117.453 16.896 117.083 17.0237 116.298 16.896H94.4162L93.4521 17.0173C92.8072 17.062 92.4241 16.8704 92.3028 16.4554C92.1751 16.0212 92.4496 15.8361 93.1137 15.8935C93.5095 15.9127 93.931 15.9638 94.3907 16.0468H111.228C111.828 16.2128 112.237 16.0468 112.441 15.5487C112.645 15.1337 112.888 14.7187 113.156 14.3037L113.15 14.3164ZM95.5974 19.0414C95.5974 18.3773 95.9103 18.1155 96.5297 18.2624C97.066 18.4284 97.6087 18.6327 98.1451 18.8881C98.3494 19.0094 98.707 19.0733 99.205 19.0733H110.443C110.941 19.0733 111.356 18.869 111.688 18.4539C112.039 18.1028 112.55 18.0517 113.214 18.3007C113.878 18.5944 114.593 19.003 115.359 19.5458C115.876 19.9991 115.704 20.4141 114.829 20.7908C114.746 20.9377 114.708 21.257 114.708 21.755C114.727 22.5659 114.708 23.4023 114.644 24.2771C114.063 24.9794 113.246 25.2284 112.186 25.0241C111.79 24.8773 111.573 24.6219 111.534 24.2451C111.49 24.0791 111.241 23.9961 110.787 23.9961H99.5498C99.0517 23.9961 98.7516 24.1494 98.6495 24.4622C98.0876 25.2093 97.2512 25.4711 96.1274 25.2412C95.6485 25.0944 95.4761 24.6282 95.5974 23.8429V19.0477V19.0414ZM99.7094 19.8842C99.0901 19.9672 98.7772 20.2545 98.7772 20.7525V22.3999C98.7772 22.9171 99.0262 23.1788 99.5242 23.1788H110.762C111.279 23.1788 111.541 22.9298 111.541 22.4318V20.7206C111.541 20.1587 111.273 19.8778 110.73 19.8778H99.7094V19.8842ZM103.285 5.56895C103.285 5.00707 103.234 4.78359 103.132 4.88575C102.468 4.9496 101.791 4.96876 101.108 4.9496C100.591 4.9496 100.329 5.26247 100.329 5.88182C100.329 6.50116 100.38 6.8268 100.482 6.84595C100.603 6.84595 100.916 6.57778 101.414 6.03506C101.893 5.51787 102.34 5.45402 102.755 5.84989C103.106 6.34792 103.285 6.25215 103.285 5.56895ZM103.285 8.55714C103.285 7.9761 103.049 7.68878 102.57 7.68878H101.108C100.591 7.68878 100.329 8.0208 100.329 8.68484C100.329 9.34888 100.367 9.70006 100.45 9.74476C100.552 9.7256 100.833 9.44466 101.293 8.90193C101.772 7.88671 102.327 7.98887 102.972 9.2148C103.055 9.4255 103.138 9.50851 103.221 9.46381C103.259 9.38081 103.285 9.08071 103.285 8.56353V8.55714ZM114.395 5.31993C114.395 4.90491 114.127 4.6942 113.584 4.6942H112.307C111.79 4.6942 111.528 5.01345 111.528 5.65834C111.528 6.36069 111.745 6.46924 112.179 5.97121C112.633 5.47317 112.914 5.22416 113.022 5.22416C113.143 5.30716 113.373 5.55618 113.705 5.97121C114.159 6.63525 114.389 6.6991 114.389 6.15637V5.31355L114.395 5.31993ZM114.395 8.24428C114.395 7.64408 114.35 7.3823 114.274 7.4653C114.171 7.52915 113.808 7.56108 113.182 7.56108H112.313C111.796 7.56108 111.534 7.81009 111.534 8.30813V8.90193C111.534 9.50212 111.822 9.49574 112.403 8.87001C112.901 8.30813 113.188 8.03995 113.271 8.05911C113.705 8.37198 114.031 8.72315 114.235 9.11902C114.337 9.13818 114.389 8.85085 114.389 8.24428H114.395Z" fill="black"/>
<path d="M134.318 0.901763C134.318 0.282416 134.631 -0.0240655 135.25 0.00147456C136.495 0.0844799 137.574 0.295186 138.488 0.627207C138.883 0.978383 138.775 1.30402 138.175 1.59135C137.926 1.69351 137.804 2.00637 137.804 2.52356V3.42385C137.804 3.94103 138.053 4.20282 138.551 4.20282H144.496C145.077 4.33052 145.53 4.1709 145.869 3.73671C146.571 2.84281 147.318 2.74065 148.11 3.42385C149.502 4.19005 150.402 4.87325 150.817 5.47983C150.919 5.79269 150.747 5.97786 150.287 6.04171C149.77 6.02255 149.246 6.2588 148.729 6.75683C147.363 7.75289 146.118 8.53825 144.994 9.11929C144.624 9.30445 144.426 9.25338 144.4 8.96605C144.419 8.76173 144.579 8.39778 144.866 7.87421C145.179 7.19101 145.447 6.49504 145.677 5.78631C145.798 5.28828 145.613 5.03926 145.115 5.03926L126.535 5.07118C125.915 5.11588 125.539 5.44152 125.417 6.06725C125.207 7.16547 124.932 7.98914 124.575 8.52548C123.642 9.60455 122.634 9.77056 121.554 9.02351C120.89 8.44248 120.858 7.61242 121.459 6.53335C121.81 6.05448 122.206 5.748 122.64 5.60114C123.84 4.62423 124.6 3.45577 124.913 2.08299C125.015 2.04468 125.111 2.06384 125.194 2.14684C125.341 2.56187 125.43 2.9769 125.475 3.39192C125.539 3.88995 125.89 4.15813 126.535 4.20282H133.539C134.056 4.20282 134.318 3.9538 134.318 3.45577V0.901763ZM130.487 6.53335C130.717 5.831 131.119 5.52452 131.7 5.63307C132.403 5.76077 133.143 5.96509 133.909 6.2588C134.407 6.38011 134.695 6.62913 134.778 7.00585C134.657 7.29956 134.484 7.42087 134.28 7.37618C134.069 7.42087 133.801 7.65712 133.469 8.0913C133.201 8.57018 133.316 8.80642 133.814 8.80642H137.894C138.596 8.99159 139.235 8.64041 139.79 7.74651C140.077 7.4528 140.326 7.34425 140.537 7.40172C141.718 8.11046 142.663 8.99159 143.372 10.0451C143.391 10.524 143.123 10.7602 142.561 10.7602C142.127 10.7602 141.782 11.054 141.533 11.6286C140.85 12.7907 140.09 13.8251 139.26 14.7381C138.717 15.3638 138.749 15.8172 139.356 16.1045C142.74 17.3496 146.379 17.9817 150.281 18.0009C150.402 18.103 150.466 18.1988 150.466 18.2818C150.402 18.384 150.064 18.601 149.438 18.9331C148.793 19.4119 148.359 19.8972 148.129 20.3952C147.88 21.0784 147.727 21.4552 147.663 21.5126C147.414 21.5956 146.96 21.5637 146.296 21.4168L145.862 21.353C145.262 21.27 145.051 21.3658 145.236 21.6339C145.549 21.9468 145.486 22.2597 145.051 22.5661C144.534 22.7513 144.349 23.16 144.489 23.7793V27.9806C144.777 29.1427 144.24 29.8068 142.874 29.9728C141.897 30.2409 141.31 29.9409 141.099 29.0725C141.08 28.5553 140.818 28.2935 140.32 28.2935H132.479C131.981 28.2935 131.719 28.4084 131.7 28.6383C131.617 29.6727 130.908 30.2154 129.587 30.2537C128.469 30.3176 128.022 29.7685 128.246 28.6064V21.9149C128.246 21.4168 127.933 21.187 127.314 21.2317C124.428 21.6467 122.416 21.8127 121.273 21.7297C121.171 21.6467 121.127 21.5509 121.152 21.4488C124.243 20.8677 127.001 20.0058 129.434 18.8628C131.094 18.0136 132.339 17.2474 133.169 16.5578C133.833 15.996 133.903 15.4277 133.386 14.8467C132.428 13.6207 131.77 12.6502 131.394 11.9223C131.145 11.4051 130.711 11.4115 130.085 11.9542C128.469 13.2823 126.892 14.2465 125.354 14.8467C124.523 15.1148 124.128 15.1659 124.172 14.9999C127.595 12.1969 129.702 9.36831 130.487 6.50143V6.53335ZM137.274 18.2052C136.591 17.7518 135.946 17.7199 135.346 18.1094C134.184 18.8565 132.869 19.5333 131.394 20.1335C130.877 20.3442 130.794 20.5293 131.145 20.6953C131.541 20.9252 131.988 21.0401 132.486 21.0401H139.892C140.39 21.0401 140.773 20.906 141.042 20.6379C141.271 20.3505 141.054 20.0568 140.39 19.7695C139.56 19.4183 138.73 19.0097 137.9 18.5564L137.281 18.2116L137.274 18.2052ZM141.067 22.6875C141.067 22.1256 140.799 21.8446 140.256 21.8446H132.505C131.962 21.8446 131.694 22.1064 131.694 22.6236V26.7036C131.694 27.2208 131.943 27.4826 132.441 27.4826H140.282C140.799 27.4826 141.061 27.2336 141.061 26.7356V22.6875H141.067ZM132.824 9.64925C132.511 9.73225 132.243 9.87911 132.013 10.0834C131.783 10.3324 131.911 10.7602 132.383 11.3604C133.194 12.2735 133.999 13.0205 134.81 13.6016C135.372 14.0166 135.908 13.9464 136.425 13.3845C137.402 12.1841 138.136 10.9901 138.634 9.80249C138.615 9.70033 138.353 9.64925 137.855 9.64925H132.811H132.824Z" fill="black"/>
<path d="M154.954 1.15183C154.954 0.506938 155.005 0.174917 155.107 0.155762C155.892 0.468628 156.888 0.95389 158.095 1.61793C158.261 1.72009 158.593 1.77117 159.091 1.77117C159.755 1.79033 160.419 1.77117 161.083 1.70732C161.479 1.47746 161.926 1.00497 162.424 0.277077C162.673 0.111067 162.922 0.123837 163.171 0.309002C164.04 0.743184 164.87 1.23483 165.661 1.77117C166.555 2.41606 166.491 2.93325 165.476 3.32912C164.933 3.57814 164.729 4.00593 164.857 4.60612V27.1708C164.461 28.8501 163.529 29.744 162.054 29.8461C161.371 29.91 160.994 29.91 160.936 29.8461C160.853 28.3073 160.023 27.356 158.446 26.9856C158.216 26.7749 158.197 26.5706 158.382 26.3599C159.896 26.4876 160.911 26.411 161.434 26.1428C161.683 25.8108 161.766 25.3958 161.683 24.8977V17.3059C161.683 16.7888 161.434 16.527 160.936 16.527H158.849C158.351 16.527 158.07 16.8398 158.006 17.4592C157.757 21.0093 156.773 24.2209 155.049 27.107C154.449 28.103 153.734 28.9458 152.904 29.629C152.802 29.5652 152.834 29.2268 153 28.6011C153.6 27.0431 154.034 25.3766 154.309 23.5888C154.679 20.7475 154.903 17.4592 154.96 13.7239V1.15183H154.954ZM161.677 10.359C161.677 9.82269 161.441 9.54813 160.962 9.54813H158.906C158.389 9.54813 158.127 9.79715 158.127 10.2952L158.095 14.7455C158.076 15.3904 158.312 15.7097 158.81 15.7097H160.898C161.415 15.7097 161.677 15.4607 161.677 14.9626V10.359ZM161.62 2.73531C161.537 2.63315 161.256 2.58207 160.777 2.58207H159.066C158.446 2.64592 158.133 2.92686 158.133 3.42489V7.93911C158.133 8.45629 158.382 8.71808 158.88 8.71808H160.905C161.422 8.71808 161.683 8.46906 161.683 7.97103V3.58452C161.683 3.08649 161.664 2.80555 161.62 2.7417V2.73531ZM167.092 1.24122C167.092 0.577173 167.404 0.309002 168.024 0.430318C168.937 0.698489 169.863 1.09436 170.795 1.61155C170.961 1.71371 171.293 1.76479 171.791 1.76479H175.679C176.26 1.99465 176.963 1.56047 177.793 0.455858C178.329 0.519708 179.121 0.870885 180.155 1.51577C180.985 1.97549 181.164 2.4416 180.685 2.91409C180.475 3.09926 180.372 3.44405 180.372 3.94208C180.436 6.01722 180.162 7.92634 179.562 9.66945C178.878 11.2082 177.748 12.1596 176.171 12.5299C175.628 12.6129 175.271 12.3128 175.079 11.6297C174.766 10.9656 174.179 10.4803 173.304 10.1675C172.685 9.91846 172.34 9.73968 172.276 9.63752C172.257 9.53536 172.263 9.42043 172.308 9.29273C172.41 9.19057 172.787 9.15865 173.426 9.19696C173.611 9.1778 173.828 9.19696 174.077 9.26081C175.239 9.44597 176.069 8.97987 176.567 7.86249C176.88 6.70041 176.995 5.25101 176.912 3.5079C176.848 2.88217 176.567 2.57569 176.069 2.57569H171.152C170.635 2.57569 170.374 2.8247 170.374 3.32273V13.2834C170.374 13.8006 170.623 14.0623 171.121 14.0623H176.969C177.199 13.9985 177.384 13.8772 177.531 13.692C177.735 13.3408 177.984 12.9769 178.278 12.6002C178.565 12.415 178.827 12.4342 179.057 12.664C180.155 13.3281 180.979 13.9091 181.515 14.4071C181.969 15.0265 181.815 15.4862 181.049 15.7735C180.679 15.8374 180.424 16.2843 180.302 17.1144C179.804 19.0874 179.095 20.9326 178.189 22.6566C177.895 23.1546 178.061 23.6399 178.687 24.1188C179.721 24.9041 180.845 25.4852 182.045 25.8619C182.709 26.0662 183.061 26.2258 183.105 26.328C183.124 26.494 182.926 26.6089 182.511 26.6728C181.643 26.9026 180.896 27.5156 180.27 28.5117C179.977 29.1374 179.785 29.4886 179.676 29.5716C179.574 29.5716 179.21 29.3609 178.585 28.9522C177.882 28.4542 177.142 27.7902 176.375 26.9601C175.941 26.4621 175.411 26.4748 174.786 26.992C173.355 28.3393 171.382 29.3545 168.873 30.0441C167.526 30.2931 166.926 29.7504 167.066 28.4287V1.24122H167.092ZM171.702 15.6841C171.657 15.167 171.44 14.9052 171.05 14.9052C170.616 14.9052 170.399 15.1542 170.399 15.6522V27.9115C170.399 28.4287 170.718 28.4414 171.363 27.9434C172.564 26.9473 173.451 25.964 174.007 24.9871C174.319 24.5083 174.307 23.9528 173.975 23.3079C172.876 21.0029 172.117 18.4616 171.702 15.6841ZM177.333 15.6841C177.314 15.167 177.039 14.9052 176.522 14.9052H173.132C172.634 14.9052 172.481 15.218 172.666 15.8374C173.311 17.5997 174.115 19.1576 175.092 20.5048C175.545 21.0667 175.871 21.0986 176.056 20.6006C176.51 19.4194 176.937 17.7784 177.333 15.6841Z" fill="black"/>
<path d="M195.782 10.5971C196.51 10.0161 197.264 9.88199 198.055 10.1949C199.051 10.6929 199.92 11.2739 200.667 11.938C200.852 12.2508 200.68 12.4807 200.137 12.6212C199.824 12.6212 199.358 12.9532 198.738 13.6172C197.698 14.5941 196.663 15.4817 195.629 16.2926C195.335 16.5607 195.086 16.6374 194.882 16.5096C194.837 16.4266 194.901 16.0563 195.067 15.3923C195.399 14.4409 195.648 13.5278 195.814 12.6531C195.897 12.1551 195.635 11.906 195.035 11.906C194.39 11.906 194.071 12.1551 194.071 12.6531V27.3131C193.554 29.4904 192.13 30.4354 189.806 30.1481C189.742 30.0651 189.621 29.6947 189.436 29.0307C189.289 28.6348 188.95 28.2517 188.408 27.8814C187.763 27.5685 187.399 27.3706 187.316 27.2876C187.233 27.0577 187.284 26.8853 187.469 26.7576C188.65 26.8853 189.582 26.8917 190.272 26.7895C190.585 26.5597 190.687 26.1702 190.585 25.6083V19.8171C190.585 19.2808 190.349 19.3382 189.87 20.0023C188.312 22.0582 186.811 23.4055 185.355 24.0504C185.253 24.0504 185.17 23.9993 185.106 23.8971C185.106 23.795 185.368 23.431 185.885 22.8053C187.833 20.2513 189.289 16.8736 190.24 12.6595C190.323 12.1614 190.112 11.9124 189.614 11.9124C188.203 11.8741 187.169 11.9252 186.505 12.0657C185.822 12.1678 185.426 11.9954 185.324 11.5357C185.26 11.0377 185.541 10.8334 186.166 10.9164C186.562 10.9355 186.996 10.9866 187.475 11.0696H194.416C194.914 11.2356 195.367 11.0824 195.782 10.6035V10.5971ZM195.405 0.764177C195.674 0.496006 195.987 0.470465 196.338 0.700326C197.085 1.0962 197.915 1.62616 198.828 2.2902C199.364 2.66053 199.575 3.00532 199.454 3.31819C199.185 3.50335 198.924 3.57997 198.675 3.53528C198.343 3.55443 197.928 3.82899 197.43 4.34618C196.599 5.02937 195.769 5.67426 194.939 6.27445C194.275 6.77249 194.071 7.33437 194.32 7.95371C194.467 9.965 193.656 10.7312 191.894 10.2587C191.377 9.92669 191.064 9.44143 190.962 8.79654C190.917 7.46845 190.183 6.18506 188.752 4.93998C188.791 4.79313 189.148 4.74205 189.812 4.78674C190.438 4.8889 191.14 5.13153 191.926 5.50187C192.551 5.8722 193.056 5.75088 193.452 5.13153C193.739 4.5505 194.065 3.95669 194.416 3.3565C194.665 2.83931 194.537 2.57752 194.045 2.57752H188.133L187.137 2.73076C186.454 2.83293 186.039 2.58391 185.892 1.98372L185.796 1.61338C185.86 1.51122 186.198 1.49207 186.824 1.54953L188.069 1.7347H193.42C194.001 1.94541 194.665 1.61977 195.412 0.770562L195.405 0.764177ZM202.161 16.9821C202.161 16.3181 202.48 16.018 203.125 16.0819C204.638 16.1649 205.736 16.4266 206.426 16.8608C206.573 17.1928 206.394 17.4546 205.896 17.6398C205.768 17.7036 205.634 17.9527 205.494 18.3868C205.475 18.821 205.711 19.0381 206.209 19.0381H208.699C209.216 19.2041 209.65 19.0381 210.008 18.5401C210.57 17.9399 211.17 17.7611 211.815 18.0101C212.766 18.489 213.526 19.0445 214.088 19.6894C214.107 19.7916 214.005 19.9895 213.775 20.2832C213.462 20.5514 213.328 21.0302 213.373 21.7134C213.245 23.4566 212.926 25.1167 212.409 26.6938C211.598 28.5837 210.251 29.7203 208.361 30.1161C207.678 30.18 207.294 29.9182 207.211 29.3372C207.167 28.6093 206.681 27.9708 205.749 27.4089C204.983 26.93 204.651 26.6171 204.753 26.4767C204.957 26.2085 205.334 26.1957 205.871 26.4447C207.652 27.0896 208.827 26.4001 209.389 24.3888C209.657 23.2714 209.816 22.0263 209.855 20.6535C209.855 20.1363 209.606 19.8746 209.108 19.8746H206.088C205.59 19.8746 205.245 20.1874 205.06 20.8068C204.562 23.1948 203.649 25.1614 202.32 26.7193C200.763 28.3794 198.802 29.4713 196.44 29.9884C195.814 30.0523 195.482 30.0267 195.444 29.9246C195.463 29.8224 195.789 29.5798 196.408 29.2095C198.732 27.7601 200.181 26.1063 200.763 24.2611C201.28 22.9777 201.637 21.7709 201.822 20.6535C201.925 20.1363 201.727 19.8746 201.229 19.8746C200.13 19.8362 199.237 19.8873 198.553 20.0278C197.908 20.1555 197.538 19.9959 197.436 19.5617C197.353 19.0828 197.704 18.8785 198.496 18.936C199.428 19.019 200.36 19.0509 201.299 19.0317C201.797 19.0317 202.065 18.7827 202.11 18.2847L202.174 16.9758L202.161 16.9821ZM201.944 0.923802C202.11 0.25976 202.512 -0.0211814 203.157 0.080979C203.923 0.24699 204.689 0.45131 205.462 0.706711C205.896 0.789717 206.247 1.00681 206.522 1.35798C206.605 1.58784 206.477 1.77301 206.151 1.91987C205.966 1.96456 205.756 2.1178 205.532 2.38597C205.238 2.7563 204.983 3.13302 204.753 3.50335C204.44 4.00138 204.536 4.2504 205.034 4.2504H208.367C208.948 4.41641 209.376 4.2504 209.644 3.75237C210.474 2.57114 211.093 1.84325 211.509 1.57507C212.377 1.86879 213.29 2.53283 214.248 3.5672C214.848 4.31425 215.11 4.7612 215.027 4.90806C214.944 5.01022 214.573 5.0613 213.909 5.0613H213.315C212.817 5.0613 212.466 5.37417 212.256 5.99351C211.713 7.60892 210.889 9.14772 209.765 10.5971C209.306 11.1398 209.37 11.5549 209.951 11.8422C211.528 12.4424 213.06 12.851 214.554 13.0554C215.384 13.1831 215.799 13.2916 215.799 13.4001C215.78 13.5023 215.429 13.7705 214.739 14.211C214.158 14.6261 213.699 15.2071 213.373 15.9542C213.271 16.9311 212.805 17.1992 211.975 16.7651C210.193 16.2862 208.584 15.4497 207.154 14.243C206.675 13.8088 206.113 13.7769 205.475 14.1472C202.902 15.4944 200.245 16.2223 197.506 16.3245C197.404 16.2223 197.359 16.1265 197.385 16.0435C197.449 15.9605 197.787 15.8137 198.413 15.6094C200.59 15.0092 202.729 13.8343 204.823 12.0912C204.843 12.0082 204.645 11.657 204.23 11.0313C203.649 10.2012 203.08 9.08387 202.518 7.67277C202.308 7.11089 201.925 7.09174 201.369 7.60892C200.705 8.18996 200.003 8.68799 199.256 9.10302C198.426 9.43504 198.011 9.54997 198.011 9.44781C198.011 9.36481 198.292 8.96893 198.853 8.26658C200.431 5.98713 201.465 3.53528 201.963 0.923802H201.944ZM208.635 5.84027C208.757 5.32308 208.571 5.0613 208.073 5.0613H204.434C203.936 5.0613 203.553 5.21454 203.285 5.52741C203.055 5.84027 203.119 6.30638 203.47 6.92573C204.134 7.79409 204.894 8.58583 205.743 9.28819C206.369 9.78622 206.873 9.72237 207.269 9.10302C207.888 8.0878 208.348 6.99596 208.635 5.83389V5.84027Z" fill="black"/>
<path d="M233.06 0.949943C233.163 0.330595 233.539 0.0368843 234.178 0.0815795C235.423 0.24759 236.623 0.662617 237.785 1.32666C238.054 1.84385 237.881 2.16948 237.255 2.2908C236.904 2.25249 236.63 2.50789 236.445 3.06977L235.046 6.37083C234.861 6.86886 235.014 7.11788 235.512 7.11788H240.244C240.927 7.36689 241.54 7.00295 242.083 6.02604C242.581 5.21514 243.174 5.16406 243.858 5.8728C244.809 6.41552 245.639 6.95187 246.348 7.48821C246.929 8.1331 246.718 8.65028 245.722 9.04615C245.371 9.29517 245.237 9.72297 245.32 10.3232C245.384 17.0274 244.905 22.2312 243.889 25.9473C243.142 28.5205 241.565 29.9316 239.158 30.1806C238.494 30.1997 238.124 29.8869 238.041 29.2484C237.875 28.3162 237.224 27.5053 236.081 26.8221C235.372 26.6369 235.053 26.324 235.116 25.8898C235.199 25.8068 235.551 25.7685 236.176 25.7685C237.92 25.9154 239.177 25.8515 239.944 25.5834C240.295 25.3152 240.537 24.8746 240.659 24.2744C241.259 21.8481 241.61 18.1831 241.719 13.2858V8.8993C241.674 8.25441 241.374 7.93516 240.818 7.93516H235.059L234.344 8.05648C233.035 10.3423 231.605 12.1237 230.047 13.4071C229.402 13.886 229.083 14.3713 229.083 14.8693V26.5092C228.687 27.5883 227.767 27.9714 226.312 27.6585C225.711 27.3903 225.494 26.9115 225.66 26.2283C225.66 25.6472 225.411 25.3599 224.913 25.3599H222.053C221.536 25.3599 221.274 25.6281 221.274 26.1708C221.395 27.518 220.859 28.2842 219.658 28.4758C218.292 28.7056 217.679 28.1055 217.819 26.6688V6.77309C217.819 6.08989 218.139 5.82172 218.784 5.96219C219.199 6.06435 219.901 6.34529 220.897 6.80501C221.414 7.05403 221.74 6.90717 221.861 6.37083C222.193 5.04274 222.315 3.34433 222.232 1.26919C222.11 0.317825 222.481 0.0368843 223.349 0.426371C224.179 0.547686 225.009 0.720082 225.839 0.924403C226.356 1.0521 226.624 1.26919 226.65 1.57568C226.567 1.88854 226.401 2.04178 226.152 2.04178C225.903 2.02263 225.705 2.22056 225.558 2.63559C224.747 4.168 223.911 5.41308 223.036 6.37083C222.557 6.86886 222.57 7.11788 223.068 7.11788L224.811 7.08595C225.181 6.77309 225.513 6.42191 225.807 6.02604C226.158 5.42585 226.771 5.40031 227.646 5.96219C228.993 6.46022 229.855 7.12426 230.232 7.95432C230.168 8.18418 229.83 8.42042 229.204 8.66944C229.121 8.79075 229.083 9.10362 229.083 9.60165V12.0599C229.083 12.7239 229.287 12.7878 229.702 12.2451C231.528 9.09085 232.645 5.32368 233.06 0.949943ZM224.722 7.92239C223.623 7.90323 222.525 7.90962 221.421 7.95432C221.318 8.01817 221.267 8.29911 221.267 8.79714V14.8054C221.267 15.3226 221.516 15.5844 222.014 15.5844H224.875C225.392 15.5844 225.654 15.3354 225.654 14.8374V8.89291C225.654 8.39488 225.635 8.11394 225.59 8.05009C225.507 7.96708 225.22 7.92877 224.715 7.92877L224.722 7.92239ZM225.654 17.1998C225.654 16.6635 225.418 16.3889 224.939 16.3889H222.046C221.529 16.3889 221.267 16.6379 221.267 17.136V23.7636C221.267 24.2808 221.516 24.5426 222.014 24.5426H224.875C225.392 24.5426 225.654 24.2936 225.654 23.7956V17.1998ZM232.128 13.0304C232.167 12.8644 232.499 12.8644 233.124 13.0304C236.03 13.8796 237.939 15.5716 238.852 18.1065C238.916 18.8344 238.781 19.4857 238.449 20.0667C237.702 20.8968 236.84 20.9925 235.864 20.3476C235.595 20.1433 235.378 19.7794 235.212 19.2558C235.091 17.2445 234.344 15.4823 232.971 13.9626C232.39 13.4263 232.109 13.1134 232.128 13.0304Z" fill="black"/>
<path d="M253.104 13.4211C253.167 12.757 253.225 12.3931 253.289 12.3292C253.576 12.2654 253.742 12.5782 253.787 13.2614C254.202 15.6686 254.17 17.7118 253.691 19.3911C253.506 20.1828 253.148 21.0065 252.631 21.8812C251.488 23.7073 250.224 23.9691 248.832 22.6602C248.462 21.6833 248.717 20.7638 249.611 19.8891C251.335 18.5227 252.388 16.9009 252.784 15.0365L253.097 13.4211H253.104ZM256.903 8.75361C256.986 8.10872 257.433 7.82778 258.244 7.91079C259.616 8.01295 260.606 8.25558 261.232 8.62591C261.334 8.74723 261.232 8.99624 260.919 9.37296C260.549 9.80714 260.357 10.2669 260.357 10.7457V24.4735C260.191 25.4888 260.651 26.089 261.73 26.2805C265.816 26.4848 268.958 26.4146 271.16 26.0634C271.595 25.9166 271.908 25.5782 272.093 25.0354C272.361 24.3714 272.603 23.5413 272.808 22.5453C272.846 21.9834 273.012 21.6833 273.306 21.645C273.491 21.6897 273.606 22.0408 273.651 22.7049C273.568 24.033 273.689 24.9843 274.021 25.5654L274.423 25.9357C275.049 26.2677 275.375 26.7211 275.419 27.3021C275.419 28.0875 274.889 28.6749 273.829 29.0452C272.354 29.5433 270.643 29.7923 268.696 29.7923H264.399C262.304 29.7731 260.593 29.556 259.265 29.141C257.771 28.5983 256.986 27.6469 256.903 26.2805V8.75361ZM261.161 0.631859C261.2 0.465848 261.532 0.427538 262.158 0.504158C264.131 1.00219 265.695 1.80032 266.857 2.89854C268.332 4.20747 268.817 5.52279 268.319 6.85087C268.255 7.28506 267.949 7.64262 267.387 7.91079C265.746 8.24281 264.858 7.54684 264.712 5.82288C264.277 4.07977 263.422 2.63676 262.158 1.50022C261.494 1.00219 261.161 0.714864 261.161 0.631859ZM272.022 12.0866C272.125 11.8823 272.367 11.8823 272.738 12.0866C275.873 13.7659 277.801 16.0006 278.529 18.7781C278.861 19.7742 278.746 20.6872 278.184 21.5173C277.603 22.3856 276.786 22.5644 275.726 22.0472C275.292 21.7599 275.03 21.2683 274.947 20.5851C275.132 17.8076 274.417 15.3238 272.801 13.1465C272.24 12.5272 271.984 12.1696 272.022 12.0866Z" fill="black"/>
<path d="M25.2264 44.7856C25.6414 44.0832 26.1905 44.0832 26.8737 44.7856C27.5569 45.2197 28.2848 45.8774 29.051 46.7458C29.5044 47.3906 29.6768 47.761 29.5491 47.8631C29.4022 47.927 29.0191 47.9589 28.3997 47.9589H18.4391C17.9411 47.9589 17.558 48.2718 17.2898 48.8911L16.5108 50.5704C16.2427 51.0684 16.4406 51.5026 17.1046 51.8793C17.9794 52.3135 18.1007 52.7221 17.475 53.0925C17.1238 53.3606 16.945 53.7374 16.945 54.2099V73.5692C16.7343 74.4185 15.9936 74.8143 14.7039 74.7505C13.5226 74.5845 13.0438 73.8885 13.2736 72.6626V56.5085C13.2736 56.0104 13.0055 56.0551 12.4627 56.6298C8.91265 60.4289 5.08802 62.9063 0.976067 64.0683C0.854751 64.0045 0.790901 63.9215 0.790901 63.8193C0.810056 63.6916 1.14208 63.4362 1.78697 63.0403C5.58605 60.4033 8.59979 57.281 10.8409 53.6735C11.92 51.9496 12.7181 50.315 13.2353 48.757C13.4013 48.2207 13.2481 47.9461 12.7692 47.9461H2.84688L1.85082 48.1313C1.16762 48.1952 0.771746 48.0355 0.669586 47.6652C0.52273 47.148 0.816441 46.9182 1.53795 46.982C1.95298 47.0012 2.368 47.0522 2.78303 47.1352H22.5128C23.0938 47.3013 23.5216 47.1352 23.7898 46.6372C24.2239 46.0179 24.7028 45.3921 25.22 44.7728L25.2264 44.7856ZM19.3458 53.9034C19.4096 53.8012 19.7417 53.8714 20.3418 54.1205C22.749 55.1995 25.1115 56.6936 27.4356 58.6027C28.636 59.6818 29.217 61.0099 29.1787 62.587C29.0957 63.3341 28.6935 63.8832 27.9656 64.2343C27.1164 64.4642 26.3565 64.03 25.6925 62.9254C24.5113 59.9372 22.6213 57.198 20.029 54.7079C19.5309 54.229 19.3011 53.9608 19.3458 53.897V53.9034Z" fill="black"/>
<path d="M31.5992 45.928C31.5992 45.264 31.8993 44.9958 32.4995 45.1171C32.9784 45.264 33.4828 45.4491 34.0255 45.679C34.4405 46.0302 35.1173 46.1451 36.0496 46.0238C36.5476 46.0238 36.8924 45.9535 37.0776 45.8067C37.7224 45.1427 38.4248 45.0213 39.191 45.4364C39.606 45.6854 40.021 45.9791 40.4361 46.3047C40.7234 46.4899 40.8639 46.7325 40.8383 47.0198C40.7745 47.122 40.6404 47.2306 40.4361 47.3327C40.0657 47.4349 39.772 47.7988 39.5677 48.4246C38.776 50.0847 37.9395 51.7448 37.0456 53.4049L36.9499 53.8391C38.8973 55.7929 39.9891 57.7531 40.219 59.7197C40.2828 60.2815 40.4169 60.5625 40.6212 60.5625C40.9086 60.5242 41.2661 60.2688 41.6812 59.8154C42.1153 59.4451 42.6453 59.4451 43.271 59.8154L44.3309 60.4986C44.9758 61.0414 45.1993 61.4947 45.0141 61.865C44.7013 62.2609 44.548 62.7079 44.548 63.2059V67.784C44.3373 68.7417 44.8801 69.4441 46.1634 69.8974C47.3638 70.3124 49.2027 70.5614 51.6737 70.6444H54.9748C56.6732 70.5806 58.3333 70.4082 59.9551 70.1145C60.6383 69.9932 61.0214 69.9612 61.1044 70.0187C61.1874 70.1209 60.9192 70.4465 60.2935 70.9829C59.6295 71.6852 59.2527 72.3939 59.1761 73.0963C59.1314 73.7986 58.7803 74.1881 58.1162 74.2456C56.0028 74.2839 53.2317 74.1307 49.8093 73.7795C47.8172 73.4283 46.1571 72.5791 44.829 71.2255C44.3948 70.7466 43.9989 70.1975 43.6477 69.5781C43.3157 69.0993 42.9198 69.1312 42.4665 69.6739C41.4704 70.919 40.5446 72.1641 39.6954 73.4092C39.2995 74.0541 39.0697 74.3605 39.0122 74.3414C38.495 73.722 37.9459 72.611 37.3649 71.0084C37.384 70.9062 37.7161 70.6955 38.3609 70.3827C40.3084 69.5909 41.2789 68.5693 41.2534 67.2987V62.1651C41.2534 61.6671 41.1001 61.4053 40.7873 61.3862C40.4552 61.4309 40.2062 61.7565 40.0402 62.3822C39.6252 64.0232 38.7632 65.0895 37.4543 65.5875C36.5221 65.8174 35.9155 65.7982 35.6473 65.5237C35.7495 64.8213 35.5771 64.1126 35.1173 63.4102C34.8875 63.1803 34.7726 63.3272 34.7726 63.8444V72.9622C34.7726 73.6071 34.4533 74.0541 33.8084 74.3031C32.2313 74.8203 31.497 74.2711 31.5992 72.6557V45.9216V45.928ZM37.0456 47.6711C37.1095 47.1092 36.8988 46.8283 36.4199 46.8283H35.5515C35.0343 46.8283 34.7726 47.0773 34.7726 47.5753V61.3606C34.7726 61.8587 35.0854 62.1396 35.7048 62.2034C36.7008 62.2673 37.1989 61.7884 37.1989 60.7732C37.5692 58.7172 37.1669 56.674 35.9857 54.6436C35.6728 54.0178 35.6537 53.3346 35.9219 52.5876C36.4199 51.0296 36.7902 49.3951 37.0392 47.6711H37.0456ZM39.0378 51.9682C39.0569 51.8022 39.3825 51.7703 40.0019 51.8725C40.7489 52.0385 41.496 52.3833 42.243 52.9005C43.469 53.7944 43.8712 54.8096 43.4562 55.9525C43.271 56.4314 42.9965 56.7442 42.6453 56.8847C41.5662 57.1529 40.8703 56.6868 40.5574 55.4864C40.5382 54.1392 40.0274 52.9643 39.0314 51.9682H39.0378ZM41.6492 46.3941C41.132 45.7109 40.966 45.3342 41.1512 45.2767C42.7283 45.5704 43.9287 46.2026 44.7587 47.1731C45.1546 47.6264 45.2568 48.2522 45.0716 49.0375C44.9439 49.5547 44.6566 49.9187 44.2032 50.1294C43.188 50.4997 42.5112 50.1294 42.1792 49.012C42.1983 47.9776 42.0259 47.1029 41.6492 46.4005V46.3941ZM49.2091 44.5872C49.2921 44.5042 49.6369 44.5042 50.2371 44.5872C50.9394 44.7149 51.6482 44.8809 52.3505 45.0852C52.7656 45.232 53.0337 45.3534 53.1614 45.4555C53.4104 45.6854 53.3274 45.9152 52.9124 46.1387C52.6442 46.1196 52.3441 46.4388 52.0121 47.1029C51.7823 47.6009 51.9164 47.8499 52.4144 47.8499H54.7194C55.3004 48.0989 55.8815 47.7286 56.4625 46.7325C57.1457 45.9472 57.7906 45.7173 58.3908 46.0493C59.5081 46.9432 60.2169 47.6775 60.5042 48.2585C60.4595 48.6927 60.0573 48.8396 59.2911 48.6927H52.0057C51.5077 48.6927 51.0608 49.0056 50.6649 49.6249C50.6457 49.7079 50.5946 49.8037 50.5116 49.9059C50.1605 50.4678 50.2179 50.7487 50.6968 50.7487H53.9659C54.464 50.7487 54.7513 50.7295 54.8343 50.6849L55.6771 49.593C56.156 49.0567 56.4561 48.7821 56.5774 48.7821C57.4458 49.4015 58.0715 50.1932 58.4418 51.1446C58.4227 51.2723 58.3588 51.3808 58.2567 51.4894C57.3245 51.5532 56.3923 51.5724 55.4537 51.5532C54.9365 51.5532 54.6747 51.8022 54.6747 52.3003V53.4496C54.6747 53.9668 54.9365 54.2285 55.4537 54.2285C55.9708 54.2285 56.3156 54.2094 56.4178 54.1647L57.1968 53.0729C57.714 52.428 58.0268 52.0959 58.129 52.0768C58.7292 52.3705 59.3294 52.9452 59.9359 53.8199C60.351 54.2349 60.4467 54.6116 60.2169 54.9373C60.1147 55.0011 59.7508 55.0331 59.125 55.0331H49.0112L47.019 55.3459C46.9169 55.2821 46.8339 55.1097 46.77 54.816C46.7062 54.5669 46.3358 54.6883 45.6526 55.1863L45.2504 55.4672C44.6055 55.7993 44.2543 55.927 44.1905 55.8376C44.1905 55.7354 44.4267 55.3715 44.9056 54.7457C46.106 53.2133 47.102 51.4702 47.8938 49.5164C48.1236 48.9801 47.9321 48.7502 47.3319 48.8332C46.5402 48.9162 46.0677 48.7374 45.9017 48.3032C45.8186 47.8691 46.0868 47.6584 46.7126 47.6839C47.0063 47.6839 47.3255 47.7158 47.6767 47.7797C48.213 47.8435 48.5578 47.5626 48.7047 46.9368L48.8898 45.9089C48.9537 45.4747 49.0559 45.0277 49.2027 44.568L49.2091 44.5872ZM55.2174 56.6038C55.6133 55.6077 56.1432 55.2885 56.8073 55.6396C57.5543 56.01 58.3844 56.5527 59.2974 57.255C59.7763 57.8169 59.7125 58.2128 59.1123 58.4363C58.5312 58.6023 58.3205 59.0173 58.4865 59.6814V66.807C58.2375 68.7609 57.1265 69.6803 55.1536 69.5781C55.0706 69.5335 54.9237 69.1503 54.7194 68.4288C54.4512 67.784 53.9276 67.3945 53.1614 67.2476C52.5995 67.2093 52.3441 66.9986 52.3825 66.6219C52.4655 66.5006 52.8294 66.4367 53.4743 66.4367C54.6555 66.5836 55.2302 66.1494 55.1855 65.1278V64.4127C55.1855 63.8955 54.9365 63.6337 54.4384 63.6337H51.297C50.7798 63.6337 50.518 63.8827 50.518 64.3807V68.3011C50.2882 69.1312 49.573 69.559 48.3727 69.5781C47.3958 69.5973 47.0126 69.0801 47.2234 68.0202V56.7251C47.2234 56.0419 47.5426 55.7801 48.1875 55.9461C48.8515 56.1313 49.5539 56.4122 50.3009 56.7889C50.633 56.9741 51.048 57.0699 51.546 57.0699C52.6442 57.089 53.7425 57.0699 54.8471 57.006C54.9492 56.9677 55.0769 56.8273 55.2174 56.6038ZM51.5141 52.4024C51.5141 51.8405 51.2842 51.5596 50.8309 51.5596H50.2115C49.7135 51.5596 49.1836 51.8725 48.6217 52.4918L47.9385 53.2389C47.4404 53.7369 47.5043 54.0306 48.1236 54.1072C48.66 54.2285 49.5347 54.2732 50.7351 54.2285C51.2523 54.2285 51.5141 53.9795 51.5141 53.4815V52.3897V52.4024ZM51.546 57.9127C50.8628 57.9766 50.518 58.315 50.518 58.9407C50.518 59.6239 50.767 59.9687 51.2651 59.9687H54.4065C54.9237 59.9687 55.1855 59.7005 55.1855 59.1578C55.4153 58.2447 55.1152 57.8297 54.2852 57.9127H51.546ZM55.1855 61.8331C55.1855 61.1308 54.9492 60.7732 54.4704 60.7732H51.297C50.7798 60.7732 50.518 61.1052 50.518 61.7693C50.518 62.4716 50.767 62.8292 51.2651 62.8292H54.4065C54.9237 62.8292 55.1855 62.4972 55.1855 61.8331Z" fill="black"/>
<path d="M68.9073 47.5598C69.3032 46.8575 69.7501 46.6467 70.2481 46.9405C71.1612 47.2725 71.9912 47.6875 72.7383 48.1855C73.7152 48.8879 73.6194 49.4434 72.4574 49.8329C72.3743 49.935 72.336 50.2351 72.336 50.7332V67.8195C72.5659 69.0199 72.0168 69.7286 70.6887 69.9329C69.4628 70.1373 68.9009 69.6009 69.0094 68.3175C69.0094 67.7173 68.7604 67.4172 68.2624 67.4172H67.2663C66.7491 67.4172 66.4874 67.6662 66.4874 68.1643V70.0606C66.1553 71.261 65.287 71.7207 63.8759 71.4334C63.2565 71.1397 63.0139 70.565 63.1608 69.6903V48.1217C63.1608 47.496 63.1991 47.1767 63.2821 47.1575C63.7801 47.2022 64.5655 47.4576 65.6445 47.9365C66.0787 48.2494 66.6917 48.3643 67.4834 48.2813C68.0006 48.2813 68.4795 48.0451 68.9137 47.5662L68.9073 47.5598ZM67.5026 49.1177C66.8194 49.1816 66.4746 49.437 66.4746 49.8967V56.6202C66.4746 57.1373 66.7236 57.3991 67.2216 57.3991H68.2177C68.7349 57.3991 68.9967 57.1501 68.9967 56.6521V49.9606C68.9967 49.3987 68.7285 49.1177 68.1858 49.1177H67.5026ZM68.9967 59.0465C68.9967 58.4846 68.7668 58.2036 68.3135 58.2036H67.2536C66.7364 58.2036 66.4746 58.4527 66.4746 58.9507V65.8274C66.4746 66.3445 66.7236 66.6063 67.2216 66.6063H68.2177C68.7349 66.6063 68.9967 66.3573 68.9967 65.8593V59.0465ZM80.1066 45.5357C80.0619 44.8717 80.3684 44.5525 81.0069 44.5716C82.6032 44.6546 83.7461 44.9036 84.4293 45.3187C84.5953 45.6698 84.4293 45.9508 83.9312 46.1615C83.5992 46.2445 83.4843 46.5893 83.5865 47.1895V48.8049C83.5865 49.3221 83.7078 49.5711 83.9568 49.5519C84.2058 49.4881 84.5697 49.1688 85.0486 48.5878C85.2338 48.3005 85.4509 48.0068 85.6999 47.7194C86.2171 47.2022 86.5427 46.9405 86.664 46.9405C87.5579 47.4576 88.4199 48.1536 89.25 49.0284C89.7033 49.6477 89.9268 50.0244 89.9012 50.1457C89.7991 50.2926 89.416 50.3628 88.7519 50.3628H84.3654C83.8482 50.3628 83.5865 50.6118 83.5865 51.1099V54.7174C83.5865 55.2346 83.8355 55.4964 84.3335 55.4964H85.3615C85.8787 55.4964 86.3384 55.2601 86.7279 54.7813L87.5069 53.7533C87.9857 52.8019 88.5859 52.687 89.3138 53.4085C89.8757 53.7405 90.4759 54.2768 91.1208 55.0239C91.5741 55.6241 91.7848 56.0008 91.7401 56.1413C91.6188 56.2626 91.2293 56.3264 90.5908 56.3264H75.2795L74.2515 56.4797C73.5875 56.5818 73.1916 56.4286 73.0703 56.0136C72.949 55.5155 73.2555 55.2985 74.0025 55.3623L75.1518 55.4836H79.3213C79.8384 55.4836 80.1002 55.2346 80.1002 54.7366V51.129C80.1002 50.6118 79.8512 50.3501 79.3532 50.3501C77.6931 50.2862 76.4991 50.3501 75.7712 50.5352C75.088 50.6182 74.6921 50.4969 74.59 50.1649L74.4367 49.4498C74.4559 49.3476 74.7815 49.3285 75.4008 49.3859C76.2117 49.5072 77.5143 49.5519 79.3213 49.5072C79.8384 49.5072 80.1002 49.2582 80.1002 48.7602V45.523L80.1066 45.5357ZM83.3438 58.1143C83.3438 57.4502 83.6567 57.1373 84.276 57.182C85.0231 57.2459 85.7701 57.3353 86.5172 57.463C87.0152 57.5077 87.3855 57.6418 87.6346 57.8652C87.8644 58.2803 87.6856 58.5804 87.1046 58.7655C86.8747 58.8868 86.7598 59.2125 86.7598 59.7297V60.5086C86.7598 61.0067 86.8109 61.2429 86.9131 61.2238C87.0152 61.1599 87.1493 61.0258 87.3153 60.8215C87.7112 60.2022 88.2667 59.5445 88.9946 58.8613C89.6778 59.0912 90.4567 59.6594 91.3315 60.5725C91.9317 61.3387 92.1935 61.7729 92.1105 61.8814C91.9891 62.0091 91.5997 62.0666 90.9612 62.0666H87.5388C87.0216 62.0666 86.7598 62.3156 86.7598 62.8136V71.7463C86.2171 73.3872 85.1125 74.2747 83.4268 74.4216C82.8075 74.4599 82.4499 74.4535 82.3669 74.3897C82.3031 74.3258 82.2839 74.1279 82.3031 73.7959C82.2392 73.0488 81.8178 72.3848 81.0261 71.8037C80.4003 71.3887 80.0938 71.1269 80.0938 71.0248C80.1322 70.7311 80.5089 70.6608 81.2112 70.8077H82.6415C83.2417 70.7438 83.4715 70.3607 83.3247 69.6584V62.8456C83.3247 62.3284 83.0756 62.0666 82.5776 62.0666H75.5158L74.5197 62.2517C73.8365 62.3156 73.4279 62.156 73.3066 61.7856C73.1852 61.2685 73.4853 61.0386 74.2068 61.1024C74.6219 61.1216 75.0369 61.1727 75.4519 61.2557H82.5457C83.0629 61.2557 83.3247 61.0067 83.3247 60.5086V58.1143H83.3438ZM75.8478 63.2159C75.9308 63.0307 76.282 63.0818 76.9077 63.3691C78.1336 63.8863 79.1489 64.8313 79.9598 66.2041C80.4769 66.9511 80.5791 67.7812 80.2726 68.6942C79.7746 70.0606 78.8615 70.4054 77.5335 69.7222C76.9907 69.205 76.8311 68.4388 77.0354 67.4172C77.1567 66.3382 76.9652 65.3102 76.4416 64.3333C76.0266 63.7075 75.8286 63.3372 75.8478 63.2159Z" fill="black"/>
<path d="M106.449 45.8603C106.449 45.1579 106.73 44.8131 107.292 44.8323C107.994 44.8515 108.799 44.9536 109.686 45.1452C110.497 45.4772 110.887 45.7071 110.868 45.8284C110.823 45.9752 110.67 46.1476 110.401 46.3583C110.089 46.569 109.935 46.9202 109.935 47.4182V56.8808C109.935 57.398 110.184 57.6598 110.682 57.6598H115.414C116.078 57.9088 116.671 57.5321 117.189 56.5424L118.121 55.2974C118.6 54.7163 119.2 54.8121 119.928 55.5783C121.109 56.4914 121.92 57.3214 122.354 58.0685C122.335 58.4835 121.939 58.6176 121.173 58.4707H114.296C113.779 58.4707 113.517 58.7197 113.517 59.2178V68.8017C113.351 69.67 113.696 70.1808 114.545 70.3277C115.024 70.4299 115.79 70.4618 116.85 70.4235L118.095 70.3277C118.696 70.283 119.143 70.2064 119.436 70.0787C119.915 69.4785 120.266 68.6804 120.496 67.6843C120.681 67.065 120.828 66.7329 120.93 66.6882C121.326 66.7904 121.479 67.199 121.396 67.9014C121.333 68.5654 121.492 69.1848 121.863 69.7658C122.482 70.1362 122.871 70.4682 123.012 70.7619C123.446 71.7133 123.178 72.4603 122.201 73.003C121.084 73.5202 119.43 73.8012 117.253 73.8459C115.28 73.9289 113.568 73.7756 112.119 73.3797C111.104 73.1307 110.421 72.3007 110.063 70.8896V59.2497C110.063 58.7325 109.814 58.4707 109.316 58.4707H107.043C106.545 58.4707 106.277 58.7836 106.232 59.4029C106.213 60.7949 105.996 62.3464 105.581 64.0704C105.083 66.1008 104.304 67.7609 103.244 69.0507C100.837 71.7452 97.8612 73.4564 94.3111 74.1843C94.1898 74.1396 94.126 74.0821 94.126 73.9991C94.1643 73.8969 94.4963 73.6543 95.122 73.284C98.0911 71.7452 100.109 69.7658 101.188 67.3395C102.267 65.0601 102.816 62.3592 102.835 59.2497C102.835 58.7325 102.586 58.4707 102.088 58.4707H96.4246L95.4285 58.624C94.7645 58.7261 94.3622 58.5856 94.2154 58.1898C94.0685 57.6726 94.3686 57.4427 95.1156 57.5066C95.486 57.5257 95.8946 57.5768 96.3288 57.6598H105.664C106.181 57.6598 106.443 57.4108 106.443 56.9128V45.8667L106.449 45.8603ZM97.9187 48.0695C97.9825 47.9227 98.3209 47.9354 98.9467 48.1014C100.645 48.7655 102.069 49.9403 103.212 51.6196C103.729 52.5326 103.844 53.4138 103.557 54.263C103.205 55.4889 102.363 55.9231 101.035 55.5719C100.307 55.2207 99.9555 54.6205 99.9747 53.7649C100.16 51.7728 99.4766 49.8765 97.9187 48.0695ZM115.599 48.0376C115.72 47.3544 116.11 47.0862 116.748 47.2267C117.533 47.4757 118.281 47.7758 118.989 48.127C119.609 48.6059 119.915 48.8868 119.89 48.9698C119.762 49.238 119.596 49.3529 119.392 49.3146C119.162 49.2954 118.945 49.4934 118.74 49.9084C117.725 51.7984 116.18 53.5989 114.105 55.3229C113.505 55.7571 113.128 55.9678 112.987 55.9422C112.904 55.8401 113.102 55.3804 113.581 54.5758C114.616 52.5646 115.292 50.3873 115.605 48.0376H115.599Z" fill="black"/>
<path d="M131.663 49.433C131.931 48.7881 132.097 48.4561 132.161 48.4369C132.531 48.5199 132.908 48.6731 133.278 48.903C134.127 49.2733 134.702 49.6501 134.989 50.0204C135.028 50.1864 134.926 50.3524 134.677 50.5184C134.383 50.6206 134.025 50.8888 133.585 51.3293L133.272 51.7316C132.876 52.1658 133.023 52.5425 133.706 52.849C134.74 53.4491 135.366 54.1068 135.57 54.8092C135.839 55.4285 135.705 56.0989 135.168 56.8013C134.753 57.2546 134.21 57.2546 133.553 56.8013C133.304 56.6161 133.182 56.2649 133.182 55.7414C133.182 55.2178 133.138 54.9943 133.061 54.9943C132.103 55.039 131.701 55.4093 131.848 56.1117C131.848 56.6097 132.161 56.9737 132.78 57.2035C134.357 57.9953 135.06 58.9913 134.894 60.1917C134.645 61.1239 134.102 61.4496 133.278 61.1559C132.927 61.009 132.697 60.6706 132.595 60.1279C132.633 59.4447 132.474 58.7615 132.097 58.0719C131.931 57.8867 131.848 58.1038 131.848 58.7232V61.8646C132.116 63.1097 131.567 63.6907 130.201 63.6077C129.805 63.5694 129.505 63.3587 129.3 62.9884C129.237 62.1583 129.217 61.3155 129.237 60.4663C129.237 59.7831 129.039 59.7192 128.643 60.2811C127.979 61.3793 127.161 62.286 126.185 62.9884C125.52 63.4672 125.354 63.3906 125.686 62.7713C126.37 61.3219 126.849 59.8661 127.117 58.4167C127.302 57.6696 127.711 57.3823 128.33 57.5419C128.93 57.7271 129.23 57.5739 129.23 57.0758C129.23 56.5778 128.917 56.4118 128.298 56.5778C127.985 56.6608 127.679 56.7757 127.366 56.9226C127.098 57.0248 126.9 57.1588 126.772 57.3249C126.606 57.6377 126.402 57.6952 126.146 57.51C125.776 56.846 125.495 56.1372 125.303 55.3966C125.157 54.7134 125.188 54.3686 125.399 54.3686L128.292 54.4005C128.79 54.4005 129.256 54.0876 129.69 53.4683C130.501 52.1211 131.152 50.7738 131.65 49.4202L131.663 49.433ZM149.432 49.401C149.618 48.6731 150.026 48.4561 150.646 48.7498C151.788 49.2095 152.472 49.7075 152.702 50.2439C152.599 50.3652 152.433 50.4737 152.203 50.5567C151.852 50.5759 151.501 50.9015 151.144 51.5209C150.601 52.2679 149.828 53.066 148.807 53.9153C148.226 54.3303 148.264 54.5154 148.928 54.4771L150.607 54.3814C151.105 54.3431 151.271 54.1132 151.105 53.6982C150.812 53.264 150.671 52.9958 150.671 52.8873C150.754 52.7596 151.118 52.8362 151.763 53.1044C153.136 53.7876 153.876 54.6431 154.004 55.6584C153.959 56.9226 153.378 57.4398 152.261 57.2163C151.718 56.929 151.469 56.482 151.514 55.8755C151.495 55.3966 151.278 55.2242 150.863 55.3455C150.365 55.5307 150.116 55.8755 150.116 56.3735C150.116 56.9162 150.428 57.2865 151.048 57.4909C151.712 57.676 152.421 58.206 153.161 59.0807C153.972 60.179 153.959 61.1686 153.129 62.037C152.069 62.452 151.437 61.9987 151.233 60.6706C151.214 60.1343 151.035 59.5085 150.703 58.8062C150.307 58.206 150.109 58.1549 150.109 58.6529L150.077 62.2924L149.892 62.6372C149.745 62.7841 149.988 63.1033 150.607 63.6013L151.386 64.3803C151.82 64.9805 152.018 65.3572 151.98 65.4977C151.897 65.619 151.527 65.6829 150.863 65.6829H148.309C147.811 65.6829 147.344 65.9957 146.91 66.6151C146.285 67.4898 145.416 68.4093 144.299 69.3862C143.737 69.8012 143.788 70.063 144.452 70.1651C146.693 70.5993 149.515 70.6632 152.919 70.3503C153.002 70.4142 153.04 70.5035 153.04 70.6312C151.546 71.6082 150.843 72.8022 150.926 74.2132C150.843 74.2963 150.492 74.3282 149.867 74.309C146.961 74.143 144.139 73.4407 141.4 72.1956C140.838 71.9019 140.34 71.8508 139.906 72.0423C136.586 73.4087 132.48 74.1558 127.583 74.2835C126.963 74.2835 126.606 74.2388 126.523 74.1622C126.504 74.06 126.523 73.9515 126.587 73.8493C130.654 73.2491 134.274 72.1445 137.448 70.5482C137.927 70.2801 137.844 69.8331 137.199 69.2074C136.407 68.3582 135.788 67.477 135.334 66.564C135.085 66.066 134.638 66.034 133.993 66.4682C131.835 67.9815 129.556 68.8754 127.149 69.1435C126.299 69.2074 125.884 69.1755 125.904 69.0478C125.967 68.9264 126.319 68.7349 126.963 68.4859C129.907 67.0556 132.116 65.1337 133.591 62.7266C133.987 62.0434 134.472 61.8135 135.053 62.0434C136.132 62.6053 136.93 63.1352 137.448 63.6333C137.78 63.9844 137.665 64.2271 137.103 64.3484C136.854 64.2845 136.56 64.3995 136.235 64.6932C136.152 64.8209 136.356 64.8783 136.854 64.8783H145.818C146.316 64.8783 146.815 64.5782 147.313 63.9781C147.849 63.2949 148.06 62.9118 147.938 62.8287C147.542 62.5159 147.408 61.9987 147.536 61.2708V59.8086C147.536 59.3106 147.491 59.0616 147.415 59.0616C147.204 59.1637 146.955 59.5213 146.668 60.1215C146.067 61.0984 145.378 61.9029 144.612 62.5478C143.762 63.0458 143.494 62.9756 143.801 62.3307C144.337 61.2516 144.714 60.0193 144.918 58.6274C145.02 58.0911 145.014 57.8101 144.886 57.7846C144.554 57.5356 144.222 56.8396 143.89 55.6967C143.762 54.9113 144.056 54.5218 144.759 54.5474H145.818C146.399 54.5474 146.834 54.3431 147.127 53.928C148.226 52.0828 148.992 50.5759 149.432 49.4138V49.401ZM129.735 46.4448C129.939 45.7424 130.367 45.4615 131.012 45.602C131.465 45.7233 131.957 45.8957 132.474 46.1C133.093 46.432 133.425 46.6491 133.47 46.7513C133.553 47.045 133.4 47.2174 133.004 47.2812C132.653 47.2621 132.269 47.5302 131.854 48.0921C131.356 48.6093 130.846 49.0882 130.328 49.5224C129.869 49.8927 129.76 50.2247 129.984 50.5184C130.105 50.8313 130.169 51.2335 130.169 51.7316C129.958 52.7915 129.434 53.2704 128.579 53.1618C127.749 52.9958 127.302 52.4148 127.238 51.4187C127.257 50.5887 126.868 49.7203 126.057 48.8072C126.14 48.6795 126.491 48.654 127.117 48.7115L127.832 48.9285C128.33 49.1776 128.732 48.9732 129.045 48.3028C129.313 47.6835 129.543 47.0577 129.728 46.4384L129.735 46.4448ZM132.908 53.5066C132.614 52.9447 132.206 52.9383 131.663 53.4747C131.063 54.0174 131.095 54.2664 131.759 54.2217C131.963 54.1834 132.206 54.1707 132.474 54.1898C132.889 54.1515 133.036 53.9216 132.908 53.5066ZM140.966 48.4688C141.317 47.9708 141.592 47.6835 141.777 47.5941C141.924 47.5749 142.275 47.8112 142.837 48.3092C143.565 49.0754 143.833 49.682 143.648 50.1162C143.545 50.1992 143.22 50.2439 142.683 50.2439C142.147 50.2439 142.122 50.5567 142.62 51.1761C143.533 52.153 143.488 52.6702 142.498 52.734C142.147 52.734 142.236 53.0469 142.779 53.6662L142.964 53.9791C143.36 54.3941 143.462 54.7645 143.277 55.0965C143.175 55.1795 142.811 55.2242 142.185 55.2242H138.546L137.365 55.4094C136.745 55.454 136.388 55.3072 136.305 54.9752L136.183 54.3494C136.203 54.2473 136.528 54.2153 137.148 54.2537L139.204 54.4069C139.702 54.4069 140.212 54.1196 140.73 53.5385C141.208 53.0022 141.183 52.7276 140.666 52.7276C139.191 52.6446 137.773 52.7404 136.401 53.0086C136.318 52.9256 136.235 52.7085 136.152 52.3573C136.069 51.904 136.388 51.706 137.116 51.7635C137.78 51.8465 138.444 51.8848 139.108 51.8848C139.606 51.8848 139.951 51.8146 140.136 51.6677C140.257 51.4634 140.417 51.2527 140.602 51.042C141.081 50.5056 141.055 50.2311 140.538 50.2311C138.546 50.1928 137.148 50.2439 136.337 50.3843C135.717 50.429 135.36 50.2375 135.277 49.8225C135.213 49.4074 135.494 49.2223 136.12 49.2606C137.014 49.3819 138.08 49.4266 139.325 49.3819C139.823 49.3819 140.372 49.069 140.972 48.4497L140.966 48.4688ZM140.595 45.6339C141.113 45.0337 141.426 44.7208 141.528 44.7017C141.796 44.7847 142.147 45.0848 142.588 45.602C143.169 46.2851 143.418 46.8023 143.335 47.1599C143.188 47.3067 142.805 47.377 142.185 47.377H138.169L136.177 47.6899C136.075 47.626 135.979 47.3898 135.896 46.9747C135.832 46.5597 136.113 46.3745 136.739 46.4128C137.441 46.515 138.182 46.5661 138.948 46.5661C139.446 46.5661 139.995 46.2532 140.595 45.6339ZM135.986 57.1205C135.986 56.4948 136.318 56.2777 136.982 56.4693C137.269 56.5523 137.563 56.6672 137.85 56.8141C138.099 56.9609 138.552 57.0311 139.216 57.0311C139.88 57.0311 140.417 56.8779 140.832 56.565C141.247 56.3799 141.764 56.4629 142.39 56.8141C143.118 57.3951 143.418 57.7782 143.29 57.9634C143.105 58.2315 143.009 58.5891 143.009 59.0233V60.9516C143.092 62.2605 142.511 62.7394 141.266 62.3818C140.896 62.2605 140.698 62.0115 140.672 61.6348C140.672 61.4304 140.423 61.3219 139.925 61.3219H139.082C138.584 61.3219 138.316 61.424 138.271 61.6348C138.291 61.9285 138.061 62.1775 137.588 62.3818C136.343 62.8415 135.807 62.4329 135.973 61.1686V57.1205H135.986ZM142.894 66.4554C143.245 65.9383 143.162 65.6765 142.645 65.6765H136.764C136.266 65.6765 136.235 65.9255 136.669 66.4235C137.294 67.0684 138.214 67.7644 139.44 68.5114C139.938 68.7796 140.5 68.6774 141.119 68.1986C141.821 67.6175 142.415 67.0365 142.894 66.4554ZM140.717 58.6402C140.717 58.1038 140.481 57.8293 140.002 57.8293H139.223C138.597 57.9123 138.291 58.1996 138.291 58.6976V59.7256C138.291 60.2428 138.54 60.5046 139.038 60.5046H139.938C140.455 60.5046 140.717 60.2556 140.717 59.7576V58.6402ZM147.095 46.4128C147.281 45.685 147.664 45.404 148.245 45.57C149.177 45.8382 149.988 46.1638 150.671 46.5342C150.901 46.9939 150.709 47.2429 150.109 47.2812L149.707 47.4983C149.164 48.0793 148.628 48.5774 148.092 48.9924C147.491 49.4457 147.3 49.7841 147.53 49.9885C147.843 50.2566 147.996 50.6653 147.996 51.2016C148.015 52.3445 147.51 52.9575 146.47 53.0405C145.493 52.8362 145.02 52.1721 145.039 51.0484C144.956 50.6334 144.829 50.2183 144.669 49.8033C144.088 49.0179 143.826 48.5774 143.89 48.4944C144.158 48.3731 144.65 48.4241 145.352 48.6476C145.85 48.8775 146.253 48.6795 146.565 48.0538L147.095 46.4065V46.4128ZM147.536 57.3376C147.536 56.8204 147.217 56.6417 146.572 56.8077L146.227 56.929C145.812 57.0503 145.55 57.1588 145.448 57.2418C145.365 57.344 145.633 57.5036 146.259 57.708L146.757 57.8612C147.274 58.0464 147.536 57.874 147.536 57.3312V57.3376Z" fill="black"/>
<path d="M161.096 59.713C161.448 59.2788 161.965 59.349 162.654 59.9301L163.65 60.6133C164.276 61.1305 164.385 61.6924 163.995 62.2925C163.874 62.4586 163.81 62.7906 163.81 63.2886V67.1452C163.663 68.3711 164.346 69.2714 165.866 69.8524C167.648 70.5356 169.308 70.8868 170.846 70.9123L173.739 71.04H177.595C180.105 70.9762 182.493 70.708 184.753 70.2291C185.372 70.1461 185.73 70.1461 185.813 70.2291C185.877 70.3568 185.532 70.7463 184.785 71.4104C184.14 72.1574 183.84 73.1088 183.885 74.2709C183.782 74.373 183.419 74.4369 182.793 74.456C182.167 74.4369 181.535 74.456 180.896 74.5199H176.816C175.009 74.456 173.196 74.3411 171.37 74.1751C167.928 73.8814 165.157 72.1957 163.063 69.1054C162.603 68.5243 162.15 68.5435 161.69 69.1692C160.733 70.6186 159.826 72.0744 158.951 73.5238C158.721 74.1432 158.555 74.5007 158.453 74.5837C158.268 74.622 158.051 74.4305 157.802 73.9899C157.406 73.4472 157.087 72.8981 156.838 72.3426C156.506 71.6594 156.704 71.0847 157.431 70.6314C159.609 69.3672 160.637 68.0199 160.515 66.5833V62.2287C160.515 61.7115 160.266 61.4497 159.768 61.4497C158.734 61.4114 157.872 61.4625 157.182 61.603C156.538 61.686 156.154 61.5327 156.033 61.1369C155.912 60.6835 156.167 60.46 156.812 60.4856C157.68 60.6516 158.594 60.7027 159.551 60.6388C160.049 60.6388 160.567 60.326 161.109 59.7066L161.096 59.713ZM157.7 52.0254C157.7 51.8786 158.032 51.8275 158.696 51.8722C159.481 52.0829 160.228 52.3383 160.937 52.6512C162.827 53.6919 163.523 54.9434 163.025 56.4183C162.731 57.4144 162.041 57.8677 160.937 57.7847C160.292 57.7656 159.826 57.2995 159.539 56.3864C159.475 55.186 159.175 54.1453 158.638 53.2769C158.019 52.5745 157.706 52.1595 157.706 52.0318L157.7 52.0254ZM158.696 45.2381C158.798 45.1168 159.149 45.0594 159.756 45.0849C161.454 45.1679 162.84 46.0427 163.893 47.6964C164.263 49.8737 163.478 50.9017 161.531 50.7803C160.72 50.4483 160.298 49.6183 160.254 48.2902C160.132 47.3133 159.756 46.5088 159.136 45.8639C158.766 45.551 158.619 45.3467 158.702 45.2445L158.696 45.2381ZM180.673 45.7681C181.254 45.0657 181.669 44.6188 181.918 44.4272C183.118 44.9253 184.159 45.8894 185.028 47.3197C185.008 47.4218 184.957 47.5048 184.874 47.5687C184.772 47.6134 184.408 47.6325 183.782 47.6325H179.115C178.598 47.6325 178.336 47.8815 178.336 48.3796V49.2799C178.336 49.7971 178.585 50.0588 179.083 50.0588C179.581 50.0588 180.034 49.8609 180.392 49.465C180.762 49.1139 181.26 49.05 181.886 49.2799C182.403 49.4906 182.92 49.7651 183.444 50.1227C184.108 50.7037 184.408 51.0549 184.344 51.1826C183.533 51.5338 183.227 52.0254 183.412 52.6448C183.431 53.494 183.412 54.3496 183.348 55.1988C183.265 55.3456 183.502 55.6521 184.063 56.131L184.689 56.7248C185.289 57.4719 185.558 57.906 185.5 58.0337C185.398 58.155 185.015 58.2189 184.351 58.2189H179.032C178.534 58.2189 178.566 58.519 179.128 59.1192C181.35 60.7601 183.744 61.5263 186.317 61.4242C186.381 61.5072 186.4 61.6094 186.381 61.7371C185.283 62.3372 184.606 63.1162 184.357 64.074C184.21 64.7572 184.089 65.1339 183.987 65.1913C183.885 65.236 183.444 65.0764 182.678 64.7252C182.059 64.4379 181.433 63.9782 180.813 63.3588C180.213 62.7587 179.913 62.7459 179.913 63.3269V64.1378C180.143 65.0062 179.83 65.6447 178.981 66.0342C177.819 66.347 177.117 66.1299 176.867 65.3829C176.823 65.0892 176.555 64.9487 176.057 64.9487H172.666C172.149 64.9487 171.887 65.0828 171.887 65.351C171.766 66.2193 172.257 66.8004 173.381 67.0941C175.207 67.2154 177.002 67.1899 178.764 66.9983C179.3 66.9792 179.715 66.877 180.009 66.6854C180.443 66.2704 180.852 65.6064 181.222 64.6933C181.305 64.655 181.407 64.6422 181.535 64.6614C181.618 64.7636 181.72 65.1275 181.848 65.7532C181.886 66.3981 182.218 66.8323 182.844 67.0622C183.674 67.9752 183.521 68.7223 182.378 69.3033C181.26 69.8205 179.524 70.0887 177.18 70.1142H173.911C172.953 70.0504 172.123 69.9035 171.421 69.68C169.806 69.2011 168.944 68.3136 168.835 67.0047V63.0204C168.835 62.5033 168.516 62.4394 167.871 62.8353C166.479 63.6462 165.311 64.125 164.353 64.2655C164.27 64.2272 164.238 64.1442 164.257 64.0165C166.537 62.2925 168.209 60.6133 169.269 58.9723C169.601 58.4743 169.518 58.2253 169.02 58.2253C167.009 58.187 165.662 58.2381 164.972 58.3785C164.308 58.4998 163.874 58.2636 163.663 57.6634L163.567 57.2931C163.606 57.2101 163.938 57.1973 164.564 57.2611C164.998 57.2803 165.432 57.3314 165.872 57.4144H169.512C170.01 57.4144 170.425 57.1015 170.757 56.4822C170.84 56.1885 170.955 55.8884 171.102 55.5819C171.287 55.02 171.153 54.7391 170.7 54.7391H169.518C169.02 54.7391 168.752 54.8731 168.707 55.1413C168.561 55.435 168.426 55.6394 168.305 55.7671C167.373 56.3098 166.524 56.3609 165.751 55.9203C165.63 55.7734 165.566 55.3903 165.566 54.771V49.8864C165.566 49.2224 165.885 48.9734 166.53 49.1394C167.028 49.2862 167.526 49.4714 168.024 49.7013C168.522 49.9503 169.059 50.0716 169.64 50.0716C170.323 50.0716 170.668 49.8226 170.668 49.3246V48.4243C170.668 47.9071 170.419 47.6453 169.921 47.6453C168.011 47.607 166.728 47.6581 166.064 47.7985C165.4 47.9199 164.972 47.6836 164.787 47.0834L164.691 46.7131C164.73 46.6301 165.062 46.6173 165.687 46.6812C166.083 46.7003 166.505 46.7514 166.964 46.8344H178.917C179.664 47.0643 180.258 46.7131 180.692 45.7745L180.673 45.7681ZM170.648 51.7126C170.648 51.1507 170.355 50.8697 169.78 50.8697C169.097 50.8697 168.752 51.1315 168.752 51.6487V53.1428C168.752 53.66 169.065 53.9218 169.684 53.9218C170.304 53.9218 170.648 53.6728 170.648 53.1747V51.7126ZM177.838 59.1192C177.589 58.519 177.238 58.2189 176.778 58.2189H173.758C173.26 58.2189 172.749 58.5318 172.232 59.1511C172.168 59.2533 172.079 59.3618 171.951 59.464C171.389 60.0642 171.223 60.4281 171.453 60.5558C171.702 60.7027 172.079 60.7729 172.57 60.7729H175.68C176.178 60.7729 176.606 60.575 176.957 60.1791C177.327 59.8662 177.621 59.7322 177.825 59.7768C178.093 59.9237 178.093 59.7066 177.825 59.1256L177.838 59.1192ZM172.053 61.6094C171.932 61.7562 171.868 61.9797 171.868 62.2925V63.3525C171.868 63.8696 172.117 64.1314 172.615 64.1314H176.037C176.555 64.1314 176.816 63.8824 176.816 63.3844V62.3564C176.816 61.7945 176.484 61.5391 175.82 61.5774C174.575 61.5583 173.317 61.5647 172.053 61.6094ZM175.38 48.4434C175.38 47.9071 175.099 47.6325 174.537 47.6325C173.911 47.6325 173.605 47.8815 173.605 48.3796V49.2799C173.605 49.7971 173.892 50.0588 174.473 50.0588C175.054 50.0588 175.373 49.8098 175.373 49.3118V48.4434H175.38ZM175.38 51.7126C175.38 51.1507 175.099 50.8697 174.537 50.8697C173.911 50.8697 173.605 51.1188 173.605 51.6168V53.1428C173.605 53.66 173.892 53.9218 174.473 53.9218C175.054 53.9218 175.373 53.6728 175.373 53.1747V51.7126H175.38ZM180.264 55.2626C180.22 54.9115 179.951 54.7327 179.453 54.7327H175.686C175.188 54.7327 174.792 55.0455 174.505 55.6649L174.039 56.5652C173.707 57.1271 173.771 57.408 174.224 57.408H179.92C180.501 57.5932 180.916 57.4208 181.165 56.878C181.618 56.3417 181.714 56.0671 181.446 56.0671C180.801 56.131 180.411 55.8628 180.264 55.2562V55.2626ZM180.232 51.7126C180.232 51.1507 179.92 50.8697 179.3 50.8697C178.681 50.8697 178.336 51.1188 178.336 51.6168V53.1428C178.336 53.66 178.649 53.9218 179.268 53.9218C179.888 53.9218 180.232 53.6728 180.232 53.1747V51.7126Z" fill="black"/>
<path d="M212.483 45.0434C212.777 44.6092 213.077 44.507 213.384 44.7305C214.36 45.3115 215.178 45.9883 215.842 46.7545C216.461 47.5463 216.704 47.9869 216.557 48.0954C216.41 48.1784 216.027 48.2231 215.408 48.2231H204.891C204.393 48.2231 203.991 48.536 203.678 49.1553C203.014 50.5664 202.114 51.8626 200.971 53.0438C200.537 53.5227 200.569 53.7589 201.067 53.7589H209.75C210.331 53.8419 210.785 53.7206 211.117 53.3886C211.449 52.9097 211.819 52.4628 212.234 52.0477C212.336 52.0094 212.713 52.118 213.352 52.3925C214.303 52.8714 215.133 53.3886 215.842 53.9505C216.404 54.6528 216.187 55.1636 215.19 55.4765C214.775 55.7063 214.622 56.1405 214.724 56.7854V71.3177C214.411 73.163 213.409 74.1527 211.704 74.274C211.021 74.3123 210.606 73.9611 210.459 73.2141C210.025 72.3649 209.501 71.8541 208.901 71.6881C208.301 71.6242 208.084 71.3688 208.25 70.9091L210.025 70.7239C210.976 70.7048 211.391 70.1557 211.27 69.0766V55.5978C211.455 54.7486 211.142 54.4038 210.338 54.5698H208.41C207.892 54.5698 207.631 54.8188 207.631 55.3169V71.8094C207.362 72.5947 206.839 72.9842 206.073 72.9587C205.057 73.0417 204.413 72.6777 204.144 71.8668V55.3424C204.144 54.8252 203.895 54.5634 203.397 54.5634H201.558C201.041 54.5634 200.779 54.8124 200.779 55.3105V71.803C200.511 72.5883 199.988 72.9778 199.222 72.9523C198.206 73.0353 197.561 72.6714 197.293 71.8605V55.336C197.293 54.8188 197.044 54.557 196.546 54.557H194.618C194.075 54.557 193.807 54.8188 193.807 55.336V72.8884C193.788 73.4248 193.475 73.8526 192.875 74.1655C191.113 74.7656 190.27 74.2165 190.353 72.5181V53.4397C190.353 52.7948 190.768 52.5905 191.598 52.8203C192.013 52.9416 192.428 53.1013 192.843 53.2864C193.443 53.6823 194.005 53.8355 194.522 53.7525H198.506C199.004 53.7525 199.336 53.4397 199.502 52.8203C199.751 51.9073 199.969 50.6239 200.154 48.9638C200.173 48.4657 199.937 48.2167 199.439 48.2167H190.602L189.606 48.4019C188.922 48.4657 188.527 48.3061 188.424 47.9358C188.278 47.4186 188.571 47.1887 189.299 47.2526L190.512 47.3803H209.712C210.293 47.5016 210.746 47.3483 211.079 46.9142C211.474 46.2948 211.94 45.6691 212.477 45.0497L212.483 45.0434Z" fill="black"/>
<path d="M226.843 47.113C227.405 46.366 227.737 45.9701 227.839 45.9318C229.231 46.3021 230.425 46.9278 231.421 47.7962C231.651 48.2942 231.377 48.6773 230.611 48.9455C230.483 49.0924 230.425 49.4116 230.425 49.9096V56.2564C230.694 57.3993 230.144 58.0952 228.778 58.3443C227.737 58.5103 227.156 58.191 227.035 57.3801C227.016 57.0864 226.767 56.9459 226.288 56.9459H223.204C222.687 56.9459 222.425 57.195 222.425 57.693V66.3766C222.61 67.3727 223.185 67.7877 224.136 67.6217L226.096 67.5898C226.697 67.5259 227.214 67.2258 227.654 66.6895C228.069 66.0893 228.414 65.3742 228.682 64.5441C228.95 63.9248 229.136 63.5991 229.244 63.58C229.372 63.5991 229.474 63.6502 229.557 63.7332C229.557 64.5633 229.589 65.3933 229.653 66.2234C229.755 66.7406 229.998 67.0917 230.368 67.2833C231.096 67.7813 231.332 68.4454 231.083 69.2754C230.483 70.3098 229.308 70.8525 227.565 70.8908C224.973 71.159 222.968 71.1398 221.557 70.827C220.043 70.412 219.194 69.3329 219.003 67.5898V55.6689C219.003 54.9857 219.322 54.7176 219.967 54.858C220.841 55.1071 221.761 55.4902 222.738 56.0073C222.885 56.0903 223.204 56.135 223.702 56.135H226.224C226.741 56.135 227.003 55.886 227.003 55.388V49.2584C227.003 48.7603 226.958 48.473 226.875 48.39L225.975 48.3581H220.873C220.254 48.4858 219.616 48.5688 218.977 48.6071C218.313 47.5089 218.524 47.113 219.603 47.4259L220.784 47.5472H225.579C226.199 47.6493 226.626 47.5089 226.856 47.113H226.843ZM234.282 45.0953C234.346 44.9932 234.678 44.9612 235.278 44.9996C236.274 45.1656 237.187 45.4146 238.017 45.7466C238.662 46.0978 238.994 46.3149 239.013 46.3979C239.16 46.7682 238.93 47.03 238.33 47.1769C238.017 47.1385 237.787 47.3556 237.647 47.8281C237.168 49.1754 236.651 50.5226 236.089 51.8762C235.904 52.3743 236.057 52.6233 236.555 52.6233H240.788C241.388 52.751 241.823 52.5914 242.097 52.1572C242.927 50.9759 243.547 50.2161 243.962 49.8841C244.396 49.9033 245.092 50.3374 246.05 51.193C246.86 51.9018 247.416 52.5211 247.729 53.0575C247.684 53.4725 247.282 53.6066 246.516 53.4597H244.804C244.306 53.4597 244.013 53.7726 243.93 54.3919C243.559 58.1463 242.685 61.3644 241.318 64.0397C241.05 64.6016 240.699 65.189 240.258 65.8147C239.888 66.3575 239.977 66.8427 240.539 67.2769C242.404 68.5411 244.562 69.5691 247.014 70.3609C247.639 70.5907 247.94 70.7567 247.914 70.8589C246.771 71.2739 245.839 71.9891 245.111 73.0043C244.741 73.6236 244.485 73.9684 244.364 74.0323C242.104 73.1192 240.009 71.7081 238.075 69.799C237.596 69.301 237.034 69.301 236.395 69.799C233.49 72.0401 230.381 73.4193 227.06 73.9365C226.23 74.0003 225.854 73.9556 225.943 73.8152C226.026 73.6939 226.396 73.4959 227.06 73.2214C229.921 72.0784 232.59 70.2459 235.061 67.7111C235.559 67.1747 235.642 66.6129 235.31 66.0318C234.193 63.8098 233.567 61.0196 233.446 57.6611C233.426 57.1247 233.209 57.1439 232.794 57.7249C231.179 59.717 229.972 60.8791 229.187 61.2111C229.059 61.109 229.002 61.0132 229.002 60.9302C230.202 59.2318 231.115 57.61 231.741 56.0776C233.254 52.4892 234.11 48.8242 234.295 45.0889L234.282 45.0953ZM240.603 54.526C240.667 53.8237 240.482 53.4661 240.041 53.4661H236.21C235.712 53.4661 235.278 53.779 234.901 54.3983L234.403 55.3305C234.301 55.5157 234.25 55.7264 234.25 55.9563C234.333 58.7593 235.246 61.3899 236.989 63.8609C237.34 64.3398 237.692 64.2568 238.049 63.6119C239.441 60.6684 240.29 57.6355 240.603 54.526Z" fill="black"/>
<path d="M256.366 49.433C256.634 48.7881 256.8 48.4561 256.864 48.4369C257.234 48.5199 257.611 48.6731 257.981 48.903C258.831 49.2733 259.405 49.6501 259.693 50.0204C259.731 50.1864 259.629 50.3524 259.38 50.5184C259.086 50.6206 258.728 50.8888 258.288 51.3293L257.975 51.7316C257.579 52.1658 257.726 52.5425 258.409 52.849C259.444 53.4491 260.069 54.1068 260.274 54.8092C260.542 55.4285 260.408 56.0989 259.871 56.8013C259.456 57.2546 258.914 57.2546 258.25 56.8013C258.001 56.6161 257.879 56.2649 257.879 55.7414C257.879 55.2178 257.835 54.9943 257.758 54.9943C256.8 55.039 256.398 55.4093 256.545 56.1117C256.545 56.6097 256.858 56.9737 257.477 57.2035C259.054 57.9953 259.756 58.9913 259.59 60.1917C259.341 61.1239 258.799 61.4496 257.975 61.1559C257.624 61.009 257.394 60.6706 257.292 60.1279C257.33 59.4447 257.164 58.7615 256.794 58.0719C256.628 57.8867 256.545 58.1038 256.545 58.7232V61.8646C256.813 63.1097 256.264 63.6907 254.897 63.6077C254.502 63.5694 254.201 63.3587 253.997 62.9884C253.933 62.1583 253.914 61.3155 253.933 60.4663C253.933 59.7831 253.735 59.7192 253.339 60.2811C252.675 61.3793 251.858 62.286 250.881 62.9884C250.217 63.4672 250.051 63.3906 250.383 62.7713C251.066 61.3219 251.545 59.8661 251.813 58.4167C251.999 57.6696 252.407 57.3823 253.027 57.5419C253.627 57.7271 253.927 57.5739 253.927 57.0758C253.927 56.5778 253.614 56.4118 252.995 56.5778C252.682 56.6608 252.375 56.7757 252.062 56.9226C251.794 57.0248 251.596 57.1588 251.469 57.3249C251.303 57.6377 251.098 57.6952 250.849 57.51C250.479 56.846 250.198 56.1372 250.006 55.3966C249.86 54.7134 249.892 54.3686 250.102 54.3686L252.995 54.4005C253.493 54.4005 253.959 54.0876 254.393 53.4683C255.204 52.1211 255.855 50.7738 256.353 49.4202L256.366 49.433ZM274.135 49.401C274.321 48.6731 274.729 48.4561 275.349 48.7498C276.492 49.2095 277.175 49.7075 277.405 50.2439C277.302 50.3652 277.136 50.4737 276.907 50.5567C276.555 50.5759 276.204 50.9015 275.847 51.5209C275.31 52.2679 274.531 53.066 273.51 53.9153C272.929 54.3303 272.967 54.5154 273.637 54.4771L275.317 54.3814C275.815 54.3431 275.981 54.1132 275.815 53.6982C275.521 53.264 275.381 52.9958 275.381 52.8873C275.464 52.7596 275.828 52.8362 276.472 53.1044C277.839 53.7876 278.586 54.6431 278.714 55.6584C278.669 56.9226 278.094 57.4398 276.97 57.2163C276.434 56.929 276.179 56.482 276.223 55.8755C276.204 55.3966 275.987 55.2242 275.572 55.3455C275.074 55.5307 274.825 55.8755 274.825 56.3735C274.825 56.9162 275.138 57.2865 275.757 57.4909C276.421 57.676 277.124 58.206 277.871 59.0807C278.682 60.179 278.669 61.1686 277.839 62.037C276.779 62.452 276.147 61.9987 275.942 60.6706C275.923 60.1343 275.745 59.5085 275.412 58.8062C275.017 58.206 274.819 58.1549 274.819 58.6529L274.787 62.2924L274.602 62.6372C274.455 62.7841 274.697 63.1033 275.317 63.6013L276.096 64.3803C276.53 64.9805 276.728 65.3572 276.689 65.4977C276.606 65.619 276.236 65.6829 275.572 65.6829H273.018C272.52 65.6829 272.054 65.9957 271.62 66.6151C271 67.4898 270.126 68.4093 269.008 69.3862C268.446 69.8012 268.498 70.063 269.162 70.1651C271.403 70.5993 274.225 70.6632 277.628 70.3503C277.711 70.4142 277.756 70.5035 277.756 70.6312C276.262 71.6082 275.559 72.8022 275.642 74.2132C275.559 74.2963 275.208 74.3282 274.582 74.309C271.677 74.143 268.855 73.4407 266.116 72.1956C265.554 71.9019 265.056 71.8508 264.622 72.0423C261.302 73.4087 257.196 74.1558 252.299 74.2835C251.679 74.2835 251.322 74.2388 251.239 74.1622C251.22 74.06 251.239 73.9515 251.303 73.8493C255.37 73.2491 258.99 72.1445 262.164 70.5482C262.642 70.2801 262.559 69.8331 261.915 69.2074C261.123 68.3582 260.503 67.477 260.05 66.564C259.801 66.066 259.354 66.034 258.709 66.4682C256.551 67.9815 254.272 68.8754 251.865 69.1435C251.015 69.2074 250.6 69.1755 250.619 69.0478C250.683 68.9264 251.034 68.7349 251.679 68.4859C254.623 67.0556 256.832 65.1337 258.307 62.7266C258.703 62.0434 259.188 61.8135 259.769 62.0434C260.848 62.6053 261.646 63.1352 262.164 63.6333C262.496 63.9844 262.381 64.2271 261.819 64.3484C261.57 64.2845 261.282 64.3995 260.95 64.6932C260.867 64.8209 261.072 64.8783 261.57 64.8783H270.534C271.032 64.8783 271.53 64.5782 272.028 63.9781C272.565 63.2949 272.775 62.9118 272.648 62.8287C272.252 62.5159 272.118 61.9987 272.246 61.2708V59.8086C272.246 59.3106 272.201 59.0616 272.118 59.0616C271.907 59.1637 271.664 59.5213 271.371 60.1215C270.771 61.0984 270.081 61.9029 269.315 62.5478C268.466 63.0458 268.197 62.9756 268.504 62.3307C269.04 61.2516 269.417 60.0193 269.621 58.6274C269.723 58.0911 269.717 57.8101 269.589 57.7846C269.257 57.5356 268.925 56.8396 268.593 55.6967C268.466 54.9113 268.759 54.5218 269.462 54.5474H270.522C271.103 54.5474 271.537 54.3431 271.83 53.928C272.929 52.0828 273.695 50.5759 274.135 49.4138V49.401ZM254.438 46.4448C254.642 45.7424 255.07 45.4615 255.715 45.602C256.168 45.7233 256.66 45.8957 257.177 46.1C257.796 46.432 258.128 46.6491 258.173 46.7513C258.256 47.045 258.103 47.2174 257.707 47.2812C257.356 47.2621 256.973 47.5302 256.558 48.0921C256.059 48.6093 255.549 49.0882 255.032 49.5224C254.578 49.8927 254.463 50.2247 254.687 50.5184C254.814 50.8313 254.872 51.2335 254.872 51.7316C254.661 52.7915 254.138 53.2704 253.282 53.1618C252.452 52.9958 252.005 52.4148 251.941 51.4187C251.96 50.5887 251.571 49.7203 250.76 48.8072C250.843 48.6795 251.194 48.654 251.82 48.7115L252.535 48.9285C253.033 49.1776 253.435 48.9732 253.748 48.3028C254.016 47.6835 254.246 47.0577 254.431 46.4384L254.438 46.4448ZM257.611 53.5066C257.317 52.9447 256.902 52.9383 256.366 53.4747C255.766 54.0174 255.798 54.2664 256.462 54.2217C256.666 54.1834 256.909 54.1707 257.177 54.1898C257.592 54.1515 257.739 53.9216 257.611 53.5066ZM265.669 48.4688C266.02 47.9708 266.295 47.6835 266.48 47.5941C266.627 47.5749 266.978 47.8112 267.54 48.3092C268.268 49.0754 268.536 49.682 268.351 50.1162C268.248 50.1992 267.923 50.2439 267.387 50.2439C266.85 50.2439 266.825 50.5567 267.323 51.1761C268.236 52.153 268.197 52.6702 267.201 52.734C266.85 52.734 266.94 53.0469 267.482 53.6662L267.667 53.9791C268.063 54.3941 268.165 54.7645 267.98 55.0965C267.878 55.1795 267.514 55.2242 266.888 55.2242H263.249L262.068 55.4094C261.448 55.454 261.091 55.3072 261.008 54.9752L260.887 54.3494C260.906 54.2473 261.231 54.2153 261.851 54.2537L263.907 54.4069C264.405 54.4069 264.916 54.1196 265.433 53.5385C265.912 53.0022 265.886 52.7276 265.369 52.7276C263.894 52.6446 262.476 52.7404 261.104 53.0086C261.021 52.9256 260.938 52.7085 260.855 52.3573C260.772 51.904 261.091 51.706 261.819 51.7635C262.483 51.8465 263.147 51.8848 263.811 51.8848C264.309 51.8848 264.654 51.8146 264.839 51.6677C264.96 51.4634 265.12 51.2527 265.305 51.042C265.784 50.5056 265.758 50.2311 265.241 50.2311C263.249 50.1928 261.851 50.2439 261.04 50.3843C260.42 50.429 260.063 50.2375 259.98 49.8225C259.916 49.4074 260.197 49.2223 260.823 49.2606C261.717 49.3819 262.783 49.4266 264.028 49.3819C264.526 49.3819 265.075 49.069 265.675 48.4497L265.669 48.4688ZM265.299 45.6339C265.816 45.0337 266.129 44.7208 266.231 44.7017C266.499 44.7847 266.85 45.0848 267.291 45.602C267.872 46.2851 268.121 46.8023 268.038 47.1599C267.891 47.3067 267.508 47.377 266.888 47.377H262.872L260.88 47.6899C260.778 47.626 260.682 47.3898 260.599 46.9747C260.535 46.5597 260.816 46.3745 261.442 46.4128C262.144 46.515 262.885 46.5661 263.651 46.5661C264.149 46.5661 264.698 46.2532 265.299 45.6339ZM260.689 57.1205C260.689 56.4948 261.021 56.2777 261.685 56.4693C261.972 56.5523 262.266 56.6672 262.553 56.8141C262.802 56.9609 263.255 57.0311 263.919 57.0311C264.583 57.0311 265.12 56.8779 265.541 56.565C265.956 56.3799 266.473 56.4629 267.099 56.8141C267.827 57.3951 268.127 57.7782 267.999 57.9634C267.814 58.2315 267.719 58.5891 267.719 59.0233V60.9516C267.802 62.2605 267.221 62.7394 265.975 62.3818C265.605 62.2605 265.407 62.0115 265.382 61.6348C265.382 61.4304 265.133 61.3219 264.635 61.3219H263.792C263.294 61.3219 263.026 61.424 262.981 61.6348C263 61.9285 262.77 62.1775 262.298 62.3818C261.053 62.8415 260.516 62.4329 260.676 61.1686V57.1205H260.689ZM267.597 66.4554C267.948 65.9383 267.865 65.6765 267.348 65.6765H261.468C260.97 65.6765 260.938 65.9255 261.372 66.4235C261.998 67.0684 262.917 67.7644 264.143 68.5114C264.641 68.7796 265.203 68.6774 265.822 68.1986C266.525 67.6175 267.118 67.0365 267.597 66.4554ZM265.42 58.6402C265.42 58.1038 265.184 57.8293 264.705 57.8293H263.926C263.306 57.9123 262.994 58.1996 262.994 58.6976V59.7256C262.994 60.2428 263.243 60.5046 263.741 60.5046H264.641C265.158 60.5046 265.42 60.2556 265.42 59.7576V58.6402ZM271.799 46.4128C271.984 45.685 272.367 45.404 272.948 45.57C273.88 45.8382 274.691 46.1638 275.374 46.5342C275.604 46.9939 275.412 47.2429 274.812 47.2812L274.41 47.4983C273.874 48.0793 273.331 48.5774 272.795 48.9924C272.194 49.4457 272.003 49.7841 272.233 49.9885C272.546 50.2566 272.699 50.6653 272.699 51.2016C272.718 52.3445 272.214 52.9575 271.173 53.0405C270.196 52.8362 269.717 52.1721 269.743 51.0484C269.66 50.6334 269.532 50.2183 269.372 49.8033C268.791 49.0179 268.529 48.5774 268.593 48.4944C268.861 48.3731 269.353 48.4241 270.055 48.6476C270.553 48.8775 270.956 48.6795 271.269 48.0538L271.799 46.4065V46.4128ZM272.239 57.3376C272.239 56.8204 271.92 56.6417 271.275 56.8077L270.93 56.929C270.515 57.0503 270.253 57.1588 270.151 57.2418C270.068 57.344 270.336 57.5036 270.962 57.708L271.46 57.8612C271.977 58.0464 272.239 57.874 272.239 57.3312V57.3376Z" fill="black"/>
</svg>
