<svg width="25" height="24" viewBox="0 0 25 24" fill="none" xmlns="http://www.w3.org/2000/svg">
<path d="M20.286 7.43306C18.6794 4.69587 15.8232 3.0595 12.6695 3C12.5802 3 12.4612 3 12.372 3C9.21826 3.0595 6.36206 4.72562 4.75545 7.43306C3.95214 8.80165 3.50586 10.4083 3.50586 12.0149C3.50586 13.9488 4.1009 15.7636 5.23148 17.3107C6.92735 19.6017 9.51578 20.9702 12.3422 21C12.4017 21 12.4315 21 12.491 21C12.5505 21 12.5802 21 12.6397 21C15.4959 20.9702 18.0844 19.6017 19.7505 17.3107C20.8811 15.7636 21.4761 13.919 21.4761 12.0149C21.5356 10.4083 21.0893 8.83141 20.286 7.43306ZM18.6497 7.43306C17.5488 7.79008 16.3885 8.05785 15.2282 8.20661C14.9009 6.89752 14.3951 5.64793 13.7406 4.45785C15.734 4.78512 17.4596 5.82645 18.6497 7.43306ZM12.3422 19.3934C11.8067 18.4711 11.3604 17.519 11.0331 16.5669C11.8959 16.5074 12.7885 16.5074 13.6513 16.5372C13.324 17.519 12.8778 18.4711 12.3422 19.3934ZM13.8893 8.32562C12.848 8.38512 11.7769 8.38512 10.7654 8.29587C11.1224 7.01653 11.6282 5.79669 12.3125 4.63636C13.0265 5.82645 13.5621 7.04628 13.8893 8.32562ZM10.4678 9.63471C11.1224 9.69421 11.8067 9.72397 12.5207 9.72397C13.086 9.72397 13.6513 9.69421 14.1869 9.66446C14.3059 10.438 14.3951 11.2413 14.3951 12.0149C14.3951 13.0859 14.2761 14.157 14.0381 15.1983C12.9373 15.1091 11.7769 15.1388 10.6761 15.2281C10.4381 14.1868 10.2893 13.1157 10.2893 12.0149C10.2596 11.2116 10.3488 10.4083 10.4678 9.63471ZM10.8546 4.54711C10.2298 5.70744 9.75379 6.92727 9.42652 8.17686C8.3852 8.0281 7.37363 7.79008 6.39181 7.46281C7.49264 5.94545 9.0695 4.93388 10.8546 4.54711ZM4.87445 12.0149C4.87445 10.8248 5.14222 9.66446 5.67776 8.59339C6.80834 8.98017 7.96867 9.27769 9.15875 9.4562C9.00999 10.2893 8.95049 11.1521 8.95049 12.0149C8.95049 13.1455 9.0695 14.276 9.33726 15.3769C8.23644 15.5554 7.16536 15.7934 6.09429 16.1207C5.29098 14.9008 4.87445 13.5025 4.87445 12.0149ZM6.9571 17.281C7.84966 17.0132 8.74222 16.8347 9.66454 16.686C9.96206 17.638 10.3786 18.5901 10.8546 19.4826C9.36702 19.1554 7.99842 18.4116 6.9571 17.281ZM13.7703 19.5719C14.2761 18.6198 14.7224 17.638 15.0199 16.6562C16.0612 16.7752 17.1026 16.9835 18.0844 17.281C16.924 18.5008 15.4364 19.3041 13.7703 19.5719ZM18.9769 16.1504C17.8166 15.7636 16.5968 15.5256 15.3769 15.3471C15.615 14.276 15.734 13.1455 15.734 12.0149C15.734 11.1818 15.6745 10.3488 15.5257 9.5157C16.8348 9.33719 18.1439 9.03967 19.3935 8.59339C19.929 9.63471 20.1968 10.8248 20.1968 12.0149C20.1968 13.5025 19.7505 14.9008 18.9769 16.1504Z" fill="white"/>
</svg>
