<svg width="279" height="37" viewBox="0 0 279 37" fill="none" xmlns="http://www.w3.org/2000/svg">
<path d="M14.7526 0C16.4804 2.34462 19.3762 3.14356 22.9182 1.72233C23.7211 7.55635 21.1719 16.0877 18.7434 18.4822C18.4653 7.13652 13.3645 10.7624 14.7526 0Z" fill="#FC0E1E"/>
<path d="M0 22.4374C2.37333 20.7288 3.18147 17.8657 1.74342 14.3637C7.64829 13.5699 16.2835 16.0901 18.7074 18.4915C7.22391 18.8046 10.8936 23.8093 0 22.4374Z" fill="#0518BF"/>
<path d="M37.4536 14.5569C35.0826 16.2654 34.2745 19.128 35.7113 22.6306C29.8111 23.4243 21.1828 20.9042 18.7607 18.5028C30.2355 18.1897 26.5687 13.185 37.4536 14.5569Z" fill="#F5D32F"/>
<path d="M22.7178 36.9999C20.9895 34.6553 18.0942 33.8564 14.5522 35.2776C13.7493 29.4436 16.298 20.9122 18.727 18.5177C19.044 29.8634 24.1053 26.2375 22.7178 36.9999Z" fill="#108313"/>
<path d="M34.7858 28.7978C31.8871 28.3481 29.2682 29.8078 27.7796 33.2886C23.0399 29.7252 18.7409 21.9102 18.7461 18.5194C27.0835 26.3201 28.0699 20.2171 34.7858 28.7978Z" fill="#B3B3B3"/>
<path d="M8.31467 34.3669C8.76983 31.501 7.29346 28.912 3.77295 27.4398C7.37706 22.7534 15.2808 18.5029 18.7108 18.5081C10.8209 26.7521 16.9935 27.7271 8.31467 34.3669Z" fill="#B3B3B3"/>
<path d="M2.68359 8.20454C5.58233 8.65419 8.20124 7.19511 9.68979 3.71375C14.4295 7.27713 18.7285 15.0921 18.7233 18.4835C10.3853 10.6822 9.39951 16.7852 2.68359 8.20454Z" fill="#B3B3B3"/>
<path d="M29.1539 2.62976C28.6993 5.49572 30.1751 8.08467 33.6962 9.55694C30.0915 14.2433 22.1878 18.4938 18.7578 18.4886C26.6476 10.2446 20.4757 9.2696 29.1539 2.62976Z" fill="#B3B3B3"/>
<path d="M54.6857 18.112C54.5464 17.6982 54.5271 17.4778 54.6277 17.4507C55.1304 17.4778 55.6137 17.6324 56.0778 17.9225C56.7699 18.4252 56.913 19.0362 56.5109 19.7516C56.4219 19.8908 56.5302 19.9604 56.8318 19.9604H58.7537C59.0553 19.9604 59.268 19.7709 59.3956 19.3958C59.4961 19.0053 59.5696 18.6147 59.6199 18.228C59.6431 17.8142 59.8519 17.6324 60.2425 17.6827C60.6678 17.7717 61.0971 17.8761 61.5224 18.0037C61.8975 18.2048 62.0947 18.3362 62.1063 18.3981C62.1179 18.5876 62.0135 18.6998 61.7854 18.7384C61.6346 18.7887 61.5108 18.8583 61.4103 18.9472C61.2092 19.1599 61.0004 19.3494 60.7877 19.5118C60.4474 19.7632 60.2966 19.9024 60.3353 19.9256C61.0391 19.9643 61.7622 19.9759 62.5046 19.9643C62.8179 19.9643 63.1195 19.7825 63.4095 19.419L63.8233 18.8931C64.1752 18.5296 64.4072 18.3517 64.5193 18.3672C65.0452 18.6688 65.5479 19.071 66.0274 19.5737C66.3909 20.0262 66.5533 20.2852 66.5185 20.3471C66.4567 20.4206 66.2285 20.4593 65.8418 20.4593H50.896L50.2928 20.5714C49.8906 20.6333 49.647 20.5405 49.5581 20.2891C49.4846 19.9759 49.6702 19.8367 50.1227 19.8753C50.3469 19.8869 50.5944 19.9179 50.8574 19.9681H54.6818C54.9834 19.9681 55.0917 19.9063 55.0027 19.7787C54.8249 19.566 54.7514 19.2991 54.7785 18.9859C54.8171 18.6727 54.7862 18.3827 54.6857 18.1197V18.112ZM56.9865 3.67622C56.9865 3.27404 57.1605 3.08069 57.5124 3.09229C57.9532 3.10389 58.4173 3.1735 58.9084 3.30111C59.1984 3.33978 59.384 3.45193 59.4729 3.64141C59.4729 3.79223 59.3724 3.90051 59.1713 3.96238C59.0205 4.02425 58.947 4.206 58.947 4.50763V9.91765C58.947 10.2309 59.0978 10.3894 59.3995 10.3894H63.2432C63.5564 10.3894 63.715 10.2386 63.715 9.93699V9.46521C63.715 9.15198 63.5642 8.99343 63.2626 8.99343H62.4505C62.1373 8.99343 61.9787 9.07463 61.9787 9.23705C61.9903 9.80164 61.65 10.0491 60.9617 9.97179C60.548 9.89832 60.3662 9.67016 60.4165 9.29506C60.4165 9.15584 60.2579 9.09397 59.9447 9.10557C59.616 9.14424 59.4111 9.0437 59.3221 8.80394C59.2719 8.54098 59.2719 8.39403 59.3221 8.37083L59.964 8.4095C60.2657 8.43657 60.4165 8.26642 60.4165 7.89905C60.4165 7.53168 60.285 7.35766 60.022 7.37313C59.6934 7.4118 59.4961 7.31125 59.4188 7.0715C59.3685 6.78147 59.5116 6.64999 59.8519 6.67706C60.2309 6.71573 60.4165 6.55331 60.4165 6.18594C60.4165 5.81857 60.2657 5.62522 59.964 5.64068C59.6624 5.67935 59.4729 5.57108 59.3995 5.31972C59.3608 5.05676 59.5116 4.92914 59.8519 4.94461C60.2309 4.98328 60.4165 4.85567 60.4165 4.56564V4.05519C60.4165 3.65301 60.6098 3.46353 61.0004 3.4906C61.3909 3.54087 61.797 3.61048 62.2262 3.69942C62.4892 3.83863 62.4853 4.00105 62.2069 4.19054C62.0561 4.36842 61.9826 4.55017 61.9826 4.73579C61.9826 4.96008 62.1257 4.91754 62.4157 4.60431C62.6902 4.29108 62.8604 4.12866 62.9261 4.11319C62.988 4.14026 63.1465 4.27561 63.3979 4.52697C63.6106 4.817 63.7189 4.77059 63.7189 4.39549V3.88504C63.7189 3.48286 63.9122 3.30111 64.3028 3.33978C65.1303 3.42872 65.7181 3.56407 66.0545 3.75356C66.0932 3.81543 66.0468 3.94691 65.923 4.148C65.7219 4.39936 65.6214 4.65845 65.6214 4.92141V10.2C65.7722 10.8419 65.5209 11.2325 64.8673 11.3678C64.5038 11.4297 64.1442 11.3253 63.7923 11.0468C63.715 10.9347 63.541 10.8767 63.2664 10.8767H52.7096C52.408 10.8767 52.2456 10.9386 52.2185 11.0662C52.0793 11.5457 51.6926 11.7429 51.0507 11.6694C50.4243 11.596 50.1729 11.2479 50.2967 10.6331V3.88117C50.2967 3.479 50.49 3.29724 50.8806 3.33591C51.7081 3.42486 52.2959 3.5602 52.6323 3.74969C52.671 3.81156 52.6207 3.94304 52.4815 4.14413C52.292 4.39549 52.1992 4.65458 52.1992 4.91754V9.91379C52.1992 10.227 52.35 10.3856 52.6516 10.3856H56.5147C56.8279 10.3856 56.9865 10.2348 56.9865 9.93312V9.46134C56.9865 9.19838 56.8241 9.0669 56.4954 9.0669H55.664C55.3624 9.0669 55.2038 9.16744 55.1922 9.36853C55.0801 9.97179 54.6199 10.1303 53.8156 9.84031C53.6764 9.73977 53.6145 9.56962 53.6261 9.32986C53.6261 9.20612 53.4637 9.15584 53.135 9.17905C52.8218 9.21772 52.6207 9.10944 52.5318 8.85808C52.4699 8.59512 52.6246 8.46751 53.0035 8.48297L53.1737 8.50231C53.4753 8.51391 53.6261 8.33989 53.6261 7.97639C53.6261 7.61289 53.4637 7.435 53.135 7.45047C52.8063 7.48914 52.6091 7.38086 52.5318 7.1295C52.4815 6.87814 52.6516 6.7544 53.0422 6.7544C53.4328 6.78147 53.6261 6.62292 53.6261 6.28262C53.6261 5.94231 53.4637 5.7799 53.135 5.7915C52.8063 5.83017 52.6091 5.72189 52.5318 5.47053C52.4815 5.21917 52.4815 5.07996 52.5318 5.05676C52.7445 5.05676 52.9571 5.07609 53.1737 5.11476C53.4753 5.12636 53.6261 4.98328 53.6261 4.68165V4.05905C53.6261 3.65688 53.8195 3.46739 54.21 3.49446C54.3724 3.50606 54.5542 3.537 54.7553 3.58727C55.2309 3.66461 55.5016 3.73809 55.5673 3.81156C55.606 3.90051 55.5557 4.02425 55.4165 4.19054C55.2657 4.36842 55.1922 4.57337 55.1922 4.81313C55.1922 5.05289 55.343 5.02582 55.6447 4.73966C55.9347 4.42643 56.1164 4.27561 56.1899 4.28721C56.2788 4.33748 56.3987 4.4767 56.5495 4.70099C56.8395 5.12636 56.9826 5.1805 56.9826 4.8518V3.68395L56.9865 3.67622ZM62.9609 11.3446C63.0847 11.043 63.2935 10.9734 63.5835 11.1358C64.2602 11.4993 64.9137 12.0136 65.5441 12.6826C65.5673 12.9069 65.343 12.9842 64.8673 12.9069H51.6114L51.0275 12.9804C50.637 13.0074 50.4049 12.8914 50.3315 12.6401C50.2541 12.3771 50.4204 12.265 50.8226 12.2998C51.0623 12.3114 51.3175 12.3423 51.596 12.3926H61.7931C62.1566 12.4931 62.4041 12.3926 62.5278 12.0909C62.6516 11.8396 62.7985 11.5882 62.9609 11.3369V11.3446ZM52.3307 14.2101C52.3307 13.8079 52.5202 13.6494 52.8953 13.7383C53.2201 13.8389 53.5488 13.9626 53.8736 14.1173C53.9973 14.1908 54.2139 14.2294 54.5155 14.2294H61.3213C61.623 14.2294 61.8743 14.1057 62.0754 13.8543C62.2881 13.6416 62.5974 13.6107 62.9996 13.7615C63.4018 13.9394 63.8349 14.1869 64.2989 14.5156C64.6121 14.7902 64.5077 15.0415 63.9779 15.2697C63.9277 15.3586 63.9045 15.552 63.9045 15.8536C63.9161 16.3447 63.9045 16.8513 63.8658 17.3811C63.5139 17.8065 63.0189 17.9573 62.377 17.8335C62.1373 17.7446 62.0058 17.5899 61.9826 17.3617C61.9555 17.2612 61.8047 17.2109 61.5302 17.2109H54.7243C54.4227 17.2109 54.241 17.3037 54.1791 17.4932C53.8388 17.9457 53.3322 18.1042 52.6516 17.965C52.3616 17.8761 52.2572 17.5938 52.3307 17.1181V14.214V14.2101ZM54.8171 14.7205C54.442 14.7708 54.2526 14.9448 54.2526 15.2465V16.2442C54.2526 16.5574 54.4034 16.716 54.705 16.716H61.5108C61.824 16.716 61.9826 16.5651 61.9826 16.2635V15.2271C61.9826 14.8868 61.8202 14.7167 61.4915 14.7167H54.821L54.8171 14.7205ZM56.9865 6.05059C56.9865 5.71029 56.9556 5.57494 56.8937 5.63682C56.4915 5.67549 56.0816 5.68709 55.6679 5.67549C55.3546 5.67549 55.1961 5.86497 55.1961 6.24008C55.1961 6.61518 55.227 6.8124 55.2889 6.824C55.3624 6.824 55.5519 6.66159 55.8535 6.33289C56.1435 6.01966 56.4142 5.98098 56.6655 6.22074C56.8782 6.52237 56.9865 6.46437 56.9865 6.05059ZM56.9865 7.86038C56.9865 7.50847 56.8434 7.33446 56.5534 7.33446H55.6679C55.3546 7.33446 55.1961 7.53554 55.1961 7.93772C55.1961 8.33989 55.2193 8.55258 55.2696 8.57965C55.3314 8.56805 55.5016 8.3979 55.78 8.0692C56.07 7.45434 56.4065 7.51621 56.797 8.25868C56.8473 8.3863 56.8976 8.43657 56.9478 8.4095C56.971 8.35923 56.9865 8.17748 56.9865 7.86424V7.86038ZM63.715 5.89978C63.715 5.64842 63.5526 5.5208 63.2239 5.5208H62.4505C62.1373 5.5208 61.9787 5.71416 61.9787 6.10473C61.9787 6.53011 62.1102 6.59585 62.3732 6.29422C62.6477 5.99259 62.8179 5.84177 62.8836 5.84177C62.9571 5.89204 63.0963 6.04286 63.2974 6.29422C63.5719 6.69639 63.7111 6.73506 63.7111 6.40636V5.89591L63.715 5.89978ZM63.715 7.67089C63.715 7.30739 63.6879 7.14884 63.6415 7.19911C63.5796 7.23778 63.3592 7.25712 62.9803 7.25712H62.4544C62.1411 7.25712 61.9826 7.40793 61.9826 7.70956V8.0692C61.9826 8.4327 62.1566 8.42883 62.5085 8.04986C62.8101 7.70956 62.9841 7.54715 63.0344 7.55875C63.2974 7.74823 63.4946 7.96092 63.6183 8.20068C63.6802 8.21228 63.7111 8.03826 63.7111 7.67089H63.715Z" fill="black"/>
<path d="M83.5992 3.07296C83.7501 2.81 83.9318 2.74813 84.1445 2.88347C84.6975 3.23538 85.2002 3.64528 85.6526 4.10933C86.0161 4.58885 86.1669 4.85181 86.105 4.90208C86.0161 4.96395 85.7841 4.99489 85.409 4.99489H79.1136C78.8352 4.99489 78.8622 5.0645 79.1871 5.20371C79.6395 5.428 79.8715 5.58268 79.8831 5.65616C79.8328 5.89592 79.713 6.00806 79.5235 5.99646C79.3843 6.04673 79.2605 6.12407 79.1445 6.22075C78.8545 6.51078 78.5683 6.766 78.2783 6.99416C77.938 7.24552 77.9148 7.36926 78.2048 7.36926H80.525C80.8266 7.36926 81.1089 7.24939 81.3719 7.00963C81.6348 6.75827 82.0061 6.72733 82.4856 6.91682C83.2009 7.26872 83.665 7.57809 83.8815 7.84105C83.9318 8.06534 83.7617 8.27416 83.3711 8.46364C83.3324 8.55259 83.3131 8.73434 83.3131 9.0089V12.9494C83.4639 13.6532 83.1352 14.0631 82.3347 14.1753C81.6696 14.3145 81.3293 14.0554 81.3177 13.4019C81.3177 13.1776 81.1669 13.0616 80.8653 13.0616H79.9991C79.6859 13.0616 79.5273 13.2124 79.5273 13.514V19.5273C79.2644 20.6836 78.5799 21.2598 77.474 21.2598C77.095 21.2714 76.8321 21.0896 76.6813 20.7145C76.3796 20.2118 76.0084 19.8869 75.5676 19.7361C75.2389 19.6472 75.0455 19.566 74.9837 19.4925C74.9218 19.3804 74.9411 19.2837 75.0417 19.2102C75.2157 19.1831 75.5173 19.1909 75.9465 19.2295L76.6078 19.2682C76.9481 19.2682 77.153 19.2489 77.2304 19.2102C77.4199 19.0207 77.4817 18.7848 77.4199 18.4948V13.5372C77.4199 13.224 77.269 13.0654 76.9674 13.0654H76.4222C76.1206 13.0654 75.962 13.1273 75.9504 13.2549C75.9001 13.7963 75.5792 14.0902 74.9875 14.1405C74.2064 14.3184 73.8584 14.0206 73.9319 13.2549V7.16818C73.9319 6.7544 74.1252 6.59585 74.5158 6.6964C74.9179 6.78534 75.3472 6.94776 75.7957 7.18751C75.9968 7.31513 76.2211 7.377 76.4725 7.377C76.7238 7.377 76.9133 7.18751 77.037 6.81241C77.1492 6.38703 77.2304 5.95005 77.2806 5.51308C77.3193 5.17277 77.1917 5.00262 76.9017 5.00262H72.5862C72.2729 5.00262 72.1144 5.15344 72.1144 5.45507V9.37627C72.0525 11.8899 71.8128 14.0245 71.399 15.784C70.8963 17.9341 69.9489 19.5853 68.5529 20.7416C68.4137 20.7648 68.4215 20.5637 68.5723 20.1383C69.1987 18.5683 69.6009 16.5961 69.7788 14.2178C69.918 12.9224 70.003 11.4529 70.0417 9.80551V4.20601C70.0417 3.78063 70.2351 3.63368 70.6256 3.7729L71.9056 4.33749C72.1067 4.43803 72.358 4.4883 72.6596 4.4883H81.9133C82.327 4.63912 82.6905 4.4187 83.0076 3.82704C83.1855 3.57568 83.3788 3.32432 83.5915 3.07296H83.5992ZM73.5336 14.9835C73.6341 14.5697 73.8777 14.4112 74.2683 14.5117C74.6937 14.6509 75.1229 14.8134 75.5483 15.0028C76.0123 15.3045 76.2404 15.494 76.225 15.5674C76.1747 15.7685 76.0316 15.8691 75.7919 15.8691C75.6643 15.8691 75.4593 16.0624 75.1693 16.453C74.0517 18.0114 72.8143 19.1715 71.457 19.9411C71.0549 20.1422 70.8267 20.2234 70.7803 20.1847C70.7687 20.1344 70.904 19.9217 71.1941 19.5428C72.2729 18.2241 73.0541 16.7044 73.5297 14.9796L73.5336 14.9835ZM81.3177 8.36697C81.3177 8.02667 81.1553 7.85651 80.8266 7.85651H76.5111C76.1322 7.90679 75.9465 8.0808 75.9465 8.38244V9.51162C75.9465 9.82485 76.0974 9.9834 76.399 9.9834H80.846C81.1592 9.9834 81.3177 9.83258 81.3177 9.53095V8.3631V8.36697ZM81.3177 11.0082C81.3177 10.6679 81.1785 10.4977 80.904 10.4977H76.4183C76.1051 10.4977 75.9465 10.6485 75.9465 10.9502V12.0987C75.9465 12.4119 76.0974 12.5705 76.399 12.5705H80.846C81.1592 12.5705 81.3177 12.4196 81.3177 12.118V11.0043V11.0082ZM80.3935 14.8714C80.4438 14.7824 80.6565 14.7786 81.0355 14.852C81.9519 15.0299 82.8955 15.4553 83.8622 16.132C85.0803 17.0988 85.6255 18.0733 85.5018 19.0555C85.2504 19.9488 84.6781 20.1924 83.7849 19.7903C83.4562 19.5505 83.2899 19.2373 83.2744 18.8467C82.9612 17.4275 82.1955 16.2596 80.9736 15.3393C80.5714 15.0995 80.3781 14.9448 80.3897 14.8675L80.3935 14.8714Z" fill="black"/>
<path d="M87.481 8.19682C87.5196 8.08468 87.7323 8.07308 88.1229 8.15815C88.5869 8.2703 89.0509 8.46752 89.5188 8.74208C90.4469 9.35694 90.7756 10.0994 90.4972 10.9656C90.2845 11.6578 89.7934 11.9015 89.0277 11.7004C88.5869 11.4761 88.3549 11.0971 88.3317 10.5712C88.409 10.0066 88.2892 9.44202 87.9721 8.87356C87.6434 8.48298 87.481 8.2587 87.481 8.19682ZM95.1336 3.10777C95.1839 3.03043 95.3966 3.02656 95.7756 3.08843C96.2512 3.18898 96.7887 3.36686 97.3765 3.61435C97.7554 3.86571 97.9488 4.02813 97.9604 4.10547C98.0107 4.25629 97.8908 4.3839 97.6008 4.48444C97.3262 4.43417 97.129 4.59272 97.0169 4.95622C96.8892 5.15731 96.7926 5.37773 96.7152 5.61749C96.6031 5.91912 96.6959 6.06994 96.9975 6.06994H101.031C101.332 6.06994 101.607 5.91912 101.862 5.61749C102.113 5.24239 102.407 4.88275 102.748 4.54245C102.825 4.51925 103.042 4.60432 103.409 4.80541C104.124 5.3468 104.615 5.84178 104.878 6.29423C104.878 6.58426 104.654 6.67707 104.202 6.57652H96.7771C96.4755 6.57652 96.2241 6.76601 96.023 7.14111C95.1182 9.05144 93.8382 10.6331 92.1793 11.8899C91.8893 12.0291 91.6766 12.292 91.5374 12.6826C91.3595 13.1235 91.2048 13.5798 91.0656 14.0593C90.6403 15.0763 90.5204 16.0702 90.706 17.0369C90.8297 17.5396 90.9767 18.0424 91.1391 18.5451C91.3634 19.3765 91.2628 20.1267 90.8375 20.8073C90.358 21.2984 89.863 21.3835 89.3487 21.0703C89.0471 20.8692 88.846 20.4747 88.7455 19.8831C88.7184 19.4577 88.7764 18.8506 88.9156 18.0733C88.9891 17.7214 88.9968 17.1955 88.9349 16.4917C88.8731 16.1011 88.614 15.7453 88.1615 15.4166C87.7594 15.1537 87.5583 14.9912 87.5583 14.9255C87.5699 14.852 87.7787 14.8366 88.1809 14.8868C88.7339 15.0995 89.1089 14.9642 89.31 14.4731C90.4392 12.2108 91.5915 9.9486 92.7593 7.68637C92.9604 7.31126 93.0996 7.10244 93.1731 7.06377C93.2968 7.07537 93.3046 7.2842 93.1924 7.68637L92.1561 10.8342C92.0285 11.2363 92.0865 11.2866 92.3262 10.985C93.7841 8.71114 94.7199 6.08541 95.1336 3.10777ZM89.0625 3.33593C89.0741 3.23538 89.3332 3.19671 89.8359 3.22378C90.9805 3.31272 91.8467 3.83478 92.4384 4.78994C92.5776 5.33133 92.5467 5.79538 92.3456 6.18595C92.1832 6.43731 91.9512 6.58812 91.6495 6.6384C91.2474 6.71187 90.9032 6.58812 90.6132 6.26329C90.4353 6.01193 90.2922 5.59042 90.1801 4.99876C90.0679 4.57338 89.8514 4.19441 89.5382 3.86958C89.225 3.57955 89.0664 3.40553 89.0664 3.34366L89.0625 3.33593ZM99.8823 11.2325C100.296 10.869 100.536 10.6872 100.598 10.6872C101.313 10.9772 101.955 11.391 102.52 11.9324C102.709 12.1722 102.628 12.3578 102.276 12.497C102.086 12.5859 101.974 12.6555 101.936 12.7058C101.862 14.1869 102.117 15.7531 102.709 17.4004C102.91 17.9263 103.235 18.3865 103.687 18.7771C103.877 18.8158 104.02 18.7346 104.12 18.5335C104.36 18.0694 104.604 17.4082 104.855 16.5535C104.917 16.5033 104.979 16.4801 105.045 16.4801C105.107 16.5303 105.137 16.743 105.137 17.122L105.064 18.4407C104.902 19.0555 105.064 19.6047 105.555 20.0803C105.907 20.8073 105.687 21.2443 104.894 21.3796C103.235 21.4028 101.905 20.4051 100.899 18.3827C100.184 16.8242 99.8513 14.8714 99.9016 12.5202C99.9016 12.1799 99.7392 12.0097 99.4105 12.0097H94.8862L94.3023 12.1026C93.9001 12.2031 93.6681 12.1142 93.6062 11.8396C93.5443 11.5496 93.7145 11.4181 94.1166 11.4452L94.8127 11.5225H99.0547C99.3564 11.5225 99.6309 11.4297 99.8823 11.2402V11.2325ZM100.563 8.34764C100.837 7.97253 101.147 7.60129 101.487 7.23392C101.561 7.22232 101.789 7.32287 102.164 7.53555C102.891 8.07694 103.378 8.59126 103.614 9.08238C103.525 9.29507 103.27 9.36467 102.84 9.2912H96.866L96.2628 9.38401C95.8606 9.44588 95.617 9.36081 95.5281 9.12105C95.4507 8.80782 95.6364 8.6686 96.0733 8.70727L96.7887 8.78075H99.7276C100.041 8.78075 100.319 8.63767 100.559 8.34764H100.563Z" fill="black"/>
<path d="M114.905 3.42878C114.905 3.04981 115.095 2.88353 115.47 2.91833C115.911 2.957 116.348 3.01114 116.789 3.08848C117.241 3.10008 117.523 3.27023 117.636 3.59893C117.674 3.74975 117.562 3.87736 117.295 3.9779C116.994 4.09005 116.893 4.46129 116.994 5.09162C116.994 5.40485 117.144 5.5634 117.446 5.5634H119.933C120.385 5.69101 120.745 5.47059 121.008 4.90213L121.309 4.52703C121.688 4.08618 121.92 3.87349 122.005 3.88509C122.608 4.17512 123.212 4.66624 123.815 5.35458C124.055 5.70648 124.148 5.91917 124.097 5.99651C124.008 6.03518 123.784 6.05452 123.421 6.05452H117.465C117.152 6.05452 116.994 6.20533 116.994 6.50696V7.73282C116.994 8.04605 117.144 8.2046 117.446 8.2046L119.782 8.18527C119.832 8.16206 119.921 8.07312 120.045 7.92231C120.385 7.46986 120.605 7.23784 120.706 7.22624C121.421 7.41572 122.113 7.77923 122.779 8.32061C122.953 8.5449 122.852 8.75373 122.477 8.94321C122.299 9.05536 122.214 9.26418 122.214 9.56581V14.4654C122.326 15.3432 121.885 15.7956 120.895 15.8227C120.304 15.7995 120.049 15.5017 120.122 14.9372C120.122 14.6974 119.971 14.5775 119.67 14.5775H117.465C117.152 14.5775 116.994 14.7283 116.994 15.03V16.3293C116.994 16.6425 117.144 16.8011 117.446 16.8011H120.764C121.216 16.9287 121.576 16.7083 121.839 16.1398L122.121 15.7608C122.473 15.3355 122.694 15.1189 122.782 15.1189C123.347 15.3432 123.962 15.8227 124.631 16.5497C124.882 16.9248 124.975 17.1453 124.913 17.211C124.851 17.2613 124.623 17.2845 124.236 17.2845H117.469C117.156 17.2845 116.998 17.4353 116.998 17.7369V20.092C117.098 20.6681 116.924 21.0781 116.472 21.3178C115.806 21.5305 115.296 21.3913 114.944 20.904C114.917 20.8151 114.905 20.5831 114.905 20.208V17.7562C114.905 17.443 114.755 17.2845 114.453 17.2845H108.308L107.686 17.3966C107.284 17.4585 107.04 17.3541 106.951 17.0756C106.913 16.7856 107.083 16.6619 107.462 16.7005C107.701 16.7121 107.957 16.7431 108.235 16.7933H114.438C114.751 16.7933 114.909 16.6425 114.909 16.3409V15.0416C114.909 14.7283 114.759 14.5698 114.457 14.5698H112.288C111.974 14.5698 111.816 14.6781 111.816 14.8908C111.804 15.4051 111.522 15.7028 110.969 15.7763C110.052 15.9774 109.639 15.6835 109.724 14.8908V8.01125C109.724 7.60907 109.917 7.46599 110.308 7.57814C110.733 7.69028 111.17 7.85657 111.607 8.06926C111.758 8.1582 111.986 8.20074 112.284 8.20074H114.434C114.747 8.20074 114.905 8.04992 114.905 7.74829V6.52243C114.905 6.2092 114.755 6.05065 114.453 6.05065H109.136L108.533 6.14346C108.131 6.21693 107.868 6.07385 107.74 5.71035L107.682 5.48606C107.705 5.43579 107.906 5.42805 108.285 5.46672C108.548 5.47832 108.811 5.50926 109.078 5.55953H114.43C114.743 5.55953 114.902 5.40872 114.902 5.10709V3.42878H114.905ZM112.438 8.68798L111.912 8.70732C111.851 8.74599 111.82 8.91614 111.82 9.21777V10.6679C111.82 10.9812 111.97 11.1397 112.272 11.1397H114.441C114.755 11.1397 114.913 10.9889 114.913 10.6873V9.15977C114.913 8.84653 114.762 8.68798 114.461 8.68798H112.442H112.438ZM114.905 12.1374C114.905 11.7971 114.766 11.627 114.492 11.627H112.288C111.974 11.627 111.816 11.7778 111.816 12.0794V13.5876C111.816 13.9008 111.967 14.0593 112.268 14.0593H114.438C114.751 14.0593 114.909 13.9085 114.909 13.6069V12.1374H114.905ZM120.126 9.1791C120.126 8.8272 119.925 8.66478 119.523 8.68798H117.469C117.156 8.68798 116.998 8.8388 116.998 9.14043V10.6679C116.998 10.9812 117.148 11.1397 117.45 11.1397H119.654C119.967 11.1397 120.126 10.9889 120.126 10.6873V9.1791ZM120.126 12.1374C120.126 11.7971 119.987 11.627 119.712 11.627H117.469C117.156 11.627 116.998 11.7778 116.998 12.0794V13.5876C116.998 13.9008 117.148 14.0593 117.45 14.0593H119.654C119.967 14.0593 120.126 13.9085 120.126 13.6069V12.1374Z" fill="black"/>
<path d="M134.453 3.61817C134.453 3.24307 134.642 3.05745 135.017 3.07291C135.771 3.12319 136.425 3.2508 136.978 3.45189C137.218 3.66458 137.152 3.8618 136.788 4.03581C136.637 4.09769 136.564 4.28717 136.564 4.6004V5.14566C136.564 5.45889 136.715 5.61744 137.016 5.61744H140.617C140.968 5.69478 141.243 5.59811 141.448 5.33515C141.873 4.79376 142.326 4.73188 142.805 5.14566C143.648 5.60971 144.193 6.02348 144.445 6.39085C144.507 6.58034 144.402 6.69248 144.124 6.73116C143.811 6.71955 143.494 6.86264 143.18 7.16427C142.353 7.76753 141.599 8.24318 140.918 8.59508C140.694 8.70722 140.574 8.67629 140.559 8.50227C140.57 8.37852 140.667 8.1581 140.841 7.841C141.03 7.42723 141.193 7.00572 141.332 6.57647C141.405 6.27484 141.293 6.12403 140.992 6.12403L129.739 6.14336C129.364 6.17043 129.136 6.36765 129.062 6.74662C128.935 7.41176 128.768 7.91061 128.552 8.23544C127.987 8.88898 127.376 8.98952 126.723 8.53707C126.32 8.18517 126.301 7.68245 126.665 7.02892C126.877 6.73889 127.117 6.55327 127.38 6.46433C128.107 5.87267 128.567 5.165 128.757 4.33358C128.819 4.31037 128.877 4.32198 128.927 4.37225C129.016 4.62361 129.07 4.87497 129.097 5.12632C129.136 5.42796 129.348 5.59037 129.739 5.61744H133.981C134.294 5.61744 134.453 5.46663 134.453 5.165V3.61817ZM132.132 7.02892C132.272 6.60354 132.515 6.41792 132.867 6.48366C133.293 6.561 133.741 6.68475 134.205 6.86264C134.507 6.93611 134.681 7.08693 134.731 7.31508C134.658 7.49297 134.553 7.56644 134.429 7.53937C134.302 7.56644 134.139 7.70952 133.938 7.97248C133.776 8.26251 133.846 8.40559 134.147 8.40559H136.618C137.044 8.51774 137.43 8.30505 137.767 7.76366C137.941 7.58578 138.091 7.52004 138.219 7.55484C138.934 7.98408 139.507 8.51774 139.936 9.1558C139.948 9.44583 139.785 9.58891 139.445 9.58891C139.182 9.58891 138.973 9.7668 138.822 10.1148C138.409 10.8186 137.948 11.4451 137.446 11.9981C137.117 12.3771 137.136 12.6516 137.504 12.8256C139.553 13.5797 141.757 13.9626 144.12 13.9742C144.193 14.036 144.232 14.094 144.232 14.1443C144.193 14.2062 143.989 14.3377 143.61 14.5388C143.219 14.8288 142.956 15.1227 142.817 15.4243C142.666 15.8381 142.573 16.0662 142.535 16.101C142.384 16.1513 142.109 16.132 141.707 16.043L141.444 16.0044C141.081 15.9541 140.953 16.0121 141.065 16.1745C141.255 16.364 141.216 16.5535 140.953 16.7391C140.64 16.8513 140.528 17.0987 140.613 17.4739V20.0184C140.787 20.7222 140.462 21.1244 139.634 21.2249C139.043 21.3873 138.687 21.2056 138.559 20.6796C138.548 20.3664 138.389 20.2079 138.088 20.2079H133.339C133.037 20.2079 132.879 20.2775 132.867 20.4167C132.817 21.0432 132.388 21.3719 131.587 21.3951C130.911 21.4337 130.64 21.1012 130.775 20.3974V16.3447C130.775 16.043 130.586 15.9038 130.211 15.9309C128.463 16.1823 127.245 16.2828 126.552 16.2325C126.491 16.1823 126.464 16.1242 126.479 16.0624C128.351 15.7105 130.021 15.1884 131.494 14.4962C132.5 13.9819 133.254 13.5178 133.757 13.1002C134.159 12.7599 134.201 12.4157 133.888 12.0638C133.308 11.3214 132.91 10.7336 132.682 10.2927C132.531 9.97949 132.268 9.98335 131.889 10.3121C130.911 11.1164 129.955 11.7003 129.023 12.0638C128.521 12.2262 128.281 12.2572 128.308 12.1566C130.381 10.459 131.657 8.74589 132.132 7.00958V7.02892ZM136.243 14.0979C135.829 13.8233 135.439 13.804 135.075 14.0399C134.371 14.4923 133.575 14.9023 132.682 15.2658C132.368 15.3934 132.318 15.5055 132.531 15.6061C132.771 15.7453 133.041 15.8149 133.343 15.8149H137.828C138.13 15.8149 138.362 15.7337 138.525 15.5713C138.664 15.3972 138.532 15.2194 138.13 15.0453C137.627 14.8327 137.125 14.5852 136.622 14.3106L136.247 14.1018L136.243 14.0979ZM138.54 16.8126C138.54 16.4723 138.378 16.3021 138.049 16.3021H133.354C133.026 16.3021 132.863 16.4607 132.863 16.7739V19.245C132.863 19.5582 133.014 19.7167 133.316 19.7167H138.064C138.378 19.7167 138.536 19.5659 138.536 19.2643V16.8126H138.54ZM133.548 8.91605C133.358 8.96632 133.196 9.05526 133.057 9.17901C132.917 9.32982 132.995 9.58891 133.281 9.95242C133.772 10.5054 134.259 10.9579 134.75 11.3098C135.091 11.5611 135.416 11.5186 135.729 11.1783C136.32 10.4513 136.765 9.72813 137.067 9.00886C137.055 8.94698 136.897 8.91605 136.595 8.91605H133.54H133.548Z" fill="black"/>
<path d="M148.382 12.0793C148.544 11.8279 148.734 11.7777 148.947 11.9285C149.326 12.1412 149.701 12.3809 150.076 12.6439C150.416 12.9571 150.52 13.2239 150.397 13.4366C150.207 13.6996 150.114 13.9587 150.114 14.21V16.9247C150.114 17.2264 150.215 17.5048 150.416 17.7561C151.143 18.3478 152.025 18.7113 153.053 18.8505C153.869 18.9743 154.793 19.0516 155.826 19.0748H158.599C160.145 19.0245 161.568 18.8737 162.875 18.6224C163.127 18.5721 163.301 18.5528 163.401 18.5644C163.513 18.6533 163.409 18.835 163.08 19.1096C162.465 19.651 162.183 20.3393 162.233 21.1824C162.133 21.2326 161.924 21.2636 161.611 21.2752L160.915 21.2945H158.803C155.799 21.2829 153.653 20.9929 152.357 20.4283C151.278 19.9488 150.354 19.0787 149.585 17.8064C149.322 17.4661 149.051 17.4932 148.773 17.8838C148.22 18.7616 147.709 19.6433 147.245 20.5211C147.056 20.9735 146.82 21.0354 146.53 20.7106C146.317 20.3819 146.12 20.0493 145.946 19.7129C145.756 19.2991 145.884 18.9472 146.325 18.6572C146.777 18.3826 147.237 17.9843 147.701 17.47C147.914 17.207 148.022 16.9286 148.022 16.6424V13.6068C148.022 13.2935 147.872 13.135 147.57 13.135C147.268 13.1234 146.959 13.1543 146.646 13.2278C146.244 13.2781 146.012 13.1775 145.95 12.9262C145.876 12.6632 146.043 12.5356 146.46 12.5472L147.423 12.64C147.725 12.64 148.046 12.4505 148.386 12.0754L148.382 12.0793ZM146.213 7.08692C146.263 7.03664 146.476 7.02891 146.855 7.06758C147.91 7.20679 148.769 7.67858 149.438 8.48293C149.662 8.85803 149.697 9.31821 149.531 9.8596C149.329 10.4126 148.95 10.6717 148.401 10.633C147.798 10.4706 147.477 10.138 147.439 9.63531C147.326 8.85803 147.087 8.2277 146.723 7.75205C146.383 7.37308 146.213 7.15652 146.213 7.09078V7.08692ZM146.742 3.33587C146.804 3.17345 147.067 3.13478 147.535 3.22372C148.162 3.2972 148.664 3.44801 149.043 3.67617C150.099 4.3297 150.374 5.15725 149.875 6.16269C149.546 6.50299 149.171 6.6422 148.746 6.57646C148.305 6.43725 148.042 6.13175 147.953 5.65224C147.852 4.89816 147.578 4.27169 147.125 3.76898C146.886 3.54469 146.762 3.39774 146.75 3.33587H146.742ZM152.926 3.46735C153.065 3.0033 153.208 2.9917 153.359 3.42868C153.436 3.79218 153.68 3.99327 154.094 4.03194H159.863C160.165 4.03194 160.373 4.001 160.486 3.93913C161 3.32426 161.448 3.18505 161.824 3.52535C162.752 4.02807 163.312 4.45731 163.502 4.80535C163.463 4.95616 163.351 5.03737 163.162 5.04897C163.049 5.04897 162.899 5.10698 162.709 5.21913C162.38 5.38154 162.048 5.57103 161.711 5.78372C161.433 5.9616 161.452 6.18589 161.769 6.46045L161.994 6.70408C162.295 7.10625 162.407 7.33827 162.334 7.40015C162.233 7.45042 161.994 7.47362 161.619 7.47362H158.32C158.007 7.47362 157.848 7.62444 157.848 7.92607V8.62214C157.848 8.93537 157.999 9.09392 158.301 9.09392H159.074C159.387 9.09392 159.616 9.00498 159.751 8.83096C159.913 8.65308 160.033 8.54093 160.111 8.49066C160.184 8.45199 160.455 8.52933 160.923 8.71495C161.65 9.06685 162.059 9.39942 162.148 9.71265C162.071 9.85187 161.905 9.99108 161.638 10.1264C161.611 10.1883 161.599 10.3701 161.599 10.6717V13.7267C161.773 14.4421 161.448 14.8326 160.621 14.8945C160.006 14.968 159.716 14.7205 159.755 14.1404C159.755 13.9664 159.604 13.8775 159.302 13.8775H158.324C158.011 13.8775 157.852 14.0283 157.852 14.3299V15.026C157.852 15.3392 158.003 15.4978 158.305 15.4978H160.227C160.567 15.5983 160.83 15.4978 161.019 15.1961C161.344 14.7437 161.646 14.4227 161.924 14.2332C162.326 14.4459 162.728 14.7669 163.131 15.1961C163.394 15.5751 163.521 15.7994 163.506 15.8729C163.444 15.9464 163.216 15.985 162.829 15.985H158.324C158.011 15.985 157.852 16.1358 157.852 16.4375V17.4158C157.926 18.371 157.481 18.7538 156.514 18.5644C156.302 18.5257 156.12 18.3865 155.969 18.1506C155.93 17.586 155.919 17.0214 155.93 16.4529C155.93 16.1397 155.78 15.9812 155.478 15.9812H152.33L151.727 16.0933C151.325 16.1552 151.081 16.0624 150.992 15.811C150.919 15.4978 151.104 15.3586 151.557 15.3972C151.781 15.4088 152.029 15.4398 152.292 15.49H155.459C155.772 15.49 155.93 15.3392 155.93 15.0376V14.3415C155.93 14.0283 155.78 13.8697 155.478 13.8697H154.763C154.461 13.8697 154.302 13.9626 154.291 14.152C154.128 14.7166 153.687 14.9641 152.972 14.8868C152.721 14.8249 152.562 14.7553 152.5 14.678C152.462 14.589 152.442 14.357 152.442 13.9819V9.04365C152.442 8.61827 152.636 8.45972 153.026 8.57187C153.328 8.64534 153.629 8.76522 153.931 8.9315C154.121 9.03205 154.364 9.08232 154.666 9.08232H155.459C155.772 9.08232 155.93 8.9315 155.93 8.62987V7.9338C155.93 7.62057 155.78 7.46202 155.478 7.46202H153.386L152.802 7.55483C152.4 7.6167 152.176 7.6051 152.125 7.51616C152.025 7.43882 151.847 7.35374 151.599 7.2532C151.058 6.81235 151.004 6.2787 151.429 5.65224C152.261 5.08765 152.759 4.3529 152.937 3.44801L152.926 3.46735ZM154.279 4.54239L153.997 4.58106C153.707 4.60813 153.571 4.82082 153.583 5.22299C153.571 5.5865 153.483 6.00801 153.32 6.48752C153.142 6.80075 153.243 6.9709 153.622 6.99797H155.451C155.764 6.99797 155.923 6.84716 155.923 6.54553V5.41635C155.923 4.99097 156.143 4.78988 156.584 4.81308C157.087 4.87496 157.589 4.95616 158.092 5.05671C158.556 5.21913 158.575 5.46662 158.15 5.79145C157.949 5.89199 157.848 6.12015 157.848 6.46819C157.848 6.81622 157.999 6.99411 158.301 6.99411C158.842 7.08305 159.229 6.99411 159.469 6.73115C159.782 6.2903 160.103 5.90359 160.431 5.56329C160.482 5.54009 160.544 5.36221 160.621 5.03737C160.66 4.71254 160.528 4.54626 160.227 4.54626H154.291L154.279 4.54239ZM154.882 9.59277C154.48 9.64304 154.279 9.80546 154.279 10.0839V10.7993C154.279 11.1125 154.43 11.2711 154.732 11.2711H155.447C155.76 11.2711 155.919 11.1203 155.919 10.8186V10.0646C155.919 9.75132 155.768 9.59277 155.466 9.59277H154.882ZM155.923 12.2494C155.923 11.9362 155.772 11.7777 155.47 11.7777H154.755C154.442 11.7777 154.283 11.9285 154.283 12.2301V12.9262C154.283 13.2394 154.434 13.398 154.735 13.398H155.451C155.764 13.398 155.923 13.2471 155.923 12.9455V12.2494ZM159.747 10.0646C159.747 9.72425 159.546 9.56957 159.144 9.59277H158.316C158.003 9.59277 157.844 9.74359 157.844 10.0452V10.7993C157.844 11.1125 157.995 11.2711 158.297 11.2711H159.275C159.588 11.2711 159.747 11.1203 159.747 10.8186V10.0646ZM159.747 12.2494C159.747 11.9362 159.596 11.7777 159.295 11.7777H158.316C158.003 11.7777 157.844 11.9285 157.844 12.2301V12.9262C157.844 13.2394 157.995 13.398 158.297 13.398H159.275C159.588 13.398 159.747 13.2471 159.747 12.9455V12.2494Z" fill="black"/>
<path d="M166.213 3.1658C166.251 3.11553 166.456 3.1658 166.835 3.31662C167.261 3.4945 167.69 3.69172 168.115 3.91988C168.858 4.34526 169.445 4.20218 169.886 3.48677C170.111 3.01112 170.462 2.96472 170.942 3.35529C171.82 3.78067 172.349 4.20991 172.524 4.63529C172.524 4.7745 172.396 4.90985 172.148 5.04906C171.708 5.18828 171.545 5.48217 171.657 5.93462V19.4693C171.507 20.525 170.903 21.109 169.848 21.2211C169.445 21.2443 169.221 21.0703 169.171 20.6913C169.02 20.1886 168.691 19.8174 168.193 19.5776C167.891 19.5505 167.748 19.4075 167.759 19.1445C167.821 19.0942 168.042 19.0672 168.421 19.0672C168.885 19.0904 169.233 19.0401 169.457 18.9163C169.619 18.7655 169.681 18.5142 169.646 18.1623V13.6765C169.646 13.3632 169.496 13.2047 169.194 13.2047H168.421C168.119 13.2047 167.949 13.3942 167.91 13.7693C167.81 14.8869 167.667 15.8304 167.477 16.5961C167.164 18.1275 166.572 19.5119 165.706 20.7416C165.416 21.0664 165.234 21.2327 165.161 21.2327C165.099 21.1708 165.118 20.9504 165.219 20.5715C165.81 17.6441 166.131 14.1173 166.182 9.9989V3.7884C166.182 3.4133 166.193 3.20447 166.22 3.1658H166.213ZM169.643 9.50005C169.643 9.15975 169.503 8.9896 169.229 8.9896H168.645C168.343 8.9896 168.181 9.14042 168.154 9.44205C168.127 10.3856 168.08 11.3253 168.003 12.2689C168.003 12.5705 168.154 12.7213 168.455 12.7213H169.171C169.484 12.7213 169.643 12.5705 169.643 12.2689V9.49619V9.50005ZM169.643 5.14574C169.643 4.79384 169.484 4.61982 169.171 4.61982H168.645C168.332 4.61982 168.173 4.77064 168.173 5.07227V8.01123C168.173 8.32446 168.324 8.48302 168.626 8.48302H169.171C169.484 8.48302 169.643 8.3322 169.643 8.03057V5.14574ZM178.726 11.7971C179.016 11.5225 179.38 11.4529 179.82 11.5883C180.563 11.8783 181.085 12.2186 181.387 12.6053C181.476 12.8799 181.344 13.0655 180.992 13.1506C180.791 13.2395 180.629 13.4715 180.501 13.8466C180.076 14.9526 179.472 16.0161 178.691 17.0331C178.452 17.3347 178.521 17.5938 178.9 17.8065C179.967 18.3595 181.035 18.7346 182.106 18.9357C182.496 18.986 182.728 19.0362 182.802 19.0865C182.875 19.187 182.659 19.3301 182.141 19.5196C181.414 19.8986 180.915 20.4748 180.652 21.2521C180.602 21.2907 180.373 21.2327 179.975 21.0819C179.02 20.6024 178.142 20.0339 177.338 19.3649C176.947 19.013 176.572 18.9628 176.209 19.2141C174.863 20.119 173.421 20.73 171.874 21.0432C171.495 21.0935 171.278 21.1051 171.213 21.0819C171.186 21.02 171.363 20.8886 171.739 20.6875C173.119 20.0339 174.356 19.2296 175.451 18.2744C175.752 17.9844 175.776 17.6518 175.528 17.2767C174.898 16.0973 174.38 14.7129 173.962 13.1312C173.935 12.8296 173.738 12.6865 173.359 12.6981L172.833 12.7716C172.442 12.8219 172.21 12.729 172.137 12.4893C172.075 12.2147 172.237 12.0794 172.628 12.0949C172.891 12.1065 173.154 12.1374 173.421 12.1877H177.926C178.227 12.1877 178.498 12.0562 178.738 11.7932L178.726 11.7971ZM173.715 3.86188C173.715 3.4481 173.908 3.30889 174.298 3.4481C174.724 3.59892 175.153 3.76907 175.578 3.95855C175.818 4.14804 176.29 4.19058 176.994 4.09003C177.346 3.73813 177.678 3.48677 177.991 3.33595C178.092 3.32435 178.363 3.45583 178.803 3.7304C179.279 3.99336 179.581 4.28339 179.708 4.59662C179.708 4.70876 179.658 4.80931 179.557 4.89825C179.407 4.98719 179.333 5.17668 179.333 5.46284V8.15818C179.171 8.81172 179.457 9.11335 180.199 9.06307C180.4 9.03987 180.621 8.9896 180.861 8.91226C181.112 8.69957 181.321 8.28966 181.483 7.6864C181.646 7.3113 181.758 7.12181 181.824 7.12181C181.998 7.24942 182.056 7.52398 181.994 7.95323C181.982 8.44434 182.117 8.80785 182.407 9.04761C182.848 9.36084 182.933 9.77461 182.67 10.2928C182.017 10.8574 180.892 11.1049 179.298 11.0275C178.784 10.9773 178.32 10.8342 177.902 10.5944C177.589 10.3431 177.4 9.96797 177.338 9.46525V5.0916C177.338 4.77837 177.187 4.61982 176.885 4.61982H176.282C175.903 4.68169 175.71 4.90211 175.698 5.28109C175.687 6.04677 175.64 6.83178 175.567 7.63613C175.377 9.36857 174.36 10.6099 172.512 11.3485C172.133 11.4375 171.928 11.4568 171.889 11.4065C172.102 11.132 172.342 10.8458 172.605 10.5596C172.995 10.1072 173.258 9.60446 173.397 9.05147C173.622 7.74441 173.73 6.01583 173.718 3.86961L173.715 3.86188ZM178.424 13.1738C178.486 12.8489 178.363 12.6826 178.046 12.6826H174.805C174.503 12.6826 174.414 12.8721 174.542 13.2472C174.944 14.2411 175.598 15.2078 176.503 16.1514C176.804 16.4144 177.087 16.3525 177.349 15.9619C177.875 15.1073 178.235 14.1792 178.424 13.1738Z" fill="black"/>
<path d="M187.264 3.65683C187.325 3.27785 187.604 3.10384 188.091 3.13091C188.617 3.21985 189.12 3.36293 189.599 3.56402C189.924 3.66456 190.125 3.79604 190.202 3.95846C190.202 4.28716 189.978 4.46891 189.526 4.50371C189.475 4.55398 189.425 4.66226 189.375 4.82468C189.1 5.65223 188.795 6.50298 188.47 7.3692C188.358 7.67084 188.4 7.87192 188.602 7.97247C189.104 8.11168 189.205 8.3321 188.903 8.63373C188.702 8.84642 188.602 9.10552 188.602 9.40715V20.7724C188.424 21.3138 187.998 21.5343 187.322 21.4337C186.668 21.3564 186.397 20.9542 186.51 20.2272V11.4992C186.51 11.1744 186.347 11.2247 186.018 11.65C185.705 12.029 185.342 12.4235 184.924 12.8372C184.433 13.1891 184.178 13.3283 184.151 13.251C184.124 13.1737 184.244 12.9378 184.51 12.5356C186.181 9.89826 187.097 6.93609 187.264 3.65683ZM191.885 4.86335C191.885 4.3877 192.086 4.14794 192.488 4.14794C192.913 4.17501 193.362 4.22142 193.826 4.29876C194.24 4.28716 194.51 4.42637 194.638 4.71253C194.649 4.81308 194.564 4.92136 194.375 5.0335C194.197 5.08377 194.054 5.29646 193.942 5.67543C193.54 6.78141 193.118 7.70951 192.677 8.46358C191.962 9.77065 191.076 10.8573 190.021 11.7235C189.53 12.087 189.259 12.2494 189.209 12.2146C189.182 12.1528 189.301 11.9207 189.568 11.5186C190.964 9.46902 191.738 7.25319 191.888 4.86335H191.885ZM197.31 10.2695C197.612 9.9292 197.994 9.85573 198.458 10.0452C199.224 10.5093 199.723 10.8573 199.947 11.0816C200.237 11.4219 200.106 11.6926 199.553 11.8937C199.301 12.0948 199.209 12.377 199.27 12.7406C199.259 15.4282 198.95 17.6904 198.346 19.5272C197.944 20.4708 197.171 21.0354 196.026 21.2249C195.547 21.2481 195.28 21.0625 195.214 20.6603C195.152 20.2078 194.835 19.7825 194.271 19.3803C193.779 19.2411 193.617 19.0284 193.779 18.7384C193.841 18.7113 194.062 18.7113 194.441 18.7384C194.831 18.7616 195.218 18.7693 195.608 18.7577C196.274 18.7693 196.637 18.4561 196.703 17.8141C197.043 16.0662 197.206 14.0515 197.194 11.7622C197.217 11.2865 197.016 11.1164 196.591 11.2517H195.291C194.99 11.2517 194.82 11.4412 194.781 11.8163C194.642 14.1404 194.201 16.0894 193.462 17.6595C192.786 19.1057 191.73 20.173 190.295 20.8653C189.804 20.989 189.561 21.0083 189.561 20.9233C189.561 20.873 189.793 20.6216 190.257 20.1692C190.984 19.2914 191.521 18.2859 191.858 17.1529C192.333 15.695 192.643 13.8929 192.782 11.7429C192.793 11.4412 192.612 11.302 192.237 11.3291L192.012 11.3677C191.622 11.4296 191.397 11.3291 191.336 11.0661C191.262 10.7916 191.417 10.6639 191.807 10.6871C192.047 10.6871 192.302 10.7142 192.581 10.7645H196.39C196.703 10.7645 197.012 10.6021 197.314 10.2734L197.31 10.2695ZM196.974 3.54081C197.287 3.20051 197.627 3.21985 197.991 3.59882C198.582 3.92752 198.617 4.22915 198.103 4.50371C197.639 4.61586 197.608 5.06444 198.01 5.84172C198.803 7.3112 200.044 8.35531 201.741 8.97017C202.155 9.14805 202.364 9.25246 202.364 9.29113C201.912 9.56956 201.517 10.0723 201.177 10.7993C201.076 11.1783 200.999 11.391 200.953 11.4412C200.373 11.3175 199.746 10.8186 199.069 9.9524C198.064 8.62213 197.387 6.93609 197.035 4.90202C197.097 4.28716 196.614 4.12474 195.585 4.4109C195.172 4.47278 194.932 4.3877 194.87 4.14794C194.808 3.85791 195.021 3.73417 195.512 3.77284C196.227 3.92365 196.718 3.84631 196.981 3.54855L196.974 3.54081Z" fill="black"/>
<path d="M209.735 3.7304C209.847 3.27796 210.094 3.06913 210.469 3.10781C211.436 3.27022 212.101 3.48291 212.469 3.74974C212.619 3.97403 212.527 4.12484 212.186 4.20218C212.109 4.22925 211.954 4.44581 211.714 4.86345C211.602 5.06454 211.506 5.26563 211.432 5.46671C211.281 5.81862 211.339 5.99263 211.602 5.99263H216.823C217.248 6.14345 217.608 5.92303 217.898 5.33137C218.072 5.08001 218.269 4.82865 218.482 4.57729C218.721 4.18672 219.085 4.25246 219.576 4.76677C219.901 5.00653 220.249 5.31203 220.612 5.691C220.902 6.05451 221.034 6.28266 221.007 6.36774C220.956 6.45668 220.732 6.49922 220.33 6.49922H211.413C211.111 6.49922 210.852 6.6887 210.639 7.06381C210.098 7.89136 209.866 8.47142 209.943 8.79625C209.943 9.13655 210.094 9.30671 210.396 9.30671H215.315C215.666 9.35698 215.941 9.28737 216.142 9.09788C216.343 8.80785 216.567 8.53716 216.819 8.2858C216.881 8.2626 217.109 8.32834 217.496 8.49462C218.072 8.78465 218.574 9.09788 219.004 9.43819C219.344 9.89063 219.212 10.2 218.609 10.3624C218.358 10.5016 218.265 10.7646 218.327 11.1552V19.45C218.165 20.5173 217.546 21.109 216.479 21.2211C216.076 21.2443 215.806 21.0278 215.666 20.5599C215.516 20.1577 215.172 19.8135 214.63 19.5235C214.301 19.4229 214.127 19.3456 214.1 19.2992C213.988 19.187 214.027 19.0788 214.213 18.9782L215.663 18.9976C216.103 18.986 216.289 18.6766 216.227 18.0733V16.6967C216.227 16.3834 216.076 16.2249 215.775 16.2249H210.404C210.09 16.2249 209.932 16.3757 209.932 16.6773V20.0146C209.932 20.3897 209.92 20.6179 209.893 20.6913C209.564 21.2443 209.019 21.3951 208.254 21.1438C207.89 20.9427 207.759 20.5908 207.859 20.0881V11.7391C207.859 11.4375 207.677 11.4645 207.314 11.8126C206.486 12.6788 205.585 13.4213 204.619 14.0361C204.216 14.2604 203.996 14.3494 203.957 14.2991C203.946 14.2372 204.12 14.0168 204.483 13.6378C206.266 11.7275 207.673 9.52326 208.706 7.02127C208.857 6.66937 208.799 6.49535 208.536 6.49535H205.218L204.615 6.6075C204.201 6.64617 203.961 6.54949 203.899 6.3252C203.81 6.01197 203.992 5.87275 204.445 5.91143L205.141 5.9849H208.629C208.93 5.9849 209.151 5.79541 209.29 5.42031C209.468 4.85572 209.611 4.29113 209.723 3.72267L209.735 3.7304ZM216.196 9.8945C216.134 9.84423 215.957 9.81716 215.666 9.81716H210.407C210.094 9.81716 209.936 9.96797 209.936 10.2696V12.0987C209.936 12.412 210.086 12.5705 210.388 12.5705H215.759C216.073 12.5705 216.231 12.4197 216.231 12.1181C216.243 11.3756 216.231 10.637 216.192 9.8945H216.196ZM216.235 13.5527C216.235 13.2279 216.092 13.0616 215.802 13.0616H210.411C210.098 13.0616 209.94 13.2124 209.94 13.5141V15.2465C209.94 15.5597 210.09 15.7183 210.392 15.7183H215.763C216.076 15.7183 216.235 15.5675 216.235 15.2658V13.5489V13.5527Z" fill="black"/>
<path d="M223.435 3.88116C223.435 3.47898 223.625 3.31657 224 3.39004C224.413 3.51765 224.847 3.68394 225.299 3.90049C225.477 3.98943 225.713 4.03197 226.014 4.03197H226.768C227.07 4.03197 227.383 3.85022 227.712 3.48672C227.952 3.22376 228.265 3.24309 228.655 3.54472C229.309 3.87342 229.734 4.22146 229.935 4.60043C229.885 4.78992 229.758 4.90206 229.56 4.94073C229.336 5.06834 229.166 5.30037 229.05 5.6368C228.497 6.85493 227.87 8.08079 227.163 9.31051C227.163 9.41106 227.345 9.61214 227.708 9.91377C228.775 10.9076 229.417 11.8821 229.63 12.8334C229.943 14.067 229.73 15.1691 228.988 16.1513C228.458 16.6773 227.859 16.9634 227.178 16.9982C226.765 17.0098 226.552 16.8242 226.536 16.4336C226.525 16.0933 226.335 15.7376 225.972 15.3586C225.608 15.1188 225.427 15.1498 225.427 15.4514V20.467C225.299 21.0316 224.974 21.3216 224.448 21.3332C223.632 21.4105 223.292 21.0586 223.431 20.2775V3.88116H223.435ZM227.337 5.04901C227.375 4.70871 227.248 4.53856 226.958 4.53856H225.902C225.589 4.53856 225.43 4.68937 225.43 4.991V14.0941C225.43 14.4073 225.624 14.5891 226.014 14.6393C226.807 14.7669 227.302 14.6471 227.503 14.2797C227.867 13.7538 227.905 12.9223 227.615 11.7932C227.553 11.4413 227.364 11.0662 227.051 10.664C226.861 10.4126 226.699 10.1613 226.56 9.90991C226.335 9.60827 226.266 9.35692 226.351 9.15583C226.803 7.81009 227.128 6.44115 227.333 5.04514L227.337 5.04901ZM230.485 3.31656C230.535 3.26629 230.747 3.30496 231.126 3.42871C231.44 3.52925 231.753 3.67233 232.07 3.86182C232.383 4.03971 232.673 4.12478 232.936 4.12478H235.894C236.184 4.2756 236.598 4.02424 237.14 3.3707C237.542 3.45965 238.017 3.67233 238.57 4.01264C239.034 4.31427 239.293 4.53469 239.344 4.6739C239.344 4.78605 239.266 4.90593 239.119 5.03354C238.791 5.17276 238.675 5.43571 238.76 5.82629V10.896C238.884 11.4877 238.69 11.8589 238.176 12.0097C237.271 12.3732 236.768 12.1683 236.668 11.3871C236.668 11.0971 236.517 10.954 236.215 10.954H235.179C234.877 10.954 234.727 11.1435 234.727 11.5186C234.877 12.7135 235.287 13.8891 235.952 15.0415C236.126 15.3547 236.385 15.3315 236.726 14.968C237.391 14.125 237.832 13.4405 238.044 12.9146C238.257 12.5124 238.555 12.4003 238.93 12.5743C239.332 12.8257 239.754 13.1273 240.194 13.4792C240.396 13.6184 240.446 13.7808 240.345 13.9703C240.283 14.0206 240.163 14.0438 239.986 14.0438C239.796 14.0554 239.634 14.1211 239.495 14.2333C238.717 14.9371 237.863 15.4475 236.931 15.7608C236.629 15.8729 236.621 16.1204 236.911 16.4955C237.816 17.6518 238.845 18.4793 240.001 18.982C240.454 19.1831 240.647 19.3146 240.585 19.3765C240.071 19.6162 239.607 20.0377 239.189 20.641C238.926 21.0316 238.609 21.1167 238.245 20.904C236.536 19.6704 235.438 18.197 234.947 16.4762C234.467 14.6664 234.243 13.0152 234.27 11.5186C234.27 11.1396 234.119 10.954 233.818 10.954H233.044C232.731 10.954 232.573 11.1048 232.573 11.4065V17.5899C232.573 17.8915 232.762 18.0037 233.137 17.9302L234.266 17.6286C234.645 17.5396 234.862 17.5087 234.928 17.5358C235.04 17.7136 234.901 17.8877 234.514 18.0617C233.71 18.6147 232.704 19.1251 231.498 19.5892C230.995 19.7902 230.492 20.0145 229.99 20.2659C229.738 20.4051 229.549 20.5482 229.425 20.699C229.336 20.962 229.174 21.0238 228.934 20.8885C228.795 20.6255 228.613 20.1422 228.389 19.4383L228.276 19.0632C228.203 18.6843 228.195 18.4716 228.257 18.4213C228.822 18.3826 229.406 18.3633 230.009 18.3633C230.31 18.3246 230.461 18.1545 230.461 17.8529V3.93916L230.481 3.31656H230.485ZM233.218 4.6159C232.793 4.66617 232.577 4.81699 232.577 5.06834V6.89746C232.577 7.2107 232.727 7.36925 233.029 7.36925H236.196C236.509 7.36925 236.668 7.21843 236.668 6.9168V5.12635C236.668 4.78605 236.505 4.6159 236.177 4.6159H233.218ZM236.668 8.36695C236.668 8.02665 236.529 7.8565 236.254 7.8565H233.048C232.735 7.8565 232.577 8.00731 232.577 8.30894V9.96791C232.577 10.2811 232.727 10.4397 233.029 10.4397H236.196C236.509 10.4397 236.668 10.2889 236.668 9.98725V8.36695Z" fill="black"/>
<path d="M246.637 4.10933C246.676 4.05906 246.881 4.07066 247.26 4.148C248.203 4.44964 248.899 4.80154 249.352 5.20371C249.452 5.46667 249.332 5.63296 248.992 5.69483C248.768 5.60589 248.571 5.7683 248.408 6.18595L246.656 9.20225C245.829 10.548 244.653 11.7661 243.134 12.8605C242.643 13.1389 242.368 13.2317 242.306 13.1428C242.306 13.0538 242.469 12.8296 242.797 12.4661C244.317 10.7065 245.384 8.69567 246.003 6.43344C246.243 5.66776 246.455 4.89435 246.645 4.1132L246.637 4.10933ZM248.277 10.5364C248.354 10.0839 248.578 9.88286 248.953 9.93313C249.68 10.0337 250.384 10.2657 251.065 10.6292C251.254 10.869 251.146 11.0314 250.744 11.1203C250.643 11.1822 250.52 11.4142 250.369 11.8164C249.503 14.0283 248.339 16.0392 246.881 17.849C246.568 18.2125 246.598 18.3904 246.974 18.3749C249.035 18.3131 251.548 18.1042 254.514 17.7523C254.866 17.6905 254.967 17.5203 254.816 17.2419C254.487 16.627 254.011 16.0121 253.381 15.3934C252.89 15.1305 252.708 14.8984 252.836 14.6973C252.886 14.6741 253.11 14.736 253.513 14.8868C255.462 15.6177 256.854 16.8552 257.697 18.5992C258.01 19.3262 257.971 19.9566 257.584 20.4825C257.283 20.8073 256.912 20.9079 256.471 20.7841C256.007 20.6062 255.744 20.2891 255.678 19.8212C255.628 19.4577 255.547 19.0942 255.434 18.7268C255.334 18.4136 255.094 18.2976 254.719 18.3865C251.529 19.1135 248.335 19.8135 245.144 20.4786C244.804 20.5289 244.592 20.6565 244.503 20.8576C244.375 21.0819 244.228 21.1399 244.05 21.0277C243.799 20.6642 243.555 19.9991 243.315 19.0285C243.277 18.6263 243.474 18.4329 243.899 18.4445H245.315C245.616 18.4445 245.875 18.255 246.088 17.8799C247.267 15.2774 247.998 12.8296 248.273 10.5287L248.277 10.5364ZM252.67 3.59888C252.832 3.37459 253.145 3.35526 253.613 3.54088C254.278 3.75356 254.375 4.05133 253.895 4.42643C253.555 4.53858 253.52 4.80154 253.783 5.21918C254.963 8.23549 256.799 10.0182 259.286 10.5712C259.661 10.6331 259.881 10.7027 259.947 10.78C259.959 10.8535 259.777 10.9888 259.402 11.1745C258.725 11.4877 258.172 11.9788 257.743 12.6439C257.565 13.0229 257.449 13.2163 257.383 13.2279C256.842 12.9378 256.277 12.4235 255.686 11.681C254.97 10.7761 254.406 9.77071 253.988 8.66473C253.648 7.81011 253.315 6.56105 252.991 4.91368C252.94 4.56178 252.782 4.38776 252.519 4.38776C251.653 4.34909 251.011 4.38776 250.597 4.49991C250.206 4.57338 249.974 4.4767 249.901 4.19828C249.827 3.92371 249.982 3.78837 250.373 3.80384C250.875 3.90438 251.409 3.93532 251.974 3.89665C252.275 3.89665 252.507 3.7961 252.67 3.59501V3.59888Z" fill="black"/>
<path d="M276.154 3.63755C276.405 3.08456 276.757 3.01495 277.209 3.42873C277.751 3.70329 278.195 4.08226 278.547 4.55791C278.625 4.72033 278.57 4.86728 278.396 4.99102C277.983 5.14184 277.824 5.42413 277.925 5.83791V19.3726C277.685 20.467 277.043 21.0548 276.003 21.1437C275.574 21.194 275.299 21.0123 275.175 20.5985C274.835 19.9333 274.243 19.4925 273.404 19.2798C273.304 19.0555 273.377 18.9588 273.628 18.9975L274.324 19.0169C274.939 19.0671 275.388 19.0246 275.662 18.8854C275.825 18.7462 275.887 18.4909 275.852 18.112V5.33132C275.852 5.02969 275.825 4.84794 275.775 4.78607L275.229 4.76673H263.864L263.261 4.85954C262.847 4.92142 262.615 4.83634 262.565 4.59658C262.503 4.30655 262.704 4.17507 263.168 4.20214L263.81 4.27562H275.102C275.554 4.41483 275.906 4.20214 276.157 3.63368L276.154 3.63755ZM271.649 6.59585C271.912 6.30582 272.074 6.14341 272.14 6.10474C272.24 6.10474 272.48 6.22462 272.855 6.46437C273.532 6.97869 273.992 7.47754 274.232 7.95319C274.131 8.16588 273.88 8.23549 273.478 8.16201H264.015L263.412 8.27416C263.01 8.33603 262.766 8.24322 262.677 7.99186C262.6 7.67863 262.786 7.53942 263.222 7.57809C263.447 7.57809 263.694 7.60516 263.957 7.65543H270.291C270.693 7.80624 271.045 7.57809 271.347 6.97869L271.649 6.59972V6.59585ZM264.054 10.459C264.054 10.0569 264.255 9.90606 264.657 10.0066C265.059 10.1187 265.485 10.2812 265.937 10.4977C266.212 10.6756 266.49 10.7607 266.765 10.7607H269.611C269.912 10.7607 270.175 10.6485 270.403 10.4204C270.632 10.1922 270.775 10.0762 270.837 10.0607C271.227 10.1613 271.699 10.3701 272.252 10.6833C272.979 10.9966 273.137 11.3175 272.724 11.6462C272.383 11.8241 272.271 12.0793 272.383 12.4196V16.3408C272.557 17.0563 272.205 17.47 271.328 17.586C271.076 17.6247 270.848 17.5938 270.651 17.4932C270.388 17.2419 270.299 16.948 270.388 16.6077C270.388 16.2558 270.237 16.0818 269.936 16.0818H266.544C266.231 16.0818 266.072 16.2326 266.072 16.5342C266.134 17.2999 266.08 17.8142 265.902 18.081C265.473 18.4445 264.978 18.5567 264.414 18.4213C264.085 18.3092 263.969 18.0192 264.054 17.5551V10.4668V10.459ZM270.388 11.8164C270.527 11.3755 270.361 11.1899 269.897 11.2518H266.54C266.227 11.2518 266.069 11.4026 266.069 11.7042V15.115C266.069 15.4282 266.219 15.5868 266.521 15.5868H269.912C270.226 15.5868 270.384 15.436 270.384 15.1343V11.8164H270.388Z" fill="black"/>
<path d="M103.724 27.5161V28.9526H103.293V28.7371C103.293 28.0776 103.267 27.9764 102.715 27.9764H101.55V29.6676H102.503V28.9656H102.934V30.9049H102.503V30.1279H101.55V32.0019H102.774V32.4655H100.44V32.0019H101.122V27.9764H100.44V27.5128H103.724V27.5161Z" fill="black"/>
<path d="M104.59 30.9572C104.632 31.6754 105.102 32.1031 105.847 32.1031C106.284 32.1031 106.702 31.9366 107.133 31.7146L107.257 32.1358C106.819 32.3904 106.278 32.5634 105.791 32.5634C104.534 32.5634 104.139 31.5742 104.139 30.8298C104.139 29.7721 104.792 28.9493 105.687 28.9493C106.581 28.9493 107.103 29.586 107.103 30.6078C107.103 30.7221 107.097 30.8396 107.074 30.9539H104.586L104.59 30.9572ZM106.666 30.4936C106.666 29.8504 106.215 29.4129 105.693 29.4129C105.171 29.4129 104.694 29.8765 104.59 30.4936H106.666Z" fill="black"/>
<path d="M108.272 32.0052H108.745V32.4688H107.371V32.0052H107.844V29.5142L107.338 29.5958L107.276 29.1746C107.498 29.1583 107.726 29.1257 107.886 28.9526C107.942 28.8775 107.984 28.8123 108.072 28.8123C108.275 28.8123 108.275 29.0441 108.275 29.2236V29.3477C108.627 29.1485 108.977 28.9526 109.378 28.9526C109.711 28.9526 110.074 29.0996 110.234 29.4717C110.358 29.759 110.351 30.141 110.351 30.461V32.0052H110.825V32.4688H109.45V32.0052H109.924V30.4773C109.924 29.9745 109.953 29.413 109.382 29.413C108.987 29.413 108.605 29.635 108.278 29.8766V32.0052H108.272Z" fill="black"/>
<path d="M113.89 29.0505V29.5141H113.384C113.524 29.7688 113.593 29.9582 113.593 30.2748C113.593 31.091 113.113 31.5612 112.447 31.5612L112.212 31.535C112.127 31.584 111.866 31.8485 111.866 31.9464C111.866 32.0052 112.108 32.0052 112.212 32.0052H113.276C113.893 32.0052 114.262 32.2925 114.262 32.8964C114.262 33.9444 113.24 34.1828 112.545 34.1828C112.003 34.1828 111.092 34.0913 111.092 33.2262C111.092 32.8638 111.301 32.5243 111.559 32.3349C111.491 32.2761 111.412 32.1684 111.412 31.9888C111.412 31.757 111.621 31.5514 111.788 31.3685C111.425 31.1139 111.233 30.7907 111.233 30.2781C111.233 29.5696 111.739 28.9493 112.336 28.9493C112.522 28.9493 112.712 28.9918 112.891 29.0473H113.89V29.0505ZM112.029 32.4655C111.807 32.6483 111.536 32.8442 111.536 33.2001C111.536 33.7028 112.196 33.7192 112.503 33.7192C112.96 33.7192 113.808 33.6212 113.808 32.9519C113.808 32.4981 113.508 32.4655 113.205 32.4655H112.029ZM112.441 29.4129C112.029 29.4129 111.683 29.7361 111.683 30.2389C111.683 30.8005 112.003 31.0976 112.46 31.0976C112.917 31.0976 113.142 30.7515 113.142 30.2814C113.142 29.7786 112.872 29.4162 112.441 29.4162V29.4129Z" fill="black"/>
<path d="M115.676 29.0505V29.5141H115.134L116.071 31.6591L116.884 29.5141H116.336V29.0505H117.772V29.5141H117.328L116.042 32.9552C115.813 33.5657 115.611 34.186 114.952 34.186C114.681 34.186 114.397 34.0717 114.181 33.8889L114.348 33.4449C114.521 33.6114 114.743 33.7257 114.974 33.7257C115.337 33.7257 115.516 33.1413 115.64 32.8083L115.856 32.2402L114.668 29.5174H114.23V29.0538H115.676V29.0505Z" fill="black"/>
<path d="M120.332 32.2598C119.992 32.4264 119.705 32.5667 119.323 32.5667C118.657 32.5667 118.269 32.1456 118.269 31.1564V29.5142L117.763 29.5958L117.701 29.1746C117.923 29.1583 118.151 29.1257 118.311 28.9526C118.367 28.8775 118.409 28.8123 118.497 28.8123C118.7 28.8123 118.7 29.0441 118.7 29.2236V30.9899C118.7 31.8387 118.86 32.1031 119.317 32.1031C119.663 32.1031 120.025 31.9366 120.332 31.7571V29.5142L119.826 29.5958L119.764 29.1746C119.986 29.1583 120.214 29.1257 120.374 28.9526C120.43 28.8775 120.472 28.8123 120.561 28.8123C120.763 28.8123 120.763 29.0441 120.763 29.2236V32.0052H121.318V32.4688H120.332V32.2631V32.2598Z" fill="black"/>
<path d="M123.645 32.2173C123.227 32.423 122.826 32.5634 122.382 32.5634C121.876 32.5634 121.409 32.2826 121.409 31.6133C121.409 30.9441 121.846 30.6959 122.326 30.5653C122.757 30.4413 123.181 30.4184 123.645 30.3988V30.1834C123.645 29.7132 123.707 29.4063 123.178 29.4063C122.832 29.4063 122.483 29.4978 122.192 29.7296V30.216H121.761V29.4227C122.163 29.1354 122.666 28.9427 123.116 28.9427C123.825 28.9427 124.076 29.1648 124.076 29.9744V31.9953H124.654V32.4589H123.645V32.2108V32.2173ZM123.645 30.8396C123.25 30.8559 122.819 30.8983 122.444 31.0061C122.16 31.0877 121.859 31.2052 121.859 31.6166C121.859 32.0051 122.124 32.103 122.401 32.103C122.832 32.103 123.256 31.9137 123.645 31.6982V30.8396Z" fill="black"/>
<path d="M125.64 32.0052H126.113V32.4688H124.739V32.0052H125.212V29.5142L124.706 29.5958L124.644 29.1746C124.866 29.1583 125.095 29.1257 125.255 28.9526C125.31 28.8775 125.352 28.8123 125.441 28.8123C125.643 28.8123 125.643 29.0441 125.643 29.2236V29.3477C125.999 29.1485 126.345 28.9526 126.746 28.9526C127.079 28.9526 127.442 29.0996 127.602 29.4717C127.726 29.759 127.719 30.141 127.719 30.461V32.0052H128.193V32.4688H126.818V32.0052H127.292V30.4773C127.292 29.9745 127.321 29.413 126.75 29.413C126.355 29.413 125.973 29.635 125.646 29.8766V32.0052H125.64Z" fill="black"/>
<path d="M131.722 32.1684L132.45 32.0019V28.0744L131.729 28.0156V27.5128C131.987 27.5455 132.251 27.6108 132.506 27.6108C132.894 27.6108 133.276 27.5128 133.665 27.5128C134.213 27.5128 134.742 27.9079 134.742 28.6196C134.742 29.0473 134.507 29.4847 134.187 29.7002C134.749 29.9157 135.091 30.376 135.091 31.0943C135.091 32.0182 134.569 32.4655 133.896 32.4655C133.514 32.4655 133.126 32.3675 132.744 32.3675C132.418 32.3675 132.085 32.4753 131.82 32.5569L131.722 32.1684ZM132.881 29.5696H133.188C134.043 29.5696 134.291 29.0897 134.291 28.6457C134.291 28.2017 134.001 27.9764 133.632 27.9764C133.381 27.9764 133.126 28.0189 132.881 28.0678V29.5696ZM132.881 31.9888L133.707 32.0868C134.269 32.1521 134.638 31.708 134.638 31.0877C134.638 30.5523 134.373 30.03 133.43 30.03H132.881V31.9855V31.9888Z" fill="black"/>
<path d="M137.703 32.2598C137.364 32.4264 137.08 32.5667 136.694 32.5667C136.028 32.5667 135.64 32.1456 135.64 31.1564V29.5142L135.134 29.5958L135.072 29.1746C135.294 29.1583 135.522 29.1257 135.682 28.9526C135.738 28.8775 135.78 28.8123 135.868 28.8123C136.071 28.8123 136.071 29.0441 136.071 29.2236V30.9899C136.071 31.8387 136.231 32.1031 136.688 32.1031C137.034 32.1031 137.396 31.9366 137.703 31.7571V29.5142L137.197 29.5958L137.135 29.1746C137.357 29.1583 137.586 29.1257 137.746 28.9526C137.801 28.8775 137.843 28.8123 137.932 28.8123C138.134 28.8123 138.134 29.0441 138.134 29.2236V32.0052H138.689V32.4688H137.703V32.2631V32.2598Z" fill="black"/>
<path d="M141.33 28.7762L141.712 28.8677C141.656 29.1321 141.614 29.3965 141.614 29.6675C141.614 29.8504 141.627 30.0234 141.663 30.1964L141.245 30.2389L141.225 30.056C141.176 29.6512 141.072 29.4129 140.386 29.4129C140.06 29.4129 139.58 29.5271 139.58 30.0234C139.58 30.8983 141.747 30.1474 141.747 31.5676C141.747 32.361 140.948 32.5666 140.406 32.5666C140.017 32.5666 139.766 32.485 139.413 32.3022L139.345 32.5993L138.976 32.4687C139.031 32.2532 139.061 32.0312 139.061 31.8092C139.061 31.6035 139.041 31.3881 138.969 31.1987L139.4 31.1334C139.482 31.819 139.609 32.1063 140.442 32.1063C140.7 32.1063 141.297 32.0149 141.297 31.5611C141.297 30.6437 139.129 31.4631 139.129 30.0593C139.129 29.2986 139.769 28.9525 140.373 28.9525C140.68 28.9525 140.97 29.0276 141.261 29.1419L141.33 28.7795V28.7762Z" fill="black"/>
<path d="M149.035 27.5161V29.2562H148.604V28.6294C148.604 28.0515 148.562 27.9764 148.082 27.9764H147.52V32.0019H148.431V32.4655H146.182V32.0019H147.092V27.9764H146.531C146.051 27.9764 146.009 28.0515 146.009 28.6294V29.2562H145.578V27.5161H149.038H149.035Z" fill="black"/>
<path d="M150.439 32.0051H151.696V32.4687H149.404V32.0051H150.008V29.5207L149.502 29.6023L149.44 29.1811C149.662 29.1648 149.89 29.1321 150.05 28.9591C150.106 28.884 150.148 28.8187 150.236 28.8187C150.439 28.8187 150.439 29.0505 150.439 29.2301V29.6676C150.821 29.3378 151.19 28.9493 151.689 28.9493C152.051 28.9493 152.28 29.2366 152.391 29.6186L151.96 29.8243C151.905 29.6512 151.836 29.4129 151.647 29.4129C151.294 29.4129 150.71 29.9973 150.439 30.2879V32.0051Z" fill="black"/>
<path d="M154.915 32.2173C154.497 32.423 154.095 32.5634 153.651 32.5634C153.145 32.5634 152.678 32.2826 152.678 31.6133C152.678 30.9441 153.116 30.6959 153.596 30.5653C154.027 30.4413 154.451 30.4184 154.915 30.3988V30.1834C154.915 29.7132 154.977 29.4063 154.448 29.4063C154.102 29.4063 153.752 29.4978 153.462 29.7296V30.216H153.031V29.4227C153.432 29.1354 153.935 28.9427 154.386 28.9427C155.094 28.9427 155.345 29.1648 155.345 29.9744V31.9953H155.923V32.4589H154.915V32.2108V32.2173ZM154.915 30.8396C154.519 30.8559 154.089 30.8983 153.713 31.0061C153.429 31.0877 153.129 31.2052 153.129 31.6166C153.129 32.0051 153.393 32.103 153.671 32.103C154.102 32.103 154.526 31.9137 154.915 31.6982V30.8396Z" fill="black"/>
<path d="M156.909 32.0052H157.383V32.4688H156.008V32.0052H156.482V29.5142L155.976 29.5958L155.914 29.1746C156.136 29.1583 156.364 29.1257 156.524 28.9526C156.58 28.8775 156.622 28.8123 156.71 28.8123C156.913 28.8123 156.913 29.0441 156.913 29.2236V29.3477C157.268 29.1485 157.614 28.9526 158.016 28.9526C158.349 28.9526 158.711 29.0996 158.871 29.4717C158.995 29.759 158.989 30.141 158.989 30.461V32.0052H159.462V32.4688H158.088V32.0052H158.561V30.4773C158.561 29.9745 158.591 29.413 158.019 29.413C157.624 29.413 157.242 29.635 156.916 29.8766V32.0052H156.909Z" fill="black"/>
<path d="M162.175 28.7762L162.557 28.8677C162.502 29.1321 162.459 29.3965 162.459 29.6675C162.459 29.8504 162.472 30.0234 162.508 30.1964L162.09 30.2389L162.071 30.056C162.022 29.6512 161.917 29.4129 161.232 29.4129C160.905 29.4129 160.425 29.5271 160.425 30.0234C160.425 30.8983 162.593 30.1474 162.593 31.5676C162.593 32.361 161.793 32.5666 161.251 32.5666C160.863 32.5666 160.612 32.485 160.259 32.3022L160.19 32.5993L159.821 32.4687C159.877 32.2532 159.906 32.0312 159.906 31.8092C159.906 31.6035 159.887 31.3881 159.815 31.1987L160.246 31.1334C160.331 31.819 160.455 32.1063 161.287 32.1063C161.545 32.1063 162.143 32.0149 162.143 31.5611C162.143 30.6437 159.975 31.4631 159.975 30.0593C159.975 29.2986 160.615 28.9525 161.219 28.9525C161.526 28.9525 161.816 29.0276 162.107 29.1419L162.175 28.7795V28.7762Z" fill="black"/>
<path d="M164.009 33.631H164.675V34.0946H163.16V33.631H163.578V29.5142L163.072 29.5958L163.01 29.1746C163.232 29.1583 163.461 29.1257 163.621 28.9526C163.676 28.8775 163.719 28.8123 163.807 28.8123C164.009 28.8123 164.009 29.0441 164.009 29.2236V29.315C164.287 29.0996 164.489 28.9526 164.835 28.9526C165.684 28.9526 166.184 29.8015 166.184 30.7417C166.184 32.1293 165.175 32.5667 164.773 32.5667C164.509 32.5667 164.261 32.4916 164.009 32.41V33.631ZM164.009 31.8975C164.218 32.0378 164.434 32.1031 164.669 32.1031C165.309 32.1031 165.733 31.4665 165.733 30.7417C165.733 30.1051 165.426 29.413 164.829 29.413C164.515 29.413 164.182 29.6513 164.009 29.9582V31.8975Z" fill="black"/>
<path d="M166.637 30.7581C166.637 29.7362 167.29 28.9526 168.152 28.9526C169.014 28.9526 169.667 29.7362 169.667 30.7581C169.667 31.7799 169.014 32.5667 168.152 32.5667C167.29 32.5667 166.637 31.7734 166.637 30.7581ZM169.213 30.7581C169.213 30.0235 168.789 29.413 168.149 29.413C167.509 29.413 167.084 30.0235 167.084 30.7581C167.084 31.4926 167.509 32.1031 168.149 32.1031C168.789 32.1031 169.213 31.4828 169.213 30.7581Z" fill="black"/>
<path d="M171.282 32.0051H172.539V32.4687H170.248V32.0051H170.852V29.5207L170.345 29.6023L170.283 29.1811C170.505 29.1648 170.734 29.1321 170.894 28.9591C170.949 28.884 170.992 28.8187 171.08 28.8187C171.282 28.8187 171.282 29.0505 171.282 29.2301V29.6676C171.664 29.3378 172.033 28.9493 172.533 28.9493C172.895 28.9493 173.124 29.2366 173.235 29.6186L172.804 29.8243C172.748 29.6512 172.68 29.4129 172.49 29.4129C172.135 29.4129 171.553 29.9973 171.282 30.2879V32.0051Z" fill="black"/>
<path d="M174.842 29.0506H176.461V29.5142H174.842V31.1629C174.842 31.5906 174.799 32.1031 175.286 32.1031C175.661 32.1031 176.134 31.9627 176.5 31.8322L176.64 32.2696C176.216 32.41 175.674 32.5667 175.243 32.5667C174.721 32.5667 174.411 32.2043 174.411 31.3947V29.5142H173.412V29.0506H174.411V28.1332H174.842V29.0506Z" fill="black"/>
<path d="M179.233 32.2173C178.815 32.423 178.413 32.5634 177.969 32.5634C177.463 32.5634 176.997 32.2826 176.997 31.6133C176.997 30.9441 177.434 30.6959 177.914 30.5653C178.345 30.4413 178.769 30.4184 179.233 30.3988V30.1834C179.233 29.7132 179.295 29.4063 178.766 29.4063C178.42 29.4063 178.071 29.4978 177.78 29.7296V30.216H177.349V29.4227C177.751 29.1354 178.253 28.9427 178.704 28.9427C179.412 28.9427 179.664 29.1648 179.664 29.9744V31.9953H180.242V32.4589H179.233V32.2108V32.2173ZM179.233 30.8396C178.838 30.8559 178.407 30.8983 178.031 31.0061C177.747 31.0877 177.447 31.2052 177.447 31.6166C177.447 32.0051 177.712 32.103 177.989 32.103C178.42 32.103 178.844 31.9137 179.233 31.6982V30.8396Z" fill="black"/>
<path d="M181.789 29.0506H183.408V29.5142H181.789V31.1629C181.789 31.5906 181.746 32.1031 182.233 32.1031C182.608 32.1031 183.082 31.9627 183.447 31.8322L183.588 32.2696C183.163 32.41 182.621 32.5667 182.19 32.5667C181.668 32.5667 181.358 32.2043 181.358 31.3947V29.5142H180.359V29.0506H181.358V28.1332H181.789V29.0506Z" fill="black"/>
<path d="M184.146 32.0051H185.527V29.5304C185.292 29.5794 185.054 29.6284 184.812 29.6121L184.221 29.5696L184.153 29.1158L184.786 29.1648C185.001 29.1811 185.409 29.1485 185.563 28.933C185.618 28.8579 185.661 28.8089 185.749 28.8089C185.964 28.8089 185.958 29.057 185.958 29.2366V32.0019H187.182V32.4655H184.146V32.0019V32.0051ZM185.674 28.1984C185.432 28.1984 185.223 27.9764 185.223 27.6858C185.223 27.3953 185.432 27.1667 185.674 27.1667C185.915 27.1667 186.118 27.3888 186.118 27.6858C186.118 27.9829 185.909 28.1984 185.674 28.1984Z" fill="black"/>
<path d="M187.483 30.7581C187.483 29.7362 188.136 28.9526 188.998 28.9526C189.86 28.9526 190.513 29.7362 190.513 30.7581C190.513 31.7799 189.86 32.5667 188.998 32.5667C188.136 32.5667 187.483 31.7734 187.483 30.7581ZM190.059 30.7581C190.059 30.0235 189.634 29.413 188.994 29.413C188.355 29.413 187.93 30.0235 187.93 30.7581C187.93 31.4926 188.355 32.1031 188.994 32.1031C189.634 32.1031 190.059 31.4828 190.059 30.7581Z" fill="black"/>
<path d="M191.649 32.0052H192.122V32.4688H190.748V32.0052H191.221V29.5142L190.715 29.5958L190.653 29.1746C190.875 29.1583 191.103 29.1257 191.263 28.9526C191.319 28.8775 191.361 28.8123 191.449 28.8123C191.652 28.8123 191.652 29.0441 191.652 29.2236V29.3477C192.008 29.1485 192.354 28.9526 192.755 28.9526C193.088 28.9526 193.451 29.0996 193.611 29.4717C193.735 29.759 193.728 30.141 193.728 30.461V32.0052H194.202V32.4688H192.827V32.0052H193.3V30.4773C193.3 29.9745 193.33 29.413 192.759 29.413C192.364 29.413 191.982 29.635 191.655 29.8766V32.0052H191.649Z" fill="black"/>
<path d="M200.649 27.4149L201.038 27.5618C200.94 27.8328 200.897 28.1299 200.914 28.427L200.949 29.0538L200.538 29.1354C200.509 28.3747 200.349 27.872 199.627 27.872C198.661 27.872 198.334 29.0179 198.334 29.9745C198.334 30.931 198.681 32.0966 199.614 32.0966C200.323 32.0966 200.587 31.535 200.587 30.7613H201.018V31.8191C200.63 32.2631 200.143 32.5602 199.595 32.5602C198.844 32.5602 197.887 31.8746 197.887 29.9353C197.887 27.996 198.847 27.4116 199.611 27.4116C199.937 27.4116 200.277 27.5194 200.564 27.6924L200.656 27.4116L200.649 27.4149Z" fill="black"/>
<path d="M201.377 30.7581C201.377 29.7362 202.03 28.9526 202.892 28.9526C203.754 28.9526 204.407 29.7362 204.407 30.7581C204.407 31.7799 203.754 32.5667 202.892 32.5667C202.03 32.5667 201.377 31.7734 201.377 30.7581ZM203.957 30.7581C203.957 30.0235 203.532 29.413 202.892 29.413C202.252 29.413 201.828 30.0235 201.828 30.7581C201.828 31.4926 202.252 32.1031 202.892 32.1031C203.532 32.1031 203.957 31.4828 203.957 30.7581Z" fill="black"/>
<path d="M206.366 31.4272C206.63 31.4272 206.852 31.6819 206.852 31.9953C206.852 32.3087 206.63 32.5634 206.366 32.5634C206.101 32.5634 205.879 32.3153 205.879 31.9953C205.879 31.6754 206.101 31.4272 206.366 31.4272Z" fill="black"/>
<path d="M209.424 32.7952C209.578 32.7527 209.715 32.6809 209.826 32.547C209.597 32.5307 209.415 32.325 209.415 32.0443C209.415 31.7145 209.617 31.4762 209.894 31.4762C210.201 31.4762 210.4 31.7994 210.4 32.1455C210.4 32.7495 209.872 33.1608 209.421 33.2751V32.7952H209.424Z" fill="black"/>
<path d="M216.976 27.5161V27.9797H216.192V32.0052H217.289C218.053 32.0052 218.033 31.8485 218.033 30.967V30.7352H218.464V32.4688H215.01V32.0052H215.761V27.9797H215.01V27.5161H216.976Z" fill="black"/>
<path d="M220.005 29.0505H221.624V29.5141H220.005V31.1628C220.005 31.5904 219.962 32.103 220.449 32.103C220.824 32.103 221.297 31.9626 221.663 31.832L221.803 32.2695C221.379 32.4099 220.837 32.5666 220.406 32.5666C219.884 32.5666 219.574 32.2042 219.574 31.3946V29.5141H218.575V29.0505H219.574V28.1331H220.005V29.0505Z" fill="black"/>
<path d="M224.383 32.3349C224.118 32.4655 223.909 32.5667 223.619 32.5667C222.799 32.5667 222.208 31.7244 222.208 30.7841C222.208 29.8439 222.786 28.9526 223.619 28.9526C223.864 28.9526 224.148 29.044 224.383 29.1256V27.7544L223.759 27.8524L223.697 27.4312C223.919 27.3822 224.265 27.4149 224.425 27.1929C224.481 27.1178 224.523 27.0525 224.611 27.0525C224.814 27.0525 224.814 27.2843 224.814 27.4639V32.0019H225.356V32.4655H224.383V32.3349ZM224.383 29.6447C224.18 29.5043 223.952 29.4129 223.717 29.4129C223.051 29.4129 222.662 30.0398 222.662 30.7906C222.662 31.4599 223.051 32.1031 223.648 32.1031C223.913 32.1031 224.177 31.9888 224.386 31.806V29.6447H224.383Z" fill="black"/>
<path d="M227.211 31.4272C227.475 31.4272 227.697 31.6819 227.697 31.9953C227.697 32.3087 227.475 32.5634 227.211 32.5634C226.946 32.5634 226.724 32.3153 226.724 31.9953C226.724 31.6754 226.946 31.4272 227.211 31.4272Z" fill="black"/>
</svg>
