<svg width="38" height="37" viewBox="0 0 38 37" fill="none" xmlns="http://www.w3.org/2000/svg">
<path d="M14.778 0C16.5058 2.34462 19.4016 3.14356 22.9436 1.72233C23.7465 7.55635 21.1973 16.0877 18.7688 18.4822C18.4907 7.13652 13.3899 10.7624 14.778 0Z" fill="#FC0E1E"/>
<path d="M0.0253906 22.4376C2.39872 20.7291 3.20686 17.866 1.76881 14.364C7.67369 13.5702 16.3089 16.0903 18.7328 18.4917C7.2493 18.8049 10.919 23.8095 0.0253906 22.4376Z" fill="#0518BF"/>
<path d="M37.48 14.5569C35.109 16.2654 34.3008 19.128 35.7377 22.6306C29.8375 23.4243 21.2092 20.9042 18.7871 18.5028C30.2619 18.1897 26.5951 13.185 37.48 14.5569Z" fill="#F5D32F"/>
<path d="M22.7422 36.9998C21.0139 34.6552 18.1186 33.8562 14.5766 35.2775C13.7737 29.4435 16.3224 20.9121 18.7515 18.5176C19.0684 29.8633 24.1298 26.2374 22.7422 36.9998Z" fill="#108313"/>
<path d="M34.8112 28.7979C31.9125 28.3482 29.2936 29.8079 27.805 33.2887C23.0653 29.7253 18.7663 21.9103 18.7715 18.5195C27.1089 26.3202 28.0953 20.2172 34.8112 28.7979Z" fill="#B3B3B3"/>
<path d="M8.34055 34.3667C8.79571 31.5007 7.31934 28.9118 3.79883 27.4395C7.40294 22.7531 15.3067 18.5027 18.7366 18.5078C10.8468 26.7518 17.0193 27.7268 8.34055 34.3667Z" fill="#B3B3B3"/>
<path d="M2.70898 8.20466C5.60772 8.65431 8.22663 7.19524 9.71518 3.71387C14.4549 7.27725 18.7539 15.0923 18.7487 18.4836C10.4107 10.6823 9.4249 16.7853 2.70898 8.20466Z" fill="#B3B3B3"/>
<path d="M29.1793 2.62988C28.7247 5.49585 30.2005 8.08479 33.7216 9.55706C30.1169 14.2434 22.2132 18.4939 18.7832 18.4888C26.673 10.2447 20.5011 9.26972 29.1793 2.62988Z" fill="#B3B3B3"/>
</svg>
