<svg width="175" height="23" viewBox="0 0 175 23" fill="none" xmlns="http://www.w3.org/2000/svg">
<path d="M8.97843 0C10.0299 1.4269 11.7923 1.91312 13.9479 1.04818C14.4365 4.59867 12.8851 9.79072 11.4071 11.248C11.2379 4.34317 8.13364 6.54984 8.97843 0Z" fill="#FC0E1E"/>
<path d="M0 13.6556C1.44437 12.6158 1.93619 10.8734 1.06102 8.74212C4.65463 8.25904 9.9099 9.79275 11.385 11.2542C4.39635 11.4448 6.62969 14.4906 0 13.6556Z" fill="#0518BF"/>
<path d="M22.7941 8.85843C21.3512 9.89824 20.8594 11.6403 21.7338 13.7719C18.1431 14.255 12.892 12.7213 11.418 11.2599C18.4013 11.0693 16.1698 8.02351 22.7941 8.85843Z" fill="#F5D32F"/>
<path d="M13.8259 22.5175C12.7741 21.0906 11.0121 20.6044 8.85646 21.4693C8.36782 17.9188 9.91889 12.7268 11.3972 11.2695C11.5901 18.1743 14.6703 15.9677 13.8259 22.5175Z" fill="#108313"/>
<path d="M21.1697 17.5258C19.4056 17.2521 17.8118 18.1404 16.9059 20.2588C14.0214 18.0902 11.405 13.3341 11.4082 11.2705C16.4822 16.0179 17.0825 12.3037 21.1697 17.5258Z" fill="#B3B3B3"/>
<path d="M5.05992 20.9151C5.33692 19.171 4.43843 17.5954 2.2959 16.6994C4.48931 13.8473 9.2994 11.2605 11.3868 11.2637C6.5852 16.2809 10.3417 16.8742 5.05992 20.9151Z" fill="#B3B3B3"/>
<path d="M1.63281 4.99279C3.39694 5.26644 4.99076 4.37847 5.89667 2.25977C8.78117 4.42838 11.3975 9.18448 11.3943 11.2484C6.31995 6.50067 5.72001 10.2149 1.63281 4.99279Z" fill="#B3B3B3"/>
<path d="M17.7429 1.59961C17.4663 3.34379 18.3644 4.91938 20.5073 5.81538C18.3135 8.66743 13.5034 11.2542 11.416 11.2511C16.2176 6.23389 12.4615 5.64051 17.7429 1.59961Z" fill="#B3B3B3"/>
<path d="M37.9787 11.0219C37.894 10.7701 37.8822 10.6359 37.9434 10.6195C38.2493 10.6359 38.5435 10.7301 38.8259 10.9066C39.2472 11.2125 39.3342 11.5844 39.0895 12.0197C39.0353 12.1045 39.1012 12.1468 39.2848 12.1468H40.4544C40.638 12.1468 40.7674 12.0315 40.8451 11.8032C40.9063 11.5655 40.951 11.3278 40.9816 11.0925C40.9957 10.8407 41.1228 10.7301 41.3605 10.7607C41.6193 10.8148 41.8806 10.8783 42.1394 10.956C42.3677 11.0784 42.4877 11.1584 42.4948 11.196C42.5019 11.3114 42.4383 11.3796 42.2995 11.4031C42.2077 11.4337 42.1324 11.4761 42.0712 11.5302C41.9488 11.6597 41.8217 11.775 41.6923 11.8738C41.4852 12.0268 41.3934 12.1115 41.417 12.1257C41.8453 12.1492 42.2853 12.1562 42.7372 12.1492C42.9278 12.1492 43.1114 12.0386 43.2879 11.8174L43.5397 11.4973C43.7538 11.2761 43.895 11.1678 43.9633 11.1772C44.2834 11.3608 44.5893 11.6055 44.8811 11.9115C45.1023 12.1868 45.2012 12.3445 45.18 12.3822C45.1423 12.4269 45.0035 12.4504 44.7681 12.4504H35.6724L35.3053 12.5187C35.0605 12.5563 34.9123 12.4998 34.8581 12.3469C34.8134 12.1562 34.9264 12.0715 35.2017 12.0951C35.3382 12.1021 35.4888 12.1209 35.6489 12.1515H37.9763C38.1599 12.1515 38.2258 12.1139 38.1717 12.0362C38.0634 11.9068 38.0187 11.7444 38.0352 11.5538C38.0587 11.3631 38.0399 11.1866 37.9787 11.0266V11.0219ZM39.3789 2.23653C39.3789 1.99177 39.4848 1.8741 39.699 1.88116C39.9673 1.88822 40.2497 1.93058 40.5486 2.00824C40.7251 2.03178 40.838 2.10003 40.8922 2.21535C40.8922 2.30713 40.831 2.37303 40.7086 2.41068C40.6168 2.44834 40.5721 2.55895 40.5721 2.74252V6.03497C40.5721 6.2256 40.6639 6.32209 40.8474 6.32209H43.1867C43.3773 6.32209 43.4738 6.2303 43.4738 6.04674V5.75962C43.4738 5.56899 43.382 5.4725 43.1985 5.4725H42.7042C42.5136 5.4725 42.4171 5.52192 42.4171 5.62076C42.4242 5.96436 42.2171 6.11499 41.7982 6.06792C41.5464 6.0232 41.4358 5.88435 41.4664 5.65607C41.4664 5.57134 41.3699 5.53369 41.1793 5.54075C40.9792 5.56428 40.8545 5.50309 40.8004 5.35718C40.7698 5.19715 40.7698 5.10772 40.8004 5.09359L41.191 5.11713C41.3746 5.1336 41.4664 5.03005 41.4664 4.80648C41.4664 4.5829 41.3864 4.477 41.2263 4.48641C41.0263 4.50994 40.9063 4.44875 40.8592 4.30284C40.8286 4.12633 40.9157 4.04632 41.1228 4.06279C41.3534 4.08633 41.4664 3.98748 41.4664 3.76391C41.4664 3.54033 41.3746 3.42266 41.191 3.43207C41.0075 3.45561 40.8922 3.38971 40.8474 3.23674C40.8239 3.0767 40.9157 2.99904 41.1228 3.00845C41.3534 3.03199 41.4664 2.95432 41.4664 2.77782V2.46716C41.4664 2.22241 41.584 2.10709 41.8217 2.12356C42.0594 2.15416 42.3065 2.19652 42.5677 2.25065C42.7278 2.33537 42.7254 2.43422 42.556 2.54953C42.4642 2.65779 42.4195 2.7684 42.4195 2.88137C42.4195 3.01787 42.5066 2.99198 42.6831 2.80135C42.8502 2.61072 42.9537 2.51188 42.9937 2.50247C43.0314 2.51894 43.1278 2.60131 43.2808 2.75428C43.4103 2.93079 43.4761 2.90255 43.4761 2.67427V2.36361C43.4761 2.11886 43.5938 2.00824 43.8315 2.03178C44.3351 2.08591 44.6928 2.16828 44.8976 2.2836C44.9211 2.32125 44.8929 2.40127 44.8176 2.52365C44.6952 2.67662 44.634 2.8343 44.634 2.99433V6.20677C44.7258 6.59744 44.5728 6.83514 44.1751 6.91751C43.9539 6.95516 43.735 6.89162 43.5209 6.72217C43.4738 6.65392 43.3679 6.61862 43.2008 6.61862H36.7761C36.5926 6.61862 36.4937 6.65627 36.4772 6.73394C36.3925 7.02576 36.1572 7.14579 35.7665 7.10107C35.3853 7.05636 35.2323 6.84455 35.3076 6.47035V2.36126C35.3076 2.1165 35.4253 2.00589 35.663 2.02943C36.1666 2.08355 36.5243 2.16592 36.7291 2.28124C36.7526 2.3189 36.722 2.39891 36.6373 2.52129C36.522 2.67427 36.4655 2.83195 36.4655 2.99198V6.03261C36.4655 6.22324 36.5573 6.31973 36.7408 6.31973H39.0918C39.2825 6.31973 39.3789 6.22795 39.3789 6.04438V5.75726C39.3789 5.59723 39.2801 5.51721 39.0801 5.51721H38.5741C38.3905 5.51721 38.294 5.5784 38.287 5.70078C38.2187 6.06792 37.9387 6.16441 37.4492 5.9879C37.3645 5.92671 37.3268 5.82316 37.3339 5.67725C37.3339 5.60194 37.235 5.57134 37.035 5.58546C36.8444 5.609 36.722 5.5431 36.6679 5.39013C36.6302 5.23009 36.7243 5.15243 36.955 5.16184L37.0585 5.17361C37.2421 5.18067 37.3339 5.07477 37.3339 4.85354C37.3339 4.63232 37.235 4.52406 37.035 4.53348C36.835 4.55701 36.7149 4.49112 36.6679 4.33814C36.6373 4.18517 36.7408 4.10986 36.9785 4.10986C37.2162 4.12633 37.3339 4.02984 37.3339 3.82274C37.3339 3.61564 37.235 3.51679 37.035 3.52385C36.835 3.54739 36.7149 3.48149 36.6679 3.32852C36.6373 3.17555 36.6373 3.09082 36.6679 3.0767C36.7973 3.0767 36.9267 3.08847 37.0585 3.112C37.2421 3.11906 37.3339 3.03199 37.3339 2.84842V2.46952C37.3339 2.22476 37.4515 2.10944 37.6892 2.12592C37.7881 2.13298 37.8987 2.1518 38.0211 2.1824C38.3105 2.22947 38.4752 2.27418 38.5153 2.3189C38.5388 2.37303 38.5082 2.44834 38.4235 2.54953C38.3317 2.65779 38.287 2.78252 38.287 2.92844C38.287 3.07435 38.3788 3.05788 38.5623 2.88372C38.7388 2.69309 38.8494 2.60131 38.8941 2.60837C38.9483 2.63896 39.0212 2.72369 39.113 2.86019C39.2895 3.11906 39.3766 3.15201 39.3766 2.95197V2.24123L39.3789 2.23653ZM43.0149 6.90339C43.0902 6.71982 43.2173 6.67746 43.3938 6.7763C43.8056 6.99752 44.2033 7.31053 44.5869 7.71767C44.6011 7.85417 44.4646 7.90124 44.1751 7.85417H36.1078L35.7524 7.89889C35.5147 7.91536 35.3735 7.84476 35.3288 7.69178C35.2817 7.53175 35.3829 7.4635 35.6277 7.48468C35.7736 7.49174 35.9289 7.51057 36.0984 7.54117H42.3042C42.5254 7.60235 42.676 7.54116 42.7513 7.3576C42.8266 7.20462 42.916 7.05165 43.0149 6.89868V6.90339ZM36.5455 8.64728C36.5455 8.40252 36.6608 8.30603 36.8891 8.36016C37.0868 8.42135 37.2868 8.49666 37.4845 8.5908C37.5598 8.63551 37.6916 8.65905 37.8751 8.65905H42.0171C42.2006 8.65905 42.3536 8.58374 42.476 8.43076C42.6054 8.30132 42.7937 8.2825 43.0384 8.37428C43.2832 8.48254 43.5467 8.63316 43.8292 8.8332C44.0198 9.00029 43.9562 9.15327 43.6338 9.29212C43.6032 9.34625 43.5891 9.46392 43.5891 9.64749C43.5962 9.94637 43.5891 10.2547 43.5656 10.5771C43.3514 10.836 43.0502 10.9278 42.6595 10.8524C42.5136 10.7983 42.4336 10.7042 42.4195 10.5653C42.403 10.5041 42.3112 10.4735 42.1441 10.4735H38.0022C37.8187 10.4735 37.7081 10.53 37.6704 10.6453C37.4633 10.9207 37.155 11.0172 36.7408 10.9325C36.5643 10.8783 36.5008 10.7065 36.5455 10.4171V8.64963V8.64728ZM38.0587 8.95793C37.8304 8.98853 37.7151 9.09443 37.7151 9.278V9.88518C37.7151 10.0758 37.8069 10.1723 37.9905 10.1723H42.1324C42.323 10.1723 42.4195 10.0805 42.4195 9.89695V9.26623C42.4195 9.05913 42.3206 8.95558 42.1206 8.95558H38.0611L38.0587 8.95793ZM39.3789 3.68153C39.3789 3.47443 39.3601 3.39206 39.3225 3.42972C39.0777 3.45325 38.8283 3.46031 38.5764 3.45325C38.3858 3.45325 38.2893 3.56857 38.2893 3.79685C38.2893 4.02514 38.3082 4.14516 38.3458 4.15222C38.3905 4.15222 38.5058 4.05338 38.6894 3.85334C38.8659 3.66271 39.0306 3.63917 39.1836 3.78509C39.313 3.96865 39.3789 3.93335 39.3789 3.68153ZM39.3789 4.78294C39.3789 4.56878 39.2919 4.46287 39.1154 4.46287H38.5764C38.3858 4.46287 38.2893 4.58525 38.2893 4.83001C38.2893 5.07477 38.3035 5.20421 38.334 5.22068C38.3717 5.21362 38.4752 5.11007 38.6447 4.91003C38.8212 4.53583 39.0259 4.57349 39.2636 5.02535C39.2942 5.10301 39.3248 5.1336 39.3554 5.11713C39.3695 5.08653 39.3789 4.97592 39.3789 4.7853V4.78294ZM43.4738 3.58975C43.4738 3.43678 43.375 3.35911 43.1749 3.35911H42.7042C42.5136 3.35911 42.4171 3.47679 42.4171 3.71448C42.4171 3.97336 42.4971 4.01337 42.6572 3.8298C42.8243 3.64623 42.9278 3.55445 42.9678 3.55445C43.0125 3.58504 43.0973 3.67683 43.2196 3.8298C43.3867 4.07456 43.4714 4.09809 43.4714 3.89805V3.5874L43.4738 3.58975ZM43.4738 4.66762C43.4738 4.4464 43.4573 4.34991 43.4291 4.3805C43.3914 4.40404 43.2573 4.41581 43.0267 4.41581H42.7066C42.516 4.41581 42.4195 4.50759 42.4195 4.69116V4.91003C42.4195 5.13125 42.5254 5.1289 42.7395 4.89826C42.9231 4.69116 43.029 4.59231 43.0596 4.59937C43.2196 4.71469 43.3397 4.84413 43.415 4.99004C43.4526 4.9971 43.4714 4.8912 43.4714 4.66762H43.4738Z" fill="black"/>
<path d="M55.5748 1.87051C55.6666 1.71048 55.7772 1.67282 55.9066 1.75519C56.2432 1.96935 56.5491 2.21882 56.8244 2.50123C57.0457 2.79306 57.1374 2.95309 57.0998 2.98368C57.0457 3.02134 56.9045 3.04017 56.6762 3.04017H52.8449C52.6755 3.04017 52.6919 3.08253 52.8896 3.16725C53.165 3.30375 53.3062 3.39789 53.3132 3.4426C53.2826 3.58852 53.2097 3.65677 53.0944 3.64971C53.0096 3.6803 52.9343 3.72737 52.8637 3.7862C52.6872 3.96271 52.5131 4.11804 52.3366 4.25689C52.1295 4.40986 52.1154 4.48517 52.2919 4.48517H53.7039C53.8874 4.48517 54.0592 4.41222 54.2193 4.2663C54.3793 4.11333 54.6052 4.0945 54.897 4.20982C55.3324 4.42398 55.6148 4.61226 55.7466 4.77229C55.7772 4.90879 55.6737 5.03588 55.436 5.15119C55.4124 5.20532 55.4007 5.31594 55.4007 5.48303V7.88118C55.4924 8.3095 55.2924 8.55897 54.8053 8.62721C54.4005 8.71194 54.1934 8.55426 54.1863 8.15653C54.1863 8.02003 54.0945 7.94943 53.911 7.94943H53.3838C53.1932 7.94943 53.0967 8.04121 53.0967 8.22478V11.8844C52.9367 12.588 52.5201 12.9387 51.8471 12.9387C51.6165 12.9458 51.4564 12.8352 51.3646 12.6069C51.1811 12.3009 50.9552 12.1032 50.6869 12.0114C50.4868 11.9573 50.3692 11.9079 50.3315 11.8632C50.2939 11.7949 50.3056 11.7361 50.3668 11.6914C50.4727 11.6749 50.6563 11.6796 50.9175 11.7032L51.3199 11.7267C51.527 11.7267 51.6518 11.7149 51.6988 11.6914C51.8141 11.5761 51.8518 11.4325 51.8141 11.256V8.2389C51.8141 8.04827 51.7224 7.95178 51.5388 7.95178H51.207C51.0234 7.95178 50.9269 7.98943 50.9199 8.0671C50.8893 8.39658 50.6939 8.57544 50.3339 8.60603C49.8585 8.71429 49.6467 8.53308 49.6914 8.0671V4.3628C49.6914 4.11098 49.8091 4.01449 50.0468 4.07568C50.2915 4.12981 50.5527 4.22865 50.8257 4.37456C50.9481 4.45223 51.0846 4.48988 51.2376 4.48988C51.3905 4.48988 51.5058 4.37456 51.5812 4.14628C51.6494 3.8874 51.6988 3.62146 51.7294 3.35553C51.7529 3.14842 51.6753 3.04487 51.4988 3.04487H48.8724C48.6818 3.04487 48.5853 3.13666 48.5853 3.32022V5.70661C48.5477 7.23634 48.4018 8.53543 48.1499 9.60624C47.844 10.9148 47.2674 11.9197 46.4179 12.6233C46.3331 12.6375 46.3379 12.5151 46.4296 12.2562C46.8109 11.3007 47.0556 10.1005 47.1639 8.6531C47.2486 7.8647 47.3004 6.9704 47.3239 5.96784V2.56007C47.3239 2.30119 47.4416 2.21176 47.6793 2.29648L48.4582 2.64008C48.5806 2.70127 48.7336 2.73187 48.9171 2.73187H54.5487C54.8006 2.82365 55.0218 2.68951 55.2147 2.32943C55.323 2.17646 55.4407 2.02348 55.5701 1.87051H55.5748ZM49.449 9.11908C49.5102 8.86727 49.6585 8.77077 49.8961 8.83196C50.155 8.91669 50.4162 9.01553 50.6751 9.13085C50.9575 9.31442 51.0964 9.42973 51.0869 9.47445C51.0564 9.59683 50.9693 9.65802 50.8234 9.65802C50.7457 9.65802 50.621 9.77569 50.4445 10.0134C49.7644 10.9618 49.0113 11.6678 48.1852 12.1362C47.9405 12.2586 47.8016 12.308 47.7734 12.2844C47.7663 12.2539 47.8487 12.1244 48.0252 11.8938C48.6818 11.0913 49.1572 10.1664 49.4467 9.11673L49.449 9.11908ZM54.1863 5.09236C54.1863 4.88526 54.0875 4.78171 53.8874 4.78171H51.2611C51.0305 4.8123 50.9175 4.91821 50.9175 5.10177V5.78898C50.9175 5.9796 51.0093 6.07609 51.1928 6.07609H53.8992C54.0898 6.07609 54.1863 5.98431 54.1863 5.80074V5.09001V5.09236ZM54.1863 6.69975C54.1863 6.49265 54.1016 6.3891 53.9345 6.3891H51.2046C51.014 6.3891 50.9175 6.48088 50.9175 6.66445V7.36342C50.9175 7.55405 51.0093 7.65054 51.1928 7.65054H53.8992C54.0898 7.65054 54.1863 7.55876 54.1863 7.37519V6.6974V6.69975ZM53.6239 9.05083C53.6545 8.9967 53.7839 8.99435 54.0145 9.03907C54.5723 9.14732 55.1465 9.4062 55.7348 9.81805C56.4761 10.4064 56.808 10.9995 56.7327 11.5972C56.5797 12.1409 56.2314 12.2892 55.6878 12.0444C55.4877 11.8985 55.3865 11.7079 55.3771 11.4702C55.1865 10.6065 54.7205 9.89571 53.9769 9.3356C53.7321 9.18968 53.6145 9.09555 53.6215 9.04848L53.6239 9.05083Z" fill="black"/>
<path d="M57.9365 4.98851C57.9601 4.92026 58.0895 4.9132 58.3272 4.96497C58.6096 5.03322 58.892 5.15325 59.1767 5.32034C59.7416 5.69454 59.9416 6.1464 59.7721 6.67357C59.6427 7.09483 59.3438 7.2431 58.8779 7.12072C58.6096 6.98422 58.4684 6.75358 58.4543 6.43352C58.5013 6.08991 58.4284 5.74631 58.2354 5.40036C58.0354 5.16266 57.9365 5.02616 57.9365 4.98851ZM62.5938 1.89139C62.6244 1.84432 62.7539 1.84197 62.9845 1.87962C63.274 1.94081 63.6011 2.04907 63.9588 2.19969C64.1894 2.35266 64.3071 2.45151 64.3141 2.49858C64.3447 2.59036 64.2718 2.66802 64.0953 2.72921C63.9282 2.69862 63.8082 2.79511 63.7399 3.01633C63.6623 3.13871 63.6034 3.27286 63.5564 3.41877C63.4881 3.60234 63.5446 3.69412 63.7282 3.69412H66.1827C66.3663 3.69412 66.5334 3.60234 66.6887 3.41877C66.8417 3.19049 67.0205 2.97162 67.2276 2.76451C67.2747 2.75039 67.4065 2.80217 67.63 2.92455C68.0654 3.25403 68.3643 3.55527 68.5243 3.83062C68.5243 4.00713 68.3878 4.06361 68.1125 4.00242H63.594C63.4104 4.00242 63.2575 4.11774 63.1351 4.34602C62.5844 5.50862 61.8055 6.47117 60.7959 7.23604C60.6194 7.32076 60.4899 7.48079 60.4052 7.71849C60.2969 7.98678 60.2028 8.26449 60.1181 8.55631C59.8592 9.17526 59.7863 9.7801 59.8992 10.3685C59.9745 10.6744 60.064 10.9803 60.1628 11.2863C60.2993 11.7923 60.2381 12.2488 59.9792 12.6631C59.6874 12.9619 59.3862 13.0137 59.0732 12.8231C58.8896 12.7007 58.7673 12.4607 58.7061 12.1006C58.6896 11.8417 58.7249 11.4722 58.8096 10.9992C58.8543 10.785 58.859 10.4649 58.8214 10.0366C58.7837 9.79892 58.6261 9.58241 58.3507 9.38237C58.106 9.22233 57.9836 9.12349 57.9836 9.08348C57.9907 9.03877 58.1177 9.02935 58.3625 9.05995C58.699 9.18939 58.9273 9.10701 59.0497 8.80813C59.7368 7.43137 60.4381 6.05461 61.1489 4.67786C61.2712 4.44957 61.356 4.32249 61.4007 4.29895C61.476 4.30601 61.4807 4.4331 61.4124 4.67786L60.7817 6.59355C60.7041 6.83831 60.7394 6.8689 60.8853 6.68533C61.7725 5.30152 62.342 3.70353 62.5938 1.89139ZM58.8991 2.03024C58.9061 1.96905 59.0638 1.94552 59.3697 1.96199C60.0663 2.01612 60.5935 2.33384 60.9535 2.91513C61.0383 3.24462 61.0194 3.52703 60.8971 3.76472C60.7982 3.9177 60.657 4.00948 60.4735 4.04008C60.2287 4.08479 60.0193 4.00948 59.8427 3.81179C59.7345 3.65882 59.6474 3.4023 59.5792 3.04222C59.5109 2.78334 59.3791 2.55271 59.1885 2.35502C58.9979 2.17851 58.9014 2.07261 58.9014 2.03495L58.8991 2.03024ZM65.4838 6.83595C65.7356 6.61473 65.8815 6.50412 65.9191 6.50412C66.3545 6.68063 66.7452 6.93244 67.0888 7.26192C67.2041 7.40784 67.1546 7.5208 66.9405 7.60553C66.8252 7.65965 66.7569 7.70202 66.7334 7.73261C66.6887 8.63397 66.844 9.58712 67.2041 10.5897C67.3264 10.9097 67.5241 11.1898 67.7995 11.4275C67.9148 11.451 68.0019 11.4016 68.063 11.2792C68.209 10.9968 68.3572 10.5944 68.5102 10.0743C68.5478 10.0437 68.5855 10.0296 68.6255 10.0296C68.6632 10.0602 68.682 10.1896 68.682 10.4202L68.6373 11.2228C68.5384 11.5969 68.6373 11.9311 68.9361 12.2206C69.1503 12.6631 69.0162 12.929 68.5337 13.0114C67.5241 13.0255 66.7146 12.4183 66.1027 11.1874C65.6673 10.239 65.4649 9.05053 65.4955 7.61965C65.4955 7.41254 65.3967 7.30899 65.1967 7.30899H62.4432L62.0879 7.36548C61.8431 7.42666 61.7019 7.37254 61.6643 7.20544C61.6266 7.02893 61.7301 6.94892 61.9749 6.96539L62.3985 7.01246H64.9801C65.1637 7.01246 65.3308 6.95598 65.4838 6.84066V6.83595ZM65.898 5.08029C66.065 4.85201 66.2533 4.62608 66.4604 4.4025C66.5051 4.39544 66.644 4.45663 66.8722 4.58607C67.3147 4.91555 67.6112 5.22856 67.7548 5.52744C67.7006 5.65688 67.5453 5.69925 67.2841 5.65453H63.6481L63.281 5.71101C63.0363 5.74867 62.888 5.69689 62.8339 5.55098C62.7868 5.36035 62.8998 5.27563 63.1657 5.29916L63.6011 5.34388H65.3896C65.5803 5.34388 65.7497 5.2568 65.8956 5.08029H65.898Z" fill="black"/>
<path d="M74.6283 2.08684C74.6283 1.8562 74.7436 1.755 74.9719 1.77618C75.2402 1.79972 75.5061 1.83266 75.7744 1.87973C76.0498 1.88679 76.2215 1.99034 76.2898 2.19039C76.3133 2.28217 76.2451 2.35983 76.0827 2.42102C75.8991 2.48927 75.8379 2.7152 75.8991 3.09881C75.8991 3.28944 75.9909 3.38593 76.1745 3.38593H77.6877C77.963 3.46359 78.1819 3.32945 78.3419 2.98349L78.5255 2.75521C78.7561 2.48692 78.8973 2.35748 78.9491 2.36454C79.3162 2.54105 79.6833 2.83993 80.0505 3.25885C80.1964 3.47301 80.2529 3.60245 80.2223 3.64951C80.1681 3.67305 80.0316 3.68482 79.8104 3.68482H76.1862C75.9956 3.68482 75.8991 3.7766 75.8991 3.96017V4.70621C75.8991 4.89683 75.9909 4.99332 76.1745 4.99332L77.5959 4.98156C77.6265 4.96744 77.6806 4.91331 77.7559 4.82152C77.963 4.54617 78.0972 4.40497 78.1584 4.39791C78.5937 4.51322 79.015 4.73445 79.4198 5.06393C79.5257 5.20043 79.4645 5.32751 79.2362 5.44283C79.128 5.51108 79.0762 5.63817 79.0762 5.82173V8.80353C79.1444 9.33776 78.8761 9.61311 78.2737 9.62959C77.9136 9.61547 77.7583 9.43425 77.803 9.09065C77.803 8.94474 77.7112 8.87178 77.5277 8.87178H76.1862C75.9956 8.87178 75.8991 8.96357 75.8991 9.14713V9.93789C75.8991 10.1285 75.9909 10.225 76.1745 10.225H78.1937C78.469 10.3027 78.6879 10.1685 78.8479 9.82257L79.0197 9.59193C79.2339 9.33305 79.368 9.20126 79.4221 9.20126C79.7657 9.33776 80.1399 9.62959 80.547 10.072C80.7 10.3003 80.7565 10.4345 80.7188 10.4745C80.6812 10.5051 80.5423 10.5192 80.307 10.5192H76.1886C75.998 10.5192 75.9015 10.611 75.9015 10.7945V12.2278C75.9627 12.5784 75.8568 12.8279 75.5814 12.9738C75.1767 13.1033 74.866 13.0185 74.6519 12.722C74.6354 12.6679 74.6283 12.5267 74.6283 12.2984V10.8063C74.6283 10.6157 74.5365 10.5192 74.353 10.5192H70.6135L70.2346 10.5874C69.9898 10.6251 69.8416 10.5615 69.7874 10.3921C69.7639 10.2156 69.8675 10.1403 70.0981 10.1638C70.244 10.1709 70.3993 10.1897 70.5688 10.2203H74.3436C74.5342 10.2203 74.6307 10.1285 74.6307 9.94495V9.15419C74.6307 8.96357 74.5389 8.86707 74.3553 8.86707H73.0351C72.8445 8.86707 72.748 8.93297 72.748 9.06241C72.7409 9.37542 72.5691 9.55663 72.2326 9.60135C71.6748 9.72372 71.423 9.54486 71.4748 9.06241V4.87565C71.4748 4.6309 71.5925 4.54382 71.8302 4.61207C72.089 4.68032 72.355 4.78152 72.6209 4.91095C72.7127 4.96508 72.8515 4.99097 73.0327 4.99097H74.3412C74.5318 4.99097 74.6283 4.89919 74.6283 4.71562V3.96958C74.6283 3.77895 74.5365 3.68246 74.353 3.68246H71.1171L70.75 3.73895C70.5052 3.78366 70.3452 3.69658 70.2675 3.47536L70.2322 3.33886C70.2464 3.30827 70.3687 3.30356 70.5994 3.32709C70.7594 3.33415 70.9194 3.35298 71.0818 3.38358H74.3389C74.5295 3.38358 74.626 3.29179 74.626 3.10823V2.08684H74.6283ZM73.1269 5.2875L72.8068 5.29927C72.7692 5.32281 72.7503 5.42636 72.7503 5.60992V6.49246C72.7503 6.68309 72.8421 6.77958 73.0257 6.77958H74.3459C74.5365 6.77958 74.633 6.6878 74.633 6.50423V5.57462C74.633 5.38399 74.5412 5.2875 74.3577 5.2875H73.1292H73.1269ZM74.6283 7.38677C74.6283 7.17966 74.5436 7.07611 74.3765 7.07611H73.0351C72.8445 7.07611 72.748 7.1679 72.748 7.35146V8.2693C72.748 8.45993 72.8398 8.55642 73.0233 8.55642H74.3436C74.5342 8.55642 74.6307 8.46464 74.6307 8.28107V7.38677H74.6283ZM77.8054 5.58639C77.8054 5.37223 77.683 5.27338 77.4382 5.2875H76.1886C75.998 5.2875 75.9015 5.37929 75.9015 5.56286V6.49246C75.9015 6.68309 75.9933 6.77958 76.1768 6.77958H77.5183C77.7089 6.77958 77.8054 6.6878 77.8054 6.50423V5.58639ZM77.8054 7.38677C77.8054 7.17966 77.7206 7.07611 77.5535 7.07611H76.1886C75.998 7.07611 75.9015 7.1679 75.9015 7.35146V8.2693C75.9015 8.45993 75.9933 8.55642 76.1768 8.55642H77.5183C77.7089 8.55642 77.8054 8.46464 77.8054 8.28107V7.38677Z" fill="black"/>
<path d="M86.5232 2.20152C86.5232 1.97324 86.6385 1.86027 86.8668 1.86968C87.3257 1.90028 87.7234 1.97794 88.0599 2.10032C88.2058 2.22976 88.1658 2.34978 87.9446 2.45569C87.8528 2.49334 87.8081 2.60866 87.8081 2.79929V3.13112C87.8081 3.32175 87.8999 3.41824 88.0835 3.41824H90.2744C90.4886 3.46531 90.6557 3.40648 90.7804 3.24644C91.0393 2.91696 91.3146 2.87931 91.6064 3.13112C92.1195 3.41354 92.4513 3.66535 92.6043 3.88893C92.6419 4.00425 92.5784 4.0725 92.4089 4.09603C92.2183 4.08897 92.0253 4.17605 91.8347 4.35962C91.3311 4.72675 90.8722 5.01622 90.458 5.23039C90.3215 5.29864 90.2486 5.27981 90.2391 5.1739C90.2462 5.09859 90.305 4.96445 90.4109 4.77147C90.5263 4.51965 90.6251 4.26312 90.7098 4.00189C90.7545 3.81833 90.6863 3.72654 90.5027 3.72654L83.6544 3.73831C83.4262 3.75478 83.2873 3.87481 83.2426 4.10545C83.1649 4.51024 83.0637 4.81383 82.9319 5.01152C82.5884 5.40925 82.2165 5.47044 81.8188 5.19508C81.5741 4.98092 81.5623 4.67498 81.7835 4.27725C81.9129 4.10074 82.0589 3.98777 82.2189 3.93364C82.6613 3.57357 82.9414 3.14289 83.0567 2.6369C83.0943 2.62278 83.1296 2.62984 83.1602 2.66044C83.2144 2.81341 83.2473 2.96638 83.2638 3.11936C83.2873 3.30292 83.4167 3.40177 83.6544 3.41824H86.2361C86.4267 3.41824 86.5232 3.32646 86.5232 3.14289V2.20152ZM85.1112 4.27725C85.1959 4.01837 85.3441 3.9054 85.5583 3.94541C85.8172 3.99248 86.0902 4.06779 86.3726 4.17605C86.5561 4.22076 86.662 4.31255 86.6926 4.4514C86.6479 4.55966 86.5844 4.60437 86.5091 4.5879C86.4314 4.60437 86.3326 4.69145 86.2102 4.85148C86.1113 5.02799 86.1537 5.11507 86.3373 5.11507H87.8411C88.0999 5.18332 88.3353 5.05388 88.54 4.7244C88.6459 4.61614 88.7377 4.57613 88.8154 4.59731C89.2507 4.85854 89.599 5.18332 89.8603 5.57163C89.8673 5.74814 89.7685 5.83522 89.5614 5.83522C89.4013 5.83522 89.2743 5.94348 89.1825 6.15528C88.9307 6.58361 88.6506 6.96487 88.3447 7.30141C88.1447 7.53204 88.1564 7.69914 88.38 7.80504C89.6273 8.26396 90.9687 8.49695 92.4066 8.50401C92.4513 8.54166 92.4748 8.57697 92.4748 8.60756C92.4513 8.64522 92.3266 8.72523 92.0959 8.84761C91.8583 9.02412 91.6982 9.20298 91.6135 9.38655C91.5217 9.63836 91.4652 9.77722 91.4417 9.7984C91.3499 9.82899 91.1828 9.81722 90.9381 9.7631L90.7781 9.73956C90.5568 9.70897 90.4792 9.74427 90.5474 9.84311C90.6628 9.95843 90.6392 10.0737 90.4792 10.1867C90.2886 10.255 90.2203 10.4056 90.2721 10.6339V12.1824C90.378 12.6107 90.1803 12.8555 89.6767 12.9167C89.3166 13.0155 89.1001 12.9049 89.0225 12.5849C89.0154 12.3942 88.9189 12.2977 88.7353 12.2977H85.8454C85.6619 12.2977 85.5654 12.3401 85.5583 12.4248C85.5277 12.8061 85.2665 13.0061 84.7793 13.0202C84.3675 13.0438 84.2028 12.8414 84.2851 12.4131V9.94666C84.2851 9.7631 84.1698 9.67837 83.9415 9.69485C82.8778 9.84782 82.1365 9.90901 81.7153 9.87841C81.6776 9.84782 81.6611 9.81252 81.6705 9.77486C82.8096 9.5607 83.8262 9.24299 84.7229 8.82172C85.3347 8.50872 85.7936 8.2263 86.0996 7.97213C86.3443 7.76503 86.3702 7.55558 86.1796 7.34141C85.8266 6.88955 85.5842 6.53183 85.4453 6.26354C85.3536 6.07291 85.1935 6.07527 84.9629 6.27531C84.3675 6.76482 83.7862 7.12019 83.2191 7.34141C82.9131 7.44026 82.7672 7.45909 82.7837 7.3979C84.0451 6.36474 84.8217 5.32217 85.1112 4.26548V4.27725ZM87.6128 8.57932C87.361 8.41223 87.1233 8.40046 86.9021 8.54402C86.4738 8.81937 85.989 9.06883 85.4453 9.29006C85.2547 9.36772 85.2241 9.43597 85.3536 9.49716C85.4995 9.58188 85.6642 9.62424 85.8478 9.62424H88.5777C88.7612 9.62424 88.9024 9.57482 89.0013 9.47598C89.086 9.37007 89.006 9.26182 88.7612 9.15591C88.4553 9.02647 88.1494 8.87585 87.8434 8.70876L87.6151 8.58167L87.6128 8.57932ZM89.0107 10.2314C89.0107 10.0243 88.9118 9.92078 88.7118 9.92078H85.8548C85.6548 9.92078 85.556 10.0173 85.556 10.2079V11.7117C85.556 11.9024 85.6477 11.9989 85.8313 11.9989H88.7212C88.9118 11.9989 89.0083 11.9071 89.0083 11.7235V10.2314H89.0107ZM85.9725 5.42572C85.8572 5.45632 85.7583 5.51044 85.6736 5.58575C85.5889 5.67754 85.636 5.83522 85.8101 6.05644C86.109 6.39298 86.4055 6.66833 86.7044 6.8825C86.9115 7.03547 87.1092 7.00958 87.2998 6.80248C87.6599 6.36003 87.9305 5.91994 88.1141 5.4822C88.107 5.44455 88.0105 5.42572 87.8269 5.42572H85.9678H85.9725Z" fill="black"/>
<path d="M95.0012 7.35318C95.1 7.20021 95.2153 7.16962 95.3447 7.2614C95.5754 7.39084 95.8037 7.53675 96.0319 7.69678C96.239 7.88741 96.3026 8.0498 96.2273 8.17924C96.1119 8.33927 96.0555 8.49695 96.0555 8.64992V10.302C96.0555 10.4856 96.1167 10.655 96.239 10.808C96.6815 11.1681 97.218 11.3893 97.844 11.474C98.3406 11.5494 98.903 11.5964 99.5314 11.6105H101.219C102.16 11.5799 103.026 11.4882 103.822 11.3352C103.975 11.3046 104.08 11.2928 104.142 11.2999C104.21 11.354 104.146 11.4646 103.946 11.6317C103.572 11.9612 103.4 12.3801 103.431 12.8932C103.37 12.9238 103.243 12.9426 103.052 12.9496L102.628 12.9614H101.343C99.5149 12.9544 98.2088 12.7778 97.4204 12.4342C96.7638 12.1424 96.2014 11.6129 95.7331 10.8386C95.573 10.6315 95.4083 10.648 95.2388 10.8857C94.9023 11.4199 94.5917 11.9565 94.3093 12.4907C94.194 12.7661 94.0504 12.8037 93.8739 12.606C93.7445 12.406 93.6244 12.2036 93.5185 11.9989C93.4032 11.747 93.4809 11.5329 93.7492 11.3564C94.0245 11.1893 94.3046 10.9469 94.587 10.6339C94.7164 10.4738 94.7823 10.3044 94.7823 10.1302V8.28279C94.7823 8.09216 94.6905 7.99567 94.5069 7.99567C94.3234 7.98861 94.1351 8.00744 93.9445 8.05215C93.6997 8.08275 93.5585 8.02156 93.5209 7.86858C93.4762 7.70855 93.5774 7.63089 93.8315 7.63795L94.4175 7.69443C94.6011 7.69443 94.7964 7.57911 95.0035 7.35083L95.0012 7.35318ZM93.6809 4.3149C93.7115 4.28431 93.841 4.2796 94.0716 4.30314C94.7141 4.38786 95.2365 4.67498 95.6436 5.16449C95.7801 5.39277 95.8013 5.67283 95.7001 6.00231C95.5777 6.33885 95.3471 6.49653 95.0129 6.473C94.6458 6.37416 94.4505 6.17176 94.4269 5.86581C94.3587 5.39277 94.2128 5.00916 93.9916 4.71969C93.7845 4.48906 93.6809 4.35726 93.6809 4.31726V4.3149ZM94.0033 2.03207C94.041 1.93323 94.201 1.90969 94.4858 1.96382C94.867 2.00854 95.173 2.10032 95.4036 2.23917C96.046 2.63691 96.2131 3.14054 95.9096 3.75243C95.7095 3.95953 95.4812 4.04426 95.2224 4.00425C94.9541 3.91953 94.7941 3.7336 94.7399 3.44178C94.6788 2.98286 94.5117 2.6016 94.2363 2.29566C94.0904 2.15916 94.0151 2.06973 94.008 2.03207H94.0033ZM97.7664 2.11209C97.8511 1.82968 97.9382 1.82262 98.0299 2.08856C98.077 2.30978 98.2253 2.43216 98.4771 2.45569H101.988C102.172 2.45569 102.299 2.43686 102.367 2.39921C102.68 2.02501 102.953 1.94029 103.181 2.14739C103.746 2.45334 104.087 2.71457 104.203 2.92638C104.179 3.01816 104.111 3.06758 103.996 3.07464C103.927 3.07464 103.836 3.10994 103.72 3.17819C103.52 3.27704 103.318 3.39236 103.113 3.5218C102.944 3.63005 102.956 3.76655 103.149 3.93365L103.285 4.08191C103.469 4.32667 103.537 4.46788 103.492 4.50553C103.431 4.53612 103.285 4.55025 103.057 4.55025H101.049C100.859 4.55025 100.762 4.64203 100.762 4.8256V5.24922C100.762 5.43984 100.854 5.53633 101.038 5.53633H101.508C101.699 5.53633 101.838 5.4822 101.92 5.3763C102.019 5.26804 102.092 5.19979 102.139 5.1692C102.184 5.14566 102.348 5.19273 102.633 5.3057C103.076 5.51986 103.325 5.72225 103.379 5.91288C103.332 5.99761 103.231 6.08233 103.068 6.1647C103.052 6.20236 103.045 6.31297 103.045 6.49653V8.35575C103.151 8.79113 102.953 9.02883 102.45 9.06648C102.075 9.1112 101.899 8.96058 101.922 8.60756C101.922 8.50166 101.831 8.44753 101.647 8.44753H101.052C100.861 8.44753 100.765 8.53931 100.765 8.72288V9.1465C100.765 9.33713 100.856 9.43362 101.04 9.43362H102.21C102.417 9.49481 102.577 9.43362 102.692 9.25005C102.89 8.9747 103.073 8.77936 103.243 8.66404C103.487 8.79348 103.732 8.98882 103.977 9.25005C104.137 9.48069 104.215 9.61719 104.205 9.6619C104.168 9.70662 104.029 9.73015 103.793 9.73015H101.052C100.861 9.73015 100.765 9.82193 100.765 10.0055V10.6009C100.809 11.1822 100.539 11.4152 99.9503 11.2999C99.8208 11.2764 99.7102 11.1916 99.6185 11.0481C99.5949 10.7045 99.5879 10.3609 99.5949 10.0149C99.5949 9.82429 99.5031 9.7278 99.3196 9.7278H97.4039L97.0368 9.79605C96.7921 9.8337 96.6438 9.77722 96.5897 9.62425C96.545 9.43362 96.6579 9.34889 96.9333 9.37243C97.0698 9.37949 97.2204 9.39832 97.3804 9.42891H99.3078C99.4984 9.42891 99.5949 9.33713 99.5949 9.15356V8.72994C99.5949 8.53931 99.5031 8.44282 99.3196 8.44282H98.8842C98.7006 8.44282 98.6042 8.4993 98.5971 8.61462C98.4983 8.95822 98.23 9.10884 97.7946 9.06178C97.6416 9.02412 97.5451 8.98176 97.5075 8.93469C97.484 8.88056 97.4722 8.73936 97.4722 8.51107V5.50574C97.4722 5.24686 97.5899 5.15037 97.8275 5.21862C98.0111 5.26334 98.1947 5.33629 98.3782 5.43749C98.4936 5.49868 98.6418 5.52927 98.8254 5.52927H99.3078C99.4984 5.52927 99.5949 5.43749 99.5949 5.25392V4.8303C99.5949 4.63968 99.5031 4.54319 99.3196 4.54319H98.0464L97.6911 4.59967C97.4463 4.63732 97.3098 4.63026 97.2792 4.57613C97.218 4.52906 97.1098 4.47729 96.9592 4.4161C96.6297 4.14781 96.5967 3.82304 96.8556 3.44178C97.3616 3.09818 97.6652 2.65103 97.7734 2.10032L97.7664 2.11209ZM98.59 2.76634L98.4182 2.78988C98.2417 2.80635 98.1594 2.93579 98.1664 3.18055C98.1594 3.40177 98.1052 3.65829 98.0064 3.95012C97.8982 4.14075 97.9593 4.2443 98.19 4.26077H99.3031C99.4937 4.26077 99.5902 4.16899 99.5902 3.98542V3.29822C99.5902 3.03934 99.7244 2.91696 99.9926 2.93108C100.299 2.96874 100.605 3.01816 100.91 3.07935C101.193 3.17819 101.205 3.32881 100.946 3.5265C100.823 3.58769 100.762 3.72654 100.762 3.93835C100.762 4.15016 100.854 4.25842 101.038 4.25842C101.367 4.31255 101.602 4.25842 101.748 4.09839C101.939 3.8301 102.134 3.59475 102.334 3.38765C102.365 3.37353 102.402 3.26527 102.45 3.06758C102.473 2.86989 102.393 2.7687 102.21 2.7687H98.5971L98.59 2.76634ZM98.9572 5.83993C98.7124 5.87052 98.59 5.96937 98.59 6.13881V6.5742C98.59 6.76483 98.6818 6.86132 98.8654 6.86132H99.3008C99.4914 6.86132 99.5879 6.76953 99.5879 6.58596V6.12705C99.5879 5.93642 99.4961 5.83993 99.3125 5.83993H98.9572ZM99.5902 7.45673C99.5902 7.26611 99.4984 7.16962 99.3149 7.16962H98.8795C98.6889 7.16962 98.5924 7.2614 98.5924 7.44497V7.86858C98.5924 8.05921 98.6842 8.1557 98.8677 8.1557H99.3031C99.4937 8.1557 99.5902 8.06392 99.5902 7.88035V7.45673ZM101.918 6.12705C101.918 5.91994 101.795 5.82581 101.551 5.83993H101.047C100.856 5.83993 100.76 5.93171 100.76 6.11528V6.5742C100.76 6.76483 100.852 6.86132 101.035 6.86132H101.631C101.821 6.86132 101.918 6.76953 101.918 6.58596V6.12705ZM101.918 7.45673C101.918 7.26611 101.826 7.16962 101.642 7.16962H101.047C100.856 7.16962 100.76 7.2614 100.76 7.44497V7.86858C100.76 8.05921 100.852 8.1557 101.035 8.1557H101.631C101.821 8.1557 101.918 8.06392 101.918 7.88035V7.45673Z" fill="black"/>
<path d="M105.852 1.92726C105.876 1.89666 106 1.92726 106.231 2.01904C106.49 2.1273 106.751 2.24732 107.01 2.38618C107.462 2.64505 107.819 2.55798 108.088 2.12259C108.224 1.83312 108.438 1.80488 108.73 2.04258C109.264 2.30145 109.587 2.56268 109.693 2.82156C109.693 2.90629 109.615 2.98866 109.464 3.07338C109.196 3.1581 109.097 3.33696 109.166 3.61232V11.8493C109.074 12.4918 108.707 12.8472 108.064 12.9154C107.819 12.9296 107.683 12.8237 107.652 12.593C107.561 12.2871 107.361 12.0611 107.057 11.9152C106.873 11.8988 106.786 11.8117 106.793 11.6516C106.831 11.621 106.965 11.6046 107.196 11.6046C107.478 11.6187 107.69 11.5881 107.827 11.5128C107.925 11.421 107.963 11.268 107.942 11.0539V8.32389C107.942 8.13326 107.85 8.03677 107.667 8.03677H107.196C107.012 8.03677 106.909 8.15209 106.885 8.38037C106.824 9.06051 106.737 9.63475 106.622 10.1007C106.431 11.0327 106.071 11.8752 105.544 12.6236C105.367 12.8213 105.257 12.9225 105.212 12.9225C105.174 12.8848 105.186 12.7507 105.247 12.5201C105.607 10.7385 105.803 8.59218 105.833 6.08577V2.30616C105.833 2.07788 105.84 1.95079 105.857 1.92726H105.852ZM107.939 5.78218C107.939 5.57508 107.855 5.47153 107.688 5.47153H107.332C107.149 5.47153 107.05 5.56331 107.033 5.74688C107.017 6.32112 106.989 6.893 106.942 7.46724C106.942 7.65081 107.033 7.74259 107.217 7.74259H107.652C107.843 7.74259 107.939 7.65081 107.939 7.46724V5.77983V5.78218ZM107.939 3.13222C107.939 2.91805 107.843 2.81215 107.652 2.81215H107.332C107.142 2.81215 107.045 2.90393 107.045 3.0875V4.87611C107.045 5.06674 107.137 5.16323 107.321 5.16323H107.652C107.843 5.16323 107.939 5.07144 107.939 4.88788V3.13222ZM113.468 7.18012C113.644 7.01303 113.865 6.97066 114.134 7.05303C114.585 7.22954 114.903 7.43664 115.087 7.67199C115.141 7.83908 115.061 7.95205 114.847 8.00382C114.724 8.05795 114.625 8.19916 114.548 8.42744C114.289 9.10052 113.922 9.74771 113.446 10.3667C113.3 10.5502 113.343 10.7079 113.573 10.8374C114.223 11.1739 114.873 11.4022 115.524 11.5246C115.762 11.5552 115.903 11.5857 115.948 11.6163C115.993 11.6775 115.861 11.7646 115.546 11.8799C115.103 12.1106 114.8 12.4612 114.64 12.9343C114.609 12.9578 114.47 12.9225 114.228 12.8307C113.646 12.5389 113.112 12.1929 112.623 11.7858C112.385 11.5716 112.157 11.541 111.936 11.694C111.117 12.2447 110.239 12.6165 109.297 12.8072C109.067 12.8378 108.935 12.8448 108.895 12.8307C108.878 12.7931 108.987 12.713 109.215 12.5907C110.055 12.1929 110.808 11.7034 111.474 11.1221C111.658 10.9456 111.672 10.7432 111.521 10.5149C111.138 9.79714 110.822 8.95461 110.568 7.99205C110.552 7.80849 110.432 7.72141 110.201 7.72847L109.881 7.77318C109.643 7.80378 109.502 7.7473 109.457 7.60138C109.42 7.43429 109.519 7.35192 109.756 7.36133C109.916 7.36839 110.076 7.38722 110.239 7.41782H112.98C113.164 7.41782 113.329 7.3378 113.475 7.17777L113.468 7.18012ZM110.418 2.35088C110.418 2.09906 110.535 2.01433 110.773 2.09906C111.032 2.19084 111.293 2.29439 111.552 2.40971C111.698 2.52503 111.985 2.55092 112.413 2.48973C112.627 2.27557 112.83 2.12259 113.02 2.03081C113.082 2.02375 113.246 2.10377 113.515 2.27086C113.804 2.43089 113.988 2.6074 114.065 2.79803C114.065 2.86628 114.035 2.92747 113.974 2.9816C113.882 3.03572 113.837 3.15104 113.837 3.3252V4.96554C113.738 5.36327 113.912 5.54684 114.364 5.51624C114.487 5.50212 114.621 5.47153 114.767 5.42446C114.92 5.29502 115.047 5.04556 115.145 4.67842C115.244 4.45014 115.313 4.33482 115.353 4.33482C115.458 4.41248 115.494 4.57958 115.456 4.84081C115.449 5.13969 115.531 5.36092 115.708 5.50683C115.976 5.69746 116.028 5.94927 115.868 6.26463C115.47 6.60824 114.785 6.75885 113.816 6.71179C113.503 6.68119 113.22 6.59411 112.966 6.4482C112.776 6.29523 112.66 6.06695 112.623 5.761V3.09927C112.623 2.90864 112.531 2.81215 112.347 2.81215H111.98C111.75 2.8498 111.632 2.98395 111.625 3.21459C111.618 3.68056 111.59 4.15831 111.545 4.64783C111.43 5.70216 110.811 6.45762 109.686 6.90712C109.455 6.96125 109.33 6.97302 109.307 6.94242C109.436 6.77533 109.582 6.60118 109.742 6.42702C109.98 6.15167 110.14 5.84572 110.225 5.50918C110.361 4.71372 110.427 3.66174 110.42 2.35558L110.418 2.35088ZM113.284 8.01794C113.322 7.82025 113.246 7.71906 113.053 7.71906H111.081C110.898 7.71906 110.844 7.83437 110.921 8.06266C111.166 8.66749 111.564 9.25585 112.114 9.83008C112.298 9.99012 112.47 9.95246 112.63 9.71477C112.95 9.19466 113.169 8.62983 113.284 8.01794Z" fill="black"/>
<path d="M118.664 2.22603C118.702 1.99539 118.871 1.88949 119.168 1.90596C119.488 1.96009 119.794 2.04717 120.086 2.16954C120.283 2.23073 120.406 2.31075 120.453 2.40959C120.453 2.60964 120.316 2.72025 120.041 2.74143C120.01 2.77202 119.98 2.83792 119.949 2.93676C119.782 3.4404 119.596 3.95815 119.399 4.48532C119.33 4.66889 119.356 4.79127 119.479 4.85246C119.785 4.93718 119.846 5.07133 119.662 5.25489C119.54 5.38433 119.479 5.54201 119.479 5.72558V12.6423C119.37 12.9718 119.111 13.1059 118.7 13.0448C118.302 12.9977 118.137 12.7529 118.205 12.3105V6.99879C118.205 6.8011 118.107 6.83169 117.907 7.09057C117.716 7.32121 117.495 7.56126 117.241 7.81307C116.942 8.02724 116.786 8.11196 116.77 8.06489C116.753 8.01782 116.826 7.87426 116.989 7.62951C118.005 6.02447 118.563 4.22174 118.664 2.22603ZM121.477 2.9603C121.477 2.67082 121.599 2.52491 121.844 2.52491C122.103 2.54139 122.376 2.56963 122.658 2.6167C122.91 2.60964 123.075 2.69436 123.152 2.86851C123.159 2.9297 123.107 2.9956 122.992 3.06385C122.884 3.09444 122.797 3.22388 122.729 3.45452C122.484 4.1276 122.227 4.69242 121.959 5.15134C121.524 5.9468 120.985 6.60812 120.342 7.13529C120.043 7.35651 119.879 7.45535 119.848 7.43417C119.832 7.39652 119.905 7.25531 120.067 7.01055C120.916 5.76323 121.387 4.41472 121.479 2.9603H121.477ZM124.778 6.2504C124.962 6.04329 125.195 5.99858 125.477 6.1139C125.943 6.39631 126.247 6.60812 126.383 6.74462C126.56 6.95172 126.48 7.11646 126.143 7.23884C125.99 7.36122 125.934 7.53302 125.972 7.75424C125.964 9.38987 125.776 10.7666 125.409 11.8845C125.164 12.4588 124.694 12.8024 123.997 12.9177C123.705 12.9318 123.543 12.8188 123.503 12.5741C123.465 12.2987 123.272 12.0398 122.929 11.7951C122.63 11.7104 122.531 11.5809 122.63 11.4044C122.667 11.3879 122.802 11.3879 123.032 11.4044C123.27 11.4185 123.505 11.4232 123.743 11.4162C124.148 11.4232 124.369 11.2326 124.409 10.8419C124.616 9.77819 124.715 8.55205 124.708 7.15882C124.722 6.86935 124.599 6.7658 124.341 6.84817H123.55C123.366 6.84817 123.263 6.96349 123.239 7.19177C123.155 8.60618 122.886 9.79231 122.437 10.7478C122.025 11.628 121.382 12.2775 120.509 12.6988C120.21 12.7741 120.062 12.7859 120.062 12.7341C120.062 12.7035 120.203 12.5505 120.486 12.2752C120.928 11.741 121.255 11.1291 121.46 10.4395C121.75 9.55226 121.938 8.45556 122.023 7.14705C122.03 6.96349 121.919 6.87876 121.691 6.89524L121.554 6.91877C121.317 6.95643 121.18 6.89524 121.142 6.7352C121.098 6.56811 121.192 6.49045 121.43 6.50457C121.575 6.50457 121.731 6.52104 121.9 6.55164H124.218C124.409 6.55164 124.597 6.45279 124.781 6.25275L124.778 6.2504ZM124.574 2.15542C124.764 1.94832 124.971 1.96009 125.193 2.19072C125.553 2.39077 125.574 2.57433 125.261 2.74143C124.978 2.80968 124.96 3.08268 125.204 3.55572C125.687 4.45002 126.442 5.08545 127.475 5.45964C127.727 5.5679 127.854 5.63144 127.854 5.65498C127.579 5.82442 127.339 6.13037 127.132 6.57282C127.071 6.80345 127.023 6.93289 126.995 6.96349C126.642 6.88818 126.261 6.58458 125.849 6.05741C125.237 5.24783 124.825 4.22174 124.611 2.98383C124.649 2.60964 124.355 2.51079 123.729 2.68495C123.477 2.7226 123.331 2.67083 123.293 2.52491C123.256 2.3484 123.385 2.27309 123.684 2.29663C124.119 2.38841 124.418 2.34134 124.578 2.16013L124.574 2.15542Z" fill="black"/>
<path d="M132.34 2.27033C132.408 1.99498 132.559 1.8679 132.787 1.89143C133.375 1.99028 133.78 2.11971 134.004 2.2821C134.096 2.4186 134.039 2.51038 133.832 2.55745C133.785 2.57393 133.691 2.70572 133.545 2.95989C133.477 3.08227 133.418 3.20465 133.373 3.32702C133.281 3.54119 133.317 3.64709 133.477 3.64709H136.654C136.913 3.73888 137.131 3.60473 137.308 3.24465C137.414 3.09168 137.534 2.93871 137.663 2.78574C137.809 2.54804 138.03 2.58805 138.329 2.90105C138.527 3.04697 138.739 3.23289 138.96 3.46352C139.136 3.68475 139.216 3.8236 139.2 3.87537C139.169 3.9295 139.033 3.95539 138.788 3.95539H133.361C133.178 3.95539 133.02 4.07071 132.891 4.29899C132.561 4.80263 132.42 5.15564 132.467 5.35333C132.467 5.56043 132.559 5.66398 132.742 5.66398H135.736C135.95 5.69458 136.117 5.65222 136.239 5.5369C136.362 5.36039 136.498 5.19565 136.651 5.04268C136.689 5.02856 136.828 5.06856 137.063 5.16976C137.414 5.34627 137.72 5.5369 137.981 5.744C138.188 6.01935 138.108 6.20763 137.741 6.30647C137.588 6.39119 137.531 6.55123 137.569 6.78892V11.837C137.47 12.4866 137.094 12.8467 136.444 12.9149C136.199 12.929 136.035 12.7972 135.95 12.5125C135.858 12.2677 135.649 12.0583 135.319 11.8818C135.119 11.8206 135.013 11.7735 134.997 11.7453C134.929 11.677 134.952 11.6111 135.065 11.5499L135.948 11.5617C136.216 11.5546 136.329 11.3664 136.291 10.9992V10.1614C136.291 9.97076 136.199 9.87427 136.016 9.87427H132.747C132.556 9.87427 132.46 9.96606 132.46 10.1496V12.1806C132.46 12.4089 132.453 12.5478 132.436 12.5925C132.236 12.929 131.905 13.0208 131.439 12.8678C131.217 12.7455 131.137 12.5313 131.199 12.2254V7.14429C131.199 6.96072 131.088 6.9772 130.867 7.18901C130.363 7.71618 129.815 8.16804 129.226 8.54223C128.982 8.67873 128.848 8.73286 128.824 8.70226C128.817 8.66461 128.923 8.53046 129.144 8.29983C130.229 7.13723 131.086 5.79578 131.714 4.2731C131.806 4.05894 131.77 3.95304 131.61 3.95304H129.591L129.224 4.02129C128.972 4.04482 128.826 3.98599 128.789 3.84949C128.735 3.65886 128.845 3.57414 129.121 3.59767L129.544 3.64238H131.667C131.85 3.64238 131.985 3.52707 132.069 3.29878C132.178 2.95518 132.265 2.61158 132.333 2.26563L132.34 2.27033ZM136.272 6.0217C136.235 5.99111 136.127 5.97464 135.95 5.97464H132.749C132.559 5.97464 132.462 6.06642 132.462 6.24999V7.36316C132.462 7.55379 132.554 7.65028 132.738 7.65028H136.006C136.197 7.65028 136.294 7.5585 136.294 7.37493C136.301 6.92307 136.294 6.47356 136.27 6.0217H136.272ZM136.296 8.24805C136.296 8.05036 136.209 7.94917 136.032 7.94917H132.752C132.561 7.94917 132.465 8.04095 132.465 8.22452V9.27886C132.465 9.46948 132.556 9.56597 132.74 9.56597H136.009C136.199 9.56597 136.296 9.47419 136.296 9.29062V8.2457V8.24805Z" fill="black"/>
<path d="M140.677 2.36248C140.677 2.11773 140.792 2.01888 141.021 2.0636C141.272 2.14126 141.536 2.24246 141.811 2.37425C141.92 2.42838 142.063 2.45427 142.247 2.45427H142.706C142.889 2.45427 143.08 2.34366 143.28 2.12243C143.426 1.9624 143.616 1.97417 143.854 2.15773C144.252 2.35778 144.511 2.56959 144.633 2.80022C144.602 2.91554 144.525 2.98379 144.405 3.00732C144.268 3.08499 144.165 3.22619 144.094 3.43094C143.758 4.17227 143.376 4.91831 142.946 5.6667C142.946 5.72789 143.056 5.85027 143.278 6.03384C143.927 6.63867 144.318 7.23174 144.447 7.81068C144.638 8.56142 144.508 9.23215 144.056 9.82992C143.734 10.15 143.369 10.3241 142.955 10.3453C142.703 10.3524 142.574 10.2394 142.564 10.0017C142.557 9.79462 142.442 9.57811 142.221 9.34747C142 9.20156 141.889 9.22039 141.889 9.40395V12.4564C141.811 12.8 141.614 12.9765 141.294 12.9835C140.797 13.0306 140.59 12.8164 140.675 12.341V2.36248H140.677ZM143.052 3.07322C143.075 2.86612 142.997 2.76257 142.821 2.76257H142.179C141.988 2.76257 141.891 2.85435 141.891 3.03792V8.5779C141.891 8.76853 142.009 8.87914 142.247 8.90973C142.729 8.9874 143.03 8.91444 143.153 8.69086C143.374 8.3708 143.398 7.86481 143.221 7.17761C143.183 6.96344 143.068 6.73516 142.877 6.4904C142.762 6.33743 142.663 6.18446 142.579 6.03148C142.442 5.84792 142.4 5.69494 142.451 5.57257C142.727 4.75357 142.925 3.92046 143.049 3.07087L143.052 3.07322ZM144.967 2.01888C144.998 1.98829 145.127 2.01182 145.358 2.08713C145.549 2.14832 145.739 2.2354 145.932 2.35072C146.123 2.45897 146.299 2.51075 146.459 2.51075H148.26C148.436 2.60253 148.688 2.44956 149.017 2.05183C149.262 2.10596 149.552 2.2354 149.888 2.4425C150.171 2.62607 150.328 2.76021 150.359 2.84494C150.359 2.91319 150.312 2.98614 150.222 3.06381C150.022 3.14853 149.952 3.30856 150.003 3.54626V6.63161C150.079 6.99168 149.961 7.21761 149.648 7.3094C149.097 7.53062 148.791 7.40589 148.73 6.9305C148.73 6.75399 148.638 6.66691 148.455 6.66691H147.824C147.641 6.66691 147.549 6.78223 147.549 7.01051C147.641 7.73772 147.89 8.45317 148.295 9.15449C148.401 9.34512 148.558 9.331 148.766 9.10977C149.17 8.59673 149.439 8.18017 149.568 7.8601C149.697 7.61534 149.879 7.54709 150.107 7.653C150.352 7.80597 150.608 7.98954 150.877 8.2037C150.999 8.28843 151.03 8.38727 150.968 8.50259C150.931 8.53318 150.858 8.5473 150.749 8.5473C150.634 8.55436 150.535 8.59437 150.451 8.66262C149.978 9.09095 149.457 9.4016 148.89 9.59223C148.707 9.66048 148.702 9.8111 148.879 10.0394C149.429 10.7431 150.055 11.2467 150.759 11.5526C151.034 11.675 151.152 11.755 151.114 11.7927C150.801 11.9386 150.519 12.1951 150.265 12.5623C150.105 12.8 149.912 12.8517 149.69 12.7223C148.65 11.9715 147.982 11.0749 147.683 10.0276C147.391 8.92621 147.255 7.92129 147.271 7.01051C147.271 6.77988 147.179 6.66691 146.996 6.66691H146.525C146.335 6.66691 146.238 6.7587 146.238 6.94226V10.7054C146.238 10.889 146.353 10.9572 146.582 10.9125L147.269 10.7289C147.499 10.6748 147.631 10.656 147.671 10.6725C147.74 10.7807 147.655 10.8866 147.419 10.9925C146.93 11.3291 146.318 11.6397 145.584 11.9221C145.278 12.0445 144.972 12.181 144.666 12.334C144.513 12.4187 144.398 12.5058 144.322 12.5976C144.268 12.7576 144.169 12.7952 144.024 12.7129C143.939 12.5528 143.828 12.2587 143.692 11.8303L143.623 11.6021C143.579 11.3714 143.574 11.242 143.612 11.2114C143.955 11.1879 144.311 11.1761 144.678 11.1761C144.861 11.1526 144.953 11.049 144.953 10.8654V2.39779L144.965 2.01888H144.967ZM146.631 2.80964C146.372 2.84023 146.24 2.93201 146.24 3.08499V4.19816C146.24 4.38879 146.332 4.48528 146.516 4.48528H148.443C148.634 4.48528 148.73 4.3935 148.73 4.20993V3.12029C148.73 2.91319 148.631 2.80964 148.431 2.80964H146.631ZM148.73 5.09247C148.73 4.88536 148.646 4.78181 148.478 4.78181H146.528C146.337 4.78181 146.24 4.8736 146.24 5.05716V6.06679C146.24 6.25741 146.332 6.3539 146.516 6.3539H148.443C148.634 6.3539 148.73 6.26212 148.73 6.07855V5.09247Z" fill="black"/>
<path d="M154.797 2.50081C154.82 2.47022 154.945 2.47728 155.176 2.52434C155.75 2.70791 156.174 2.92207 156.449 3.16683C156.51 3.32687 156.437 3.42806 156.23 3.46572C156.094 3.41159 155.974 3.51043 155.875 3.7646L154.809 5.60028C154.305 6.41928 153.59 7.16061 152.665 7.82663C152.366 7.99607 152.199 8.05256 152.161 7.99843C152.161 7.9443 152.26 7.8078 152.46 7.58658C153.385 6.51577 154.034 5.29198 154.411 3.91522C154.557 3.44924 154.686 2.97856 154.802 2.50316L154.797 2.50081ZM155.795 6.41221C155.842 6.13686 155.978 6.01448 156.207 6.04508C156.649 6.10627 157.077 6.24747 157.491 6.4687C157.607 6.61461 157.541 6.71345 157.296 6.76758C157.235 6.80524 157.16 6.94644 157.068 7.1912C156.541 8.53736 155.832 9.76115 154.945 10.8626C154.755 11.0838 154.773 11.192 155.002 11.1826C156.256 11.145 157.786 11.0179 159.591 10.8037C159.805 10.7661 159.866 10.6625 159.774 10.4931C159.574 10.1189 159.285 9.74467 158.901 9.36813C158.602 9.20809 158.492 9.06689 158.569 8.94451C158.6 8.93039 158.736 8.96804 158.981 9.05983C160.167 9.50463 161.014 10.2577 161.528 11.3191C161.718 11.7616 161.695 12.1452 161.459 12.4652C161.276 12.6629 161.05 12.7241 160.782 12.6488C160.499 12.5406 160.339 12.3476 160.299 12.0628C160.268 11.8416 160.219 11.6204 160.151 11.3968C160.09 11.2062 159.944 11.1356 159.715 11.1897C157.774 11.6321 155.83 12.0581 153.888 12.4629C153.681 12.4935 153.552 12.5711 153.498 12.6935C153.42 12.83 153.331 12.8653 153.222 12.7971C153.07 12.5759 152.921 12.1711 152.775 11.5804C152.752 11.3356 152.872 11.2179 153.131 11.225H153.992C154.176 11.225 154.333 11.1097 154.463 10.8814C155.18 9.29752 155.625 7.8078 155.792 6.40751L155.795 6.41221ZM158.468 2.19016C158.567 2.05366 158.758 2.04189 159.042 2.15486C159.447 2.28429 159.506 2.46551 159.214 2.69379C159.007 2.76204 158.986 2.92207 159.146 3.17625C159.864 5.01192 160.982 6.09685 162.495 6.4334C162.723 6.47105 162.857 6.51341 162.897 6.56048C162.904 6.6052 162.794 6.68757 162.565 6.80053C162.154 6.99116 161.817 7.29004 161.556 7.69484C161.448 7.92547 161.377 8.04314 161.337 8.0502C161.007 7.8737 160.664 7.56069 160.304 7.10883C159.868 6.55813 159.525 5.94623 159.271 5.27315C159.064 4.75304 158.861 3.99289 158.663 2.99032C158.633 2.77616 158.536 2.67026 158.376 2.67026C157.849 2.64672 157.459 2.67026 157.207 2.73851C156.969 2.78322 156.828 2.72439 156.783 2.55494C156.738 2.38785 156.833 2.30548 157.07 2.31489C157.376 2.37608 157.701 2.39491 158.045 2.37137C158.228 2.37137 158.369 2.31018 158.468 2.1878V2.19016Z" fill="black"/>
<path d="M172.761 2.21453C172.914 1.87799 173.128 1.83563 173.403 2.08745C173.733 2.25454 174.003 2.48518 174.217 2.77465C174.265 2.87349 174.232 2.96292 174.126 3.03823C173.874 3.13002 173.777 3.30182 173.839 3.55364V11.7906C173.693 12.4567 173.302 12.8144 172.669 12.8685C172.408 12.8991 172.241 12.7885 172.165 12.5367C171.958 12.1319 171.598 11.8636 171.087 11.7342C171.026 11.5977 171.071 11.5388 171.224 11.5624L171.648 11.5741C172.022 11.6047 172.295 11.5788 172.462 11.4941C172.561 11.4094 172.598 11.2541 172.577 11.0234V3.24534C172.577 3.06177 172.561 2.95116 172.53 2.9135L172.198 2.90174H165.282L164.915 2.95822C164.663 2.99587 164.522 2.9441 164.491 2.79818C164.453 2.62168 164.576 2.54166 164.858 2.55813L165.249 2.60285H172.121C172.396 2.68757 172.61 2.55813 172.763 2.21218L172.761 2.21453ZM170.019 4.01491C170.179 3.8384 170.278 3.73956 170.318 3.71602C170.379 3.71602 170.525 3.78898 170.753 3.93489C171.165 4.2479 171.445 4.55149 171.591 4.84096C171.53 4.9704 171.377 5.01276 171.132 4.96805H165.374L165.006 5.0363C164.762 5.07395 164.613 5.01747 164.559 4.8645C164.512 4.67387 164.625 4.58915 164.891 4.61268C165.028 4.61268 165.178 4.62915 165.338 4.65975H169.193C169.438 4.75153 169.652 4.61268 169.835 4.2479L170.019 4.01726V4.01491ZM165.397 6.36599C165.397 6.12123 165.519 6.02945 165.764 6.09064C166.009 6.15889 166.268 6.25773 166.543 6.38952C166.71 6.49778 166.88 6.54956 167.047 6.54956H168.779C168.962 6.54956 169.122 6.48131 169.261 6.34245C169.4 6.2036 169.487 6.133 169.525 6.12358C169.763 6.18477 170.05 6.31186 170.386 6.50249C170.829 6.69311 170.925 6.88845 170.673 7.08849C170.466 7.19675 170.398 7.35208 170.466 7.55918V9.94556C170.572 10.3809 170.358 10.6328 169.824 10.7034C169.671 10.7269 169.532 10.7081 169.412 10.6469C169.252 10.4939 169.198 10.315 169.252 10.1079C169.252 9.89378 169.16 9.78788 168.977 9.78788H166.913C166.722 9.78788 166.626 9.87966 166.626 10.0632C166.663 10.5292 166.63 10.8422 166.522 11.0046C166.261 11.2258 165.96 11.2941 165.616 11.2117C165.416 11.1435 165.345 10.9669 165.397 10.6845V6.37069V6.36599ZM169.252 7.19204C169.337 6.92375 169.235 6.81079 168.953 6.84844H166.91C166.72 6.84844 166.623 6.94022 166.623 7.12379V9.19952C166.623 9.39015 166.715 9.48664 166.899 9.48664H168.962C169.153 9.48664 169.25 9.39485 169.25 9.21129V7.19204H169.252Z" fill="black"/>
<path d="M67.822 16.7481V17.6223H67.5597V17.4912C67.5597 17.0898 67.5438 17.0282 67.2081 17.0282H66.4988V18.0574H67.0789V17.6303H67.3412V18.8105H67.0789V18.3376H66.4988V19.4781H67.2438V19.7602H65.8232V19.4781H66.2385V17.0282H65.8232V16.7461H67.822V16.7481Z" fill="black"/>
<path d="M68.3484 18.8411C68.3742 19.2782 68.6603 19.5385 69.1133 19.5385C69.3796 19.5385 69.6339 19.4371 69.8961 19.302L69.9716 19.5583C69.7054 19.7133 69.3756 19.8186 69.0796 19.8186C68.3146 19.8186 68.0742 19.2166 68.0742 18.7636C68.0742 18.1198 68.4716 17.6191 69.016 17.6191C69.5604 17.6191 69.8783 18.0066 69.8783 18.6285C69.8783 18.698 69.8743 18.7695 69.8604 18.8391H68.3464L68.3484 18.8411ZM69.612 18.5589C69.612 18.1675 69.3378 17.9013 69.0199 17.9013C68.7021 17.9013 68.412 18.1834 68.3484 18.5589H69.612Z" fill="black"/>
<path d="M70.5894 19.4783H70.8775V19.7605H70.041V19.4783H70.3291V17.9623L70.0211 18.012L69.9834 17.7557C70.1185 17.7458 70.2576 17.7259 70.3549 17.6206C70.3887 17.5749 70.4145 17.5352 70.4682 17.5352C70.5914 17.5352 70.5914 17.6762 70.5914 17.7855V17.861C70.8059 17.7398 71.0185 17.6206 71.2629 17.6206C71.4656 17.6206 71.6861 17.71 71.7835 17.9365C71.859 18.1114 71.855 18.3438 71.855 18.5385V19.4783H72.1431V19.7605H71.3066V19.4783H71.5947V18.5485C71.5947 18.2425 71.6126 17.9007 71.2649 17.9007C71.0245 17.9007 70.792 18.0359 70.5934 18.1829V19.4783H70.5894Z" fill="black"/>
<path d="M74.0084 17.6807V17.9629H73.7004C73.7859 18.1178 73.8276 18.2331 73.8276 18.4258C73.8276 18.9225 73.5355 19.2086 73.1302 19.2086L72.9871 19.1928C72.9355 19.2226 72.7765 19.3835 72.7765 19.4431C72.7765 19.4789 72.9236 19.4789 72.9871 19.4789H73.6349C74.0104 19.4789 74.2349 19.6537 74.2349 20.0213C74.2349 20.6591 73.613 20.8041 73.1898 20.8041C72.86 20.8041 72.3057 20.7485 72.3057 20.222C72.3057 20.0014 72.4328 19.7948 72.5898 19.6795C72.5481 19.6438 72.5004 19.5782 72.5004 19.4689C72.5004 19.3279 72.6275 19.2027 72.7289 19.0914C72.5083 18.9364 72.3911 18.7397 72.3911 18.4278C72.3911 17.9966 72.6991 17.6191 73.0626 17.6191C73.1759 17.6191 73.2911 17.645 73.4004 17.6787H74.0084V17.6807ZM72.8759 19.759C72.7408 19.8703 72.5759 19.9895 72.5759 20.2061C72.5759 20.512 72.9772 20.522 73.164 20.522C73.4421 20.522 73.9587 20.4624 73.9587 20.0551C73.9587 19.7789 73.7759 19.759 73.5911 19.759H72.8759ZM73.1262 17.9013C72.8759 17.9013 72.6653 18.098 72.6653 18.404C72.6653 18.7457 72.86 18.9265 73.1381 18.9265C73.4163 18.9265 73.5534 18.7159 73.5534 18.4298C73.5534 18.1238 73.3885 17.9033 73.1262 17.9033V17.9013Z" fill="black"/>
<path d="M75.0955 17.6816V17.9638H74.7657L75.3359 19.2692L75.8306 17.9638H75.4969V17.6816H76.3711V17.9638H76.1008L75.318 20.058C75.179 20.4295 75.0558 20.807 74.6544 20.807C74.4895 20.807 74.3167 20.7375 74.1855 20.6262L74.2869 20.356C74.3922 20.4573 74.5273 20.5269 74.6683 20.5269C74.8889 20.5269 74.9982 20.1712 75.0737 19.9685L75.2048 19.6228L74.4816 17.9658H74.2153V17.6836H75.0955V17.6816Z" fill="black"/>
<path d="M77.9285 19.6333C77.7219 19.7346 77.5471 19.8201 77.3146 19.8201C76.9093 19.8201 76.6729 19.5638 76.6729 18.9617V17.9623L76.3649 18.012L76.3271 17.7557C76.4623 17.7458 76.6013 17.7259 76.6987 17.6206C76.7325 17.5749 76.7583 17.5352 76.8119 17.5352C76.9351 17.5352 76.9351 17.6762 76.9351 17.7855V18.8604C76.9351 19.377 77.0325 19.5379 77.3106 19.5379C77.5212 19.5379 77.7418 19.4366 77.9285 19.3273V17.9623L77.6206 18.012L77.5828 17.7557C77.7179 17.7458 77.857 17.7259 77.9544 17.6206C77.9881 17.5749 78.014 17.5352 78.0676 17.5352C78.1908 17.5352 78.1908 17.6762 78.1908 17.7855V19.4783H78.5286V19.7605H77.9285V19.6353V19.6333Z" fill="black"/>
<path d="M79.9459 19.6081C79.6916 19.7333 79.4472 19.8187 79.177 19.8187C78.8691 19.8187 78.585 19.6478 78.585 19.2405C78.585 18.8332 78.8512 18.6822 79.1433 18.6027C79.4055 18.5272 79.6638 18.5133 79.9459 18.5014V18.3703C79.9459 18.0841 79.9837 17.8974 79.6618 17.8974C79.4512 17.8974 79.2386 17.953 79.0618 18.0941V18.3901H78.7995V17.9073C79.0439 17.7325 79.3499 17.6152 79.6241 17.6152C80.0552 17.6152 80.2082 17.7503 80.2082 18.2431V19.473H80.5599V19.7551H79.9459V19.6041V19.6081ZM79.9459 18.7696C79.7055 18.7795 79.4433 18.8054 79.2148 18.8709C79.0419 18.9206 78.8591 18.9921 78.8591 19.2425C78.8591 19.4789 79.0201 19.5385 79.189 19.5385C79.4512 19.5385 79.7095 19.4233 79.9459 19.2922V18.7696Z" fill="black"/>
<path d="M81.1597 19.4783H81.4478V19.7605H80.6113V19.4783H80.8994V17.9623L80.5915 18.012L80.5537 17.7557C80.6888 17.7458 80.8279 17.7259 80.9252 17.6206C80.959 17.5749 80.9849 17.5352 81.0385 17.5352C81.1617 17.5352 81.1617 17.6762 81.1617 17.7855V17.861C81.3782 17.7398 81.5888 17.6206 81.8332 17.6206C82.0359 17.6206 82.2564 17.71 82.3538 17.9365C82.4293 18.1114 82.4253 18.3438 82.4253 18.5385V19.4783H82.7134V19.7605H81.8769V19.4783H82.165V18.5485C82.165 18.2425 82.1829 17.9007 81.8352 17.9007C81.5948 17.9007 81.3623 18.0359 81.1637 18.1829V19.4783H81.1597Z" fill="black"/>
<path d="M84.8604 19.5794L85.3034 19.4781V17.0878L84.8643 17.0521V16.7461C85.0213 16.766 85.1822 16.8057 85.3372 16.8057C85.5736 16.8057 85.8061 16.7461 86.0425 16.7461C86.3763 16.7461 86.6982 16.9865 86.6982 17.4196C86.6982 17.6799 86.5551 17.9462 86.3604 18.0773C86.7021 18.2084 86.9108 18.4886 86.9108 18.9257C86.9108 19.488 86.5929 19.7602 86.1836 19.7602C85.9511 19.7602 85.7147 19.7006 85.4822 19.7006C85.2835 19.7006 85.0809 19.7662 84.92 19.8158L84.8604 19.5794ZM85.5657 17.9978H85.7524C86.273 17.9978 86.424 17.7058 86.424 17.4355C86.424 17.1653 86.2472 17.0282 86.0226 17.0282C85.8697 17.0282 85.7147 17.0541 85.5657 17.0839V17.9978ZM85.5657 19.4701L86.0683 19.5297C86.4101 19.5695 86.6346 19.2992 86.6346 18.9217C86.6346 18.5959 86.4737 18.278 85.8995 18.278H85.5657V19.4681V19.4701Z" fill="black"/>
<path d="M88.5008 19.6333C88.2942 19.7346 88.1213 19.8201 87.8869 19.8201C87.4816 19.8201 87.2451 19.5638 87.2451 18.9617V17.9623L86.9372 18.012L86.8994 17.7557C87.0345 17.7458 87.1736 17.7259 87.2709 17.6206C87.3047 17.5749 87.3306 17.5352 87.3842 17.5352C87.5074 17.5352 87.5074 17.6762 87.5074 17.7855V18.8604C87.5074 19.377 87.6047 19.5379 87.8829 19.5379C88.0935 19.5379 88.314 19.4366 88.5008 19.3273V17.9623L88.1928 18.012L88.1551 17.7557C88.2902 17.7458 88.4293 17.7259 88.5266 17.6206C88.5604 17.5749 88.5862 17.5352 88.6399 17.5352C88.7631 17.5352 88.7631 17.6762 88.7631 17.7855V19.4783H89.1008V19.7605H88.5008V19.6353V19.6333Z" fill="black"/>
<path d="M90.708 17.5137L90.9404 17.5693C90.9066 17.7302 90.8808 17.8912 90.8808 18.0561C90.8808 18.1674 90.8888 18.2727 90.9106 18.378L90.6563 18.4038L90.6444 18.2925C90.6146 18.0462 90.551 17.9011 90.1338 17.9011C89.9351 17.9011 89.643 17.9707 89.643 18.2727C89.643 18.8051 90.9623 18.3482 90.9623 19.2125C90.9623 19.6953 90.4755 19.8204 90.1457 19.8204C89.9093 19.8204 89.7563 19.7708 89.5417 19.6595L89.5 19.8403L89.2755 19.7608C89.3092 19.6297 89.3271 19.4946 89.3271 19.3595C89.3271 19.2343 89.3152 19.1032 89.2715 18.9879L89.5337 18.9482C89.5834 19.3654 89.6609 19.5403 90.1675 19.5403C90.3245 19.5403 90.6881 19.4847 90.6881 19.2085C90.6881 18.6502 89.3688 19.1489 89.3688 18.2945C89.3688 17.8316 89.7583 17.621 90.1258 17.621C90.3126 17.621 90.4894 17.6667 90.6662 17.7362L90.708 17.5157V17.5137Z" fill="black"/>
<path d="M95.398 16.7461V17.8051H95.1357V17.4236C95.1357 17.0719 95.1099 17.0262 94.8178 17.0262H94.4761V19.4761H95.0304V19.7582H93.6615V19.4761H94.2158V17.0262H93.8741C93.582 17.0262 93.5562 17.0719 93.5562 17.4236V17.8051H93.2939V16.7461H95.4H95.398Z" fill="black"/>
<path d="M96.2509 19.4783H97.0158V19.7604H95.6211V19.4783H95.9887V17.9662L95.6807 18.0159L95.6429 17.7596C95.7781 17.7497 95.9171 17.7298 96.0145 17.6245C96.0483 17.5788 96.0741 17.5391 96.1277 17.5391C96.2509 17.5391 96.2509 17.6801 96.2509 17.7894V18.0557C96.4834 17.855 96.7079 17.6185 97.0119 17.6185C97.2324 17.6185 97.3715 17.7934 97.439 18.0258L97.1768 18.151C97.143 18.0457 97.1013 17.9007 96.986 17.9007C96.7715 17.9007 96.4158 18.2563 96.2509 18.4332V19.4783Z" fill="black"/>
<path d="M98.9752 19.6081C98.7209 19.7333 98.4765 19.8187 98.2063 19.8187C97.8984 19.8187 97.6143 19.6478 97.6143 19.2405C97.6143 18.8332 97.8805 18.6822 98.1726 18.6027C98.4348 18.5272 98.6931 18.5133 98.9752 18.5014V18.3703C98.9752 18.0841 99.013 17.8974 98.6911 17.8974C98.4805 17.8974 98.2679 17.953 98.0911 18.0941V18.3901H97.8288V17.9073C98.0732 17.7325 98.3792 17.6152 98.6534 17.6152C99.0845 17.6152 99.2375 17.7503 99.2375 18.2431V19.473H99.5892V19.7551H98.9752V19.6041V19.6081ZM98.9752 18.7696C98.7348 18.7795 98.4726 18.8054 98.2441 18.8709C98.0712 18.9206 97.8884 18.9921 97.8884 19.2425C97.8884 19.4789 98.0494 19.5385 98.2183 19.5385C98.4805 19.5385 98.7388 19.4233 98.9752 19.2922V18.7696Z" fill="black"/>
<path d="M100.19 19.4783H100.478V19.7605H99.6416V19.4783H99.9297V17.9623L99.6217 18.012L99.584 17.7557C99.7191 17.7458 99.8582 17.7259 99.9555 17.6206C99.9893 17.5749 100.015 17.5352 100.069 17.5352C100.192 17.5352 100.192 17.6762 100.192 17.7855V17.861C100.409 17.7398 100.619 17.6206 100.864 17.6206C101.066 17.6206 101.287 17.71 101.384 17.9365C101.46 18.1114 101.456 18.3438 101.456 18.5385V19.4783H101.744V19.7605H100.907V19.4783H101.195V18.5485C101.195 18.2425 101.213 17.9007 100.865 17.9007C100.625 17.9007 100.393 18.0359 100.194 18.1829V19.4783H100.19Z" fill="black"/>
<path d="M103.394 17.5137L103.627 17.5693C103.593 17.7302 103.567 17.8912 103.567 18.0561C103.567 18.1674 103.575 18.2727 103.597 18.378L103.343 18.4038L103.331 18.2925C103.301 18.0462 103.238 17.9011 102.82 17.9011C102.622 17.9011 102.33 17.9707 102.33 18.2727C102.33 18.8051 103.649 18.3482 103.649 19.2125C103.649 19.6953 103.162 19.8204 102.832 19.8204C102.596 19.8204 102.443 19.7708 102.228 19.6595L102.186 19.8403L101.962 19.7608C101.996 19.6297 102.014 19.4946 102.014 19.3595C102.014 19.2343 102.002 19.1032 101.958 18.9879L102.22 18.9482C102.272 19.3654 102.347 19.5403 102.854 19.5403C103.011 19.5403 103.375 19.4847 103.375 19.2085C103.375 18.6502 102.055 19.1489 102.055 18.2945C102.055 17.8316 102.445 17.621 102.812 17.621C102.999 17.621 103.176 17.6667 103.353 17.7362L103.394 17.5157V17.5137Z" fill="black"/>
<path d="M104.51 20.4678H104.916V20.7499H103.994V20.4678H104.248V17.9623L103.94 18.012L103.902 17.7557C104.037 17.7458 104.177 17.7259 104.274 17.6206C104.308 17.5749 104.333 17.5352 104.387 17.5352C104.51 17.5352 104.51 17.6762 104.51 17.7855V17.8411C104.679 17.71 104.802 17.6206 105.013 17.6206C105.53 17.6206 105.834 18.1372 105.834 18.7094C105.834 19.5538 105.22 19.8201 104.975 19.8201C104.814 19.8201 104.663 19.7744 104.51 19.7247V20.4678ZM104.51 19.4128C104.637 19.4982 104.769 19.5379 104.912 19.5379C105.301 19.5379 105.559 19.1505 105.559 18.7094C105.559 18.322 105.373 17.9007 105.009 17.9007C104.818 17.9007 104.616 18.0458 104.51 18.2326V19.4128Z" fill="black"/>
<path d="M106.109 18.7198C106.109 18.0979 106.507 17.6211 107.031 17.6211C107.556 17.6211 107.953 18.0979 107.953 18.7198C107.953 19.3417 107.556 19.8206 107.031 19.8206C106.507 19.8206 106.109 19.3378 106.109 18.7198ZM107.677 18.7198C107.677 18.2728 107.419 17.9012 107.029 17.9012C106.64 17.9012 106.382 18.2728 106.382 18.7198C106.382 19.1669 106.64 19.5384 107.029 19.5384C107.419 19.5384 107.677 19.1609 107.677 18.7198Z" fill="black"/>
<path d="M108.936 19.4783H109.701V19.7604H108.307V19.4783H108.674V17.9662L108.366 18.0159L108.328 17.7596C108.464 17.7497 108.603 17.7298 108.7 17.6245C108.734 17.5788 108.76 17.5391 108.813 17.5391C108.936 17.5391 108.936 17.6801 108.936 17.7894V18.0557C109.169 17.855 109.393 17.6185 109.697 17.6185C109.918 17.6185 110.057 17.7934 110.125 18.0258L109.862 18.151C109.829 18.0457 109.787 17.9007 109.672 17.9007C109.455 17.9007 109.101 18.2563 108.936 18.4332V19.4783Z" fill="black"/>
<path d="M111.103 17.6814H112.088V17.9635H111.103V18.9669C111.103 19.2272 111.077 19.5391 111.373 19.5391C111.601 19.5391 111.889 19.4537 112.112 19.3742L112.197 19.6404C111.939 19.7259 111.609 19.8212 111.347 19.8212C111.029 19.8212 110.84 19.6007 110.84 19.1079V17.9635H110.232V17.6814H110.84V17.123H111.103V17.6814Z" fill="black"/>
<path d="M113.775 19.6081C113.521 19.7333 113.276 19.8187 113.006 19.8187C112.698 19.8187 112.414 19.6478 112.414 19.2405C112.414 18.8332 112.68 18.6822 112.972 18.6027C113.235 18.5272 113.493 18.5133 113.775 18.5014V18.3703C113.775 18.0841 113.813 17.8974 113.491 17.8974C113.28 17.8974 113.068 17.953 112.891 18.0941V18.3901H112.629V17.9073C112.873 17.7325 113.179 17.6152 113.453 17.6152C113.884 17.6152 114.037 17.7503 114.037 18.2431V19.473H114.389V19.7551H113.775V19.6041V19.6081ZM113.775 18.7696C113.535 18.7795 113.272 18.8054 113.044 18.8709C112.871 18.9206 112.688 18.9921 112.688 19.2425C112.688 19.4789 112.849 19.5385 113.018 19.5385C113.28 19.5385 113.539 19.4233 113.775 19.2922V18.7696Z" fill="black"/>
<path d="M115.331 17.6814H116.317V17.9635H115.331V18.9669C115.331 19.2272 115.305 19.5391 115.601 19.5391C115.83 19.5391 116.118 19.4537 116.34 19.3742L116.426 19.6404C116.168 19.7259 115.838 19.8212 115.576 19.8212C115.258 19.8212 115.069 19.6007 115.069 19.1079V17.9635H114.461V17.6814H115.069V17.123H115.331V17.6814Z" fill="black"/>
<path d="M116.766 19.4797H117.606V17.9737C117.463 18.0035 117.318 18.0333 117.171 18.0233L116.811 17.9975L116.77 17.7213L117.155 17.7511C117.286 17.7611 117.535 17.7412 117.628 17.6101C117.662 17.5644 117.688 17.5346 117.741 17.5346C117.872 17.5346 117.868 17.6856 117.868 17.7948V19.4777H118.613V19.7599H116.766V19.4777V19.4797ZM117.695 17.163C117.548 17.163 117.421 17.0279 117.421 16.8511C117.421 16.6742 117.548 16.5352 117.695 16.5352C117.842 16.5352 117.966 16.6703 117.966 16.8511C117.966 17.0319 117.839 17.163 117.695 17.163Z" fill="black"/>
<path d="M118.796 18.7198C118.796 18.0979 119.193 17.6211 119.718 17.6211C120.242 17.6211 120.64 18.0979 120.64 18.7198C120.64 19.3417 120.242 19.8206 119.718 19.8206C119.193 19.8206 118.796 19.3378 118.796 18.7198ZM120.364 18.7198C120.364 18.2728 120.105 17.9012 119.716 17.9012C119.326 17.9012 119.068 18.2728 119.068 18.7198C119.068 19.1669 119.326 19.5384 119.716 19.5384C120.105 19.5384 120.364 19.1609 120.364 18.7198Z" fill="black"/>
<path d="M121.332 19.4783H121.62V19.7605H120.783V19.4783H121.071V17.9623L120.763 18.012L120.726 17.7557C120.861 17.7458 121 17.7259 121.097 17.6206C121.131 17.5749 121.157 17.5352 121.21 17.5352C121.334 17.5352 121.334 17.6762 121.334 17.7855V17.861C121.55 17.7398 121.761 17.6206 122.005 17.6206C122.208 17.6206 122.428 17.71 122.526 17.9365C122.601 18.1114 122.597 18.3438 122.597 18.5385V19.4783H122.885V19.7605H122.049V19.4783H122.337V18.5485C122.337 18.2425 122.355 17.9007 122.007 17.9007C121.767 17.9007 121.534 18.0359 121.336 18.1829V19.4783H121.332Z" fill="black"/>
<path d="M126.809 16.6856L127.045 16.775C126.986 16.9399 126.96 17.1207 126.97 17.3015L126.992 17.683L126.741 17.7327C126.723 17.2697 126.626 16.9637 126.187 16.9637C125.599 16.9637 125.4 17.6611 125.4 18.2433C125.4 18.8255 125.611 19.5348 126.179 19.5348C126.61 19.5348 126.771 19.193 126.771 18.7221H127.033V19.3659C126.797 19.6361 126.501 19.8169 126.167 19.8169C125.71 19.8169 125.128 19.3997 125.128 18.2195C125.128 17.0392 125.712 16.6836 126.177 16.6836C126.376 16.6836 126.582 16.7492 126.757 16.8545L126.813 16.6836L126.809 16.6856Z" fill="black"/>
<path d="M127.252 18.7198C127.252 18.0979 127.649 17.6211 128.174 17.6211C128.698 17.6211 129.096 18.0979 129.096 18.7198C129.096 19.3417 128.698 19.8206 128.174 19.8206C127.649 19.8206 127.252 19.3378 127.252 18.7198ZM128.822 18.7198C128.822 18.2728 128.563 17.9012 128.174 17.9012C127.784 17.9012 127.526 18.2728 127.526 18.7198C127.526 19.1669 127.784 19.5384 128.174 19.5384C128.563 19.5384 128.822 19.1609 128.822 18.7198Z" fill="black"/>
<path d="M130.288 19.127C130.449 19.127 130.584 19.2819 130.584 19.4727C130.584 19.6634 130.449 19.8184 130.288 19.8184C130.127 19.8184 129.992 19.6674 129.992 19.4727C129.992 19.278 130.127 19.127 130.288 19.127Z" fill="black"/>
<path d="M132.15 19.959C132.243 19.9331 132.326 19.8894 132.394 19.8079C132.255 19.798 132.144 19.6728 132.144 19.502C132.144 19.3013 132.267 19.1562 132.436 19.1562C132.622 19.1562 132.744 19.353 132.744 19.5636C132.744 19.9311 132.422 20.1815 132.148 20.251V19.959H132.15Z" fill="black"/>
<path d="M136.745 16.7461V17.0282H136.268V19.4781H136.936C137.401 19.4781 137.389 19.3827 137.389 18.8462V18.7052H137.651V19.7602H135.549V19.4781H136.006V17.0282H135.549V16.7461H136.745Z" fill="black"/>
<path d="M138.588 17.6814H139.573V17.9635H138.588V18.9669C138.588 19.2272 138.562 19.5391 138.858 19.5391C139.087 19.5391 139.375 19.4537 139.597 19.3742L139.683 19.6404C139.424 19.7259 139.095 19.8212 138.832 19.8212C138.514 19.8212 138.326 19.6007 138.326 19.1079V17.9635H137.718V17.6814H138.326V17.123H138.588V17.6814Z" fill="black"/>
<path d="M141.252 19.6796C141.091 19.7591 140.964 19.8207 140.787 19.8207C140.288 19.8207 139.929 19.3081 139.929 18.7359C139.929 18.1636 140.28 17.6212 140.787 17.6212C140.936 17.6212 141.109 17.6768 141.252 17.7265V16.892L140.872 16.9516L140.835 16.6953C140.97 16.6655 141.18 16.6854 141.278 16.5503C141.312 16.5046 141.337 16.4648 141.391 16.4648C141.514 16.4648 141.514 16.6059 141.514 16.7152V19.477H141.844V19.7591H141.252V19.6796ZM141.252 18.0424C141.129 17.957 140.99 17.9014 140.847 17.9014C140.441 17.9014 140.205 18.2828 140.205 18.7398C140.205 19.1471 140.441 19.5386 140.805 19.5386C140.966 19.5386 141.127 19.469 141.254 19.3577V18.0424H141.252Z" fill="black"/>
<path d="M142.973 19.127C143.134 19.127 143.269 19.2819 143.269 19.4727C143.269 19.6634 143.134 19.8184 142.973 19.8184C142.812 19.8184 142.677 19.6674 142.677 19.4727C142.677 19.278 142.812 19.127 142.973 19.127Z" fill="black"/>
</svg>
