<svg width="226" height="209" viewBox="0 0 226 209" fill="none" xmlns="http://www.w3.org/2000/svg">
<g clip-path="url(#clip0_1693_10498)">
<path opacity="0.4" d="M215.547 41.3423H10.4492V185.343H215.547V41.3423Z" fill="#DDE2FE"/>
<path d="M220.121 12.021H214.242V208.149H220.121V12.021Z" fill="#97A0E7"/>
<path d="M216.855 12.021H214.242V208.149H216.855V12.021Z" fill="#7380DA"/>
<path d="M11.1052 12.021H5.22656V208.149H11.1052V12.021Z" fill="#97A0E7"/>
<path d="M7.83928 12.021H5.22656V208.149H7.83928V12.021Z" fill="#7380DA"/>
<path d="M13.7173 13.3242H2.61328L5.226 17.8853H11.1046L13.7173 13.3242Z" fill="#5062CF"/>
<path d="M222.733 13.3242H211.629L214.242 17.8853H220.12L222.733 13.3242Z" fill="#5062CF"/>
<path d="M205.097 50.4644H150.883V117.578H205.097V50.4644Z" fill="#FFFFFA"/>
<path d="M190.728 75.2251H183.543V75.8767H190.728V75.2251Z" fill="#B2B2B2"/>
<path d="M190.728 77.1797H183.543V77.8313H190.728V77.1797Z" fill="#B2B2B2"/>
<path d="M190.728 79.1343H183.543V79.7859H190.728V79.1343Z" fill="#B2B2B2"/>
<path d="M169.173 68.0576H161.988V68.7092H169.173V68.0576Z" fill="#B2B2B2"/>
<path d="M169.173 70.0122H161.988V70.6638H169.173V70.0122Z" fill="#B2B2B2"/>
<path d="M169.173 71.9668H161.988V72.6184H169.173V71.9668Z" fill="#B2B2B2"/>
<path d="M205.097 50.4644H150.883V56.3286H205.097V50.4644Z" fill="#5062CF"/>
<path d="M203.138 100.637H195.953V101.288H203.138V100.637Z" fill="#B2B2B2"/>
<path d="M203.138 102.592H195.953V103.243H203.138V102.592Z" fill="#B2B2B2"/>
<path d="M203.138 104.546H195.953V105.198H203.138V104.546Z" fill="#B2B2B2"/>
<path d="M170.481 108.456H158.07V109.759H170.481V108.456Z" fill="#B2B2B2"/>
<path d="M170.481 104.546H158.07V105.85H170.481V104.546Z" fill="#B2B2B2"/>
<path d="M170.481 112.365H158.07V113.668H170.481V112.365Z" fill="#B2B2B2"/>
<path d="M156.091 105.459C156.091 105.96 155.679 106.371 155.176 106.371C154.673 106.371 154.262 105.96 154.262 105.459C154.262 104.957 154.673 104.546 155.176 104.546C155.679 104.546 156.091 104.957 156.091 105.459Z" fill="#FF5B79"/>
<path d="M156.091 109.108C156.091 109.609 155.679 110.02 155.176 110.02C154.673 110.02 154.262 109.609 154.262 109.108C154.262 108.606 154.673 108.195 155.176 108.195C155.679 108.195 156.091 108.606 156.091 109.108Z" fill="#F5C50F"/>
<path d="M156.091 112.756C156.091 113.258 155.679 113.669 155.176 113.669C154.673 113.669 154.262 113.258 154.262 112.756C154.262 112.255 154.673 111.844 155.176 111.844C155.679 111.844 156.091 112.255 156.091 112.756Z" fill="#3BC075"/>
<path d="M193.34 108.514V83.6954H172.438V64.0891C172.888 63.8546 173.202 63.3854 173.202 62.8446C173.202 62.0627 172.568 61.4307 171.785 61.4307C171.001 61.4307 170.367 62.0627 170.367 62.8446C170.367 63.3854 170.681 63.8546 171.131 64.0891V84.9986H192.033V108.514C191.582 108.749 191.269 109.218 191.269 109.759C191.269 110.541 191.903 111.173 192.686 111.173C193.47 111.173 194.104 110.541 194.104 109.759C194.104 109.218 193.79 108.749 193.34 108.514Z" fill="#FF5B79"/>
<path d="M193.339 65.3403C192.797 65.3403 192.327 65.6531 192.092 66.1027H180.929V97.3789H174.397V107.211C173.946 107.446 173.633 107.915 173.633 108.456C173.633 109.238 174.266 109.87 175.05 109.87C175.834 109.87 176.468 109.238 176.468 108.456C176.468 107.915 176.154 107.446 175.703 107.211V98.6821H182.235V67.4059H192.092C192.327 67.8555 192.797 68.1682 193.339 68.1682C194.123 68.1682 194.757 67.5362 194.757 66.7543C194.757 65.9724 194.123 65.3403 193.339 65.3403Z" fill="#F5C50F"/>
<path d="M187.463 102.65V90.863H158.723V72.5598C159.174 72.3253 159.487 71.8561 159.487 71.3153C159.487 70.5334 158.854 69.9014 158.07 69.9014C157.286 69.9014 156.652 70.5334 156.652 71.3153C156.652 71.8561 156.966 72.3253 157.417 72.5598V92.1661H186.156V102.65C185.706 102.885 185.392 103.354 185.392 103.895C185.392 104.677 186.026 105.309 186.81 105.309C187.593 105.309 188.227 104.677 188.227 103.895C188.227 103.354 187.913 102.885 187.463 102.65Z" fill="#3BC075"/>
<path d="M226 6.15674H0V13.3242H226V6.15674Z" fill="#97A0E7"/>
<path d="M0 6.80816H226C226 6.80816 218.763 0.148926 115.162 0.148926C11.5613 0.148926 0 6.80816 0 6.80816Z" fill="#5062CF"/>
<path d="M211.629 208.149H222.733L220.12 203.588H214.242L211.629 208.149Z" fill="#5062CF"/>
<path d="M2.61328 208.149H13.7173L11.1046 203.588H5.226L2.61328 208.149Z" fill="#5062CF"/>
<path d="M68.5833 41.3423L24.8203 185.343H41.4764L84.9128 41.3423H68.5833Z" fill="white"/>
<path d="M51.6016 185.343H63.0322L106.469 41.3423H95.3646L51.6016 185.343Z" fill="white"/>
<path d="M215.547 184.04H10.4492V187.298H215.547V184.04Z" fill="#5062CF"/>
<path d="M215.547 39.3877H10.4492V42.6456H215.547V39.3877Z" fill="#5062CF"/>
<path d="M190.729 169.054H186.156V208.149H190.729V169.054Z" fill="#E7E7E9"/>
<g style="mix-blend-mode:multiply" opacity="0.6">
<path d="M188.116 169.054H186.156V208.149H188.116V169.054Z" fill="#E7E7E9"/>
</g>
<path d="M40.498 169.054H35.9258V208.149H40.498V169.054Z" fill="#E7E7E9"/>
<g style="mix-blend-mode:multiply" opacity="0.6">
<path d="M37.8853 169.054H35.9258V208.149H37.8853V169.054Z" fill="#E7E7E9"/>
</g>
<path d="M195.301 163.189H27.4336V171.66H195.301V163.189Z" fill="#96C295"/>
<g style="mix-blend-mode:multiply" opacity="0.4">
<path d="M195.301 167.75H27.4336V171.66H195.301V167.75Z" fill="#369239"/>
</g>
</g>
<g clip-path="url(#clip1_1693_10498)">
<path d="M83.324 106.744L78.6484 98.5376L85.8484 93.4526L89.1248 98.5948L83.324 106.744Z" fill="#F5B297"/>
<path d="M84.1518 105.586C84.1518 105.586 85.8367 97.2232 85.1662 93.938L87.8946 100.451L84.0469 105.743L84.1576 105.593L84.1518 105.586Z" fill="#D19881"/>
<path d="M92.7108 92.2881C93.4979 96.8232 92.1337 101.023 89.6618 101.665C87.1957 102.308 84.5548 99.1515 83.7736 94.6092C82.9866 90.0742 84.3508 85.8748 86.8226 85.232C89.2945 84.5892 91.9296 87.7459 92.7108 92.2881Z" fill="#F5B297"/>
<path d="M88.3663 93.7955C86.6698 94.3097 84.8917 94.2455 83.2127 93.5955C82.5189 93.3384 82.2391 92.3957 82.5656 91.6387C82.6938 91.3244 82.8221 91.0102 82.9503 90.696C83.2768 89.9318 83.8831 89.639 84.3378 89.9603C85.498 90.7388 86.8097 91.1173 88.1448 91.0388C88.6753 91.0245 89.1941 91.3173 89.2991 91.8029C89.3399 92.0101 89.3807 92.21 89.4157 92.4171C89.5206 92.8956 89.0601 93.5813 88.3663 93.7955Z" fill="#979695"/>
<path d="M92.0973 98.3437L91.7942 97.8869L91.3044 98.1652L90.9663 97.6585L90.4766 97.9368L90.0977 97.373L90.2143 97.2588L90.5174 97.7085L91.0071 97.4301L91.3453 97.9368L91.835 97.6585L92.2139 98.2223L92.0973 98.3437Z" fill="#201600"/>
<path d="M92.8928 93.6094C92.9919 93.8879 93.2426 95.8091 93.3417 96.6232C93.365 96.8161 93.2076 96.9803 93.0036 96.9803H92.5547L92.8928 93.6165V93.6094Z" fill="#F5B297"/>
<path d="M90.3626 90.8016L90.2227 90.7303C90.246 90.6662 90.485 90.1029 91.9366 90.4523L91.9075 90.6305C90.5783 90.3097 90.3626 90.7945 90.3626 90.8016Z" fill="#979695"/>
<path d="M91.4603 95.2663C91.4603 95.2663 91.4311 95.2663 91.4136 95.2663C90.7782 95.2234 90.3059 94.2093 90.3642 93.0166C90.3934 92.4453 90.5333 91.9168 90.7665 91.524C91.0055 91.1169 91.3087 90.9098 91.6235 90.9312C92.259 90.974 92.7312 91.9882 92.6729 93.1809C92.6437 93.7522 92.5038 94.2807 92.2706 94.6735C92.0433 95.0592 91.7576 95.2663 91.4603 95.2663ZM91.5769 91.1169C91.3262 91.1169 91.0871 91.2954 90.8889 91.6311C90.6732 91.9953 90.545 92.4881 90.5158 93.0238C90.4633 94.1165 90.8714 95.0378 91.4253 95.0806C91.6818 95.102 91.9441 94.9163 92.1482 94.5664C92.3639 94.2022 92.4922 93.7094 92.5213 93.1737C92.5738 92.081 92.1657 91.1597 91.6118 91.1169C91.6002 91.1169 91.5885 91.1169 91.5769 91.1169Z" fill="#201600"/>
<path d="M85.8292 91.843L85.8008 92.0254L90.4221 93.1064L90.4506 92.924L85.8292 91.843Z" fill="#201600"/>
<path d="M87.3192 93.3453C87.4183 94.238 86.9053 95.0593 86.1707 95.1807C85.442 95.3022 84.7715 94.6737 84.6724 93.7738C84.5733 92.8811 85.0863 92.0598 85.8209 91.9383C86.5496 91.8169 87.2201 92.4454 87.3192 93.3453Z" fill="#F5B297"/>
<path d="M86.6525 92.7609L85.3203 93.1812L85.3581 93.3607L86.6903 92.9405L86.6525 92.7609Z" fill="#201600"/>
<path d="M91.9327 93.2237C91.9735 93.4521 91.9152 93.6519 91.8103 93.6805C91.7053 93.709 91.5887 93.5449 91.5538 93.3165C91.5188 93.0881 91.5713 92.8882 91.6762 92.8597C91.7811 92.8311 91.8977 92.9953 91.9327 93.2237Z" fill="#201600"/>
<path d="M75.3259 201.851C75.2093 202.651 76.9175 203.858 79.1387 204.536C81.3599 205.215 83.2546 205.122 83.3712 204.322C83.4878 203.522 81.7796 202.315 79.5585 201.637C77.3373 200.958 75.4425 201.051 75.3259 201.851Z" fill="black"/>
<path d="M70.8242 196.766L70.9933 205.608L77.2371 205.065L76.6308 196.259L70.8242 196.766Z" fill="#979695"/>
<path d="M70.8529 200.437L70.7305 206.679L83.5096 207.15C83.8069 207.165 84.0518 206.793 84.0343 206.35C83.9469 204.279 83.2997 203.051 81.3759 202.98C78.7991 202.887 71.6283 201.965 70.8529 200.444V200.437Z" fill="black"/>
<path d="M75.5859 137.289L82.5002 171.17L82.7858 172.57L82.6518 173.277L77.4981 200.787L68.8874 199.33L71.9422 171.463L72.0938 173.57L59.3555 141.031L75.5859 137.289Z" fill="#735846"/>
<path d="M71.5686 201.766C71.4404 202.566 73.3409 203.772 75.8186 204.451C78.2963 205.137 80.4068 205.037 80.5408 204.237C80.6691 203.437 78.7686 202.23 76.2908 201.551C73.8131 200.866 71.7027 200.966 71.5686 201.766Z" fill="black"/>
<path d="M66.5312 196.68L66.8111 205.522L74.9263 205.036L74.0868 196.23L66.5312 196.68Z" fill="#979695"/>
<path d="M66.5794 200.352L66.4453 206.594L80.6994 207.065C81.0317 207.079 81.3057 206.708 81.2824 206.265C81.1891 204.194 80.4604 202.965 78.3208 202.894C75.4467 202.801 67.4422 201.88 66.5794 200.359V200.352Z" fill="black"/>
<path d="M81.0878 207.079L81.0179 207.051C81.1869 206.479 81.1519 205.922 80.9129 205.408C79.9568 203.351 76.0916 202.409 76.0508 202.401L76.0624 202.309C76.2257 202.344 80.0035 203.266 80.9712 205.358C81.2219 205.901 81.2627 206.479 81.082 207.079H81.0878Z" fill="white"/>
<path d="M79.9642 170.934L73.0499 137.054L68.7067 138.053C68.934 132.468 66.6487 127.769 63.5064 127.476C60.2883 127.176 57.3908 131.604 57.0352 137.361C56.9652 138.525 57.0002 139.66 57.1343 140.724L57.4025 142.281C57.7115 143.653 58.1895 144.86 58.7958 145.838L69.2605 172.57L66.3514 199.095L74.968 200.559L80.1216 173.048L80.2557 172.341L79.97 170.942L79.9642 170.934Z" fill="#94765A"/>
<path d="M101 133.948L99.1875 134.423L110.564 199.598L112.377 199.123L101 133.948Z" fill="#735846"/>
<path d="M101.915 133.568C101.671 134.503 99.3153 134.632 97.3856 136.289C95.3626 137.781 94.3191 140.367 93.5204 140.259C93.1531 140.181 92.8441 139.21 93.124 137.767C93.3863 136.353 94.2316 134.482 95.7882 133.275C97.3157 132.018 99.0588 131.825 100.219 132.103C101.408 132.375 102.009 133.118 101.921 133.56L101.915 133.568Z" fill="#94765A"/>
<path d="M113.428 201.68L110.478 202.444L110.367 199.216L112.46 198.673L113.428 201.68Z" fill="#201600"/>
<path d="M85.9704 143.36C86.7866 144.16 86.635 146.052 85.6381 147.573C84.6354 149.102 83.1662 149.687 82.35 148.888C81.5339 148.088 81.6854 146.195 82.6824 144.674C83.6851 143.146 85.1542 142.56 85.9704 143.36Z" fill="#F5B297"/>
<path d="M81.2139 128.64L80.7825 113.592L74.3404 107.922L72.5565 127.583L72.469 127.798C71.6936 129.662 81.6045 148.43 81.6045 148.43L86.0002 143.267L81.208 128.64H81.2139Z" fill="#5D9142"/>
<path d="M84.3583 149.409L83.0466 147.452C82.8658 147.18 82.5452 147.145 82.3237 147.366C82.1254 147.566 82.0788 147.916 82.2129 148.18L83.2914 150.337C83.478 150.715 83.8861 150.837 84.1951 150.601C84.504 150.373 84.6032 149.873 84.4108 149.494C84.3933 149.466 84.3758 149.43 84.3583 149.401V149.409Z" fill="#F5B297"/>
<path d="M85.4813 148.501L84.1812 146.459C83.9655 146.116 83.5633 146.059 83.2834 146.323C83.0211 146.573 82.9628 147.03 83.1435 147.366L84.2978 149.53C84.5194 149.944 84.9683 150.058 85.3006 149.787C85.6387 149.516 85.732 148.966 85.5105 148.559C85.4988 148.537 85.4871 148.516 85.4755 148.501H85.4813Z" fill="#F5B297"/>
<path d="M86.3962 147.338L85.1078 145.716C84.8746 145.424 84.4956 145.416 84.2624 145.702C84.0409 145.966 84.0234 146.395 84.21 146.68L85.3526 148.459C85.5916 148.83 86.0289 148.894 86.3262 148.602C86.6294 148.309 86.676 147.773 86.4428 147.409C86.4253 147.388 86.4137 147.366 86.3962 147.345V147.338Z" fill="#F5B297"/>
<path d="M87.4449 146.416L85.9174 144.624C85.6726 144.338 85.2878 144.345 85.0546 144.645C84.8389 144.924 84.8331 145.352 85.0255 145.638L86.3838 147.623C86.6403 148.002 87.0951 148.045 87.4041 147.73C87.713 147.416 87.748 146.859 87.4915 146.48C87.474 146.459 87.4565 146.43 87.439 146.409L87.4449 146.416Z" fill="#F5B297"/>
<path d="M83.2309 150.387L82.1524 148.23C82.0008 147.923 82.0533 147.523 82.2807 147.295C82.543 147.03 83.0619 147.28 83.2601 147.58L83.1435 147.695C82.9861 147.466 82.5605 147.252 82.3739 147.437C82.2049 147.609 82.1641 147.909 82.2807 148.13L83.3592 150.287L83.2309 150.387Z" fill="black"/>
<path d="M84.2397 149.68L83.0853 147.516C82.8871 147.137 82.9571 146.623 83.2427 146.344C83.3943 146.202 83.5634 146.137 83.7325 146.166C83.8957 146.194 84.0473 146.309 84.1697 146.494L84.0531 146.609C83.9598 146.459 83.8432 146.373 83.715 146.344C83.5867 146.323 83.4585 146.373 83.3419 146.487C83.1145 146.709 83.0562 147.109 83.2194 147.409L84.3737 149.572L84.2455 149.672L84.2397 149.68Z" fill="black"/>
<path d="M85.2917 148.516L84.149 146.738C83.9333 146.402 83.9625 145.931 84.2073 145.631C84.4755 145.316 84.9011 145.324 85.1634 145.645L86.4518 147.266C86.4518 147.266 86.4868 147.316 86.5043 147.338L86.3877 147.452C86.3877 147.452 86.3586 147.409 86.3469 147.395L85.0585 145.774C84.8603 145.516 84.528 145.516 84.3181 145.759C84.1257 145.988 84.1082 146.359 84.2714 146.616L85.4141 148.395L85.2975 148.509L85.2917 148.516Z" fill="black"/>
<path d="M87.4409 146.545C87.4409 146.545 87.4118 146.502 87.3943 146.481L85.8669 144.688C85.657 144.438 85.3188 144.445 85.1148 144.71C84.9282 144.952 84.9166 145.324 85.0915 145.581L84.9749 145.702C84.7533 145.374 84.765 144.895 85.004 144.581C85.2664 144.245 85.6978 144.238 85.9718 144.56L87.4992 146.352C87.4992 146.352 87.54 146.402 87.5575 146.431L87.4409 146.552V146.545Z" fill="#72A15C"/>
<path d="M80.8447 96.938C77.5566 98.095 73.6448 100.402 70.2459 104.101C62.842 111.336 57.117 124.584 57.2686 134.847C63.0751 136.889 71.1904 141.089 76.997 143.131C76.9037 135.254 76.997 121.963 80.7806 113.593C81.6434 111.429 82.6286 109.436 83.5906 107.644C84.1911 106.522 81.0079 98.2878 80.8389 96.938H80.8447Z" fill="#72A15C"/>
<path d="M71.6524 114.56L71.5156 114.64L76.8013 128.216L76.9382 128.136L71.6524 114.56Z" fill="#201600"/>
<path d="M82.2102 110.55L78.5781 98.0657L78.718 98.0015L82.2393 110.114L83.6035 107.264L83.7376 107.357L82.2102 110.55Z" fill="#201600"/>
<path d="M96.8183 136.046C95.734 137.489 93.8159 137.482 92.5333 136.039C91.2508 134.597 91.0875 132.254 92.1661 130.811C93.2504 129.369 95.1685 129.376 96.451 130.818C97.7336 132.261 97.8968 134.604 96.8183 136.046Z" fill="#F5B297"/>
<path d="M94.5503 135.411L96.6549 136.411C96.9464 136.546 97.0863 136.946 96.9755 137.303C96.8706 137.625 96.5907 137.803 96.3226 137.725L94.1247 137.089C93.7399 136.975 93.5009 136.504 93.5883 136.032C93.6816 135.561 94.0664 135.268 94.4512 135.375C94.4803 135.382 94.5153 135.397 94.5444 135.411H94.5503Z" fill="#F5B297"/>
<path d="M94.9335 133.675L97.108 134.632C97.4695 134.789 97.6619 135.282 97.5278 135.725C97.4054 136.146 97.0381 136.375 96.6883 136.26L94.4554 135.532C94.0299 135.396 93.7792 134.861 93.8958 134.339C94.0124 133.818 94.4438 133.511 94.8694 133.654C94.8927 133.654 94.9102 133.668 94.9335 133.675Z" fill="#F5B297"/>
<path d="M95.6098 132.111L97.4287 133.196C97.7552 133.389 97.8892 133.875 97.7318 134.268C97.5861 134.639 97.2305 134.81 96.9157 134.668L95.0151 133.818C94.6187 133.639 94.4205 133.104 94.5604 132.625C94.7061 132.139 95.1434 131.897 95.534 132.068C95.5573 132.082 95.5806 132.089 95.6039 132.104L95.6098 132.111Z" fill="#F5B297"/>
<path d="M96.032 130.461L98.0783 131.797C98.4048 132.011 98.5272 132.504 98.3523 132.904C98.1891 133.275 97.8277 133.425 97.5187 133.275L95.3674 132.225C94.9593 132.025 94.7611 131.461 94.9244 130.961C95.0876 130.461 95.5482 130.218 95.9563 130.418C95.9854 130.432 96.0087 130.447 96.032 130.461Z" fill="#F5B297"/>
<path d="M95.8179 132.123L95.75 132.289L97.4808 133.35L97.5487 133.184L95.8179 132.123Z" fill="black"/>
<path d="M95.468 133.705L95.4102 133.875L97.143 134.755L97.2008 134.584L95.468 133.705Z" fill="black"/>
<path d="M95.025 135.621L94.9805 135.799L96.5363 136.383L96.5808 136.205L95.025 135.621Z" fill="black"/>
<path d="M84.3799 121.091L80.2815 105.258L69.1172 108.829L76.766 126.248L76.7893 126.483C77.0167 128.555 93.8768 137.103 93.8768 137.103L95.1011 129.797L84.374 121.098L84.3799 121.091Z" fill="#72A15C"/>
</g>
<g clip-path="url(#clip2_1693_10498)">
<path d="M137.47 202.631C137.602 203.415 135.304 204.526 132.34 205.109C129.376 205.692 126.863 205.532 126.724 204.748C126.592 203.963 128.89 202.853 131.854 202.27C134.818 201.687 137.331 201.846 137.47 202.631Z" fill="black"/>
<path d="M143.035 206.428L133.379 205.706L134.615 197.175L143.59 197.848L143.035 206.428Z" fill="#979695"/>
<path d="M129.401 203.505C132.823 203.505 142.375 202.867 143.444 201.416V207.483H126.465C126.069 207.483 125.757 207.115 125.792 206.685C125.958 204.672 126.854 203.505 129.408 203.505H129.401Z" fill="black"/>
<path d="M152.441 205.115L161.299 205.101L161.285 195.55L153.018 195.564L152.441 205.115Z" fill="#979695"/>
<path d="M156.953 203.589C158.696 203.589 160.278 203.033 161.403 202.152C161.771 202.929 162.069 204.352 162.278 205.623C162.493 206.928 161.729 208.149 160.702 208.149H153.267C152.247 208.149 151.483 206.935 151.685 205.637C151.879 204.38 152.212 203.235 152.657 202.27C153.774 203.089 155.287 203.589 156.953 203.589Z" fill="black"/>
<path d="M152.465 204.907C152.465 206.566 154.61 207.906 157.261 207.906C159.913 207.906 162.058 206.566 162.058 204.907C162.058 203.248 159.913 201.909 157.261 201.909C154.61 201.909 152.465 203.248 152.465 204.907Z" fill="black"/>
<path d="M164.994 199.035L161.329 128.481L151.423 129.376L134.68 128.043L131.008 198.521L144.398 199.632L148.383 167.478L151.617 200.243L164.994 199.035Z" fill="#DB5964"/>
<path d="M148.299 167.451L145.043 134.499L142.926 133.992L142.967 133.812L145.21 134.353L145.216 134.416L148.479 167.43L148.299 167.451Z" fill="black"/>
<path d="M142.066 86.9911C145.148 87.6436 148.342 87.5048 151.354 86.5885C151.313 86.4566 151.271 86.3178 151.229 86.1859C150.965 85.3182 150.702 84.4505 150.438 83.5828C150.119 82.5346 149.799 81.4865 149.48 80.4383C149.452 80.3481 149.424 80.2578 149.397 80.1676C149.383 80.112 149.362 80.0565 149.348 80.001C149.133 80.0635 148.911 80.1259 148.696 80.1815C146.988 80.591 145.211 80.6188 143.489 80.2578L143.455 80.4383L142.719 83.923L142.157 86.5816L142.073 86.9911H142.066Z" fill="#F5B297"/>
<path d="M142.066 86.9911C142.066 86.9911 142.171 86.8384 142.365 86.5677C142.774 85.9985 143.58 84.9364 144.551 83.8327C145.232 83.0692 145.995 82.2848 146.773 81.6323C147.668 80.8826 148.578 80.3134 149.404 80.1606H148.696L143.489 80.2439L143.455 80.4244L142.719 83.9091L142.157 86.5677L142.073 86.9772L142.066 86.9911Z" fill="#D19881"/>
<path d="M151.224 86.186L142.145 86.5817C142.332 85.6931 142.519 84.8046 142.707 83.923L150.433 83.5898L151.224 86.1929V86.186Z" fill="#A2C096"/>
<path d="M141.563 76.1207C141.799 78.9668 142.444 81.0909 143.43 82.1252C144.402 83.1872 145.721 83.1595 147.054 82.382C148.393 81.5837 149.435 80.3204 150.031 79.0362C150.628 77.7173 151.33 75.5585 150.982 73.9202C150.635 72.2959 152.392 71.2269 151.343 69.5818C150.302 67.9713 145.915 66.6177 144.7 66.2151C142.555 65.3683 141.431 69.0195 141.466 74.0174C141.466 74.7116 141.5 75.4196 141.563 76.1277V76.1207Z" fill="#F5B297"/>
<path d="M144.403 77.6687C144.285 77.6687 144.167 77.6201 144.084 77.5438C143.987 77.4535 143.931 77.3286 143.938 77.1967L144.021 72.7402H144.202L144.119 77.2037C144.119 77.287 144.146 77.3633 144.209 77.4188C144.271 77.4744 144.348 77.5021 144.431 77.4952L145.174 77.4327L145.188 77.6132L144.445 77.6757C144.445 77.6757 144.417 77.6757 144.403 77.6757V77.6687Z" fill="black"/>
<path d="M147.303 72.7333C147.324 73.004 147.213 73.2331 147.047 73.247C146.887 73.2609 146.734 73.0526 146.713 72.7819C146.693 72.5112 146.804 72.2821 146.97 72.2682C147.13 72.2544 147.283 72.4626 147.303 72.7333Z" fill="black"/>
<path d="M142.628 73.1152C142.649 73.3859 142.537 73.6149 142.371 73.6288C142.211 73.6427 142.058 73.4345 142.038 73.1637C142.017 72.893 142.128 72.664 142.294 72.6501C142.454 72.6362 142.607 72.8444 142.628 73.1152Z" fill="black"/>
<path d="M148.067 71.5324C147.394 71.0882 146.304 71.463 146.29 71.47L146.234 71.3034C146.283 71.2895 147.421 70.9008 148.171 71.3867L148.074 71.5394L148.067 71.5324Z" fill="black"/>
<path d="M141.467 71.7684L141.363 71.6226C141.78 71.338 142.877 71.4768 142.925 71.4838L142.904 71.6642C142.606 71.6226 141.766 71.5671 141.467 71.7753V71.7684Z" fill="black"/>
<path d="M144.105 79.6053C144.293 79.6053 144.473 79.6122 144.654 79.6053C144.834 79.6053 145.015 79.5844 145.195 79.5636C145.556 79.522 145.91 79.4526 146.257 79.3554C146.604 79.2651 146.938 79.1194 147.257 78.9528L147.493 78.8209L147.715 78.6682C147.875 78.5779 148 78.446 148.152 78.335C147.916 78.6126 147.646 78.8833 147.326 79.0708C147.014 79.2721 146.667 79.4248 146.306 79.5289C145.945 79.633 145.577 79.6955 145.209 79.7024C144.841 79.7163 144.466 79.6955 144.105 79.6053Z" fill="white"/>
<path d="M153.776 73.3858C153.755 72.9832 153.623 72.6223 153.429 72.3168C153.588 71.9906 153.672 71.6157 153.651 71.2131C153.616 70.6161 153.352 70.0955 152.964 69.7484C152.991 69.5749 153.005 69.4014 152.998 69.2139C152.943 68.256 152.297 67.4855 151.478 67.3189C151.173 66.5692 150.479 66.0694 149.701 66.1111C149.486 66.125 149.285 66.1805 149.097 66.2638C149.09 66.2638 149.076 66.2638 149.07 66.2638C148.778 65.4863 148.07 64.9518 147.272 64.9935C146.897 65.0143 146.557 65.1601 146.279 65.3892C145.981 65.1878 145.627 65.0837 145.252 65.1045C144.918 65.1254 144.613 65.2434 144.356 65.4308C144.079 65.2711 143.759 65.1878 143.426 65.2087C142.78 65.2434 142.239 65.646 141.947 66.2291C141.809 66.3679 141.698 66.5276 141.607 66.708C141.51 66.6942 141.413 66.6872 141.309 66.6942C140.302 66.7497 139.539 67.7076 139.601 68.8252C139.65 69.7207 140.212 70.4426 140.948 70.6717C141.066 70.8174 141.205 70.9493 141.357 71.0535C141.774 70.4981 142.385 70.1302 143.086 70.0955L148.341 69.797C148.382 69.797 148.417 69.797 148.459 69.797C148.591 70.2066 148.847 70.6578 149.215 71.0673C149.757 71.6782 150.395 72.0669 150.916 72.1502C150.923 72.2266 150.93 72.296 150.937 72.3724L151.103 75.26C151.388 75.4266 151.714 75.5169 152.061 75.4961C153.068 75.4405 153.831 74.4826 153.769 73.365L153.776 73.3858Z" fill="#735846"/>
<path d="M152.512 73.5039C152.581 74.3161 151.978 75.0241 151.165 75.0936C150.353 75.163 149.645 74.5591 149.576 73.7469C149.506 72.9347 150.11 72.2267 150.922 72.1573C151.735 72.0879 152.443 72.6918 152.512 73.5039Z" fill="#F5B297"/>
<path d="M150.597 72.8682L150.586 73.0483L151.57 73.1114L151.581 72.9313L150.597 72.8682Z" fill="black"/>
<path d="M206.341 113.89C206.167 113.577 205.813 113.424 205.487 113.494L205.411 113.508C205.112 113.57 204.793 113.598 204.467 113.598C204.14 113.598 203.8 113.57 203.46 113.522C203.12 113.473 202.78 113.411 202.44 113.334C202.273 113.293 202.1 113.251 201.94 113.202C201.857 113.182 201.773 113.154 201.697 113.133L201.579 113.098L201.524 113.077H201.496C201.496 113.077 201.489 113.064 201.482 113.064C200.746 112.709 199.136 112.654 198.782 113.39C198.615 113.737 198.754 114.195 199.025 114.625L198.559 115.424C198.58 115.458 197.997 116.833 197.706 117.52C197.692 117.492 197.678 117.464 197.678 117.437L196.512 119.471L197.477 119.845C197.956 120.199 201.69 122.65 202.232 122.761C202.357 122.789 202.488 122.782 202.606 122.74C202.856 122.664 203.065 122.455 203.12 122.178C203.183 121.886 203.058 121.595 202.835 121.428C202.759 121.373 202.669 121.324 202.565 121.303C202.377 121.227 201.926 120.914 201.357 120.484C201.35 120.484 201.336 120.47 201.329 120.463C201.357 120.456 201.392 120.442 201.419 120.435C201.933 120.262 202.426 119.991 202.863 119.63C202.933 119.575 203.002 119.512 203.065 119.45C203.099 119.415 203.134 119.38 203.169 119.346C203.203 119.311 203.245 119.269 203.28 119.228C203.398 119.103 203.516 118.964 203.62 118.818C203.786 118.589 203.911 118.339 203.988 118.075C203.988 118.075 203.988 118.068 203.988 118.061C204.002 118.013 204.016 117.964 204.022 117.923C204.022 117.909 204.029 117.888 204.036 117.874C204.175 117.215 204.036 116.513 203.613 115.951L203.46 115.771C203.46 115.771 203.488 115.771 203.509 115.771C203.932 115.701 204.349 115.618 204.772 115.5C205.196 115.375 205.612 115.208 206.022 114.986C206.403 114.771 206.549 114.292 206.334 113.903L206.341 113.89Z" fill="#F5B297"/>
<path d="M200.575 113.626C200.853 113.612 201.137 113.681 201.394 113.848C201.436 113.876 201.471 113.903 201.505 113.931C201.887 114.25 202.283 114.549 202.685 114.841C204.157 115.882 205.767 116.736 207.482 117.326C207.989 117.499 208.259 118.054 208.086 118.561C207.919 119.033 207.426 119.304 206.947 119.193C206.455 119.075 205.976 118.929 205.504 118.756C205.42 118.721 205.337 118.693 205.254 118.658C204.893 118.513 204.532 118.353 204.185 118.179H204.178C204.115 118.152 204.053 118.117 203.99 118.089C202.685 117.423 201.45 116.59 200.193 115.757L199.888 116.104C199.77 116.028 199.673 115.93 199.589 115.826C199.555 115.778 199.52 115.736 199.492 115.687L200.575 113.633V113.626Z" fill="#F5B297"/>
<path d="M199.595 115.819C199.595 115.819 199.623 115.784 199.636 115.764C200.074 115.236 200.858 115.167 201.379 115.604C201.414 115.632 201.441 115.66 201.476 115.687C202.26 116.493 203.121 117.228 204.051 117.874C204.232 118.006 204.419 118.131 204.614 118.249C204.614 118.249 204.614 118.249 204.621 118.249C204.836 118.388 205.044 118.519 205.266 118.644C205.342 118.693 205.426 118.735 205.502 118.783C205.863 118.991 206.238 119.179 206.613 119.352C207.057 119.561 207.251 120.095 207.043 120.539C206.849 120.956 206.37 121.15 205.939 121.005C205.932 121.005 205.919 121.005 205.912 120.998C205.821 120.963 205.731 120.935 205.641 120.9C205.502 120.852 205.363 120.796 205.224 120.741C204.412 120.421 203.621 120.04 202.857 119.616C201.774 119.005 200.747 118.297 199.796 117.499C199.456 117.207 199.303 116.777 199.359 116.368C199.387 116.166 199.463 115.972 199.588 115.805L199.595 115.819Z" fill="#F5B297"/>
<path d="M198.693 116.77C198.804 116.645 198.929 116.555 199.068 116.486L198.395 117.77C198.346 117.423 198.444 117.055 198.693 116.77Z" fill="#F5B297"/>
<path d="M199.071 116.486C199.161 116.437 199.265 116.403 199.362 116.382C199.737 116.299 200.14 116.396 200.445 116.667C200.48 116.694 200.508 116.722 200.536 116.757C201.369 117.666 202.285 118.499 203.284 119.235C203.999 119.762 204.749 120.235 205.54 120.644C205.7 120.734 205.832 120.859 205.915 121.012C206.054 121.262 206.068 121.581 205.922 121.852C205.707 122.261 205.221 122.435 204.798 122.268C204.138 122.005 203.493 121.706 202.868 121.373C202.354 121.095 201.848 120.797 201.355 120.477C201.174 120.359 201.001 120.241 200.827 120.123C200.119 119.631 199.439 119.096 198.793 118.52C198.564 118.312 198.432 118.041 198.391 117.763L199.064 116.479L199.071 116.486Z" fill="#F5B297"/>
<path d="M198.693 116.77C198.804 116.645 198.929 116.555 199.068 116.486L198.395 117.77C198.346 117.423 198.444 117.055 198.693 116.77Z" fill="#F5B297"/>
<path d="M205.676 120.921L205.704 120.783C204.899 120.616 202.032 118.561 201.997 118.541L201.914 118.652C202.032 118.735 204.836 120.748 205.669 120.921H205.676Z" fill="black"/>
<path d="M205.482 118.86L205.523 118.728C205.183 118.624 203.184 117.423 203.163 117.409L203.094 117.527C203.177 117.576 205.128 118.749 205.482 118.86Z" fill="black"/>
<path d="M200.789 120.186L202.802 121.491L202.837 121.428L202.872 121.373H202.878L201.428 120.429L200.865 120.068L200.831 120.123L200.789 120.186Z" fill="black"/>
<path d="M200.284 112.717L196.785 120.006L175.801 111.766L175.565 111.669L175.176 111.433L161.744 103.998C161.363 119.527 161.467 121.456 161.349 128.745C161.335 129.55 161.321 130.425 161.3 131.383H154.268L153.845 132.466L150.742 131.383H134.388C134.297 129.384 134.228 127.461 134.179 125.587L129.216 123.851L128.196 123.497C126.162 122.789 124.496 121.276 123.642 119.297C123.635 119.277 123.628 119.263 123.614 119.242C123.614 119.228 123.6 119.214 123.594 119.193C122.754 117.208 122.816 114.952 123.712 112.988C123.857 112.668 124.01 112.328 124.177 111.967C127.182 105.38 133.444 91.7048 133.735 91.3161C135.2 89.3933 137.192 87.7828 139.511 87.054C140.399 86.7832 141.288 86.5611 142.19 86.3806C142.308 86.3529 142.433 86.332 142.551 86.3112C145.404 85.7628 148.292 85.6518 151.158 85.9641C152.949 86.1585 154.74 86.5264 156.503 87.054C157.843 87.4774 159.072 88.1924 160.155 89.0948L172.344 98.0563L180.091 103.235L200.277 112.717H200.284Z" fill="#A2C096"/>
<path d="M134.372 102.193H134.191V114.348H134.372V102.193Z" fill="black"/>
<path d="M156.849 124.829C157.126 124.815 157.411 124.885 157.668 125.051C157.709 125.079 157.744 125.107 157.779 125.135C158.16 125.454 158.556 125.753 158.959 126.044C160.43 127.085 162.041 127.939 163.755 128.529C164.262 128.703 164.533 129.258 164.359 129.765C164.193 130.237 163.7 130.508 163.221 130.396C162.728 130.278 162.249 130.133 161.777 129.959C161.694 129.924 161.61 129.897 161.527 129.862C161.166 129.716 160.805 129.557 160.458 129.383H160.451C160.389 129.355 160.326 129.321 160.264 129.293C158.959 128.626 157.723 127.793 156.467 126.96L156.161 127.307C156.043 127.231 155.946 127.134 155.863 127.03C155.828 126.981 155.793 126.94 155.766 126.891L156.849 124.836V124.829Z" fill="#F5B297"/>
<path d="M155.863 127.023C155.863 127.023 155.891 126.989 155.905 126.968C156.342 126.44 157.127 126.371 157.647 126.808C157.682 126.836 157.71 126.864 157.738 126.891C158.522 127.697 159.383 128.432 160.313 129.078C160.494 129.21 160.681 129.335 160.875 129.453C160.875 129.453 160.875 129.453 160.882 129.453C161.097 129.592 161.306 129.724 161.528 129.848C161.604 129.897 161.687 129.939 161.764 129.987C162.125 130.196 162.5 130.383 162.874 130.557C163.319 130.765 163.513 131.299 163.305 131.744C163.11 132.16 162.632 132.354 162.201 132.209C162.194 132.209 162.18 132.209 162.173 132.202C162.083 132.174 161.993 132.139 161.903 132.104C161.764 132.056 161.625 132 161.486 131.945C160.674 131.626 159.883 131.244 159.119 130.82C158.036 130.209 157.009 129.501 156.058 128.703C155.718 128.412 155.565 127.981 155.621 127.572C155.648 127.37 155.725 127.176 155.85 127.009L155.863 127.023Z" fill="#F5B297"/>
<path d="M154.967 127.974C155.078 127.849 155.203 127.759 155.342 127.689L154.668 128.974C154.62 128.627 154.717 128.259 154.967 127.974Z" fill="#F5B297"/>
<path d="M155.344 127.689C155.435 127.641 155.539 127.606 155.636 127.585C156.011 127.502 156.413 127.599 156.719 127.87C156.753 127.897 156.781 127.925 156.809 127.96C157.642 128.869 158.558 129.702 159.558 130.438C160.273 130.966 161.023 131.438 161.814 131.847C161.974 131.937 162.105 132.062 162.189 132.215C162.328 132.465 162.341 132.784 162.196 133.055C161.98 133.465 161.495 133.638 161.071 133.472C160.412 133.208 159.766 132.909 159.141 132.576C158.628 132.298 158.121 132 157.628 131.681C157.448 131.563 157.274 131.445 157.101 131.327C156.393 130.834 155.712 130.299 155.067 129.723C154.838 129.515 154.706 129.244 154.664 128.966L155.337 127.682L155.344 127.689Z" fill="#F5B297"/>
<path d="M154.967 127.974C155.078 127.849 155.203 127.759 155.342 127.689L154.668 128.974C154.62 128.627 154.717 128.259 154.967 127.974Z" fill="#F5B297"/>
<path d="M154.845 126.634L156.018 124.601C156.296 124.587 157.413 124.885 157.663 125.052C157.705 125.08 157.74 125.107 157.774 125.135C158.156 125.454 158.552 125.753 158.954 126.044L159.898 127.155C160.315 127.724 160.454 128.425 160.322 129.078C160.322 129.092 160.322 129.113 160.308 129.126C160.301 129.175 160.287 129.217 160.273 129.265C160.273 129.265 160.273 129.272 160.273 129.279C160.197 129.543 160.072 129.793 159.905 130.022C159.801 130.168 159.683 130.307 159.565 130.431C159.53 130.473 159.489 130.508 159.454 130.549C159.419 130.584 159.385 130.619 159.35 130.654C159.287 130.716 159.218 130.772 159.149 130.834C158.711 131.195 158.225 131.466 157.705 131.639C157.677 131.653 157.642 131.66 157.615 131.667C157.622 131.667 157.635 131.681 157.642 131.688C158.212 132.125 158.663 132.438 158.85 132.507C158.954 132.528 159.045 132.576 159.121 132.632L159.079 132.694L157.073 131.396L157.115 131.334C156.407 130.841 155.726 130.307 155.081 129.73C154.852 129.522 154.484 129.328 154.449 129.043C154.449 129.043 154.887 126.683 154.859 126.634H154.845Z" fill="#F5B297"/>
<path d="M161.954 132.125L161.981 131.986C161.176 131.82 158.309 129.765 158.275 129.744L158.191 129.855C158.309 129.939 161.114 131.952 161.947 132.125H161.954Z" fill="black"/>
<path d="M161.751 130.064L161.793 129.932C161.453 129.828 159.454 128.627 159.433 128.613L159.363 128.731C159.447 128.779 161.397 129.953 161.751 130.064Z" fill="black"/>
<path d="M157.066 131.396L159.073 132.694L159.114 132.639L159.149 132.583V132.576L157.698 131.639L157.143 131.278L157.108 131.334L157.066 131.396Z" fill="black"/>
<path d="M155.068 129.73C155.714 130.306 156.394 130.848 157.102 131.341L157.06 131.403L159.066 132.701L159.108 132.639C159.33 132.805 159.455 133.097 159.393 133.389C159.337 133.666 159.136 133.874 158.879 133.951C158.761 133.986 158.636 133.992 158.504 133.972C157.963 133.861 154.228 131.403 153.749 131.056L153.617 130.952L154.485 128.904C154.527 129.182 154.832 129.522 155.061 129.723L155.068 129.73Z" fill="#F5B297"/>
<path d="M157.233 127.1H157.288H157.33H157.413L157.58 127.107C157.684 127.107 157.795 127.107 157.899 127.107C158.114 127.107 158.322 127.1 158.531 127.086C158.954 127.065 159.371 127.023 159.787 126.961C160.211 126.891 160.627 126.808 161.05 126.69C161.474 126.565 161.89 126.399 162.3 126.176C162.682 125.961 162.828 125.482 162.612 125.094C162.439 124.781 162.085 124.629 161.759 124.698L161.682 124.712C161.384 124.774 161.064 124.802 160.738 124.802C160.412 124.802 160.072 124.774 159.732 124.726C159.391 124.677 159.051 124.615 158.711 124.538C158.545 124.497 158.378 124.455 158.211 124.406C158.128 124.386 158.045 124.358 157.968 124.337L157.85 124.302L157.795 124.281H157.767C157.767 124.281 157.76 124.268 157.753 124.268C157.017 123.914 156.129 124.226 155.775 124.962C155.421 125.698 155.733 126.586 156.469 126.94C156.636 127.016 156.809 127.065 156.983 127.079L157.226 127.1H157.233Z" fill="#F5B297"/>
<path d="M132.84 113.744L157.725 124.156L155.907 128.044L153.838 132.466L134.18 125.586L132.84 113.744Z" fill="#A2C096"/>
<path d="M133.089 113.198L133.051 113.279L157.528 124.73L157.567 124.648L133.089 113.198Z" fill="black"/>
<path d="M153.816 132.41L134.192 125.545L134.164 125.628L153.823 132.507L153.816 132.41Z" fill="black"/>
<path d="M157.771 101.682L157.684 101.839L161.695 104.067L161.782 103.91L157.771 101.682Z" fill="black"/>
</g>
<defs>
<clipPath id="clip0_1693_10498">
<rect width="226" height="208" fill="white" transform="translate(0 0.148926)"/>
</clipPath>
<clipPath id="clip1_1693_10498">
<rect width="58" height="123" fill="white" transform="matrix(-1 0 0 1 114 85.1489)"/>
</clipPath>
<clipPath id="clip2_1693_10498">
<rect width="85.1451" height="143.149" fill="white" transform="translate(123 65)"/>
</clipPath>
</defs>
</svg>
