<svg width="226" height="213" viewBox="0 0 226 213" fill="none" xmlns="http://www.w3.org/2000/svg">
<g clip-path="url(#clip0_1693_10634)">
<path opacity="0.4" d="M215.547 45.1934H10.4492V189.194H215.547V45.1934Z" fill="#DDE2FE"/>
<path d="M220.121 15.8721H214.242V212H220.121V15.8721Z" fill="#97A0E7"/>
<path d="M216.855 15.8721H214.242V212H216.855V15.8721Z" fill="#7380DA"/>
<path d="M11.1052 15.8721H5.22656V212H11.1052V15.8721Z" fill="#97A0E7"/>
<path d="M7.83928 15.8721H5.22656V212H7.83928V15.8721Z" fill="#7380DA"/>
<path d="M13.7173 17.1753H2.61328L5.226 21.7364H11.1046L13.7173 17.1753Z" fill="#5062CF"/>
<path d="M222.733 17.1753H211.629L214.242 21.7364H220.12L222.733 17.1753Z" fill="#5062CF"/>
<path d="M205.097 54.3154H150.883V121.429H205.097V54.3154Z" fill="#FFFFFA"/>
<path d="M190.728 79.0762H183.543V79.7278H190.728V79.0762Z" fill="#B2B2B2"/>
<path d="M190.728 81.0308H183.543V81.6823H190.728V81.0308Z" fill="#B2B2B2"/>
<path d="M190.728 82.9854H183.543V83.6369H190.728V82.9854Z" fill="#B2B2B2"/>
<path d="M169.173 71.9087H161.988V72.5603H169.173V71.9087Z" fill="#B2B2B2"/>
<path d="M169.173 73.8633H161.988V74.5149H169.173V73.8633Z" fill="#B2B2B2"/>
<path d="M169.173 75.8179H161.988V76.4695H169.173V75.8179Z" fill="#B2B2B2"/>
<path d="M205.097 54.3154H150.883V60.1797H205.097V54.3154Z" fill="#5062CF"/>
<path d="M203.138 104.488H195.953V105.139H203.138V104.488Z" fill="#B2B2B2"/>
<path d="M203.138 106.443H195.953V107.094H203.138V106.443Z" fill="#B2B2B2"/>
<path d="M203.138 108.397H195.953V109.049H203.138V108.397Z" fill="#B2B2B2"/>
<path d="M170.481 112.307H158.07V113.61H170.481V112.307Z" fill="#B2B2B2"/>
<path d="M170.481 108.397H158.07V109.701H170.481V108.397Z" fill="#B2B2B2"/>
<path d="M170.481 116.216H158.07V117.519H170.481V116.216Z" fill="#B2B2B2"/>
<path d="M156.091 109.31C156.091 109.811 155.679 110.222 155.176 110.222C154.673 110.222 154.262 109.811 154.262 109.31C154.262 108.808 154.673 108.397 155.176 108.397C155.679 108.397 156.091 108.808 156.091 109.31Z" fill="#FF5B79"/>
<path d="M156.091 112.959C156.091 113.46 155.679 113.871 155.176 113.871C154.673 113.871 154.262 113.46 154.262 112.959C154.262 112.457 154.673 112.046 155.176 112.046C155.679 112.046 156.091 112.457 156.091 112.959Z" fill="#F5C50F"/>
<path d="M156.091 116.608C156.091 117.109 155.679 117.52 155.176 117.52C154.673 117.52 154.262 117.109 154.262 116.608C154.262 116.106 154.673 115.695 155.176 115.695C155.679 115.695 156.091 116.106 156.091 116.608Z" fill="#3BC075"/>
<path d="M193.34 112.366V87.5465H172.438V67.9402C172.888 67.7056 173.202 67.2365 173.202 66.6957C173.202 65.9138 172.568 65.2817 171.785 65.2817C171.001 65.2817 170.367 65.9138 170.367 66.6957C170.367 67.2365 170.681 67.7056 171.131 67.9402V88.8497H192.033V112.366C191.582 112.6 191.269 113.069 191.269 113.61C191.269 114.392 191.903 115.024 192.686 115.024C193.47 115.024 194.104 114.392 194.104 113.61C194.104 113.069 193.79 112.6 193.34 112.366Z" fill="#FF5B79"/>
<path d="M193.339 69.1914C192.797 69.1914 192.327 69.5042 192.092 69.9538H180.929V101.23H174.397V111.062C173.946 111.297 173.633 111.766 173.633 112.307C173.633 113.089 174.266 113.721 175.05 113.721C175.834 113.721 176.468 113.089 176.468 112.307C176.468 111.766 176.154 111.297 175.703 111.062V102.533H182.235V71.2569H192.092C192.327 71.7065 192.797 72.0193 193.339 72.0193C194.123 72.0193 194.757 71.3873 194.757 70.6054C194.757 69.8234 194.123 69.1914 193.339 69.1914Z" fill="#F5C50F"/>
<path d="M187.463 106.501V94.714H158.723V76.4109C159.174 76.1763 159.487 75.7072 159.487 75.1664C159.487 74.3845 158.854 73.7524 158.07 73.7524C157.286 73.7524 156.652 74.3845 156.652 75.1664C156.652 75.7072 156.966 76.1763 157.417 76.4109V96.0172H186.156V106.501C185.706 106.736 185.392 107.205 185.392 107.746C185.392 108.528 186.026 109.16 186.81 109.16C187.593 109.16 188.227 108.528 188.227 107.746C188.227 107.205 187.913 106.736 187.463 106.501Z" fill="#3BC075"/>
<path d="M226 10.0078H0V17.1753H226V10.0078Z" fill="#97A0E7"/>
<path d="M0 10.6592H226C226 10.6592 218.763 4 115.162 4C11.5613 4 0 10.6592 0 10.6592Z" fill="#5062CF"/>
<path d="M211.629 212H222.733L220.12 207.439H214.242L211.629 212Z" fill="#5062CF"/>
<path d="M2.61328 212H13.7173L11.1046 207.439H5.226L2.61328 212Z" fill="#5062CF"/>
<path d="M68.5833 45.1934L24.8203 189.194H41.4764L84.9128 45.1934H68.5833Z" fill="white"/>
<path d="M51.6016 189.194H63.0322L106.469 45.1934H95.3646L51.6016 189.194Z" fill="white"/>
<path d="M215.547 187.891H10.4492V191.149H215.547V187.891Z" fill="#5062CF"/>
<path d="M215.547 43.2388H10.4492V46.4967H215.547V43.2388Z" fill="#5062CF"/>
<path d="M190.729 172.905H186.156V212H190.729V172.905Z" fill="#E7E7E9"/>
<g style="mix-blend-mode:multiply" opacity="0.6">
<path d="M188.116 172.905H186.156V212H188.116V172.905Z" fill="#E7E7E9"/>
</g>
<path d="M40.498 172.905H35.9258V212H40.498V172.905Z" fill="#E7E7E9"/>
<g style="mix-blend-mode:multiply" opacity="0.6">
<path d="M37.8853 172.905H35.9258V212H37.8853V172.905Z" fill="#E7E7E9"/>
</g>
<path d="M195.301 167.041H27.4336V175.511H195.301V167.041Z" fill="#96C295"/>
<g style="mix-blend-mode:multiply" opacity="0.4">
<path d="M195.301 171.602H27.4336V175.511H195.301V171.602Z" fill="#369239"/>
</g>
</g>
<g clip-path="url(#clip1_1693_10634)">
<path d="M104.183 150.479C103.523 151.451 101.634 151.316 99.9594 150.179C98.2846 149.042 97.4656 147.337 98.1196 146.365C98.7797 145.393 100.668 145.528 102.343 146.665C104.018 147.802 104.837 149.507 104.183 150.479Z" fill="#F5B297"/>
<path d="M122.385 121.44C121.78 122.76 121.144 124.068 120.514 125.376L119.555 127.332C119.237 127.986 118.907 128.634 118.583 129.282L118.094 130.26L117.599 131.232L116.609 133.175L115.606 135.113L114.598 137.05L114.396 137.442C114.341 137.552 114.262 137.668 114.188 137.759L112.99 139.275L111.786 140.785L110.576 142.289L109.971 143.04L109.359 143.786C108.95 144.281 108.547 144.783 108.131 145.278L106.89 146.763C106.053 147.747 105.221 148.731 104.366 149.697L98.9258 145.846C99.5492 144.715 100.203 143.603 100.851 142.49L101.835 140.828C102.165 140.272 102.501 139.728 102.832 139.171L103.333 138.346L103.84 137.527L104.855 135.883L105.875 134.245L106.908 132.613L106.499 133.322L107.318 131.299L108.149 129.282L108.987 127.265L109.408 126.256L109.836 125.254C110.124 124.587 110.405 123.915 110.692 123.249L111.56 121.25C112.147 119.918 112.733 118.591 113.351 117.271L122.397 121.452L122.385 121.44Z" fill="#F5B297"/>
<path d="M103.67 150.88L95.1875 145.126L91.6636 150.321L100.147 156.075L103.67 150.88Z" fill="black"/>
<path d="M102.738 150.839L95.5703 145.977L92.592 150.368L99.7597 155.23L102.738 150.839Z" fill="white"/>
<path d="M133.021 98.2249C133.198 98.4816 133.522 98.5855 133.809 98.4938L133.871 98.4755C134.127 98.3961 134.402 98.341 134.69 98.3105C134.977 98.2799 135.276 98.2738 135.576 98.2799C135.875 98.2921 136.181 98.3166 136.487 98.3533C136.639 98.3716 136.786 98.3961 136.939 98.4205C137.012 98.4327 137.086 98.445 137.159 98.4633L137.263 98.4877L137.312 98.5H137.336L137.348 98.5122C138.027 98.7567 139.439 98.6528 139.683 97.9743C139.8 97.6565 139.634 97.2653 139.353 96.9169L139.683 96.1712C139.683 96.1712 140.044 94.8876 140.24 94.258C140.258 94.2825 140.27 94.3069 140.27 94.3253L141.101 92.5955L140.221 92.3571C139.769 92.0943 136.273 90.1322 135.79 90.0833C135.674 90.0711 135.564 90.0894 135.466 90.1322C135.252 90.2239 135.093 90.4256 135.069 90.6762C135.044 90.939 135.179 91.1835 135.386 91.3058C135.46 91.3486 135.545 91.3791 135.637 91.3913C135.808 91.4402 136.23 91.6725 136.774 91.9965C136.78 91.9965 136.792 92.0087 136.798 92.0148C136.774 92.027 136.743 92.0392 136.719 92.0515C136.285 92.2532 135.882 92.5343 135.533 92.8889C135.478 92.9439 135.423 93.005 135.374 93.06C135.35 93.0906 135.319 93.1272 135.295 93.1578C135.264 93.1945 135.234 93.2311 135.209 93.2678C135.117 93.3901 135.026 93.5245 134.946 93.659C134.818 93.8729 134.732 94.1052 134.69 94.3436C134.69 94.3436 134.69 94.3497 134.69 94.3558C134.684 94.3986 134.677 94.4414 134.671 94.4842C134.671 94.4964 134.671 94.5147 134.671 94.527C134.61 95.1137 134.8 95.7189 135.221 96.1712L135.374 96.3179C135.374 96.3179 135.35 96.324 135.338 96.3301C134.977 96.4279 134.616 96.544 134.256 96.6846C133.895 96.8374 133.547 97.0147 133.21 97.253C132.893 97.4731 132.813 97.9132 133.039 98.231L133.021 98.2249Z" fill="#F5B297"/>
<path d="M138.099 97.9314C137.855 97.968 137.598 97.9314 137.366 97.8091C137.329 97.7908 137.292 97.7663 137.262 97.748C136.895 97.5035 136.522 97.2773 136.143 97.0634C134.762 96.2871 133.27 95.6881 131.712 95.3336C131.253 95.2236 130.96 94.7652 131.07 94.3068C131.168 93.8789 131.583 93.5977 132.011 93.6466C132.458 93.7016 132.891 93.7872 133.313 93.8972C133.393 93.9156 133.466 93.94 133.539 93.9584C133.869 94.05 134.2 94.1601 134.523 94.2762C134.523 94.2762 134.53 94.2762 134.536 94.2762C134.591 94.2945 134.652 94.319 134.707 94.3373C135.911 94.7957 137.066 95.4131 138.246 96.0304L138.484 95.6942C138.594 95.7493 138.692 95.8226 138.772 95.9082C138.808 95.9449 138.839 95.9815 138.869 96.0243L138.111 97.9191L138.099 97.9314Z" fill="#F5B297"/>
<path d="M138.753 95.9146C138.753 95.9146 138.734 95.9512 138.722 95.9696C138.386 96.4708 137.707 96.6053 137.206 96.2752C137.176 96.2569 137.145 96.2324 137.115 96.208C136.351 95.5784 135.532 95.0099 134.657 94.5271C134.486 94.4293 134.309 94.3376 134.132 94.252C134.132 94.252 134.132 94.252 134.126 94.252C133.93 94.1542 133.728 94.0564 133.521 93.9647C133.447 93.9342 133.374 93.8975 133.301 93.8669C132.964 93.7202 132.622 93.5858 132.274 93.4696C131.864 93.3291 131.644 92.8767 131.785 92.4672C131.919 92.0821 132.323 91.8682 132.708 91.9538C132.714 91.9538 132.726 91.9538 132.732 91.9599C132.812 91.9782 132.897 91.9966 132.977 92.021C133.105 92.0516 133.227 92.0883 133.356 92.1188C134.095 92.3266 134.822 92.5834 135.532 92.889C136.534 93.3229 137.5 93.8486 138.41 94.4598C138.734 94.6799 138.912 95.0466 138.899 95.4072C138.899 95.5845 138.844 95.7618 138.747 95.9207L138.753 95.9146Z" fill="#F5B297"/>
<path d="M139.154 95.2847C139.074 95.3336 138.995 95.3764 138.909 95.4008C138.591 95.5047 138.224 95.4619 137.931 95.248C137.901 95.2236 137.87 95.2052 137.845 95.1808C137.033 94.4595 136.152 93.8177 135.211 93.2676C134.539 92.8703 133.836 92.528 133.102 92.2408C132.95 92.1796 132.827 92.0757 132.742 91.9535C132.595 91.7457 132.558 91.4706 132.656 91.22C132.803 90.841 133.218 90.6454 133.597 90.7494C134.203 90.9144 134.789 91.1222 135.37 91.3545C135.847 91.5501 136.317 91.764 136.776 91.9963C136.941 92.0818 137.106 92.1674 137.271 92.2591C137.937 92.6258 138.579 93.0292 139.196 93.4754C139.416 93.6344 139.557 93.8605 139.618 94.0989L139.147 95.2847H139.154Z" fill="#F5B297"/>
<path d="M132.961 92.0086L132.949 92.1308C133.67 92.198 136.372 93.7383 136.403 93.7506L136.464 93.6405C136.354 93.5794 133.707 92.0758 132.961 92.0024V92.0086Z" fill="black"/>
<path d="M133.321 93.7998L133.297 93.9221C133.609 93.9832 135.467 94.845 135.485 94.8572L135.54 94.7472C135.461 94.7105 133.651 93.867 133.327 93.8059L133.321 93.7998Z" fill="black"/>
<path d="M137.299 92.1981L135.422 91.2446L135.392 91.3058L135.367 91.3547L136.724 92.0453L137.244 92.3082L137.274 92.2593L137.299 92.1981Z" fill="black"/>
<path d="M134.268 96.7581L134.219 96.6053L135.056 96.3302L133.418 95.8657L133.461 95.7129L135.349 96.2508C135.38 96.263 135.404 96.2936 135.404 96.3241C135.404 96.3608 135.38 96.3914 135.349 96.4036L134.268 96.7581Z" fill="black"/>
<path d="M133.781 105.065C131.385 105.969 128.738 105.969 126.336 105.065C126.91 103.549 127.479 102.033 128.053 100.517C129.343 101.006 130.767 101.006 132.057 100.517C132.632 102.033 133.2 103.549 133.775 105.065H133.781Z" fill="#F5B297"/>
<path d="M126.34 105.065C126.34 105.065 131.138 100.572 132.122 100.676L128.057 100.517L126.34 105.065Z" fill="#D19881"/>
<path d="M124.03 94.5755C124.067 95.1623 124.574 95.6085 125.161 95.5657C125.748 95.529 126.194 95.0217 126.151 94.4349C126.108 93.8481 125.607 93.4019 125.02 93.4447C124.434 93.4875 123.987 93.9887 124.03 94.5755Z" fill="#F5B297"/>
<path d="M125.254 93.6688L124.379 94.1572L124.456 94.296L125.332 93.8076L125.254 93.6688Z" fill="black"/>
<path d="M130.056 101.256C132.861 101.256 135.135 98.2351 135.135 94.5082C135.135 90.7814 132.861 87.7603 130.056 87.7603C127.251 87.7603 124.977 90.7814 124.977 94.5082C124.977 98.2351 127.251 101.256 130.056 101.256Z" fill="#F5B297"/>
<path d="M135.638 93.2188C135.711 93.1821 135.778 93.1271 135.833 93.066C136.078 92.7848 136.047 92.357 135.766 92.1125C135.693 92.0452 135.607 92.0025 135.522 91.978C135.503 91.9658 135.491 91.9536 135.473 91.9413C135.491 91.9291 135.503 91.9108 135.515 91.8924C135.76 91.6113 135.729 91.1834 135.448 90.9389C135.369 90.8717 135.283 90.8228 135.185 90.7983C135.375 90.5172 135.332 90.1382 135.069 89.912C134.868 89.7348 134.586 89.7042 134.354 89.802C134.354 89.7898 134.366 89.7837 134.366 89.7715C134.421 89.6309 134.427 89.4842 134.397 89.3497C134.531 89.2764 134.641 89.1602 134.709 89.0074C134.849 88.6651 134.684 88.2678 134.336 88.1273C134.311 88.115 134.287 88.1089 134.269 88.1028C134.122 87.9011 133.871 87.7911 133.608 87.8339C133.486 87.8522 133.376 87.9072 133.291 87.9806C133.291 87.95 133.291 87.9194 133.284 87.8889C133.223 87.5221 132.875 87.2715 132.508 87.3388C132.404 87.3571 132.313 87.3938 132.233 87.4488C132.148 87.1615 131.885 86.9659 131.585 86.9659C131.402 86.9048 131.194 86.9231 131.023 87.0331C130.919 87.1004 130.84 87.1921 130.785 87.296C130.772 87.2654 130.76 87.241 130.742 87.2104C130.546 86.8926 130.131 86.8009 129.813 86.9965C129.727 87.0515 129.654 87.1248 129.605 87.2043C129.391 86.9415 129.012 86.8742 128.725 87.0576C128.706 87.0698 128.688 87.082 128.67 87.0943C128.639 87.0759 128.602 87.0515 128.566 87.0393C128.223 86.8926 127.826 87.0454 127.679 87.3877C127.631 87.5038 127.612 87.6199 127.631 87.7361C127.606 87.7177 127.576 87.7055 127.545 87.6933C127.203 87.5466 126.805 87.6994 126.659 88.0417C126.616 88.1395 126.598 88.2373 126.604 88.3351C126.28 88.2373 125.931 88.3962 125.791 88.7079C125.681 88.9646 125.736 89.2519 125.919 89.4414C125.815 89.5086 125.73 89.6064 125.675 89.7287C125.662 89.7654 125.65 89.802 125.638 89.8326C125.571 89.8693 125.516 89.9182 125.467 89.9732C125.345 89.8509 125.173 89.7776 124.99 89.7776C124.617 89.7776 124.318 90.0771 124.318 90.4499C124.318 90.7311 124.489 90.9695 124.727 91.0673C124.66 91.1712 124.623 91.2995 124.623 91.4279C124.623 91.5318 124.648 91.6296 124.691 91.7152C124.354 91.7519 124.098 92.0391 124.098 92.3875C124.098 92.6565 124.25 92.8826 124.477 92.9927C124.477 93.0171 124.477 93.0354 124.477 93.0599C124.477 93.4327 124.776 93.7322 125.149 93.7322C125.29 93.7322 125.455 93.5917 125.62 93.4022C125.797 91.3851 127.569 89.7959 129.739 89.7959C131.909 89.7959 133.767 91.4585 133.865 93.5489C134.067 93.9401 134.25 94.3435 134.391 94.7591C134.843 94.8691 135.35 94.7713 135.68 94.4718C136.096 94.099 136.078 93.5489 135.662 93.1944L135.638 93.2188ZM133.401 91.2323C133.401 91.2323 133.413 91.2079 133.419 91.1956C133.437 91.2017 133.456 91.214 133.474 91.2201C133.449 91.2201 133.425 91.2262 133.401 91.2323Z" fill="black"/>
<path d="M135.717 94.5084C135.717 95.0951 135.24 95.5719 134.653 95.5719C134.067 95.5719 133.59 95.0951 133.59 94.5084C133.59 93.9216 134.067 93.4448 134.653 93.4448C135.24 93.4448 135.717 93.9216 135.717 94.5084Z" fill="#F5B297"/>
<path d="M134.431 93.6855L134.363 93.8291L135.269 94.2578L135.337 94.1142L134.431 93.6855Z" fill="black"/>
<path d="M134.648 95.6513V95.4924C135.192 95.4924 135.633 95.0523 135.633 94.5083H135.791C135.791 95.1379 135.278 95.6513 134.648 95.6513Z" fill="black"/>
<path d="M132.177 84.8511H128.051C126.376 84.8511 125.02 86.208 125.02 87.8828V90.9206H125.093C125.392 90.3827 127.526 89.9671 130.117 89.9671C132.709 89.9671 134.836 90.3827 135.142 90.9206H135.215V87.8828C135.215 86.208 133.858 84.8511 132.183 84.8511H132.177Z" fill="#FFB243"/>
<path d="M135.217 90.8228C135.217 91.4096 132.014 91.8864 128.065 91.8864C124.117 91.8864 120.914 91.4096 120.914 90.8228C120.914 90.236 124.117 89.7593 128.065 89.7593C132.014 89.7593 135.217 90.236 135.217 90.8228Z" fill="#FFB243"/>
<path d="M134.777 90.9145C127.406 90.9145 125.113 89.9366 125.016 89.8938L125.077 89.7471C125.077 89.7471 127.546 90.7923 135.272 90.7556V90.9145C135.107 90.9145 134.936 90.9145 134.771 90.9145H134.777Z" fill="black"/>
<path d="M126.99 89.5513C127.584 89.5513 128.066 88.941 128.066 88.1882C128.066 87.4355 127.584 86.8252 126.99 86.8252C126.396 86.8252 125.914 87.4355 125.914 88.1882C125.914 88.941 126.396 89.5513 126.99 89.5513Z" fill="white"/>
<path d="M132.142 93.9953C132.142 94.2581 132.032 94.4721 131.891 94.4721C131.751 94.4721 131.641 94.2581 131.641 93.9953C131.641 93.7325 131.751 93.5186 131.891 93.5186C132.032 93.5186 132.142 93.7325 132.142 93.9953Z" fill="black"/>
<path d="M127.368 93.9953C127.368 94.2581 127.258 94.4721 127.118 94.4721C126.977 94.4721 126.867 94.2581 126.867 93.9953C126.867 93.7325 126.977 93.5186 127.118 93.5186C127.258 93.5186 127.368 93.7325 127.368 93.9953Z" fill="black"/>
<path d="M129.984 96.9535L129.465 96.9169C129.086 96.8863 128.774 96.7335 128.597 96.4768C128.444 96.2567 128.401 95.9878 128.481 95.7066L128.731 94.8081L128.884 94.8509L128.633 95.7494C128.566 95.9817 128.597 96.2017 128.725 96.3851C128.878 96.6051 129.141 96.7335 129.477 96.7579L129.996 96.7946L129.984 96.9535Z" fill="black"/>
<path d="M128.608 99.1235C128.76 99.1601 128.913 99.2029 129.072 99.2213C129.225 99.2518 129.384 99.2702 129.537 99.2824C129.848 99.3068 130.16 99.3068 130.466 99.2641C130.778 99.2335 131.071 99.1357 131.352 99.0073L131.56 98.9034L131.756 98.7751C131.786 98.7567 131.823 98.7323 131.853 98.7139L131.945 98.6406C132.006 98.5917 132.067 98.5367 132.128 98.4878C131.927 98.7323 131.694 98.9707 131.407 99.1174C131.126 99.2763 130.808 99.3802 130.484 99.423C130.16 99.4597 129.836 99.4597 129.518 99.4046C129.201 99.3496 128.889 99.2641 128.602 99.1235H128.608Z" fill="white"/>
<path d="M126.379 92.6933L126.336 92.5405C126.379 92.5283 127.375 92.2776 128.096 92.5405L128.041 92.6872C127.369 92.4366 126.391 92.6872 126.379 92.6872V92.6933Z" fill="black"/>
<path d="M131.055 92.6933L131.012 92.5405C131.055 92.5283 132.051 92.2776 132.772 92.5405L132.717 92.6872C132.045 92.4366 131.067 92.6872 131.055 92.6872V92.6933Z" fill="black"/>
<path d="M141.817 105.975L156.248 98.121C158.394 96.9536 161.077 97.7482 162.244 99.8875C163.326 101.88 162.721 104.337 160.912 105.609L147.495 115.095C145.069 116.812 141.713 116.232 139.996 113.805C138.278 111.379 138.859 108.023 141.285 106.305C141.45 106.189 141.646 106.067 141.817 105.975Z" fill="#F5B297"/>
<path d="M156.333 110.755L147.477 100.438L145.313 102.076C142.41 104.276 138.657 103.781 135.014 103.695C134.995 103.695 134.977 103.695 134.965 103.695C134.427 103.683 133.895 103.677 133.357 103.671C132.954 104.105 131.664 104.423 130.13 104.423C128.596 104.423 127.337 104.111 126.915 103.683C126.695 103.683 126.481 103.689 126.261 103.695C122.924 103.763 120.454 105.089 118.724 107.192L110.754 119.869L117.447 122.527C117.447 130.412 117.453 132.454 117.453 143.236C126.603 142.496 133.687 142.496 142.837 143.236C142.837 131.207 142.996 129.758 142.996 118.689L156.333 110.755Z" fill="#DDE1FE"/>
<path d="M154.594 105.547L137.84 97.9434L140.187 92.3018L159.82 97.8212L154.594 105.547Z" fill="#F5B297"/>
<path d="M150.931 103.499L150.867 103.645L154.298 105.136L154.361 104.99L150.931 103.499Z" fill="black"/>
<path d="M141.022 166.86L139.091 202.061H130.442L129.066 166.86H141.022Z" fill="#F5B297"/>
<path d="M139.121 200.404L130.441 200.323L130.408 203.917L139.087 203.997L139.121 200.404Z" fill="#DDE1FE"/>
<path d="M140.755 209.408L139.117 204.108C138.652 202.678 137.24 201.688 135.614 201.639L134.049 201.596C131.959 201.535 130.205 203.032 130.131 204.946L129.502 209.591C129.428 211.504 131.562 212.054 133.652 212.115L136.531 212.201C139.117 212.274 141.488 211.681 140.755 209.414V209.408Z" fill="#DDE1FE"/>
<path d="M140.256 211.174C140.275 211.101 140.293 211.027 140.311 210.948C140.696 209.456 139.627 207.824 137.885 207.574C136.149 207.323 134.395 207.274 132.64 207.421C130.88 207.568 129.694 209.139 129.969 210.642C129.982 210.716 129.994 210.795 130.006 210.868C130.281 212.384 139.871 212.665 140.256 211.168V211.174Z" fill="#545FCE"/>
<path d="M130.91 206.896L130.672 206.627C132.554 204.952 135.036 203.754 137.848 203.161L137.921 203.51C135.171 204.084 132.744 205.252 130.91 206.89V206.896Z" fill="white"/>
<path d="M139.191 207.262C137.247 205.453 134.888 204.188 132.363 203.607L132.443 203.259C135.028 203.852 137.449 205.147 139.435 207L139.191 207.262Z" fill="white"/>
<path d="M129.501 167.233L128.126 202.434H119.629L117.539 167.233H129.501Z" fill="#F5B297"/>
<path d="M108.988 209.64C108.988 209.707 108.988 209.78 108.988 209.854C108.994 210 109.007 210.147 109.037 210.294C109.056 210.331 109.074 210.361 109.098 210.392C109.19 210.502 112.051 210.593 115.394 210.667C119.031 210.746 125.137 210.844 126.989 210.868C127.594 210.875 127.949 210.881 127.949 210.881L128.169 200.526C128.169 200.526 120.21 200.569 119.599 200.526C119.599 200.526 118.505 204.31 117.552 204.701C117.02 204.915 116.445 205.001 115.871 205.056C115.834 205.056 115.804 205.056 115.767 205.056C114.893 205.037 114.055 205.141 113.285 205.343C110.804 205.985 109.031 207.653 108.988 209.652V209.64Z" fill="#DDE1FE"/>
<path d="M126.743 209.273C126.731 209.878 126.823 210.428 126.994 210.869C127.599 210.875 127.954 210.881 127.954 210.881L128.039 206.792C127.355 206.779 126.78 207.886 126.749 209.273H126.743Z" fill="#545FCE"/>
<path d="M108.988 209.64C108.988 209.707 108.988 209.78 108.988 209.854C108.994 210 109.007 210.147 109.037 210.294C109.056 210.33 109.074 210.361 109.098 210.392C109.19 210.502 112.051 210.593 115.394 210.667C115.4 210.587 115.4 210.508 115.406 210.428C115.455 208.106 114.569 206.113 113.285 205.331C110.804 205.972 109.031 207.641 108.988 209.64Z" fill="#545FCE"/>
<path d="M118.033 204.616L117.996 204.316C119.439 204.139 120.673 204.279 120.722 204.279L120.686 204.579C120.686 204.579 119.432 204.444 118.027 204.61L118.033 204.616Z" fill="white"/>
<path d="M118.065 204.323L117.105 206.097L117.369 206.239L118.329 204.465L118.065 204.323Z" fill="white"/>
<path d="M130.931 141.42H117.398V171.524H130.931V141.42Z" fill="#FFB243"/>
<path d="M142.837 141.42H129.305V171.524H142.837V141.42Z" fill="#FFB243"/>
<path d="M129.384 173.186H129.225V144.202L126.328 143.315L126.377 143.163L129.384 144.086V173.186Z" fill="black"/>
<path d="M133.144 140.491H117.398V142.435H133.144V140.491Z" fill="#DB5964"/>
<path d="M141.468 143.694C139.402 144.104 136.187 144.104 134.121 143.694C133.461 143.554 133.363 142.802 132.905 142.087C132.605 141.439 132.11 140.785 132.263 140.137C132.477 139.422 134.011 138.976 134.537 139.086C136.419 139.422 139.176 139.422 141.059 139.086C141.584 138.976 143.118 139.416 143.332 140.137C143.485 140.785 142.99 141.439 142.691 142.087C142.232 142.802 142.134 143.554 141.474 143.694H141.468Z" fill="#DB5964"/>
<path d="M138.168 141.255C134.898 141.255 132.269 140.229 132.227 140.21L132.288 140.063C132.349 140.088 138.204 142.38 143.296 140.063L143.363 140.21C141.633 140.993 139.824 141.255 138.174 141.255H138.168Z" fill="black"/>
<path d="M135.162 94.8078C135.162 94.5328 135.028 94.2883 134.747 94.3677C134.649 94.3922 134.581 94.435 134.551 94.6061C134.52 94.7589 134.581 94.9545 134.673 95.0523C134.777 95.1623 134.722 95.309 134.722 95.4619V95.7614C134.722 95.8469 134.722 95.9019 134.722 95.9019C134.808 95.9019 134.875 95.8347 134.875 95.7491V95.5413C134.875 95.3763 134.942 95.2235 135.052 95.1073C135.125 95.0279 135.168 94.924 135.168 94.8139L135.162 94.8078Z" fill="white"/>
<path d="M124.237 94.8078C124.237 94.5328 124.371 94.2883 124.652 94.3677C124.75 94.3922 124.817 94.435 124.848 94.6061C124.878 94.7589 124.817 94.9545 124.726 95.0523C124.622 95.1623 124.677 95.309 124.677 95.4619V95.7614C124.677 95.8469 124.677 95.9019 124.677 95.9019C124.591 95.9019 124.524 95.8347 124.524 95.7491V95.5413C124.524 95.3763 124.457 95.2235 124.347 95.1073C124.273 95.0279 124.23 94.924 124.23 94.8139L124.237 94.8078Z" fill="white"/>
<path d="M101.679 153.938L101.605 153.798C102.473 153.352 103.739 152.856 105.2 152.282C114.001 148.816 132.32 141.61 126.269 119.777C122.094 104.722 124.514 95.9142 124.545 95.8286L124.698 95.8714C124.673 95.957 122.265 104.728 126.428 119.734C129.056 129.214 127.412 137.032 121.544 142.979C116.636 147.954 109.79 150.65 105.267 152.429C103.806 153.003 102.547 153.498 101.685 153.938H101.679Z" fill="white"/>
<path d="M126.434 119.765L126.281 119.734C128.512 107.931 134.618 95.9084 134.68 95.7861L134.82 95.8595C134.759 95.9817 128.665 107.986 126.44 119.765H126.434Z" fill="white"/>
<path d="M74.0246 206.761L68.1445 201.168L71.0662 197.22L76.6345 201.339L74.0246 206.761Z" fill="#F5B297"/>
<path d="M99.7463 142.227L97.8943 169.916L84.9484 191.7L77.8398 203.662L69.0625 199.212L83.1208 165.845L89.8933 149.764C90.1011 148.492 90.5412 147.215 91.2196 146.005C92.9433 142.936 95.8283 140.98 98.8539 140.479C99.2023 141.029 99.4957 141.61 99.7463 142.227Z" fill="#545FCE"/>
<path d="M77.869 207.782L74.8496 206.211L69.6358 200.27C69.593 200.209 69.0673 199.683 69.0184 199.628C68.2177 198.723 65.3388 202.012 66.1334 202.916C66.1334 202.916 73.4987 210.251 73.7554 210.312C73.7554 210.312 77.0133 210.202 77.1967 210.215C77.704 210.245 78.2113 209.982 78.4497 209.512C78.7737 208.876 78.5169 208.106 77.869 207.788V207.782Z" fill="black"/>
<path d="M94.0013 207.342H85.9453V202.434H93.0356L94.0013 207.342Z" fill="#F5B297"/>
<path d="M99.7475 142.227L97.8955 169.916L95.6339 203.638H85.7931L84.9496 191.7L83.122 165.845L82.0096 150.118C81.6184 148.884 81.435 147.551 81.49 146.164C81.7345 140.345 86.2026 135.803 91.4592 136.023C94.5459 136.152 97.217 137.888 98.8551 140.479C99.2035 141.029 99.4969 141.61 99.7475 142.227Z" fill="#545FCE"/>
<path d="M83.1937 165.835L83.0352 165.846L84.8615 191.704L85.02 191.693L83.1937 165.835Z" fill="black"/>
<path d="M86.38 205.624C90.1391 206.443 94.0999 206.865 98.1524 206.84C99.057 206.84 99.8332 207.421 99.8638 208.179C99.8944 208.87 99.2403 209.469 98.3724 209.573C94.0265 210.104 89.5951 210.166 85.1943 209.738C83.6417 209.573 84.7114 205.435 86.0255 205.569C86.1417 205.581 86.27 205.6 86.38 205.624Z" fill="black"/>
<path d="M84.6289 109.545L92.9417 109.325L92.092 99.7713L86.6704 99.5879L84.6289 109.545Z" fill="#F5B297"/>
<path d="M84.9195 108.127C84.9195 108.127 89.9744 103.084 92.5904 101.88L86.5331 99.8628L84.8828 108.316L84.9195 108.133V108.127Z" fill="#D19881"/>
<path d="M94.3321 94.9426C94.7355 99.3006 92.9202 103.035 90.2674 103.286C87.6147 103.53 85.1392 100.199 84.7358 95.8349C84.3324 91.4769 86.1477 87.7423 88.8005 87.4916C91.4532 87.2472 93.9287 90.5784 94.3321 94.9426Z" fill="#F5B297"/>
<path d="M94.1 96.1587C94.2222 96.4215 94.4239 97.2589 94.8701 97.8885C95.3652 98.5853 93.8555 98.897 93.8555 98.897L94.1 96.1587Z" fill="#F5B297"/>
<path d="M93.5428 96.1163C93.4816 96.3241 93.3655 96.4708 93.2738 96.4464C93.1821 96.4219 93.1577 96.2324 93.2127 96.0246C93.2738 95.8168 93.3899 95.6701 93.4816 95.6946C93.5733 95.719 93.5978 95.9085 93.5428 96.1163Z" fill="#201600"/>
<path d="M91.994 95.4254L91.9023 95.297C91.9512 95.2603 93.0453 94.4657 94.1761 94.7347L94.1394 94.8875C93.0759 94.6369 92.0063 95.4192 92.0001 95.4254H91.994Z" fill="black"/>
<path d="M92.5632 100.627C91.7136 100.627 90.9251 100.138 90.8945 100.113L90.9801 99.979C90.9801 99.979 91.8175 100.499 92.6427 100.462V100.621C92.6427 100.621 92.5938 100.621 92.5632 100.621V100.627Z" fill="black"/>
<path d="M95.4107 90.2729C95.429 89.8756 95.2456 89.5149 94.9584 89.2827C94.9767 89.2093 94.9889 89.1299 94.9889 89.0504C95.0134 88.537 94.7016 88.0846 94.2554 87.8952C94.2554 87.8707 94.2555 87.8463 94.2616 87.8157C94.2921 87.1556 93.7726 86.5932 93.1124 86.5688C93.0758 86.5688 93.0452 86.5688 93.0085 86.5688C92.8374 86.1409 92.434 85.8292 91.945 85.8109C91.8105 85.8109 91.6761 85.8231 91.5477 85.8598C91.3399 85.6581 91.0648 85.5236 90.7531 85.5114C90.5331 85.5052 90.3252 85.5541 90.148 85.6458C89.9768 85.5358 89.7751 85.4686 89.5551 85.4564C89.335 85.4441 89.1272 85.4991 88.95 85.5908C88.7788 85.4808 88.5771 85.4136 88.3571 85.4013C88.192 85.3952 88.0392 85.4197 87.8925 85.4747C87.7519 85.4075 87.5991 85.3708 87.4341 85.3647C87.0551 85.3463 86.7067 85.5114 86.4745 85.7803C86.395 85.7559 86.3033 85.7436 86.2178 85.7436C85.8755 85.7314 85.5576 85.8598 85.3315 86.0859C85.1542 86.1226 84.9831 86.1959 84.8425 86.2999C84.708 86.2387 84.5613 86.2021 84.4024 86.1959C83.7851 86.1715 83.2533 86.6177 83.1677 87.2167C82.6726 87.3512 82.2998 87.7913 82.2814 88.323C82.2814 88.4269 82.2875 88.5308 82.3059 88.6286C82.0492 88.8365 81.878 89.1543 81.8597 89.5088C81.8536 89.7044 81.8902 89.8878 81.9697 90.0528C81.6458 90.2545 81.4196 90.609 81.4013 91.0247C81.389 91.2569 81.4502 91.4709 81.5541 91.6603C81.4318 91.8376 81.3585 92.0515 81.3524 92.2777C81.334 92.785 81.6335 93.2312 82.0736 93.4268C82.0736 93.4513 82.0675 93.4818 82.0675 93.5063C82.0492 93.9341 82.257 94.3192 82.587 94.5454C82.5015 94.7043 82.4465 94.8815 82.4404 95.071C82.4098 95.7311 82.9293 96.2935 83.5895 96.3179C83.5895 96.9536 84.0968 97.4793 84.7386 97.5037C85.3987 97.5343 85.961 97.0147 85.9855 96.3546C85.9916 96.1896 85.9672 96.0245 85.9121 95.8778C85.9794 95.7373 86.0222 95.5783 86.0283 95.4133C86.0283 95.3827 86.0283 95.3583 86.0283 95.3277C86.9207 95.505 87.9231 95.5111 88.9561 95.3216C89.0172 95.3338 89.0783 95.34 89.1394 95.3461C89.3595 95.3583 89.5673 95.3033 89.7446 95.2116C89.9157 95.3216 90.1174 95.3889 90.3375 95.4011C90.7898 95.4194 91.1871 95.1872 91.4132 94.8265C91.4621 94.8326 91.511 94.8387 91.566 94.8449C92.11 94.8693 92.5868 94.5209 92.7518 94.0258C92.9474 93.8791 93.0941 93.6713 93.1736 93.4329C93.3019 93.3351 93.4058 93.2129 93.4853 93.0723C93.9193 92.9623 94.2554 92.6139 94.3532 92.1738C94.9095 92.0943 95.3496 91.6237 95.374 91.0369C95.374 90.8963 95.3618 90.7618 95.3251 90.6396C95.374 90.5173 95.4046 90.3829 95.4107 90.2484V90.2729Z" fill="black"/>
<path d="M86.8164 94.2885C87.4276 93.7506 88.0389 93.2005 88.6501 92.6504C89.2552 92.1003 89.8603 91.5441 90.4593 90.9879C91.0584 90.4317 91.6451 89.8632 92.2258 89.2948L92.6598 88.8608L93.0815 88.4268C93.2221 88.2801 93.3505 88.1334 93.491 87.9867C93.5583 87.9134 93.6194 87.84 93.6866 87.7667L93.8761 87.5405L94.6707 88.1151L94.4812 88.3779C94.4201 88.4635 94.359 88.5552 94.2918 88.6407C94.1634 88.8058 94.035 88.9769 93.9067 89.142L93.5094 89.6309L93.106 90.1077C92.5681 90.7434 92.018 91.3607 91.4679 91.9781C90.9117 92.5954 90.3554 93.2066 89.7931 93.8118C89.2308 94.4169 88.6684 95.022 88.0939 95.621L86.8225 94.2946L86.8164 94.2885Z" fill="#FFB243"/>
<path d="M94.433 84.9243C94.5064 84.9977 94.5675 85.0649 94.6164 85.1321C94.6714 85.1994 94.7142 85.2666 94.7509 85.3338C94.8303 85.4683 94.8854 85.5967 94.9281 85.725C95.0137 85.9817 95.0321 86.2324 95.0015 86.4768C94.9709 86.7213 94.8976 86.9597 94.757 87.192C94.6898 87.3081 94.5981 87.4181 94.4942 87.5343C94.4392 87.5893 94.3841 87.6443 94.3108 87.6993C94.2436 87.7543 94.1702 87.8093 94.0785 87.8582C94.0052 87.7849 93.9441 87.7176 93.8952 87.6504C93.8402 87.5832 93.7974 87.5159 93.7607 87.4487C93.6812 87.3142 93.6262 87.1859 93.5834 87.0575C93.504 86.8008 93.4856 86.5502 93.5101 86.3057C93.5406 86.0612 93.6201 85.8228 93.7546 85.5906C93.8218 85.4744 93.9135 85.3644 94.0174 85.2483C94.0724 85.1933 94.1274 85.1382 94.1947 85.0832C94.2619 85.0282 94.3352 84.9732 94.4208 84.9243H94.433Z" fill="#FFB243"/>
<path d="M94.1523 87.9009C94.2012 87.8092 94.2501 87.7297 94.299 87.6625C94.3479 87.5953 94.4029 87.5341 94.4518 87.473C94.5558 87.363 94.6658 87.2652 94.7758 87.1919C95.002 87.039 95.2342 86.9474 95.4787 86.9046C95.7232 86.8618 95.9738 86.8679 96.2366 86.9351C96.365 86.9657 96.4995 87.0207 96.6401 87.0941C96.7073 87.1307 96.7806 87.1735 96.8479 87.2224C96.9212 87.2713 96.9885 87.3263 97.0679 87.3997C97.019 87.4914 96.9701 87.5708 96.9212 87.638C96.8723 87.7114 96.8173 87.7664 96.7684 87.8275C96.6645 87.9376 96.5545 88.0353 96.4445 88.1087C96.2183 88.2615 95.986 88.3532 95.7415 88.3899C95.4971 88.4326 95.2464 88.4265 94.9836 88.3593C94.8553 88.3287 94.7208 88.2737 94.5802 88.2065C94.513 88.1698 94.4396 88.1331 94.3724 88.0842C94.299 88.0353 94.2318 87.9803 94.1523 87.9131V87.9009Z" fill="#FFB243"/>
<path d="M87.9958 95.6637C87.8002 96.3483 87.0973 96.7456 86.4127 96.55C85.7281 96.3605 85.3308 95.6515 85.5264 94.9669C85.7159 94.2823 86.4249 93.885 87.1095 94.0806C87.7941 94.2701 88.1914 94.9791 87.9958 95.6637Z" fill="#F5B297"/>
<path d="M87.1886 94.6401L86.1797 94.7954L86.2039 94.9525L87.2127 94.7972L87.1886 94.6401Z" fill="black"/>
<path d="M98.6166 115.229C97.2107 113.494 94.4908 110.175 92.9382 108.573C91.7341 108.481 91.3918 108.182 89.8637 107.534C87.9628 106.721 86.4225 105.682 85.5973 104.753C79.0816 107.345 86.4347 132.179 82.2539 142.27C83.0302 142.124 84.5399 142.289 86.4592 142.484C88.7574 142.716 96.8257 142.686 99.7412 142.527C99.6434 142.888 99.4601 126.696 99.729 117.693C99.7535 116.788 99.2033 115.951 98.6104 115.223L98.6166 115.229Z" fill="#FFB243"/>
<path d="M123.386 108.878L122.008 107.622L113.488 116.968L114.866 118.224L123.386 108.878Z" fill="black"/>
<path d="M117.485 119.257C116.501 120.247 115.835 119.606 115.199 118.97C114.563 118.334 114.845 117.014 115.835 116.024C116.825 115.034 118.139 114.752 118.781 115.388C119.417 116.024 119.973 116.745 117.491 119.257H117.485Z" fill="#F5B297"/>
<path d="M115.314 114.251L115.35 114.086L115.369 114.056L116.475 111.764C116.628 111.446 117.007 111.318 117.325 111.464C117.612 111.599 117.746 111.923 117.661 112.216L116.94 114.655L116.988 114.453L116.885 116.965C116.86 117.54 116.371 118.011 115.803 117.962C112.649 117.699 115.326 114.251 115.326 114.251H115.314Z" fill="#F5B297"/>
<path d="M116.923 116.109L119.875 114.123L119.722 114.312L120.987 112.185C121.214 111.806 121.678 111.696 122.027 111.941C122.375 112.185 122.479 112.693 122.253 113.072L120.987 115.199L120.969 115.229L120.829 115.388L118.445 118.133C117.986 118.664 117.216 118.689 116.727 118.188C116.238 117.686 116.214 116.855 116.672 116.329C116.745 116.244 116.831 116.17 116.917 116.115L116.923 116.109Z" fill="#F5B297"/>
<path d="M116.415 115.119L119.367 113.286L119.214 113.457L120.48 111.495C120.706 111.146 121.17 111.049 121.519 111.269C121.867 111.495 121.971 111.959 121.745 112.308L120.48 114.27L120.461 114.3L120.321 114.447L117.937 116.977C117.478 117.466 116.708 117.491 116.219 117.032C115.73 116.574 115.706 115.804 116.164 115.315C116.238 115.235 116.323 115.168 116.409 115.113L116.415 115.119Z" fill="#F5B297"/>
<path d="M118.761 116.22L118.645 116.11L120.405 114.233L121.67 112.271C121.872 111.959 121.78 111.544 121.468 111.342L121.554 111.208C121.939 111.458 122.049 111.972 121.805 112.357L120.521 114.349L120.374 114.508L118.761 116.226V116.22Z" fill="black"/>
<path d="M113.527 115.865L105.239 123.261L93.546 111.274L87.0547 118.731L102.409 132.814L102.721 133.04C104.45 134.312 106.895 134.134 108.417 132.539L118.172 120.308L113.527 115.859V115.865Z" fill="#FFB243"/>
<path d="M86.3344 118.47L86.2305 118.59L99.6909 130.217L99.7948 130.097L86.3344 118.47Z" fill="black"/>
<path d="M95.4428 113.106L95.3281 113.216L99.6806 117.756L99.7953 117.646L95.4428 113.106Z" fill="black"/>
</g>
<defs>
<clipPath id="clip0_1693_10634">
<rect width="226" height="208" fill="white" transform="translate(0 4)"/>
</clipPath>
<clipPath id="clip1_1693_10634">
<rect width="96.7823" height="127.35" fill="white" transform="translate(66 84.8511)"/>
</clipPath>
</defs>
</svg>
