<svg width="226" height="208" viewBox="0 0 226 208" fill="none" xmlns="http://www.w3.org/2000/svg">
<g clip-path="url(#clip0_1693_10833)">
<path opacity="0.4" d="M215.547 41.1934H10.4492V185.194H215.547V41.1934Z" fill="#DDE2FE"/>
<path d="M220.121 11.8721H214.242V208H220.121V11.8721Z" fill="#97A0E7"/>
<path d="M216.855 11.8721H214.242V208H216.855V11.8721Z" fill="#7380DA"/>
<path d="M11.1052 11.8721H5.22656V208H11.1052V11.8721Z" fill="#97A0E7"/>
<path d="M7.83928 11.8721H5.22656V208H7.83928V11.8721Z" fill="#7380DA"/>
<path d="M13.7173 13.1753H2.61328L5.226 17.7364H11.1046L13.7173 13.1753Z" fill="#5062CF"/>
<path d="M222.733 13.1753H211.629L214.242 17.7364H220.12L222.733 13.1753Z" fill="#5062CF"/>
<path d="M205.097 50.3154H150.883V117.429H205.097V50.3154Z" fill="#FFFFFA"/>
<path d="M190.728 75.0762H183.543V75.7278H190.728V75.0762Z" fill="#B2B2B2"/>
<path d="M190.728 77.0308H183.543V77.6823H190.728V77.0308Z" fill="#B2B2B2"/>
<path d="M190.728 78.9854H183.543V79.6369H190.728V78.9854Z" fill="#B2B2B2"/>
<path d="M169.173 67.9087H161.988V68.5603H169.173V67.9087Z" fill="#B2B2B2"/>
<path d="M169.173 69.8633H161.988V70.5149H169.173V69.8633Z" fill="#B2B2B2"/>
<path d="M169.173 71.8179H161.988V72.4695H169.173V71.8179Z" fill="#B2B2B2"/>
<path d="M205.097 50.3154H150.883V56.1797H205.097V50.3154Z" fill="#5062CF"/>
<path d="M203.138 100.488H195.953V101.139H203.138V100.488Z" fill="#B2B2B2"/>
<path d="M203.138 102.443H195.953V103.094H203.138V102.443Z" fill="#B2B2B2"/>
<path d="M203.138 104.397H195.953V105.049H203.138V104.397Z" fill="#B2B2B2"/>
<path d="M170.481 108.307H158.07V109.61H170.481V108.307Z" fill="#B2B2B2"/>
<path d="M170.481 104.397H158.07V105.701H170.481V104.397Z" fill="#B2B2B2"/>
<path d="M170.481 112.216H158.07V113.519H170.481V112.216Z" fill="#B2B2B2"/>
<path d="M156.091 105.31C156.091 105.811 155.679 106.222 155.176 106.222C154.673 106.222 154.262 105.811 154.262 105.31C154.262 104.808 154.673 104.397 155.176 104.397C155.679 104.397 156.091 104.808 156.091 105.31Z" fill="#FF5B79"/>
<path d="M156.091 108.959C156.091 109.46 155.679 109.871 155.176 109.871C154.673 109.871 154.262 109.46 154.262 108.959C154.262 108.457 154.673 108.046 155.176 108.046C155.679 108.046 156.091 108.457 156.091 108.959Z" fill="#F5C50F"/>
<path d="M156.091 112.608C156.091 113.109 155.679 113.52 155.176 113.52C154.673 113.52 154.262 113.109 154.262 112.608C154.262 112.106 154.673 111.695 155.176 111.695C155.679 111.695 156.091 112.106 156.091 112.608Z" fill="#3BC075"/>
<path d="M193.34 108.366V83.5465H172.438V63.9402C172.888 63.7056 173.202 63.2365 173.202 62.6957C173.202 61.9138 172.568 61.2817 171.785 61.2817C171.001 61.2817 170.367 61.9138 170.367 62.6957C170.367 63.2365 170.681 63.7056 171.131 63.9402V84.8497H192.033V108.366C191.582 108.6 191.269 109.069 191.269 109.61C191.269 110.392 191.903 111.024 192.686 111.024C193.47 111.024 194.104 110.392 194.104 109.61C194.104 109.069 193.79 108.6 193.34 108.366Z" fill="#FF5B79"/>
<path d="M193.339 65.1914C192.797 65.1914 192.327 65.5042 192.092 65.9538H180.929V97.23H174.397V107.062C173.946 107.297 173.633 107.766 173.633 108.307C173.633 109.089 174.266 109.721 175.05 109.721C175.834 109.721 176.468 109.089 176.468 108.307C176.468 107.766 176.154 107.297 175.703 107.062V98.5332H182.235V67.2569H192.092C192.327 67.7065 192.797 68.0193 193.339 68.0193C194.123 68.0193 194.757 67.3873 194.757 66.6054C194.757 65.8234 194.123 65.1914 193.339 65.1914Z" fill="#F5C50F"/>
<path d="M187.463 102.501V90.714H158.723V72.4109C159.174 72.1763 159.487 71.7072 159.487 71.1664C159.487 70.3845 158.854 69.7524 158.07 69.7524C157.286 69.7524 156.652 70.3845 156.652 71.1664C156.652 71.7072 156.966 72.1763 157.417 72.4109V92.0172H186.156V102.501C185.706 102.736 185.392 103.205 185.392 103.746C185.392 104.528 186.026 105.16 186.81 105.16C187.593 105.16 188.227 104.528 188.227 103.746C188.227 103.205 187.913 102.736 187.463 102.501Z" fill="#3BC075"/>
<path d="M226 6.00781H0V13.1753H226V6.00781Z" fill="#97A0E7"/>
<path d="M0 6.65923H226C226 6.65923 218.763 0 115.162 0C11.5613 0 0 6.65923 0 6.65923Z" fill="#5062CF"/>
<path d="M211.629 208H222.733L220.12 203.439H214.242L211.629 208Z" fill="#5062CF"/>
<path d="M2.61328 208H13.7173L11.1046 203.439H5.226L2.61328 208Z" fill="#5062CF"/>
<path d="M68.5833 41.1934L24.8203 185.194H41.4764L84.9128 41.1934H68.5833Z" fill="white"/>
<path d="M51.6016 185.194H63.0322L106.469 41.1934H95.3646L51.6016 185.194Z" fill="white"/>
<path d="M215.547 183.891H10.4492V187.149H215.547V183.891Z" fill="#5062CF"/>
<path d="M215.547 39.2388H10.4492V42.4967H215.547V39.2388Z" fill="#5062CF"/>
<path d="M190.729 168.905H186.156V208H190.729V168.905Z" fill="#E7E7E9"/>
<g style="mix-blend-mode:multiply" opacity="0.6">
<path d="M188.116 168.905H186.156V208H188.116V168.905Z" fill="#E7E7E9"/>
</g>
<path d="M40.498 168.905H35.9258V208H40.498V168.905Z" fill="#E7E7E9"/>
<g style="mix-blend-mode:multiply" opacity="0.6">
<path d="M37.8853 168.905H35.9258V208H37.8853V168.905Z" fill="#E7E7E9"/>
</g>
<path d="M195.301 163.041H27.4336V171.511H195.301V163.041Z" fill="#96C295"/>
<g style="mix-blend-mode:multiply" opacity="0.4">
<path d="M195.301 167.602H27.4336V171.511H195.301V167.602Z" fill="#369239"/>
</g>
</g>
<g clip-path="url(#clip1_1693_10833)">
<path d="M86.962 204.762L78.6016 204.795L80.1741 195.773L87.8072 195.74L86.962 204.762Z" fill="#F5B297"/>
<path d="M83.2074 203.347C81.5628 203.353 80.0689 202.842 78.9944 202.01C78.6537 202.744 78.3785 204.094 78.1885 205.293C77.9919 206.525 78.7192 207.678 79.6889 207.671L86.7062 207.632C87.6693 207.632 88.3835 206.479 88.1869 205.254C87.9969 204.068 87.6759 202.993 87.25 202.076C86.2017 202.855 84.7733 203.334 83.2008 203.347H83.2074Z" fill="#979DE6"/>
<path d="M87.4521 204.566C87.4587 206.132 85.4407 207.409 82.9378 207.422C80.4349 207.435 78.4037 206.177 78.3906 204.618C78.3841 203.052 80.4021 201.774 82.905 201.761C85.4079 201.748 87.439 203.006 87.4521 204.566Z" fill="#979DE6"/>
<path d="M80.1393 127.755L76.4336 199.909L90.2206 200.617L93.9263 128.463L80.1393 127.755Z" fill="#DDE1FE"/>
<path d="M98.6746 204.762L107.035 204.795L105.469 195.773L97.8359 195.74L98.6746 204.762Z" fill="#F5B297"/>
<path d="M102.438 203.347C104.083 203.353 105.576 202.842 106.651 202.01C106.992 202.744 107.267 204.094 107.457 205.293C107.653 206.525 106.926 207.678 105.957 207.671L98.9392 207.632C97.9761 207.632 97.2619 206.479 97.4585 205.254C97.6485 204.068 97.9695 202.993 98.3954 202.076C99.4438 202.855 100.872 203.334 102.445 203.347H102.438Z" fill="#979DE6"/>
<path d="M98.1914 204.566C98.1849 206.132 100.203 207.409 102.706 207.422C105.209 207.435 107.24 206.177 107.253 204.618C107.259 203.052 105.241 201.774 102.739 201.761C100.236 201.748 98.2045 203.006 98.1914 204.566Z" fill="#979DE6"/>
<path d="M106.486 127.768L92.6992 128.476L96.4049 200.631L110.192 199.922L106.486 127.768Z" fill="#DDE1FE"/>
<path d="M88.5117 92.4272H96.6166L95.0965 81.9897H90.0383L89.0359 88.6008L88.9179 89.3936L88.5117 92.4272Z" fill="#F5B297"/>
<path d="M90.0415 81.9897L89.0391 88.6008C89.9826 86.3927 95.0997 81.9897 95.0997 81.9897H90.0415Z" fill="#D19881"/>
<path d="M97.9988 80.2404C97.9988 80.306 97.9857 80.3649 97.9857 80.4239C97.8088 82.3305 97.0422 83.9948 95.948 85.1283C94.9128 86.2028 93.5892 86.8121 92.1806 86.7139C91.7743 86.6811 91.3812 86.5959 91.0077 86.4583C90.3067 86.1963 89.6777 85.7573 89.1469 85.1807C88.0462 83.9817 87.3517 82.2061 87.332 80.2208C87.332 79.9718 87.332 79.7228 87.3517 79.4673C87.3713 79.2118 87.3975 78.9628 87.4369 78.7204C87.4434 78.6679 87.4565 78.609 87.4631 78.5566C87.4958 78.3796 87.5286 78.2093 87.5679 78.0455C87.581 77.9865 87.5941 77.9341 87.6138 77.8817C87.6924 77.5737 87.7841 77.2789 87.9021 76.9972C87.9021 76.9775 87.9152 76.9644 87.9217 76.9447C88.0266 76.6696 88.1445 76.414 88.2821 76.1585C88.4786 75.7785 88.708 75.4181 88.9635 75.0971C89.029 75.0184 89.088 74.9398 89.1535 74.8612C89.4287 74.5336 89.7301 74.2453 90.0577 73.9963C90.7457 73.4656 91.5253 73.1183 92.3444 73.0201C92.5213 72.9939 92.6916 72.9873 92.8751 72.9873C92.9734 72.9873 93.0782 72.9873 93.1765 73.0004C93.7334 73.0397 94.2576 73.1904 94.749 73.4328C95.3911 73.7408 95.9611 74.2191 96.4394 74.8088C96.708 75.1298 96.9439 75.4902 97.147 75.8833C97.206 75.9881 97.2584 76.0995 97.3108 76.2109C97.4615 76.5451 97.5926 76.8989 97.7039 77.2724C97.7826 77.5344 97.8415 77.8096 97.894 78.0914C97.9136 78.1962 97.9333 78.3076 97.9464 78.419C97.966 78.5566 97.9857 78.6941 97.9922 78.8383C97.9922 78.8907 98.0053 78.9431 98.0053 78.9955C98.0119 79.1004 98.0184 79.2118 98.025 79.3166C98.0381 79.6245 98.025 79.9456 98.0053 80.2601L97.9988 80.2404Z" fill="#F5B297"/>
<path d="M92.543 82.4679H93.5454L93.1851 80.4302L93.054 80.4564L93.3816 82.3237H92.543V82.4679Z" fill="black"/>
<path d="M94.6914 80.915C94.7503 81.0788 94.9338 81.1574 95.0976 81.0984C95.2614 81.0395 95.34 80.856 95.2811 80.6922C95.2221 80.5284 95.0386 80.4498 94.8748 80.5088C94.711 80.5677 94.6324 80.7512 94.6914 80.915Z" fill="black"/>
<path d="M96.2705 78.9495C96.2705 78.9495 95.8053 78.3795 94.9535 78.7398L94.8945 78.6088C95.8577 78.2026 96.3753 78.8578 96.3818 78.8643L96.2705 78.9495Z" fill="black"/>
<path d="M91.3553 80.915C91.2963 81.0788 91.1129 81.1574 90.9491 81.0984C90.7853 81.0395 90.7066 80.856 90.7656 80.6922C90.8246 80.5284 91.008 80.4498 91.1718 80.5088C91.3356 80.5677 91.4143 80.7512 91.3553 80.915Z" fill="black"/>
<path d="M90.3692 78.9497L90.2578 78.8645C90.2578 78.8645 90.7885 78.2027 91.7451 78.609L91.6862 78.74C90.8213 78.3731 90.3692 78.9431 90.3692 78.9497Z" fill="black"/>
<path d="M93.6901 84.4536C93.6901 85.0105 93.369 85.4691 92.9759 85.4691C92.5828 85.4691 92.2617 85.017 92.2617 84.4536C92.2617 83.8901 92.5828 83.438 92.9759 83.438C93.369 83.438 93.6901 83.8901 93.6901 84.4536Z" fill="#D19881"/>
<path d="M92.9751 85.554C92.5361 85.554 92.1758 85.0626 92.1758 84.4533C92.1758 83.8439 92.5361 83.3525 92.9751 83.3525C93.4141 83.3525 93.7745 83.8439 93.7745 84.4533C93.7745 85.0626 93.4141 85.554 92.9751 85.554ZM92.9751 83.5294C92.6279 83.5294 92.3461 83.9488 92.3461 84.4598C92.3461 84.9709 92.6279 85.3902 92.9751 85.3902C93.3224 85.3902 93.6041 84.9709 93.6041 84.4598C93.6041 83.9488 93.3224 83.5294 92.9751 83.5294Z" fill="black"/>
<path d="M96.7708 79.6705C97.0001 80.2798 97.6881 80.5878 98.2974 80.3519C98.9068 80.1226 99.2147 79.4346 98.9788 78.8253C98.7495 78.2159 98.0616 77.908 97.4522 78.1439C96.8429 78.3732 96.5349 79.0611 96.7708 79.6705Z" fill="#F5B297"/>
<path d="M98.6404 79.205L97.4414 78.7595L97.4873 78.6284L98.6863 79.074L98.6404 79.205Z" fill="black"/>
<path d="M88.5453 79.4674C88.3159 80.0767 87.628 80.3846 87.0186 80.1488C86.4093 79.9195 86.1013 79.2315 86.3372 78.6221C86.5665 78.0128 87.2545 77.7049 87.8638 77.9407C88.4732 78.1701 88.7811 78.858 88.5453 79.4674Z" fill="#F5B297"/>
<path d="M87.8285 78.4221L86.625 78.8701L86.6753 79.0052L87.8788 78.5571L87.8285 78.4221Z" fill="black"/>
<path d="M98.1269 76.6169C96.6462 76.3024 94.9426 75.9879 93.0884 75.9355C90.9393 75.8568 88.9671 76.1648 87.3422 76.3941C87.3422 76.3745 87.3422 76.3548 87.3357 76.3351C87.3029 76.0338 87.2964 75.7389 87.3357 75.431C87.375 74.9723 87.4864 74.5137 87.6764 74.0747C87.7222 73.9633 87.7747 73.8585 87.8271 73.7536C88.0564 73.3015 88.3709 72.8691 88.764 72.4825C89.5896 71.6635 90.769 71.0673 92.0794 70.9035C92.3546 70.8642 92.6363 70.8511 92.9246 70.8511C93.0884 70.8511 93.2522 70.8576 93.4094 70.8707C94.294 70.9494 95.1261 71.2114 95.8206 71.6111C96.7313 72.1287 97.4127 72.8757 97.8124 73.6881C98.0352 74.1337 98.1728 74.6054 98.2252 75.0706C98.2383 75.1951 98.2514 75.3261 98.258 75.4572C98.2711 75.8437 98.2252 76.2369 98.1466 76.6169H98.1269Z" fill="#979DE6"/>
<path d="M98.4265 78.196C98.3413 78.196 98.2562 78.1829 98.171 78.1567C93.8925 76.7677 87.3404 77.9994 87.2749 78.0125C86.8294 78.0977 86.3969 77.8029 86.3118 77.3573C86.2266 76.9118 86.5149 76.4794 86.967 76.3942C87.2487 76.3418 93.9973 75.0707 98.6821 76.5907C99.1145 76.7283 99.3504 77.1935 99.2128 77.626C99.1014 77.9732 98.7803 78.196 98.4331 78.196H98.4265Z" fill="#979DE6"/>
<path d="M98.1496 76.5189C94.1135 75.4051 88.8522 76.1586 87.3387 76.4141L87.3125 76.2437C88.8391 75.9882 94.1266 75.2347 98.1955 76.3551L98.1496 76.5189Z" fill="black"/>
<path d="M80.284 89.7213C83.2062 89.1119 86.1546 88.6992 89.1096 88.5288C89.0834 88.555 89.0572 88.5812 89.0375 88.6074C90.2103 89.8785 91.3897 91.1562 92.5691 92.4273C93.7484 91.1496 94.9213 89.8654 96.0875 88.5878C98.7804 88.7843 101.467 89.184 104.133 89.7409C108.176 90.6582 110.777 94.9498 109.899 99.5559C108.032 111.278 106.237 115.307 104.415 128.097C101.532 129.132 82.8655 129.125 80.0022 128.097C78.1807 115.301 76.3855 111.264 74.5182 99.5363C73.6402 94.9236 76.2413 90.632 80.2905 89.7147L80.284 89.7213Z" fill="#72A15C"/>
<path d="M106.033 127.723C106.518 126.635 106.197 125.318 105.201 124.578L104.854 124.322L99.2124 120.162C97.8102 119.127 95.8446 119.415 94.7963 120.804C93.7479 119.421 91.7823 119.133 90.3802 120.162L84.7389 124.322L84.3916 124.578C83.435 125.286 83.055 126.583 83.5595 127.716L86.7897 134.996L86.6914 135.218L84.9551 136.437C84.444 136.798 84.2278 137.479 84.4833 138.082C84.7782 138.776 85.5775 139.104 86.272 138.809L89.9084 137.282C90.5112 137.027 90.8978 136.404 90.8192 135.723L90.7668 135.251L89.9674 128.358L94.1542 125.266C94.4031 125.082 94.6194 124.866 94.8028 124.63C94.9797 124.866 95.1959 125.082 95.4449 125.266L99.6317 128.358L98.8323 135.251L98.7799 135.723C98.7079 136.372 99.0617 137.014 99.6907 137.282L103.32 138.816C103.904 139.065 104.605 138.881 104.985 138.337C105.424 137.715 105.273 136.857 104.651 136.424L102.908 135.205L102.809 134.989L106.04 127.71L106.033 127.723Z" fill="#545FCE"/>
<path d="M98.4463 132.46L98.4005 132.48L98.3612 132.493L98.2825 132.519L98.1384 132.572C98.0401 132.604 97.9484 132.637 97.8501 132.663C97.6601 132.722 97.4701 132.775 97.2735 132.821C96.8869 132.919 96.5004 132.998 96.1007 133.057C95.701 133.115 95.3013 133.155 94.882 133.161C94.4692 133.161 94.0434 133.135 93.6109 133.05C93.2047 132.965 92.9426 132.572 93.0278 132.165C93.0933 131.838 93.3685 131.602 93.6895 131.569H93.7616C94.0499 131.536 94.3382 131.471 94.633 131.379C94.9279 131.287 95.2227 131.163 95.5176 131.032C95.8124 130.894 96.1007 130.744 96.3824 130.573C96.5266 130.488 96.6642 130.403 96.7952 130.318C96.8607 130.272 96.9328 130.226 96.9983 130.187L97.0966 130.121L97.1425 130.088L97.1621 130.075C97.1621 130.075 97.1687 130.069 97.1752 130.062C97.7387 129.538 98.6232 129.571 99.1474 130.134C99.6716 130.698 99.6388 131.582 99.0753 132.106C98.9508 132.224 98.8067 132.316 98.656 132.375L98.4463 132.46Z" fill="#F5B297"/>
<path d="M97.0198 133.6C99.5358 135.526 101.2 137.584 100.735 138.193C100.27 138.803 97.8519 137.735 95.336 135.808C92.82 133.882 91.1557 131.825 91.6209 131.215C92.0861 130.606 94.5038 131.674 97.0198 133.6Z" fill="#F56A3E"/>
<path d="M91.9995 127.028C93.5589 128.221 93.8537 130.455 92.6612 132.015C91.4687 133.574 89.2345 133.869 87.6751 132.676C86.1157 131.484 85.8209 129.25 87.0134 127.69C88.2058 126.131 90.4401 125.836 91.9995 127.028Z" fill="#FFB243"/>
<path d="M98.4844 130.835C98.2289 130.901 97.993 131.045 97.8095 131.268C97.7833 131.301 97.7571 131.34 97.7309 131.373C97.4754 131.766 97.2002 132.146 96.9185 132.519C95.8832 133.869 94.6711 135.088 93.2886 136.097C92.8824 136.398 92.7907 136.975 93.0921 137.381C93.3738 137.761 93.898 137.866 94.2976 137.63C94.7104 137.388 95.1036 137.119 95.477 136.831C95.5425 136.778 95.6081 136.726 95.6736 136.673C95.9619 136.444 96.2371 136.195 96.5057 135.946C96.5057 135.946 96.5057 135.946 96.5122 135.94C96.5581 135.894 96.604 135.854 96.6564 135.808C97.6457 134.845 98.5237 133.745 99.4279 132.644L99.8014 132.873C99.8866 132.768 99.9521 132.657 99.9979 132.539C100.018 132.487 100.037 132.434 100.05 132.382L98.5041 130.835H98.4844Z" fill="#F5B297"/>
<path d="M99.9792 132.539C99.9792 132.539 99.9465 132.513 99.9268 132.5C99.383 132.146 98.6623 132.303 98.3085 132.84C98.2888 132.873 98.2691 132.912 98.2495 132.945C97.7646 133.889 97.1946 134.793 96.5394 135.638C96.4084 135.808 96.2773 135.972 96.1397 136.136C96.1397 136.136 96.1397 136.136 96.1397 136.143C95.989 136.326 95.8318 136.503 95.668 136.68C95.609 136.745 95.55 136.804 95.4911 136.87C95.2224 137.158 94.9407 137.433 94.6459 137.695C94.2986 138.01 94.2724 138.547 94.5869 138.888C94.8817 139.209 95.3666 139.248 95.7138 138.999C95.7204 138.999 95.7269 138.986 95.7335 138.98C95.8056 138.927 95.8776 138.875 95.9497 138.816C96.0611 138.731 96.1725 138.645 96.2773 138.56C96.9194 138.043 97.5288 137.486 98.0922 136.883C98.8981 136.031 99.6254 135.107 100.261 134.118C100.49 133.758 100.503 133.332 100.34 132.971C100.261 132.801 100.136 132.644 99.9727 132.526L99.9792 132.539Z" fill="#F5B297"/>
<path d="M101.06 133.142C100.929 133.063 100.785 133.011 100.641 132.991L101.61 133.961C101.558 133.633 101.368 133.332 101.06 133.148V133.142Z" fill="#F5B297"/>
<path d="M100.641 132.991C100.543 132.978 100.445 132.971 100.347 132.978C99.9862 133.01 99.6521 133.207 99.4489 133.541C99.4293 133.574 99.4096 133.613 99.39 133.646C98.8986 134.701 98.3023 135.71 97.6078 136.647C97.1099 137.322 96.566 137.957 95.9632 138.547C95.8388 138.671 95.7601 138.822 95.7274 138.986C95.675 139.255 95.747 139.536 95.9567 139.746C96.2646 140.054 96.756 140.074 97.0836 139.811C97.6078 139.392 98.1058 138.94 98.5775 138.468C98.9641 138.075 99.3376 137.669 99.6914 137.243C99.8224 137.092 99.9469 136.935 100.071 136.771C100.576 136.129 101.035 135.454 101.454 134.76C101.605 134.504 101.65 134.229 101.605 133.96L100.635 132.991H100.641Z" fill="#F5B297"/>
<path d="M101.06 133.142C100.929 133.063 100.785 133.011 100.641 132.991L101.61 133.961C101.558 133.633 101.368 133.332 101.06 133.148V133.142Z" fill="#F5B297"/>
<path d="M100.789 131.897L99.1575 130.396C98.902 130.462 97.9847 131.045 97.8012 131.268C97.775 131.301 97.7488 131.34 97.7226 131.373C97.4671 131.766 97.1919 132.146 96.9101 132.519L96.3729 133.784C96.1566 134.413 96.2222 135.081 96.5301 135.638C96.5367 135.651 96.5432 135.664 96.5563 135.677C96.576 135.717 96.6022 135.756 96.6284 135.795C96.6284 135.795 96.6284 135.802 96.6349 135.808C96.7791 136.025 96.9625 136.215 97.1788 136.372C97.3164 136.47 97.4605 136.569 97.6046 136.647C97.6505 136.673 97.6898 136.7 97.7357 136.719C97.775 136.739 97.8143 136.759 97.8602 136.778C97.9388 136.817 98.0109 136.85 98.0895 136.883C98.5809 137.086 99.0985 137.191 99.6161 137.204C99.6489 137.204 99.6751 137.204 99.7079 137.204C99.7079 137.211 99.6948 137.224 99.6882 137.23C99.2951 137.781 98.974 138.187 98.8299 138.305C98.7447 138.357 98.6792 138.423 98.6202 138.495L98.6726 138.541L100.121 136.804L100.068 136.759C100.573 136.116 101.031 135.442 101.451 134.747C101.601 134.492 101.877 134.216 101.831 133.948C101.831 133.948 100.776 131.943 100.789 131.89V131.897Z" fill="#F5B297"/>
<path d="M95.9249 138.835L95.8594 138.718C96.5408 138.344 98.5523 135.684 98.5719 135.658L98.6768 135.736C98.5916 135.848 96.626 138.442 95.9249 138.829V138.835Z" fill="black"/>
<path d="M95.5239 136.922L95.4453 136.811C95.7271 136.621 97.1882 134.983 97.2013 134.963L97.2995 135.055C97.2406 135.12 95.8122 136.719 95.5174 136.922H95.5239Z" fill="black"/>
<path d="M100.123 136.811L98.6751 138.547L98.6227 138.501L98.5769 138.462H98.5703L99.6186 137.21L100.018 136.726L100.071 136.765L100.123 136.811Z" fill="black"/>
<path d="M113.422 118.655L113.389 118.426L110.552 101.842L104.4 102.891L103.24 118.17L103.227 118.308L102.565 119.788L102.539 119.841L102.526 119.867L101.76 121.59L101.746 121.623L100.927 123.471L100.803 123.746L100.141 125.233L100.063 125.403L98.2148 129.682L103.09 135.441L112.734 121.754C113.324 120.83 113.566 119.729 113.416 118.648L113.422 118.655Z" fill="#72A15C"/>
<path d="M101.454 134.747C101.035 135.448 100.569 136.123 100.071 136.765L100.124 136.811L98.6758 138.547L98.6234 138.501C98.4662 138.718 98.44 139.012 98.5776 139.261C98.7086 139.497 98.9445 139.628 99.2 139.628C99.3179 139.628 99.4293 139.602 99.5407 139.543C99.9994 139.288 102.679 136.038 103.013 135.586L103.105 135.455L101.749 133.856C101.795 134.118 101.611 134.511 101.46 134.76L101.454 134.747Z" fill="#F5B297"/>
<path d="M99.9805 132.539C100.144 132.657 100.269 132.808 100.347 132.984C100.446 132.978 100.544 132.984 100.642 132.998L100.033 132.388C100.02 132.441 100.007 132.493 99.9805 132.545V132.539Z" fill="#F5B297"/>
<path d="M104.403 102.891L104.495 101.685L102.686 100.84L99.6329 101.856L98.5977 97.1316L109.409 95.4411L109.461 95.4346L109.867 97.8064L110.555 101.842L104.403 102.891Z" fill="#F5B297"/>
<path d="M104.494 101.685L104.403 102.891L103.243 118.17L103.236 118.308L103.204 118.15L100.019 103.638L99.6328 101.855L102.686 100.84L104.494 101.685Z" fill="#7094AE"/>
<path d="M110.639 101.83L110.554 101.843L104.402 102.891L100.018 103.638L99.8022 103.671L99.4222 101.921L98.3477 97.027L109.342 95.0811L109.408 95.4414L109.866 97.8067L110.639 101.83Z" fill="#72A15C"/>
<path d="M104.495 101.685L104.404 102.891L103.244 118.17L103.237 118.308L103.126 118.131L94.1758 103.67L99.424 101.921L99.6336 101.855L102.687 100.84L104.495 101.685Z" fill="#72A15C"/>
<path d="M103.892 109.128L109.972 113.387L108.661 115.674L101.906 112.608L103.892 109.128Z" fill="#F5B297"/>
<path d="M110.056 113.42C110.567 113.741 110.685 114.56 110.311 115.248C109.938 115.936 109.223 116.237 108.712 115.916C108.201 115.595 108.083 114.776 108.457 114.088C108.83 113.4 109.545 113.099 110.056 113.42Z" fill="#F5B297"/>
<path d="M110.285 113.282C110.383 113.367 110.495 113.459 110.606 113.544C110.717 113.629 110.829 113.715 110.94 113.793C111.052 113.872 111.163 113.944 111.274 114.009L111.353 114.055L111.432 114.095C111.432 114.095 111.477 114.114 111.497 114.121H111.504H111.517C111.517 114.121 111.53 114.127 111.536 114.134L111.661 114.186C111.838 114.265 111.923 114.475 111.844 114.652C111.779 114.796 111.628 114.881 111.477 114.861L111.392 114.848H111.346L111.327 114.842H111.307C111.261 114.828 111.209 114.815 111.169 114.802L111.045 114.756L110.927 114.71C110.776 114.645 110.632 114.573 110.501 114.501C110.364 114.429 110.233 114.35 110.101 114.272C109.97 114.193 109.846 114.114 109.715 114.023C109.505 113.878 109.453 113.59 109.597 113.38C109.741 113.171 110.029 113.118 110.239 113.262C110.252 113.269 110.265 113.282 110.278 113.295L110.285 113.282Z" fill="#F5B297"/>
<path d="M110.192 113.924L111.653 115.156C111.791 115.267 111.804 115.47 111.693 115.608C111.588 115.733 111.418 115.759 111.28 115.674L109.649 114.678C109.432 114.547 109.36 114.258 109.491 114.042C109.622 113.826 109.911 113.754 110.127 113.885C110.147 113.898 110.166 113.911 110.186 113.924H110.192Z" fill="#F5B297"/>
<path d="M110.069 114.573L111.347 116.014C111.465 116.146 111.452 116.349 111.321 116.467C111.203 116.571 111.026 116.571 110.901 116.467L109.42 115.235C109.224 115.071 109.198 114.776 109.361 114.58C109.525 114.383 109.82 114.357 110.017 114.521C110.036 114.534 110.049 114.553 110.069 114.566V114.573Z" fill="#F5B297"/>
<path d="M110.012 115.005L110.687 116.834C110.746 116.997 110.661 117.181 110.497 117.246C110.346 117.299 110.182 117.24 110.104 117.102L109.167 115.392C109.042 115.169 109.128 114.888 109.35 114.763C109.573 114.639 109.855 114.724 109.979 114.947C109.992 114.966 109.999 114.986 110.006 115.012L110.012 115.005Z" fill="#F5B297"/>
<path d="M109.355 115.562C109.368 115.608 109.374 115.634 109.381 115.674L109.401 115.778C109.414 115.844 109.427 115.916 109.433 115.981C109.453 116.119 109.466 116.263 109.466 116.407C109.466 116.551 109.453 116.709 109.414 116.873C109.394 116.958 109.361 117.043 109.315 117.128C109.27 117.213 109.197 117.298 109.112 117.37C108.981 117.469 108.798 117.443 108.693 117.318C108.627 117.233 108.614 117.122 108.654 117.03L108.706 116.905C108.706 116.905 108.713 116.879 108.719 116.853C108.719 116.827 108.726 116.794 108.726 116.755C108.726 116.676 108.713 116.578 108.693 116.479C108.673 116.381 108.641 116.276 108.608 116.171C108.588 116.119 108.568 116.067 108.549 116.021L108.516 115.949C108.516 115.949 108.49 115.896 108.483 115.883C108.352 115.66 108.424 115.372 108.647 115.241C108.87 115.11 109.158 115.182 109.289 115.405C109.309 115.444 109.328 115.477 109.342 115.516L109.355 115.569V115.562Z" fill="#F5B297"/>
<path d="M99.2081 106.34L97.1016 110.96L103.755 113.993L105.861 109.373L99.2081 106.34Z" fill="white"/>
<path d="M95.3538 105.728H94.9869C91.2597 105.728 88.2383 108.749 88.2383 112.477V117.613C88.2383 121.341 91.2597 124.362 94.9869 124.362H95.3538C99.081 124.362 102.102 121.341 102.102 117.613V112.477C102.102 108.749 99.081 105.728 95.3538 105.728Z" fill="white"/>
<path d="M85.1218 116.611L84.3093 99.3462L74.5664 98.5796L76.8596 120.83L76.8858 121.06C77.1152 123.012 78.7204 124.578 80.7581 124.696L98.6387 124.971L99.1628 117.961L85.1218 116.611Z" fill="#72A15C"/>
<path d="M102.541 119.867L101.774 121.59L101.761 121.623L100.942 123.471L100.818 123.746L100.156 125.233L100.077 125.404C98.5769 125.384 97.201 124.034 96.8996 122.174C96.5655 120.136 97.889 118.006 99.5532 117.731C100.09 117.646 100.595 117.757 101.047 118.026C101.656 118.386 102.167 119.015 102.515 119.789C102.521 119.808 102.528 119.821 102.541 119.841C102.541 119.848 102.547 119.854 102.547 119.861L102.541 119.867Z" fill="#F5B297"/>
<path d="M100.934 123.471L100.809 123.746L100.148 125.233C99.9248 125.109 99.7479 124.893 99.6889 124.624C99.6234 124.316 99.7152 124.008 99.9117 123.792C100.036 123.661 100.2 123.563 100.39 123.517C100.429 123.51 100.475 123.504 100.515 123.497L100.934 123.464V123.471Z" fill="#F5B297"/>
<path d="M101.756 121.629L100.937 123.477L100.812 123.752L100.412 123.831C100.242 123.864 100.072 123.851 99.9145 123.805C99.5672 123.7 99.2855 123.405 99.2134 123.025C99.1086 122.468 99.469 121.931 100.026 121.826C100.052 121.826 100.085 121.813 100.111 121.813L101.762 121.636L101.756 121.629Z" fill="#F5B297"/>
<path d="M102.572 119.795L102.546 119.847L102.533 119.874L101.767 121.597L100.325 121.747C99.7878 121.8 99.3095 121.413 99.2505 120.876C99.2178 120.522 99.3685 120.201 99.6305 119.998C99.7681 119.893 99.9385 119.821 100.122 119.801C100.155 119.801 100.187 119.801 100.22 119.801H102.494H102.559L102.572 119.795Z" fill="#F5B297"/>
<path d="M103.242 118.17L103.229 118.308L102.567 119.788L102.541 119.841H102.522L99.9925 120.024C99.8681 120.031 99.7436 120.024 99.6322 119.985C99.2325 119.867 98.9311 119.513 98.9049 119.081C98.8656 118.517 99.2849 118.032 99.8484 117.993C99.8877 117.993 99.9205 117.993 99.9598 117.993L101.034 118.032L102.941 118.105C103 118.105 103.065 118.118 103.118 118.131C103.144 118.137 103.17 118.144 103.196 118.157C103.21 118.157 103.229 118.17 103.242 118.177V118.17Z" fill="#F5B297"/>
<path d="M100.408 123.608L100.375 123.445C100.421 123.438 100.467 123.425 100.513 123.425L100.932 123.392L100.945 123.562L100.526 123.595C100.486 123.595 100.447 123.602 100.408 123.615V123.608Z" fill="black"/>
<path d="M101.765 121.503L100.324 121.651L100.342 121.82L101.782 121.672L101.765 121.503Z" fill="black"/>
<path d="M100.005 120.116L99.9922 119.946L102.528 119.762L102.561 119.933H102.534L100.005 120.116Z" fill="black"/>
<path d="M103.208 118.249C103.208 118.249 103.181 118.236 103.168 118.236C103.142 118.229 103.122 118.223 103.096 118.216C103.044 118.203 102.991 118.196 102.932 118.19L99.9512 118.079C99.9512 118.079 99.8857 118.079 99.853 118.079L99.8398 117.908C99.8792 117.908 99.9185 117.908 99.9578 117.908L102.939 118.02C103.004 118.02 103.07 118.033 103.136 118.046C103.162 118.052 103.194 118.059 103.221 118.072C103.234 118.072 103.253 118.085 103.267 118.092L103.201 118.249H103.208Z" fill="black"/>
<path d="M88.6183 117.037L85.113 116.702C85.0737 116.702 85.0409 116.663 85.0344 116.624L84.3398 101.855H84.5102L85.2047 116.545L88.6314 116.873L88.6183 117.043V117.037Z" fill="black"/>
<path d="M86.4761 109.128L80.4023 113.387L81.7062 115.674L88.4614 112.608L86.4761 109.128Z" fill="#F5B297"/>
<path d="M80.3101 113.42C79.799 113.741 79.6811 114.56 80.0545 115.248C80.428 115.936 81.1422 116.237 81.6532 115.916C82.1643 115.595 82.2822 114.776 81.9088 114.088C81.5353 113.4 80.8211 113.099 80.3101 113.42Z" fill="#F5B297"/>
<path d="M80.081 113.282C79.9827 113.367 79.8713 113.459 79.7599 113.544C79.6485 113.629 79.5371 113.715 79.4258 113.793C79.3144 113.872 79.203 113.944 79.0916 114.009L79.013 114.055L78.9344 114.095C78.9344 114.095 78.8885 114.114 78.8688 114.121H78.8623H78.8492C78.8492 114.121 78.8361 114.127 78.8295 114.134L78.705 114.186C78.5281 114.265 78.443 114.475 78.5216 114.652C78.5871 114.796 78.7378 114.881 78.8885 114.861L78.9737 114.848H79.0195L79.0392 114.842H79.0588C79.1047 114.828 79.1571 114.815 79.1964 114.802L79.3209 114.756L79.4389 114.71C79.5896 114.645 79.7337 114.573 79.8647 114.501C80.0023 114.429 80.1334 114.35 80.2644 114.272C80.3955 114.193 80.52 114.114 80.651 114.023C80.8607 113.878 80.9131 113.59 80.7689 113.38C80.6248 113.171 80.3365 113.118 80.1268 113.262C80.1137 113.269 80.1006 113.282 80.0875 113.295L80.081 113.282Z" fill="#F5B297"/>
<path d="M80.1728 113.924L78.7117 115.156C78.5741 115.267 78.561 115.47 78.6724 115.608C78.7772 115.733 78.9476 115.759 79.0852 115.674L80.7166 114.678C80.9329 114.547 81.0049 114.258 80.8739 114.042C80.7429 113.826 80.4546 113.754 80.2383 113.885C80.2187 113.898 80.199 113.911 80.1794 113.924H80.1728Z" fill="#F5B297"/>
<path d="M80.296 114.573L79.0183 116.014C78.9004 116.146 78.9135 116.349 79.0446 116.467C79.1625 116.571 79.3394 116.571 79.4639 116.467L80.9447 115.235C81.1412 115.071 81.1674 114.776 81.0036 114.58C80.8398 114.383 80.545 114.357 80.3484 114.521C80.3288 114.534 80.3157 114.553 80.296 114.566V114.573Z" fill="#F5B297"/>
<path d="M80.3576 115.005L79.6828 116.834C79.6238 116.997 79.709 117.181 79.8728 117.246C80.0235 117.299 80.1873 117.24 80.2659 117.102L81.2028 115.392C81.3273 115.169 81.2421 114.888 81.0194 114.763C80.7966 114.639 80.5149 114.724 80.3904 114.947C80.3773 114.966 80.3707 114.986 80.3642 115.012L80.3576 115.005Z" fill="#F5B297"/>
<path d="M81.0098 115.562C80.9967 115.608 80.9902 115.634 80.9836 115.674L80.964 115.778C80.9509 115.844 80.9377 115.916 80.9312 115.981C80.9115 116.119 80.8984 116.263 80.8984 116.407C80.8984 116.551 80.9115 116.709 80.9509 116.873C80.9705 116.958 81.0033 117.043 81.0491 117.128C81.095 117.213 81.1671 117.298 81.2522 117.37C81.3833 117.469 81.5667 117.443 81.6716 117.318C81.7371 117.233 81.7502 117.122 81.7109 117.03L81.6585 116.905C81.6585 116.905 81.6519 116.879 81.6454 116.853C81.6454 116.827 81.6388 116.794 81.6388 116.755C81.6388 116.676 81.6519 116.578 81.6716 116.479C81.6912 116.381 81.724 116.276 81.7568 116.171C81.7764 116.119 81.7961 116.067 81.8157 116.021L81.8485 115.949C81.8485 115.949 81.8747 115.896 81.8812 115.883C82.0123 115.66 81.9402 115.372 81.7174 115.241C81.4947 115.11 81.2064 115.182 81.0753 115.405C81.0557 115.444 81.036 115.477 81.0229 115.516L81.0098 115.569V115.562Z" fill="#F5B297"/>
<path d="M84.3466 109.127L86.4531 113.748L93.1063 110.714L90.9998 106.094L84.3466 109.127Z" fill="white"/>
<path d="M95.2622 108.303C98.3561 108.303 100.864 105.947 100.864 103.042C100.864 100.136 98.3561 97.7803 95.2622 97.7803C92.1683 97.7803 89.6602 100.136 89.6602 103.042C89.6602 105.947 92.1683 108.303 95.2622 108.303Z" fill="#F5B297"/>
<path d="M96.7892 105.223C96.7892 105.911 96.4158 106.468 95.9571 106.468C95.4985 106.468 95.125 105.911 95.125 105.223C95.125 104.535 95.4985 103.979 95.9571 103.979C96.4158 103.979 96.7892 104.535 96.7892 105.223Z" fill="#D19881"/>
<path d="M95.9563 106.547C95.4518 106.547 95.0391 105.951 95.0391 105.223C95.0391 104.496 95.4518 103.9 95.9563 103.9C96.4609 103.9 96.8736 104.496 96.8736 105.223C96.8736 105.951 96.4609 106.547 95.9563 106.547ZM95.9563 104.064C95.5436 104.064 95.2094 104.581 95.2094 105.223C95.2094 105.866 95.5436 106.383 95.9563 106.383C96.3691 106.383 96.7033 105.866 96.7033 105.223C96.7033 104.581 96.3691 104.064 95.9563 104.064Z" fill="black"/>
<path d="M91.8466 101.685L91.8073 101.521L92.9015 101.24L91.8008 100.873L91.8532 100.709L93.2291 101.168C93.2619 101.181 93.2881 101.213 93.2881 101.253C93.2881 101.292 93.2619 101.325 93.2226 101.331L91.8466 101.685Z" fill="black"/>
<path d="M98.6758 101.685L97.2999 101.331C97.2606 101.325 97.2409 101.292 97.2344 101.253C97.2344 101.213 97.254 101.181 97.2933 101.168L98.6693 100.709L98.7217 100.873L97.6209 101.24L98.7151 101.521L98.6758 101.685Z" fill="black"/>
<path d="M95.7248 102.76C95.489 102.452 95.2596 102.308 95.0434 102.327C94.7158 102.353 94.5062 102.74 94.5062 102.747L94.3555 102.668C94.3555 102.668 94.611 102.196 95.0303 102.157C95.3121 102.131 95.5873 102.301 95.8624 102.655L95.7248 102.76Z" fill="black"/>
<path d="M96.564 96.4634C96.9309 96.6797 97.1209 97.0466 96.9833 97.2759C96.9505 97.3283 96.9047 97.3676 96.8457 97.4004C96.7736 97.1842 96.6033 96.9614 96.3477 96.8238C95.9153 96.5945 95.568 97.1383 96.0005 97.4135C96.2495 97.5707 96.5247 97.6166 96.7474 97.5707C96.7474 97.6363 96.7343 97.7018 96.7016 97.7542C96.564 97.9835 96.1512 97.9966 95.7843 97.7804L95.7188 97.8983C96.1512 98.1539 96.6426 98.1211 96.8195 97.8263C96.8719 97.7411 96.885 97.6428 96.8785 97.538C96.9767 97.4987 97.0488 97.4331 97.1012 97.348C97.2781 97.0531 97.0685 96.6076 96.636 96.3521L96.5705 96.47L96.564 96.4634ZM96.2822 96.9417C96.4984 97.0728 96.6622 97.2628 96.7212 97.4462C96.5378 97.4856 96.2953 97.4331 96.066 97.3021C95.8039 97.1514 96.0267 96.791 96.2822 96.9417Z" fill="black"/>
<path d="M92.9756 103.16C92.9756 103.382 92.5956 103.566 92.1304 103.566C91.6652 103.566 91.2852 103.382 91.2852 103.16C91.2852 102.937 91.6652 102.753 92.1304 102.753C92.5956 102.753 92.9756 102.937 92.9756 103.16Z" fill="#D19881"/>
<path d="M98.874 103.16C98.874 103.382 98.494 103.566 98.0288 103.566C97.5636 103.566 97.1836 103.382 97.1836 103.16C97.1836 102.937 97.5636 102.753 98.0288 102.753C98.494 102.753 98.874 102.937 98.874 103.16Z" fill="#D19881"/>
<path d="M52.1046 180.821L50.9252 201.244H42.3552L41.1758 180.821H52.1046Z" fill="#F5B297"/>
<path d="M51.0084 201.329H42.268V201.243L41.082 180.729H52.1878V180.821L51.0018 201.322L51.0084 201.329ZM42.4318 201.158H50.838L52.0043 180.912H41.2655L42.4318 201.158Z" fill="#D19881"/>
<path d="M56.9339 202.509C56.6718 201.591 52.8651 201.074 52.3671 200.995C51.8364 200.91 51.2991 200.818 50.7684 200.72C49.8642 201.113 48.4293 201.316 46.8241 201.218C44.2688 201.061 42.2311 200.189 42.1197 199.246C40.8879 199.54 40.6389 200.681 40.5996 202.056C40.5603 203.681 41.1107 205.031 42.6701 205.064C43.7249 205.09 44.7667 205.103 45.815 205.11C46.8634 205.116 47.9051 205.123 48.9535 205.116C50.0018 205.116 51.0567 205.097 52.1181 205.064C52.6488 205.044 53.1861 205.025 53.743 204.985C53.8806 204.972 54.0182 204.966 54.1624 204.952L54.3786 204.933L54.6014 204.907C54.7455 204.893 54.9159 204.867 55.0797 204.841C55.1714 204.828 55.2762 204.808 55.3745 204.789C55.4138 204.782 55.499 204.762 55.5711 204.743C55.6431 204.723 55.7218 204.703 55.7938 204.677C56.6784 204.402 57.1829 203.426 56.9208 202.509H56.9339Z" fill="#201600"/>
<path d="M58.6176 180.821L57.4448 201.244H48.8681L47.6953 180.821H58.6176Z" fill="#F5B297"/>
<path d="M57.5279 201.329H48.7875V201.243L47.6016 180.729H58.7073V180.821L57.5214 201.322L57.5279 201.329ZM48.9513 201.158H57.3641L58.5304 180.912H47.7916L48.9578 201.158H48.9513Z" fill="#D19881"/>
<path d="M48.7809 200.169L47.8047 184.044L47.975 184.031L48.9513 200.162L48.7809 200.169Z" fill="black"/>
<path d="M63.7151 202.509C63.4531 201.591 59.6463 201.074 59.1484 200.995C58.6176 200.91 58.0804 200.818 57.5497 200.72C56.6455 201.113 55.2106 201.316 53.6053 201.218C51.05 201.061 49.0123 200.189 48.9009 199.246C47.6691 199.54 47.4202 200.681 47.3809 202.056C47.3415 203.681 47.8919 205.031 49.4513 205.064C50.5062 205.09 51.548 205.103 52.5963 205.11C53.6446 205.116 54.6864 205.123 55.7347 205.116C56.7831 205.116 57.8379 205.097 58.8994 205.064C59.4301 205.044 59.9674 205.025 60.5243 204.985C60.6619 204.972 60.7995 204.966 60.9436 204.952L61.1598 204.933L61.3826 204.907C61.5268 204.893 61.6971 204.867 61.8609 204.841C61.9526 204.828 62.0575 204.808 62.1557 204.789C62.1951 204.782 62.2802 204.762 62.3523 204.743C62.4244 204.723 62.503 204.703 62.5751 204.677C63.4596 204.402 63.9641 203.426 63.702 202.509H63.7151Z" fill="#201600"/>
<path d="M49.449 205.109C48.6235 205.096 48.0141 204.828 47.6276 204.31C46.7954 203.19 47.3131 201.309 47.3393 201.23L47.4179 201.257C47.4179 201.257 46.8872 203.17 47.6931 204.258C48.06 204.749 48.6497 205.011 49.449 205.018V205.103V205.109Z" fill="white"/>
<path d="M60.8569 133.725C58.7537 135.474 55.7594 134.957 53.2107 136.234C52.3 131.799 49.4564 130.993 45.3351 130.56C34.2687 129.401 29.5381 167.278 26 179.76C41.0108 184.772 57.024 184.962 72.1068 180.336C68.6801 164.703 64.9323 149.168 60.8504 133.731L60.8569 133.725Z" fill="#FFB243"/>
<path d="M41.2605 101.082C41.2605 107.798 39.557 113.243 37.4604 113.243C35.3637 113.243 33.6602 107.798 33.6602 101.082C33.6602 94.3666 35.3637 88.9219 37.4604 88.9219C39.557 88.9219 41.2605 94.3666 41.2605 101.082Z" fill="black"/>
<path d="M43.3247 82.8939C45.1135 85.3771 44.55 88.8432 42.0602 90.6319C39.577 92.4206 36.1109 91.8571 34.3222 89.3673C32.5335 86.8775 33.097 83.4181 35.5868 81.6293C38.07 79.8406 41.536 80.4041 43.3247 82.8939Z" fill="black"/>
<path d="M37.4141 102.242L45.152 101.712L43.9858 92.8467L38.9276 92.8925L37.4141 102.242Z" fill="#F5B297"/>
<path d="M37.6317 100.912C37.6317 100.912 42.1395 96.0241 44.531 94.7923L38.811 93.1543L37.6055 101.089L37.6317 100.912Z" fill="#D19881"/>
<path d="M45.1011 86.897C46.5688 90.7037 45.8808 94.517 43.5679 95.4081C41.2551 96.2992 38.1887 93.9339 36.721 90.1272C35.2534 86.3204 35.9413 82.5071 38.2542 81.616C40.5671 80.725 43.6335 83.0903 45.1011 86.897Z" fill="#F5B297"/>
<path d="M43.7889 82.3701C44.8176 84.1588 43.5137 86.8451 40.8667 88.3718C38.2196 89.8984 35.2385 89.6887 34.2032 87.9066C33.1746 86.1178 34.4784 83.4315 37.1255 81.9049C39.7725 80.3782 42.7537 80.5879 43.7889 82.3701Z" fill="black"/>
<path d="M45.375 88.0112C45.5519 88.2143 46.3054 89.7541 46.6199 90.4027C46.692 90.5534 46.574 90.7434 46.3644 90.809L45.8992 90.9466L45.375 88.0112Z" fill="#F5B297"/>
<path d="M44.5283 88.5156C44.6152 88.5156 44.6856 88.3513 44.6856 88.1487C44.6856 87.946 44.6152 87.7817 44.5283 87.7817C44.4415 87.7817 44.3711 87.946 44.3711 88.1487C44.3711 88.3513 44.4415 88.5156 44.5283 88.5156Z" fill="black"/>
<path d="M42.4844 91.8308C42.6351 92.0142 42.7989 92.1715 42.9758 92.3156C43.1527 92.4532 43.3492 92.5712 43.5524 92.6498C43.7555 92.7284 43.9782 92.7677 44.201 92.7612C44.4238 92.7612 44.6531 92.7153 44.8824 92.6629C44.7776 92.7153 44.6728 92.7743 44.5614 92.8136C44.45 92.8463 44.3321 92.8857 44.2141 92.8922C44.0962 92.9119 43.9717 92.8988 43.8472 92.8922C43.7293 92.8725 43.6048 92.8463 43.4934 92.8005C43.0347 92.6236 42.6678 92.2567 42.4844 91.8242V91.8308Z" fill="white"/>
<path d="M43.3747 88.1814L43.2109 88.1289C43.2306 88.0765 43.6434 86.8841 44.6589 86.4844L44.7179 86.6416C43.7744 87.0151 43.3747 88.1748 43.3682 88.1879L43.3747 88.1814Z" fill="black"/>
<path d="M44.7915 89.9507C44.7653 90.2914 44.3198 90.5339 43.7891 90.4945C43.2583 90.4552 42.8521 90.1473 42.8718 89.8131C42.898 89.4724 43.3435 89.23 43.8742 89.2693C44.405 89.3086 44.8112 89.6166 44.7915 89.9507Z" fill="#D19881"/>
<path d="M39.3001 91.3853C39.9684 93.4099 37.9242 98.9988 37.8718 97.8128C37.7801 95.7227 37.0266 94.7923 36.3583 92.7678C35.6899 90.7432 34.9103 88.771 36.0438 88.3975C37.1773 88.0241 38.6384 89.3607 39.3001 91.3853Z" fill="black"/>
<path d="M38.8206 90.2716C39.4141 90.2716 39.8952 89.7905 39.8952 89.1971C39.8952 88.6036 39.4141 88.1226 38.8206 88.1226C38.2272 88.1226 37.7461 88.6036 37.7461 89.1971C37.7461 89.7905 38.2272 90.2716 38.8206 90.2716Z" fill="#F5B297"/>
<path d="M39.0312 88.557L38.3281 88.6826L38.3581 88.8503L39.0611 88.7247L39.0312 88.557Z" fill="black"/>
<path d="M39.6999 90.6322C39.6999 91.117 39.3068 91.5036 38.8285 91.5036C38.3502 91.5036 37.957 91.1105 37.957 90.6322C37.957 90.1539 38.3502 89.7607 38.8285 89.7607C39.3068 89.7607 39.6999 90.1539 39.6999 90.6322Z" fill="#DB5964"/>
<path d="M54.2498 115.53C53.5291 115.163 53.1622 114.331 53.3849 113.558C53.3849 113.558 53.3849 113.545 53.3849 113.538C53.7256 112.385 53.1032 110.622 51.7404 108.349C50.4824 106.278 47.4619 103.736 45.2538 101.508C44.0876 101.489 43.7403 101.194 42.2202 100.598C40.3332 99.8507 38.787 98.8483 37.9352 97.9048C31.7894 101.089 40.3463 127.12 36.9 138.161C37.6469 137.958 39.1146 138.036 40.9819 138.115C43.2161 138.213 46.0139 138.324 48.8247 137.971C53.9025 137.525 59.0001 135.553 60.7757 133.869C60.887 133.469 60.9853 133.063 61.0705 132.644C61.3064 131.484 61.4309 130.265 61.4309 129.014C61.4309 122.914 58.4562 117.692 54.2433 115.536L54.2498 115.53Z" fill="#F9ECAF"/>
<path d="M36.9144 113.066C36.6393 113.407 36.0954 113.237 35.8661 112.856C35.6368 112.476 34.6016 109.594 34.6016 109.135C34.6147 107.759 35.6564 108.768 35.6695 107.392C35.6695 107.209 35.6695 107.012 35.5909 106.848C35.5123 106.691 35.3747 106.586 35.2764 106.449C35.0995 106.206 35.0406 105.879 34.9947 105.571C34.654 103.474 34.3264 101.253 34.9816 99.2544C35.3157 98.2388 36.7899 95.3625 37.8972 95.238C39.2142 95.0873 37.9628 99.1168 37.8121 100.172C37.5041 102.327 37.2748 104.496 37.1241 106.671C37.052 107.759 36.9931 108.847 36.9603 109.941C36.9406 110.498 37.2093 112.699 36.9144 113.066Z" fill="black"/>
<path d="M46.7032 139.7H43.2765C40.8629 139.7 38.9062 141.657 38.9062 144.07V147.497C38.9062 149.911 40.8629 151.867 43.2765 151.867H46.7032C49.1168 151.867 51.0734 149.911 51.0734 147.497V144.07C51.0734 141.657 49.1168 139.7 46.7032 139.7Z" fill="#DB5964"/>
<path d="M47.2989 146.095H42.6534C41.0941 146.095 39.8164 144.824 39.8164 143.258V141.22H39.954V143.258C39.954 144.745 41.1596 145.951 42.6469 145.951H47.2923C48.7796 145.951 49.9852 144.745 49.9852 143.258V141.22H50.1228V143.258C50.1228 144.824 48.8517 146.095 47.2858 146.095H47.2989Z" fill="#201600"/>
<path d="M47.1297 145.571H42.9102V146.862H47.1297V145.571Z" fill="white"/>
<path d="M39.8011 141.83C40.0581 141.83 40.2663 141.355 40.2663 140.768C40.2663 140.182 40.0581 139.707 39.8011 139.707C39.5442 139.707 39.3359 140.182 39.3359 140.768C39.3359 141.355 39.5442 141.83 39.8011 141.83Z" fill="black"/>
<path d="M50.0668 141.83C50.3237 141.83 50.532 141.355 50.532 140.768C50.532 140.182 50.3237 139.707 50.0668 139.707C49.8098 139.707 49.6016 140.182 49.6016 140.768C49.6016 141.355 49.8098 141.83 50.0668 141.83Z" fill="black"/>
<path d="M50.6572 140.86L49.4844 140.676C49.5106 140.499 52.1969 123.025 52.7997 114.134L53.9856 114.212C53.3763 123.149 50.6834 140.676 50.6572 140.853V140.86Z" fill="#94765A"/>
<path d="M39.2166 140.847L36.8906 119.546L36.9103 119.723L40.3894 140.69L39.2166 140.847Z" fill="#94765A"/>
<path d="M77.0866 101.522C78.0694 101.168 79.0457 100.906 80.0219 100.696C80.9982 100.486 81.9745 100.323 82.9507 100.205C83.927 100.087 83.3635 100.12 84.3463 100.087C84.8836 100.074 85.0736 100.211 85.1915 100.572C85.3553 101.076 84.7984 101.554 84.2611 101.607C84.2611 101.607 83.9597 101.718 83.0621 101.882C82.8328 101.921 78.7443 103.704 78.7443 103.704C78.7443 103.704 75.9204 106.482 75.121 106.803C73.4764 107.464 74.6886 106.147 74.2299 104.948C74.0268 104.876 73.8434 104.758 73.6927 104.595C73.2078 104.064 73.4568 103.605 74.0792 103.107C74.1447 103.055 74.2103 103.002 74.2758 102.95C74.3413 102.898 74.4134 102.845 74.4724 102.806C74.6034 102.721 74.7344 102.622 74.8589 102.557C74.9834 102.478 75.1145 102.406 75.2389 102.341C75.3634 102.275 75.4879 102.203 75.6124 102.151C76.1104 101.908 76.6018 101.705 77.0932 101.535L77.0866 101.522Z" fill="#F5B297"/>
<path d="M80.3416 100.519C81.2851 100.27 80.7348 100.381 81.6979 100.211C82.2221 100.119 82.4186 100.224 82.5628 100.539C82.7594 100.978 82.2614 101.508 81.7307 101.633C81.7307 101.633 81.4489 101.777 80.5775 102.059C79.9223 102.275 79.2671 102.504 78.625 102.76L80.3416 100.519Z" fill="#F5B297"/>
<path d="M78.6593 102.838L78.5938 102.681C79.2227 102.432 79.878 102.196 80.5528 101.973C81.267 101.737 81.588 101.6 81.6929 101.554H81.7191C82.0336 101.469 82.335 101.239 82.466 100.984C82.5184 100.879 82.5577 100.728 82.4922 100.571C82.3743 100.309 82.2301 100.204 81.7191 100.289L81.4373 100.342C81.2015 100.381 81.0311 100.416 80.9263 100.447C80.8346 100.473 80.6839 100.519 80.3759 100.597L80.33 100.434C80.638 100.355 80.7821 100.309 80.8804 100.283C81.0442 100.237 81.0508 100.23 81.4111 100.171L81.6929 100.119C82.2236 100.027 82.4857 100.126 82.6495 100.499C82.7281 100.669 82.715 100.866 82.6233 101.056C82.4726 101.357 82.1253 101.619 81.7649 101.711C81.6667 101.757 81.3456 101.901 80.6183 102.137C79.95 102.353 79.2948 102.589 78.6724 102.838H78.6593Z" fill="black"/>
<path d="M75.457 100.486L62.7853 105.4L43.293 104.771V114.468L63.5061 113.813L64.4954 113.78L65.1506 113.479L77.9075 106.252L75.457 100.486Z" fill="#F9ECAF"/>
<path d="M44.3737 113.731L44.3672 113.901L53.1537 114.235L53.1602 114.065L44.3737 113.731Z" fill="black"/>
<path d="M43.2907 104.688L43.2852 104.858L49.395 105.055L49.4005 104.885L43.2907 104.688Z" fill="black"/>
</g>
<defs>
<clipPath id="clip0_1693_10833">
<rect width="226" height="208" fill="white"/>
</clipPath>
<clipPath id="clip1_1693_10833">
<rect width="88" height="137" fill="white" transform="translate(26 70.8511)"/>
</clipPath>
</defs>
</svg>
