<svg width="226" height="208" viewBox="0 0 226 208" fill="none" xmlns="http://www.w3.org/2000/svg">
<g clip-path="url(#clip0_1693_11004)">
<path opacity="0.4" d="M215.547 41.1934H10.4492V185.194H215.547V41.1934Z" fill="#DDE2FE"/>
<path d="M220.121 11.8721H214.242V208H220.121V11.8721Z" fill="#97A0E7"/>
<path d="M216.855 11.8721H214.242V208H216.855V11.8721Z" fill="#7380DA"/>
<path d="M11.1052 11.8721H5.22656V208H11.1052V11.8721Z" fill="#97A0E7"/>
<path d="M7.83928 11.8721H5.22656V208H7.83928V11.8721Z" fill="#7380DA"/>
<path d="M13.7173 13.1753H2.61328L5.226 17.7364H11.1046L13.7173 13.1753Z" fill="#5062CF"/>
<path d="M222.733 13.1753H211.629L214.242 17.7364H220.12L222.733 13.1753Z" fill="#5062CF"/>
<path d="M205.097 50.3154H150.883V117.429H205.097V50.3154Z" fill="#FFFFFA"/>
<path d="M190.728 75.0762H183.543V75.7278H190.728V75.0762Z" fill="#B2B2B2"/>
<path d="M190.728 77.0308H183.543V77.6823H190.728V77.0308Z" fill="#B2B2B2"/>
<path d="M190.728 78.9854H183.543V79.6369H190.728V78.9854Z" fill="#B2B2B2"/>
<path d="M169.173 67.9087H161.988V68.5603H169.173V67.9087Z" fill="#B2B2B2"/>
<path d="M169.173 69.8633H161.988V70.5149H169.173V69.8633Z" fill="#B2B2B2"/>
<path d="M169.173 71.8179H161.988V72.4695H169.173V71.8179Z" fill="#B2B2B2"/>
<path d="M205.097 50.3154H150.883V56.1797H205.097V50.3154Z" fill="#5062CF"/>
<path d="M203.138 100.488H195.953V101.139H203.138V100.488Z" fill="#B2B2B2"/>
<path d="M203.138 102.443H195.953V103.094H203.138V102.443Z" fill="#B2B2B2"/>
<path d="M203.138 104.397H195.953V105.049H203.138V104.397Z" fill="#B2B2B2"/>
<path d="M170.481 108.307H158.07V109.61H170.481V108.307Z" fill="#B2B2B2"/>
<path d="M170.481 104.397H158.07V105.701H170.481V104.397Z" fill="#B2B2B2"/>
<path d="M170.481 112.216H158.07V113.519H170.481V112.216Z" fill="#B2B2B2"/>
<path d="M156.091 105.31C156.091 105.811 155.679 106.222 155.176 106.222C154.673 106.222 154.262 105.811 154.262 105.31C154.262 104.808 154.673 104.397 155.176 104.397C155.679 104.397 156.091 104.808 156.091 105.31Z" fill="#FF5B79"/>
<path d="M156.091 108.959C156.091 109.46 155.679 109.871 155.176 109.871C154.673 109.871 154.262 109.46 154.262 108.959C154.262 108.457 154.673 108.046 155.176 108.046C155.679 108.046 156.091 108.457 156.091 108.959Z" fill="#F5C50F"/>
<path d="M156.091 112.608C156.091 113.109 155.679 113.52 155.176 113.52C154.673 113.52 154.262 113.109 154.262 112.608C154.262 112.106 154.673 111.695 155.176 111.695C155.679 111.695 156.091 112.106 156.091 112.608Z" fill="#3BC075"/>
<path d="M193.34 108.366V83.5465H172.438V63.9402C172.888 63.7056 173.202 63.2365 173.202 62.6957C173.202 61.9138 172.568 61.2817 171.785 61.2817C171.001 61.2817 170.367 61.9138 170.367 62.6957C170.367 63.2365 170.681 63.7056 171.131 63.9402V84.8497H192.033V108.366C191.582 108.6 191.269 109.069 191.269 109.61C191.269 110.392 191.903 111.024 192.686 111.024C193.47 111.024 194.104 110.392 194.104 109.61C194.104 109.069 193.79 108.6 193.34 108.366Z" fill="#FF5B79"/>
<path d="M193.339 65.1914C192.797 65.1914 192.327 65.5042 192.092 65.9538H180.929V97.23H174.397V107.062C173.946 107.297 173.633 107.766 173.633 108.307C173.633 109.089 174.266 109.721 175.05 109.721C175.834 109.721 176.468 109.089 176.468 108.307C176.468 107.766 176.154 107.297 175.703 107.062V98.5332H182.235V67.2569H192.092C192.327 67.7065 192.797 68.0193 193.339 68.0193C194.123 68.0193 194.757 67.3873 194.757 66.6054C194.757 65.8234 194.123 65.1914 193.339 65.1914Z" fill="#F5C50F"/>
<path d="M187.463 102.501V90.714H158.723V72.4109C159.174 72.1763 159.487 71.7072 159.487 71.1664C159.487 70.3845 158.854 69.7524 158.07 69.7524C157.286 69.7524 156.652 70.3845 156.652 71.1664C156.652 71.7072 156.966 72.1763 157.417 72.4109V92.0172H186.156V102.501C185.706 102.736 185.392 103.205 185.392 103.746C185.392 104.528 186.026 105.16 186.81 105.16C187.593 105.16 188.227 104.528 188.227 103.746C188.227 103.205 187.913 102.736 187.463 102.501Z" fill="#3BC075"/>
<path d="M226 6.00781H0V13.1753H226V6.00781Z" fill="#97A0E7"/>
<path d="M0 6.65923H226C226 6.65923 218.763 0 115.162 0C11.5613 0 0 6.65923 0 6.65923Z" fill="#5062CF"/>
<path d="M211.629 208H222.733L220.12 203.439H214.242L211.629 208Z" fill="#5062CF"/>
<path d="M2.61328 208H13.7173L11.1046 203.439H5.226L2.61328 208Z" fill="#5062CF"/>
<path d="M68.5833 41.1934L24.8203 185.194H41.4764L84.9128 41.1934H68.5833Z" fill="white"/>
<path d="M51.6016 185.194H63.0322L106.469 41.1934H95.3646L51.6016 185.194Z" fill="white"/>
<path d="M215.547 183.891H10.4492V187.149H215.547V183.891Z" fill="#5062CF"/>
<path d="M215.547 39.2388H10.4492V42.4967H215.547V39.2388Z" fill="#5062CF"/>
<path d="M190.729 168.905H186.156V208H190.729V168.905Z" fill="#E7E7E9"/>
<g style="mix-blend-mode:multiply" opacity="0.6">
<path d="M188.116 168.905H186.156V208H188.116V168.905Z" fill="#E7E7E9"/>
</g>
<path d="M40.498 168.905H35.9258V208H40.498V168.905Z" fill="#E7E7E9"/>
<g style="mix-blend-mode:multiply" opacity="0.6">
<path d="M37.8853 168.905H35.9258V208H37.8853V168.905Z" fill="#E7E7E9"/>
</g>
<path d="M195.301 163.041H27.4336V171.511H195.301V163.041Z" fill="#96C295"/>
<g style="mix-blend-mode:multiply" opacity="0.4">
<path d="M195.301 167.602H27.4336V171.511H195.301V167.602Z" fill="#369239"/>
</g>
</g>
<g clip-path="url(#clip1_1693_11004)">
<path d="M98.3752 150.624C98.2055 151.396 98.0853 152.168 97.9721 152.933C97.859 153.698 97.767 154.463 97.6822 155.228C97.5195 156.758 97.3993 158.273 97.3215 159.796C97.1589 162.827 97.1518 165.844 97.2437 168.847L97.2862 169.421C97.1376 174.613 99.1248 202.058 99.2804 203.347L88.1213 200.854C88.2061 199.557 88.2485 198.254 88.2839 196.958C88.3193 195.662 88.3263 194.366 88.3334 193.07C88.3334 190.478 88.291 187.885 88.2061 185.293C88.0364 180.109 87.7182 174.931 87.2939 169.754L87.3363 170.328C86.714 167.388 86.1695 164.463 85.2997 161.552C84.8683 160.101 81.9123 158.649 81.389 157.204C81.1274 156.481 80.8516 155.759 80.5616 155.044C80.2717 154.328 79.9676 153.606 79.6211 152.898L98.3752 150.638V150.624Z" fill="#F5B297"/>
<path d="M103.839 207.681C103.578 207.745 96.0323 207.858 96.0323 207.858L90.7003 205.294C87.6877 203.75 85.9976 202.355 85.9976 202.355C84.4913 201.448 87.0513 195.598 88.5576 196.505C88.8829 196.944 89.1657 197.418 89.6395 197.702L98.5498 203.106L98.8398 203.155L103.436 203.97C106.343 205.039 104.561 207.504 103.839 207.688V207.681Z" fill="#DB5964"/>
<path d="M89.5629 201.087H85.5391V207.71H89.5629V201.087Z" fill="#DB5964"/>
<path d="M91.1109 169.145L86.1183 131.537L67.4844 136.239L78.5869 170.547C78.7354 170.944 78.7779 171.376 78.7001 171.787L75.5037 199.579L84.5271 202.504L91.2028 171.744C91.3018 171.199 91.3159 170.647 91.2382 170.094L91.1109 169.138V169.145Z" fill="#F5B297"/>
<path d="M88.1143 186.412L87.9375 186.377L91.1127 171.73C91.2117 171.199 91.2188 170.654 91.148 170.115L89.9459 161.064L90.1297 161.042L91.3319 170.094C91.4026 170.654 91.3956 171.213 91.2895 171.773L88.1143 186.419V186.412Z" fill="#201600"/>
<path d="M91.1988 207.539C90.9372 207.603 83.3917 207.717 83.3917 207.717L78.0597 205.153C75.0471 203.609 73.357 202.213 73.357 202.213C71.8507 201.307 74.4107 195.457 75.9169 196.363C76.2422 196.802 76.5251 197.277 76.9989 197.56L84.5302 202.518L90.7958 203.828C93.7022 204.898 91.9202 207.362 91.1988 207.547V207.539Z" fill="#DB5964"/>
<path d="M76.9222 200.946H72.8984V207.568H76.9222V200.946Z" fill="#DB5964"/>
<path d="M92.2635 206.548L92.0867 206.498C92.2493 205.875 92.1503 205.316 91.7968 204.834C90.4107 202.95 85.5808 202.731 85.5312 202.731V202.546C85.7434 202.553 90.5026 202.773 91.9453 204.728C92.3342 205.259 92.4403 205.868 92.2635 206.548Z" fill="#201600"/>
<path d="M103.687 158.868C90.555 161.481 77.0834 161.744 63.8594 159.633C65.6344 147.826 67.4023 136.027 69.1773 124.22C70.3865 117.57 76.5035 113.143 82.8893 112.98C89.275 112.902 95.5617 117.088 97.0256 123.689C99.2461 135.418 101.467 147.139 103.687 158.868Z" fill="#DDE1FE"/>
<path d="M100.856 100.295L79.1172 93.6236L92.5534 66.377L102.256 68.0626L100.856 100.295Z" fill="#735846"/>
<path d="M87.832 87.0509L91.7356 97.4977L97.2586 88.6728L98.6446 76.1013L93.4823 74.8477L87.832 87.0509Z" fill="#F5B297"/>
<path d="M88.793 84.9826C88.793 84.9826 95.4686 80.131 98.3185 79.0757L92.2439 77.5317L88.793 84.9897V84.9826Z" fill="#D19881"/>
<path d="M91.9516 64.9534C92.6659 64.2239 93.5781 63.9547 93.9883 64.3655C94.4055 64.7692 94.158 65.69 93.4508 66.4195C92.7366 67.149 91.8244 67.4181 91.4142 67.0073C90.997 66.6036 91.2445 65.6829 91.9516 64.9534Z" fill="black"/>
<path d="M100.665 74.3023C99.739 73.8844 99.3218 72.8008 99.7319 71.8659C100.142 70.931 101.231 70.5202 102.165 70.931C103.091 71.3489 103.508 72.4325 103.098 73.3674C102.688 74.3023 101.599 74.7131 100.665 74.3023Z" fill="#F5B297"/>
<path d="M101.469 71.6233L101.383 71.7861L102.677 72.4708L102.763 72.308L101.469 71.6233Z" fill="#201600"/>
<path d="M102.328 74.6775C102.328 75.0316 102.045 75.3149 101.691 75.3149C101.338 75.3149 101.055 75.0316 101.055 74.6775C101.055 74.3233 101.338 74.04 101.691 74.04C102.045 74.04 102.328 74.3233 102.328 74.6775Z" fill="#DB5964"/>
<path d="M102.016 72.4538C101.125 77.7657 98.0276 81.6753 95.0928 81.1795C92.1652 80.6837 90.5104 75.9809 91.4085 70.669C92.2995 65.3571 95.3969 61.4475 98.3317 61.9433C101.259 62.4391 102.914 67.1419 102.016 72.4538Z" fill="#F5B297"/>
<path d="M96.325 70.1237C95.6107 68.9763 93.9065 69.1675 93.8923 69.1675L93.8711 68.9834C93.9489 68.9763 95.7097 68.778 96.4805 70.0245L96.325 70.1237Z" fill="#201600"/>
<path d="M101.611 71.4481C100.833 70.3433 99.1433 70.6337 99.1291 70.6337L99.0938 70.4566C99.1645 70.4424 100.918 70.1379 101.76 71.3419L101.611 71.4481Z" fill="#201600"/>
<path d="M99.9541 72.4395C99.8551 72.7794 99.6005 73.0061 99.3954 72.9423C99.1833 72.8786 99.0984 72.5528 99.1974 72.2128C99.2964 71.8729 99.551 71.6462 99.7561 71.71C99.9682 71.7737 100.053 72.0995 99.9541 72.4395Z" fill="black"/>
<path d="M95.5316 71.2919C95.4467 71.639 95.1992 71.8727 94.9871 71.816C94.7749 71.7594 94.6759 71.4407 94.7608 71.0936C94.8456 70.7466 95.0931 70.5128 95.3053 70.5695C95.5174 70.6262 95.6164 70.9449 95.5316 71.2919Z" fill="black"/>
<path d="M97.0477 75.7824L96.0859 75.6124L96.1213 75.4354L96.8992 75.5699L97.5993 71.7524L97.7761 71.7879L97.0477 75.7824Z" fill="#201600"/>
<path d="M93.9119 76.5122C94.5484 77.8933 97.3275 78.1908 97.3558 78.1908L97.3346 78.3749C97.2144 78.3608 94.4211 78.0633 93.7422 76.5901L93.9119 76.5122Z" fill="#201600"/>
<path d="M102.711 71.3133C101.445 71.1291 100.66 68.5157 99.0122 67.0567C97.5272 65.4348 95.3562 64.4078 95.1652 63.1683C95.1299 62.5805 95.9007 61.9076 97.3079 61.8651C98.6728 61.8014 100.674 62.368 102.202 63.9191C103.779 65.4206 104.012 67.4675 103.955 68.8131C103.906 70.1942 103.305 71.3558 102.711 71.3204V71.3133Z" fill="#735846"/>
<path d="M99.9967 66.2708C99.4734 67.3544 97.4014 67.064 95.7183 67.7439C93.9504 68.1831 92.1259 70.4141 91.051 69.8475C90.556 69.5287 90.5701 67.6023 90.952 66.2495C91.3126 64.9251 92.6633 62.9278 94.3888 62.4108C96.0931 61.8229 97.8752 62.4533 98.9571 63.3173C100.082 64.1885 100.202 65.7325 99.9967 66.2778V66.2708Z" fill="#735846"/>
<path d="M92.8512 71.1648C92.4976 71.951 91.5783 72.3051 90.7933 71.951C90.0083 71.5968 89.6548 70.6761 90.0083 69.8899C90.3619 69.1038 91.2812 68.7496 92.0662 69.1038C92.8512 69.4579 93.2047 70.3786 92.8512 71.1648Z" fill="#F5B297"/>
<path d="M90.8237 69.7519L90.8047 69.9351L91.9231 70.0512L91.9421 69.868L90.8237 69.7519Z" fill="#201600"/>
<path d="M91.4448 72.05C91.4448 72.4042 91.1619 72.6875 90.8083 72.6875C90.4547 72.6875 90.1719 72.4042 90.1719 72.05C90.1719 71.6959 90.4547 71.4126 90.8083 71.4126C91.1619 71.4126 91.4448 71.6959 91.4448 72.05Z" fill="#DB5964"/>
<path d="M95.2451 73.7004C95.0753 74.0262 94.4884 74.0617 93.9439 73.7713C93.3923 73.4809 93.0882 72.9851 93.2579 72.6593C93.4276 72.3335 94.0146 72.2981 94.5591 72.5885C95.1107 72.8789 95.4148 73.3746 95.2451 73.7004Z" fill="#D19881"/>
<path d="M98.3672 74.4795C98.3672 74.8478 98.8622 75.1523 99.4845 75.1523C100.107 75.1523 100.609 74.8619 100.609 74.4936C100.609 74.1254 100.114 73.8208 99.4916 73.8208C98.8693 73.8208 98.3672 74.1112 98.3672 74.4795Z" fill="#D19881"/>
<path d="M81.0987 146.424H79.1398C79.1398 141.523 76.0565 137.535 72.2661 137.535C68.4757 137.535 65.3924 141.523 65.3924 146.424H63.4336C63.4336 143.57 64.3246 140.871 65.944 138.839C67.613 136.735 69.8618 135.581 72.2591 135.581C74.6564 135.581 76.9051 136.735 78.5741 138.839C80.1935 140.878 81.0845 143.57 81.0845 146.424H81.0987Z" fill="#F9ECAF"/>
<path d="M81.594 157.968C75.4275 159.059 69.1125 159.059 62.946 157.968C60.2234 157.487 58.5332 155.234 59.1202 153.237C59.5162 151.785 59.9122 150.326 60.3153 148.874C60.9023 146.863 63.0025 145.708 65.0533 146.07C69.8338 146.912 74.7274 146.912 79.5008 146.07C81.5445 145.716 83.6519 146.87 84.2388 148.874C84.6348 150.326 85.0308 151.785 85.4268 153.237C86.0138 155.242 84.3166 157.494 81.6011 157.968H81.594Z" fill="#DB5964"/>
<path d="M71.811 152.515C71.719 152.515 71.6342 152.508 71.5564 152.48C69.6895 151.941 63.1977 146.502 62.9219 146.275L63.0421 146.134C63.1128 146.19 69.7814 151.779 71.613 152.303C73.4092 152.82 80.8062 146.205 80.8839 146.134L81.0042 146.268C80.7072 146.53 74.0315 152.508 71.818 152.508L71.811 152.515Z" fill="#201600"/>
<path d="M72.9821 151.75H70.6484V153.223H72.9821V151.75Z" fill="black"/>
<path d="M115.953 86.2433C115.953 87.7448 117.983 91.5977 119.673 91.5977C121.363 91.5977 121.943 88.5451 121.943 87.0436C121.943 85.5421 120.705 85.0109 119.015 85.0109C117.325 85.0109 115.953 84.7418 115.953 86.2433Z" fill="#F5B297"/>
<path d="M115.82 80.1171L115.29 85.691C115.233 86.2576 114.604 89.4094 115.177 89.466C115.749 89.5227 117.291 86.4559 117.34 85.8893C117.34 85.8752 117.34 85.861 117.34 85.8469L117.63 80.2516C117.659 79.7488 117.27 79.3238 116.768 79.2955C116.28 79.2671 115.862 79.6354 115.813 80.1171H115.82Z" fill="#F5B297"/>
<path d="M119.499 83.9772L119.054 87.3697C118.997 87.8159 119.308 88.2267 119.761 88.2905C120.171 88.3471 120.553 88.0851 120.659 87.6885L121.543 84.3809C121.691 83.8214 121.359 83.2477 120.807 83.099C120.249 82.9502 119.676 83.2831 119.527 83.8355C119.513 83.878 119.506 83.9276 119.499 83.9701V83.9772Z" fill="#F5B297"/>
<path d="M117.496 83.5448L117.623 86.9656C117.638 87.4189 118.019 87.773 118.472 87.7518C118.889 87.7376 119.215 87.4118 119.257 87.0081L119.575 83.6014C119.632 83.0277 119.207 82.5178 118.635 82.4611C118.062 82.4045 117.553 82.8294 117.496 83.4031C117.496 83.4456 117.496 83.4952 117.496 83.5377V83.5448Z" fill="#F5B297"/>
<path d="M119.857 88.3895C119.815 88.3895 119.779 88.3895 119.737 88.3824C119.496 88.3541 119.284 88.2266 119.136 88.0354C118.987 87.8442 118.924 87.6033 118.952 87.3625L119.397 83.97C119.397 83.9204 119.412 83.8708 119.426 83.8213C119.489 83.5804 119.624 83.3751 119.822 83.2192L119.935 83.3609C119.772 83.4884 119.659 83.6654 119.602 83.8638C119.588 83.9062 119.581 83.9487 119.581 83.9842L119.136 87.3767C119.107 87.5679 119.164 87.7592 119.277 87.915C119.39 88.0708 119.567 88.17 119.758 88.1912C120.119 88.2408 120.458 88.0071 120.557 87.66L120.734 87.7096C120.628 88.1133 120.26 88.3824 119.857 88.3824V88.3895Z" fill="black"/>
<path d="M118.373 87.8088C118.204 87.8088 118.062 87.7663 117.935 87.6743C117.447 87.3272 117.511 86.4348 117.511 86.3994L117.694 86.4136C117.694 86.4136 117.638 87.2422 118.041 87.5255C118.239 87.6672 118.536 87.653 118.918 87.483L118.996 87.653C118.769 87.7522 118.564 87.8088 118.38 87.8088H118.373Z" fill="black"/>
<path d="M115.081 88.1558L115.746 85.6981L115.816 85.4432C115.845 85.3228 115.923 85.2236 116.022 85.1599L116.128 85.089L118.341 83.6725C118.73 83.4246 119.267 83.5025 119.529 83.8921C119.798 84.2887 119.685 84.8341 119.289 85.089L117.436 86.2718L117.457 88.4957C117.457 88.602 117.443 88.7153 117.415 88.8286C117.238 89.4873 116.149 90.4859 115.498 90.2947C114.855 90.1106 114.911 88.8003 115.081 88.1487V88.1558Z" fill="#F5B297"/>
<path d="M117.364 88.5028L117.343 86.2293L119.238 85.0182C119.415 84.9049 119.528 84.7349 119.571 84.5295C119.613 84.3241 119.571 84.1187 119.45 83.9487C119.224 83.6159 118.743 83.5238 118.39 83.7575L116.07 85.2448C115.985 85.3015 115.929 85.3794 115.9 85.4715L115.674 86.3001L115.052 88.4462L114.875 88.3966L115.724 85.4219C115.759 85.2803 115.851 85.1599 115.971 85.0819L118.291 83.5946C118.729 83.3113 119.323 83.4246 119.606 83.8354C119.747 84.0479 119.804 84.3029 119.747 84.5578C119.698 84.8128 119.549 85.0253 119.33 85.1599L117.52 86.3214L117.541 88.4957H117.357L117.364 88.5028Z" fill="black"/>
<path d="M117.551 83.4924L117.367 83.4937L117.373 84.3223L117.557 84.321L117.551 83.4924Z" fill="black"/>
<path d="M102.851 89.4587L111.344 96.9379L114.187 88.6372L122.397 88.0635L120.24 106.351C120.297 107.165 120.113 108.001 119.66 108.759C118.493 110.706 115.969 111.33 114.024 110.161L113.699 109.963L95.7578 99.1477L102.837 89.4587H102.851Z" fill="#72A15C"/>
<path d="M102.757 89.225L97.651 85.5137L96.1872 88.3538C94.9143 90.8327 91.2582 90.4219 90.5581 87.7306L89.4903 83.6439C89.4903 83.6439 89.4408 83.6227 89.4196 83.6156C89.1579 83.5023 82.3337 85.6908 82.3337 85.6908C78.9818 86.909 76.2238 89.3737 74.6398 92.575C71.309 99.2964 65.8355 110.423 65.8355 110.423L65.6799 110.728C65.2273 111.641 65.1071 112.718 65.4395 113.766C66.1184 115.905 72.7304 113.964 74.866 113.292L76.5491 110.664L76.2309 114.821L95.2183 119.453L100.176 105.911L102.396 101.23L106.809 95.8613C106.257 93.262 104.829 90.9177 102.764 89.2321L102.757 89.225Z" fill="#72A15C"/>
<path d="M98.3672 108.022C98.3672 108.022 99.1168 107.64 99.9583 106.903C101.528 105.515 103.395 102.866 101.252 99.0698L98.3672 108.022Z" fill="#72A15C"/>
<path d="M110.853 96.3759L110.758 96.5332L113.959 98.485L114.055 98.3277L110.853 96.3759Z" fill="#201600"/>
<path d="M81.0187 102.505L74.9219 113.013L75.0808 113.106L81.1777 102.597L81.0187 102.505Z" fill="#201600"/>
<path d="M120.999 85.429L120.32 87.8937C120.228 88.2195 120.419 88.5595 120.744 88.6444C121.041 88.7294 121.352 88.5736 121.473 88.2974L122.47 85.946C122.639 85.5494 122.456 85.089 122.06 84.9261C121.664 84.7561 121.204 84.9403 121.041 85.3369C121.027 85.3652 121.013 85.4006 121.006 85.436L120.999 85.429Z" fill="#F5B297"/>
<path d="M120.905 88.7505C120.841 88.7505 120.778 88.7434 120.721 88.7222C120.537 88.6726 120.389 88.5522 120.297 88.3893C120.205 88.2264 120.184 88.0351 120.233 87.8581L120.912 85.3933C120.912 85.3933 120.933 85.3154 120.947 85.2871L121.117 85.3579C121.117 85.3579 121.096 85.4146 121.089 85.4429L120.41 87.9006C120.374 88.0351 120.389 88.1768 120.459 88.2972C120.53 88.4176 120.636 88.5026 120.77 88.5451C121.018 88.6159 121.287 88.4884 121.386 88.2476L122.036 86.7107L122.206 86.7815L121.555 88.3184C121.442 88.5805 121.188 88.7434 120.905 88.7434V88.7505Z" fill="black"/>
<path d="M76.4053 134.957C76.6669 136.763 74.8142 138.222 72.6078 138.541C70.4014 138.86 68.4072 137.656 68.1456 135.85C67.8839 134.044 69.4609 132.322 71.6673 132.004C73.8736 131.685 76.1507 133.151 76.4124 134.957H76.4053Z" fill="#F5B297"/>
<path d="M70.1592 135.892L70.3643 139.03C70.3926 139.462 70.0673 139.83 69.6359 139.859C69.2399 139.887 68.9004 139.611 68.8227 139.235L68.1933 136.154C68.0801 135.616 68.4266 135.085 68.9712 134.972C69.5086 134.858 70.039 135.205 70.1521 135.751C70.1592 135.793 70.1663 135.843 70.1733 135.885L70.1592 135.892Z" fill="#F5B297"/>
<path d="M72.1677 135.552L72.4576 138.754C72.5071 139.285 72.1111 139.76 71.5807 139.809C71.0786 139.852 70.6261 139.497 70.5412 139.009L69.9896 135.843C69.8835 135.241 70.2866 134.667 70.8877 134.561C71.4888 134.455 72.0616 134.858 72.1677 135.46C72.1677 135.489 72.1747 135.524 72.1818 135.552H72.1677Z" fill="#F5B297"/>
<path d="M74.1745 135.659L74.125 138.47C74.1179 138.973 73.7007 139.377 73.1986 139.363C72.7318 139.356 72.35 138.987 72.3075 138.527L72.0742 135.722C72.0247 135.142 72.4561 134.632 73.0359 134.582C73.6158 134.532 74.125 134.964 74.1745 135.545C74.1745 135.581 74.1745 135.616 74.1745 135.651V135.659Z" fill="#F5B297"/>
<path d="M76.1223 135.404L75.9455 138.626C75.9172 139.136 75.4788 139.533 74.9696 139.504C74.4958 139.476 74.121 139.094 74.0927 138.626L73.9159 135.404C73.8806 134.795 74.3473 134.278 74.9555 134.242C75.5636 134.207 76.0799 134.674 76.1152 135.283C76.1152 135.326 76.1152 135.361 76.1152 135.404H76.1223Z" fill="#F5B297"/>
<path d="M74.1917 138.626L74.0078 138.619L74.0856 135.928L74.2695 135.935L74.1917 138.626Z" fill="black"/>
<path d="M72.4376 136.238L72.2539 136.246L72.3632 138.857L72.5469 138.85L72.4376 136.238Z" fill="black"/>
<path d="M70.2134 136.593L70.0312 136.619L70.3415 138.864L70.5236 138.838L70.2134 136.593Z" fill="black"/>
<path d="M76.0317 134.588L75.9844 136.245L76.1682 136.25L76.2155 134.594L76.0317 134.588Z" fill="black"/>
<path d="M74.8622 113.277L75.9513 134.1L68.0734 134.936L65.3438 113.412L74.8622 113.277Z" fill="#72A15C"/>
<path d="M90.0874 84.2461C90.0874 84.6994 89.7197 85.0606 89.2742 85.0606C88.8287 85.0606 88.4609 84.6923 88.4609 84.2461C88.4609 83.7999 88.8287 83.4316 89.2742 83.4316C89.7197 83.4316 90.0874 83.7999 90.0874 84.2461Z" fill="#DB5964"/>
<path d="M90.6499 85.7266C90.6499 86.1799 90.2822 86.5411 89.8367 86.5411C89.3912 86.5411 89.0234 86.1728 89.0234 85.7266C89.0234 85.2804 89.3912 84.9121 89.8367 84.9121C90.2822 84.9121 90.6499 85.2804 90.6499 85.7266Z" fill="#DB5964"/>
<path d="M91.1695 87.2066C91.1695 87.6599 90.8017 88.0211 90.3562 88.0211C89.9107 88.0211 89.543 87.6528 89.543 87.2066C89.543 86.7604 89.9107 86.3921 90.3562 86.3921C90.8017 86.3921 91.1695 86.7604 91.1695 87.2066Z" fill="#DB5964"/>
<path d="M91.982 88.4463C91.982 88.8996 91.6142 89.2608 91.1687 89.2608C90.7232 89.2608 90.3555 88.8925 90.3555 88.4463C90.3555 88.0001 90.7232 87.6318 91.1687 87.6318C91.6142 87.6318 91.982 88.0001 91.982 88.4463Z" fill="#DB5964"/>
<path d="M93.0484 89.4732C93.0484 89.9265 92.6806 90.2877 92.2351 90.2877C91.7896 90.2877 91.4219 89.9194 91.4219 89.4732C91.4219 89.027 91.7896 88.6587 92.2351 88.6587C92.6806 88.6587 93.0484 89.027 93.0484 89.4732Z" fill="#DB5964"/>
<path d="M94.5562 89.7774C94.5562 90.2307 94.1884 90.5919 93.7429 90.5919C93.2974 90.5919 92.9297 90.2236 92.9297 89.7774C92.9297 89.3312 93.2974 88.9629 93.7429 88.9629C94.1884 88.9629 94.5562 89.3312 94.5562 89.7774Z" fill="#DB5964"/>
<path d="M96.0132 89.2608C96.0132 89.7141 95.6455 90.0753 95.2 90.0753C94.7544 90.0753 94.3867 89.707 94.3867 89.2608C94.3867 88.8146 94.7544 88.4463 95.2 88.4463C95.6455 88.4463 96.0132 88.8146 96.0132 89.2608Z" fill="#DB5964"/>
<path d="M97.1382 88.354C97.1382 88.8073 96.7705 89.1685 96.325 89.1685C95.8794 89.1685 95.5117 88.8002 95.5117 88.354C95.5117 87.9078 95.8794 87.5396 96.325 87.5396C96.7705 87.5396 97.1382 87.9078 97.1382 88.354Z" fill="#DB5964"/>
<path d="M98.1655 87.5113C98.1655 87.9646 97.7978 88.3258 97.3523 88.3258C96.9068 88.3258 96.5391 87.9575 96.5391 87.5113C96.5391 87.0651 96.9068 86.6968 97.3523 86.6968C97.7978 86.6968 98.1655 87.0651 98.1655 87.5113Z" fill="#DB5964"/>
<path d="M98.7515 86.2647C98.7515 86.718 98.3838 87.0792 97.9382 87.0792C97.4927 87.0792 97.125 86.7109 97.125 86.2647C97.125 85.8185 97.4927 85.4502 97.9382 85.4502C98.3838 85.4502 98.7515 85.8185 98.7515 86.2647Z" fill="#DB5964"/>
<path d="M124.952 180.031L124.86 203.807L118.927 205.308L117.039 180.229L124.952 180.031Z" fill="#F5B297"/>
<path d="M124.546 203.842C122.17 204.395 119.666 204.685 117.106 204.664C116.533 204.664 116.045 205.053 116.024 205.57C116.003 206.038 116.42 206.442 116.965 206.512C119.709 206.874 122.516 206.916 125.288 206.626C126.271 206.512 125.592 203.715 124.765 203.807C124.694 203.814 124.609 203.828 124.546 203.842Z" fill="#A2C096"/>
<path d="M132.27 180.342L132.39 188.997L132.15 187.914L136.704 201.236L131.429 203.339L125.587 190.534L125.425 190.18L125.34 189.45L124.371 180.845L132.27 180.342Z" fill="#F5B297"/>
<path d="M135.981 200.124C134.036 201.597 131.865 202.879 129.517 203.906C128.994 204.133 128.704 204.699 128.895 205.174C129.065 205.606 129.609 205.811 130.14 205.649C132.791 204.862 135.373 203.757 137.791 202.362C138.64 201.859 136.886 199.579 136.165 199.997C136.101 200.032 136.03 200.082 135.974 200.124H135.981Z" fill="#A2C096"/>
<path d="M138.674 181.285C129.821 183.53 120.203 182.304 111.328 178.43C112.615 176.419 113.945 173.671 115.281 170.342C121.554 169.712 127.826 168.94 134.113 168.302C135.662 172.75 137.203 177.184 138.681 181.285H138.674Z" fill="#A2C096"/>
<path d="M124.951 146.658C122.257 146.63 119.789 149.533 118.014 153.79C116.239 158.089 115.157 163.748 115.164 170.207C121.507 172.382 128.395 172.382 134.739 170.207C134.739 163.748 133.664 158.089 131.889 153.79C130.114 149.533 127.653 146.63 124.951 146.658Z" fill="#FFB243"/>
<path d="M145.05 162.565C145.58 163.294 145.283 164.484 144.392 165.228C143.501 165.972 142.348 165.986 141.818 165.263C141.288 164.534 141.585 163.344 142.476 162.6C143.367 161.857 144.519 161.843 145.05 162.565Z" fill="#F5B297"/>
<path d="M145.438 162.508C145.53 162.678 145.629 162.87 145.735 163.047C145.841 163.224 145.947 163.401 146.061 163.571C146.174 163.741 146.287 163.904 146.4 164.052L146.485 164.159L146.57 164.251C146.57 164.251 146.619 164.3 146.648 164.329H146.655V164.343H146.669C146.669 164.343 146.683 164.364 146.697 164.378L146.839 164.52C147.044 164.725 147.044 165.065 146.839 165.263C146.669 165.433 146.414 165.462 146.216 165.348L146.103 165.285L146.046 165.249L146.018 165.235L145.997 165.221C145.94 165.178 145.877 165.136 145.827 165.093L145.679 164.966L145.544 164.839C145.375 164.661 145.219 164.491 145.071 164.314C144.922 164.137 144.788 163.96 144.653 163.776C144.519 163.592 144.392 163.415 144.257 163.217C144.045 162.898 144.13 162.473 144.448 162.26C144.767 162.048 145.191 162.133 145.403 162.452C145.417 162.473 145.431 162.494 145.438 162.515V162.508Z" fill="#F5B297"/>
<path d="M144.963 163.337L146.292 165.837C146.412 166.071 146.327 166.354 146.094 166.482C145.882 166.595 145.627 166.531 145.493 166.347L143.796 164.074C143.569 163.769 143.633 163.337 143.937 163.11C144.241 162.884 144.673 162.947 144.899 163.252C144.92 163.28 144.941 163.309 144.955 163.337H144.963Z" fill="#F5B297"/>
<path d="M144.433 164.166L145.395 166.857C145.48 167.105 145.352 167.374 145.112 167.466C144.886 167.544 144.645 167.445 144.532 167.247L143.174 164.732C142.99 164.399 143.118 163.982 143.45 163.797C143.782 163.613 144.2 163.741 144.384 164.074C144.398 164.102 144.412 164.137 144.426 164.166H144.433Z" fill="#F5B297"/>
<path d="M144.112 164.725L144.034 167.622C144.027 167.884 143.808 168.089 143.546 168.082C143.306 168.082 143.115 167.898 143.087 167.665L142.74 164.789C142.691 164.414 142.966 164.067 143.341 164.017C143.716 163.967 144.063 164.244 144.112 164.619C144.112 164.654 144.112 164.69 144.112 164.718V164.725Z" fill="#F5B297"/>
<path d="M142.897 165.129C142.89 165.2 142.882 165.243 142.875 165.299L142.847 165.455C142.826 165.554 142.805 165.653 142.776 165.76C142.727 165.958 142.663 166.163 142.585 166.362C142.508 166.567 142.409 166.772 142.253 166.971C142.175 167.07 142.09 167.176 141.97 167.268C141.857 167.36 141.716 167.445 141.553 167.488C141.32 167.551 141.072 167.417 141.008 167.183C140.966 167.027 141.008 166.872 141.115 166.758L141.256 166.609C141.256 166.609 141.284 166.574 141.305 166.546C141.327 166.517 141.348 166.468 141.369 166.418C141.412 166.312 141.454 166.17 141.475 166.022C141.503 165.873 141.518 165.717 141.525 165.554C141.525 165.476 141.525 165.391 141.525 165.313V165.193C141.525 165.158 141.525 165.108 141.518 165.087C141.454 164.704 141.716 164.35 142.097 164.286C142.479 164.223 142.833 164.485 142.897 164.867C142.904 164.931 142.911 164.995 142.897 165.051V165.136V165.129Z" fill="#F5B297"/>
<path d="M128.536 148.287L128.621 148.308L128.677 148.322L128.784 148.35L128.982 148.407C129.109 148.442 129.229 148.478 129.349 148.513C129.47 148.549 129.59 148.584 129.703 148.627C129.823 148.662 129.936 148.704 130.049 148.74C130.502 148.896 130.947 149.059 131.386 149.236C132.256 149.583 133.104 149.965 133.939 150.39C134.766 150.815 135.579 151.268 136.371 151.771C137.163 152.267 137.934 152.805 138.67 153.386C139.405 153.967 140.127 154.576 140.805 155.249C141.477 155.915 142.128 156.609 142.715 157.359L142.941 157.636C143.012 157.728 143.082 157.827 143.153 157.919L143.578 158.493L143.974 159.088C144.037 159.187 144.108 159.286 144.172 159.385L144.355 159.69C144.476 159.895 144.603 160.1 144.716 160.306L145.048 160.936C145.105 161.042 145.162 161.149 145.211 161.255L145.36 161.581L145.657 162.225L140.671 164.725L140.388 164.286L140.247 164.067C140.197 163.996 140.148 163.925 140.098 163.854L139.801 163.436C139.695 163.302 139.589 163.167 139.483 163.033L139.32 162.834C139.264 162.77 139.207 162.707 139.151 162.643L138.811 162.253L138.451 161.885C138.394 161.821 138.33 161.758 138.274 161.701L138.083 161.524C137.588 161.042 137.05 160.61 136.499 160.192C135.947 159.775 135.36 159.399 134.759 159.045C134.158 158.691 133.529 158.372 132.892 158.082C132.249 157.791 131.598 157.529 130.926 157.296C130.262 157.062 129.583 156.864 128.904 156.694C128.564 156.609 128.225 156.531 127.893 156.467C127.808 156.453 127.73 156.432 127.645 156.417C127.56 156.403 127.482 156.389 127.405 156.375C127.327 156.361 127.249 156.354 127.178 156.339L127.079 156.325C127.079 156.325 127.051 156.325 127.037 156.325H127.016H127.023L128.515 148.287H128.536Z" fill="#FFB243"/>
<path d="M119.836 155.589L119.751 155.568L119.701 155.554L119.602 155.525L119.418 155.469C119.305 155.433 119.185 155.391 119.079 155.355C118.966 155.32 118.86 155.277 118.754 155.242C118.648 155.207 118.541 155.164 118.435 155.122C118.018 154.966 117.608 154.796 117.205 154.619C116.399 154.265 115.621 153.882 114.864 153.457C114.1 153.039 113.358 152.579 112.644 152.09C111.922 151.602 111.222 151.077 110.55 150.511C109.879 149.944 109.228 149.349 108.62 148.705C108.012 148.06 107.432 147.394 106.901 146.672L106.703 146.403C106.64 146.311 106.576 146.219 106.513 146.127L106.138 145.574L105.784 145.008C105.728 144.916 105.664 144.816 105.614 144.724L105.452 144.434C105.346 144.236 105.24 144.044 105.134 143.846L104.844 143.244C104.794 143.145 104.745 143.046 104.702 142.947L104.575 142.642L104.32 142.033L109.051 139.866L109.299 140.284L109.419 140.489C109.461 140.56 109.511 140.624 109.553 140.687L109.822 141.091C109.914 141.218 110.013 141.346 110.105 141.481L110.246 141.672C110.296 141.736 110.345 141.799 110.402 141.856L110.706 142.224L111.031 142.578C111.088 142.635 111.137 142.699 111.194 142.755L111.364 142.925C111.809 143.386 112.297 143.811 112.792 144.214C113.294 144.618 113.832 144.986 114.376 145.341C114.928 145.688 115.501 146.006 116.088 146.304C116.675 146.594 117.283 146.863 117.891 147.104C118.506 147.345 119.128 147.55 119.758 147.734C120.069 147.827 120.387 147.904 120.691 147.975C120.769 147.997 120.847 148.011 120.918 148.025C120.995 148.039 121.066 148.06 121.144 148.067C121.222 148.082 121.285 148.096 121.356 148.11L121.448 148.124C121.448 148.124 121.476 148.124 121.483 148.124H121.497H121.49L119.836 155.575V155.589Z" fill="#FFB243"/>
<path d="M107.295 136.402C107.26 136.402 107.224 136.381 107.21 136.338L105.089 130.297L102.013 129.412C101.963 129.398 101.935 129.348 101.949 129.298C101.963 129.249 102.013 129.22 102.062 129.235L105.23 130.148L107.38 136.275C107.394 136.324 107.373 136.374 107.323 136.395C107.316 136.395 107.302 136.395 107.295 136.395V136.402Z" fill="#D24A43"/>
<path d="M108.971 133.803H104.664V142.55H108.971V133.803Z" fill="#00CEA8"/>
<path d="M104.898 138.045C105.902 137.918 106.687 138.959 106.85 140.184C107.005 141.409 106.326 142.514 105.322 142.642C104.318 142.769 103.378 141.884 103.222 140.659C103.066 139.433 103.894 138.18 104.898 138.052V138.045Z" fill="#F5B297"/>
<path d="M105.354 141.516L107.094 141.431C107.334 141.417 107.532 141.601 107.546 141.842C107.56 142.061 107.405 142.253 107.193 142.288L105.481 142.614C105.184 142.67 104.894 142.472 104.838 142.175C104.781 141.877 104.979 141.587 105.276 141.53C105.297 141.53 105.326 141.523 105.354 141.523V141.516Z" fill="#F5B297"/>
<path d="M105.184 140.397L106.959 140.262C107.256 140.241 107.511 140.46 107.539 140.758C107.56 141.041 107.362 141.289 107.087 141.332L105.326 141.615C104.993 141.672 104.675 141.438 104.626 141.105C104.569 140.772 104.802 140.453 105.135 140.404C105.149 140.404 105.17 140.404 105.184 140.404V140.397Z" fill="#F5B297"/>
<path d="M105.266 139.285L106.821 139.341C107.097 139.348 107.317 139.582 107.309 139.865C107.302 140.127 107.09 140.333 106.836 140.354L105.28 140.46C104.955 140.482 104.679 140.241 104.658 139.915C104.636 139.589 104.877 139.313 105.202 139.292C105.223 139.292 105.245 139.292 105.266 139.292V139.285Z" fill="#F5B297"/>
<path d="M105.135 138.201L106.917 138.328C107.2 138.35 107.412 138.59 107.391 138.874C107.369 139.136 107.157 139.341 106.896 139.348L105.114 139.419C104.774 139.433 104.491 139.171 104.477 138.831C104.463 138.491 104.725 138.208 105.064 138.194C105.085 138.194 105.106 138.194 105.128 138.194L105.135 138.201Z" fill="#F5B297"/>
<path d="M105.414 139.189L105.406 139.373L106.897 139.44L106.905 139.256L105.414 139.189Z" fill="black"/>
<path d="M107.005 140.177L105.562 140.214L105.567 140.398L107.009 140.361L107.005 140.177Z" fill="black"/>
<path d="M106.985 141.302L105.742 141.454L105.764 141.637L107.007 141.485L106.985 141.302Z" fill="black"/>
<path d="M105.595 138.329L104.676 138.286L104.683 138.102L105.602 138.145L105.595 138.329Z" fill="black"/>
<path d="M128.14 148.379C126.068 149.052 123.826 149.052 121.754 148.379C122.157 147.125 122.567 145.872 122.97 144.618C124.25 145.036 125.636 145.036 126.916 144.618C127.319 145.872 127.729 147.125 128.133 148.379H128.14Z" fill="#F5B297"/>
<path d="M121.754 148.379C121.754 148.379 125.764 144.816 126.994 144.859L123.006 144.427L121.754 148.379Z" fill="#D19881"/>
<path d="M113.425 131.253C113.206 132.436 113.404 133.484 113.871 133.76C114.019 133.774 114.168 133.781 114.33 133.789C115.186 133.831 116.268 133.824 117.47 133.668C118.481 133.548 119.677 133.534 120.829 133.753C120.985 133.781 121.14 133.817 121.296 133.852C121.452 133.895 121.6 133.937 121.749 133.987C122.187 134.128 122.604 134.306 123 134.539C123.071 134.582 123.142 134.617 123.212 134.638C123.792 134.851 124.301 134.476 124.309 133.767C124.309 133.548 124.266 133.3 124.16 133.031C124.146 132.988 124.125 132.946 124.111 132.903C123.559 131.727 122.654 130.431 121.459 129.532C120.278 128.625 118.8 128.108 117.414 128.229C116.303 128.328 115.384 128.661 114.642 129.1C114.535 129.164 114.429 129.234 114.33 129.298C113.941 129.652 113.588 130.375 113.425 131.246V131.253Z" fill="#94765A"/>
<path d="M122.647 133.973C123.396 133.845 123.983 133.449 124.174 133.002C124.273 133.109 124.337 133.236 124.358 133.371C124.457 133.966 123.757 134.582 122.781 134.752C121.805 134.922 120.935 134.575 120.836 133.98C120.815 133.845 120.836 133.704 120.886 133.569C121.211 133.93 121.897 134.1 122.647 133.973Z" fill="#D24A43"/>
<path d="M119.824 138.76C119.979 138.52 119.873 137.769 120.128 136.827C120.347 135.892 120.969 134.815 121.881 134.086C123.692 132.613 125.693 132.719 126.931 132.138C127.489 131.876 127.638 131.189 126.464 130.637C125.403 130.077 123.239 130.091 121.224 132.039C119.166 133.966 118.961 136.423 119.3 137.549C119.654 138.768 119.71 138.966 119.824 138.753V138.76Z" fill="#94765A"/>
<path d="M131.964 139.228L130.43 141.799V138.619L131.964 139.228Z" fill="#94765A"/>
<path d="M119.088 137.889C119.046 138.583 119.569 139.185 120.262 139.228C120.955 139.278 121.556 138.746 121.599 138.052C121.641 137.358 121.118 136.756 120.425 136.714C119.732 136.664 119.131 137.195 119.088 137.889Z" fill="#F5B297"/>
<path d="M121.011 137.468L119.555 137.825L119.598 138.004L121.055 137.647L121.011 137.468Z" fill="black"/>
<path d="M131.169 139.67C131.835 136.106 129.847 132.743 126.73 132.16C123.612 131.576 120.546 133.992 119.881 137.557C119.215 141.121 121.203 144.483 124.32 145.067C127.437 145.651 130.504 143.235 131.169 139.67Z" fill="#F5B297"/>
<path d="M131.541 139.221C131.223 139.193 130.996 138.52 130.53 137.762C130.077 136.99 129.391 136.14 128.557 135.418C126.973 134.001 125.099 133.08 125.07 131.543C125.092 130.842 125.898 130.177 127.164 130.247C128.394 130.297 130.084 131.09 131.18 132.698C132.333 134.277 132.545 136.105 132.418 137.33C132.29 138.591 131.817 139.242 131.541 139.207V139.221Z" fill="#94765A"/>
<path d="M132.455 138.229C132.455 138.924 131.889 139.49 131.196 139.49C130.503 139.49 129.938 138.924 129.938 138.229C129.938 137.535 130.503 136.969 131.196 136.969C131.889 136.969 132.455 137.535 132.455 138.229Z" fill="#F5B297"/>
<path d="M130.555 137.673L130.5 137.849L131.93 138.3L131.985 138.125L130.555 137.673Z" fill="black"/>
<path d="M139.5 135.311C139.019 136.416 138.269 137.174 137.725 137.139C137.597 137.068 137.463 136.99 137.329 136.905C136.593 136.459 135.709 135.85 134.797 135.049C134.026 134.383 133.043 133.704 131.968 133.236C131.82 133.172 131.671 133.116 131.523 133.059C131.374 133.002 131.226 132.953 131.07 132.91C130.632 132.783 130.179 132.698 129.72 132.67C129.635 132.67 129.564 132.655 129.486 132.634C128.885 132.485 128.673 131.89 129.069 131.296C129.189 131.111 129.366 130.934 129.606 130.764C129.642 130.736 129.684 130.715 129.72 130.686C130.837 130.021 132.308 129.447 133.8 129.376C135.285 129.284 136.798 129.688 137.88 130.566C138.743 131.274 139.316 132.068 139.691 132.84C139.747 132.953 139.797 133.066 139.839 133.179C139.966 133.689 139.853 134.49 139.5 135.304V135.311Z" fill="#94765A"/>
<path d="M130.334 132.4C129.782 131.876 129.52 131.218 129.612 130.743C129.471 130.779 129.351 130.842 129.252 130.941C128.834 131.381 129.075 132.287 129.789 132.967C130.503 133.654 131.416 133.852 131.833 133.42C131.932 133.321 131.988 133.194 132.017 133.052C131.55 133.165 130.878 132.925 130.334 132.4Z" fill="#FFB243"/>
<path d="M137.454 136.345L137.277 136.31C137.864 133.243 139.123 133.165 139.18 133.158V133.342C139.18 133.342 138.006 133.442 137.454 136.345Z" fill="black"/>
<path d="M120.043 133.668L119.859 133.64C119.874 133.562 120.199 131.798 123.077 130.658L123.148 130.828C120.361 131.933 120.043 133.654 120.043 133.668Z" fill="black"/>
<path d="M122.508 136.395C122.445 136.735 122.24 136.976 122.049 136.94C121.858 136.905 121.752 136.6 121.815 136.268C121.879 135.928 122.084 135.687 122.275 135.722C122.466 135.758 122.572 136.062 122.508 136.395Z" fill="black"/>
<path d="M127.665 137.358C127.601 137.691 127.396 137.939 127.205 137.904C127.014 137.868 126.908 137.564 126.972 137.231C127.035 136.891 127.24 136.65 127.431 136.686C127.622 136.721 127.728 137.026 127.665 137.358Z" fill="black"/>
<path d="M125.002 139.08C124.606 138.527 124.231 138.272 123.884 138.315C123.382 138.378 123.099 139.051 123.099 139.058L122.93 138.988C122.93 138.988 123.255 138.201 123.863 138.131C124.28 138.081 124.712 138.364 125.15 138.973L125.002 139.08Z" fill="black"/>
<path d="M128.381 135.935C127.914 135.233 126.995 135.148 126.98 135.148L126.995 134.964C127.037 134.964 128.013 135.056 128.529 135.828L128.374 135.928L128.381 135.935Z" fill="black"/>
<path d="M121.585 135.205L121.43 135.106C121.946 134.334 122.922 134.242 122.964 134.242L122.978 134.426C122.978 134.426 122.045 134.518 121.578 135.213L121.585 135.205Z" fill="black"/>
<path d="M125.883 141.41L126.011 141.544C125.961 141.594 124.717 142.77 122.086 141.92L122.143 141.743C124.66 142.55 125.869 141.424 125.883 141.41Z" fill="black"/>
<path d="M127.759 139.639C127.681 139.922 127.243 140.057 126.783 139.93C126.323 139.802 126.012 139.469 126.09 139.186C126.168 138.903 126.606 138.768 127.066 138.895C127.526 139.023 127.837 139.356 127.759 139.639Z" fill="#D19881"/>
<path d="M122.114 138.456C122.037 138.739 121.598 138.874 121.139 138.746C120.679 138.619 120.368 138.286 120.446 138.003C120.523 137.719 120.962 137.585 121.421 137.712C121.881 137.84 122.192 138.173 122.114 138.456Z" fill="#D19881"/>
<path d="M122.894 149.746C124.011 150.001 124.98 149.371 124.895 148.769C123.714 148.903 122.583 148.641 121.656 148.096C121.317 148.584 121.777 149.484 122.894 149.739V149.746Z" fill="white"/>
<path d="M126.721 149.838C127.852 149.661 128.517 148.712 128.22 148.188C127.174 148.754 126.028 148.931 124.967 148.768C124.84 149.349 125.589 150.015 126.728 149.831L126.721 149.838Z" fill="white"/>
</g>
<defs>
<clipPath id="clip0_1693_11004">
<rect width="226" height="208" fill="white"/>
</clipPath>
<clipPath id="clip1_1693_11004">
<rect width="88" height="146" fill="white" transform="translate(59 61.8511)"/>
</clipPath>
</defs>
</svg>
