<svg width="226" height="208" viewBox="0 0 226 208" fill="none" xmlns="http://www.w3.org/2000/svg">
<g clip-path="url(#clip0_1693_11394)">
<path opacity="0.4" d="M215.547 41.1934H10.4492V185.194H215.547V41.1934Z" fill="#DDE2FE"/>
<path d="M220.121 11.8721H214.242V208H220.121V11.8721Z" fill="#97A0E7"/>
<path d="M216.855 11.8721H214.242V208H216.855V11.8721Z" fill="#7380DA"/>
<path d="M11.1052 11.8721H5.22656V208H11.1052V11.8721Z" fill="#97A0E7"/>
<path d="M7.83928 11.8721H5.22656V208H7.83928V11.8721Z" fill="#7380DA"/>
<path d="M13.7173 13.1753H2.61328L5.226 17.7364H11.1046L13.7173 13.1753Z" fill="#5062CF"/>
<path d="M222.733 13.1753H211.629L214.242 17.7364H220.12L222.733 13.1753Z" fill="#5062CF"/>
<path d="M205.097 50.3154H150.883V117.429H205.097V50.3154Z" fill="#FFFFFA"/>
<path d="M190.728 75.0762H183.543V75.7278H190.728V75.0762Z" fill="#B2B2B2"/>
<path d="M190.728 77.0308H183.543V77.6823H190.728V77.0308Z" fill="#B2B2B2"/>
<path d="M190.728 78.9854H183.543V79.6369H190.728V78.9854Z" fill="#B2B2B2"/>
<path d="M169.173 67.9087H161.988V68.5603H169.173V67.9087Z" fill="#B2B2B2"/>
<path d="M169.173 69.8633H161.988V70.5149H169.173V69.8633Z" fill="#B2B2B2"/>
<path d="M169.173 71.8179H161.988V72.4695H169.173V71.8179Z" fill="#B2B2B2"/>
<path d="M205.097 50.3154H150.883V56.1797H205.097V50.3154Z" fill="#5062CF"/>
<path d="M203.138 100.488H195.953V101.139H203.138V100.488Z" fill="#B2B2B2"/>
<path d="M203.138 102.443H195.953V103.094H203.138V102.443Z" fill="#B2B2B2"/>
<path d="M203.138 104.397H195.953V105.049H203.138V104.397Z" fill="#B2B2B2"/>
<path d="M170.481 108.307H158.07V109.61H170.481V108.307Z" fill="#B2B2B2"/>
<path d="M170.481 104.397H158.07V105.701H170.481V104.397Z" fill="#B2B2B2"/>
<path d="M170.481 112.216H158.07V113.519H170.481V112.216Z" fill="#B2B2B2"/>
<path d="M156.091 105.31C156.091 105.811 155.679 106.222 155.176 106.222C154.673 106.222 154.262 105.811 154.262 105.31C154.262 104.808 154.673 104.397 155.176 104.397C155.679 104.397 156.091 104.808 156.091 105.31Z" fill="#FF5B79"/>
<path d="M156.091 108.959C156.091 109.46 155.679 109.871 155.176 109.871C154.673 109.871 154.262 109.46 154.262 108.959C154.262 108.457 154.673 108.046 155.176 108.046C155.679 108.046 156.091 108.457 156.091 108.959Z" fill="#F5C50F"/>
<path d="M156.091 112.608C156.091 113.109 155.679 113.52 155.176 113.52C154.673 113.52 154.262 113.109 154.262 112.608C154.262 112.106 154.673 111.695 155.176 111.695C155.679 111.695 156.091 112.106 156.091 112.608Z" fill="#3BC075"/>
<path d="M193.34 108.366V83.5465H172.438V63.9402C172.888 63.7056 173.202 63.2365 173.202 62.6957C173.202 61.9138 172.568 61.2817 171.785 61.2817C171.001 61.2817 170.367 61.9138 170.367 62.6957C170.367 63.2365 170.681 63.7056 171.131 63.9402V84.8497H192.033V108.366C191.582 108.6 191.269 109.069 191.269 109.61C191.269 110.392 191.903 111.024 192.686 111.024C193.47 111.024 194.104 110.392 194.104 109.61C194.104 109.069 193.79 108.6 193.34 108.366Z" fill="#FF5B79"/>
<path d="M193.339 65.1914C192.797 65.1914 192.327 65.5042 192.092 65.9538H180.929V97.23H174.397V107.062C173.946 107.297 173.633 107.766 173.633 108.307C173.633 109.089 174.266 109.721 175.05 109.721C175.834 109.721 176.468 109.089 176.468 108.307C176.468 107.766 176.154 107.297 175.703 107.062V98.5332H182.235V67.2569H192.092C192.327 67.7065 192.797 68.0193 193.339 68.0193C194.123 68.0193 194.757 67.3873 194.757 66.6054C194.757 65.8234 194.123 65.1914 193.339 65.1914Z" fill="#F5C50F"/>
<path d="M187.463 102.501V90.714H158.723V72.4109C159.174 72.1763 159.487 71.7072 159.487 71.1664C159.487 70.3845 158.854 69.7524 158.07 69.7524C157.286 69.7524 156.652 70.3845 156.652 71.1664C156.652 71.7072 156.966 72.1763 157.417 72.4109V92.0172H186.156V102.501C185.706 102.736 185.392 103.205 185.392 103.746C185.392 104.528 186.026 105.16 186.81 105.16C187.593 105.16 188.227 104.528 188.227 103.746C188.227 103.205 187.913 102.736 187.463 102.501Z" fill="#3BC075"/>
<path d="M226 6.00781H0V13.1753H226V6.00781Z" fill="#97A0E7"/>
<path d="M0 6.65923H226C226 6.65923 218.763 0 115.162 0C11.5613 0 0 6.65923 0 6.65923Z" fill="#5062CF"/>
<path d="M211.629 208H222.733L220.12 203.439H214.242L211.629 208Z" fill="#5062CF"/>
<path d="M2.61328 208H13.7173L11.1046 203.439H5.226L2.61328 208Z" fill="#5062CF"/>
<path d="M68.5833 41.1934L24.8203 185.194H41.4764L84.9128 41.1934H68.5833Z" fill="white"/>
<path d="M51.6016 185.194H63.0322L106.469 41.1934H95.3646L51.6016 185.194Z" fill="white"/>
<path d="M215.547 183.891H10.4492V187.149H215.547V183.891Z" fill="#5062CF"/>
<path d="M215.547 39.2388H10.4492V42.4967H215.547V39.2388Z" fill="#5062CF"/>
<path d="M190.729 168.905H186.156V208H190.729V168.905Z" fill="#E7E7E9"/>
<g style="mix-blend-mode:multiply" opacity="0.6">
<path d="M188.116 168.905H186.156V208H188.116V168.905Z" fill="#E7E7E9"/>
</g>
<path d="M40.498 168.905H35.9258V208H40.498V168.905Z" fill="#E7E7E9"/>
<g style="mix-blend-mode:multiply" opacity="0.6">
<path d="M37.8853 168.905H35.9258V208H37.8853V168.905Z" fill="#E7E7E9"/>
</g>
<path d="M195.301 163.041H27.4336V171.511H195.301V163.041Z" fill="#96C295"/>
<g style="mix-blend-mode:multiply" opacity="0.4">
<path d="M195.301 167.602H27.4336V171.511H195.301V167.602Z" fill="#369239"/>
</g>
</g>
<g clip-path="url(#clip1_1693_11394)">
<path d="M76.1799 202.054L66.4988 202.334L66.1953 191.902L75.2315 191.637L76.1799 202.054Z" fill="#F5B297"/>
<path d="M79.3908 201.925L76.1739 201.614C75.1876 202.024 67.3274 201.948 66.508 201.272L66.4169 200.734C65.8403 200.673 65.0664 201.614 65.0664 203.882V206.424H79.3832C80.6275 206.424 81.6366 205.415 81.6366 204.171C81.6366 202.926 80.6275 201.917 79.3832 201.917L79.3908 201.925Z" fill="black"/>
<path d="M73.6675 115.075L78.546 199.239L63.0304 200.339L56.0352 116.327L73.6675 115.075Z" fill="#94765A"/>
<path d="M54.098 190.604H45.5625V202.099H54.098V190.604Z" fill="#F5B297"/>
<path d="M61.0216 115.599L57.3191 200.999L41.7656 200.544L43.3513 115.075L61.0216 115.599Z" fill="#94765A"/>
<path d="M59.3889 157.495L59.1992 157.487L60.6787 121.441L63.7363 120.895L63.7742 121.084L60.8684 121.608L59.3889 157.495Z" fill="black"/>
<path d="M56.9401 203.7C56.9401 203.7 55.544 201.826 54.3984 201.522C53.4576 201.871 52.0464 202.107 49.8461 202.107C47.6459 202.107 46.2347 201.871 45.2939 201.522C44.1483 201.826 42.5626 203.692 42.555 203.7C41.9404 204.975 42.555 206.378 44.1407 206.378H55.5364C57.1297 206.378 57.547 204.975 56.9325 203.7H56.9401Z" fill="black"/>
<path d="M91.6717 95.3111L91.5578 95.1669L74.1986 73.9004C73.6979 73.1341 73.0985 72.3981 72.4081 71.7077L72.2412 71.5029L72.2184 71.518C69.9119 69.295 66.695 67.6562 63.0229 67.3603C59.9956 67.1403 56.9608 67.1403 53.9412 67.3603C46.301 67.9673 40.6258 74.4163 41.0583 79.788C41.9232 92.2611 42.8033 104.909 43.6834 117.685C53.3342 117.109 63.0229 117.101 72.6812 117.655L72.9771 117.996L90.8826 103.255C93.3029 101.282 93.6443 97.7314 91.6717 95.3111ZM73.751 102.663C73.9634 99.5826 72.4233 94.8028 72.6357 91.7452L79.0544 98.3459L73.751 102.671V102.663Z" fill="#FFB243"/>
<path d="M64.8646 109.602L52.9453 88.957L22.1752 106.722L34.0945 127.367L64.8646 109.602Z" fill="white"/>
<path d="M53.9656 82.8229L43.4348 73.1797L25.8252 94.598C24.1333 96.6541 24.1257 99.6889 25.9314 101.76L42.3271 120.523L50.3011 113.816L37.9341 98.5357L53.9656 82.8153V82.8229Z" fill="#FFB243"/>
<path d="M49.5586 114.415L49.1338 114.772L47.8288 115.872L45.6741 117.686L42.8061 120.098C42.2447 118.839 42.4344 117.23 43.3904 115.918C43.4814 115.796 43.5724 115.675 43.6711 115.561C45.1506 113.854 47.8743 113.406 49.5586 114.423V114.415Z" fill="#FFB243"/>
<path d="M50.938 117.48C50.8773 117.974 50.7256 118.482 50.498 118.975C50.498 118.975 50.498 118.99 50.4904 118.998C50.4904 119.013 50.4752 119.028 50.4676 119.043C50.2324 119.529 49.9289 119.992 49.5572 120.424C49.5192 120.47 49.4813 120.515 49.4358 120.553C49.4358 120.553 49.3675 120.629 49.3372 120.659C48.8212 121.183 48.2219 121.57 47.5845 121.813C47.5618 121.82 47.539 121.835 47.5087 121.843C47.4935 121.843 47.4783 121.858 47.4631 121.858C46.2113 122.298 44.8684 122.177 43.8593 121.426C43.8138 121.395 43.7682 121.357 43.7303 121.319C43.3206 120.978 43.0095 120.568 42.8047 120.106L45.6726 117.693L47.8273 115.88L49.1323 114.779L49.5572 114.423C49.6862 114.506 49.8151 114.59 49.9365 114.688C50.46 115.121 50.7711 115.675 50.9001 116.289C50.976 116.669 50.9911 117.071 50.938 117.48Z" fill="#F5B297"/>
<path d="M45.4441 119.916L48.0617 122.427C48.4183 122.769 48.441 123.315 48.0996 123.649C47.7885 123.952 47.2878 123.967 46.9312 123.702L44.0026 121.547C43.4867 121.168 43.3653 120.477 43.7295 119.999C44.0936 119.521 44.8068 119.438 45.3227 119.817C45.3607 119.848 45.4062 119.886 45.4441 119.923V119.916Z" fill="#F5B297"/>
<path d="M46.8569 118.194L49.5958 120.697C50.051 121.115 50.089 121.798 49.6793 122.215C49.2923 122.609 48.6398 122.632 48.1846 122.283L45.256 119.999C44.7021 119.567 44.5883 118.793 45.0056 118.277C45.4229 117.761 46.2196 117.693 46.7734 118.125C46.8038 118.148 46.8265 118.171 46.8569 118.194Z" fill="#F5B297"/>
<path d="M48.6148 116.859L50.7619 119.279C51.1489 119.711 51.111 120.349 50.6861 120.698C50.284 121.024 49.677 120.986 49.2901 120.622L46.9077 118.414C46.4146 117.959 46.3766 117.215 46.8243 116.76C47.2719 116.305 48.0382 116.305 48.5313 116.76C48.5617 116.79 48.592 116.821 48.6224 116.851L48.6148 116.859Z" fill="#F5B297"/>
<path d="M52.271 119.544C51.8613 119.847 51.2771 119.802 50.8901 119.453C50.8825 119.445 50.8674 119.43 50.8598 119.423L50.4652 119.036L48.9402 117.541L48.2043 116.82C48.0905 116.706 48.007 116.585 47.9387 116.456C47.8477 116.274 47.8098 116.069 47.8174 115.879L49.1223 114.779C49.3727 114.802 49.6231 114.893 49.8355 115.06C49.8734 115.09 49.9114 115.121 49.9493 115.159C49.9797 115.189 50.0176 115.227 50.0404 115.257L50.6549 116.001L50.8901 116.289L51.8537 117.45L52.3999 118.11C52.7717 118.565 52.7186 119.203 52.2634 119.544H52.271Z" fill="#F5B297"/>
<path d="M48.9006 117.021L48.7461 117.156L50.7782 119.491L50.9327 119.356L48.9006 117.021Z" fill="black"/>
<path d="M47.6177 118.582L47.4727 118.727L49.5945 120.854L49.7396 120.709L47.6177 118.582Z" fill="black"/>
<path d="M46.0259 120.46L45.8945 120.618L47.9032 122.296L48.0346 122.139L46.0259 120.46Z" fill="black"/>
<path d="M49.4786 114.501L49.3242 114.636L50.5758 116.071L50.7302 115.936L49.4786 114.501Z" fill="black"/>
<path d="M72.7347 86.1763H72.4844V92.6025H72.7347V86.1763Z" fill="black"/>
<path d="M72.728 117.776L72.6445 117.541C75.2924 116.578 74.0785 105.948 74.0633 105.842L74.3137 105.812C74.3668 106.259 75.5656 116.752 72.728 117.776Z" fill="black"/>
<path d="M47.4808 88.9942L42.0781 94.2886L42.2534 94.4674L47.656 89.173L47.4808 88.9942Z" fill="black"/>
<path d="M32.6143 125.052L22 106.669L25.5432 104.628L25.6721 104.848L22.349 106.767L32.8343 124.923L32.6143 125.052Z" fill="black"/>
<path d="M63.6016 67.6486C63.5029 67.6789 63.4119 67.7093 63.3133 67.7396C61.1585 68.4149 58.9735 68.3997 56.8567 67.7017C56.5608 67.603 56.2649 67.4968 55.9766 67.3679C56.0373 66.9809 56.0904 66.6016 56.1511 66.2146C56.28 65.3497 56.409 64.4848 56.538 63.6198C56.7429 62.239 56.9477 60.8506 57.1601 59.4697C57.2512 58.8476 57.3422 58.2178 57.4409 57.5957C59.2087 58.3468 61.0523 58.4151 62.8656 57.793C62.896 58.2482 62.9339 58.6958 62.9643 59.1511C63.0781 60.6381 63.1843 62.1252 63.2981 63.6123C63.3815 64.6896 63.465 65.7746 63.5409 66.8519L63.5636 67.1933C63.5788 67.3451 63.5864 67.4968 63.6016 67.641V67.6486Z" fill="#F5B297"/>
<path d="M63.5715 67.201C63.5715 67.201 63.5487 67.1555 63.4956 67.0568C63.2528 66.6016 62.4486 65.1449 61.4243 63.6199C60.1269 61.6928 58.4805 59.667 57.168 59.4698L62.9721 59.1587H63.01L63.3287 63.6199L63.5563 66.8596L63.579 67.201H63.5715Z" fill="#D19881"/>
<path d="M63.6016 67.6484C63.5029 67.6787 63.4119 67.7091 63.3133 67.7394C61.1585 68.4147 58.9735 68.3995 56.8567 67.7015C56.5608 67.6028 56.2649 67.4966 55.9766 67.3676C56.0373 66.9807 56.0904 66.6013 56.1511 66.2144C56.28 65.3495 56.409 64.4846 56.538 63.6196H63.3133L63.5409 66.8593L63.5636 67.2007C63.5788 67.3525 63.5864 67.5042 63.6016 67.6484Z" fill="white"/>
<path d="M60.2926 67.0264L56.0742 66.6546L56.097 66.4042L60.1105 66.7532L61.021 63.855L61.8328 66.7608H63.502V67.0188H61.6355L61.0058 64.7503L60.2926 67.0264Z" fill="black"/>
<path d="M66.7353 53.1499C66.7353 58.8251 63.8371 62.3151 60.1118 62.2696C56.3941 62.3151 53.4883 58.8251 53.4883 53.1499C53.4807 47.49 56.4548 43.0288 60.1118 43.0895C63.7688 43.0288 66.7429 47.49 66.7353 53.1499Z" fill="#F5B297"/>
<path d="M63.7227 52.4897C64.1552 53.8099 64.6332 55.6839 64.269 56.6323H63.1992L63.7303 52.4897H63.7227Z" fill="#F5B297"/>
<path d="M64.3752 56.7837H63.1992V56.4802H64.1628C64.3752 55.7518 64.178 54.3634 63.5862 52.5349L63.8745 52.4438C64.3297 53.8399 64.7925 55.7139 64.4132 56.6926L64.3752 56.7912V56.7837Z" fill="black"/>
<path d="M60.7241 52.49C60.9881 52.49 61.2021 52.2046 61.2021 51.8526C61.2021 51.5007 60.9881 51.2153 60.7241 51.2153C60.4601 51.2153 60.2461 51.5007 60.2461 51.8526C60.2461 52.2046 60.4601 52.49 60.7241 52.49Z" fill="black"/>
<path d="M65.7553 52.49C66.0193 52.49 66.2333 52.2046 66.2333 51.8526C66.2333 51.5007 66.0193 51.2153 65.7553 51.2153C65.4913 51.2153 65.2773 51.5007 65.2773 51.8526C65.2773 52.2046 65.4913 52.49 65.7553 52.49Z" fill="black"/>
<path d="M57.6836 49.9175C57.6836 49.9175 58.3968 48.5366 60.1115 48.5366L57.6836 49.9175Z" fill="#F5B297"/>
<path d="M57.82 49.9859L57.5469 49.8417C57.5772 49.781 58.3283 48.3774 60.1113 48.3774V48.6809C58.5104 48.6809 57.8276 49.9631 57.82 49.9783V49.9859Z" fill="black"/>
<path d="M63.5 48.5295C63.5 48.5295 64.1525 47.9908 65.3133 48.5295H63.5Z" fill="#F5B297"/>
<path d="M65.2536 48.6734C64.1914 48.1802 63.6072 48.6506 63.5996 48.6506L63.4023 48.4154C63.4023 48.4154 64.1459 47.8236 65.375 48.3926L65.246 48.6734H65.2536Z" fill="black"/>
<path d="M58.8945 58.6353C59.3573 58.6353 59.3573 59.0525 59.8126 59.0525C60.2678 59.0525 60.2754 58.6353 60.7306 58.6353C61.1858 58.6353 61.1934 59.0525 61.6486 59.0525C62.1039 59.0525 62.1114 58.6353 62.5743 58.6353C63.0371 58.6353 63.0371 59.0525 63.4999 59.0525L58.8945 58.6353Z" fill="#F5B297"/>
<path d="M63.5003 59.2042C63.212 59.2042 63.0603 59.0676 62.9389 58.9538C62.8327 58.8552 62.7492 58.7869 62.5823 58.7869C62.4154 58.7869 62.3319 58.8552 62.2257 58.9538C62.1043 59.0676 61.9526 59.2042 61.6643 59.2042C61.376 59.2042 61.2242 59.0676 61.1028 58.9538C60.9966 58.8552 60.9131 58.7869 60.7462 58.7869C60.5793 58.7869 60.4959 58.8552 60.3896 58.9538C60.2682 59.0676 60.1165 59.2042 59.8282 59.2042C59.5399 59.2042 59.3881 59.0676 59.2667 58.9538C59.1605 58.8552 59.0771 58.7869 58.9102 58.7869V58.4834C59.1985 58.4834 59.3502 58.62 59.4716 58.7338C59.5778 58.8324 59.6613 58.9007 59.8282 58.9007C59.9951 58.9007 60.0786 58.8324 60.1848 58.7338C60.3062 58.62 60.4579 58.4834 60.7462 58.4834C61.0345 58.4834 61.1863 58.62 61.3077 58.7338C61.4139 58.8324 61.4973 58.9007 61.6643 58.9007C61.8312 58.9007 61.9146 58.8324 62.0209 58.7338C62.1422 58.62 62.294 58.4834 62.5823 58.4834C62.8706 58.4834 63.0223 58.62 63.1437 58.7338C63.25 58.8324 63.3334 58.9007 63.5003 58.9007V59.2042Z" fill="black"/>
<path d="M68.8887 44.9331C68.7522 44.364 68.1604 43.924 67.6976 43.5826C65.9298 42.2776 63.6461 41.5341 61.4762 41.3747C60.7175 41.3216 60.0043 41.352 59.367 41.4582C58.3579 40.7071 55.8769 40.5174 53.8891 41.6934C52.2579 42.6418 51.5371 44.182 51.7344 45.2669C50.3839 46.0029 50.3611 48.7114 51.6585 51.4883C53.1152 54.5838 57.1895 52.0422 56.537 49.4019C56.2183 48.1879 55.6872 47.1409 54.9968 46.3594C57.0301 46.6326 59.8449 46.5415 62.9708 46.7084C64.5717 46.7919 68.4639 47.8769 68.9039 45.3504C68.9267 45.2062 68.9191 45.0621 68.8887 44.9255V44.9331Z" fill="black"/>
<path d="M56.0348 51.8524C56.0348 53.0132 55.094 53.9616 53.9256 53.9616C52.7572 53.9616 51.8164 53.0208 51.8164 51.8524C51.8164 50.684 52.7572 49.7432 53.9256 49.7432C55.094 49.7432 56.0348 50.684 56.0348 51.8524Z" fill="#F5B297"/>
<path d="M54.6513 50.6239L52.8125 50.7573L52.8345 51.06L54.6733 50.9266L54.6513 50.6239Z" fill="black"/>
<path d="M60.7244 54.1132C59.7456 54.1132 58.9414 53.0965 58.9414 51.8523C58.9414 50.608 59.7381 49.5913 60.7244 49.5913C61.7107 49.5913 62.5073 50.608 62.5073 51.8523C62.5073 53.0965 61.7107 54.1132 60.7244 54.1132ZM60.7244 49.9024C59.9126 49.9024 59.2525 50.7749 59.2525 51.8523C59.2525 52.9296 59.9126 53.8021 60.7244 53.8021C61.5362 53.8021 62.1963 52.9296 62.1963 51.8523C62.1963 50.7749 61.5362 49.9024 60.7244 49.9024Z" fill="black"/>
<path d="M65.6289 53.9994C64.7564 53.9994 64.0508 52.9828 64.0508 51.7385C64.0508 50.4942 64.7564 49.4775 65.6289 49.4775C66.5014 49.4775 67.207 50.4942 67.207 51.7385C67.207 52.9828 66.5014 53.9994 65.6289 53.9994ZM65.6289 49.7886C64.9233 49.7886 64.3543 50.6611 64.3543 51.7385C64.3543 52.8159 64.9233 53.6884 65.6289 53.6884C66.3345 53.6884 66.9035 52.8159 66.9035 51.7385C66.9035 50.6611 66.3345 49.7886 65.6289 49.7886Z" fill="black"/>
<path d="M55.2491 50.0334L55.1289 50.312L59.03 51.9953L59.1502 51.7167L55.2491 50.0334Z" fill="black"/>
<path d="M62.3477 51.5489C62.3477 51.5489 63.6071 50.8509 64.1913 51.7386L62.3477 51.5489Z" fill="#F5B297"/>
<path d="M64.0677 51.8223C63.5669 51.056 62.4364 51.6781 62.4213 51.6857L62.2695 51.4202C62.7475 51.1546 63.7945 50.8587 64.318 51.6629L64.0601 51.8299L64.0677 51.8223Z" fill="black"/>
<path d="M97.7656 205.377C97.7656 205.46 97.7656 205.551 97.7656 205.642C97.7732 205.824 97.7884 206.006 97.8263 206.188C97.8491 206.234 97.8718 206.272 97.9022 206.31C98.016 206.446 101.567 206.56 105.717 206.651C110.231 206.75 117.811 206.871 120.11 206.902C120.861 206.909 121.301 206.917 121.301 206.917L121.536 195.855C121.536 195.855 114.548 195.711 114.283 195.703C113.524 195.688 112.758 195.665 111.999 195.658C111.013 195.642 111.157 195.658 110.884 196.523C110.497 197.736 109.586 198.768 108.403 199.254C107.743 199.519 107.029 199.626 106.316 199.694C106.271 199.694 106.233 199.694 106.187 199.694C105.102 199.671 104.063 199.8 103.107 200.051C100.027 200.847 97.8263 202.918 97.7732 205.399L97.7656 205.377Z" fill="#DB5964"/>
<path d="M119.806 204.922C119.791 205.673 119.905 206.355 120.117 206.902C120.868 206.909 121.308 206.917 121.308 206.917L121.414 201.849C120.565 201.834 119.852 203.207 119.814 204.929L119.806 204.922Z" fill="#DDE1FE"/>
<path d="M97.7656 205.377C97.7656 205.46 97.7656 205.551 97.7656 205.642C97.7732 205.824 97.7884 206.006 97.8263 206.189C97.8491 206.234 97.8718 206.272 97.9022 206.31C98.016 206.446 101.567 206.56 105.717 206.651C105.724 206.553 105.724 206.454 105.732 206.355C105.793 203.472 104.693 200.999 103.099 200.028C100.019 200.824 97.8187 202.896 97.7656 205.377Z" fill="#DDE1FE"/>
<path d="M108.991 199.14C110.736 198.928 112.276 199.095 112.291 199.102L112.337 198.731C112.276 198.731 110.744 198.556 108.953 198.768L108.999 199.14H108.991Z" fill="white"/>
<path d="M109.026 198.751L107.836 200.954L108.163 201.131L109.353 198.928L109.026 198.751Z" fill="white"/>
<path d="M109.417 112.754L106.352 197.699L122.413 198.518L128.028 113.702L109.417 112.754Z" fill="#979DE6"/>
<path d="M143.477 202.934L140.716 196.644C139.949 194.952 138.227 193.95 136.437 194.155L134.722 194.353C132.431 194.618 130.792 196.758 131.065 199.132L131.232 204.982C131.505 207.357 133.933 207.691 136.224 207.425L139.38 207.061C142.21 206.735 144.691 205.612 143.47 202.926L143.477 202.934Z" fill="#DB5964"/>
<path d="M143.263 205.195C143.263 205.096 143.271 205.005 143.278 204.906C143.422 203.002 141.958 201.151 140.016 201.128C138.081 201.105 136.154 201.325 134.272 201.788C132.383 202.251 131.374 204.391 131.951 206.211C131.981 206.302 132.004 206.393 132.034 206.485C132.611 208.313 143.119 207.107 143.263 205.187V205.195Z" fill="#DDE1FE"/>
<path d="M132.302 201.401C134.002 199.079 136.422 197.243 139.313 196.09L139.153 195.703C136.187 196.887 133.698 198.776 131.953 201.158L132.295 201.409L132.302 201.401Z" fill="white"/>
<path d="M141.361 200.521L141.619 200.187C139.107 198.214 136.232 197.008 133.296 196.689L133.25 197.107C136.11 197.418 138.91 198.594 141.361 200.521Z" fill="white"/>
<path d="M123.349 116.418L122.886 162.844L122.879 163.921L122.978 164.429L129.169 197.494L143.038 195.377L139.085 161.971L139.168 163.557L142.765 117.261L123.349 116.418Z" fill="#979DE6"/>
<path d="M134.025 117.88L133.844 117.959L140.134 132.399L140.315 132.32L134.025 117.88Z" fill="black"/>
<path d="M124.128 171.152L124.326 171.114L122.975 163.898L122.983 162.851L123.415 119.727L119.933 119.15L119.902 119.34L123.218 119.893L122.778 163.921L122.876 164.452L124.128 171.152Z" fill="black"/>
<path d="M96.6399 88.9225C97.3986 88.9225 98.1649 88.7632 98.9009 88.4369L116.647 80.4477C119.424 79.1959 120.661 75.9334 119.409 73.1566C118.157 70.3797 114.894 69.143 112.118 70.3949L94.3714 78.384C91.5945 79.6359 90.3578 82.8983 91.6097 85.6752C92.5277 87.7161 94.5383 88.9301 96.6399 88.9301V88.9225Z" fill="#F5B297"/>
<path d="M101.422 74.7803L114.95 69.1355C116.3 68.4603 130.928 68.0809 130.996 68.0885C135.177 68.1719 138.834 70.9488 140.131 74.9244L143.803 86.1837L140.867 87.0789V116.843H109.366V83.7179L106.543 85.0532L101.422 74.7803Z" fill="#DB5964"/>
<path d="M113.31 54.1357L92.1953 80.1442L101.087 86.6691L119.577 58.7411L113.31 54.1357Z" fill="#F5B297"/>
<path d="M104.843 81.0739L103.09 83.5415L103.251 83.6558L105.004 81.1882L104.843 81.0739Z" fill="black"/>
<path d="M109.463 81.5859H109.266V85.2277H109.463V81.5859Z" fill="black"/>
<path d="M130.218 80.3914L130.031 80.4556L130.927 83.0598L131.114 82.9956L130.218 80.3914Z" fill="black"/>
<path d="M113.576 91.9425C113.492 91.7756 113.424 91.6239 113.371 91.4797C113.31 91.3356 113.249 91.1762 113.196 91.0169C112.87 90.0685 112.703 89.0594 112.703 88.02C112.703 83.7106 115.632 80.1978 119.228 80.1978C122.824 80.1978 125.753 83.703 125.753 88.02C125.753 88.7332 125.677 89.4312 125.518 90.1065V90.1444C125.487 90.2279 125.465 90.3113 125.442 90.4024C125.32 90.8652 125.161 91.3204 124.964 91.7453C123.818 94.2718 121.618 95.8499 119.22 95.8499C116.823 95.8499 114.736 94.3552 113.568 91.9425H113.576ZM124.842 89.9927C124.994 89.3553 125.07 88.6953 125.07 88.0276C125.07 84.0975 122.453 80.8958 119.236 80.8958C116.019 80.8958 113.401 84.0975 113.401 88.0276C113.401 88.9912 113.553 89.9244 113.856 90.7969C113.909 90.941 113.963 91.0852 114.016 91.2218C114.069 91.3507 114.129 91.4949 114.205 91.6466C115.252 93.8165 117.179 95.1595 119.236 95.1595C121.292 95.1595 123.325 93.7407 124.349 91.4646C124.524 91.07 124.676 90.6603 124.789 90.2279C124.804 90.1672 124.82 90.0989 124.835 90.0382V90.0002L124.842 89.9927Z" fill="white"/>
<path d="M113.691 91.343H114.328L113.888 91.7831C114.958 94.0061 116.953 95.4932 119.229 95.4932C121.505 95.4932 123.607 93.915 124.661 91.5934L123.372 90.3036H125.117C125.139 90.2201 125.162 90.1443 125.177 90.0608L123.19 88.073H124.904L122.977 86.3887L121.384 88.0882H122.909L121.035 89.9622L120.071 88.9986H121.414L119.912 87.6861L118.668 89.0138H119.859L118.372 90.5009L116.877 89.0062H118.212L116.71 87.6936L115.466 89.0214H116.657L115.898 89.7801L114.662 88.6951L113.607 89.818H114.616L113.531 90.903L113.698 91.343H113.691ZM114.798 89.8104L115.337 90.3491L115.876 89.8104H114.806H114.798ZM114.92 91.2823L115.398 91.7603L115.876 91.2823H114.92ZM115.815 90.8271L116.065 91.0775L116.316 90.8271H115.807H115.815ZM117.014 90.7512L118.304 92.041L119.517 90.8271H118.046L118.121 90.7512H117.014ZM120.208 90.7512L121.179 91.7224L122.484 90.4174H121.467L121.809 90.7588H120.208V90.7512Z" fill="white"/>
<path d="M131.254 83.1868L141.906 79.9243L148.348 101.866L148.408 102.063C148.651 102.898 148.674 103.808 148.423 104.704L139.107 129.445L134.365 118.854L137.794 103.664L131.261 83.1943L131.254 83.1868Z" fill="#F5B297"/>
<path d="M110.242 63.1996L117.184 65.7563L121.639 53.6603L114.697 51.1036L110.242 63.1996Z" fill="black"/>
<path d="M110.993 62.5797L117.023 64.8008L120.897 54.2853L114.866 52.0642L110.993 62.5797Z" fill="#DDE1FE"/>
<path d="M114.402 61.6927C114.402 62.1403 114.767 62.5045 115.214 62.5045C115.662 62.5045 116.026 62.1403 116.026 61.6927C116.026 61.245 115.662 60.8809 115.214 60.8809C114.767 60.8809 114.402 61.245 114.402 61.6927Z" fill="#72A15C"/>
<path d="M117.879 69.1961L118.66 58.7791L124.123 56.6016L128.417 68.445H128.387C128.448 69.1961 126.141 69.9927 123.243 70.2279C120.345 70.4631 117.94 70.0534 117.879 69.3023C117.879 69.2644 117.879 69.2264 117.886 69.1885L117.879 69.1961Z" fill="#F5B297"/>
<path d="M118.414 64.6971C118.414 64.6971 125.645 66.6394 128.611 68.7941L125.645 60.6001L118.414 64.6971Z" fill="#D19881"/>
<path d="M125.093 55.8734C125.374 56.9811 126.52 57.6488 127.65 57.3757C128.781 57.0949 129.479 55.9796 129.198 54.8719C128.917 53.7642 127.772 53.0966 126.641 53.3697C125.511 53.6504 124.813 54.7657 125.093 55.8734Z" fill="#F5B297"/>
<path d="M126.852 54.028L126.805 54.1802L128.508 54.7074L128.555 54.5552L126.852 54.028Z" fill="black"/>
<path d="M115.867 57.1102C115.867 60.7975 116.482 63.6047 117.643 65.0387C118.788 66.5106 120.488 66.6092 122.286 65.7443C124.092 64.8566 125.571 63.3392 126.466 61.7459C127.377 60.1147 127.711 58.4076 127.445 56.2604C127.164 54.136 126.322 51.7916 125.146 49.5686C123.978 47.3835 122.476 45.3123 120.951 44.6674C118.28 43.3472 116.451 47.9298 115.966 54.3788C115.898 55.2741 115.867 56.1921 115.867 57.1102Z" fill="#F5B297"/>
<path d="M116.992 55.9418C117.06 56.2605 117.341 56.4577 117.606 56.3819C117.879 56.306 118.039 55.9873 117.963 55.6687C117.894 55.35 117.614 55.1528 117.348 55.2286C117.075 55.3045 116.916 55.6232 116.992 55.9418Z" fill="black"/>
<path d="M121.671 55.9037C121.74 56.2224 122.02 56.4197 122.286 56.3438C122.559 56.2679 122.718 55.9493 122.642 55.6306C122.567 55.3119 122.293 55.1147 122.028 55.1906C121.755 55.2664 121.595 55.5851 121.671 55.9037Z" fill="black"/>
<path d="M124.723 53.9466C124.677 53.8935 123.661 52.7175 121.384 53.9769L121.309 53.8404C123.714 52.5202 124.837 53.8404 124.844 53.8479L124.723 53.9466Z" fill="black"/>
<path d="M116.055 53.9162L115.941 53.81C115.941 53.81 117.133 52.5202 119.485 53.9238L119.401 54.0604C117.171 52.7326 116.101 53.8707 116.055 53.9238V53.9162Z" fill="black"/>
<path d="M119.857 58.9617C119.857 58.9617 119.902 58.9617 119.925 58.9617L119.91 58.7644C119.713 58.7796 119.531 58.7037 119.394 58.5595C119.265 58.4154 119.204 58.2257 119.235 58.0284L119.713 55.1378L119.515 55.1074L119.038 57.9981C119 58.2485 119.068 58.5064 119.242 58.6961C119.402 58.8706 119.622 58.9617 119.849 58.9617H119.857Z" fill="black"/>
<path d="M119.456 62.049C121.11 61.7455 122.627 61.7911 122.642 61.7911V61.5938C122.642 61.5938 121.095 61.5559 119.418 61.8594L119.456 62.049Z" fill="black"/>
<path d="M123.284 51.2529C124.885 53.1269 126.858 54.0753 127.7 53.3621C128.535 52.6489 127.92 50.5473 126.319 48.6733C124.718 46.7993 122.746 45.8509 121.904 46.5641C121.069 47.2773 121.684 49.3789 123.284 51.2529Z" fill="#FFB243"/>
<path d="M115.541 52.6568C115.966 53.4306 117.749 53.2637 119.517 52.2926C121.285 51.3138 122.37 49.8951 121.945 49.1212C121.52 48.3473 119.737 48.5142 117.969 49.4854C116.201 50.4641 115.116 51.8829 115.541 52.6568Z" fill="#FFB243"/>
<path d="M118.636 50.889C118.719 51.8753 120.206 52.5582 121.967 52.414C123.727 52.2699 125.085 51.3518 125.009 50.3655C124.926 49.3792 123.438 48.6963 121.678 48.8405C119.918 48.9847 118.56 49.9027 118.636 50.889Z" fill="#FFB243"/>
<path d="M109.881 45.5702C109.41 45.8889 109.433 47.08 110.404 48.4305C111.337 49.7659 113.219 51.2681 115.715 51.7385C118.196 52.2772 120.51 51.6095 121.891 50.7446C123.31 49.8721 123.788 48.7871 123.477 48.3091C122.748 47.3304 119.676 48.1346 116.588 47.3987C113.454 46.8828 110.928 44.9481 109.881 45.5702Z" fill="#DB5964"/>
<path d="M122.649 44.3411C126.093 45.0316 128.392 48.0664 127.778 51.1088L115.297 48.5975C115.911 45.5551 119.197 43.6507 122.649 44.3411Z" fill="#DB5964"/>
<path d="M116.586 48.7495L116.547 48.9429L122.616 50.1634L122.655 49.97L116.586 48.7495Z" fill="black"/>
</g>
<defs>
<clipPath id="clip0_1693_11394">
<rect width="226" height="208" fill="white"/>
</clipPath>
<clipPath id="clip1_1693_11394">
<rect width="126.59" height="166.65" fill="white" transform="translate(22 40.8511)"/>
</clipPath>
</defs>
</svg>
