<svg width="1401" height="4064" viewBox="0 0 1401 4064" fill="none" xmlns="http://www.w3.org/2000/svg">
<g clip-path="url(#clip0_1755_9266)">
<rect width="1401" height="4064" fill="url(#paint0_linear_1755_9266)"/>
<rect width="1401" height="4064" fill="url(#paint1_linear_1755_9266)"/>
<path d="M593 762H790C955.685 762 1090 627.685 1090 462V170" stroke="url(#paint2_linear_1755_9266)" stroke-width="210"/>
<path d="M864 2362V2362C1025.82 2362 1157 2230.82 1157 2069V1907" stroke="url(#paint3_linear_1755_9266)" stroke-width="210"/>
<path d="M250 1117V912C250 829.157 317.157 762 400 762H593" stroke="white" stroke-width="210"/>
<path d="M378 2969V2512C378 2429.16 445.157 2362 528 2362H874" stroke="white" stroke-width="210"/>
<path d="M250 1117V1240C250 1322.84 317.157 1390 400 1390H864" stroke="url(#paint4_linear_1755_9266)" stroke-width="210"/>
<path d="M1156 1907L1156 1540C1156 1457.16 1088.84 1390 1006 1390L805 1390" stroke="url(#paint5_linear_1755_9266)" stroke-width="210"/>
<path d="M378 2969V2512C378 2429.16 445.157 2362 528 2362H841" stroke="url(#paint6_linear_1755_9266)" stroke-width="210"/>
<g clip-path="url(#clip1_1755_9266)">
<path d="M839.163 2257.01C839.293 2257.78 837.023 2258.88 834.094 2259.45C831.165 2260.03 828.682 2259.87 828.544 2259.1C828.414 2258.32 830.685 2257.22 833.614 2256.65C836.543 2256.07 839.026 2256.23 839.163 2257.01Z" fill="black"/>
<path d="M844.658 2260.76L835.123 2260.04L836.337 2251.61L845.214 2252.28L844.658 2260.76Z" fill="#979695"/>
<path d="M831.191 2257.87C834.572 2257.87 844.011 2257.24 845.068 2255.8V2261.8H828.289C827.898 2261.8 827.589 2261.44 827.624 2261.01C827.788 2259.02 828.673 2257.87 831.198 2257.87H831.191Z" fill="black"/>
<path d="M853.959 2259.46L862.712 2259.45L862.691 2250.01L854.521 2250.02L853.959 2259.46Z" fill="#979695"/>
<path d="M858.41 2257.95C860.132 2257.95 861.696 2257.4 862.807 2256.53C863.171 2257.3 863.466 2258.71 863.672 2259.96C863.884 2261.25 863.13 2262.46 862.114 2262.46H854.768C853.759 2262.46 853.005 2261.26 853.204 2259.97C853.396 2258.73 853.725 2257.6 854.164 2256.65C855.269 2257.46 856.764 2257.95 858.41 2257.95Z" fill="black"/>
<path d="M853.973 2259.26C853.973 2260.89 856.092 2262.22 858.713 2262.22C861.333 2262.22 863.453 2260.89 863.453 2259.26C863.453 2257.62 861.333 2256.29 858.713 2256.29C856.092 2256.29 853.973 2257.62 853.973 2259.26Z" fill="black"/>
<path d="M866.355 2253.45L862.74 2183.73L852.945 2184.62L836.399 2183.3L832.777 2252.94L846.003 2254.04L849.947 2222.27L853.137 2254.65L866.355 2253.45Z" fill="#DB5964"/>
<path d="M849.863 2222.24L846.646 2189.68L844.547 2189.18L844.588 2189L846.811 2189.53L846.817 2189.6L850.035 2222.22L849.863 2222.24Z" fill="black"/>
<path d="M843.697 2142.73C846.743 2143.38 849.898 2143.24 852.875 2142.33C852.834 2142.2 852.793 2142.07 852.752 2141.94C852.491 2141.08 852.231 2140.22 851.97 2139.36C851.654 2138.33 851.339 2137.29 851.023 2136.26C850.996 2136.17 850.968 2136.08 850.941 2135.99C850.927 2135.93 850.907 2135.88 850.893 2135.82C850.68 2135.88 850.461 2135.95 850.248 2136C848.561 2136.41 846.805 2136.43 845.103 2136.08L845.069 2136.26L844.342 2139.7L843.786 2142.33L843.704 2142.73H843.697Z" fill="#F5B297"/>
<path d="M843.697 2142.73C843.697 2142.73 843.8 2142.58 843.992 2142.31C844.397 2141.75 845.193 2140.7 846.153 2139.61C846.825 2138.85 847.58 2138.08 848.348 2137.43C849.233 2136.69 850.132 2136.13 850.948 2135.98H850.248L845.103 2136.06L845.069 2136.24L844.342 2139.68L843.786 2142.31L843.704 2142.72L843.697 2142.73Z" fill="#D19881"/>
<path d="M852.759 2141.94L843.787 2142.33C843.972 2141.45 844.158 2140.57 844.343 2139.7L851.977 2139.37L852.759 2141.94V2141.94Z" fill="#A2C096"/>
<path d="M843.212 2131.99C843.445 2134.8 844.083 2136.9 845.057 2137.92C846.018 2138.97 847.321 2138.94 848.638 2138.18C849.962 2137.39 850.991 2136.14 851.581 2134.87C852.171 2133.57 852.863 2131.43 852.521 2129.81C852.178 2128.21 853.913 2127.15 852.877 2125.53C851.848 2123.94 847.513 2122.6 846.313 2122.2C844.193 2121.36 843.082 2124.97 843.116 2129.91C843.116 2130.6 843.15 2131.3 843.212 2132V2131.99Z" fill="#F5B297"/>
<path d="M846.011 2133.52C845.894 2133.52 845.778 2133.47 845.695 2133.4C845.599 2133.31 845.544 2133.18 845.551 2133.05L845.634 2128.65H845.812L845.73 2133.06C845.73 2133.14 845.757 2133.22 845.819 2133.27C845.881 2133.33 845.956 2133.35 846.038 2133.35L846.772 2133.29L846.786 2133.46L846.052 2133.53C846.052 2133.53 846.025 2133.53 846.011 2133.53V2133.52Z" fill="black"/>
<path d="M848.882 2128.64C848.903 2128.91 848.793 2129.13 848.629 2129.15C848.471 2129.16 848.32 2128.96 848.299 2128.69C848.279 2128.42 848.389 2128.2 848.553 2128.18C848.711 2128.17 848.862 2128.37 848.882 2128.64Z" fill="black"/>
<path d="M844.254 2129.02C844.274 2129.29 844.164 2129.51 844 2129.53C843.842 2129.54 843.691 2129.33 843.67 2129.07C843.65 2128.8 843.76 2128.57 843.924 2128.56C844.082 2128.55 844.233 2128.75 844.254 2129.02Z" fill="black"/>
<path d="M849.631 2127.45C848.966 2127.02 847.889 2127.39 847.875 2127.39L847.82 2127.23C847.868 2127.21 848.993 2126.83 849.734 2127.31L849.638 2127.46L849.631 2127.45Z" fill="black"/>
<path d="M843.107 2127.69L843.004 2127.54C843.415 2127.26 844.499 2127.4 844.547 2127.41L844.527 2127.58C844.232 2127.54 843.402 2127.49 843.107 2127.69V2127.69Z" fill="black"/>
<path d="M845.715 2135.43C845.9 2135.43 846.078 2135.44 846.257 2135.43C846.435 2135.43 846.613 2135.41 846.792 2135.39C847.148 2135.35 847.498 2135.28 847.841 2135.19C848.184 2135.1 848.514 2134.95 848.829 2134.79L849.062 2134.66L849.282 2134.51C849.44 2134.42 849.563 2134.29 849.714 2134.18C849.481 2134.45 849.213 2134.72 848.898 2134.9C848.589 2135.1 848.246 2135.25 847.889 2135.36C847.533 2135.46 847.169 2135.52 846.806 2135.53C846.442 2135.54 846.072 2135.52 845.715 2135.43Z" fill="white"/>
<path d="M855.271 2129.29C855.25 2128.89 855.12 2128.53 854.928 2128.23C855.085 2127.91 855.168 2127.54 855.147 2127.14C855.113 2126.55 854.852 2126.04 854.468 2125.69C854.495 2125.52 854.509 2125.35 854.502 2125.16C854.447 2124.22 853.809 2123.46 853 2123.29C852.698 2122.55 852.012 2122.06 851.244 2122.1C851.031 2122.11 850.832 2122.17 850.647 2122.25C850.64 2122.25 850.627 2122.25 850.62 2122.25C850.332 2121.48 849.632 2120.95 848.843 2120.99C848.473 2121.01 848.137 2121.16 847.862 2121.38C847.567 2121.19 847.217 2121.08 846.847 2121.1C846.518 2121.12 846.216 2121.24 845.962 2121.43C845.688 2121.27 845.372 2121.19 845.043 2121.21C844.405 2121.24 843.87 2121.64 843.582 2122.21C843.445 2122.35 843.335 2122.51 843.246 2122.69C843.15 2122.67 843.054 2122.67 842.951 2122.67C841.956 2122.73 841.202 2123.68 841.263 2124.78C841.311 2125.66 841.867 2126.38 842.594 2126.6C842.711 2126.75 842.848 2126.88 842.999 2126.98C843.41 2126.43 844.014 2126.07 844.707 2126.04L849.9 2125.74C849.941 2125.74 849.975 2125.74 850.016 2125.74C850.146 2126.15 850.4 2126.59 850.764 2127C851.299 2127.6 851.93 2127.98 852.444 2128.07C852.451 2128.14 852.458 2128.21 852.465 2128.29L852.63 2131.14C852.911 2131.3 853.233 2131.39 853.576 2131.37C854.571 2131.32 855.325 2130.37 855.264 2129.27L855.271 2129.29Z" fill="#735846"/>
<path d="M854.028 2129.4C854.097 2130.21 853.5 2130.9 852.697 2130.97C851.895 2131.04 851.195 2130.45 851.126 2129.64C851.058 2128.84 851.655 2128.14 852.457 2128.07C853.26 2128 853.959 2128.6 854.028 2129.4Z" fill="#F5B297"/>
<path d="M852.138 2128.77L852.127 2128.95L853.099 2129.01L853.11 2128.84L852.138 2128.77Z" fill="black"/>
<path d="M907.223 2169.31C907.051 2169 906.702 2168.85 906.379 2168.92L906.304 2168.93C906.009 2169 905.693 2169.02 905.371 2169.02C905.048 2169.02 904.712 2169 904.376 2168.95C904.04 2168.9 903.704 2168.84 903.368 2168.76C903.203 2168.72 903.032 2168.68 902.874 2168.63C902.792 2168.61 902.709 2168.58 902.634 2168.56L902.517 2168.53L902.462 2168.51H902.435C902.435 2168.51 902.428 2168.5 902.421 2168.5C901.694 2168.15 900.103 2168.09 899.753 2168.82C899.588 2169.16 899.725 2169.61 899.993 2170.04L899.533 2170.83C899.554 2170.86 898.978 2172.22 898.69 2172.9C898.676 2172.87 898.662 2172.84 898.662 2172.82L897.51 2174.83L898.463 2175.2C898.937 2175.55 902.627 2177.97 903.162 2178.08C903.286 2178.11 903.416 2178.1 903.532 2178.06C903.779 2177.98 903.985 2177.78 904.04 2177.5C904.102 2177.21 903.978 2176.93 903.759 2176.76C903.683 2176.71 903.594 2176.66 903.491 2176.64C903.306 2176.56 902.86 2176.25 902.298 2175.83C902.291 2175.83 902.277 2175.81 902.27 2175.81C902.298 2175.8 902.332 2175.79 902.36 2175.78C902.867 2175.61 903.354 2175.34 903.786 2174.98C903.855 2174.93 903.923 2174.87 903.985 2174.81C904.02 2174.77 904.054 2174.74 904.088 2174.7C904.122 2174.67 904.164 2174.63 904.198 2174.59C904.314 2174.46 904.431 2174.33 904.534 2174.18C904.699 2173.96 904.822 2173.71 904.898 2173.45C904.898 2173.45 904.898 2173.44 904.898 2173.43C904.911 2173.39 904.925 2173.34 904.932 2173.3C904.932 2173.28 904.939 2173.26 904.946 2173.25C905.083 2172.6 904.946 2171.9 904.527 2171.35L904.376 2171.17C904.376 2171.17 904.404 2171.17 904.424 2171.17C904.843 2171.1 905.254 2171.02 905.673 2170.9C906.091 2170.78 906.503 2170.61 906.907 2170.4C907.285 2170.18 907.429 2169.71 907.216 2169.33L907.223 2169.31Z" fill="#F5B297"/>
<path d="M901.517 2169.05C901.792 2169.04 902.073 2169.11 902.327 2169.27C902.368 2169.3 902.402 2169.33 902.437 2169.35C902.814 2169.67 903.205 2169.96 903.603 2170.25C905.057 2171.28 906.648 2172.12 908.343 2172.71C908.843 2172.88 909.111 2173.43 908.939 2173.93C908.775 2174.4 908.288 2174.66 907.814 2174.55C907.327 2174.44 906.854 2174.29 906.388 2174.12C906.305 2174.09 906.223 2174.06 906.141 2174.02C905.784 2173.88 905.427 2173.72 905.084 2173.55H905.077C905.016 2173.52 904.954 2173.49 904.892 2173.46C903.603 2172.8 902.382 2171.98 901.14 2171.16L900.838 2171.5C900.722 2171.42 900.626 2171.33 900.543 2171.23C900.509 2171.18 900.475 2171.14 900.447 2171.09L901.517 2169.06V2169.05Z" fill="#F5B297"/>
<path d="M900.551 2171.22C900.551 2171.22 900.578 2171.18 900.592 2171.16C901.024 2170.64 901.799 2170.57 902.314 2171.01C902.348 2171.03 902.376 2171.06 902.41 2171.09C903.185 2171.88 904.036 2172.61 904.955 2173.25C905.133 2173.38 905.318 2173.5 905.51 2173.62C905.51 2173.62 905.51 2173.62 905.517 2173.62C905.73 2173.76 905.936 2173.89 906.155 2174.01C906.231 2174.06 906.313 2174.1 906.388 2174.15C906.745 2174.35 907.116 2174.54 907.486 2174.71C907.925 2174.92 908.117 2175.44 907.911 2175.88C907.719 2176.3 907.246 2176.49 906.821 2176.34C906.814 2176.34 906.8 2176.34 906.793 2176.34C906.704 2176.3 906.615 2176.27 906.526 2176.24C906.388 2176.19 906.251 2176.14 906.114 2176.08C905.311 2175.77 904.529 2175.39 903.775 2174.97C902.705 2174.37 901.69 2173.67 900.75 2172.88C900.414 2172.59 900.263 2172.17 900.318 2171.76C900.345 2171.56 900.421 2171.37 900.544 2171.21L900.551 2171.22Z" fill="#F5B297"/>
<path d="M899.664 2172.16C899.774 2172.03 899.898 2171.95 900.035 2171.88L899.369 2173.15C899.321 2172.8 899.417 2172.44 899.664 2172.16Z" fill="#F5B297"/>
<path d="M900.03 2171.88C900.119 2171.83 900.222 2171.8 900.318 2171.77C900.688 2171.69 901.086 2171.79 901.388 2172.06C901.422 2172.08 901.45 2172.11 901.477 2172.15C902.3 2173.04 903.206 2173.87 904.193 2174.59C904.9 2175.12 905.641 2175.58 906.423 2175.99C906.581 2176.08 906.711 2176.2 906.793 2176.35C906.93 2176.6 906.944 2176.91 906.8 2177.18C906.587 2177.58 906.107 2177.76 905.689 2177.59C905.037 2177.33 904.399 2177.04 903.782 2176.71C903.274 2176.43 902.774 2176.14 902.286 2175.82C902.108 2175.71 901.937 2175.59 901.765 2175.47C901.065 2174.98 900.393 2174.46 899.755 2173.89C899.529 2173.68 899.399 2173.41 899.357 2173.14L900.023 2171.87L900.03 2171.88Z" fill="#F5B297"/>
<path d="M899.664 2172.16C899.774 2172.03 899.898 2171.95 900.035 2171.88L899.369 2173.15C899.321 2172.8 899.417 2172.44 899.664 2172.16Z" fill="#F5B297"/>
<path d="M906.558 2176.26L906.585 2176.12C905.789 2175.96 902.956 2173.93 902.922 2173.91L902.84 2174.02C902.956 2174.1 905.728 2176.09 906.551 2176.26H906.558Z" fill="black"/>
<path d="M906.368 2174.22L906.409 2174.09C906.073 2173.99 904.097 2172.8 904.076 2172.79L904.008 2172.91C904.09 2172.95 906.018 2174.11 906.368 2174.22Z" fill="black"/>
<path d="M901.736 2175.53L903.719 2176.82L903.76 2176.76L903.794 2176.71L902.361 2175.77L901.812 2175.42L901.771 2175.47L901.736 2175.53Z" fill="black"/>
<path d="M901.237 2168.15L897.779 2175.36L877.043 2167.21L876.81 2167.12L876.425 2166.88L863.152 2159.54C862.775 2174.88 862.878 2176.79 862.761 2183.99C862.747 2184.79 862.734 2185.65 862.713 2186.6H855.764L855.346 2187.67L852.28 2186.6H836.118C836.029 2184.62 835.961 2182.72 835.913 2180.87L831.008 2179.16L830 2178.81C827.99 2178.11 826.343 2176.61 825.5 2174.66C825.493 2174.64 825.486 2174.62 825.472 2174.6C825.472 2174.59 825.459 2174.57 825.452 2174.55C824.622 2172.59 824.683 2170.36 825.568 2168.42C825.712 2168.1 825.863 2167.77 826.028 2167.41C828.998 2160.9 835.186 2147.39 835.474 2147C836.921 2145.1 838.89 2143.51 841.181 2142.79C842.059 2142.53 842.937 2142.31 843.829 2142.13C843.945 2142.1 844.069 2142.08 844.185 2142.06C847.005 2141.52 849.858 2141.41 852.691 2141.72C854.461 2141.91 856.231 2142.27 857.973 2142.79C859.297 2143.21 860.511 2143.92 861.581 2144.81L873.627 2153.67L881.282 2158.78L901.23 2168.15H901.237Z" fill="#A2C096"/>
<path d="M836.098 2157.75H835.92V2169.77H836.098V2157.75Z" fill="black"/>
<path d="M858.308 2180.12C858.583 2180.11 858.864 2180.18 859.118 2180.34C859.159 2180.37 859.193 2180.4 859.228 2180.42C859.605 2180.74 859.996 2181.04 860.394 2181.32C861.848 2182.35 863.439 2183.2 865.134 2183.78C865.634 2183.95 865.902 2184.5 865.73 2185C865.566 2185.47 865.079 2185.73 864.605 2185.62C864.118 2185.51 863.645 2185.36 863.179 2185.19C863.096 2185.16 863.014 2185.13 862.932 2185.1C862.575 2184.95 862.218 2184.79 861.875 2184.62H861.869C861.807 2184.6 861.745 2184.56 861.683 2184.53C860.394 2183.87 859.173 2183.05 857.931 2182.23L857.629 2182.57C857.513 2182.5 857.417 2182.4 857.334 2182.3C857.3 2182.25 857.266 2182.21 857.238 2182.16L858.308 2180.13V2180.12Z" fill="#F5B297"/>
<path d="M857.341 2182.29C857.341 2182.29 857.368 2182.26 857.382 2182.23C857.814 2181.71 858.589 2181.64 859.104 2182.08C859.138 2182.1 859.166 2182.13 859.193 2182.16C859.968 2182.95 860.819 2183.68 861.738 2184.32C861.916 2184.45 862.102 2184.57 862.294 2184.69C862.294 2184.69 862.294 2184.69 862.3 2184.69C862.513 2184.83 862.719 2184.96 862.938 2185.08C863.014 2185.13 863.096 2185.17 863.172 2185.22C863.528 2185.42 863.899 2185.61 864.269 2185.78C864.708 2185.99 864.9 2186.51 864.694 2186.95C864.502 2187.37 864.029 2187.56 863.604 2187.41C863.597 2187.41 863.583 2187.41 863.576 2187.41C863.487 2187.38 863.398 2187.34 863.309 2187.31C863.172 2187.26 863.034 2187.21 862.897 2187.15C862.095 2186.84 861.313 2186.46 860.558 2186.04C859.488 2185.44 858.473 2184.74 857.533 2183.95C857.197 2183.66 857.046 2183.24 857.101 2182.83C857.128 2182.63 857.204 2182.44 857.327 2182.28L857.341 2182.29Z" fill="#F5B297"/>
<path d="M856.45 2183.23C856.559 2183.11 856.683 2183.02 856.82 2182.95L856.155 2184.22C856.107 2183.87 856.203 2183.51 856.45 2183.23Z" fill="#F5B297"/>
<path d="M856.821 2182.95C856.91 2182.9 857.013 2182.87 857.109 2182.85C857.479 2182.76 857.877 2182.86 858.179 2183.13C858.213 2183.15 858.241 2183.18 858.268 2183.22C859.091 2184.11 859.997 2184.94 860.984 2185.67C861.691 2186.19 862.432 2186.65 863.214 2187.06C863.372 2187.15 863.502 2187.27 863.584 2187.42C863.721 2187.67 863.735 2187.98 863.591 2188.25C863.378 2188.66 862.898 2188.83 862.48 2188.66C861.828 2188.4 861.19 2188.11 860.573 2187.78C860.065 2187.5 859.565 2187.21 859.077 2186.89C858.899 2186.78 858.728 2186.66 858.556 2186.54C857.856 2186.06 857.184 2185.53 856.546 2184.96C856.32 2184.75 856.19 2184.49 856.148 2184.21L856.814 2182.94L856.821 2182.95Z" fill="#F5B297"/>
<path d="M856.45 2183.23C856.559 2183.11 856.683 2183.02 856.82 2182.95L856.155 2184.22C856.107 2183.87 856.203 2183.51 856.45 2183.23Z" fill="#F5B297"/>
<path d="M856.327 2181.91L857.486 2179.9C857.76 2179.88 858.865 2180.18 859.112 2180.34C859.153 2180.37 859.187 2180.4 859.221 2180.42C859.599 2180.74 859.99 2181.03 860.387 2181.32L861.32 2182.42C861.732 2182.98 861.869 2183.68 861.739 2184.32C861.739 2184.33 861.739 2184.35 861.725 2184.37C861.718 2184.42 861.704 2184.46 861.691 2184.51C861.691 2184.51 861.691 2184.51 861.691 2184.52C861.615 2184.78 861.492 2185.03 861.327 2185.25C861.224 2185.4 861.108 2185.53 860.991 2185.66C860.957 2185.7 860.916 2185.73 860.881 2185.77C860.847 2185.81 860.813 2185.84 860.778 2185.88C860.717 2185.94 860.648 2185.99 860.579 2186.06C860.147 2186.41 859.667 2186.68 859.153 2186.85C859.125 2186.87 859.091 2186.87 859.064 2186.88C859.07 2186.88 859.084 2186.89 859.091 2186.9C859.653 2187.33 860.099 2187.64 860.285 2187.71C860.387 2187.73 860.477 2187.78 860.552 2187.83L860.511 2187.89L858.528 2186.61L858.57 2186.55C857.87 2186.06 857.198 2185.53 856.56 2184.97C856.333 2184.76 855.97 2184.57 855.936 2184.29C855.936 2184.29 856.368 2181.95 856.34 2181.91H856.327Z" fill="#F5B297"/>
<path d="M863.351 2187.33L863.378 2187.2C862.582 2187.03 859.749 2185 859.715 2184.98L859.633 2185.09C859.749 2185.17 862.521 2187.16 863.344 2187.33H863.351Z" fill="black"/>
<path d="M863.159 2185.29L863.2 2185.16C862.864 2185.06 860.888 2183.88 860.867 2183.86L860.799 2183.98C860.881 2184.03 862.809 2185.19 863.159 2185.29Z" fill="black"/>
<path d="M858.521 2186.61L860.511 2187.89L860.545 2187.84L860.579 2187.78L860.586 2187.78L859.153 2186.85L858.597 2186.5L858.563 2186.55L858.521 2186.61Z" fill="black"/>
<path d="M856.553 2184.97C857.191 2185.54 857.863 2186.07 858.563 2186.56L858.522 2186.62L860.504 2187.9L860.545 2187.84C860.765 2188 860.888 2188.29 860.826 2188.58C860.771 2188.86 860.573 2189.06 860.319 2189.14C860.202 2189.17 860.079 2189.18 859.948 2189.16C859.413 2189.05 855.723 2186.62 855.249 2186.28L855.119 2186.17L855.977 2184.15C856.018 2184.42 856.32 2184.76 856.546 2184.96L856.553 2184.97Z" fill="#F5B297"/>
<path d="M858.686 2182.37H858.741H858.782H858.865L859.029 2182.37C859.132 2182.37 859.242 2182.37 859.345 2182.37C859.557 2182.37 859.763 2182.37 859.969 2182.35C860.388 2182.33 860.799 2182.29 861.211 2182.23C861.629 2182.16 862.041 2182.08 862.459 2181.96C862.878 2181.84 863.289 2181.67 863.694 2181.45C864.071 2181.24 864.215 2180.77 864.003 2180.38C863.831 2180.07 863.481 2179.92 863.159 2179.99L863.083 2180.01C862.788 2180.07 862.473 2180.1 862.15 2180.1C861.828 2180.1 861.492 2180.07 861.156 2180.02C860.82 2179.97 860.484 2179.91 860.147 2179.83C859.983 2179.79 859.818 2179.75 859.654 2179.7C859.571 2179.68 859.489 2179.66 859.413 2179.64L859.297 2179.6L859.242 2179.58H859.215C859.215 2179.58 859.208 2179.57 859.201 2179.57C858.474 2179.22 857.596 2179.53 857.246 2180.25C856.896 2180.98 857.205 2181.86 857.932 2182.21C858.096 2182.28 858.268 2182.33 858.439 2182.35L858.679 2182.37H858.686Z" fill="#F5B297"/>
<path d="M834.588 2169.17L859.18 2179.46L857.382 2183.3L855.338 2187.67L835.905 2180.87L834.588 2169.17Z" fill="#A2C096"/>
<path d="M834.831 2168.62L834.793 2168.7L858.982 2180.02L859.019 2179.94L834.831 2168.62Z" fill="black"/>
<path d="M855.312 2187.61L835.92 2180.83L835.893 2180.91L855.326 2187.71L855.312 2187.61Z" fill="black"/>
<path d="M859.221 2157.24L859.135 2157.4L863.099 2159.6L863.185 2159.45L859.221 2157.24Z" fill="black"/>
<path d="M779.978 2165.36L774.477 2157.49L782.948 2152.59L786.803 2157.54L779.978 2165.36Z" fill="#F5B297"/>
<path d="M780.954 2164.25C780.954 2164.25 782.936 2156.22 782.147 2153.06L785.357 2159.32L780.83 2164.4L780.96 2164.26L780.954 2164.25Z" fill="#D19881"/>
<path d="M791.022 2151.48C791.948 2155.84 790.343 2159.87 787.434 2160.49C784.533 2161.11 781.425 2158.08 780.506 2153.71C779.58 2149.36 781.185 2145.32 784.094 2144.71C787.002 2144.09 790.103 2147.12 791.022 2151.48Z" fill="#F5B297"/>
<path d="M785.913 2152.92C783.917 2153.42 781.825 2153.36 779.849 2152.73C779.033 2152.48 778.703 2151.58 779.088 2150.85C779.239 2150.55 779.389 2150.25 779.54 2149.95C779.924 2149.21 780.638 2148.93 781.173 2149.24C782.538 2149.99 784.081 2150.35 785.652 2150.28C786.276 2150.26 786.887 2150.54 787.01 2151.01C787.058 2151.21 787.106 2151.4 787.148 2151.6C787.271 2152.06 786.729 2152.72 785.913 2152.92Z" fill="#979695"/>
<path d="M790.302 2157.29L789.945 2156.86L789.369 2157.12L788.971 2156.64L788.395 2156.9L787.949 2156.36L788.086 2156.25L788.443 2156.68L789.019 2156.42L789.417 2156.9L789.993 2156.64L790.439 2157.18L790.302 2157.29Z" fill="#201600"/>
<path d="M791.242 2152.75C791.358 2153.01 791.653 2154.86 791.77 2155.64C791.797 2155.83 791.612 2155.98 791.372 2155.98H790.844L791.242 2152.75V2152.75Z" fill="#F5B297"/>
<path d="M788.258 2150.05L788.094 2149.98C788.121 2149.92 788.402 2149.38 790.11 2149.71L790.076 2149.89C788.512 2149.58 788.258 2150.04 788.258 2150.05Z" fill="#979695"/>
<path d="M789.555 2154.34C789.555 2154.34 789.521 2154.34 789.5 2154.34C788.753 2154.3 788.197 2153.32 788.265 2152.18C788.3 2151.63 788.464 2151.12 788.739 2150.74C789.02 2150.35 789.377 2150.15 789.747 2150.17C790.495 2150.22 791.05 2151.19 790.982 2152.34C790.948 2152.88 790.783 2153.39 790.509 2153.77C790.241 2154.14 789.905 2154.34 789.555 2154.34ZM789.692 2150.35C789.397 2150.35 789.116 2150.52 788.883 2150.85C788.629 2151.2 788.478 2151.67 788.444 2152.18C788.382 2153.23 788.862 2154.12 789.514 2154.16C789.816 2154.18 790.124 2154 790.365 2153.67C790.618 2153.32 790.769 2152.84 790.804 2152.33C790.865 2151.28 790.385 2150.39 789.733 2150.35C789.72 2150.35 789.706 2150.35 789.692 2150.35Z" fill="#201600"/>
<path d="M782.936 2151.05L782.902 2151.23L788.34 2152.26L788.373 2152.09L782.936 2151.05Z" fill="#201600"/>
<path d="M784.677 2152.49C784.794 2153.35 784.19 2154.14 783.326 2154.26C782.469 2154.37 781.68 2153.77 781.563 2152.9C781.447 2152.05 782.05 2151.26 782.915 2151.14C783.772 2151.02 784.561 2151.63 784.677 2152.49Z" fill="#F5B297"/>
<path d="M783.894 2151.93L782.326 2152.34L782.371 2152.51L783.938 2152.1L783.894 2151.93Z" fill="#201600"/>
<path d="M790.111 2152.38C790.159 2152.59 790.09 2152.79 789.967 2152.81C789.843 2152.84 789.706 2152.68 789.665 2152.46C789.624 2152.25 789.686 2152.05 789.809 2152.03C789.933 2152 790.07 2152.16 790.111 2152.38Z" fill="#201600"/>
<path d="M770.567 2256.72C770.43 2257.48 772.44 2258.64 775.053 2259.3C777.667 2259.95 779.896 2259.86 780.033 2259.09C780.171 2258.32 778.161 2257.16 775.547 2256.51C772.934 2255.86 770.704 2255.95 770.567 2256.72Z" fill="black"/>
<path d="M765.273 2251.83L765.472 2260.32L772.819 2259.8L772.106 2251.35L765.273 2251.83Z" fill="#979695"/>
<path d="M765.308 2255.36L765.164 2261.35L780.2 2261.81C780.55 2261.82 780.838 2261.46 780.818 2261.04C780.715 2259.05 779.953 2257.87 777.69 2257.8C774.658 2257.71 766.22 2256.83 765.308 2255.37V2255.36Z" fill="black"/>
<path d="M770.876 2194.7L779.012 2227.24L779.348 2228.59L779.19 2229.26L773.126 2255.69L762.995 2254.29L766.589 2227.52L766.768 2229.55L751.779 2198.3L770.876 2194.7Z" fill="#735846"/>
<path d="M766.15 2256.63C765.999 2257.4 768.235 2258.56 771.15 2259.21C774.066 2259.87 776.549 2259.77 776.707 2259C776.858 2258.23 774.621 2257.07 771.706 2256.42C768.791 2255.76 766.308 2255.86 766.15 2256.63Z" fill="black"/>
<path d="M760.223 2251.74L760.552 2260.24L770.1 2259.78L769.113 2251.31L760.223 2251.74Z" fill="#979695"/>
<path d="M760.279 2255.27L760.121 2261.26L776.893 2261.72C777.284 2261.73 777.606 2261.37 777.579 2260.95C777.469 2258.96 776.612 2257.78 774.094 2257.71C770.712 2257.62 761.294 2256.74 760.279 2255.28V2255.27Z" fill="black"/>
<path d="M777.345 2261.73L777.262 2261.7C777.461 2261.16 777.42 2260.62 777.139 2260.13C776.014 2258.15 771.466 2257.25 771.418 2257.24L771.432 2257.15C771.624 2257.18 776.069 2258.07 777.207 2260.08C777.502 2260.6 777.55 2261.16 777.338 2261.73H777.345Z" fill="white"/>
<path d="M776.028 2227.02L767.893 2194.47L762.782 2195.43C763.05 2190.07 760.361 2185.56 756.663 2185.27C752.877 2184.99 749.468 2189.24 749.049 2194.77C748.967 2195.89 749.008 2196.98 749.166 2198L749.481 2199.49C749.845 2200.81 750.407 2201.97 751.121 2202.91L763.434 2228.59L760.011 2254.06L770.149 2255.47L776.213 2229.05L776.371 2228.37L776.035 2227.02L776.028 2227.02Z" fill="#94765A"/>
<path d="M800.782 2191.49L798.648 2191.95L812.034 2254.54L814.167 2254.09L800.782 2191.49Z" fill="#735846"/>
<path d="M801.853 2191.13C801.564 2192.02 798.793 2192.15 796.523 2193.74C794.142 2195.17 792.915 2197.66 791.975 2197.55C791.543 2197.48 791.179 2196.54 791.508 2195.16C791.817 2193.8 792.812 2192 794.643 2190.84C796.44 2189.64 798.491 2189.45 799.856 2189.72C801.256 2189.98 801.962 2190.69 801.859 2191.12L801.853 2191.13Z" fill="#94765A"/>
<path d="M815.402 2256.55L811.931 2257.28L811.801 2254.18L814.263 2253.66L815.402 2256.55Z" fill="#201600"/>
<path d="M783.093 2200.53C784.054 2201.3 783.875 2203.12 782.702 2204.58C781.523 2206.05 779.794 2206.61 778.834 2205.84C777.873 2205.07 778.052 2203.25 779.225 2201.79C780.404 2200.32 782.133 2199.76 783.093 2200.53Z" fill="#F5B297"/>
<path d="M777.497 2186.39L776.989 2171.94L769.409 2166.49L767.31 2185.38L767.207 2185.58C766.295 2187.37 777.956 2205.4 777.956 2205.4L783.128 2200.44L777.49 2186.39H777.497Z" fill="#5D9142"/>
<path d="M781.2 2206.34L779.656 2204.46C779.444 2204.2 779.067 2204.17 778.806 2204.38C778.573 2204.57 778.518 2204.91 778.676 2205.16L779.945 2207.23C780.164 2207.6 780.644 2207.71 781.008 2207.49C781.371 2207.27 781.488 2206.79 781.262 2206.42C781.241 2206.39 781.22 2206.36 781.2 2206.33V2206.34Z" fill="#F5B297"/>
<path d="M782.516 2205.48L780.986 2203.51C780.733 2203.18 780.259 2203.13 779.93 2203.38C779.621 2203.62 779.553 2204.06 779.765 2204.39L781.124 2206.46C781.384 2206.86 781.913 2206.97 782.304 2206.71C782.701 2206.45 782.811 2205.92 782.55 2205.53C782.537 2205.51 782.523 2205.49 782.509 2205.48H782.516Z" fill="#F5B297"/>
<path d="M783.594 2204.35L782.078 2202.79C781.804 2202.51 781.358 2202.51 781.083 2202.78C780.823 2203.03 780.802 2203.45 781.022 2203.72L782.366 2205.43C782.647 2205.78 783.162 2205.85 783.512 2205.56C783.868 2205.28 783.923 2204.77 783.649 2204.42C783.628 2204.4 783.615 2204.38 783.594 2204.36V2204.35Z" fill="#F5B297"/>
<path d="M784.828 2203.47L783.031 2201.75C782.743 2201.48 782.29 2201.48 782.016 2201.77C781.762 2202.04 781.755 2202.45 781.982 2202.73L783.58 2204.63C783.882 2205 784.417 2205.04 784.78 2204.74C785.144 2204.43 785.185 2203.9 784.883 2203.54C784.863 2203.51 784.842 2203.49 784.821 2203.47L784.828 2203.47Z" fill="#F5B297"/>
<path d="M779.868 2207.28L778.599 2205.21C778.421 2204.91 778.483 2204.53 778.75 2204.31C779.059 2204.06 779.669 2204.3 779.903 2204.58L779.765 2204.69C779.58 2204.47 779.079 2204.27 778.86 2204.45C778.661 2204.61 778.613 2204.9 778.75 2205.11L780.019 2207.18L779.868 2207.28Z" fill="black"/>
<path d="M781.057 2206.6L779.699 2204.52C779.466 2204.16 779.548 2203.66 779.884 2203.4C780.063 2203.26 780.261 2203.2 780.46 2203.23C780.652 2203.25 780.831 2203.36 780.975 2203.54L780.838 2203.65C780.728 2203.51 780.591 2203.42 780.44 2203.4C780.289 2203.38 780.138 2203.42 780.001 2203.53C779.733 2203.75 779.665 2204.13 779.857 2204.42L781.215 2206.5L781.064 2206.59L781.057 2206.6Z" fill="black"/>
<path d="M782.298 2205.48L780.954 2203.77C780.7 2203.45 780.734 2203 781.023 2202.71C781.338 2202.41 781.839 2202.42 782.148 2202.73L783.663 2204.28C783.663 2204.28 783.705 2204.33 783.725 2204.35L783.588 2204.46C783.588 2204.46 783.554 2204.42 783.54 2204.41L782.024 2202.85C781.791 2202.6 781.4 2202.6 781.153 2202.83C780.927 2203.05 780.906 2203.41 781.098 2203.66L782.442 2205.37L782.305 2205.48L782.298 2205.48Z" fill="black"/>
<path d="M784.822 2203.6C784.822 2203.6 784.788 2203.56 784.768 2203.53L782.97 2201.81C782.723 2201.57 782.326 2201.58 782.085 2201.83C781.866 2202.07 781.852 2202.42 782.058 2202.67L781.921 2202.79C781.66 2202.47 781.674 2202.01 781.955 2201.71C782.264 2201.39 782.771 2201.38 783.094 2201.69L784.891 2203.41C784.891 2203.41 784.939 2203.46 784.96 2203.49L784.822 2203.6V2203.6Z" fill="#72A15C"/>
<path d="M777.064 2155.94C773.195 2157.05 768.592 2159.27 764.593 2162.82C755.882 2169.77 749.145 2182.5 749.324 2192.35C756.156 2194.31 765.704 2198.35 772.537 2200.31C772.427 2192.74 772.537 2179.98 776.989 2171.94C778.004 2169.86 779.163 2167.95 780.295 2166.22C781.001 2165.15 777.256 2157.24 777.057 2155.94H777.064Z" fill="#72A15C"/>
<path d="M766.243 2172.87L766.082 2172.95L772.301 2185.99L772.462 2185.91L766.243 2172.87Z" fill="#201600"/>
<path d="M778.668 2169.02L774.395 2157.03L774.559 2156.97L778.702 2168.6L780.307 2165.86L780.465 2165.96L778.668 2169.02Z" fill="#201600"/>
<path d="M795.858 2193.51C794.582 2194.9 792.325 2194.89 790.816 2193.51C789.307 2192.12 789.115 2189.87 790.384 2188.49C791.66 2187.1 793.916 2187.11 795.426 2188.49C796.935 2189.88 797.127 2192.13 795.858 2193.51Z" fill="#F5B297"/>
<path d="M793.19 2192.9L795.666 2193.86C796.009 2193.99 796.174 2194.37 796.044 2194.71C795.92 2195.02 795.591 2195.19 795.275 2195.12L792.689 2194.51C792.237 2194.4 791.955 2193.94 792.058 2193.49C792.168 2193.04 792.621 2192.76 793.074 2192.86C793.108 2192.87 793.149 2192.88 793.183 2192.9H793.19Z" fill="#F5B297"/>
<path d="M793.641 2191.23L796.2 2192.15C796.625 2192.3 796.852 2192.77 796.694 2193.2C796.55 2193.6 796.118 2193.82 795.706 2193.71L793.079 2193.01C792.578 2192.88 792.283 2192.37 792.42 2191.87C792.558 2191.37 793.065 2191.07 793.566 2191.21C793.593 2191.21 793.614 2191.22 793.641 2191.23Z" fill="#F5B297"/>
<path d="M794.438 2189.73L796.578 2190.77C796.962 2190.95 797.12 2191.42 796.935 2191.8C796.763 2192.15 796.345 2192.32 795.974 2192.18L793.738 2191.37C793.272 2191.19 793.038 2190.68 793.203 2190.22C793.375 2189.75 793.889 2189.52 794.349 2189.69C794.376 2189.7 794.403 2189.71 794.431 2189.72L794.438 2189.73Z" fill="#F5B297"/>
<path d="M794.933 2188.15L797.341 2189.43C797.725 2189.64 797.869 2190.11 797.663 2190.49C797.471 2190.85 797.046 2191 796.682 2190.85L794.151 2189.84C793.671 2189.65 793.438 2189.11 793.63 2188.63C793.822 2188.15 794.364 2187.92 794.844 2188.11C794.878 2188.12 794.906 2188.13 794.933 2188.15Z" fill="#F5B297"/>
<path d="M794.689 2189.75L794.609 2189.91L796.646 2190.93L796.726 2190.77L794.689 2189.75Z" fill="black"/>
<path d="M794.266 2191.26L794.197 2191.42L796.238 2192.27L796.306 2192.1L794.266 2191.26Z" fill="black"/>
<path d="M793.744 2193.1L793.691 2193.27L795.521 2193.83L795.574 2193.66L793.744 2193.1Z" fill="black"/>
<path d="M781.218 2179.14L776.396 2163.93L763.26 2167.36L772.26 2184.09L772.287 2184.32C772.555 2186.31 792.392 2194.52 792.392 2194.52L793.833 2187.5L781.211 2179.15L781.218 2179.14Z" fill="#72A15C"/>
</g>
<g clip-path="url(#clip2_1755_9266)">
<path d="M354.233 1458H304.975V1582.93H354.233V1458Z" fill="#D7DBDD"/>
<path d="M319.669 1484.27H314.643V1494.65H319.669V1484.27Z" fill="#A8CDDD"/>
<path d="M332.114 1484.27H327.088V1494.65H332.114V1484.27Z" fill="#A8CDDD"/>
<path d="M344.56 1484.27H339.533V1494.65H344.56V1484.27Z" fill="#A8CDDD"/>
<path d="M319.669 1466.07H314.643V1476.44H319.669V1466.07Z" fill="#A8CDDD"/>
<path d="M332.114 1466.07H327.088V1476.44H332.114V1466.07Z" fill="#A8CDDD"/>
<path d="M344.56 1466.07H339.533V1476.44H344.56V1466.07Z" fill="#A8CDDD"/>
<path d="M319.669 1502.47H314.643V1512.84H319.669V1502.47Z" fill="#A8CDDD"/>
<path d="M332.114 1502.47H327.088V1512.84H332.114V1502.47Z" fill="#A8CDDD"/>
<path d="M344.56 1502.47H339.533V1512.84H344.56V1502.47Z" fill="#A8CDDD"/>
<path d="M319.669 1520.67H314.643V1531.04H319.669V1520.67Z" fill="#A8CDDD"/>
<path d="M332.114 1520.67H327.088V1531.04H332.114V1520.67Z" fill="#A8CDDD"/>
<path d="M344.56 1520.67H339.533V1531.04H344.56V1520.67Z" fill="#A8CDDD"/>
<path d="M319.669 1538.87H314.643V1549.24H319.669V1538.87Z" fill="#A8CDDD"/>
<path d="M332.114 1538.87H327.088V1549.24H332.114V1538.87Z" fill="#A8CDDD"/>
<path d="M344.56 1538.87H339.533V1549.24H344.56V1538.87Z" fill="#A8CDDD"/>
<path d="M319.669 1557.06H314.643V1567.44H319.669V1557.06Z" fill="#A8CDDD"/>
<path d="M344.56 1557.06H339.533V1567.44H344.56V1557.06Z" fill="#A8CDDD"/>
<path d="M334.047 1567.19H325.156V1582.93H334.047V1567.19Z" fill="#A8CDDD"/>
<path d="M308.58 1582.71H268.029V1504.16L308.58 1481.75V1582.71Z" fill="#EDEDEB"/>
<path d="M287.624 1505.99H282.707V1516.14H287.624V1505.99Z" fill="#A8CDDD"/>
<path d="M299.798 1505.99H294.881V1516.14H299.798V1505.99Z" fill="#A8CDDD"/>
<path d="M287.624 1523.79H282.707V1533.94H287.624V1523.79Z" fill="#A8CDDD"/>
<path d="M299.798 1523.79H294.881V1533.94H299.798V1523.79Z" fill="#A8CDDD"/>
<path d="M287.624 1541.59H282.707V1551.74H287.624V1541.59Z" fill="#A8CDDD"/>
<path d="M299.798 1541.59H294.881V1551.74H299.798V1541.59Z" fill="#A8CDDD"/>
<path d="M299.798 1559.39H294.881V1569.54H299.798V1559.39Z" fill="#A8CDDD"/>
<path d="M288.844 1567.32H280.143V1582.71H288.844V1567.32Z" fill="#A8CDDD"/>
<path d="M380.062 1582.71H339.994V1542.6L360.025 1531.73L380.062 1542.6V1582.71Z" fill="#F4F3ED"/>
<path d="M360.023 1528.79L335.949 1543.25H384.103L360.023 1528.79Z" fill="#A37866"/>
<path d="M361.727 1549.08H358.328V1553.77H361.727V1549.08Z" fill="#A8CDDD"/>
<path d="M361.727 1557.3H358.328V1562H361.727V1557.3Z" fill="#A8CDDD"/>
<path d="M363.067 1570.74H356.988V1582.72H363.067V1570.74Z" fill="#A8CDDD"/>
<path d="M275.662 1542.69C275.409 1537.56 272.153 1533.33 267.765 1531.73C267.857 1531.12 267.909 1530.48 267.909 1529.83C267.909 1525.18 264.447 1521.41 260.18 1521.41C258.937 1521.41 257.724 1521.77 256.643 1522.41C255.09 1520.81 252.974 1519.82 250.644 1519.82C246.158 1519.82 242.006 1523.95 242.006 1529.03C242.006 1529.44 242.023 1529.84 242.052 1530.24C238.912 1531.26 236.221 1534.13 235.64 1537.87C235.088 1541.41 235.548 1544.64 238.072 1546.64C236.416 1549.11 235.542 1552.18 235.916 1555.37C236.75 1562.49 240.304 1567.93 249.931 1566.8C252.473 1566.5 254.526 1565.78 256.148 1564.72C257.615 1566.09 259.783 1566.91 262.883 1566.91C269.531 1566.91 272.297 1562.45 272.297 1556.94C272.297 1555.61 272.044 1554.34 271.596 1553.17C274.661 1550.84 275.886 1546.99 275.673 1542.69H275.662Z" fill="#A6CE4E"/>
<path d="M263.336 1554.8C261.651 1557.22 259.73 1559.73 257.125 1561.17L256.515 1551C256.78 1550.82 256.981 1550.63 257.234 1550.41C259.184 1548.54 260.461 1546.11 261.582 1543.69C260.173 1545.9 258.649 1548.29 256.441 1549.76L255.762 1538.41L254.894 1552.95C253.617 1552.04 252.438 1550.9 251.46 1549.71C250.046 1548 248.97 1546.04 248.205 1543.96C249.212 1548.07 251.46 1551.88 254.802 1554.54L254.238 1563.93C252.967 1562.83 251.777 1561.6 250.73 1560.33C248.775 1557.99 247.204 1555.35 246.031 1552.53C247.527 1557.64 250.299 1562.35 254.112 1566.09L253.053 1583.85H258.482L257.234 1562.92C260.691 1560.8 262.709 1557.03 264.412 1553.49L265.073 1551.94C264.671 1552.67 263.802 1554.11 263.342 1554.8H263.336Z" fill="#775645"/>
<path d="M236.639 1551.28L234.695 1583.88H238.589L236.639 1551.28Z" fill="#775645"/>
<path d="M247.786 1570.46L244.87 1566.66C246.716 1566.63 247.751 1564.5 246.624 1563.03L243.185 1558.55C244.847 1558.13 245.663 1556.08 244.536 1554.61L241.195 1550.26H241.931C243.167 1550.26 243.869 1548.84 243.116 1547.86L237.83 1541.9C237.232 1541.12 236.059 1541.12 235.461 1541.9L230.176 1547.86C229.422 1548.84 230.124 1550.26 231.36 1550.26H232.097L228.755 1554.61C227.628 1556.08 228.445 1558.13 230.107 1558.55L226.668 1563.03C225.535 1564.5 226.57 1566.63 228.422 1566.66L225.506 1570.46C224.281 1572.06 225.42 1574.36 227.432 1574.36H245.87C247.883 1574.36 249.016 1572.06 247.797 1570.46H247.786Z" fill="#5FAA4F"/>
</g>
<g clip-path="url(#clip3_1755_9266)">
<path d="M1012 1184H950.994V1190.29H1012V1184Z" fill="#2A8EC6"/>
<path d="M1008.14 1190.29H954.855V1286H1008.14V1190.29Z" fill="#A9D4EA"/>
<path d="M970.753 1200.4H965.314V1211.73H970.753V1200.4Z" fill="white"/>
<path d="M984.22 1200.4H978.781V1211.73H984.22V1200.4Z" fill="white"/>
<path d="M997.679 1200.4H992.24V1211.73H997.679V1200.4Z" fill="white"/>
<path d="M984.22 1222.47H978.781V1233.8H984.22V1222.47Z" fill="white"/>
<path d="M970.753 1244.54H965.314V1255.86H970.753V1244.54Z" fill="white"/>
<path d="M997.679 1244.54H992.24V1255.86H997.679V1244.54Z" fill="white"/>
<path d="M986.309 1268.83H976.686V1286H986.309V1268.83Z" fill="white"/>
<path d="M945.657 1286H904.277V1245.43L924.967 1232.88L945.657 1245.43V1286Z" fill="#A9D4EA"/>
<path d="M928.847 1270.59H921.092V1286.01H928.847V1270.59Z" fill="white"/>
<path d="M924.966 1229.82L900.098 1244.88L901.908 1247.45L924.966 1233.18L948.03 1247.45L949.834 1244.88L924.966 1229.82Z" fill="#2A8EC6"/>
<path d="M927.418 1242.87H922.518V1249.69H927.418V1242.87Z" fill="white"/>
<path d="M927.418 1254.84H922.518V1261.66H927.418V1254.84Z" fill="white"/>
<path d="M894.356 1286H837.465V1252.86L865.91 1238.68L894.356 1252.86V1286Z" fill="#A9D4EA"/>
<path d="M869.911 1270.82H862.27V1286H869.911V1270.82Z" fill="white"/>
<path d="M865.91 1234.89L831.723 1251.94L834.204 1254.84L865.91 1238.7L897.616 1254.84L900.098 1251.94L865.91 1234.89Z" fill="#2A8EC6"/>
<path d="M853.261 1254.06H847.5V1259.88H853.261V1254.06Z" fill="white"/>
<path d="M868.791 1254.06H863.029V1259.88H868.791V1254.06Z" fill="white"/>
<path d="M884.316 1254.06H878.555V1259.88H884.316V1254.06Z" fill="white"/>
<path d="M853.261 1269.23H847.5V1275.05H853.261V1269.23Z" fill="white"/>
<path d="M884.316 1269.23H878.555V1275.05H884.316V1269.23Z" fill="white"/>
<path d="M816.673 1253.32L814.818 1284.65H818.528L816.673 1253.32Z" fill="#2A8EC6"/>
<path d="M815.547 1244.3L810.514 1250.03C809.799 1250.97 810.464 1252.34 811.641 1252.34H821.714C822.891 1252.34 823.563 1250.97 822.841 1250.03L817.808 1244.3C817.238 1243.56 816.117 1243.56 815.547 1244.3Z" fill="#2A8EC6"/>
<path d="M814.453 1249.57L809.679 1255.85C808.267 1257.7 809.578 1260.39 811.901 1260.39H821.448C823.772 1260.39 825.082 1257.7 823.671 1255.85L818.897 1249.57C817.776 1248.09 815.573 1248.09 814.453 1249.57Z" fill="#2A8EC6"/>
<path d="M814.667 1254.76L807.639 1264C806.36 1265.68 807.551 1268.1 809.646 1268.1H823.708C825.803 1268.1 826.987 1265.68 825.714 1264L818.687 1254.76C817.674 1253.43 815.686 1253.43 814.673 1254.76H814.667Z" fill="#2A8EC6"/>
<path d="M814.521 1260.64L806.562 1271.09C805.195 1272.89 806.468 1275.5 808.715 1275.5H824.625C826.879 1275.5 828.151 1272.89 826.778 1271.09L818.819 1260.63C817.73 1259.2 815.597 1259.2 814.508 1260.63L814.521 1260.64Z" fill="#2A8EC6"/>
</g>
<g clip-path="url(#clip4_1755_9266)">
<path d="M235.375 663.773C235.205 664.545 235.085 665.317 234.972 666.082C234.859 666.847 234.767 667.612 234.682 668.377C234.52 669.907 234.399 671.423 234.322 672.945C234.159 675.977 234.152 678.994 234.244 681.997L234.286 682.571C234.138 687.762 236.125 715.207 236.28 716.496L225.121 714.003C225.206 712.707 225.249 711.404 225.284 710.108C225.319 708.811 225.326 707.515 225.333 706.219C225.333 703.627 225.291 701.035 225.206 698.443C225.036 693.258 224.718 688.081 224.294 682.903L224.336 683.477C223.714 680.538 223.169 677.613 222.3 674.702C221.868 673.25 218.912 671.798 218.389 670.353C218.127 669.631 217.852 668.908 217.562 668.193C217.272 667.478 216.968 666.755 216.621 666.047L235.375 663.788V663.773Z" fill="#F5B297"/>
<path d="M240.841 720.83C240.58 720.894 233.034 721.007 233.034 721.007L227.702 718.443C224.69 716.899 223 715.504 223 715.504C221.493 714.597 224.053 708.747 225.56 709.654C225.885 710.093 226.168 710.567 226.641 710.851L235.552 716.255L235.842 716.304L240.438 717.119C243.345 718.188 241.563 720.653 240.841 720.837V720.83Z" fill="#DB5964"/>
<path d="M226.563 714.236H222.539V720.859H226.563V714.236Z" fill="#DB5964"/>
<path d="M228.113 682.294L223.12 644.686L204.486 649.388L215.589 683.696C215.737 684.093 215.78 684.525 215.702 684.936L212.506 712.728L221.529 715.653L228.205 684.893C228.304 684.348 228.318 683.795 228.24 683.243L228.113 682.287V682.294Z" fill="#F5B297"/>
<path d="M225.114 699.561L224.938 699.526L228.113 684.879C228.212 684.348 228.219 683.802 228.148 683.264L226.946 674.213L227.13 674.191L228.332 683.243C228.403 683.802 228.396 684.362 228.289 684.921L225.114 699.568V699.561Z" fill="#201600"/>
<path d="M228.197 720.689C227.935 720.753 220.39 720.866 220.39 720.866L215.058 718.303C212.045 716.759 210.355 715.363 210.355 715.363C208.849 714.457 211.409 708.607 212.915 709.513C213.24 709.952 213.523 710.427 213.997 710.71L221.528 715.668L227.794 716.978C230.7 718.048 228.918 720.512 228.197 720.696V720.689Z" fill="#DB5964"/>
<path d="M213.92 714.096H209.896V720.718H213.92V714.096Z" fill="#DB5964"/>
<path d="M229.265 719.697L229.089 719.647C229.251 719.024 229.152 718.465 228.799 717.983C227.413 716.099 222.583 715.879 222.533 715.879V715.695C222.745 715.702 227.505 715.922 228.947 717.877C229.336 718.408 229.442 719.017 229.265 719.697Z" fill="#201600"/>
<path d="M240.685 672.018C227.553 674.631 214.081 674.893 200.857 672.783C202.632 660.976 204.4 649.177 206.175 637.37C207.385 630.719 213.502 626.293 219.887 626.13C226.273 626.052 232.56 630.238 234.024 636.839C236.244 648.568 238.465 660.289 240.685 672.018Z" fill="#DDE1FE"/>
<path d="M237.857 613.445L216.119 606.773L229.555 579.526L239.258 581.212L237.857 613.445Z" fill="#735846"/>
<path d="M224.832 600.2L228.736 610.647L234.259 601.822L235.645 589.251L230.482 587.997L224.832 600.2Z" fill="#F5B297"/>
<path d="M225.793 598.132C225.793 598.132 232.469 593.281 235.319 592.226L229.244 590.682L225.793 598.14V598.132Z" fill="#D19881"/>
<path d="M228.954 578.103C229.668 577.373 230.58 577.104 230.99 577.515C231.407 577.919 231.16 578.839 230.453 579.569C229.739 580.298 228.826 580.568 228.416 580.157C227.999 579.753 228.246 578.832 228.954 578.103Z" fill="black"/>
<path d="M237.665 587.452C236.739 587.034 236.322 585.951 236.732 585.016C237.142 584.081 238.231 583.67 239.165 584.081C240.091 584.499 240.508 585.582 240.098 586.517C239.688 587.452 238.599 587.863 237.665 587.452Z" fill="#F5B297"/>
<path d="M238.469 584.773L238.383 584.936L239.677 585.62L239.763 585.457L238.469 584.773Z" fill="#201600"/>
<path d="M239.328 587.827C239.328 588.181 239.045 588.464 238.691 588.464C238.338 588.464 238.055 588.181 238.055 587.827C238.055 587.473 238.338 587.189 238.691 587.189C239.045 587.189 239.328 587.473 239.328 587.827Z" fill="#DB5964"/>
<path d="M239.018 585.604C238.127 590.916 235.03 594.825 232.095 594.329C229.167 593.834 227.512 589.131 228.41 583.819C229.301 578.507 232.399 574.597 235.334 575.093C238.261 575.589 239.916 580.292 239.018 585.604Z" fill="#F5B297"/>
<path d="M233.325 583.273C232.611 582.126 230.906 582.317 230.892 582.317L230.871 582.133C230.949 582.126 232.71 581.927 233.481 583.174L233.325 583.273Z" fill="#201600"/>
<path d="M238.613 584.598C237.835 583.493 236.145 583.783 236.131 583.783L236.096 583.606C236.166 583.592 237.92 583.287 238.762 584.491L238.613 584.598Z" fill="#201600"/>
<path d="M236.952 585.589C236.853 585.929 236.599 586.155 236.393 586.092C236.181 586.028 236.096 585.702 236.195 585.362C236.294 585.022 236.549 584.796 236.754 584.859C236.966 584.923 237.051 585.249 236.952 585.589Z" fill="black"/>
<path d="M232.532 584.442C232.447 584.789 232.199 585.023 231.987 584.966C231.775 584.909 231.676 584.591 231.761 584.244C231.846 583.896 232.093 583.663 232.305 583.719C232.517 583.776 232.616 584.095 232.532 584.442Z" fill="black"/>
<path d="M234.046 588.932L233.084 588.762L233.119 588.585L233.897 588.72L234.597 584.902L234.774 584.938L234.046 588.932Z" fill="#201600"/>
<path d="M230.914 589.662C231.55 591.043 234.329 591.341 234.358 591.341L234.337 591.525C234.216 591.511 231.423 591.213 230.744 589.74L230.914 589.662Z" fill="#201600"/>
<path d="M239.711 584.463C238.445 584.279 237.66 581.665 236.012 580.206C234.527 578.584 232.356 577.557 232.165 576.318C232.13 575.73 232.901 575.057 234.308 575.015C235.673 574.951 237.674 575.517 239.202 577.068C240.779 578.57 241.012 580.617 240.955 581.963C240.906 583.344 240.305 584.505 239.711 584.47V584.463Z" fill="#735846"/>
<path d="M236.995 579.42C236.471 580.504 234.399 580.213 232.716 580.893C230.948 581.332 229.124 583.563 228.049 582.997C227.554 582.678 227.568 580.752 227.95 579.399C228.311 578.074 229.661 576.077 231.387 575.56C233.091 574.972 234.873 575.603 235.955 576.467C237.08 577.338 237.2 578.882 236.995 579.427V579.42Z" fill="#735846"/>
<path d="M229.851 584.314C229.498 585.1 228.578 585.454 227.793 585.1C227.008 584.746 226.655 583.825 227.008 583.039C227.362 582.253 228.281 581.899 229.066 582.253C229.851 582.607 230.205 583.528 229.851 584.314Z" fill="#F5B297"/>
<path d="M227.822 582.901L227.803 583.084L228.921 583.2L228.94 583.017L227.822 582.901Z" fill="#201600"/>
<path d="M228.445 585.2C228.445 585.554 228.162 585.837 227.808 585.837C227.455 585.837 227.172 585.554 227.172 585.2C227.172 584.846 227.455 584.562 227.808 584.562C228.162 584.562 228.445 584.846 228.445 585.2Z" fill="#DB5964"/>
<path d="M232.243 586.85C232.073 587.176 231.486 587.212 230.942 586.921C230.39 586.631 230.086 586.135 230.256 585.809C230.426 585.483 231.013 585.448 231.557 585.738C232.109 586.029 232.413 586.525 232.243 586.85Z" fill="#D19881"/>
<path d="M235.367 587.629C235.367 587.998 235.862 588.302 236.485 588.302C237.107 588.302 237.609 588.012 237.609 587.644C237.609 587.275 237.114 586.971 236.492 586.971C235.869 586.971 235.367 587.261 235.367 587.629Z" fill="#D19881"/>
<path d="M218.099 659.574H216.14C216.14 654.673 213.057 650.685 209.266 650.685C205.476 650.685 202.392 654.673 202.392 659.574H200.434C200.434 656.72 201.325 654.021 202.944 651.988C204.613 649.885 206.862 648.73 209.259 648.73C211.656 648.73 213.905 649.885 215.574 651.988C217.193 654.028 218.085 656.72 218.085 659.574H218.099Z" fill="#F9ECAF"/>
<path d="M218.594 671.118C212.427 672.208 206.112 672.208 199.946 671.118C197.223 670.636 195.533 668.384 196.12 666.387C196.516 664.935 196.912 663.476 197.315 662.024C197.902 660.012 200.003 658.858 202.053 659.219C206.834 660.062 211.727 660.062 216.501 659.219C218.544 658.865 220.652 660.019 221.239 662.024C221.635 663.476 222.031 664.935 222.427 666.387C223.014 668.391 221.317 670.643 218.601 671.118H218.594Z" fill="#DB5964"/>
<path d="M208.813 665.665C208.721 665.665 208.636 665.658 208.558 665.629C206.691 665.091 200.2 659.651 199.924 659.425L200.044 659.283C200.115 659.34 206.783 664.928 208.615 665.452C210.411 665.969 217.808 659.354 217.886 659.283L218.006 659.418C217.709 659.68 211.033 665.658 208.82 665.658L208.813 665.665Z" fill="#201600"/>
<path d="M209.98 664.899H207.646V666.373H209.98V664.899Z" fill="black"/>
<path d="M252.955 599.393C252.955 600.894 254.985 604.747 256.675 604.747C258.365 604.747 258.945 601.695 258.945 600.193C258.945 598.692 257.707 598.16 256.017 598.16C254.327 598.16 252.955 597.891 252.955 599.393Z" fill="#F5B297"/>
<path d="M252.82 593.266L252.29 598.84C252.233 599.407 251.604 602.559 252.177 602.615C252.749 602.672 254.291 599.605 254.34 599.039C254.34 599.025 254.34 599.01 254.34 598.996L254.63 593.401C254.659 592.898 254.27 592.473 253.768 592.445C253.28 592.417 252.862 592.785 252.813 593.266H252.82Z" fill="#F5B297"/>
<path d="M256.499 597.127L256.054 600.519C255.997 600.965 256.308 601.376 256.761 601.44C257.171 601.497 257.553 601.234 257.659 600.838L258.543 597.53C258.691 596.971 258.359 596.397 257.807 596.248C257.249 596.1 256.676 596.433 256.527 596.985C256.513 597.027 256.506 597.077 256.499 597.12V597.127Z" fill="#F5B297"/>
<path d="M254.496 596.694L254.623 600.115C254.638 600.568 255.019 600.922 255.472 600.901C255.889 600.887 256.215 600.561 256.257 600.158L256.575 596.751C256.632 596.177 256.207 595.667 255.635 595.611C255.062 595.554 254.553 595.979 254.496 596.553C254.496 596.595 254.496 596.645 254.496 596.687V596.694Z" fill="#F5B297"/>
<path d="M256.859 601.539C256.817 601.539 256.781 601.539 256.739 601.532C256.498 601.504 256.286 601.377 256.138 601.185C255.989 600.994 255.926 600.753 255.954 600.512L256.399 597.12C256.399 597.07 256.413 597.021 256.428 596.971C256.491 596.73 256.626 596.525 256.824 596.369L256.937 596.511C256.774 596.638 256.661 596.815 256.604 597.014C256.59 597.056 256.583 597.099 256.583 597.134L256.138 600.527C256.109 600.718 256.166 600.909 256.279 601.065C256.392 601.221 256.569 601.32 256.76 601.341C257.121 601.391 257.46 601.157 257.559 600.81L257.736 600.859C257.63 601.263 257.262 601.532 256.859 601.532V601.539Z" fill="black"/>
<path d="M255.373 600.958C255.204 600.958 255.062 600.916 254.935 600.824C254.447 600.477 254.511 599.584 254.511 599.549L254.694 599.563C254.694 599.563 254.638 600.392 255.041 600.675C255.239 600.817 255.536 600.802 255.918 600.632L255.996 600.802C255.769 600.902 255.564 600.958 255.38 600.958H255.373Z" fill="black"/>
<path d="M252.079 601.305L252.744 598.848L252.815 598.593C252.843 598.472 252.921 598.373 253.02 598.309L253.126 598.238L255.339 596.822C255.728 596.574 256.265 596.652 256.527 597.041C256.796 597.438 256.683 597.983 256.287 598.238L254.434 599.421L254.455 601.645C254.455 601.751 254.441 601.865 254.413 601.978C254.236 602.637 253.147 603.635 252.496 603.444C251.853 603.26 251.909 601.95 252.079 601.298V601.305Z" fill="#F5B297"/>
<path d="M254.362 601.653L254.341 599.379L256.236 598.168C256.413 598.055 256.526 597.885 256.569 597.679C256.611 597.474 256.569 597.269 256.448 597.099C256.222 596.766 255.741 596.674 255.388 596.907L253.068 598.395C252.983 598.451 252.927 598.529 252.898 598.621L252.672 599.45L252.05 601.596L251.873 601.546L252.722 598.572C252.757 598.43 252.849 598.31 252.969 598.232L255.289 596.745C255.727 596.461 256.321 596.575 256.604 596.985C256.745 597.198 256.802 597.453 256.745 597.708C256.696 597.963 256.547 598.175 256.328 598.31L254.518 599.471L254.539 601.646H254.355L254.362 601.653Z" fill="black"/>
<path d="M254.551 596.641L254.367 596.643L254.373 597.471L254.557 597.47L254.551 596.641Z" fill="black"/>
<path d="M239.851 602.608L248.344 610.087L251.187 601.787L259.397 601.213L257.24 619.5C257.297 620.315 257.113 621.15 256.66 621.908C255.493 623.856 252.969 624.479 251.024 623.31L250.699 623.112L232.758 612.297L239.837 602.608H239.851Z" fill="#72A15C"/>
<path d="M239.759 602.374L234.653 598.663L233.189 601.503C231.916 603.982 228.26 603.571 227.56 600.88L226.492 596.793C226.492 596.793 226.443 596.772 226.422 596.765C226.16 596.652 219.336 598.84 219.336 598.84C215.984 600.058 213.226 602.523 211.642 605.724C208.311 612.446 202.837 623.573 202.837 623.573L202.682 623.877C202.229 624.791 202.109 625.867 202.441 626.915C203.12 629.054 209.732 627.114 211.868 626.441L213.551 623.813L213.233 627.971L232.22 632.603L237.178 619.061L239.398 614.379L243.811 609.011C243.259 606.411 241.831 604.067 239.766 602.381L239.759 602.374Z" fill="#72A15C"/>
<path d="M235.367 621.171C235.367 621.171 236.117 620.789 236.958 620.052C238.528 618.664 240.395 616.015 238.252 612.219L235.367 621.171Z" fill="#72A15C"/>
<path d="M247.853 609.525L247.758 609.683L250.959 611.634L251.055 611.477L247.853 609.525Z" fill="#201600"/>
<path d="M218.021 615.654L211.924 626.162L212.083 626.255L218.18 615.746L218.021 615.654Z" fill="#201600"/>
<path d="M257.997 598.578L257.318 601.043C257.226 601.368 257.417 601.708 257.742 601.793C258.039 601.878 258.35 601.723 258.471 601.446L259.468 599.095C259.638 598.698 259.454 598.238 259.058 598.075C258.662 597.905 258.202 598.089 258.039 598.486C258.025 598.514 258.011 598.55 258.004 598.585L257.997 598.578Z" fill="#F5B297"/>
<path d="M257.905 601.9C257.841 601.9 257.778 601.893 257.721 601.872C257.537 601.822 257.389 601.702 257.297 601.539C257.205 601.376 257.184 601.185 257.233 601.007L257.912 598.543C257.912 598.543 257.933 598.465 257.947 598.437L258.117 598.507C258.117 598.507 258.096 598.564 258.089 598.592L257.41 601.05C257.374 601.185 257.389 601.326 257.459 601.447C257.53 601.567 257.636 601.652 257.77 601.695C258.018 601.765 258.287 601.638 258.386 601.397L259.036 599.86L259.206 599.931L258.555 601.468C258.442 601.73 258.188 601.893 257.905 601.893V601.9Z" fill="black"/>
<path d="M213.403 648.107C213.665 649.913 211.812 651.372 209.606 651.69C207.399 652.009 205.405 650.805 205.144 648.999C204.882 647.193 206.459 645.472 208.665 645.153C210.872 644.834 213.149 646.301 213.41 648.107H213.403Z" fill="#F5B297"/>
<path d="M207.159 649.042L207.364 652.179C207.393 652.611 207.067 652.98 206.636 653.008C206.24 653.036 205.9 652.76 205.823 652.385L205.193 649.304C205.08 648.766 205.427 648.234 205.971 648.121C206.509 648.008 207.039 648.355 207.152 648.9C207.159 648.943 207.166 648.992 207.173 649.035L207.159 649.042Z" fill="#F5B297"/>
<path d="M209.168 648.702L209.458 651.903C209.507 652.434 209.111 652.909 208.581 652.959C208.079 653.001 207.626 652.647 207.541 652.158L206.99 648.992C206.884 648.39 207.287 647.817 207.888 647.71C208.489 647.604 209.062 648.008 209.168 648.61C209.168 648.638 209.175 648.674 209.182 648.702H209.168Z" fill="#F5B297"/>
<path d="M211.176 648.808L211.127 651.62C211.12 652.123 210.703 652.526 210.201 652.512C209.734 652.505 209.352 652.137 209.309 651.676L209.076 648.872C209.027 648.291 209.458 647.781 210.038 647.731C210.618 647.682 211.127 648.114 211.176 648.695C211.176 648.73 211.176 648.765 211.176 648.801V648.808Z" fill="#F5B297"/>
<path d="M213.12 648.553L212.944 651.776C212.915 652.286 212.477 652.682 211.968 652.654C211.494 652.626 211.119 652.243 211.091 651.776L210.914 648.553C210.879 647.944 211.345 647.427 211.954 647.392C212.562 647.356 213.078 647.824 213.113 648.433C213.113 648.475 213.113 648.511 213.113 648.553H213.12Z" fill="#F5B297"/>
<path d="M211.19 651.776L211.006 651.769L211.084 649.077L211.268 649.084L211.19 651.776Z" fill="black"/>
<path d="M209.438 649.388L209.254 649.396L209.363 652.007L209.547 651.999L209.438 649.388Z" fill="black"/>
<path d="M207.213 649.742L207.031 649.768L207.341 652.013L207.524 651.987L207.213 649.742Z" fill="black"/>
<path d="M213.03 647.738L212.982 649.395L213.166 649.4L213.214 647.743L213.03 647.738Z" fill="black"/>
<path d="M211.862 626.427L212.951 647.249L205.073 648.085L202.344 626.561L211.862 626.427Z" fill="#72A15C"/>
<path d="M227.087 597.396C227.087 597.849 226.72 598.21 226.274 598.21C225.829 598.21 225.461 597.842 225.461 597.396C225.461 596.949 225.829 596.581 226.274 596.581C226.72 596.581 227.087 596.949 227.087 597.396Z" fill="#DB5964"/>
<path d="M227.652 598.876C227.652 599.329 227.284 599.691 226.839 599.691C226.393 599.691 226.025 599.322 226.025 598.876C226.025 598.43 226.393 598.062 226.839 598.062C227.284 598.062 227.652 598.43 227.652 598.876Z" fill="#DB5964"/>
<path d="M228.169 600.356C228.169 600.809 227.802 601.17 227.356 601.17C226.911 601.17 226.543 600.802 226.543 600.356C226.543 599.909 226.911 599.541 227.356 599.541C227.802 599.541 228.169 599.909 228.169 600.356Z" fill="#DB5964"/>
<path d="M228.982 601.596C228.982 602.049 228.614 602.41 228.169 602.41C227.723 602.41 227.355 602.042 227.355 601.596C227.355 601.15 227.723 600.781 228.169 600.781C228.614 600.781 228.982 601.15 228.982 601.596Z" fill="#DB5964"/>
<path d="M230.05 602.623C230.05 603.076 229.683 603.438 229.237 603.438C228.792 603.438 228.424 603.069 228.424 602.623C228.424 602.177 228.792 601.809 229.237 601.809C229.683 601.809 230.05 602.177 230.05 602.623Z" fill="#DB5964"/>
<path d="M231.556 602.927C231.556 603.38 231.188 603.741 230.743 603.741C230.297 603.741 229.93 603.373 229.93 602.927C229.93 602.481 230.297 602.112 230.743 602.112C231.188 602.112 231.556 602.481 231.556 602.927Z" fill="#DB5964"/>
<path d="M233.013 602.41C233.013 602.863 232.645 603.225 232.2 603.225C231.754 603.225 231.387 602.856 231.387 602.41C231.387 601.964 231.754 601.596 232.2 601.596C232.645 601.596 233.013 601.964 233.013 602.41Z" fill="#DB5964"/>
<path d="M234.138 601.504C234.138 601.957 233.77 602.318 233.325 602.318C232.879 602.318 232.512 601.95 232.512 601.504C232.512 601.058 232.879 600.689 233.325 600.689C233.77 600.689 234.138 601.058 234.138 601.504Z" fill="#DB5964"/>
<path d="M235.164 600.66C235.164 601.113 234.796 601.475 234.35 601.475C233.905 601.475 233.537 601.106 233.537 600.66C233.537 600.214 233.905 599.846 234.35 599.846C234.796 599.846 235.164 600.214 235.164 600.66Z" fill="#DB5964"/>
<path d="M235.75 599.414C235.75 599.867 235.382 600.229 234.936 600.229C234.491 600.229 234.123 599.86 234.123 599.414C234.123 598.968 234.491 598.6 234.936 598.6C235.382 598.6 235.75 598.968 235.75 599.414Z" fill="#DB5964"/>
<path d="M261.95 693.18L261.858 716.956L255.925 718.457L254.037 693.378L261.95 693.18Z" fill="#F5B297"/>
<path d="M261.548 716.992C259.171 717.544 256.668 717.835 254.108 717.813C253.535 717.813 253.047 718.203 253.026 718.72C253.005 719.187 253.422 719.591 253.967 719.662C256.711 720.023 259.518 720.066 262.29 719.775C263.273 719.662 262.594 716.864 261.767 716.956C261.696 716.963 261.611 716.978 261.548 716.992Z" fill="#A2C096"/>
<path d="M269.27 693.492L269.39 702.147L269.15 701.063L273.704 714.386L268.429 716.489L262.587 703.684L262.425 703.33L262.34 702.6L261.371 693.995L269.27 693.492Z" fill="#F5B297"/>
<path d="M272.983 713.274C271.038 714.747 268.867 716.029 266.519 717.056C265.996 717.283 265.706 717.849 265.897 718.324C266.067 718.756 266.611 718.961 267.141 718.798C269.793 718.012 272.375 716.907 274.793 715.512C275.642 715.009 273.888 712.729 273.167 713.147C273.103 713.182 273.032 713.232 272.976 713.274H272.983Z" fill="#A2C096"/>
<path d="M275.676 694.434C266.823 696.679 257.205 695.453 248.33 691.579C249.617 689.568 250.947 686.82 252.283 683.491C258.556 682.861 264.828 682.089 271.115 681.451C272.664 685.899 274.205 690.333 275.683 694.434H275.676Z" fill="#A2C096"/>
<path d="M261.951 659.807C259.257 659.779 256.789 662.682 255.014 666.939C253.239 671.238 252.157 676.897 252.164 683.356C258.507 685.531 265.395 685.531 271.739 683.356C271.739 676.897 270.664 671.238 268.889 666.939C267.114 662.682 264.653 659.779 261.951 659.807Z" fill="#FFB243"/>
<path d="M282.048 675.714C282.578 676.443 282.281 677.633 281.39 678.377C280.499 679.121 279.346 679.135 278.816 678.412C278.286 677.683 278.583 676.493 279.474 675.749C280.365 675.006 281.517 674.991 282.048 675.714Z" fill="#F5B297"/>
<path d="M282.436 675.658C282.528 675.828 282.627 676.019 282.733 676.196C282.839 676.373 282.946 676.55 283.059 676.72C283.172 676.89 283.285 677.053 283.398 677.202L283.483 677.308L283.568 677.4C283.568 677.4 283.617 677.45 283.646 677.478H283.653V677.492H283.667C283.667 677.492 283.681 677.513 283.695 677.528L283.837 677.669C284.042 677.875 284.042 678.215 283.837 678.413C283.667 678.583 283.412 678.611 283.214 678.498L283.101 678.434L283.045 678.399L283.016 678.385L282.995 678.37C282.938 678.328 282.875 678.285 282.825 678.243L282.677 678.115L282.542 677.988C282.373 677.811 282.217 677.641 282.069 677.464C281.92 677.287 281.786 677.11 281.651 676.926C281.517 676.741 281.39 676.564 281.255 676.366C281.043 676.047 281.128 675.622 281.446 675.41C281.765 675.197 282.189 675.282 282.401 675.601C282.415 675.622 282.429 675.644 282.436 675.665V675.658Z" fill="#F5B297"/>
<path d="M281.963 676.486L283.292 678.987C283.412 679.22 283.327 679.504 283.094 679.631C282.882 679.744 282.627 679.681 282.493 679.497L280.796 677.223C280.569 676.918 280.633 676.486 280.937 676.26C281.241 676.033 281.673 676.097 281.899 676.401C281.92 676.43 281.941 676.458 281.955 676.486H281.963Z" fill="#F5B297"/>
<path d="M281.433 677.315L282.395 680.007C282.48 680.254 282.352 680.524 282.112 680.616C281.886 680.694 281.645 680.594 281.532 680.396L280.174 677.882C279.99 677.549 280.118 677.131 280.45 676.947C280.782 676.763 281.2 676.89 281.384 677.223C281.398 677.251 281.412 677.287 281.426 677.315H281.433Z" fill="#F5B297"/>
<path d="M281.114 677.874L281.036 680.771C281.029 681.033 280.81 681.238 280.548 681.231C280.308 681.231 280.117 681.047 280.089 680.813L279.742 677.938C279.693 677.563 279.968 677.215 280.343 677.166C280.718 677.116 281.064 677.393 281.114 677.768C281.114 677.803 281.114 677.839 281.114 677.867V677.874Z" fill="#F5B297"/>
<path d="M279.899 678.278C279.891 678.349 279.884 678.391 279.877 678.448L279.849 678.604C279.828 678.703 279.807 678.802 279.778 678.909C279.729 679.107 279.665 679.312 279.587 679.511C279.51 679.716 279.411 679.921 279.255 680.12C279.177 680.219 279.092 680.325 278.972 680.417C278.859 680.509 278.718 680.594 278.555 680.637C278.322 680.7 278.074 680.566 278.01 680.332C277.968 680.176 278.01 680.02 278.116 679.907L278.258 679.758C278.258 679.758 278.286 679.723 278.307 679.695C278.329 679.666 278.35 679.617 278.371 679.567C278.413 679.461 278.456 679.319 278.477 679.171C278.505 679.022 278.52 678.866 278.527 678.703C278.527 678.625 278.527 678.54 278.527 678.462V678.342C278.527 678.306 278.527 678.257 278.52 678.236C278.456 677.853 278.718 677.499 279.099 677.435C279.481 677.372 279.835 677.634 279.899 678.016C279.906 678.08 279.913 678.144 279.899 678.2V678.285V678.278Z" fill="#F5B297"/>
<path d="M265.536 661.436L265.621 661.457L265.677 661.471L265.784 661.499L265.982 661.556C266.109 661.591 266.229 661.627 266.349 661.662C266.47 661.698 266.59 661.733 266.703 661.776C266.823 661.811 266.936 661.853 267.049 661.889C267.502 662.045 267.947 662.208 268.386 662.385C269.256 662.732 270.104 663.114 270.939 663.539C271.766 663.964 272.579 664.417 273.371 664.92C274.163 665.416 274.934 665.954 275.67 666.535C276.405 667.116 277.127 667.725 277.805 668.398C278.477 669.063 279.128 669.758 279.715 670.508L279.941 670.785C280.012 670.877 280.082 670.976 280.153 671.068L280.578 671.642L280.974 672.236C281.037 672.336 281.108 672.435 281.172 672.534L281.355 672.838C281.476 673.044 281.603 673.249 281.716 673.455L282.048 674.085C282.105 674.191 282.162 674.297 282.211 674.404L282.36 674.73L282.657 675.374L277.671 677.874L277.388 677.435L277.247 677.216C277.197 677.145 277.148 677.074 277.098 677.003L276.801 676.585C276.695 676.451 276.589 676.316 276.483 676.181L276.32 675.983C276.264 675.919 276.207 675.856 276.151 675.792L275.811 675.402L275.451 675.034C275.394 674.97 275.33 674.907 275.274 674.85L275.083 674.673C274.588 674.191 274.05 673.759 273.499 673.341C272.947 672.923 272.36 672.548 271.759 672.194C271.158 671.84 270.529 671.521 269.892 671.231C269.249 670.94 268.598 670.678 267.926 670.445C267.262 670.211 266.583 670.013 265.904 669.843C265.564 669.758 265.225 669.68 264.893 669.616C264.808 669.602 264.73 669.58 264.645 669.566C264.56 669.552 264.482 669.538 264.405 669.524C264.327 669.51 264.249 669.503 264.178 669.488L264.079 669.474C264.079 669.474 264.051 669.474 264.037 669.474H264.016H264.023L265.515 661.436H265.536Z" fill="#FFB243"/>
<path d="M256.838 668.739L256.753 668.718L256.703 668.704L256.604 668.675L256.42 668.619C256.307 668.583 256.187 668.541 256.081 668.505C255.968 668.47 255.862 668.427 255.756 668.392C255.649 668.356 255.543 668.314 255.437 668.271C255.02 668.116 254.61 667.946 254.207 667.769C253.401 667.414 252.623 667.032 251.866 666.607C251.102 666.189 250.36 665.729 249.646 665.24C248.924 664.751 248.224 664.227 247.552 663.661C246.881 663.094 246.23 662.499 245.622 661.855C245.014 661.21 244.434 660.544 243.903 659.822L243.705 659.553C243.642 659.461 243.578 659.369 243.514 659.277L243.14 658.724L242.786 658.158C242.73 658.065 242.666 657.966 242.616 657.874L242.454 657.584C242.348 657.386 242.242 657.194 242.136 656.996L241.846 656.394C241.796 656.295 241.747 656.196 241.704 656.097L241.577 655.792L241.322 655.183L246.053 653.016L246.301 653.433L246.421 653.639C246.463 653.71 246.513 653.773 246.555 653.837L246.824 654.241C246.916 654.368 247.015 654.496 247.107 654.63L247.248 654.822C247.298 654.885 247.347 654.949 247.404 655.006L247.708 655.374L248.033 655.728C248.09 655.785 248.139 655.849 248.196 655.905L248.366 656.075C248.811 656.536 249.299 656.961 249.794 657.364C250.296 657.768 250.834 658.136 251.378 658.49C251.93 658.837 252.503 659.156 253.09 659.454C253.676 659.744 254.285 660.013 254.893 660.254C255.508 660.495 256.13 660.7 256.76 660.884C257.071 660.976 257.389 661.054 257.693 661.125C257.771 661.146 257.849 661.161 257.92 661.175C257.997 661.189 258.068 661.21 258.146 661.217C258.224 661.231 258.287 661.246 258.358 661.26L258.45 661.274C258.45 661.274 258.478 661.274 258.485 661.274H258.499H258.492L256.838 668.725V668.739Z" fill="#FFB243"/>
<path d="M244.293 649.552C244.258 649.552 244.222 649.531 244.208 649.488L242.087 643.447L239.011 642.562C238.961 642.547 238.933 642.498 238.947 642.448C238.961 642.399 239.011 642.37 239.06 642.385L242.228 643.298L244.378 649.425C244.392 649.474 244.371 649.524 244.321 649.545C244.314 649.545 244.3 649.545 244.293 649.545V649.552Z" fill="#D24A43"/>
<path d="M245.969 646.952H241.662V655.699H245.969V646.952Z" fill="#00CEA8"/>
<path d="M241.896 651.194C242.9 651.067 243.685 652.108 243.848 653.333C244.003 654.558 243.325 655.663 242.32 655.791C241.316 655.918 240.376 655.033 240.22 653.808C240.064 652.582 240.892 651.329 241.896 651.201V651.194Z" fill="#F5B297"/>
<path d="M242.354 654.666L244.094 654.581C244.334 654.567 244.532 654.751 244.546 654.992C244.56 655.211 244.405 655.402 244.193 655.438L242.481 655.764C242.184 655.82 241.894 655.622 241.838 655.325C241.781 655.027 241.979 654.737 242.276 654.68C242.297 654.68 242.326 654.673 242.354 654.673V654.666Z" fill="#F5B297"/>
<path d="M242.184 653.546L243.959 653.412C244.256 653.39 244.511 653.61 244.539 653.907C244.56 654.191 244.362 654.439 244.087 654.481L242.326 654.764C241.993 654.821 241.675 654.587 241.626 654.254C241.569 653.922 241.802 653.603 242.135 653.553C242.149 653.553 242.17 653.553 242.184 653.553V653.546Z" fill="#F5B297"/>
<path d="M242.264 652.434L243.82 652.49C244.095 652.497 244.315 652.731 244.307 653.014C244.3 653.276 244.088 653.482 243.834 653.503L242.278 653.609C241.953 653.631 241.677 653.39 241.656 653.064C241.634 652.738 241.875 652.462 242.2 652.441C242.221 652.441 242.243 652.441 242.264 652.441V652.434Z" fill="#F5B297"/>
<path d="M242.135 651.351L243.917 651.478C244.2 651.5 244.412 651.74 244.391 652.024C244.369 652.286 244.157 652.491 243.896 652.498L242.114 652.569C241.774 652.583 241.491 652.321 241.477 651.981C241.463 651.641 241.725 651.358 242.064 651.344C242.085 651.344 242.106 651.344 242.128 651.344L242.135 651.351Z" fill="#F5B297"/>
<path d="M242.416 652.339L242.408 652.522L243.899 652.589L243.907 652.406L242.416 652.339Z" fill="black"/>
<path d="M244.007 653.326L242.564 653.363L242.569 653.547L244.011 653.51L244.007 653.326Z" fill="black"/>
<path d="M243.987 654.452L242.744 654.604L242.766 654.786L244.009 654.634L243.987 654.452Z" fill="black"/>
<path d="M242.595 651.479L241.676 651.436L241.683 651.252L242.602 651.294L242.595 651.479Z" fill="black"/>
<path d="M265.14 661.528C263.068 662.201 260.826 662.201 258.754 661.528C259.157 660.275 259.567 659.021 259.97 657.768C261.25 658.185 262.636 658.185 263.916 657.768C264.319 659.021 264.729 660.275 265.133 661.528H265.14Z" fill="#F5B297"/>
<path d="M258.754 661.528C258.754 661.528 262.764 657.966 263.994 658.008L260.006 657.576L258.754 661.528Z" fill="#D19881"/>
<path d="M250.423 644.403C250.204 645.586 250.402 646.634 250.869 646.91C251.017 646.924 251.166 646.931 251.328 646.938C252.184 646.981 253.266 646.974 254.468 646.818C255.48 646.698 256.675 646.683 257.827 646.903C257.983 646.931 258.138 646.967 258.294 647.002C258.45 647.045 258.598 647.087 258.747 647.137C259.185 647.278 259.602 647.455 259.998 647.689C260.069 647.732 260.14 647.767 260.21 647.788C260.79 648.001 261.3 647.625 261.307 646.917C261.307 646.698 261.264 646.45 261.158 646.181C261.144 646.138 261.123 646.096 261.109 646.053C260.557 644.877 259.652 643.581 258.457 642.682C257.276 641.775 255.798 641.258 254.412 641.379C253.301 641.478 252.382 641.811 251.64 642.25C251.534 642.313 251.427 642.384 251.328 642.448C250.94 642.802 250.586 643.525 250.423 644.396V644.403Z" fill="#94765A"/>
<path d="M259.645 647.123C260.394 646.995 260.981 646.599 261.172 646.152C261.271 646.259 261.335 646.386 261.356 646.521C261.455 647.116 260.755 647.732 259.779 647.902C258.803 648.072 257.933 647.725 257.834 647.13C257.813 646.995 257.834 646.854 257.884 646.719C258.209 647.08 258.895 647.25 259.645 647.123Z" fill="#D24A43"/>
<path d="M256.824 651.91C256.979 651.669 256.873 650.918 257.128 649.976C257.347 649.041 257.969 647.965 258.881 647.235C260.692 645.762 262.693 645.868 263.931 645.288C264.489 645.026 264.638 644.339 263.464 643.786C262.403 643.227 260.239 643.241 258.224 645.189C256.166 647.115 255.961 649.573 256.3 650.699C256.654 651.917 256.71 652.115 256.824 651.903V651.91Z" fill="#94765A"/>
<path d="M268.966 652.378L267.432 654.949V651.769L268.966 652.378Z" fill="#94765A"/>
<path d="M256.088 651.038C256.046 651.732 256.569 652.334 257.262 652.377C257.955 652.426 258.556 651.895 258.599 651.201C258.641 650.507 258.118 649.905 257.425 649.863C256.732 649.813 256.131 650.344 256.088 651.038Z" fill="#F5B297"/>
<path d="M258.013 650.618L256.557 650.975L256.6 651.153L258.057 650.797L258.013 650.618Z" fill="black"/>
<path d="M268.169 652.82C268.835 649.256 266.847 645.893 263.73 645.31C260.612 644.726 257.546 647.142 256.881 650.706C256.215 654.271 258.203 657.633 261.32 658.217C264.437 658.801 267.504 656.385 268.169 652.82Z" fill="#F5B297"/>
<path d="M268.541 652.37C268.223 652.342 267.996 651.669 267.53 650.911C267.077 650.139 266.391 649.289 265.557 648.567C263.973 647.151 262.099 646.23 262.07 644.693C262.092 643.992 262.898 643.326 264.164 643.397C265.394 643.446 267.084 644.24 268.18 645.847C269.333 647.427 269.545 649.254 269.418 650.479C269.29 651.74 268.817 652.392 268.541 652.356V652.37Z" fill="#94765A"/>
<path d="M269.453 651.379C269.453 652.073 268.887 652.64 268.194 652.64C267.501 652.64 266.936 652.073 266.936 651.379C266.936 650.685 267.501 650.118 268.194 650.118C268.887 650.118 269.453 650.685 269.453 651.379Z" fill="#F5B297"/>
<path d="M267.553 650.822L267.498 650.998L268.928 651.45L268.983 651.274L267.553 650.822Z" fill="black"/>
<path d="M276.498 648.461C276.017 649.566 275.267 650.323 274.723 650.288C274.595 650.217 274.461 650.139 274.327 650.054C273.591 649.608 272.707 648.999 271.795 648.199C271.024 647.533 270.041 646.853 268.966 646.386C268.818 646.322 268.669 646.265 268.521 646.208C268.372 646.152 268.224 646.102 268.068 646.06C267.63 645.932 267.177 645.847 266.718 645.819C266.633 645.819 266.562 645.805 266.484 645.784C265.883 645.635 265.671 645.04 266.067 644.445C266.187 644.261 266.364 644.084 266.604 643.914C266.64 643.885 266.682 643.864 266.718 643.836C267.835 643.17 269.306 642.596 270.798 642.526C272.283 642.433 273.796 642.837 274.878 643.715C275.741 644.424 276.314 645.217 276.689 645.989C276.745 646.102 276.795 646.216 276.837 646.329C276.964 646.839 276.851 647.639 276.498 648.454V648.461Z" fill="#94765A"/>
<path d="M267.332 645.55C266.78 645.026 266.518 644.367 266.61 643.893C266.469 643.928 266.349 643.992 266.25 644.091C265.833 644.53 266.073 645.437 266.787 646.117C267.501 646.804 268.414 647.002 268.831 646.57C268.93 646.471 268.986 646.343 269.015 646.201C268.548 646.315 267.876 646.074 267.332 645.55Z" fill="#FFB243"/>
<path d="M274.454 649.495L274.277 649.459C274.864 646.393 276.123 646.315 276.18 646.308V646.492C276.18 646.492 275.006 646.591 274.454 649.495Z" fill="black"/>
<path d="M257.043 646.818L256.859 646.789C256.874 646.711 257.199 644.948 260.077 643.808L260.148 643.978C257.361 645.082 257.043 646.804 257.043 646.818Z" fill="black"/>
<path d="M259.51 649.544C259.447 649.884 259.242 650.125 259.051 650.09C258.86 650.054 258.754 649.75 258.817 649.417C258.881 649.077 259.086 648.836 259.277 648.872C259.468 648.907 259.574 649.212 259.51 649.544Z" fill="black"/>
<path d="M264.667 650.508C264.603 650.841 264.398 651.089 264.207 651.054C264.016 651.018 263.91 650.714 263.974 650.381C264.037 650.041 264.242 649.8 264.433 649.835C264.624 649.871 264.73 650.175 264.667 650.508Z" fill="black"/>
<path d="M262 652.229C261.604 651.677 261.229 651.422 260.882 651.464C260.38 651.528 260.097 652.201 260.097 652.208L259.928 652.137C259.928 652.137 260.253 651.351 260.861 651.28C261.278 651.23 261.71 651.514 262.148 652.123L262 652.229Z" fill="black"/>
<path d="M265.381 649.084C264.914 648.382 263.995 648.297 263.98 648.297L263.995 648.113C264.037 648.113 265.013 648.205 265.529 648.977L265.374 649.077L265.381 649.084Z" fill="black"/>
<path d="M258.585 648.355L258.43 648.256C258.946 647.484 259.922 647.392 259.964 647.392L259.978 647.576C259.978 647.576 259.045 647.668 258.578 648.362L258.585 648.355Z" fill="black"/>
<path d="M262.883 654.559L263.011 654.693C262.961 654.743 261.717 655.918 259.086 655.069L259.143 654.891C261.66 655.699 262.869 654.573 262.883 654.559Z" fill="black"/>
<path d="M264.757 652.788C264.679 653.071 264.241 653.206 263.781 653.078C263.321 652.951 263.01 652.618 263.088 652.335C263.166 652.051 263.604 651.917 264.064 652.044C264.524 652.172 264.835 652.505 264.757 652.788Z" fill="#D19881"/>
<path d="M259.114 651.605C259.037 651.889 258.598 652.023 258.139 651.896C257.679 651.768 257.368 651.435 257.446 651.152C257.523 650.869 257.962 650.734 258.421 650.862C258.881 650.989 259.192 651.322 259.114 651.605Z" fill="#D19881"/>
<path d="M259.892 662.895C261.009 663.15 261.978 662.52 261.893 661.918C260.712 662.053 259.581 661.79 258.654 661.245C258.315 661.734 258.775 662.633 259.892 662.888V662.895Z" fill="white"/>
<path d="M263.719 662.987C264.85 662.81 265.515 661.861 265.218 661.337C264.172 661.904 263.026 662.081 261.965 661.918C261.838 662.498 262.588 663.164 263.726 662.98L263.719 662.987Z" fill="white"/>
</g>
<g clip-path="url(#clip5_1755_9266)">
<path d="M690.819 2154H615.848V2161.66H690.819V2154Z" fill="#D7DBDD"/>
<path d="M686.062 2161.67H620.59V2257.48H686.062V2161.67Z" fill="#D7DBDD"/>
<path d="M640.124 2173.98H633.443V2187.78H640.124V2173.98Z" fill="#A8CDDD"/>
<path d="M656.671 2173.98H649.99V2187.78H656.671V2173.98Z" fill="#A8CDDD"/>
<path d="M673.216 2173.98H666.535V2187.78H673.216V2173.98Z" fill="#A8CDDD"/>
<path d="M656.671 2200.86H649.99V2214.66H656.671V2200.86Z" fill="#A8CDDD"/>
<path d="M640.124 2227.73H633.443V2241.53H640.124V2227.73Z" fill="#A8CDDD"/>
<path d="M673.216 2227.73H666.535V2241.53H673.216V2227.73Z" fill="#A8CDDD"/>
<path d="M659.241 2236.56H647.416V2257.48H659.241V2236.56Z" fill="#A8CDDD"/>
<path d="M605.737 2168.82H545.148V2257.48H605.737V2168.82Z" fill="#EDEDEB"/>
<path d="M563.222 2180.21H557.041V2192.97H563.222V2180.21Z" fill="#A8CDDD"/>
<path d="M578.529 2180.21H572.348V2192.97H578.529V2180.21Z" fill="#A8CDDD"/>
<path d="M593.845 2180.21H587.664V2192.97H593.845V2180.21Z" fill="#A8CDDD"/>
<path d="M578.529 2205.08H572.348V2217.85H578.529V2205.08Z" fill="#A8CDDD"/>
<path d="M563.222 2205.08H557.041V2217.85H563.222V2205.08Z" fill="#A8CDDD"/>
<path d="M593.845 2205.08H587.664V2217.85H593.845V2205.08Z" fill="#A8CDDD"/>
<path d="M580.626 2257.1H509.211V2213.67L544.918 2198.22L580.626 2213.67V2257.1Z" fill="#F4F3ED"/>
<path d="M549.092 2242.28H541.211V2257.8H549.092V2242.28Z" fill="#A8CDDD"/>
<path d="M544.918 2193.52L502 2214.72H587.835L544.918 2193.52Z" fill="#5191BC"/>
<path d="M530.393 2223.62H523.771V2230.25H530.393V2223.62Z" fill="#A8CDDD"/>
<path d="M548.227 2223.62H541.605V2230.25H548.227V2223.62Z" fill="#A8CDDD"/>
<path d="M566.062 2223.62H559.441V2230.25H566.062V2223.62Z" fill="#A8CDDD"/>
<path d="M530.393 2223.62H523.771V2230.25H530.393V2223.62Z" fill="#A8CDDD"/>
<path d="M548.227 2223.62H541.605V2230.25H548.227V2223.62Z" fill="#A8CDDD"/>
<path d="M566.062 2223.62H559.441V2230.25H566.062V2223.62Z" fill="#A8CDDD"/>
<path d="M530.393 2238.97H523.771V2245.59H530.393V2238.97Z" fill="#A8CDDD"/>
<path d="M566.062 2238.97H559.441V2245.59H566.062V2238.97Z" fill="#A8CDDD"/>
<path d="M600.666 2216.95L598.139 2259.22H603.194L600.666 2216.95Z" fill="#775645"/>
<path d="M615.109 2241.83L611.329 2236.9C613.722 2236.86 615.065 2234.1 613.603 2232.19L609.144 2226.38C611.299 2225.83 612.358 2223.18 610.897 2221.28L606.565 2215.63H607.519C609.122 2215.63 610.032 2213.79 609.055 2212.52L602.203 2204.79C601.427 2203.78 599.906 2203.78 599.131 2204.79L592.279 2212.52C591.302 2213.79 592.211 2215.63 593.815 2215.63H594.769L590.437 2221.28C588.976 2223.18 590.034 2225.84 592.189 2226.38L587.73 2232.19C586.261 2234.1 587.604 2236.86 590.004 2236.9L586.224 2241.83C584.636 2243.89 586.112 2246.88 588.722 2246.88H612.626C615.236 2246.88 616.705 2243.89 615.124 2241.83H615.109Z" fill="#5FAA4F"/>
<path d="M707.901 2216.95L705.381 2259.22H710.429L707.901 2216.95Z" fill="#775645"/>
<path d="M722.344 2241.83L718.563 2236.9C720.957 2236.86 722.299 2234.1 720.838 2232.19L716.379 2226.38C718.534 2225.83 719.592 2223.18 718.131 2221.28L713.799 2215.63H714.753C716.356 2215.63 717.266 2213.79 716.289 2212.52L709.437 2204.79C708.662 2203.78 707.141 2203.78 706.365 2204.79L699.513 2212.52C698.536 2213.79 699.446 2215.63 701.049 2215.63H702.003L697.671 2221.28C696.21 2223.18 697.269 2225.84 699.423 2226.38L694.965 2232.19C693.496 2234.1 694.838 2236.86 697.239 2236.9L693.459 2241.83C691.87 2243.89 693.347 2246.88 695.956 2246.88H719.861C722.47 2246.88 723.939 2243.89 722.359 2241.83H722.344Z" fill="#5FAA4F"/>
</g>
</g>
<defs>
<linearGradient id="paint0_linear_1755_9266" x1="-231" y1="599.984" x2="310.197" y2="1301.97" gradientUnits="userSpaceOnUse">
<stop stop-color="#FFF7D3"/>
<stop offset="0.50194" stop-color="#D2E3D3"/>
<stop offset="0.783572" stop-color="#EFF5F0"/>
<stop offset="1" stop-color="white"/>
</linearGradient>
<linearGradient id="paint1_linear_1755_9266" x1="1317" y1="1895.5" x2="459.966" y2="4198.05" gradientUnits="userSpaceOnUse">
<stop offset="0.10139" stop-color="#FFF7D3" stop-opacity="0"/>
<stop offset="0.182934" stop-color="#FFF7D3"/>
<stop offset="0.316411" stop-color="#EBEED3"/>
<stop offset="0.571245" stop-color="#D2E3D3"/>
<stop offset="0.767267" stop-color="#D2E3D3" stop-opacity="0"/>
</linearGradient>
<linearGradient id="paint2_linear_1755_9266" x1="939.5" y1="543.5" x2="1134.5" y2="810" gradientUnits="userSpaceOnUse">
<stop stop-color="white"/>
<stop offset="1" stop-color="#DDE1FF"/>
</linearGradient>
<linearGradient id="paint3_linear_1755_9266" x1="1010.5" y1="1907" x2="957.5" y2="2293" gradientUnits="userSpaceOnUse">
<stop stop-color="#D2E3D3"/>
<stop offset="1" stop-color="white"/>
</linearGradient>
<linearGradient id="paint4_linear_1755_9266" x1="355" y1="1117" x2="557" y2="1390" gradientUnits="userSpaceOnUse">
<stop stop-color="white"/>
<stop offset="1" stop-color="#DDE1FF"/>
</linearGradient>
<linearGradient id="paint5_linear_1755_9266" x1="911.5" y1="1390" x2="1269.07" y2="1685.39" gradientUnits="userSpaceOnUse">
<stop stop-color="#DDE1FF"/>
<stop offset="1" stop-color="#D2E3D3"/>
</linearGradient>
<linearGradient id="paint6_linear_1755_9266" x1="277.5" y1="2145.5" x2="552" y2="2861" gradientUnits="userSpaceOnUse">
<stop offset="0.43" stop-color="white" stop-opacity="0"/>
<stop offset="0.88791" stop-color="#D2E3D3"/>
</linearGradient>
<clipPath id="clip0_1755_9266">
<rect width="1401" height="4064" fill="white"/>
</clipPath>
<clipPath id="clip1_1755_9266">
<rect width="160" height="141.459" fill="white" transform="translate(749 2121)"/>
</clipPath>
<clipPath id="clip2_1755_9266">
<rect width="160" height="126" fill="white" transform="translate(225 1458)"/>
</clipPath>
<clipPath id="clip3_1755_9266">
<rect width="206" height="102" fill="white" transform="translate(806 1184)"/>
</clipPath>
<clipPath id="clip4_1755_9266">
<rect width="88" height="146" fill="white" transform="translate(196 575)"/>
</clipPath>
<clipPath id="clip5_1755_9266">
<rect width="221" height="105.221" fill="white" transform="translate(502 2154)"/>
</clipPath>
</defs>
</svg>
