<svg width="375" height="2371" viewBox="0 0 375 2371" fill="none" xmlns="http://www.w3.org/2000/svg">
<rect width="375" height="2371" fill="url(#paint0_linear_1753_9265)"/>
<rect width="375" height="2371" fill="url(#paint1_linear_1753_9265)"/>
<path d="M87 704V970C87 1037.93 142.069 1093 210 1093V1093" stroke="url(#paint2_linear_1753_9265)" stroke-width="80"/>
<path d="M155 629V629C212.99 629 260 581.99 260 524V283" stroke="url(#paint3_linear_1753_9265)" stroke-width="80"/>
<path d="M87 704V697C87 659.445 117.445 629 155 629V629" stroke="white" stroke-width="80"/>
<path d="M291 1326L291 1177C291 1130.61 253.392 1093 207 1093V1093" stroke="url(#paint4_linear_1753_9265)" stroke-width="80"/>
<path d="M182 1569V1569C242.199 1569 291 1520.2 291 1460V1258" stroke="url(#paint5_linear_1753_9265)" stroke-width="80"/>
<g clip-path="url(#clip0_1753_9265)">
<path d="M65.0692 596.738C64.9913 597.093 64.9362 597.447 64.8842 597.798C64.8323 598.149 64.7901 598.5 64.7512 598.851C64.6766 599.553 64.6214 600.249 64.5857 600.947C64.511 602.338 64.5078 603.723 64.55 605.101L64.5695 605.364C64.5013 607.747 65.4132 620.341 65.4846 620.933L60.3636 619.789C60.4026 619.194 60.4221 618.596 60.4383 618.001C60.4545 617.406 60.4578 616.812 60.461 616.217C60.461 615.027 60.4415 613.838 60.4026 612.648C60.3247 610.269 60.1787 607.893 59.984 605.517L60.0034 605.78C59.7178 604.432 59.468 603.089 59.0688 601.753C58.8708 601.087 57.5143 600.421 57.2742 599.758C57.1541 599.426 57.0276 599.095 56.8945 598.766C56.7615 598.438 56.6219 598.107 56.4629 597.782L65.0692 596.745V596.738Z" fill="#F5B297"/>
<path d="M67.5778 622.922C67.4577 622.951 63.9951 623.003 63.9951 623.003L61.5482 621.827C60.1657 621.118 59.3901 620.478 59.3901 620.478C58.6989 620.062 59.8737 617.377 60.5649 617.793C60.7142 617.995 60.844 618.212 61.0614 618.342L65.1504 620.822L65.2834 620.845L67.3928 621.219C68.7266 621.71 67.9088 622.841 67.5778 622.925V622.922Z" fill="#DB5964"/>
<path d="M61.0262 619.896H59.1797V622.935H61.0262V619.896Z" fill="#DB5964"/>
<path d="M61.7368 605.238L59.4457 587.979L50.8945 590.137L55.9895 605.881C56.0577 606.063 56.0772 606.261 56.0415 606.45L54.5746 619.204L58.7155 620.546L61.779 606.43C61.8244 606.18 61.8309 605.927 61.7952 605.673L61.7368 605.234V605.238Z" fill="#F5B297"/>
<path d="M60.3604 613.162L60.2793 613.146L61.7364 606.424C61.7818 606.18 61.7851 605.93 61.7526 605.683L61.2009 601.529L61.2853 601.52L61.837 605.673C61.8695 605.93 61.8662 606.187 61.8175 606.444L60.3604 613.165V613.162Z" fill="#201600"/>
<path d="M61.7751 622.857C61.655 622.886 58.1924 622.938 58.1924 622.938L55.7455 621.762C54.363 621.053 53.5874 620.413 53.5874 620.413C52.8962 619.997 54.0709 617.312 54.7622 617.728C54.9114 617.93 55.0412 618.147 55.2587 618.278L58.7148 620.553L61.5901 621.154C62.9239 621.645 62.1061 622.776 61.7751 622.86V622.857Z" fill="#DB5964"/>
<path d="M55.2235 619.831H53.377V622.87H55.2235V619.831Z" fill="#DB5964"/>
<path d="M62.2652 622.402L62.1841 622.379C62.2587 622.093 62.2133 621.836 62.051 621.615C61.415 620.751 59.1985 620.65 59.1758 620.65V620.565C59.2731 620.569 61.4572 620.669 62.1192 621.566C62.2977 621.81 62.3464 622.09 62.2652 622.402Z" fill="#201600"/>
<path d="M67.5056 600.522C61.4792 601.721 55.2971 601.841 49.2285 600.873C50.0431 595.454 50.8544 590.04 51.6689 584.621C52.2239 581.57 55.031 579.538 57.9614 579.463C60.8918 579.428 63.7769 581.349 64.4486 584.378C65.4676 589.76 66.4866 595.139 67.5056 600.522Z" fill="#DDE1FE"/>
<path d="M66.2082 573.642L56.2324 570.581L62.3983 558.077L66.8508 558.851L66.2082 573.642Z" fill="#735846"/>
<path d="M60.2305 567.564L62.0218 572.359L64.5564 568.309L65.1924 562.54L62.8234 561.964L60.2305 567.564Z" fill="#F5B297"/>
<path d="M60.6719 566.615C60.6719 566.615 63.7354 564.389 65.0432 563.904L62.2555 563.196L60.6719 566.618V566.615Z" fill="#D19881"/>
<path d="M62.1231 557.424C62.4509 557.089 62.8695 556.965 63.0577 557.154C63.2492 557.339 63.1356 557.762 62.8111 558.096C62.4833 558.431 62.0647 558.555 61.8765 558.366C61.685 558.181 61.7986 557.758 62.1231 557.424Z" fill="black"/>
<path d="M66.1199 561.714C65.6948 561.522 65.5033 561.025 65.6915 560.596C65.8797 560.167 66.3795 559.978 66.8079 560.167C67.233 560.358 67.4245 560.856 67.2362 561.285C67.048 561.714 66.5483 561.902 66.1199 561.714Z" fill="#F5B297"/>
<path d="M66.4886 560.484L66.4492 560.559L67.0432 560.873L67.0826 560.799L66.4886 560.484Z" fill="#201600"/>
<path d="M66.883 561.886C66.883 562.049 66.7532 562.179 66.5909 562.179C66.4286 562.179 66.2988 562.049 66.2988 561.886C66.2988 561.724 66.4286 561.594 66.5909 561.594C66.7532 561.594 66.883 561.724 66.883 561.886Z" fill="#DB5964"/>
<path d="M66.7417 560.866C66.3328 563.303 64.9114 565.098 63.5647 564.87C62.2211 564.642 61.4617 562.484 61.8739 560.047C62.2828 557.609 63.7042 555.815 65.051 556.042C66.3945 556.27 67.1539 558.428 66.7417 560.866Z" fill="#F5B297"/>
<path d="M64.128 559.797C63.8003 559.27 63.0182 559.358 63.0117 559.358L63.002 559.273C63.0377 559.27 63.8457 559.179 64.1994 559.751L64.128 559.797Z" fill="#201600"/>
<path d="M66.5557 560.404C66.1987 559.897 65.4231 560.03 65.4166 560.03L65.4004 559.949C65.4328 559.943 66.2377 559.803 66.6238 560.355L66.5557 560.404Z" fill="#201600"/>
<path d="M65.7939 560.859C65.7484 561.015 65.6316 561.119 65.5375 561.09C65.4401 561.061 65.4012 560.911 65.4466 560.755C65.4921 560.599 65.6089 560.495 65.703 560.524C65.8004 560.554 65.8393 560.703 65.7939 560.859Z" fill="black"/>
<path d="M63.7641 560.332C63.7252 560.492 63.6116 560.599 63.5142 560.573C63.4169 560.547 63.3714 560.401 63.4104 560.241C63.4493 560.082 63.5629 559.975 63.6603 560.001C63.7576 560.027 63.8031 560.173 63.7641 560.332Z" fill="black"/>
<path d="M64.4589 562.393L64.0176 562.315L64.0338 562.234L64.3908 562.296L64.7121 560.544L64.7932 560.56L64.4589 562.393Z" fill="#201600"/>
<path d="M63.0212 562.728C63.3133 563.362 64.5887 563.498 64.6017 563.498L64.5919 563.583C64.5368 563.576 63.2549 563.44 62.9434 562.764L63.0212 562.728Z" fill="#201600"/>
<path d="M67.0589 560.342C66.478 560.258 66.1178 559.059 65.3616 558.389C64.6801 557.645 63.6839 557.173 63.5962 556.605C63.58 556.335 63.9337 556.026 64.5795 556.007C65.2059 555.977 66.1243 556.237 66.8252 556.949C67.5489 557.638 67.656 558.578 67.6301 559.195C67.6073 559.829 67.3315 560.362 67.0589 560.346V560.342Z" fill="#735846"/>
<path d="M65.8124 558.028C65.5722 558.526 64.6214 558.392 63.849 558.704C63.0377 558.906 62.2005 559.93 61.7072 559.67C61.48 559.523 61.4865 558.639 61.6617 558.019C61.8273 557.411 62.4471 556.494 63.2389 556.257C64.021 555.987 64.8388 556.277 65.3353 556.673C65.8513 557.073 65.9065 557.781 65.8124 558.032V558.028Z" fill="#735846"/>
<path d="M62.5336 560.274C62.3713 560.635 61.9494 560.797 61.5892 560.635C61.229 560.472 61.0667 560.05 61.229 559.689C61.3913 559.328 61.8131 559.166 62.1734 559.328C62.5336 559.491 62.6958 559.913 62.5336 560.274Z" fill="#F5B297"/>
<path d="M61.6025 559.626L61.5938 559.71L62.107 559.763L62.1157 559.679L61.6025 559.626Z" fill="#201600"/>
<path d="M61.8888 560.68C61.8888 560.843 61.759 560.973 61.5968 560.973C61.4345 560.973 61.3047 560.843 61.3047 560.68C61.3047 560.518 61.4345 560.388 61.5968 560.388C61.759 560.388 61.8888 560.518 61.8888 560.68Z" fill="#DB5964"/>
<path d="M63.6327 561.438C63.5548 561.587 63.2855 561.604 63.0356 561.47C62.7824 561.337 62.6429 561.11 62.7208 560.96C62.7987 560.81 63.068 560.794 63.3179 560.927C63.571 561.061 63.7106 561.288 63.6327 561.438Z" fill="#D19881"/>
<path d="M65.0664 561.795C65.0664 561.964 65.2936 562.104 65.5792 562.104C65.8647 562.104 66.0951 561.971 66.0951 561.802C66.0951 561.633 65.868 561.493 65.5824 561.493C65.2968 561.493 65.0664 561.626 65.0664 561.795Z" fill="#D19881"/>
<path d="M57.1417 594.811H56.2428C56.2428 592.562 54.8279 590.732 53.0884 590.732C51.349 590.732 49.9341 592.562 49.9341 594.811H49.0352C49.0352 593.501 49.4441 592.263 50.1872 591.33C50.9531 590.365 51.9851 589.835 53.0852 589.835C54.1853 589.835 55.2173 590.365 55.9832 591.33C56.7263 592.266 57.1352 593.501 57.1352 594.811H57.1417Z" fill="#F9ECAF"/>
<path d="M57.3686 600.109C54.5388 600.609 51.6408 600.609 48.811 600.109C47.5616 599.888 46.786 598.854 47.0553 597.938C47.2371 597.271 47.4188 596.602 47.6038 595.935C47.8731 595.012 48.8369 594.483 49.7781 594.648C51.9718 595.035 54.2175 595.035 56.4081 594.648C57.3459 594.486 58.313 595.016 58.5824 595.935C58.7641 596.602 58.9458 597.271 59.1275 597.938C59.3969 598.857 58.618 599.891 57.3719 600.109H57.3686Z" fill="#DB5964"/>
<path d="M52.88 597.606C52.8378 597.606 52.7989 597.603 52.7632 597.59C51.9065 597.343 48.9273 594.847 48.8008 594.743L48.8559 594.678C48.8884 594.704 51.9486 597.268 52.7892 597.509C53.6134 597.746 57.008 594.71 57.0436 594.678L57.0988 594.739C56.9625 594.86 53.899 597.603 52.8833 597.603L52.88 597.606Z" fill="#201600"/>
<path d="M53.4147 597.255H52.3438V597.931H53.4147V597.255Z" fill="black"/>
<path d="M73.1367 567.194C73.1367 567.883 74.0681 569.651 74.8437 569.651C75.6193 569.651 75.8854 568.25 75.8854 567.561C75.8854 566.872 75.3175 566.628 74.5419 566.628C73.7663 566.628 73.1367 566.505 73.1367 567.194Z" fill="#F5B297"/>
<path d="M73.0749 564.382L72.8315 566.94C72.8056 567.2 72.5167 568.646 72.7796 568.672C73.0425 568.698 73.7499 567.291 73.7726 567.031C73.7726 567.025 73.7726 567.018 73.7726 567.012L73.9057 564.444C73.9187 564.213 73.7402 564.018 73.5098 564.005C73.2859 563.992 73.0944 564.161 73.0717 564.382H73.0749Z" fill="#F5B297"/>
<path d="M74.7641 566.154L74.5597 567.711C74.5337 567.915 74.6765 568.104 74.8842 568.133C75.0724 568.159 75.2477 568.039 75.2964 567.857L75.702 566.339C75.7702 566.082 75.6176 565.819 75.3645 565.751C75.1081 565.682 74.8453 565.835 74.7771 566.089C74.7706 566.108 74.7674 566.131 74.7641 566.15V566.154Z" fill="#F5B297"/>
<path d="M73.8438 565.955L73.9022 567.525C73.9087 567.733 74.0839 567.896 74.2916 567.886C74.4831 567.879 74.6323 567.73 74.6518 567.545L74.7978 565.981C74.8238 565.718 74.6291 565.484 74.3662 565.458C74.1034 565.432 73.8697 565.627 73.8438 565.89C73.8438 565.91 73.8438 565.932 73.8438 565.952V565.955Z" fill="#F5B297"/>
<path d="M74.9282 568.179C74.9087 568.179 74.8925 568.179 74.873 568.176C74.7627 568.163 74.6653 568.104 74.5971 568.016C74.529 567.929 74.4998 567.818 74.5128 567.708L74.7172 566.151C74.7172 566.128 74.7237 566.105 74.7302 566.082C74.7594 565.972 74.8211 565.878 74.9119 565.806L74.9639 565.871C74.8892 565.93 74.8373 566.011 74.8113 566.102C74.8048 566.121 74.8016 566.141 74.8016 566.157L74.5971 567.714C74.5842 567.802 74.6101 567.89 74.6621 567.961C74.714 568.033 74.7951 568.078 74.8827 568.088C75.0482 568.111 75.204 568.003 75.2494 567.844L75.3306 567.867C75.2819 568.052 75.1131 568.176 74.9282 568.176V568.179Z" fill="black"/>
<path d="M74.2468 567.912C74.1689 567.912 74.104 567.892 74.0456 567.85C73.8217 567.691 73.8509 567.281 73.8509 567.265L73.9352 567.272C73.9352 567.272 73.9093 567.652 74.0943 567.782C74.1851 567.847 74.3214 567.84 74.4967 567.762L74.5324 567.84C74.4285 567.886 74.3344 567.912 74.25 567.912H74.2468Z" fill="black"/>
<path d="M72.7351 568.071L73.0402 566.944L73.0726 566.827C73.0856 566.771 73.1213 566.726 73.1667 566.697L73.2154 566.664L74.2312 566.014C74.4096 565.9 74.6563 565.936 74.7764 566.115C74.8997 566.297 74.8478 566.547 74.666 566.664L73.8158 567.207L73.8255 568.227C73.8255 568.276 73.819 568.328 73.806 568.38C73.7249 568.682 73.2251 569.141 72.9266 569.053C72.6313 568.968 72.6572 568.367 72.7351 568.068V568.071Z" fill="#F5B297"/>
<path d="M73.7829 568.231L73.7732 567.187L74.6429 566.631C74.7241 566.579 74.776 566.501 74.7955 566.407C74.8149 566.313 74.7955 566.219 74.7403 566.141C74.6364 565.988 74.4158 565.946 74.2535 566.053L73.1891 566.735C73.1501 566.761 73.1242 566.797 73.1112 566.839L73.0073 567.22L72.7218 568.205L72.6406 568.182L73.0301 566.817C73.0463 566.752 73.0885 566.696 73.1436 566.661L74.2081 565.978C74.4093 565.848 74.6819 565.9 74.8117 566.089C74.8766 566.186 74.9025 566.303 74.8766 566.42C74.8539 566.537 74.7857 566.635 74.6851 566.696L73.8543 567.229L73.8641 568.227H73.7797L73.7829 568.231Z" fill="black"/>
<path d="M73.8695 565.931L73.7852 565.932L73.7877 566.312L73.8721 566.311L73.8695 565.931Z" fill="black"/>
<path d="M67.1241 568.669L71.0216 572.101L72.3262 568.292L76.0939 568.029L75.1041 576.421C75.1301 576.795 75.0457 577.178 74.838 577.526C74.3025 578.42 73.144 578.706 72.2516 578.169L72.1023 578.078L63.8691 573.115L67.1176 568.669H67.1241Z" fill="#72A15C"/>
<path d="M67.0811 568.562L64.7381 566.859L64.0663 568.162C63.4822 569.3 61.8044 569.111 61.4831 567.876L60.9931 566.001C60.9931 566.001 60.9704 565.991 60.9607 565.988C60.8406 565.936 57.7089 566.94 57.7089 566.94C56.1707 567.499 54.9051 568.63 54.1781 570.099C52.6496 573.184 50.1378 578.29 50.1378 578.29L50.0664 578.43C49.8587 578.849 49.8036 579.343 49.9561 579.824C50.2676 580.806 53.3019 579.915 54.282 579.606L55.0543 578.4L54.9083 580.308L63.6217 582.434L65.8966 576.219L66.9156 574.071L68.9407 571.607C68.6875 570.415 68.032 569.339 67.0844 568.565L67.0811 568.562Z" fill="#72A15C"/>
<path d="M65.0664 577.188C65.0664 577.188 65.4104 577.013 65.7966 576.675C66.517 576.038 67.3738 574.822 66.3905 573.08L65.0664 577.188Z" fill="#72A15C"/>
<path d="M70.7958 571.844L70.752 571.916L72.2211 572.812L72.265 572.74L70.7958 571.844Z" fill="#201600"/>
<path d="M57.1045 574.656L54.3066 579.479L54.3796 579.521L57.1775 574.699L57.1045 574.656Z" fill="#201600"/>
<path d="M75.451 566.82L75.1395 567.951C75.0973 568.1 75.1849 568.256 75.3342 568.295C75.4705 568.334 75.6133 568.263 75.6685 568.136L76.1261 567.057C76.2039 566.875 76.1196 566.664 75.9378 566.589C75.7561 566.511 75.5452 566.596 75.4705 566.778C75.464 566.791 75.4575 566.807 75.4543 566.823L75.451 566.82Z" fill="#F5B297"/>
<path d="M75.4081 568.344C75.3789 568.344 75.3497 568.341 75.3237 568.331C75.2394 568.308 75.1712 568.253 75.129 568.178C75.0868 568.104 75.0771 568.016 75.0998 567.935L75.4114 566.804C75.4114 566.804 75.4211 566.768 75.4276 566.755L75.5055 566.787C75.5055 566.787 75.4957 566.813 75.4925 566.826L75.1809 567.954C75.1647 568.016 75.1712 568.081 75.2037 568.136C75.2361 568.191 75.2848 568.23 75.3465 568.25C75.46 568.282 75.5834 568.224 75.6288 568.113L75.9273 567.408L76.0052 567.441L75.7067 568.146C75.6548 568.266 75.5379 568.341 75.4081 568.341V568.344Z" fill="black"/>
<path d="M54.987 589.549C55.1071 590.378 54.2569 591.047 53.2444 591.193C52.2318 591.34 51.3167 590.787 51.1966 589.958C51.0765 589.129 51.8002 588.34 52.8127 588.193C53.8252 588.047 54.8702 588.72 54.9903 589.549H54.987Z" fill="#F5B297"/>
<path d="M52.121 589.978L52.2151 591.418C52.2281 591.616 52.0788 591.785 51.8808 591.798C51.6991 591.811 51.5433 591.684 51.5076 591.512L51.2188 590.098C51.1669 589.851 51.3259 589.607 51.5758 589.555C51.8224 589.503 52.0658 589.663 52.1177 589.913C52.121 589.932 52.1242 589.955 52.1275 589.975L52.121 589.978Z" fill="#F5B297"/>
<path d="M53.0425 589.822L53.1755 591.291C53.1982 591.535 53.0165 591.752 52.7731 591.775C52.5427 591.795 52.335 591.632 52.2961 591.408L52.0429 589.955C51.9943 589.679 52.1792 589.415 52.4551 589.367C52.7309 589.318 52.9938 589.503 53.0425 589.779C53.0425 589.792 53.0457 589.809 53.049 589.822H53.0425Z" fill="#F5B297"/>
<path d="M53.9637 589.87L53.9409 591.161C53.9377 591.391 53.7462 591.577 53.5158 591.57C53.3016 591.567 53.1264 591.398 53.1069 591.187L52.9998 589.9C52.9771 589.633 53.1751 589.399 53.4412 589.376C53.7073 589.354 53.9409 589.552 53.9637 589.818C53.9637 589.835 53.9637 589.851 53.9637 589.867V589.87Z" fill="#F5B297"/>
<path d="M54.8571 589.754L54.776 591.232C54.763 591.466 54.5618 591.649 54.3282 591.636C54.1107 591.623 53.9387 591.447 53.9257 591.232L53.8446 589.754C53.8284 589.474 54.0426 589.237 54.3217 589.221C54.6008 589.204 54.8377 589.419 54.8539 589.698C54.8539 589.718 54.8539 589.734 54.8539 589.754H54.8571Z" fill="#F5B297"/>
<path d="M53.9711 591.232L53.8867 591.229L53.9224 589.994L54.0068 589.997L53.9711 591.232Z" fill="black"/>
<path d="M53.1663 590.137L53.082 590.14L53.1322 591.338L53.2165 591.335L53.1663 590.137Z" fill="black"/>
<path d="M52.1461 590.299L52.0625 590.311L52.2049 591.341L52.2885 591.33L52.1461 590.299Z" fill="black"/>
<path d="M54.8147 589.379L54.793 590.14L54.8773 590.142L54.899 589.382L54.8147 589.379Z" fill="black"/>
<path d="M54.2802 579.6L54.7799 589.155L51.1648 589.539L49.9121 579.661L54.2802 579.6Z" fill="#72A15C"/>
<path d="M61.2659 566.277C61.2659 566.485 61.0972 566.651 60.8927 566.651C60.6883 566.651 60.5195 566.482 60.5195 566.277C60.5195 566.072 60.6883 565.903 60.8927 565.903C61.0972 565.903 61.2659 566.072 61.2659 566.277Z" fill="#DB5964"/>
<path d="M61.5257 566.957C61.5257 567.165 61.3569 567.331 61.1525 567.331C60.948 567.331 60.7793 567.162 60.7793 566.957C60.7793 566.752 60.948 566.583 61.1525 566.583C61.3569 566.583 61.5257 566.752 61.5257 566.957Z" fill="#DB5964"/>
<path d="M61.762 567.636C61.762 567.844 61.5933 568.01 61.3888 568.01C61.1844 568.01 61.0156 567.841 61.0156 567.636C61.0156 567.431 61.1844 567.262 61.3888 567.262C61.5933 567.262 61.762 567.431 61.762 567.636Z" fill="#DB5964"/>
<path d="M62.1351 568.205C62.1351 568.413 61.9663 568.579 61.7619 568.579C61.5574 568.579 61.3887 568.41 61.3887 568.205C61.3887 568 61.5574 567.831 61.7619 567.831C61.9663 567.831 62.1351 568 62.1351 568.205Z" fill="#DB5964"/>
<path d="M62.6253 568.676C62.6253 568.884 62.4566 569.05 62.2521 569.05C62.0477 569.05 61.8789 568.881 61.8789 568.676C61.8789 568.471 62.0477 568.302 62.2521 568.302C62.4566 568.302 62.6253 568.471 62.6253 568.676Z" fill="#DB5964"/>
<path d="M63.3167 568.816C63.3167 569.024 63.148 569.189 62.9435 569.189C62.7391 569.189 62.5703 569.02 62.5703 568.816C62.5703 568.611 62.7391 568.442 62.9435 568.442C63.148 568.442 63.3167 568.611 63.3167 568.816Z" fill="#DB5964"/>
<path d="M63.9847 568.578C63.9847 568.786 63.8159 568.952 63.6115 568.952C63.407 568.952 63.2383 568.783 63.2383 568.578C63.2383 568.374 63.407 568.205 63.6115 568.205C63.8159 568.205 63.9847 568.374 63.9847 568.578Z" fill="#DB5964"/>
<path d="M64.5023 568.162C64.5023 568.37 64.3335 568.536 64.1291 568.536C63.9246 568.536 63.7559 568.367 63.7559 568.162C63.7559 567.958 63.9246 567.789 64.1291 567.789C64.3335 567.789 64.5023 567.958 64.5023 568.162Z" fill="#DB5964"/>
<path d="M64.973 567.776C64.973 567.984 64.8042 568.149 64.5998 568.149C64.3953 568.149 64.2266 567.98 64.2266 567.776C64.2266 567.571 64.3953 567.402 64.5998 567.402C64.8042 567.402 64.973 567.571 64.973 567.776Z" fill="#DB5964"/>
<path d="M65.2405 567.203C65.2405 567.411 65.0718 567.577 64.8673 567.577C64.6629 567.577 64.4941 567.408 64.4941 567.203C64.4941 566.999 64.6629 566.83 64.8673 566.83C65.0718 566.83 65.2405 566.999 65.2405 567.203Z" fill="#DB5964"/>
<path d="M77.2642 610.233L77.222 621.144L74.4993 621.833L73.6328 610.324L77.2642 610.233Z" fill="#F5B297"/>
<path d="M77.0808 621.16C75.9904 621.414 74.8416 621.547 73.6668 621.537C73.4039 621.537 73.18 621.716 73.1703 621.953C73.1605 622.168 73.352 622.353 73.6019 622.386C74.861 622.551 76.1494 622.571 77.4215 622.438C77.8726 622.386 77.5611 621.102 77.1814 621.144C77.1489 621.147 77.11 621.154 77.0808 621.16Z" fill="#A2C096"/>
<path d="M80.6249 610.376L80.6801 614.348L80.5697 613.85L82.6597 619.964L80.2387 620.929L77.5582 615.053L77.4835 614.891L77.4446 614.556L77 610.607L80.6249 610.376Z" fill="#F5B297"/>
<path d="M82.3276 619.454C81.4352 620.13 80.4389 620.718 79.3615 621.19C79.1213 621.294 78.9883 621.554 79.0759 621.771C79.1538 621.97 79.4037 622.064 79.647 621.989C80.864 621.628 82.0485 621.121 83.1584 620.481C83.5478 620.25 82.743 619.204 82.412 619.395C82.3828 619.412 82.3503 619.434 82.3244 619.454H82.3276Z" fill="#A2C096"/>
<path d="M83.563 610.809C79.4999 611.839 75.0864 611.277 71.0137 609.499C71.6043 608.576 72.2144 607.315 72.8278 605.787C75.7063 605.498 78.5848 605.144 81.4698 604.851C82.1805 606.892 82.8879 608.927 83.5662 610.809H83.563Z" fill="#A2C096"/>
<path d="M77.2648 594.918C76.0284 594.905 74.8958 596.238 74.0813 598.191C73.2667 600.164 72.7702 602.761 72.7735 605.725C75.6844 606.723 78.8453 606.723 81.7562 605.725C81.7562 602.761 81.263 600.164 80.4484 598.191C79.6339 596.238 78.5045 594.905 77.2648 594.918Z" fill="#FFB243"/>
<path d="M86.4867 602.218C86.7301 602.553 86.5938 603.099 86.1849 603.44C85.776 603.781 85.247 603.788 85.0036 603.456C84.7602 603.121 84.8965 602.575 85.3054 602.234C85.7143 601.893 86.2433 601.886 86.4867 602.218Z" fill="#F5B297"/>
<path d="M86.6658 602.192C86.708 602.27 86.7535 602.358 86.8021 602.439C86.8508 602.52 86.8995 602.601 86.9514 602.679C87.0033 602.757 87.0553 602.832 87.1072 602.9L87.1461 602.949L87.1851 602.991C87.1851 602.991 87.2078 603.014 87.2208 603.027H87.224V603.034H87.2305C87.2305 603.034 87.237 603.043 87.2435 603.05L87.3084 603.115C87.4025 603.209 87.4025 603.365 87.3084 603.456C87.2305 603.534 87.1137 603.547 87.0228 603.495L86.9709 603.466L86.9449 603.45L86.9319 603.443L86.9222 603.437C86.8962 603.417 86.867 603.398 86.8443 603.378L86.7762 603.32L86.7145 603.261C86.6366 603.18 86.5652 603.102 86.4971 603.021C86.4289 602.939 86.3673 602.858 86.3056 602.774C86.244 602.689 86.1855 602.608 86.1239 602.517C86.0265 602.371 86.0655 602.176 86.2115 602.078C86.3575 601.981 86.5523 602.02 86.6496 602.166C86.6561 602.176 86.6626 602.185 86.6658 602.195V602.192Z" fill="#F5B297"/>
<path d="M86.4492 602.573L87.0593 603.72C87.1145 603.827 87.0756 603.957 86.9685 604.016C86.8711 604.068 86.7543 604.038 86.6926 603.954L85.9138 602.911C85.8099 602.771 85.8391 602.573 85.9787 602.469C86.1182 602.365 86.3162 602.394 86.42 602.534C86.4298 602.547 86.4395 602.56 86.446 602.573H86.4492Z" fill="#F5B297"/>
<path d="M86.2062 602.952L86.6476 604.188C86.6865 604.301 86.6281 604.425 86.5178 604.467C86.4139 604.503 86.3036 604.457 86.2517 604.366L85.6286 603.212C85.5442 603.06 85.6026 602.868 85.7552 602.783C85.9077 602.699 86.0992 602.757 86.1835 602.91C86.19 602.923 86.1965 602.939 86.203 602.952H86.2062Z" fill="#F5B297"/>
<path d="M86.0599 603.21L86.0243 604.539C86.021 604.659 85.9204 604.753 85.8003 604.75C85.69 604.75 85.6024 604.666 85.5894 604.558L85.4304 603.239C85.4077 603.066 85.5342 602.907 85.7062 602.884C85.8782 602.862 86.0372 602.988 86.0599 603.161C86.0599 603.177 86.0599 603.193 86.0599 603.206V603.21Z" fill="#F5B297"/>
<path d="M85.5009 603.395C85.4976 603.427 85.4944 603.447 85.4912 603.473L85.4782 603.544C85.4684 603.59 85.4587 603.635 85.4457 603.684C85.423 603.775 85.3938 603.869 85.3581 603.96C85.3224 604.054 85.277 604.149 85.2056 604.24C85.1699 604.285 85.1309 604.334 85.0758 604.376C85.0238 604.418 84.9589 604.457 84.8843 604.477C84.7772 604.506 84.6636 604.444 84.6344 604.337C84.6149 604.266 84.6344 604.194 84.6831 604.142L84.748 604.074C84.748 604.074 84.761 604.058 84.7707 604.045C84.7804 604.032 84.7902 604.009 84.7999 603.986C84.8194 603.937 84.8389 603.872 84.8486 603.804C84.8616 603.736 84.8681 603.664 84.8713 603.59C84.8713 603.554 84.8713 603.515 84.8713 603.479V603.424C84.8713 603.408 84.8713 603.385 84.8681 603.375C84.8389 603.2 84.9589 603.037 85.1342 603.008C85.3094 602.979 85.4717 603.099 85.5009 603.274C85.5041 603.304 85.5074 603.333 85.5009 603.359V603.398V603.395Z" fill="#F5B297"/>
<path d="M78.9106 595.666L78.9496 595.675L78.9755 595.682L79.0242 595.695L79.1151 595.721C79.1735 595.737 79.2286 595.753 79.2838 595.77C79.339 595.786 79.3942 595.802 79.4461 595.822C79.5012 595.838 79.5532 595.857 79.6051 595.874C79.8128 595.945 80.0172 596.02 80.2184 596.101C80.6176 596.26 81.007 596.436 81.39 596.631C81.7697 596.826 82.1429 597.034 82.5063 597.265C82.8698 597.492 83.2235 597.739 83.561 598.006C83.8985 598.272 84.2295 598.552 84.5411 598.86C84.8494 599.166 85.1479 599.485 85.4173 599.829L85.5211 599.956C85.5536 599.998 85.586 600.044 85.6185 600.086L85.8132 600.349L85.9949 600.622C86.0241 600.668 86.0566 600.713 86.0858 600.759L86.1702 600.898C86.2253 600.993 86.2838 601.087 86.3357 601.181L86.4882 601.47C86.5142 601.519 86.5401 601.568 86.5629 601.617L86.631 601.766L86.7673 602.062L84.4794 603.209L84.3496 603.008L84.2847 602.907C84.262 602.875 84.2393 602.842 84.2166 602.81L84.0803 602.618C84.0316 602.556 83.9829 602.494 83.9342 602.432L83.8596 602.341C83.8336 602.312 83.8077 602.283 83.7817 602.254L83.6259 602.075L83.4604 601.906C83.4345 601.877 83.4052 601.847 83.3793 601.821L83.2917 601.74C83.0645 601.519 82.8179 601.321 82.5647 601.129C82.3116 600.937 82.0423 600.765 81.7664 600.603C81.4906 600.44 81.2017 600.294 80.9097 600.161C80.6144 600.027 80.3158 599.907 80.0075 599.8C79.7024 599.693 79.3909 599.602 79.0794 599.524C78.9236 599.485 78.7678 599.449 78.6153 599.42C78.5764 599.413 78.5407 599.403 78.5017 599.397C78.4628 599.39 78.4271 599.384 78.3914 599.377C78.3557 599.371 78.32 599.368 78.2875 599.361L78.2421 599.355C78.2421 599.355 78.2291 599.355 78.2226 599.355H78.2129H78.2161L78.9009 595.666H78.9106Z" fill="#FFB243"/>
<path d="M74.9188 599.017L74.8799 599.007L74.8572 599.001L74.8118 598.987L74.7274 598.961C74.6755 598.945 74.6203 598.926 74.5716 598.909C74.5197 598.893 74.471 598.874 74.4223 598.857C74.3737 598.841 74.325 598.822 74.2763 598.802C74.0848 598.731 73.8966 598.653 73.7116 598.571C73.3417 598.409 72.9847 598.233 72.6375 598.038C72.287 597.847 71.9462 597.635 71.6185 597.411C71.2874 597.187 70.9662 596.946 70.6579 596.686C70.3496 596.426 70.051 596.153 69.7719 595.858C69.4928 595.562 69.2267 595.256 68.9833 594.925L68.8925 594.801C68.8633 594.759 68.8341 594.717 68.8048 594.674L68.6329 594.421L68.4706 594.161C68.4446 594.119 68.4154 594.073 68.3927 594.031L68.3181 593.898C68.2694 593.807 68.2207 593.719 68.172 593.628L68.039 593.352C68.0163 593.306 67.9935 593.261 67.9741 593.215L67.9157 593.075L67.7988 592.796L69.9699 591.801L70.0835 591.993L70.1386 592.087C70.1581 592.12 70.1808 592.149 70.2003 592.178L70.3236 592.364C70.3658 592.422 70.4112 592.481 70.4534 592.542L70.5183 592.63C70.541 592.659 70.5638 592.689 70.5897 592.715L70.7293 592.884L70.8785 593.046C70.9045 593.072 70.9272 593.101 70.9532 593.127L71.0311 593.205C71.2355 593.417 71.4594 593.612 71.6866 593.797C71.917 593.982 72.1637 594.151 72.4135 594.314C72.6667 594.473 72.9295 594.619 73.1989 594.756C73.4682 594.889 73.7473 595.012 74.0264 595.123C74.3087 595.234 74.5943 595.328 74.8832 595.412C75.0259 595.455 75.172 595.49 75.3115 595.523C75.3472 595.533 75.3829 595.539 75.4154 595.546C75.4511 595.552 75.4835 595.562 75.5192 595.565C75.5549 595.572 75.5841 595.578 75.6166 595.585L75.6588 595.591C75.6588 595.591 75.6717 595.591 75.675 595.591H75.6815H75.6782L74.9188 599.01V599.017Z" fill="#FFB243"/>
<path d="M69.1621 590.212C69.1459 590.212 69.1296 590.202 69.1231 590.183L68.1496 587.41L66.7379 587.004C66.7152 586.997 66.7022 586.975 66.7087 586.952C66.7152 586.929 66.7379 586.916 66.7606 586.923L68.2145 587.342L69.201 590.153C69.2075 590.176 69.1978 590.199 69.1751 590.209C69.1718 590.209 69.1653 590.209 69.1621 590.209V590.212Z" fill="#D24A43"/>
<path d="M69.9314 589.019H67.9551V593.033H69.9314V589.019Z" fill="#00CEA8"/>
<path d="M68.061 590.966C68.5218 590.907 68.882 591.385 68.9567 591.947C69.0281 592.51 68.7165 593.017 68.2557 593.075C67.7949 593.134 67.3633 592.727 67.2919 592.165C67.2205 591.603 67.6002 591.028 68.061 590.969V590.966Z" fill="#F5B297"/>
<path d="M68.2726 592.558L69.0709 592.519C69.1812 592.513 69.2721 592.597 69.2786 592.708C69.2851 592.809 69.2137 592.896 69.1163 592.913L68.331 593.062C68.1947 593.088 68.0616 592.997 68.0357 592.861C68.0097 592.724 68.1006 592.591 68.2369 592.565C68.2466 592.565 68.2596 592.562 68.2726 592.562V592.558Z" fill="#F5B297"/>
<path d="M68.1939 592.045L69.0084 591.983C69.1447 591.973 69.2615 592.074 69.2745 592.211C69.2842 592.341 69.1934 592.454 69.0668 592.474L68.2588 592.604C68.1062 592.63 67.9602 592.523 67.9375 592.37C67.9115 592.217 68.0186 592.071 68.1711 592.048C68.1776 592.048 68.1874 592.048 68.1939 592.048V592.045Z" fill="#F5B297"/>
<path d="M68.2309 591.535L68.9448 591.561C69.0714 591.564 69.172 591.671 69.1687 591.801C69.1655 591.921 69.0681 592.016 68.9513 592.025L68.2374 592.074C68.0881 592.084 67.9615 591.973 67.9518 591.824C67.942 591.674 68.0524 591.548 68.2017 591.538C68.2114 591.538 68.2211 591.538 68.2309 591.538V591.535Z" fill="#F5B297"/>
<path d="M68.1712 591.037L68.989 591.096C69.1188 591.106 69.2162 591.216 69.2064 591.346C69.1967 591.466 69.0993 591.561 68.9793 591.564L68.1615 591.596C68.0057 591.603 67.8759 591.483 67.8694 591.327C67.8629 591.171 67.983 591.041 68.1387 591.034C68.1485 591.034 68.1582 591.034 68.168 591.034L68.1712 591.037Z" fill="#F5B297"/>
<path d="M68.3007 591.491L68.2969 591.575L68.9809 591.606L68.9847 591.522L68.3007 591.491Z" fill="black"/>
<path d="M69.0309 591.944L68.3691 591.961L68.3713 592.046L69.0331 592.029L69.0309 591.944Z" fill="black"/>
<path d="M69.0213 592.461L68.4512 592.53L68.4614 592.614L69.0316 592.544L69.0213 592.461Z" fill="black"/>
<path d="M68.3828 591.096L67.9609 591.076L67.9642 590.992L68.3861 591.011L68.3828 591.096Z" fill="black"/>
<path d="M78.7293 595.708C77.7784 596.017 76.7497 596.017 75.7988 595.708C75.9838 595.133 76.172 594.557 76.357 593.982C76.9444 594.174 77.5805 594.174 78.1678 593.982C78.3528 594.557 78.541 595.133 78.726 595.708H78.7293Z" fill="#F5B297"/>
<path d="M75.7988 595.708C75.7988 595.708 77.6389 594.073 78.2035 594.093L76.3732 593.895L75.7988 595.708Z" fill="#D19881"/>
<path d="M71.9746 587.849C71.874 588.392 71.9648 588.873 72.179 588.999C72.2472 589.006 72.3153 589.009 72.39 589.012C72.7826 589.032 73.2791 589.029 73.8308 588.957C74.2949 588.902 74.8433 588.895 75.3723 588.996C75.4437 589.009 75.5151 589.025 75.5865 589.042C75.6579 589.061 75.726 589.081 75.7942 589.103C75.9954 589.168 76.1869 589.25 76.3686 589.357C76.4011 589.376 76.4335 589.393 76.466 589.402C76.7321 589.5 76.9657 589.328 76.969 589.003C76.969 588.902 76.9495 588.788 76.9008 588.665C76.8943 588.645 76.8846 588.626 76.8781 588.606C76.625 588.067 76.2096 587.472 75.6611 587.059C75.1192 586.643 74.4409 586.406 73.8049 586.461C73.2954 586.507 72.8735 586.659 72.5327 586.861C72.4841 586.89 72.4354 586.923 72.39 586.952C72.2115 587.114 72.0492 587.446 71.9746 587.846V587.849Z" fill="#94765A"/>
<path d="M76.2076 589.097C76.5516 589.039 76.8209 588.857 76.9086 588.652C76.954 588.701 76.9832 588.759 76.9929 588.821C77.0384 589.094 76.7171 589.377 76.2692 589.455C75.8214 589.533 75.4222 589.373 75.3768 589.1C75.3671 589.039 75.3768 588.974 75.3995 588.912C75.5488 589.078 75.8636 589.156 76.2076 589.097Z" fill="#D24A43"/>
<path d="M74.9122 591.294C74.9836 591.184 74.9349 590.839 75.0517 590.407C75.1523 589.978 75.4379 589.484 75.8565 589.149C76.6873 588.473 77.6057 588.522 78.1736 588.255C78.43 588.135 78.4981 587.82 77.9594 587.566C77.4726 587.309 76.4796 587.316 75.5547 588.21C74.6103 589.094 74.5162 590.221 74.672 590.738C74.8343 591.297 74.8602 591.388 74.9122 591.291V591.294Z" fill="#94765A"/>
<path d="M80.4855 591.509L79.7812 592.688V591.229L80.4855 591.509Z" fill="#94765A"/>
<path d="M74.5753 590.895C74.5559 591.213 74.796 591.489 75.114 591.509C75.4321 591.532 75.7079 591.288 75.7274 590.969C75.7468 590.651 75.5067 590.374 75.1887 590.355C74.8706 590.332 74.5948 590.576 74.5753 590.895Z" fill="#F5B297"/>
<path d="M75.4574 590.701L74.7891 590.865L74.8091 590.947L75.4774 590.783L75.4574 590.701Z" fill="black"/>
<path d="M80.1181 591.712C80.4235 590.076 79.5113 588.533 78.0807 588.265C76.6502 587.997 75.243 589.106 74.9376 590.741C74.6323 592.377 75.5445 593.92 76.975 594.188C78.4056 594.456 79.8128 593.347 80.1181 591.712Z" fill="#F5B297"/>
<path d="M80.2897 591.505C80.1437 591.492 80.0398 591.183 79.8256 590.836C79.6179 590.481 79.3031 590.091 78.9202 589.76C78.1933 589.11 77.3333 588.687 77.3203 587.982C77.33 587.66 77.7 587.355 78.2809 587.387C78.8456 587.41 79.6212 587.774 80.1242 588.512C80.6532 589.237 80.7505 590.075 80.6921 590.637C80.6337 591.216 80.4163 591.515 80.2897 591.499V591.505Z" fill="#94765A"/>
<path d="M80.708 591.05C80.708 591.369 80.4484 591.629 80.1304 591.629C79.8124 591.629 79.5527 591.369 79.5527 591.05C79.5527 590.732 79.8124 590.472 80.1304 590.472C80.4484 590.472 80.708 590.732 80.708 591.05Z" fill="#F5B297"/>
<path d="M79.8359 590.795L79.8105 590.875L80.4667 591.083L80.492 591.002L79.8359 590.795Z" fill="black"/>
<path d="M83.9398 589.711C83.7191 590.218 83.3752 590.566 83.1253 590.55C83.0669 590.517 83.0052 590.481 82.9435 590.442C82.606 590.238 82.2004 589.958 81.7818 589.591C81.428 589.285 80.9769 588.973 80.4837 588.759C80.4155 588.729 80.3474 588.703 80.2792 588.677C80.2111 588.651 80.1429 588.629 80.0715 588.609C79.8703 588.551 79.6626 588.512 79.4517 588.499C79.4127 588.499 79.3803 588.492 79.3446 588.482C79.0687 588.414 78.9714 588.141 79.1531 587.868C79.2083 587.784 79.2894 587.702 79.3998 587.624C79.416 587.611 79.4355 587.602 79.4517 587.589C79.9644 587.283 80.6394 587.02 81.3242 586.987C82.0057 586.945 82.7001 587.13 83.1967 587.533C83.5926 587.858 83.8554 588.222 84.0274 588.577C84.0534 588.629 84.0761 588.681 84.0956 588.733C84.154 588.967 84.1021 589.334 83.9398 589.708V589.711Z" fill="#94765A"/>
<path d="M79.735 588.375C79.4819 588.135 79.3618 587.833 79.404 587.615C79.3391 587.631 79.284 587.66 79.2385 587.706C79.0471 587.907 79.1574 588.323 79.4852 588.635C79.8129 588.951 80.2316 589.042 80.423 588.843C80.4685 588.798 80.4944 588.739 80.5074 588.674C80.2932 588.726 79.9849 588.616 79.735 588.375Z" fill="#FFB243"/>
<path d="M83.003 590.186L82.9219 590.169C83.1912 588.762 83.7689 588.726 83.7948 588.723V588.808C83.7948 588.808 83.2561 588.853 83.003 590.186Z" fill="black"/>
<path d="M75.0121 588.957L74.9277 588.944C74.9342 588.908 75.0835 588.099 76.4043 587.576L76.4368 587.654C75.1581 588.161 75.0121 588.951 75.0121 588.957Z" fill="black"/>
<path d="M76.1449 590.208C76.1157 590.364 76.0216 590.475 75.9339 590.459C75.8463 590.442 75.7976 590.303 75.8269 590.15C75.8561 589.994 75.9502 589.883 76.0378 589.9C76.1254 589.916 76.1741 590.056 76.1449 590.208Z" fill="black"/>
<path d="M78.5121 590.651C78.4829 590.803 78.3887 590.917 78.3011 590.901C78.2135 590.885 78.1648 590.745 78.194 590.592C78.2232 590.436 78.3174 590.326 78.405 590.342C78.4926 590.358 78.5413 590.498 78.5121 590.651Z" fill="black"/>
<path d="M77.2868 591.441C77.1051 591.187 76.9331 591.07 76.774 591.089C76.5436 591.119 76.4138 591.428 76.4138 591.431L76.3359 591.398C76.3359 591.398 76.4852 591.037 76.7643 591.005C76.9558 590.982 77.1537 591.112 77.3549 591.392L77.2868 591.441Z" fill="black"/>
<path d="M78.8398 589.997C78.6256 589.675 78.2038 589.636 78.1973 589.636L78.2038 589.552C78.2232 589.552 78.6711 589.594 78.908 589.948L78.8366 589.994L78.8398 589.997Z" fill="black"/>
<path d="M75.7198 589.663L75.6484 589.617C75.8853 589.263 76.3332 589.221 76.3527 589.221L76.3591 589.305C76.3591 589.305 75.9308 589.347 75.7166 589.666L75.7198 589.663Z" fill="black"/>
<path d="M77.6939 592.51L77.7523 592.572C77.7296 592.594 77.1584 593.134 75.9512 592.744L75.9771 592.663C77.1324 593.033 77.6874 592.516 77.6939 592.51Z" fill="black"/>
<path d="M78.5526 591.697C78.5169 591.827 78.3157 591.889 78.1048 591.831C77.8938 591.772 77.751 591.619 77.7867 591.489C77.8224 591.359 78.0236 591.298 78.2346 591.356C78.4455 591.415 78.5883 591.567 78.5526 591.697Z" fill="#D19881"/>
<path d="M75.9627 591.154C75.9271 591.284 75.7258 591.346 75.5149 591.288C75.304 591.229 75.1612 591.076 75.1969 590.946C75.2326 590.816 75.4338 590.755 75.6447 590.813C75.8557 590.872 75.9984 591.024 75.9627 591.154Z" fill="#D19881"/>
<path d="M76.3194 596.335C76.8321 596.452 77.2767 596.163 77.2378 595.887C76.6958 595.949 76.1766 595.828 75.7514 595.578C75.5957 595.802 75.8066 596.215 76.3194 596.332V596.335Z" fill="white"/>
<path d="M78.0769 596.377C78.5961 596.296 78.9012 595.861 78.7649 595.62C78.2846 595.88 77.7589 595.961 77.2721 595.887C77.2137 596.153 77.5577 596.459 78.0801 596.374L78.0769 596.377Z" fill="white"/>
</g>
<g clip-path="url(#clip1_1753_9265)">
<path d="M316.723 964H294.594V966.282H316.723V964Z" fill="#2A8EC6"/>
<path d="M315.322 966.282H295.994V1001H315.322V966.282Z" fill="#A9D4EA"/>
<path d="M301.762 969.95H299.789V974.058H301.762V969.95Z" fill="white"/>
<path d="M306.645 969.95H304.672V974.058H306.645V969.95Z" fill="white"/>
<path d="M311.527 969.95H309.555V974.058H311.527V969.95Z" fill="white"/>
<path d="M306.645 977.955H304.672V982.063H306.645V977.955Z" fill="white"/>
<path d="M301.762 985.96H299.789V990.068H301.762V985.96Z" fill="white"/>
<path d="M311.527 985.96H309.555V990.068H311.527V985.96Z" fill="white"/>
<path d="M307.403 994.772H303.912V1001H307.403V994.772Z" fill="white"/>
<path d="M292.657 1001H277.646V986.282L285.152 981.732L292.657 986.282V1001Z" fill="#A9D4EA"/>
<path d="M286.559 995.412H283.746V1001H286.559V995.412Z" fill="white"/>
<path d="M285.152 980.62L276.131 986.083L276.788 987.015L285.152 981.838L293.518 987.015L294.173 986.083L285.152 980.62Z" fill="#2A8EC6"/>
<path d="M286.041 985.354H284.264V987.83H286.041V985.354Z" fill="white"/>
<path d="M286.041 989.695H284.264V992.172H286.041V989.695Z" fill="white"/>
<path d="M274.049 1001H253.412V988.98L263.731 983.833L274.049 988.98V1001Z" fill="#A9D4EA"/>
<path d="M265.18 995.493H262.408V1001H265.18V995.493Z" fill="white"/>
<path d="M263.73 982.462L251.328 988.644L252.228 989.696L263.73 983.843L275.231 989.696L276.131 988.644L263.73 982.462Z" fill="#2A8EC6"/>
<path d="M259.141 989.415H257.051V991.523H259.141V989.415Z" fill="white"/>
<path d="M264.773 989.415H262.684V991.523H264.773V989.415Z" fill="white"/>
<path d="M270.406 989.415H268.316V991.523H270.406V989.415Z" fill="white"/>
<path d="M259.141 994.918H257.051V997.026H259.141V994.918Z" fill="white"/>
<path d="M270.406 994.918H268.316V997.026H270.406V994.918Z" fill="white"/>
<path d="M245.868 989.144L245.195 1000.51H246.541L245.868 989.144Z" fill="#2A8EC6"/>
<path d="M245.46 985.875L243.635 987.951C243.375 988.294 243.616 988.789 244.043 988.789H247.697C248.124 988.789 248.368 988.294 248.106 987.951L246.28 985.875C246.073 985.604 245.667 985.604 245.46 985.875Z" fill="#2A8EC6"/>
<path d="M245.064 987.784L243.333 990.061C242.821 990.736 243.296 991.711 244.139 991.711H247.602C248.445 991.711 248.92 990.736 248.408 990.061L246.676 987.784C246.27 987.249 245.471 987.249 245.064 987.784Z" fill="#2A8EC6"/>
<path d="M245.141 989.668L242.592 993.02C242.128 993.63 242.56 994.508 243.32 994.508H248.421C249.181 994.508 249.61 993.627 249.149 993.02L246.599 989.668C246.232 989.186 245.511 989.186 245.143 989.668H245.141Z" fill="#2A8EC6"/>
<path d="M245.09 991.799L242.203 995.592C241.707 996.246 242.168 997.191 242.984 997.191H248.755C249.572 997.191 250.034 996.246 249.536 995.592L246.649 991.797C246.254 991.278 245.48 991.278 245.085 991.797L245.09 991.799Z" fill="#2A8EC6"/>
</g>
<path d="M74 1932V1689C74 1622.73 127.726 1569 194 1569V1569" stroke="white" stroke-width="80"/>
<path d="M74 1932V1732C74 1665.73 127.726 1612 194 1612V1612" stroke="url(#paint6_linear_1753_9265)" stroke-width="80"/>
<g clip-path="url(#clip2_1753_9265)">
<path d="M94.7309 1053H73.4883V1106.87H94.7309V1053Z" fill="#D7DBDD"/>
<path d="M79.8259 1064.33H77.6582V1068.8H79.8259V1064.33Z" fill="#A8CDDD"/>
<path d="M85.193 1064.33H83.0254V1068.8H85.193V1064.33Z" fill="#A8CDDD"/>
<path d="M90.5602 1064.33H88.3926V1068.8H90.5602V1064.33Z" fill="#A8CDDD"/>
<path d="M79.8259 1056.48H77.6582V1060.95H79.8259V1056.48Z" fill="#A8CDDD"/>
<path d="M85.193 1056.48H83.0254V1060.95H85.193V1056.48Z" fill="#A8CDDD"/>
<path d="M90.5602 1056.48H88.3926V1060.95H90.5602V1056.48Z" fill="#A8CDDD"/>
<path d="M79.8259 1072.18H77.6582V1076.65H79.8259V1072.18Z" fill="#A8CDDD"/>
<path d="M85.193 1072.18H83.0254V1076.65H85.193V1072.18Z" fill="#A8CDDD"/>
<path d="M90.5602 1072.18H88.3926V1076.65H90.5602V1072.18Z" fill="#A8CDDD"/>
<path d="M79.8259 1080.03H77.6582V1084.5H79.8259V1080.03Z" fill="#A8CDDD"/>
<path d="M85.193 1080.03H83.0254V1084.5H85.193V1080.03Z" fill="#A8CDDD"/>
<path d="M90.5602 1080.03H88.3926V1084.5H90.5602V1080.03Z" fill="#A8CDDD"/>
<path d="M79.8259 1087.87H77.6582V1092.35H79.8259V1087.87Z" fill="#A8CDDD"/>
<path d="M85.193 1087.87H83.0254V1092.35H85.193V1087.87Z" fill="#A8CDDD"/>
<path d="M90.5602 1087.87H88.3926V1092.35H90.5602V1087.87Z" fill="#A8CDDD"/>
<path d="M79.8259 1095.72H77.6582V1100.19H79.8259V1095.72Z" fill="#A8CDDD"/>
<path d="M90.5602 1095.72H88.3926V1100.19H90.5602V1095.72Z" fill="#A8CDDD"/>
<path d="M86.0257 1100.09H82.1914V1106.87H86.0257V1100.09Z" fill="#A8CDDD"/>
<path d="M75.0442 1106.78H57.5566V1072.91L75.0442 1063.24V1106.78Z" fill="#EDEDEB"/>
<path d="M66.0073 1073.69H63.8867V1078.07H66.0073V1073.69Z" fill="#A8CDDD"/>
<path d="M71.2573 1073.69H69.1367V1078.07H71.2573V1073.69Z" fill="#A8CDDD"/>
<path d="M66.0073 1081.37H63.8867V1085.75H66.0073V1081.37Z" fill="#A8CDDD"/>
<path d="M71.2573 1081.37H69.1367V1085.75H71.2573V1081.37Z" fill="#A8CDDD"/>
<path d="M66.0073 1089.05H63.8867V1093.43H66.0073V1089.05Z" fill="#A8CDDD"/>
<path d="M71.2573 1089.05H69.1367V1093.43H71.2573V1089.05Z" fill="#A8CDDD"/>
<path d="M71.2573 1096.73H69.1367V1101.1H71.2573V1096.73Z" fill="#A8CDDD"/>
<path d="M66.5318 1100.15H62.7793V1106.78H66.5318V1100.15Z" fill="#A8CDDD"/>
<path d="M105.871 1106.78H88.5918V1089.48L97.2302 1084.8L105.871 1089.48V1106.78Z" fill="#F4F3ED"/>
<path d="M97.2296 1083.53L86.8477 1089.76H107.614L97.2296 1083.53Z" fill="#A37866"/>
<path d="M97.9638 1092.28H96.498V1094.3H97.9638V1092.28Z" fill="#A8CDDD"/>
<path d="M97.9638 1095.82H96.498V1097.85H97.9638V1095.82Z" fill="#A8CDDD"/>
<path d="M98.5415 1101.62H95.9199V1106.78H98.5415V1101.62Z" fill="#A8CDDD"/>
<path d="M60.8472 1089.52C60.7381 1087.31 59.3343 1085.49 57.442 1084.8C57.4816 1084.53 57.504 1084.26 57.504 1083.97C57.504 1081.97 56.0109 1080.35 54.1706 1080.35C53.6349 1080.35 53.1116 1080.5 52.6453 1080.78C51.9757 1080.09 51.063 1079.66 50.0585 1079.66C48.124 1079.66 46.3333 1081.44 46.3333 1083.63C46.3333 1083.81 46.3408 1083.98 46.3532 1084.15C44.999 1084.59 43.8383 1085.83 43.5878 1087.44C43.3497 1088.97 43.5481 1090.36 44.6369 1091.22C43.9226 1092.29 43.5456 1093.62 43.7068 1094.99C44.0665 1098.06 45.5992 1100.41 49.751 1099.92C50.8472 1099.79 51.7326 1099.48 52.432 1099.02C53.0645 1099.61 53.9995 1099.97 55.3363 1099.97C58.2034 1099.97 59.3963 1098.04 59.3963 1095.67C59.3963 1095.09 59.2872 1094.55 59.0937 1094.04C60.4157 1093.04 60.9439 1091.38 60.8522 1089.52H60.8472Z" fill="#A6CE4E"/>
<path d="M55.5331 1094.75C54.8064 1095.79 53.9781 1096.87 52.8545 1097.49L52.5916 1093.1C52.7057 1093.03 52.7925 1092.95 52.9017 1092.85C53.7424 1092.05 54.293 1091 54.7767 1089.95C54.169 1090.91 53.5118 1091.94 52.5594 1092.57L52.2667 1087.68L51.8922 1093.95C51.3416 1093.55 50.8332 1093.06 50.4116 1092.55C49.8015 1091.81 49.3377 1090.97 49.0078 1090.07C49.4418 1091.84 50.4116 1093.49 51.8526 1094.63L51.6095 1098.68C51.0614 1098.21 50.548 1097.68 50.0966 1097.13C49.2533 1096.12 48.5763 1094.98 48.0703 1093.76C48.7152 1095.97 49.9106 1098 51.5549 1099.61L51.0986 1107.27H53.4399L52.9017 1098.25C54.3922 1097.33 55.2628 1095.71 55.9969 1094.18L56.2821 1093.51C56.1085 1093.83 55.734 1094.45 55.5356 1094.75H55.5331Z" fill="#775645"/>
<path d="M44.0199 1093.23L43.1816 1107.29H44.8607L44.0199 1093.23Z" fill="#775645"/>
<path d="M48.8263 1101.5L47.5689 1099.86C48.365 1099.85 48.8114 1098.93 48.3253 1098.29L46.8422 1096.36C47.5589 1096.18 47.9111 1095.3 47.425 1094.66L45.984 1092.79H46.3015C46.8347 1092.79 47.1373 1092.17 46.8124 1091.75L44.5331 1089.18C44.2752 1088.84 43.7692 1088.84 43.5113 1089.18L41.232 1091.75C40.9071 1092.17 41.2097 1092.79 41.743 1092.79H42.0604L40.6194 1094.66C40.1333 1095.3 40.4855 1096.18 41.2023 1096.36L39.7191 1098.29C39.2306 1098.93 39.677 1099.85 40.4756 1099.86L39.2182 1101.5C38.6899 1102.19 39.181 1103.18 40.049 1103.18H48.0004C48.8685 1103.18 49.357 1102.19 48.8313 1101.5H48.8263Z" fill="#5FAA4F"/>
</g>
<g clip-path="url(#clip3_1753_9265)">
<path d="M209.088 1518.46C209.136 1518.75 208.294 1519.15 207.207 1519.37C206.121 1519.58 205.199 1519.52 205.148 1519.23C205.1 1518.95 205.942 1518.54 207.029 1518.33C208.116 1518.11 209.037 1518.17 209.088 1518.46Z" fill="black"/>
<path d="M211.127 1519.85L207.59 1519.59L208.04 1516.46L211.333 1516.71L211.127 1519.85Z" fill="#979695"/>
<path d="M206.131 1518.78C207.386 1518.78 210.888 1518.55 211.279 1518.01V1520.24H205.054C204.909 1520.24 204.795 1520.1 204.808 1519.94C204.869 1519.21 205.197 1518.78 206.134 1518.78H206.131Z" fill="black"/>
<path d="M214.578 1519.37L217.825 1519.36L217.818 1515.86L214.787 1515.87L214.578 1519.37Z" fill="#979695"/>
<path d="M216.231 1518.81C216.869 1518.81 217.45 1518.61 217.862 1518.28C217.997 1518.57 218.106 1519.09 218.183 1519.56C218.261 1520.03 217.982 1520.48 217.605 1520.48H214.879C214.505 1520.48 214.225 1520.04 214.299 1519.56C214.37 1519.1 214.492 1518.68 214.655 1518.33C215.065 1518.63 215.62 1518.81 216.231 1518.81Z" fill="black"/>
<path d="M214.584 1519.29C214.584 1519.9 215.37 1520.39 216.343 1520.39C217.315 1520.39 218.101 1519.9 218.101 1519.29C218.101 1518.69 217.315 1518.19 216.343 1518.19C215.37 1518.19 214.584 1518.69 214.584 1519.29Z" fill="black"/>
<path d="M219.178 1517.14L217.837 1491.27L214.203 1491.6L208.064 1491.11L206.721 1516.95L211.627 1517.36L213.091 1505.57L214.274 1517.58L219.178 1517.14Z" fill="#DB5964"/>
<path d="M213.058 1505.56L211.865 1493.48L211.086 1493.29L211.101 1493.23L211.926 1493.43L211.928 1493.45L213.122 1505.55L213.058 1505.56Z" fill="black"/>
<path d="M210.771 1476.06C211.901 1476.3 213.072 1476.25 214.177 1475.91C214.161 1475.87 214.146 1475.82 214.131 1475.77C214.034 1475.45 213.937 1475.13 213.841 1474.81C213.724 1474.43 213.607 1474.04 213.489 1473.66C213.479 1473.63 213.469 1473.59 213.459 1473.56C213.454 1473.54 213.446 1473.52 213.441 1473.5C213.362 1473.52 213.281 1473.55 213.202 1473.57C212.576 1473.72 211.924 1473.73 211.293 1473.59L211.28 1473.66L211.011 1474.94L210.805 1475.91L210.774 1476.06H210.771Z" fill="#F5B297"/>
<path d="M210.771 1476.06C210.771 1476.06 210.81 1476.01 210.881 1475.91C211.031 1475.7 211.326 1475.31 211.683 1474.9C211.932 1474.62 212.212 1474.34 212.497 1474.1C212.825 1473.82 213.159 1473.61 213.462 1473.56H213.202L211.293 1473.59L211.28 1473.65L211.011 1474.93L210.805 1475.91L210.774 1476.06L210.771 1476.06Z" fill="#D19881"/>
<path d="M214.133 1475.77L210.805 1475.91C210.873 1475.59 210.942 1475.26 211.011 1474.94L213.843 1474.82L214.133 1475.77V1475.77Z" fill="#A2C096"/>
<path d="M210.591 1472.08C210.677 1473.12 210.914 1473.9 211.275 1474.28C211.631 1474.67 212.115 1474.66 212.604 1474.37C213.095 1474.08 213.477 1473.62 213.695 1473.15C213.914 1472.66 214.171 1471.87 214.044 1471.27C213.917 1470.67 214.561 1470.28 214.176 1469.68C213.795 1469.09 212.186 1468.59 211.741 1468.45C210.955 1468.13 210.542 1469.47 210.555 1471.31C210.555 1471.56 210.568 1471.82 210.591 1472.08V1472.08Z" fill="#F5B297"/>
<path d="M211.63 1472.64C211.586 1472.64 211.543 1472.63 211.513 1472.6C211.477 1472.57 211.457 1472.52 211.459 1472.47L211.49 1470.84H211.556L211.525 1472.47C211.525 1472.5 211.536 1472.53 211.558 1472.55C211.581 1472.57 211.609 1472.58 211.64 1472.58L211.912 1472.56L211.917 1472.62L211.645 1472.65C211.645 1472.65 211.635 1472.65 211.63 1472.65V1472.64Z" fill="black"/>
<path d="M212.696 1470.83C212.703 1470.93 212.663 1471.02 212.602 1471.02C212.543 1471.03 212.487 1470.95 212.479 1470.85C212.472 1470.75 212.513 1470.67 212.574 1470.66C212.632 1470.66 212.688 1470.74 212.696 1470.83Z" fill="black"/>
<path d="M210.977 1470.97C210.985 1471.07 210.944 1471.16 210.883 1471.16C210.824 1471.17 210.768 1471.09 210.761 1470.99C210.753 1470.89 210.794 1470.81 210.855 1470.8C210.913 1470.8 210.969 1470.88 210.977 1470.97Z" fill="black"/>
<path d="M212.973 1470.39C212.726 1470.23 212.326 1470.37 212.321 1470.37L212.301 1470.31C212.319 1470.31 212.736 1470.16 213.011 1470.34L212.975 1470.4L212.973 1470.39Z" fill="black"/>
<path d="M210.552 1470.48L210.514 1470.43C210.666 1470.32 211.068 1470.37 211.086 1470.38L211.079 1470.44C210.969 1470.43 210.661 1470.41 210.552 1470.48V1470.48Z" fill="black"/>
<path d="M211.52 1473.35C211.588 1473.35 211.654 1473.36 211.721 1473.35C211.787 1473.35 211.853 1473.35 211.919 1473.34C212.051 1473.32 212.181 1473.3 212.308 1473.26C212.436 1473.23 212.558 1473.18 212.675 1473.12L212.761 1473.07L212.843 1473.01C212.901 1472.98 212.947 1472.93 213.003 1472.89C212.917 1472.99 212.817 1473.09 212.7 1473.16C212.586 1473.23 212.459 1473.29 212.326 1473.33C212.194 1473.36 212.059 1473.39 211.924 1473.39C211.789 1473.4 211.652 1473.39 211.52 1473.35Z" fill="white"/>
<path d="M215.065 1471.07C215.058 1470.93 215.009 1470.79 214.938 1470.68C214.997 1470.56 215.027 1470.43 215.019 1470.28C215.007 1470.06 214.91 1469.87 214.768 1469.74C214.778 1469.68 214.783 1469.61 214.78 1469.54C214.76 1469.19 214.523 1468.91 214.223 1468.85C214.111 1468.58 213.856 1468.39 213.571 1468.41C213.493 1468.41 213.419 1468.43 213.35 1468.46C213.347 1468.46 213.342 1468.46 213.34 1468.46C213.233 1468.18 212.973 1467.98 212.681 1468C212.543 1468.01 212.419 1468.06 212.317 1468.14C212.207 1468.07 212.078 1468.03 211.94 1468.04C211.818 1468.05 211.706 1468.09 211.612 1468.16C211.51 1468.1 211.393 1468.07 211.271 1468.08C211.034 1468.09 210.836 1468.24 210.729 1468.45C210.678 1468.5 210.637 1468.56 210.604 1468.63C210.568 1468.62 210.533 1468.62 210.495 1468.62C210.126 1468.64 209.846 1468.99 209.868 1469.4C209.886 1469.73 210.092 1470 210.362 1470.08C210.405 1470.13 210.456 1470.18 210.512 1470.22C210.665 1470.02 210.889 1469.88 211.146 1469.87L213.073 1469.76C213.088 1469.76 213.101 1469.76 213.116 1469.76C213.164 1469.91 213.258 1470.07 213.393 1470.22C213.592 1470.45 213.826 1470.59 214.017 1470.62C214.019 1470.65 214.022 1470.67 214.024 1470.7L214.085 1471.76C214.19 1471.82 214.309 1471.86 214.437 1471.85C214.806 1471.83 215.086 1471.48 215.063 1471.07L215.065 1471.07Z" fill="#735846"/>
<path d="M214.604 1471.12C214.629 1471.42 214.408 1471.67 214.11 1471.7C213.812 1471.73 213.553 1471.5 213.527 1471.21C213.502 1470.91 213.723 1470.65 214.021 1470.62C214.319 1470.6 214.578 1470.82 214.604 1471.12Z" fill="#F5B297"/>
<path d="M213.903 1470.88L213.898 1470.95L214.259 1470.97L214.263 1470.91L213.903 1470.88Z" fill="black"/>
<path d="M234.34 1485.92C234.276 1485.81 234.147 1485.75 234.027 1485.78L233.999 1485.78C233.89 1485.81 233.772 1485.82 233.653 1485.82C233.533 1485.82 233.409 1485.81 233.284 1485.79C233.159 1485.77 233.034 1485.75 232.91 1485.72C232.849 1485.71 232.785 1485.69 232.726 1485.67C232.696 1485.66 232.665 1485.65 232.637 1485.65L232.594 1485.63L232.574 1485.63H232.564C232.564 1485.63 232.561 1485.62 232.559 1485.62C232.289 1485.49 231.698 1485.47 231.569 1485.74C231.507 1485.87 231.558 1486.04 231.658 1486.19L231.487 1486.49C231.495 1486.5 231.281 1487 231.174 1487.26C231.169 1487.24 231.164 1487.23 231.164 1487.22L230.736 1487.97L231.09 1488.11C231.266 1488.24 232.635 1489.14 232.833 1489.18C232.879 1489.19 232.928 1489.18 232.971 1489.17C233.062 1489.14 233.139 1489.06 233.159 1488.96C233.182 1488.86 233.136 1488.75 233.055 1488.69C233.027 1488.67 232.994 1488.65 232.956 1488.64C232.887 1488.61 232.721 1488.5 232.513 1488.34C232.51 1488.34 232.505 1488.34 232.503 1488.33C232.513 1488.33 232.525 1488.33 232.536 1488.32C232.724 1488.26 232.905 1488.16 233.065 1488.03C233.09 1488.01 233.116 1487.99 233.139 1487.96C233.151 1487.95 233.164 1487.94 233.177 1487.92C233.19 1487.91 233.205 1487.9 233.218 1487.88C233.261 1487.84 233.304 1487.78 233.342 1487.73C233.403 1487.65 233.449 1487.56 233.477 1487.46C233.477 1487.46 233.477 1487.46 233.477 1487.45C233.482 1487.44 233.487 1487.42 233.49 1487.4C233.49 1487.4 233.493 1487.39 233.495 1487.38C233.546 1487.14 233.495 1486.89 233.34 1486.68L233.284 1486.61C233.284 1486.61 233.294 1486.61 233.302 1486.61C233.457 1486.59 233.61 1486.56 233.765 1486.51C233.92 1486.47 234.073 1486.41 234.223 1486.33C234.363 1486.25 234.416 1486.07 234.337 1485.93L234.34 1485.92Z" fill="#F5B297"/>
<path d="M232.223 1485.83C232.325 1485.82 232.429 1485.85 232.523 1485.91C232.539 1485.92 232.551 1485.93 232.564 1485.94C232.704 1486.06 232.849 1486.17 232.997 1486.27C233.536 1486.65 234.127 1486.97 234.755 1487.18C234.941 1487.25 235.04 1487.45 234.977 1487.64C234.916 1487.81 234.735 1487.91 234.559 1487.87C234.379 1487.83 234.203 1487.77 234.03 1487.71C234 1487.7 233.969 1487.69 233.938 1487.67C233.806 1487.62 233.674 1487.56 233.547 1487.5H233.544C233.521 1487.49 233.498 1487.47 233.475 1487.46C232.997 1487.22 232.544 1486.91 232.083 1486.61L231.971 1486.74C231.928 1486.71 231.892 1486.67 231.862 1486.63C231.849 1486.62 231.836 1486.6 231.826 1486.58L232.223 1485.83V1485.83Z" fill="#F5B297"/>
<path d="M231.864 1486.63C231.864 1486.63 231.874 1486.62 231.879 1486.61C232.04 1486.42 232.327 1486.39 232.518 1486.55C232.531 1486.56 232.541 1486.57 232.554 1486.58C232.841 1486.88 233.157 1487.15 233.498 1487.38C233.564 1487.43 233.633 1487.48 233.704 1487.52C233.704 1487.52 233.704 1487.52 233.707 1487.52C233.786 1487.57 233.862 1487.62 233.943 1487.67C233.971 1487.69 234.002 1487.7 234.03 1487.72C234.162 1487.79 234.3 1487.86 234.437 1487.93C234.6 1488 234.671 1488.2 234.595 1488.36C234.524 1488.51 234.348 1488.59 234.19 1488.53C234.188 1488.53 234.183 1488.53 234.18 1488.53C234.147 1488.52 234.114 1488.51 234.081 1488.49C234.03 1488.48 233.979 1488.46 233.928 1488.44C233.63 1488.32 233.34 1488.18 233.06 1488.02C232.663 1487.8 232.287 1487.54 231.938 1487.25C231.813 1487.14 231.757 1486.98 231.778 1486.83C231.788 1486.76 231.816 1486.69 231.862 1486.63L231.864 1486.63Z" fill="#F5B297"/>
<path d="M231.536 1486.98C231.576 1486.93 231.622 1486.9 231.673 1486.88L231.426 1487.35C231.409 1487.22 231.444 1487.08 231.536 1486.98Z" fill="#F5B297"/>
<path d="M231.671 1486.88C231.704 1486.86 231.743 1486.85 231.778 1486.84C231.916 1486.81 232.063 1486.84 232.175 1486.94C232.188 1486.95 232.198 1486.96 232.208 1486.98C232.514 1487.31 232.85 1487.61 233.216 1487.88C233.478 1488.08 233.753 1488.25 234.043 1488.4C234.102 1488.43 234.15 1488.48 234.181 1488.54C234.232 1488.63 234.237 1488.74 234.183 1488.84C234.104 1488.99 233.926 1489.06 233.771 1489C233.529 1488.9 233.292 1488.79 233.063 1488.67C232.875 1488.57 232.689 1488.46 232.509 1488.34C232.442 1488.3 232.379 1488.25 232.315 1488.21C232.056 1488.03 231.806 1487.83 231.569 1487.62C231.485 1487.55 231.437 1487.45 231.422 1487.34L231.669 1486.87L231.671 1486.88Z" fill="#F5B297"/>
<path d="M231.536 1486.98C231.576 1486.93 231.622 1486.9 231.673 1486.88L231.426 1487.35C231.409 1487.22 231.444 1487.08 231.536 1486.98Z" fill="#F5B297"/>
<path d="M234.092 1488.5L234.102 1488.45C233.807 1488.39 232.756 1487.64 232.743 1487.63L232.713 1487.67C232.756 1487.7 233.784 1488.44 234.09 1488.5H234.092Z" fill="black"/>
<path d="M234.022 1487.75L234.037 1487.7C233.913 1487.66 233.18 1487.22 233.172 1487.21L233.146 1487.26C233.177 1487.28 233.892 1487.71 234.022 1487.75Z" fill="black"/>
<path d="M232.305 1488.23L233.04 1488.71L233.055 1488.69L233.068 1488.67L232.536 1488.32L232.333 1488.19L232.317 1488.21L232.305 1488.23Z" fill="black"/>
<path d="M232.119 1485.49L230.837 1488.17L223.143 1485.15L223.057 1485.11L222.914 1485.02L217.99 1482.3C217.85 1487.99 217.888 1488.7 217.845 1491.37C217.84 1491.67 217.835 1491.99 217.827 1492.34H215.249L215.094 1492.73L213.956 1492.34H207.96C207.927 1491.6 207.902 1490.9 207.884 1490.21L206.064 1489.58L205.69 1489.45C204.944 1489.19 204.334 1488.63 204.021 1487.91C204.018 1487.9 204.015 1487.89 204.01 1487.89C204.01 1487.88 204.005 1487.88 204.003 1487.87C203.695 1487.14 203.718 1486.31 204.046 1485.59C204.099 1485.48 204.155 1485.35 204.217 1485.22C205.319 1482.8 207.614 1477.79 207.721 1477.65C208.258 1476.94 208.988 1476.35 209.838 1476.09C210.164 1475.99 210.49 1475.9 210.821 1475.84C210.864 1475.83 210.91 1475.82 210.953 1475.81C211.999 1475.61 213.058 1475.57 214.109 1475.69C214.765 1475.76 215.422 1475.89 216.068 1476.09C216.56 1476.24 217.01 1476.5 217.407 1476.83L221.876 1480.12L224.716 1482.02L232.117 1485.49H232.119Z" fill="#A2C096"/>
<path d="M207.951 1481.64H207.885V1486.09H207.951V1481.64Z" fill="black"/>
<path d="M216.192 1489.93C216.294 1489.93 216.398 1489.96 216.492 1490.02C216.508 1490.03 216.52 1490.04 216.533 1490.05C216.673 1490.16 216.818 1490.27 216.966 1490.38C217.505 1490.76 218.096 1491.07 218.724 1491.29C218.91 1491.35 219.009 1491.56 218.946 1491.74C218.885 1491.92 218.704 1492.02 218.528 1491.98C218.348 1491.93 218.172 1491.88 217.999 1491.82C217.968 1491.8 217.938 1491.79 217.907 1491.78C217.775 1491.73 217.643 1491.67 217.515 1491.6H217.513C217.49 1491.59 217.467 1491.58 217.444 1491.57C216.966 1491.33 216.513 1491.02 216.052 1490.72L215.94 1490.84C215.897 1490.82 215.861 1490.78 215.831 1490.74C215.818 1490.72 215.805 1490.71 215.795 1490.69L216.192 1489.94V1489.93Z" fill="#F5B297"/>
<path d="M215.833 1490.74C215.833 1490.74 215.844 1490.73 215.849 1490.72C216.009 1490.53 216.297 1490.5 216.487 1490.66C216.5 1490.67 216.51 1490.68 216.521 1490.69C216.808 1490.99 217.124 1491.26 217.465 1491.49C217.531 1491.54 217.6 1491.59 217.671 1491.63C217.671 1491.63 217.671 1491.63 217.673 1491.63C217.752 1491.68 217.829 1491.73 217.91 1491.77C217.938 1491.79 217.969 1491.81 217.997 1491.83C218.129 1491.9 218.266 1491.97 218.404 1492.03C218.567 1492.11 218.638 1492.31 218.562 1492.47C218.49 1492.62 218.315 1492.69 218.157 1492.64C218.154 1492.64 218.149 1492.64 218.147 1492.64C218.114 1492.63 218.081 1492.61 218.048 1492.6C217.997 1492.58 217.946 1492.56 217.895 1492.54C217.597 1492.43 217.307 1492.29 217.027 1492.13C216.63 1491.91 216.253 1491.65 215.905 1491.35C215.78 1491.25 215.724 1491.09 215.744 1490.94C215.755 1490.87 215.782 1490.79 215.828 1490.73L215.833 1490.74Z" fill="#F5B297"/>
<path d="M215.503 1491.09C215.543 1491.04 215.589 1491.01 215.64 1490.98L215.393 1491.45C215.375 1491.33 215.411 1491.19 215.503 1491.09Z" fill="#F5B297"/>
<path d="M215.64 1490.98C215.673 1490.97 215.711 1490.95 215.747 1490.95C215.884 1490.91 216.032 1490.95 216.144 1491.05C216.157 1491.06 216.167 1491.07 216.177 1491.08C216.482 1491.42 216.818 1491.72 217.185 1491.99C217.447 1492.18 217.722 1492.36 218.012 1492.51C218.07 1492.54 218.119 1492.59 218.149 1492.64C218.2 1492.73 218.205 1492.85 218.152 1492.95C218.073 1493.1 217.895 1493.16 217.74 1493.1C217.498 1493.01 217.261 1492.9 217.032 1492.77C216.844 1492.67 216.658 1492.56 216.477 1492.45C216.411 1492.4 216.348 1492.36 216.284 1492.32C216.024 1492.14 215.775 1491.94 215.538 1491.73C215.454 1491.65 215.406 1491.55 215.391 1491.45L215.637 1490.98L215.64 1490.98Z" fill="#F5B297"/>
<path d="M215.503 1491.09C215.543 1491.04 215.589 1491.01 215.64 1490.98L215.393 1491.45C215.375 1491.33 215.411 1491.19 215.503 1491.09Z" fill="#F5B297"/>
<path d="M215.458 1490.6L215.888 1489.85C215.989 1489.85 216.399 1489.96 216.491 1490.02C216.506 1490.03 216.519 1490.04 216.532 1490.05C216.672 1490.16 216.817 1490.27 216.964 1490.38L217.31 1490.79C217.463 1491 217.514 1491.25 217.466 1491.49C217.466 1491.5 217.466 1491.5 217.46 1491.51C217.458 1491.53 217.453 1491.54 217.448 1491.56C217.448 1491.56 217.448 1491.56 217.448 1491.57C217.42 1491.66 217.374 1491.75 217.313 1491.84C217.275 1491.89 217.231 1491.94 217.188 1491.99C217.175 1492 217.16 1492.02 217.147 1492.03C217.135 1492.04 217.122 1492.06 217.109 1492.07C217.086 1492.09 217.061 1492.11 217.035 1492.14C216.875 1492.27 216.697 1492.37 216.506 1492.43C216.496 1492.44 216.483 1492.44 216.473 1492.44C216.476 1492.44 216.481 1492.45 216.483 1492.45C216.692 1492.61 216.857 1492.72 216.926 1492.75C216.964 1492.76 216.997 1492.77 217.025 1492.8L217.01 1492.82L216.274 1492.34L216.29 1492.32C216.03 1492.14 215.781 1491.94 215.544 1491.73C215.46 1491.66 215.325 1491.58 215.312 1491.48C215.312 1491.48 215.473 1490.61 215.463 1490.6H215.458Z" fill="#F5B297"/>
<path d="M218.063 1492.61L218.073 1492.56C217.778 1492.5 216.727 1491.74 216.714 1491.74L216.684 1491.78C216.727 1491.81 217.755 1492.55 218.06 1492.61H218.063Z" fill="black"/>
<path d="M217.991 1491.85L218.006 1491.81C217.881 1491.77 217.148 1491.33 217.141 1491.32L217.115 1491.37C217.146 1491.38 217.861 1491.81 217.991 1491.85Z" fill="black"/>
<path d="M216.271 1492.34L217.01 1492.82L217.022 1492.8L217.035 1492.78L217.038 1492.78L216.506 1492.43L216.299 1492.3L216.287 1492.32L216.271 1492.34Z" fill="black"/>
<path d="M215.54 1491.73C215.776 1491.94 216.026 1492.14 216.285 1492.32L216.27 1492.34L217.006 1492.82L217.021 1492.8C217.102 1492.86 217.148 1492.97 217.125 1493.07C217.105 1493.17 217.031 1493.25 216.937 1493.28C216.894 1493.29 216.848 1493.29 216.799 1493.29C216.601 1493.25 215.232 1492.34 215.056 1492.22L215.008 1492.18L215.326 1491.43C215.341 1491.53 215.453 1491.66 215.537 1491.73L215.54 1491.73Z" fill="#F5B297"/>
<path d="M216.332 1490.77H216.352H216.368H216.398L216.459 1490.77C216.498 1490.77 216.538 1490.77 216.576 1490.77C216.655 1490.77 216.732 1490.77 216.808 1490.76C216.963 1490.75 217.116 1490.74 217.269 1490.72C217.424 1490.69 217.577 1490.66 217.732 1490.62C217.887 1490.57 218.04 1490.51 218.19 1490.43C218.33 1490.35 218.383 1490.17 218.304 1490.03C218.241 1489.92 218.111 1489.86 217.991 1489.89L217.963 1489.89C217.854 1489.91 217.737 1489.92 217.617 1489.92C217.498 1489.92 217.373 1489.91 217.248 1489.9C217.124 1489.88 216.999 1489.86 216.874 1489.83C216.813 1489.81 216.752 1489.8 216.691 1489.78C216.66 1489.77 216.63 1489.76 216.602 1489.75L216.559 1489.74L216.538 1489.73H216.528C216.528 1489.73 216.526 1489.73 216.523 1489.73C216.253 1489.6 215.927 1489.71 215.798 1489.98C215.668 1490.25 215.782 1490.58 216.052 1490.71C216.113 1490.74 216.177 1490.75 216.24 1490.76L216.33 1490.77H216.332Z" fill="#F5B297"/>
<path d="M207.391 1485.87L216.514 1489.69L215.848 1491.11L215.089 1492.73L207.879 1490.21L207.391 1485.87Z" fill="#A2C096"/>
<path d="M207.481 1485.67L207.467 1485.7L216.441 1489.9L216.455 1489.87L207.481 1485.67Z" fill="black"/>
<path d="M215.08 1492.71L207.885 1490.2L207.875 1490.23L215.085 1492.75L215.08 1492.71Z" fill="black"/>
<path d="M216.53 1481.45L216.498 1481.5L217.969 1482.32L218.001 1482.26L216.53 1481.45Z" fill="black"/>
<path d="M187.131 1484.46L185.09 1481.54L188.233 1479.72L189.663 1481.56L187.131 1484.46Z" fill="#F5B297"/>
<path d="M187.493 1484.05C187.493 1484.05 188.229 1481.07 187.936 1479.9L189.127 1482.22L187.447 1484.1L187.496 1484.05L187.493 1484.05Z" fill="#D19881"/>
<path d="M191.229 1479.31C191.573 1480.93 190.977 1482.42 189.898 1482.65C188.822 1482.88 187.669 1481.76 187.328 1480.14C186.984 1478.52 187.58 1477.02 188.659 1476.8C189.738 1476.57 190.888 1477.69 191.229 1479.31Z" fill="#F5B297"/>
<path d="M189.332 1479.84C188.591 1480.03 187.815 1480 187.082 1479.77C186.779 1479.68 186.657 1479.34 186.8 1479.08C186.856 1478.96 186.912 1478.85 186.968 1478.74C187.11 1478.47 187.375 1478.36 187.573 1478.48C188.08 1478.75 188.652 1478.89 189.235 1478.86C189.467 1478.86 189.693 1478.96 189.739 1479.13C189.757 1479.21 189.775 1479.28 189.79 1479.35C189.836 1479.52 189.635 1479.77 189.332 1479.84Z" fill="#979695"/>
<path d="M190.961 1481.46L190.828 1481.3L190.615 1481.4L190.467 1481.22L190.253 1481.32L190.088 1481.12L190.139 1481.08L190.271 1481.24L190.485 1481.14L190.633 1481.32L190.846 1481.22L191.012 1481.42L190.961 1481.46Z" fill="#201600"/>
<path d="M191.31 1479.78C191.353 1479.88 191.462 1480.56 191.506 1480.85C191.516 1480.92 191.447 1480.98 191.358 1480.98H191.162L191.31 1479.78V1479.78Z" fill="#F5B297"/>
<path d="M190.204 1478.78L190.143 1478.75C190.153 1478.73 190.257 1478.53 190.891 1478.65L190.878 1478.72C190.298 1478.6 190.204 1478.77 190.204 1478.78Z" fill="#979695"/>
<path d="M190.684 1480.37C190.684 1480.37 190.671 1480.37 190.663 1480.37C190.386 1480.35 190.18 1479.99 190.205 1479.57C190.218 1479.36 190.279 1479.17 190.381 1479.04C190.485 1478.89 190.618 1478.82 190.755 1478.82C191.032 1478.84 191.239 1479.2 191.213 1479.63C191.2 1479.83 191.139 1480.02 191.037 1480.16C190.938 1480.29 190.813 1480.37 190.684 1480.37ZM190.735 1478.89C190.625 1478.89 190.521 1478.95 190.434 1479.07C190.34 1479.2 190.284 1479.38 190.271 1479.57C190.249 1479.96 190.427 1480.29 190.668 1480.3C190.78 1480.31 190.895 1480.24 190.984 1480.12C191.078 1479.99 191.134 1479.81 191.147 1479.62C191.17 1479.23 190.992 1478.91 190.75 1478.89C190.745 1478.89 190.74 1478.89 190.735 1478.89Z" fill="#201600"/>
<path d="M188.227 1479.15L188.215 1479.21L190.232 1479.6L190.245 1479.53L188.227 1479.15Z" fill="#201600"/>
<path d="M188.874 1479.68C188.917 1480 188.693 1480.29 188.372 1480.34C188.054 1480.38 187.762 1480.16 187.718 1479.84C187.675 1479.52 187.899 1479.23 188.22 1479.18C188.538 1479.14 188.83 1479.36 188.874 1479.68Z" fill="#F5B297"/>
<path d="M188.584 1479.48L188.002 1479.63L188.018 1479.69L188.6 1479.54L188.584 1479.48Z" fill="#201600"/>
<path d="M190.891 1479.64C190.909 1479.72 190.883 1479.79 190.837 1479.8C190.792 1479.81 190.741 1479.76 190.725 1479.67C190.71 1479.59 190.733 1479.52 190.779 1479.51C190.825 1479.5 190.876 1479.56 190.891 1479.64Z" fill="#201600"/>
<path d="M183.639 1518.35C183.588 1518.64 184.334 1519.07 185.304 1519.31C186.273 1519.55 187.1 1519.52 187.151 1519.23C187.202 1518.95 186.456 1518.52 185.487 1518.28C184.517 1518.03 183.69 1518.07 183.639 1518.35Z" fill="black"/>
<path d="M181.676 1516.54L181.75 1519.69L184.475 1519.49L184.211 1516.36L181.676 1516.54Z" fill="#979695"/>
<path d="M181.688 1517.85L181.635 1520.07L187.213 1520.24C187.343 1520.25 187.45 1520.11 187.442 1519.96C187.404 1519.22 187.122 1518.78 186.282 1518.75C185.157 1518.72 182.027 1518.39 181.688 1517.85V1517.85Z" fill="black"/>
<path d="M183.753 1495.34L186.771 1507.42L186.896 1507.91L186.838 1508.17L184.588 1517.97L180.829 1517.45L182.163 1507.52L182.229 1508.27L176.668 1496.68L183.753 1495.34Z" fill="#735846"/>
<path d="M182.001 1518.32C181.945 1518.6 182.774 1519.03 183.856 1519.28C184.938 1519.52 185.859 1519.48 185.917 1519.2C185.973 1518.91 185.144 1518.48 184.062 1518.24C182.981 1518 182.059 1518.03 182.001 1518.32Z" fill="black"/>
<path d="M179.801 1516.51L179.923 1519.66L183.466 1519.49L183.099 1516.35L179.801 1516.51Z" fill="#979695"/>
<path d="M179.822 1517.81L179.764 1520.04L185.986 1520.21C186.131 1520.21 186.251 1520.08 186.241 1519.92C186.2 1519.18 185.882 1518.75 184.948 1518.72C183.693 1518.69 180.199 1518.36 179.822 1517.82V1517.81Z" fill="black"/>
<path d="M186.154 1520.21L186.123 1520.2C186.197 1520 186.182 1519.8 186.078 1519.62C185.66 1518.88 183.973 1518.55 183.955 1518.55L183.96 1518.51C184.031 1518.52 185.681 1518.85 186.103 1519.6C186.212 1519.79 186.23 1520 186.151 1520.21H186.154Z" fill="white"/>
<path d="M185.665 1507.33L182.647 1495.26L180.751 1495.62C180.85 1493.62 179.853 1491.95 178.481 1491.85C177.076 1491.74 175.811 1493.32 175.656 1495.37C175.625 1495.78 175.641 1496.19 175.699 1496.57L175.816 1497.12C175.951 1497.61 176.16 1498.04 176.425 1498.39L180.993 1507.91L179.723 1517.37L183.484 1517.89L185.734 1508.09L185.793 1507.83L185.668 1507.33L185.665 1507.33Z" fill="#94765A"/>
<path d="M194.85 1494.15L194.059 1494.32L199.025 1517.55L199.816 1517.38L194.85 1494.15Z" fill="#735846"/>
<path d="M195.246 1494.02C195.14 1494.35 194.111 1494.4 193.269 1494.99C192.386 1495.52 191.93 1496.44 191.582 1496.4C191.421 1496.37 191.286 1496.03 191.409 1495.51C191.523 1495.01 191.892 1494.34 192.572 1493.91C193.238 1493.46 193.999 1493.4 194.506 1493.5C195.025 1493.59 195.287 1493.86 195.249 1494.01L195.246 1494.02Z" fill="#94765A"/>
<path d="M200.274 1518.29L198.986 1518.56L198.938 1517.41L199.851 1517.22L200.274 1518.29Z" fill="#201600"/>
<path d="M188.287 1497.51C188.643 1497.79 188.577 1498.47 188.141 1499.01C187.704 1499.55 187.062 1499.76 186.706 1499.48C186.35 1499.19 186.416 1498.52 186.851 1497.97C187.289 1497.43 187.93 1497.22 188.287 1497.51Z" fill="#F5B297"/>
<path d="M186.209 1492.26L186.021 1486.9L183.209 1484.88L182.43 1491.88L182.392 1491.96C182.053 1492.62 186.38 1499.31 186.38 1499.31L188.299 1497.47L186.207 1492.26H186.209Z" fill="#5D9142"/>
<path d="M187.585 1499.66L187.012 1498.96C186.934 1498.87 186.794 1498.86 186.697 1498.93C186.61 1499.01 186.59 1499.13 186.648 1499.22L187.119 1499.99C187.201 1500.13 187.379 1500.17 187.514 1500.09C187.649 1500.01 187.692 1499.83 187.608 1499.69C187.6 1499.68 187.593 1499.67 187.585 1499.66V1499.66Z" fill="#F5B297"/>
<path d="M188.072 1499.34L187.504 1498.61C187.41 1498.49 187.235 1498.47 187.113 1498.56C186.998 1498.65 186.973 1498.82 187.051 1498.94L187.555 1499.71C187.652 1499.86 187.848 1499.9 187.993 1499.8C188.141 1499.7 188.181 1499.51 188.085 1499.36C188.08 1499.35 188.075 1499.35 188.069 1499.34H188.072Z" fill="#F5B297"/>
<path d="M188.473 1498.92L187.911 1498.35C187.809 1498.24 187.643 1498.24 187.542 1498.34C187.445 1498.44 187.437 1498.59 187.519 1498.69L188.018 1499.32C188.122 1499.46 188.313 1499.48 188.443 1499.37C188.575 1499.27 188.595 1499.08 188.493 1498.95C188.486 1498.94 188.481 1498.93 188.473 1498.93V1498.92Z" fill="#F5B297"/>
<path d="M188.931 1498.6L188.264 1497.96C188.158 1497.86 187.99 1497.86 187.888 1497.97C187.794 1498.07 187.791 1498.22 187.875 1498.32L188.468 1499.03C188.58 1499.16 188.778 1499.18 188.913 1499.07C189.048 1498.95 189.064 1498.76 188.952 1498.62C188.944 1498.61 188.936 1498.6 188.929 1498.6L188.931 1498.6Z" fill="#F5B297"/>
<path d="M187.09 1500.01L186.62 1499.24C186.553 1499.13 186.576 1498.99 186.676 1498.91C186.79 1498.81 187.017 1498.9 187.103 1499.01L187.052 1499.05C186.984 1498.97 186.798 1498.89 186.716 1498.96C186.642 1499.02 186.625 1499.13 186.676 1499.21L187.146 1499.97L187.09 1500.01Z" fill="black"/>
<path d="M187.532 1499.76L187.028 1498.99C186.941 1498.85 186.972 1498.67 187.096 1498.57C187.163 1498.52 187.236 1498.5 187.31 1498.51C187.381 1498.52 187.448 1498.56 187.501 1498.62L187.45 1498.66C187.409 1498.61 187.359 1498.58 187.303 1498.57C187.247 1498.56 187.191 1498.58 187.14 1498.62C187.04 1498.7 187.015 1498.84 187.086 1498.95L187.59 1499.72L187.534 1499.76L187.532 1499.76Z" fill="black"/>
<path d="M187.992 1499.34L187.493 1498.71C187.399 1498.59 187.412 1498.42 187.518 1498.32C187.636 1498.2 187.821 1498.21 187.936 1498.32L188.498 1498.9C188.498 1498.9 188.514 1498.92 188.521 1498.92L188.47 1498.96C188.47 1498.96 188.458 1498.95 188.452 1498.94L187.89 1498.37C187.804 1498.27 187.658 1498.27 187.567 1498.36C187.483 1498.44 187.475 1498.57 187.546 1498.67L188.045 1499.3L187.994 1499.34L187.992 1499.34Z" fill="black"/>
<path d="M188.929 1498.64C188.929 1498.64 188.916 1498.63 188.909 1498.62L188.242 1497.98C188.15 1497.89 188.003 1497.9 187.913 1497.99C187.832 1498.08 187.827 1498.21 187.903 1498.3L187.852 1498.34C187.756 1498.23 187.761 1498.06 187.865 1497.94C187.98 1497.82 188.168 1497.82 188.288 1497.94L188.954 1498.57C188.954 1498.57 188.972 1498.59 188.98 1498.6L188.929 1498.65V1498.64Z" fill="#72A15C"/>
<path d="M186.049 1480.96C184.614 1481.38 182.906 1482.2 181.422 1483.52C178.19 1486.09 175.691 1490.82 175.757 1494.47C178.292 1495.2 181.835 1496.7 184.369 1497.42C184.329 1494.62 184.369 1489.88 186.021 1486.9C186.398 1486.13 186.828 1485.42 187.248 1484.78C187.51 1484.38 186.12 1481.44 186.046 1480.96H186.049Z" fill="#72A15C"/>
<path d="M182.034 1487.24L181.975 1487.27L184.282 1492.11L184.342 1492.08L182.034 1487.24Z" fill="#201600"/>
<path d="M186.644 1485.81L185.059 1481.37L185.12 1481.35L186.657 1485.66L187.252 1484.64L187.311 1484.68L186.644 1485.81Z" fill="#201600"/>
<path d="M193.022 1494.9C192.548 1495.42 191.711 1495.41 191.151 1494.9C190.591 1494.39 190.52 1493.55 190.991 1493.04C191.464 1492.52 192.302 1492.53 192.861 1493.04C193.421 1493.55 193.493 1494.39 193.022 1494.9Z" fill="#F5B297"/>
<path d="M192.033 1494.67L192.952 1495.03C193.079 1495.08 193.14 1495.22 193.092 1495.35C193.046 1495.46 192.924 1495.53 192.807 1495.5L191.847 1495.27C191.68 1495.23 191.575 1495.06 191.613 1494.89C191.654 1494.73 191.822 1494.62 191.99 1494.66C192.003 1494.66 192.018 1494.67 192.031 1494.67H192.033Z" fill="#F5B297"/>
<path d="M192.2 1494.06L193.149 1494.4C193.307 1494.45 193.391 1494.63 193.332 1494.79C193.279 1494.94 193.119 1495.02 192.966 1494.98L191.991 1494.72C191.805 1494.67 191.696 1494.48 191.747 1494.29C191.798 1494.11 191.986 1494 192.172 1494.05C192.182 1494.05 192.19 1494.05 192.2 1494.06Z" fill="#F5B297"/>
<path d="M192.495 1493.5L193.289 1493.88C193.432 1493.95 193.49 1494.13 193.422 1494.27C193.358 1494.4 193.203 1494.46 193.065 1494.41L192.236 1494.11C192.063 1494.04 191.976 1493.85 192.037 1493.68C192.101 1493.51 192.292 1493.42 192.462 1493.48C192.472 1493.49 192.482 1493.49 192.493 1493.5L192.495 1493.5Z" fill="#F5B297"/>
<path d="M192.678 1492.91L193.572 1493.39C193.714 1493.47 193.768 1493.64 193.691 1493.78C193.62 1493.92 193.462 1493.97 193.327 1493.92L192.388 1493.54C192.21 1493.47 192.124 1493.27 192.195 1493.09C192.266 1492.91 192.467 1492.83 192.645 1492.9C192.658 1492.9 192.668 1492.91 192.678 1492.91Z" fill="#F5B297"/>
<path d="M192.588 1493.51L192.559 1493.56L193.314 1493.94L193.344 1493.88L192.588 1493.51Z" fill="black"/>
<path d="M192.432 1494.07L192.406 1494.13L193.163 1494.44L193.189 1494.38L192.432 1494.07Z" fill="black"/>
<path d="M192.238 1494.75L192.219 1494.81L192.898 1495.02L192.917 1494.96L192.238 1494.75Z" fill="black"/>
<path d="M187.59 1489.57L185.801 1483.93L180.928 1485.2L184.267 1491.41L184.277 1491.49C184.376 1492.23 191.736 1495.28 191.736 1495.28L192.271 1492.67L187.588 1489.57L187.59 1489.57Z" fill="#72A15C"/>
</g>
<g clip-path="url(#clip4_1753_9265)">
<path d="M154.053 1460.24H126.238V1463.09H154.053V1460.24Z" fill="#D7DBDD"/>
<path d="M152.289 1463.09H127.998V1498.64H152.289V1463.09Z" fill="#D7DBDD"/>
<path d="M135.244 1467.66H132.766V1472.77H135.244V1467.66Z" fill="#A8CDDD"/>
<path d="M141.385 1467.66H138.906V1472.77H141.385V1467.66Z" fill="#A8CDDD"/>
<path d="M147.522 1467.66H145.043V1472.77H147.522V1467.66Z" fill="#A8CDDD"/>
<path d="M141.385 1477.63H138.906V1482.75H141.385V1477.63Z" fill="#A8CDDD"/>
<path d="M135.244 1487.6H132.766V1492.72H135.244V1487.6Z" fill="#A8CDDD"/>
<path d="M147.522 1487.6H145.043V1492.72H147.522V1487.6Z" fill="#A8CDDD"/>
<path d="M142.338 1490.87H137.951V1498.63H142.338V1490.87Z" fill="#A8CDDD"/>
<path d="M122.487 1465.74H100.008V1498.64H122.487V1465.74Z" fill="#EDEDEB"/>
<path d="M106.713 1469.97H104.42V1474.7H106.713V1469.97Z" fill="#A8CDDD"/>
<path d="M112.393 1469.97H110.1V1474.7H112.393V1469.97Z" fill="#A8CDDD"/>
<path d="M118.074 1469.97H115.781V1474.7H118.074V1469.97Z" fill="#A8CDDD"/>
<path d="M112.393 1479.19H110.1V1483.93H112.393V1479.19Z" fill="#A8CDDD"/>
<path d="M106.713 1479.19H104.42V1483.93H106.713V1479.19Z" fill="#A8CDDD"/>
<path d="M118.074 1479.19H115.781V1483.93H118.074V1479.19Z" fill="#A8CDDD"/>
<path d="M113.171 1498.5H86.6758V1482.38L99.9235 1476.65L113.171 1482.38V1498.5Z" fill="#F4F3ED"/>
<path d="M101.471 1493H98.5469V1498.76H101.471V1493Z" fill="#A8CDDD"/>
<path d="M99.9227 1474.9L84 1482.77H115.845L99.9227 1474.9Z" fill="#5191BC"/>
<path d="M94.5346 1486.07H92.0781V1488.53H94.5346V1486.07Z" fill="#A8CDDD"/>
<path d="M101.15 1486.07H98.6934V1488.53H101.15V1486.07Z" fill="#A8CDDD"/>
<path d="M107.767 1486.07H105.311V1488.53H107.767V1486.07Z" fill="#A8CDDD"/>
<path d="M94.5346 1486.07H92.0781V1488.53H94.5346V1486.07Z" fill="#A8CDDD"/>
<path d="M101.15 1486.07H98.6934V1488.53H101.15V1486.07Z" fill="#A8CDDD"/>
<path d="M107.767 1486.07H105.311V1488.53H107.767V1486.07Z" fill="#A8CDDD"/>
<path d="M94.5346 1491.77H92.0781V1494.22H94.5346V1491.77Z" fill="#A8CDDD"/>
<path d="M107.767 1491.77H105.311V1494.22H107.767V1491.77Z" fill="#A8CDDD"/>
<path d="M120.606 1483.6L119.668 1499.28H121.544L120.606 1483.6Z" fill="#775645"/>
<path d="M125.964 1492.83L124.561 1491C125.449 1490.98 125.947 1489.96 125.405 1489.25L123.751 1487.1C124.55 1486.89 124.943 1485.91 124.401 1485.2L122.794 1483.11H123.148C123.742 1483.11 124.08 1482.43 123.718 1481.95L121.175 1479.09C120.888 1478.71 120.323 1478.71 120.036 1479.09L117.493 1481.95C117.131 1482.43 117.469 1483.11 118.063 1483.11H118.417L116.81 1485.2C116.268 1485.91 116.661 1486.9 117.46 1487.1L115.806 1489.25C115.261 1489.96 115.759 1490.98 116.65 1491L115.247 1492.83C114.658 1493.59 115.206 1494.7 116.174 1494.7H125.043C126.011 1494.7 126.556 1493.59 125.969 1492.83H125.964Z" fill="#5FAA4F"/>
<path d="M160.39 1483.6L159.455 1499.28H161.328L160.39 1483.6Z" fill="#775645"/>
<path d="M165.749 1492.83L164.346 1491C165.234 1490.98 165.732 1489.96 165.19 1489.25L163.536 1487.1C164.335 1486.89 164.728 1485.91 164.186 1485.2L162.579 1483.11H162.933C163.528 1483.11 163.865 1482.43 163.503 1481.95L160.961 1479.09C160.673 1478.71 160.109 1478.71 159.821 1479.09L157.279 1481.95C156.916 1482.43 157.254 1483.11 157.848 1483.11H158.203L156.595 1485.2C156.053 1485.91 156.446 1486.9 157.245 1487.1L155.591 1489.25C155.046 1489.96 155.544 1490.98 156.435 1491L155.032 1492.83C154.443 1493.59 154.991 1494.7 155.959 1494.7H164.828C165.796 1494.7 166.341 1493.59 165.755 1492.83H165.749Z" fill="#5FAA4F"/>
</g>
<defs>
<linearGradient id="paint0_linear_1753_9265" x1="-61.8308" y1="350.04" x2="225.127" y2="520.807" gradientUnits="userSpaceOnUse">
<stop stop-color="#FFF7D3"/>
<stop offset="0.50194" stop-color="#D2E3D3"/>
<stop offset="0.783572" stop-color="#EFF5F0"/>
<stop offset="1" stop-color="white"/>
</linearGradient>
<linearGradient id="paint1_linear_1753_9265" x1="352.516" y1="1105.86" x2="-331.006" y2="2064.38" gradientUnits="userSpaceOnUse">
<stop offset="0.10139" stop-color="#FFF7D3" stop-opacity="0"/>
<stop offset="0.182934" stop-color="#FFF7D3"/>
<stop offset="0.316411" stop-color="#EBEED3"/>
<stop offset="0.750455" stop-color="#D2E3D3"/>
<stop offset="0.86946" stop-color="#D2E3D3" stop-opacity="0"/>
</linearGradient>
<linearGradient id="paint2_linear_1753_9265" x1="108.034" y1="704" x2="218.426" y2="724.975" gradientUnits="userSpaceOnUse">
<stop stop-color="white"/>
<stop offset="1" stop-color="#DDE1FF"/>
</linearGradient>
<linearGradient id="paint3_linear_1753_9265" x1="228.204" y1="501.296" x2="323.172" y2="548.211" gradientUnits="userSpaceOnUse">
<stop stop-color="white"/>
<stop offset="1" stop-color="#DDE1FF"/>
</linearGradient>
<linearGradient id="paint4_linear_1753_9265" x1="232.487" y1="1093" x2="353.225" y2="1145.97" gradientUnits="userSpaceOnUse">
<stop stop-color="#DDE1FF"/>
<stop offset="1" stop-color="#D2E3D3"/>
</linearGradient>
<linearGradient id="paint5_linear_1753_9265" x1="236.5" y1="1258" x2="172.743" y2="1510.73" gradientUnits="userSpaceOnUse">
<stop stop-color="#D2E3D3"/>
<stop offset="1" stop-color="white"/>
</linearGradient>
<linearGradient id="paint6_linear_1753_9265" x1="113.5" y1="1681.12" x2="84.5554" y2="1901.81" gradientUnits="userSpaceOnUse">
<stop offset="0.459927" stop-color="#D2E3D3" stop-opacity="0"/>
<stop offset="0.88117" stop-color="#D2E3D3"/>
</linearGradient>
<clipPath id="clip0_1753_9265">
<rect width="40.3836" height="67" fill="white" transform="translate(47 556)"/>
</clipPath>
<clipPath id="clip1_1753_9265">
<rect width="74.7255" height="37" fill="white" transform="translate(241.998 964)"/>
</clipPath>
<clipPath id="clip2_1753_9265">
<rect width="69" height="54.3375" fill="white" transform="translate(39 1053)"/>
</clipPath>
<clipPath id="clip3_1753_9265">
<rect width="59.3612" height="52.4822" fill="white" transform="translate(175.639 1468)"/>
</clipPath>
<clipPath id="clip4_1753_9265">
<rect width="81.9926" height="39.0378" fill="white" transform="translate(84 1460.24)"/>
</clipPath>
</defs>
</svg>
