<svg width="562" height="170" viewBox="0 0 562 170" fill="none" xmlns="http://www.w3.org/2000/svg">
<g clip-path="url(#clip0_2043_10135)">
<path d="M552.446 110.931L549.559 61.8667L545.929 46.129C544.224 42.6209 542.202 38.5281 539.839 33.7045C532.36 18.4784 534.455 11.8764 537.403 9.02603C536.173 3.75171 531.483 0 526.05 0H17.4255C12.2973 0 7.76604 3.36192 6.27997 8.28299L3.80725 16.4685C3.80725 16.4685 3.80725 16.4807 3.79507 16.5173C3.62454 17.5892 0.908203 34.9591 0.908203 54.9601V130.798C0.908203 131.066 0.920385 131.334 0.932565 131.602C0.932565 131.627 0.932565 131.651 0.932565 131.675H136.628C136.603 131.797 136.579 131.931 136.567 132.053C136.42 133.161 136.347 134.306 136.347 135.464C136.347 139.739 137.346 143.771 139.137 147.364H139.186C137.371 143.759 136.36 139.69 136.36 135.39C136.36 134.233 136.433 133.088 136.579 131.98C136.591 131.858 136.615 131.724 136.64 131.602C136.956 129.349 137.578 127.181 138.418 125.146C142.438 115.414 152.012 108.568 163.182 108.568C174.352 108.568 183.926 115.414 187.946 125.146C188.786 127.193 189.407 129.349 189.724 131.602H413.048C413.365 129.349 413.986 127.181 414.827 125.146C418.846 115.414 428.42 108.568 439.603 108.568C450.785 108.568 460.347 115.414 464.366 125.146C465.207 127.193 465.828 129.349 466.145 131.602H502.505V57.8713C502.505 55.1672 504.697 52.9746 507.401 52.9746H537.293C539.34 52.9746 541.264 53.8273 542.604 55.3012C543.03 55.7519 543.396 56.2756 543.688 56.836C545.99 61.3916 548.366 70.5516 548.366 99.7736V146.463H551.508V136.207H559.95V110.931H552.434H552.446ZM329.804 9.42799H367.882C367.882 9.42799 371.341 9.41582 379.234 9.41582C380.099 9.41582 384.971 9.46454 386.336 9.56199C390.672 9.87869 397.262 10.7313 404.241 12.2783V51.0013H329.804V9.42799ZM251.664 9.46454L326.089 9.42799V51.0013H251.664V9.46454ZM14.7579 39.8558L19.8373 13.4355C20.2636 11.182 22.2369 9.54981 24.5269 9.54981L91.6679 9.52544V50.9891H62.1658C54.5893 50.9891 47.0494 50.1974 39.6434 48.6261L17.4498 43.9242C15.5983 43.5345 14.3924 41.7195 14.7579 39.8558ZM169.808 50.9891H95.3831V9.52544L169.808 9.4889V50.9891ZM173.523 50.9891V9.4889L247.949 9.45236V50.9891H173.523ZM447.325 58.3586C442.709 54.8018 436.85 50.9891 427.787 50.9891H407.957V13.1432C417.738 15.6281 427.665 19.4894 432.842 25.1901C443.61 37.0299 450.042 48.1632 454 54.8018C456.558 59.0772 460.139 65.5453 462.941 70.4176C456.363 65.8133 450.456 60.7704 447.325 58.3586ZM541.642 48.9062L504.332 49.1742C501.664 49.1742 500.994 49.4909 499.545 51.5251C499.459 51.6591 499.362 51.8053 499.277 51.9514L499.021 52.4265C498.936 52.597 498.85 52.7676 498.777 52.9503C498.68 53.1817 498.595 53.4253 498.521 53.6689C498.375 54.144 498.278 54.6312 498.217 55.1306C498.193 55.3986 498.18 55.6666 498.18 55.9346V100.772C493.795 98.3362 491.895 96.704 488.192 93.5369C484.538 90.5039 482.589 88.2992 482.589 88.2992C478.983 84.6206 475.67 80.6252 472.515 76.3863C472.491 76.3497 472.467 76.3132 472.442 76.2766C472.418 76.2523 472.406 76.2279 472.393 76.2157C471.419 74.9124 470.469 73.5725 469.531 72.2326C469.202 71.7575 468.885 71.2703 468.556 70.8074C468.033 70.0644 467.509 69.3335 467.034 68.5661C466.608 67.8962 466.157 67.2628 465.743 66.5928C464.805 65.1555 463.867 63.6938 462.941 62.2199C462.783 61.9641 462.624 61.7083 462.466 61.4525C461.674 60.1857 460.895 58.9067 460.103 57.6277C459.811 57.1405 459.518 56.6654 459.226 56.1782C458.459 54.8992 457.679 53.6202 456.912 52.3169C456.778 52.1098 456.656 51.9027 456.534 51.6956C455.693 50.2827 454.853 48.8697 454 47.4567C453.257 46.2021 452.502 44.9474 451.747 43.6928C451.333 42.9985 450.931 42.3164 450.517 41.6221C450.09 40.9277 449.652 40.2212 449.225 39.5148C448.555 38.4063 447.886 37.2978 447.203 36.1894C444.755 32.2184 442.075 28.8321 439.286 25.9331C432.477 18.9047 424.961 14.8363 418.152 12.5098C415.899 11.7302 413.718 11.1577 411.66 10.7192C411.002 10.5852 411.111 9.62289 411.781 9.62289L462.405 9.50108L495.695 9.59853H500.276L511.153 9.64725H516.038C518.291 9.64725 532.384 7.80794 541.313 47.4689C541.496 48.2728 541.447 48.0657 541.642 48.9184V48.9062Z" fill="white" stroke="#4E516B" stroke-width="1.81664" stroke-miterlimit="10"/>
<path d="M502.515 131.601V125.146H464.377C465.217 127.192 465.839 129.348 466.155 131.601H502.515Z" fill="#EFEFEF"/>
<path d="M413.06 131.601C413.376 129.348 413.998 127.18 414.838 125.146H187.957C188.798 127.192 189.419 129.348 189.735 131.601H413.06Z" fill="#EFEFEF"/>
<path d="M0.932565 131.601C0.932565 131.601 0.932565 131.65 0.932565 131.674H136.628C136.603 131.796 136.579 131.93 136.567 132.052C136.42 133.161 136.347 134.306 136.347 135.463C136.347 139.738 137.346 143.77 139.137 147.363H139.186C137.371 143.758 136.36 139.689 136.36 135.39C136.36 134.232 136.433 133.087 136.579 131.979C136.591 131.857 136.615 131.723 136.64 131.601C136.956 129.348 137.578 127.18 138.418 125.146H0.908203V130.797C0.908203 131.065 0.920385 131.333 0.932565 131.601Z" fill="#EFEFEF"/>
<path d="M516.851 11.438H516.034L511.138 11.4501L502.1 11.4258V45.6175H539.008C533.782 23.8625 525.755 11.438 516.851 11.438Z" fill="#DDE2FE"/>
<path d="M535.234 27.7237C533.42 23.4726 531.568 20.2082 529.741 17.7111C528.973 16.6635 528.218 15.7499 527.463 14.946C526.866 14.3126 526.282 13.7523 525.709 13.2529C523.931 11.7181 522.274 10.8289 520.837 10.3173C518.474 9.45244 516.72 9.62297 516.037 9.62297H511.153L500.275 9.58643V47.4446H541.313C539.461 39.2103 537.378 32.7666 535.234 27.7237ZM502.103 11.4257L511.092 11.4501L502.103 20.4396V11.4257ZM502.103 29.0515L519.375 11.779C521.105 12.2297 522.786 13.1676 524.406 14.5684L502.103 36.8594V29.0515ZM502.103 40.3066L526.16 16.2494C526.927 17.0777 527.67 18.0034 528.413 19.0388L502.103 45.3495V40.3066ZM533.809 29.1489C535.758 33.802 537.5 39.3199 539.011 45.6175H517.341L533.809 29.1489Z" fill="#F8F6FE"/>
<path d="M509.775 62.2324V102.466C510.945 102.941 512.138 103.392 513.344 103.794C513.503 103.83 513.661 103.867 513.819 103.928C514.002 103.988 514.575 104.183 514.575 104.183C518.521 105.414 522.261 105.596 527.024 105.828C530.251 105.986 534.161 106.169 538.961 106.741V76.3866C538.961 66.1668 537.219 62.951 536.671 62.208L509.788 62.2324H509.775Z" fill="#DDE2FE"/>
<path d="M539.63 64.6929C539.167 62.8901 538.619 61.7695 538.144 61.1239C537.803 60.661 537.498 60.4418 537.267 60.3809H527.619L519.007 60.393H507.947V103.684C509.555 104.366 511.2 104.999 512.881 105.56C512.99 105.584 513.088 105.608 513.197 105.645C513.404 105.718 513.624 105.791 513.831 105.864L513.928 105.889L514.026 105.925C518.191 107.229 522.041 107.411 526.913 107.655C530.592 107.825 535.086 108.045 540.775 108.824V76.3865C540.775 70.8808 540.275 67.1412 539.63 64.6929ZM509.774 62.2324H517.18L509.774 69.6261V62.2324ZM509.774 78.238L525.792 62.2202H533.625L509.774 86.0581V78.238ZM509.774 94.5482V89.4932L536.828 62.4394C537.145 62.9754 537.669 64.0838 538.107 66.2155L509.774 94.5482ZM538.948 106.741C534.161 106.169 530.238 105.986 527.023 105.828C522.589 105.608 519.056 105.438 515.402 104.415L538.948 80.8691V106.741Z" fill="#F8F6FE"/>
<path d="M440.597 24.6544C443.631 27.8093 446.371 31.3661 448.759 35.2153C449.429 36.2994 450.074 37.3834 450.793 38.5528C451.122 39.101 452.096 40.6723 452.096 40.6723C452.096 40.6723 454.496 44.692 455.044 45.6177H493.877V11.4016L462.413 11.3042L420.523 11.4138C428.136 14.3007 434.885 18.7467 440.61 24.6544H440.597Z" fill="#DDE2FE"/>
<path d="M477.384 9.52529L462.401 9.47656H456.871L453.412 9.50092L445.579 9.52529L436.943 9.54965L412.143 9.61055C411.424 9.61055 411.327 10.6337 412.021 10.7799C413.97 11.2062 416.028 11.7666 418.148 12.4974C421.619 13.679 425.262 15.3234 428.916 17.5647C430.609 18.6122 432.314 19.7938 433.983 21.1215C435.384 22.2299 436.773 23.4358 438.137 24.7757C438.514 25.1412 438.904 25.531 439.282 25.9207C439.464 26.1156 439.659 26.3105 439.842 26.5176C440.646 27.3703 441.426 28.2595 442.205 29.1974C443.947 31.2925 445.616 33.6191 447.199 36.177C447.65 36.9079 448.089 37.6387 448.539 38.3696C448.771 38.7472 448.99 39.1248 449.221 39.5024C449.648 40.2089 450.086 40.9154 450.513 41.6097C450.927 42.304 451.329 42.9861 451.743 43.6805C452.498 44.9351 453.253 46.1897 453.996 47.4444H495.691V9.57401L477.384 9.52529ZM430.244 16.2491C427.186 14.3246 423.946 12.7045 420.523 11.4133L435.116 11.3768L430.244 16.2491ZM439.428 23.4846C438.1 22.1812 436.724 20.9631 435.286 19.8181L443.752 11.3524L451.584 11.3281L439.428 23.4846ZM441.133 25.2264L455.032 11.3281L460.099 11.3037L443.496 27.9062C442.741 26.9805 441.949 26.0913 441.133 25.2264ZM493.864 45.6172H455.044C454.484 44.6915 452.084 40.6718 452.084 40.6718C452.084 40.6718 451.122 39.1126 450.793 38.5645C450.476 38.0407 450.171 37.5291 449.867 37.0419L475.569 11.3402L493.864 11.4011V45.6172Z" fill="#F8F6FE"/>
<path d="M451.832 54.7283C447.764 47.8826 441.612 37.5411 431.49 26.4199C427.568 22.1201 420.089 18.3562 409.771 15.5059V49.1616H427.787C437.093 49.1616 443.22 52.889 448.446 56.9087C449.347 57.603 450.48 58.5165 451.796 59.5763C453.318 60.8065 455.109 62.2561 457.082 63.7787C455.425 60.8674 453.793 57.9806 452.441 55.7393L451.844 54.7283H451.832Z" fill="#DDE2FE"/>
<path d="M453.995 54.8021C450.865 49.54 446.175 41.4641 439.001 32.438C437.125 30.0749 435.078 27.651 432.837 25.1904C432.508 24.825 432.167 24.4717 431.802 24.1307C430.961 23.3389 430.036 22.5837 429.025 21.865C428.367 21.39 427.672 20.9393 426.942 20.5008C425.358 19.5263 423.628 18.6371 421.801 17.821C419.84 16.9318 417.757 16.1278 415.626 15.397C413.116 14.5443 410.522 13.7891 407.939 13.1313V50.9895H427.782C436.845 50.9895 442.704 54.8021 447.32 58.3589C450.451 60.7708 456.358 65.8136 462.936 70.418C460.135 65.5457 456.553 59.0776 453.995 54.8021ZM409.767 15.5066C411.301 15.933 412.775 16.3836 414.176 16.8465L409.767 21.256V15.5066ZM409.767 29.8557L420.413 19.2096C422.325 20.0379 424.067 20.9149 425.614 21.8285L409.767 37.6758V29.8557ZM409.767 41.123L427.709 23.1806C428.757 23.9114 429.682 24.6545 430.498 25.434L409.767 46.1659V41.123ZM448.441 56.9094C443.215 52.8897 437.1 49.1624 427.782 49.1624H422.264L437.697 33.7414C444.263 42 448.672 49.4182 451.827 54.729L452.424 55.7401C453.776 57.9935 455.421 60.8682 457.065 63.7916C455.104 62.2568 453.313 60.8073 451.791 59.577C450.475 58.5173 449.342 57.6159 448.441 56.9094Z" fill="#F8F6FE"/>
<path d="M379.234 11.2309H331.631V49.1622H402.414V13.7402C396.933 12.5952 390.976 11.7182 386.201 11.3649C384.959 11.2797 380.257 11.2188 379.234 11.2188V11.2309Z" fill="#DDE2FE"/>
<path d="M386.334 9.54998C385.348 9.47689 382.497 9.42817 380.682 9.41599C380 9.40381 379.464 9.40381 379.233 9.40381H340.266L329.803 9.41599V50.9893H404.24V12.2663C397.26 10.7193 390.671 9.86668 386.334 9.54998ZM331.63 11.2431H338.439L331.63 18.0522V11.2431ZM331.63 26.6641L347.051 11.2431H354.859L331.63 34.472V26.6641ZM331.63 37.9192L358.318 11.2309H363.361L331.63 42.9621V37.9192ZM402.413 49.1622H340.936L378.867 11.2309H379.233C380.268 11.2309 384.97 11.2918 386.212 11.3771C390.975 11.7182 396.944 12.5952 402.413 13.7402V49.1622Z" fill="#F8F6FE"/>
<path d="M251.664 9.45256L326.101 9.41602V50.9893H251.664V9.45256Z" fill="#DDE2FE"/>
<path d="M302.775 9.50092H287.257H270.959H262.335L251.664 9.51311V50.9768H326.101V9.47656H302.775V9.50092ZM253.491 11.3524H260.507L253.491 18.3686V11.3524ZM253.491 26.9805L269.131 11.3402H276.952L253.491 34.7884V26.9805ZM253.491 38.2478L280.387 11.3402H285.429L253.491 43.2785V38.2478ZM324.274 49.1619H263.114L300.948 11.3281H324.274V49.1619Z" fill="#F8F6FE"/>
<path d="M173.521 9.48821L247.959 9.45166V50.9884H173.521V9.48821Z" fill="#DDE2FE"/>
<path d="M224.632 9.50092H209.114H192.816H184.192L173.521 9.51311V50.9768H247.959V9.47656H224.632V9.50092ZM175.349 11.3524H182.365L175.349 18.3686V11.3524ZM175.349 26.9805L190.989 11.3402H198.809L175.349 34.7884V26.9805ZM175.349 38.2478L202.244 11.3402H207.287L175.349 43.2785V38.2478ZM246.132 49.1619H184.972L222.805 11.3281H246.132V49.1619Z" fill="#F8F6FE"/>
<path d="M97.2109 49.1619H167.994V11.3281L97.2109 11.3525V49.1619Z" fill="#DDE2FE"/>
<path d="M146.492 9.50092H130.973H114.675H106.051L95.3809 9.51311V50.9768H169.818V9.47656H146.492V9.50092ZM97.208 11.3524H104.224L97.208 18.3686V11.3524ZM97.208 26.9805L112.848 11.3402H120.668L97.208 34.7884V26.9805ZM97.208 38.2478L124.103 11.3402H129.146L97.208 43.2785V38.2478ZM167.991 49.1619H106.831L144.665 11.3281H167.991V49.1619Z" fill="#F8F6FE"/>
<path d="M21.6251 13.7897L16.5457 40.2222C16.3751 41.0992 16.9476 41.9641 17.8247 42.1468L40.0182 46.8486C47.278 48.3956 54.7327 49.1752 62.1631 49.1752H89.838V11.3657L24.5241 11.3901C23.1112 11.3901 21.8931 12.4011 21.6251 13.7897Z" fill="#DDE2FE"/>
<path d="M70.5337 9.53757H38.7173L24.5265 9.54975C22.2365 9.54975 20.2632 11.182 19.8369 13.4355L18.3143 21.353L16.2679 31.9991L14.7575 39.8558C14.66 40.3552 14.6722 40.8424 14.7818 41.3053C14.9767 42.1336 15.464 42.8645 16.1583 43.3639C16.5359 43.6318 16.9744 43.8267 17.4495 43.9242L20.0927 44.4845L32.8826 47.1887L39.643 48.626C47.049 50.1973 54.5889 50.9891 62.1655 50.9891H91.6675V9.52539H70.5337V9.53757ZM21.6397 13.7887C21.8955 12.3879 23.1136 11.3769 24.5265 11.3769H28.2904L20.6287 19.0387L21.6397 13.7887ZM16.7064 39.3807L18.5701 29.6969L36.8901 11.3769H44.7224L16.7064 39.3807ZM21.6275 42.9497L17.8271 42.1458C17.7053 42.1214 17.5956 42.0849 17.486 42.0361L48.1574 11.3647H53.2125L21.6275 42.9497ZM89.8404 49.162H62.1655C54.7473 49.162 47.2926 48.3824 40.0206 46.8476L34.4174 45.6539L68.7066 11.3647H89.8404V49.162Z" fill="#F8F6FE"/>
<path d="M187.225 147.34C189.003 143.759 190.002 139.727 190.002 135.464C190.002 134.306 189.929 133.161 189.783 132.053C189.77 131.931 189.746 131.797 189.722 131.675H413.046C413.021 131.797 412.997 131.931 412.985 132.053C412.839 133.161 412.766 134.306 412.766 135.464C412.766 139.532 413.667 143.381 415.287 146.828L187.225 147.34Z" fill="#4E516B" stroke="#4E516B" stroke-width="1.81664" stroke-miterlimit="10"/>
<path d="M541.313 47.4446H500.275V9.58643H495.695V47.4446H454C454.853 48.8576 455.693 50.2705 456.534 51.6835C456.655 51.8906 456.777 52.0977 456.911 52.3048C457.679 53.6081 458.458 54.8871 459.226 56.1661C459.518 56.6533 459.81 57.1284 460.103 57.6156C460.894 58.8946 461.674 60.1736 462.466 61.4404C462.624 61.6962 462.782 61.952 462.941 62.2078C463.867 63.6817 464.804 65.1434 465.742 66.5807C465.974 66.9584 466.217 67.3238 466.461 67.6892C467.192 68.7977 467.935 69.8939 468.69 70.9902C468.97 71.3922 469.25 71.8063 469.531 72.2205C470.469 73.5604 471.419 74.9003 472.393 76.2036C472.405 76.2158 472.418 76.2402 472.442 76.2645C472.466 76.3011 472.491 76.3376 472.515 76.3742C475.67 80.6131 478.983 84.6084 482.589 88.2871C482.589 88.2871 484.537 90.4918 488.192 93.5248C491.895 96.6919 494.721 99.53 499.106 101.966L500.275 57.774C500.275 57.4816 500.275 57.1893 500.324 56.8969C500.385 56.3975 500.482 55.9103 500.628 55.4352C500.701 55.1916 500.787 54.948 500.884 54.7166C500.957 54.5339 501.043 54.3633 501.128 54.1928L501.384 53.7177C501.469 53.5716 501.566 53.4254 501.652 53.2914C503.101 51.2572 505.452 49.9295 508.12 49.9295L541.641 48.8941C541.459 48.0658 541.495 48.2242 541.313 47.4446Z" fill="#4E516B"/>
<path d="M544.137 57.1524C543.845 56.592 543.48 56.0683 543.053 55.6176C541.713 54.1437 539.789 53.291 537.742 53.291H507.851C505.146 53.291 502.954 55.4836 502.954 58.1877V103.464H502.942V131.992H466.582C466.606 132.113 466.63 132.247 466.643 132.369C466.789 133.478 466.862 134.623 466.862 135.78C466.862 139.8 465.973 143.624 464.377 147.047L502.942 146.962L511.785 146.938L548.376 146.463L548.803 122.649H548.815V100.09C548.815 70.868 546.439 61.708 544.137 57.1524ZM546.988 120.822V122.649V131.943L504.781 132.04V103.464V58.1877C504.781 56.4946 506.157 55.1181 507.851 55.1181H537.742C539.265 55.1181 540.702 55.7516 541.701 56.8478C542.03 57.2011 542.298 57.5787 542.517 58.005C544.588 62.11 546.988 70.6244 546.988 100.102V120.834V120.822Z" fill="#4E516B" stroke="#4E516B" stroke-width="1.81664" stroke-miterlimit="10"/>
<path d="M56.0262 147.462L11.2493 142.37C5.6461 141.737 1.35843 137.205 0.944284 131.675H0.919922C1.30971 137.242 5.60956 141.81 11.2371 142.443L56.014 147.535C56.4647 147.596 56.9154 147.62 57.3661 147.62L139.185 147.437C139.185 147.437 139.161 147.389 139.148 147.364L57.3783 147.547C56.9276 147.547 56.4769 147.523 56.0262 147.462Z" stroke="#DA946C" stroke-width="0.22708" stroke-miterlimit="10"/>
<path d="M136.577 132.053C136.59 131.931 136.614 131.797 136.638 131.675H0.943359C1.36969 137.205 5.64518 141.737 11.2484 142.37L56.0253 147.462C56.476 147.523 56.9267 147.547 57.3774 147.547L139.148 147.364C137.357 143.771 136.358 139.739 136.358 135.464C136.358 134.306 136.431 133.161 136.577 132.053Z" fill="#4E516B" stroke="#4E516B" stroke-width="1.81664" stroke-miterlimit="10"/>
<path d="M551.52 146.462H556.221C558.28 146.45 559.961 144.769 559.961 142.711V136.206H551.52V146.462Z" fill="#4E516B" stroke="#4E516B" stroke-width="1.81664" stroke-linejoin="round"/>
<path d="M539.836 33.7044C542.199 38.528 544.221 42.6208 545.927 46.1167L543.649 36.2136L537.4 9.03809C534.452 11.8762 532.357 18.4783 539.836 33.7044Z" fill="#4E516B" stroke="#4E516B" stroke-width="1.81664" stroke-linejoin="round"/>
<path d="M559.659 105.754L549.561 61.8662L552.447 110.931H559.963V108.361C559.963 107.484 559.866 106.607 559.659 105.754Z" fill="#4E516B" stroke="#4E516B" stroke-width="1.81664" stroke-linejoin="round"/>
<path d="M546.551 120.505V99.7731C546.551 70.3075 544.151 61.7931 542.081 57.676C541.861 57.2496 541.593 56.872 541.264 56.531C540.266 55.4347 538.828 54.8013 537.306 54.8013H507.414C505.721 54.8013 504.344 56.1777 504.344 57.8708V104.974L504.332 125.146H546.539V120.505H546.551ZM542.604 110.931C528.146 108.714 521.568 110.2 513.48 107.666C513.188 107.569 512.883 107.471 512.578 107.362V107.386C510.337 106.643 508.193 105.803 506.123 104.865V60.4045C506.123 59.3813 506.963 58.553 507.986 58.553H537.427C538.682 58.7113 542.604 60.4776 542.604 76.3858V110.931Z" fill="white"/>
<path d="M33.5142 66.812H15.3281V68.0301H33.5142V66.812Z" fill="#4E516B"/>
<path d="M33.5142 70.5518H15.3281V71.7698H33.5142V70.5518Z" fill="#4E516B"/>
<path d="M33.5129 74.3521H18.1406V75.4727H33.5129V74.3521Z" fill="#4E516B"/>
<path d="M33.5129 78.0908H18.1406V79.2115H33.5129V78.0908Z" fill="#4E516B"/>
<path d="M33.5142 81.7949H15.3281V83.013H33.5142V81.7949Z" fill="#4E516B"/>
<path d="M33.5142 85.5337H15.3281V86.7518H33.5142V85.5337Z" fill="#4E516B"/>
<path d="M64.6885 81.7217H41.959V83.0859H64.6885V81.7217Z" fill="#4E516B"/>
<path d="M64.6885 85.4609H41.959V86.8252H64.6885V85.4609Z" fill="#4E516B"/>
<path d="M60.8114 95.291H22.7949V100.163H60.8114V95.291Z" fill="#4E516B"/>
<path d="M60.8114 102.429H22.7949V104.865H60.8114V102.429Z" fill="#4E516B"/>
<path d="M60.8114 114.294H22.7949V116.73H60.8114V114.294Z" fill="#4E516B"/>
<path d="M60.8114 126.145H22.7949V128.581H60.8114V126.145Z" fill="#4E516B"/>
<path d="M60.8114 107.143H22.7949V112.015H60.8114V107.143Z" fill="#4E516B"/>
<path d="M60.8114 118.995H22.7949V123.867H60.8114V118.995Z" fill="#4E516B"/>
<path d="M60.8114 130.859H22.7949V135.731H60.8114V130.859Z" fill="#4E516B"/>
<path d="M542.603 76.386V110.931C528.144 108.714 521.566 110.2 513.478 107.667C513.186 107.569 512.881 107.472 512.577 107.362V107.386C510.336 106.643 508.192 105.803 506.121 104.865V60.4047C506.121 59.3815 506.962 58.5532 507.985 58.5532H537.426C538.681 58.7116 542.603 60.4778 542.603 76.386Z" stroke="#DA946C" stroke-width="0.22708" stroke-miterlimit="10"/>
<path d="M537.426 58.5532H507.985C506.962 58.5532 506.121 59.3815 506.121 60.4047V104.865C508.192 105.803 510.336 106.643 512.577 107.386V107.362C512.881 107.472 513.186 107.569 513.478 107.667C521.566 110.2 528.144 108.714 542.603 110.931V76.386C542.603 60.4778 538.681 58.7116 537.426 58.5532ZM540.776 108.824C535.087 108.044 530.592 107.837 526.914 107.654C522.042 107.423 518.192 107.228 514.026 105.925L513.832 105.864C513.624 105.791 513.405 105.73 513.198 105.644C513.089 105.608 512.991 105.584 512.881 105.559C511.213 104.999 509.556 104.366 507.96 103.671V60.4047L537.28 60.3804C538.266 60.6483 540.788 63.9981 540.788 76.386V108.824H540.776Z" fill="#4E516B"/>
<path d="M279.336 93.3783C276.742 90.7838 273.441 88.2745 272.125 87.3609C274.232 85.9601 277.509 83.6579 285.195 83.9503C292.881 84.2426 294.233 86.0088 298.35 85.5338C302.468 85.0587 305.951 82.1232 307.072 83.2316C303.479 89.3099 292.711 102.136 278.386 104.865C279.787 102.112 281.931 95.9728 279.336 93.3783Z" fill="#0B24BB"/>
<path d="M329.861 104.317C327.267 101.722 323.966 99.2251 322.65 98.2994C324.758 96.8986 328.034 94.5964 335.72 94.8888C343.407 95.1811 344.759 96.9473 348.876 96.4723C352.993 95.9972 356.477 93.0616 357.597 94.1701C354.004 100.248 343.236 113.075 328.911 115.803C330.312 113.05 332.456 106.911 329.861 104.317Z" fill="#B2B2B2"/>
<path d="M179.746 90.7836C177.152 88.189 173.851 85.6798 172.535 84.7662C174.642 83.3654 177.919 81.0632 185.605 81.3556C193.291 81.6479 194.643 83.4141 198.761 82.9391C202.878 82.464 206.361 79.5284 207.482 80.6369C203.889 86.7151 193.121 99.5416 178.796 102.27C180.197 99.5172 182.341 93.3781 179.746 90.7836Z" fill="#B2B2B2"/>
<path d="M116.404 81.8558C113.81 79.2613 110.509 76.752 109.193 75.8385C111.301 74.4377 114.577 72.1355 122.263 72.4278C129.95 72.7202 131.302 74.4864 135.419 74.0113C139.536 73.5363 143.02 70.6007 144.14 71.7091C140.547 77.7874 129.779 90.6139 115.454 93.3424C116.855 90.5895 118.999 84.4503 116.404 81.8558Z" fill="#B2B2B2"/>
<path d="M57.4142 68.6879C54.8197 66.0933 51.5187 63.5962 50.2031 62.6705C52.3104 61.2697 55.5871 58.9675 63.2732 59.2598C70.9593 59.5522 72.3114 61.3184 76.4285 60.8434C80.5457 60.3683 84.0294 57.4327 85.1501 58.5412C81.5567 64.6194 70.7888 77.4459 56.4641 80.1744C57.8649 77.4215 60.0087 71.2824 57.4142 68.6879Z" fill="#F3D143"/>
<path d="M228.557 63.6937C225.962 61.0992 222.661 58.5899 221.346 57.6764C223.453 56.2756 226.73 53.9734 234.416 54.2657C242.102 54.558 243.454 56.3243 247.571 55.8492C251.688 55.3742 255.172 52.4386 256.293 53.547C252.699 59.6253 241.931 72.4518 227.607 75.1803C229.007 72.4274 231.151 66.2882 228.557 63.6937Z" fill="#B2B2B2"/>
<path d="M325.307 68.6879C322.712 66.0933 319.411 63.5962 318.096 62.6705C320.203 61.2697 323.48 58.9675 331.166 59.2598C338.852 59.5522 340.204 61.3184 344.321 60.8434C348.438 60.3683 351.922 57.4327 353.043 58.5412C349.449 64.6194 338.681 77.4459 324.357 80.1744C325.757 77.4215 327.901 71.2824 325.307 68.6879Z" fill="#1A811E"/>
<path d="M371.279 81.8558C368.685 79.2613 365.384 76.7642 364.068 75.8385C366.176 74.4377 369.452 72.1355 377.138 72.4278C384.825 72.7202 386.177 74.4864 390.294 74.0113C394.411 73.5363 397.895 70.6007 399.015 71.7091C395.422 77.7874 384.654 90.6139 370.329 93.3424C371.73 90.5895 373.874 84.4503 371.279 81.8558Z" fill="#F8172A"/>
<path d="M425.911 53.291H364.068V69.2236H425.911V53.291Z" fill="#F3D143"/>
<path d="M367.319 61.1483C367.428 60.9778 367.55 60.9534 367.696 61.0509C367.94 61.197 368.196 61.3554 368.439 61.5259C368.659 61.733 368.732 61.9035 368.646 62.0497C368.525 62.2202 368.464 62.3908 368.464 62.5613V64.3519C368.464 64.5468 368.525 64.7295 368.659 64.9C369.146 65.2898 369.718 65.5334 370.4 65.6187C370.936 65.704 371.545 65.7527 372.228 65.7649H374.055C375.078 65.7283 376.016 65.6309 376.881 65.4603C377.051 65.4238 377.161 65.4116 377.234 65.4238C377.307 65.4847 377.234 65.6065 377.027 65.7892C376.625 66.1425 376.43 66.6053 376.466 67.1535C376.406 67.19 376.259 67.2022 376.052 67.2144H375.589L374.201 67.2266C372.215 67.2266 370.802 67.0317 369.938 66.6541C369.219 66.3374 368.61 65.7649 368.11 64.9244C367.94 64.7051 367.757 64.7173 367.574 64.9731C367.209 65.5578 366.868 66.1303 366.563 66.715C366.442 67.0195 366.283 67.056 366.088 66.8368C365.942 66.6175 365.82 66.3983 365.699 66.179C365.577 65.8989 365.662 65.6674 365.942 65.4847C366.247 65.302 366.539 65.0462 366.856 64.7051C367.002 64.5346 367.063 64.3519 367.063 64.157V62.1471C367.063 61.9401 366.965 61.8304 366.758 61.8304C366.563 61.8304 366.356 61.8426 366.149 61.8914C365.881 61.9279 365.735 61.8548 365.686 61.6965C365.638 61.5259 365.747 61.4407 366.027 61.4528L366.661 61.5137C366.856 61.5137 367.075 61.3919 367.294 61.1361L367.319 61.1483ZM365.881 57.8473C365.881 57.8473 366.052 57.8108 366.308 57.8351C367.002 57.9326 367.574 58.2371 368.013 58.773C368.159 59.0167 368.183 59.3212 368.074 59.6866C367.94 60.052 367.696 60.2226 367.331 60.1982C366.929 60.0886 366.722 59.8693 366.697 59.5404C366.624 59.0288 366.466 58.6147 366.222 58.298C366.003 58.0544 365.881 57.9082 365.881 57.8595V57.8473ZM366.235 55.3624C366.271 55.2528 366.454 55.2284 366.758 55.2893C367.172 55.338 367.501 55.4355 367.757 55.5938C368.451 56.0202 368.634 56.5683 368.305 57.2383C368.086 57.4575 367.842 57.555 367.562 57.5184C367.27 57.421 367.099 57.2261 367.038 56.9094C366.978 56.41 366.795 55.9958 366.49 55.6669C366.332 55.5208 366.247 55.4233 366.247 55.3746L366.235 55.3624ZM370.315 55.4598C370.413 55.1553 370.498 55.1431 370.607 55.4355C370.656 55.6791 370.815 55.8131 371.095 55.8375H374.907C375.102 55.8375 375.248 55.8131 375.321 55.7765C375.663 55.3746 375.955 55.2771 376.211 55.5086C376.82 55.8374 377.197 56.1176 377.319 56.349C377.295 56.4465 377.222 56.5074 377.1 56.5074C377.027 56.5074 376.929 56.5439 376.795 56.617C376.576 56.7267 376.357 56.8485 376.138 56.9946C375.955 57.1164 375.967 57.2626 376.174 57.4453L376.32 57.6037C376.515 57.8717 376.6 58.0178 376.54 58.0666C376.479 58.1031 376.32 58.1153 376.065 58.1153H373.884C373.677 58.1153 373.58 58.2127 373.58 58.4198V58.8827C373.58 59.0897 373.677 59.1994 373.884 59.1994H374.396C374.603 59.1994 374.749 59.1385 374.846 59.0288C374.956 58.907 375.029 58.834 375.078 58.8096C375.127 58.7852 375.309 58.8339 375.614 58.9558C376.089 59.1872 376.369 59.4064 376.418 59.6135C376.369 59.711 376.259 59.7962 376.077 59.8937C376.064 59.9302 376.052 60.052 376.052 60.2591V62.2811C376.162 62.7562 375.955 63.012 375.407 63.0485C375.005 63.0973 374.81 62.9267 374.834 62.5491C374.834 62.4273 374.737 62.3786 374.53 62.3786H373.884C373.677 62.3786 373.58 62.476 373.58 62.6831V63.146C373.58 63.3531 373.677 63.4627 373.884 63.4627H375.151C375.37 63.5236 375.553 63.4627 375.675 63.2678C375.894 62.9633 376.089 62.7562 376.272 62.6344C376.54 62.7806 376.808 62.9876 377.063 63.2678C377.234 63.5114 377.319 63.6698 377.319 63.7185C377.283 63.7672 377.124 63.7916 376.868 63.7916H373.896C373.689 63.7916 373.592 63.889 373.592 64.0961V64.7417C373.641 65.3751 373.348 65.6309 372.703 65.4969C372.556 65.4725 372.447 65.3751 372.337 65.2167C372.313 64.8391 372.301 64.4737 372.313 64.0961C372.313 63.889 372.215 63.7794 372.008 63.7794H369.925L369.523 63.8525C369.255 63.889 369.097 63.8281 369.036 63.6698C368.987 63.4627 369.109 63.3652 369.414 63.3896C369.56 63.3896 369.73 63.414 369.901 63.4505H371.996C372.203 63.4505 372.301 63.3531 372.301 63.146V62.6831C372.301 62.476 372.203 62.3664 371.996 62.3664H371.521C371.326 62.3664 371.217 62.4273 371.217 62.5491C371.107 62.9267 370.815 63.0851 370.339 63.0363C370.169 62.9998 370.072 62.9511 370.023 62.9024C369.998 62.8415 369.986 62.6953 369.986 62.4395V59.175C369.986 58.8949 370.12 58.7852 370.376 58.8583C370.571 58.907 370.778 58.9923 370.973 59.0897C371.095 59.1506 371.265 59.1872 371.46 59.1872H371.984C372.191 59.1872 372.288 59.0897 372.288 58.8827V58.4198C372.288 58.2127 372.191 58.1031 371.984 58.1031H370.607L370.218 58.164C369.95 58.2005 369.804 58.2005 369.767 58.1396C369.706 58.0909 369.584 58.03 369.414 57.9691C369.06 57.6768 369.024 57.3235 369.304 56.9094C369.852 56.5318 370.181 56.0445 370.303 55.4477L370.315 55.4598ZM371.217 56.1663L371.034 56.1907C370.839 56.2029 370.754 56.349 370.754 56.617C370.754 56.8606 370.693 57.1408 370.583 57.4575C370.461 57.6646 370.534 57.7742 370.778 57.7986H371.984C372.191 57.7986 372.288 57.7011 372.288 57.4941V56.751C372.288 56.4709 372.435 56.3369 372.727 56.349C373.056 56.3856 373.385 56.4465 373.726 56.5074C374.03 56.617 374.042 56.7754 373.762 56.9946C373.628 57.0555 373.567 57.2139 373.567 57.4453C373.567 57.6768 373.665 57.7986 373.872 57.7986C374.225 57.8595 374.481 57.7986 374.639 57.628C374.846 57.3357 375.053 57.0799 375.273 56.8606C375.309 56.8485 375.346 56.7267 375.395 56.5074C375.419 56.2882 375.334 56.1785 375.139 56.1785H371.217V56.1663ZM371.618 59.5039C371.35 59.5404 371.217 59.6501 371.217 59.8328V60.3078C371.217 60.5149 371.314 60.6245 371.521 60.6245H371.996C372.203 60.6245 372.301 60.5271 372.301 60.32V59.8206C372.301 59.6135 372.203 59.5039 371.996 59.5039H371.606H371.618ZM372.301 61.2579C372.301 61.0509 372.203 60.9412 371.996 60.9412H371.521C371.314 60.9412 371.217 61.0387 371.217 61.2458V61.7086C371.217 61.9157 371.314 62.0253 371.521 62.0253H371.996C372.203 62.0253 372.301 61.9279 372.301 61.7208V61.2579ZM374.822 59.8084C374.822 59.5892 374.688 59.4795 374.42 59.4917H373.872C373.665 59.4917 373.567 59.5892 373.567 59.7962V60.2956C373.567 60.5027 373.665 60.6124 373.872 60.6124H374.518C374.725 60.6124 374.834 60.5149 374.834 60.3078V59.8084H374.822ZM374.822 61.2579C374.822 61.0509 374.725 60.9412 374.518 60.9412H373.872C373.665 60.9412 373.567 61.0387 373.567 61.2458V61.7086C373.567 61.9157 373.665 62.0253 373.872 62.0253H374.518C374.725 62.0253 374.834 61.9279 374.834 61.7208V61.2579H374.822Z" fill="black"/>
<path d="M386.421 55.5578C386.421 55.3142 386.543 55.1924 386.798 55.1924C387.298 55.2289 387.724 55.3142 388.09 55.436C388.248 55.5822 388.211 55.704 387.968 55.8258C387.87 55.8623 387.822 55.9963 387.822 56.2034V56.5688C387.822 56.7759 387.919 56.8855 388.126 56.8855H390.501C390.733 56.9342 390.916 56.8733 391.05 56.7028C391.33 56.3496 391.634 56.3008 391.951 56.581C392.511 56.8855 392.865 57.1657 393.035 57.3971C393.072 57.5189 393.011 57.592 392.828 57.6164C392.621 57.6164 392.414 57.7016 392.207 57.9087C391.659 58.3107 391.159 58.6274 390.709 58.8588C390.562 58.9319 390.477 58.9075 390.477 58.7979C390.477 58.7127 390.55 58.5665 390.66 58.3594C390.782 58.0914 390.891 57.8113 390.989 57.5311C391.037 57.3362 390.964 57.2266 390.769 57.2266H383.339C383.095 57.2509 382.937 57.3849 382.888 57.6407C382.803 58.0792 382.693 58.4081 382.547 58.6274C382.17 59.0537 381.768 59.1268 381.341 58.8223C381.073 58.5908 381.061 58.262 381.305 57.8234C381.451 57.6286 381.609 57.5067 381.78 57.4458C382.255 57.0561 382.56 56.581 382.694 56.045C382.73 56.0329 382.767 56.045 382.803 56.0694C382.864 56.2399 382.901 56.3983 382.913 56.5688C382.937 56.7637 383.083 56.8733 383.339 56.8977H386.141C386.348 56.8977 386.457 56.8003 386.457 56.5932V55.57L386.421 55.5578ZM384.886 57.8113C384.984 57.5311 385.142 57.4093 385.373 57.4458C385.653 57.4946 385.946 57.5798 386.262 57.6895C386.457 57.7382 386.579 57.8356 386.616 57.994C386.567 58.1158 386.494 58.1645 386.421 58.1402C386.336 58.1523 386.226 58.2498 386.092 58.4325C385.982 58.6274 386.031 58.7127 386.226 58.7127H387.858C388.138 58.7857 388.394 58.6518 388.613 58.2863C388.723 58.1645 388.833 58.128 388.918 58.1523C389.393 58.4325 389.771 58.7857 390.051 59.2121C390.051 59.407 389.953 59.5044 389.722 59.5044C389.551 59.5044 389.417 59.6262 389.308 59.8577C389.04 60.3205 388.735 60.7347 388.394 61.1001C388.175 61.3437 388.187 61.5264 388.431 61.6482C389.783 62.1477 391.244 62.4035 392.804 62.4035C392.852 62.44 392.877 62.4765 392.877 62.5131C392.852 62.5496 392.718 62.6471 392.463 62.7689C392.207 62.9638 392.036 63.1587 391.939 63.3536C391.841 63.6215 391.78 63.7799 391.756 63.8043C391.659 63.8408 391.476 63.8286 391.208 63.7677L391.037 63.7434C390.794 63.7068 390.709 63.7434 390.782 63.853C390.903 63.9748 390.879 64.0966 390.709 64.2306C390.501 64.3037 390.428 64.462 390.489 64.7178V66.3988C390.611 66.8617 390.392 67.1296 389.844 67.1905C389.454 67.3002 389.222 67.1784 389.137 66.8251C389.137 66.618 389.028 66.5084 388.833 66.5084H385.69C385.495 66.5084 385.385 66.5571 385.373 66.6424C385.337 67.0566 385.057 67.2758 384.533 67.288C384.082 67.3124 383.912 67.0931 383.997 66.6302V63.9504C383.997 63.7555 383.875 63.6581 383.619 63.6703C382.462 63.8408 381.658 63.9017 381.207 63.8652C381.171 63.8286 381.147 63.7921 381.159 63.7555C382.401 63.5241 383.497 63.183 384.472 62.7202C385.142 62.3791 385.629 62.0746 385.97 61.7944C386.238 61.5752 386.262 61.3437 386.055 61.1123C385.678 60.6251 385.41 60.2353 385.264 59.9429C385.166 59.7359 384.996 59.7358 384.74 59.9551C384.094 60.4911 383.461 60.8687 382.852 61.1123C382.523 61.2219 382.365 61.2463 382.377 61.1732C383.741 60.0525 384.594 58.9197 384.898 57.7747L384.886 57.8113ZM387.602 62.4765C387.334 62.2938 387.066 62.2816 386.835 62.44C386.372 62.7445 385.848 63.0125 385.251 63.2439C385.044 63.3292 385.008 63.4023 385.154 63.4632C385.312 63.5606 385.495 63.5972 385.69 63.5972H388.65C388.845 63.5972 389.003 63.5485 389.113 63.4388C389.21 63.317 389.113 63.2074 388.857 63.0856C388.528 62.9394 388.187 62.7811 387.858 62.5984L387.615 62.4644L387.602 62.4765ZM389.125 64.2671C389.125 64.0479 389.015 63.9261 388.796 63.9261H385.702C385.483 63.9261 385.373 64.0357 385.373 64.2428V65.875C385.373 66.0821 385.471 66.1917 385.678 66.1917H388.82C389.028 66.1917 389.137 66.0943 389.137 65.8872V64.2671H389.125ZM385.824 59.0537C385.702 59.0903 385.593 59.1512 385.495 59.2242C385.398 59.3217 385.459 59.4922 385.641 59.7358C385.97 60.1013 386.287 60.3936 386.616 60.6372C386.835 60.8078 387.054 60.7712 387.261 60.552C387.651 60.0647 387.943 59.5897 388.151 59.1146C388.151 59.0781 388.041 59.0537 387.846 59.0537H385.824Z" fill="black"/>
<path d="M406.629 55.192C406.727 55.0214 406.849 54.9727 406.995 55.0702C407.36 55.3016 407.689 55.5696 407.994 55.8741C408.237 56.1908 408.335 56.3613 408.298 56.3979C408.237 56.4344 408.091 56.4588 407.835 56.4588H403.682C403.499 56.4588 403.511 56.5075 403.73 56.5928C404.035 56.739 404.181 56.8364 404.193 56.8973C404.157 57.0557 404.084 57.1287 403.962 57.1166C403.864 57.1531 403.791 57.2018 403.718 57.2627C403.523 57.4576 403.341 57.6282 403.146 57.7743C402.926 57.9449 402.902 58.0179 403.097 58.0179H404.632C404.827 58.0179 405.021 57.9449 405.192 57.7865C405.363 57.616 405.606 57.6038 405.923 57.7256C406.398 57.957 406.702 58.1641 406.849 58.3346C406.885 58.4808 406.776 58.627 406.508 58.7488C406.483 58.8097 406.471 58.9315 406.471 59.1142V61.7209C406.568 62.1838 406.349 62.4518 405.825 62.5249C405.387 62.6223 405.155 62.4518 405.155 62.0133C405.155 61.8671 405.058 61.794 404.851 61.794H404.278C404.071 61.794 403.962 61.8915 403.962 62.0985V66.0695C403.791 66.8369 403.341 67.2145 402.61 67.2145C402.366 67.2145 402.183 67.1049 402.086 66.8491C401.891 66.5202 401.647 66.3009 401.355 66.2035C401.136 66.1426 401.014 66.0939 400.965 66.0451C400.929 65.9721 400.941 65.9111 401.002 65.8624C401.124 65.8502 401.319 65.8624 401.599 65.8746L402.037 65.899C402.256 65.899 402.403 65.8868 402.451 65.8624C402.573 65.7406 402.622 65.5823 402.573 65.3874V62.1107C402.573 61.9036 402.476 61.794 402.269 61.794H401.903C401.708 61.794 401.599 61.8306 401.599 61.9158C401.562 62.2691 401.355 62.464 400.965 62.5005C400.454 62.6223 400.222 62.4274 400.271 61.9158V57.8961C400.271 57.616 400.405 57.5185 400.661 57.5794C400.929 57.6403 401.209 57.75 401.513 57.9083C401.647 57.9936 401.794 58.0301 401.964 58.0301C402.135 58.0301 402.256 57.9083 402.342 57.6525C402.415 57.3724 402.476 57.08 402.5 56.7877C402.524 56.5684 402.439 56.4466 402.256 56.4466H399.406C399.199 56.4466 399.089 56.5441 399.089 56.7511V59.3457C399.053 61.0023 398.895 62.4152 398.614 63.5846C398.285 65.0098 397.652 66.0939 396.739 66.8613C396.641 66.8734 396.653 66.7395 396.739 66.4593C397.153 65.4239 397.421 64.1206 397.53 62.5492C397.628 61.6966 397.676 60.7221 397.701 59.638V55.935C397.701 55.6549 397.835 55.5574 398.091 55.6549L398.943 56.0325C399.077 56.0934 399.248 56.1299 399.443 56.1299H405.557C405.825 56.2274 406.069 56.0812 406.276 55.6914C406.386 55.5209 406.52 55.3625 406.666 55.192H406.629ZM399.991 63.0608C400.052 62.7807 400.222 62.6832 400.478 62.7441C400.758 62.8416 401.038 62.939 401.331 63.073C401.635 63.2679 401.794 63.4019 401.781 63.4506C401.745 63.5846 401.647 63.6455 401.489 63.6455C401.404 63.6455 401.27 63.7795 401.075 64.0353C400.332 65.0707 399.516 65.8381 398.627 66.3375C398.359 66.4715 398.212 66.5202 398.176 66.4958C398.176 66.4593 398.261 66.3253 398.444 66.0695C399.163 65.1925 399.674 64.1936 399.991 63.0608ZM405.131 58.6879C405.131 58.4686 405.022 58.3468 404.802 58.3468H401.952C401.696 58.3834 401.574 58.493 401.574 58.7001V59.4431C401.574 59.6502 401.672 59.7598 401.879 59.7598H404.814C405.021 59.7598 405.131 59.6624 405.131 59.4553V58.6879ZM405.131 60.4298C405.131 60.2105 405.034 60.0887 404.851 60.0887H401.891C401.684 60.0887 401.586 60.1861 401.586 60.3932V61.1484C401.586 61.3555 401.684 61.4651 401.891 61.4651H404.827C405.034 61.4651 405.143 61.3677 405.143 61.1606V60.4298H405.131ZM404.522 62.9877C404.522 62.9877 404.693 62.9268 404.948 62.9756C405.557 63.0974 406.179 63.3775 406.812 63.816C407.616 64.4494 407.981 65.095 407.896 65.7406C407.726 66.3253 407.348 66.4958 406.763 66.2279C406.544 66.0695 406.434 65.8624 406.422 65.6066C406.215 64.6687 405.704 63.9013 404.9 63.2923C404.632 63.1339 404.51 63.0365 404.51 62.9756L404.522 62.9877Z" fill="black"/>
<path d="M415.835 65.1315C415.737 64.8635 415.737 64.7174 415.798 64.693C416.127 64.7052 416.456 64.8148 416.76 65.0097C417.211 65.3386 417.309 65.7406 417.041 66.2156C416.98 66.3009 417.053 66.3496 417.248 66.3496H418.514C418.709 66.3496 418.856 66.2278 418.941 65.972C419.002 65.7162 419.05 65.4604 419.087 65.2046C419.099 64.9244 419.245 64.8148 419.501 64.8392C419.781 64.9001 420.061 64.9732 420.342 65.0463C420.597 65.1802 420.719 65.2655 420.731 65.3021C420.731 65.4239 420.67 65.4969 420.524 65.5213C420.427 65.5578 420.342 65.5944 420.281 65.6553C420.147 65.8015 420.013 65.9233 419.867 66.0329C419.647 66.2034 419.538 66.2887 419.562 66.3131C420.025 66.3374 420.5 66.3496 420.999 66.3374C421.206 66.3374 421.401 66.2156 421.596 65.972L421.864 65.6188C422.096 65.3751 422.254 65.2655 422.327 65.2655C422.68 65.4604 423.009 65.7284 423.326 66.0573C423.57 66.3618 423.679 66.5201 423.655 66.5689C423.618 66.6176 423.46 66.642 423.204 66.642H413.325L412.923 66.715C412.655 66.7516 412.497 66.6907 412.436 66.5323C412.387 66.3252 412.509 66.2278 412.814 66.2522C412.96 66.2522 413.13 66.2765 413.301 66.3131H415.822C416.017 66.3131 416.09 66.2765 416.03 66.1913C415.908 66.0451 415.859 65.8746 415.883 65.6675C415.908 65.4604 415.883 65.2655 415.822 65.095L415.835 65.1315ZM417.357 55.5939C417.357 55.3259 417.479 55.2041 417.711 55.2041C418.003 55.2041 418.307 55.2528 418.636 55.3381C418.831 55.3625 418.953 55.4355 419.014 55.5573C419.014 55.6548 418.953 55.7279 418.819 55.7644C418.722 55.801 418.673 55.9228 418.673 56.1299V59.6988C418.673 59.9059 418.77 60.0156 418.977 60.0156H421.511C421.718 60.0156 421.828 59.9181 421.828 59.711V59.3943C421.828 59.1873 421.73 59.0776 421.523 59.0776H420.987C420.78 59.0776 420.683 59.1264 420.683 59.236C420.683 59.6136 420.463 59.7719 420.013 59.7232C419.733 59.6745 419.623 59.5283 419.647 59.2725C419.647 59.1873 419.55 59.1385 419.331 59.1507C419.111 59.1751 418.977 59.1142 418.916 58.9558C418.88 58.7853 418.88 58.6878 418.916 58.6635L419.343 58.6878C419.538 58.7 419.647 58.5904 419.647 58.3468C419.647 58.1032 419.562 57.9935 419.391 57.9935C419.172 58.0179 419.038 57.957 418.99 57.7986C418.953 57.6037 419.05 57.5185 419.282 57.5428C419.525 57.5672 419.659 57.4576 419.659 57.2139C419.659 56.9703 419.562 56.8485 419.355 56.8485C419.16 56.8729 419.026 56.7998 418.977 56.6414C418.953 56.4709 419.05 56.3857 419.282 56.3978C419.525 56.4222 419.659 56.3369 419.659 56.1542V55.8131C419.659 55.5452 419.793 55.4234 420.049 55.4355C420.305 55.4721 420.573 55.5086 420.865 55.5695C421.036 55.667 421.036 55.7644 420.853 55.8984C420.756 56.0202 420.707 56.1299 420.707 56.2638C420.707 56.41 420.804 56.3857 420.987 56.1786C421.17 55.9715 421.279 55.8619 421.328 55.8497C421.365 55.8619 421.474 55.9593 421.645 56.1299C421.791 56.3247 421.852 56.2882 421.852 56.0446V55.7035C421.852 55.4355 421.986 55.3137 422.242 55.3381C422.79 55.399 423.18 55.4843 423.399 55.6183C423.423 55.6548 423.399 55.7522 423.314 55.8741C423.18 56.0446 423.119 56.2151 423.119 56.3856V59.8694C423.216 60.2957 423.058 60.5515 422.619 60.6368C422.376 60.6733 422.144 60.6124 421.913 60.4297C421.864 60.3566 421.742 60.3201 421.56 60.3201H414.592C414.397 60.3201 414.288 60.3566 414.263 60.4419C414.166 60.7586 413.91 60.8926 413.496 60.8439C413.082 60.7951 412.911 60.5637 412.996 60.1617V55.7035C412.996 55.4355 413.13 55.3137 413.386 55.3381C413.934 55.399 414.324 55.4843 414.543 55.6183C414.568 55.6548 414.543 55.7522 414.446 55.8741C414.324 56.0446 414.263 56.2151 414.263 56.3856V59.6867C414.263 59.8937 414.361 60.0034 414.568 60.0034H417.114C417.321 60.0034 417.43 59.9059 417.43 59.6988V59.3821C417.43 59.2116 417.321 59.1263 417.101 59.1263H416.553C416.358 59.1263 416.249 59.1873 416.249 59.3212C416.176 59.7232 415.871 59.8207 415.335 59.6379C415.238 59.577 415.201 59.4552 415.213 59.2969C415.213 59.2116 415.104 59.1751 414.885 59.1994C414.677 59.2238 414.543 59.1507 414.483 58.9924C414.446 58.8218 414.543 58.7366 414.799 58.7487H414.909C415.104 58.7731 415.213 58.6513 415.213 58.4077C415.213 58.1641 415.104 58.0544 414.885 58.0544C414.665 58.0788 414.531 58.0057 414.483 57.8474C414.446 57.6768 414.556 57.6037 414.824 57.6037C415.079 57.6159 415.213 57.5185 415.213 57.287C415.213 57.0556 415.104 56.9582 414.885 56.9582C414.665 56.9825 414.531 56.9094 414.483 56.7511C414.446 56.5805 414.446 56.4953 414.483 56.4709C414.629 56.4709 414.763 56.4831 414.909 56.5075C415.104 56.5075 415.213 56.4222 415.213 56.2151V55.801C415.213 55.533 415.347 55.4112 415.603 55.4234C415.713 55.4234 415.835 55.4477 415.969 55.4843C416.285 55.533 416.468 55.5817 416.505 55.6304C416.529 55.6913 416.505 55.7766 416.407 55.8741C416.31 55.9959 416.261 56.1299 416.261 56.2882C416.261 56.4466 416.358 56.4344 416.566 56.2395C416.76 56.0324 416.882 55.935 416.931 55.935C416.992 55.9715 417.065 56.0568 417.162 56.2029C417.357 56.4831 417.455 56.5196 417.455 56.3004V55.533L417.357 55.5939ZM421.304 60.6611C421.389 60.4662 421.523 60.4175 421.718 60.5271C422.169 60.7708 422.595 61.1118 423.009 61.5503C423.021 61.6965 422.875 61.7452 422.558 61.6965H413.8L413.411 61.7452C413.155 61.7574 412.997 61.6843 412.948 61.526C412.899 61.3554 413.009 61.2824 413.277 61.3067C413.435 61.3067 413.606 61.3311 413.788 61.3676H420.524C420.768 61.4285 420.926 61.3676 421.012 61.1727C421.097 61.0022 421.194 60.8439 421.304 60.6733V60.6611ZM414.276 62.5492C414.276 62.2812 414.397 62.1837 414.653 62.2325C414.872 62.2934 415.079 62.3786 415.299 62.4761C415.384 62.5248 415.518 62.5492 415.725 62.5492H420.22C420.415 62.5492 420.585 62.4639 420.719 62.3056C420.865 62.1594 421.06 62.1472 421.328 62.2447C421.596 62.3665 421.876 62.5248 422.193 62.7441C422.4 62.9268 422.327 63.0973 421.986 63.2435C421.949 63.3044 421.937 63.4262 421.937 63.6333C421.937 63.9622 421.937 64.291 421.913 64.6443C421.681 64.9244 421.353 65.0219 420.926 64.9488C420.768 64.8879 420.683 64.7905 420.67 64.6321C420.658 64.5712 420.549 64.5347 420.366 64.5347H415.871C415.676 64.5347 415.554 64.5956 415.506 64.7174C415.286 65.0219 414.945 65.1193 414.495 65.0341C414.3 64.9732 414.239 64.7905 414.288 64.4738V62.5614L414.276 62.5492ZM415.92 62.8902C415.676 62.9268 415.542 63.0364 415.542 63.2435V63.9013C415.542 64.1083 415.64 64.218 415.847 64.218H420.342C420.549 64.218 420.658 64.1205 420.658 63.9134V63.2313C420.658 63.012 420.549 62.8902 420.329 62.8902H415.92ZM417.357 57.1652C417.357 56.946 417.333 56.8485 417.296 56.8973C417.028 56.9216 416.76 56.9338 416.48 56.9216C416.273 56.9216 416.176 57.0434 416.176 57.2992C416.176 57.555 416.2 57.6768 416.237 57.689C416.285 57.689 416.407 57.5794 416.614 57.3601C416.809 57.153 416.98 57.1287 417.15 57.287C417.296 57.4819 417.357 57.4454 417.357 57.1774V57.1652ZM417.357 58.359C417.357 58.1275 417.26 58.0057 417.065 58.0057H416.48C416.273 58.0057 416.176 58.1397 416.176 58.4077C416.176 58.6757 416.188 58.8096 416.224 58.834C416.261 58.834 416.383 58.7122 416.566 58.4929C416.76 58.091 416.98 58.1275 417.235 58.6148C417.272 58.7 417.296 58.7366 417.333 58.7122C417.345 58.6757 417.357 58.5538 417.357 58.3468V58.359ZM421.803 57.0556C421.803 56.8851 421.694 56.812 421.474 56.812H420.963C420.756 56.812 420.658 56.946 420.658 57.2018C420.658 57.4819 420.744 57.5307 420.914 57.3236C421.097 57.1287 421.206 57.0191 421.255 57.0191C421.304 57.0556 421.401 57.153 421.523 57.3236C421.706 57.5916 421.803 57.6159 421.803 57.3967V57.0556ZM421.803 58.2371C421.803 57.9935 421.791 57.8961 421.755 57.9204C421.718 57.9448 421.572 57.957 421.316 57.957H420.963C420.756 57.957 420.658 58.0544 420.658 58.2615V58.4929C420.658 58.7366 420.768 58.7244 421.012 58.4808C421.206 58.2615 421.328 58.1519 421.365 58.1519C421.535 58.2737 421.669 58.4199 421.755 58.5782C421.791 58.5782 421.815 58.4686 421.815 58.225L421.803 58.2371Z" fill="black"/>
<path d="M6.8358 96.4966H3.13281V103.647H6.8358V96.4966Z" fill="#F3D143"/>
<path d="M1.9668 109.58H6.85133V123.088C4.15935 123.088 1.9668 120.896 1.9668 118.204V109.58Z" fill="#F3D143"/>
<path d="M92.0799 121.87H84.5156V124.928H92.0799V121.87Z" fill="#F3D143"/>
<path d="M205.766 121.87H198.201V124.928H205.766V121.87Z" fill="#F3D143"/>
<path d="M296.16 121.87H288.596V124.928H296.16V121.87Z" fill="#F3D143"/>
<path d="M377.978 121.87H370.414V124.928H377.978V121.87Z" fill="#F3D143"/>
<path d="M498.517 121.87H490.953V124.928H498.517V121.87Z" fill="#F3D143"/>
<path d="M524.321 111.687C524.808 112.344 525.612 112.564 526.611 112.174C526.83 113.806 526.124 116.193 525.441 116.863C525.368 113.684 523.931 114.707 524.321 111.687Z" fill="#F8172A"/>
<path d="M520.188 117.96C520.857 117.485 521.077 116.681 520.675 115.694C522.331 115.475 524.743 116.181 525.425 116.851C522.21 116.936 523.233 118.337 520.188 117.96Z" fill="#0B24BB"/>
<path d="M530.675 115.754C530.017 116.229 529.786 117.033 530.188 118.02C528.531 118.239 526.119 117.532 525.449 116.862C528.665 116.777 527.63 115.376 530.675 115.754Z" fill="#F3D143"/>
<path d="M526.547 122.04C526.06 121.382 525.256 121.163 524.257 121.552C524.038 119.92 524.745 117.533 525.427 116.863C525.512 120.042 526.937 119.019 526.547 122.04Z" fill="#1A811E"/>
<path d="M529.922 119.751C529.106 119.629 528.375 120.031 527.961 121.005C526.634 120.006 525.428 117.826 525.428 116.876C527.766 119.056 528.034 117.351 529.922 119.751Z" fill="#B2B2B2"/>
<path d="M522.515 121.297C522.637 120.493 522.235 119.774 521.248 119.36C522.259 118.044 524.464 116.863 525.426 116.863C523.221 119.165 524.951 119.445 522.515 121.297Z" fill="#B2B2B2"/>
<path d="M520.947 113.976C521.763 114.098 522.494 113.696 522.908 112.722C524.236 113.721 525.442 115.901 525.442 116.851C523.103 114.671 522.835 116.376 520.947 113.976Z" fill="#B2B2B2"/>
<path d="M528.353 112.418C528.231 113.222 528.633 113.941 529.619 114.355C528.608 115.67 526.404 116.852 525.441 116.852C527.646 114.55 525.916 114.269 528.353 112.418Z" fill="#B2B2B2"/>
<path d="M456.827 152.712C466.207 143.331 466.207 128.122 456.827 118.741C447.446 109.361 432.237 109.361 422.856 118.741C413.476 128.122 413.476 143.331 422.856 152.712C432.237 162.092 447.446 162.092 456.827 152.712Z" fill="#4E516B"/>
<path d="M450.884 140.325C453.43 134.215 450.541 127.198 444.431 124.651C438.32 122.105 431.303 124.995 428.757 131.105C426.21 137.216 429.1 144.233 435.21 146.779C441.321 149.325 448.338 146.436 450.884 140.325Z" fill="#B2B2B2" stroke="#383B4D" stroke-width="1.06274" stroke-miterlimit="10"/>
<path d="M442.685 135.731C442.685 134.16 441.406 132.881 439.835 132.881C438.263 132.881 436.984 134.16 436.984 135.731C436.984 137.303 438.263 138.582 439.835 138.582C441.406 138.582 442.685 137.303 442.685 135.731Z" fill="#4E516B"/>
<path d="M441.001 129.567C441.001 128.922 440.477 128.398 439.831 128.398C439.186 128.398 438.662 128.922 438.662 129.567C438.662 130.213 439.186 130.737 439.831 130.737C440.477 130.737 441.001 130.213 441.001 129.567Z" fill="#4E516B"/>
<path d="M441.001 141.883C441.001 141.238 440.477 140.714 439.831 140.714C439.186 140.714 438.662 141.238 438.662 141.883C438.662 142.529 439.186 143.053 439.831 143.053C440.477 143.053 441.001 142.529 441.001 141.883Z" fill="#4E516B"/>
<path d="M433.681 134.562C433.035 134.562 432.512 135.086 432.512 135.731C432.512 136.377 433.035 136.901 433.681 136.901C434.327 136.901 434.85 136.377 434.85 135.731C434.85 135.086 434.327 134.562 433.681 134.562Z" fill="#4E516B"/>
<path d="M445.986 134.562C445.34 134.562 444.816 135.086 444.816 135.731C444.816 136.377 445.34 136.901 445.986 136.901C446.631 136.901 447.155 136.377 447.155 135.731C447.155 135.086 446.631 134.562 445.986 134.562Z" fill="#4E516B"/>
<path d="M436.277 130.567C435.814 130.116 435.084 130.116 434.633 130.567C434.182 131.017 434.182 131.76 434.633 132.211C435.096 132.662 435.827 132.662 436.277 132.211C436.728 131.748 436.728 131.017 436.277 130.567Z" fill="#4E516B"/>
<path d="M445.02 139.227C444.557 138.776 443.826 138.776 443.375 139.227C442.924 139.69 442.924 140.421 443.375 140.872C443.838 141.322 444.569 141.322 445.02 140.872C445.47 140.409 445.47 139.678 445.02 139.227Z" fill="#4E516B"/>
<path d="M434.668 139.276C434.217 139.739 434.217 140.47 434.668 140.92C435.131 141.371 435.862 141.371 436.313 140.92C436.763 140.458 436.763 139.727 436.313 139.276C435.85 138.825 435.119 138.825 434.668 139.276Z" fill="#4E516B"/>
<path d="M443.342 130.53C442.891 130.993 442.891 131.724 443.342 132.175C443.805 132.626 444.536 132.626 444.986 132.175C445.437 131.712 445.437 130.981 444.986 130.53C444.536 130.08 443.793 130.08 443.342 130.53Z" fill="#4E516B"/>
<path d="M180.569 152.706C189.95 143.325 189.95 128.116 180.569 118.735C171.188 109.355 155.979 109.355 146.598 118.736C137.218 128.116 137.218 143.325 146.598 152.706C155.979 162.087 171.188 162.087 180.569 152.706Z" fill="#4E516B"/>
<path d="M174.64 140.319C177.186 134.208 174.297 127.191 168.186 124.645C162.076 122.099 155.058 124.988 152.512 131.099C149.966 137.209 152.856 144.227 158.966 146.773C165.077 149.319 172.094 146.429 174.64 140.319Z" fill="#B2B2B2" stroke="#383B4D" stroke-width="1.06274" stroke-miterlimit="10"/>
<path d="M166.421 135.731C166.421 134.16 165.142 132.881 163.571 132.881C162 132.881 160.721 134.16 160.721 135.731C160.721 137.303 162 138.582 163.571 138.582C165.142 138.582 166.421 137.303 166.421 135.731Z" fill="#4E516B"/>
<path d="M164.735 129.567C164.735 128.922 164.211 128.398 163.566 128.398C162.92 128.398 162.396 128.922 162.396 129.567C162.396 130.213 162.92 130.737 163.566 130.737C164.211 130.737 164.735 130.213 164.735 129.567Z" fill="#4E516B"/>
<path d="M164.735 141.883C164.735 141.238 164.211 140.714 163.566 140.714C162.92 140.714 162.396 141.238 162.396 141.883C162.396 142.529 162.92 143.053 163.566 143.053C164.211 143.053 164.735 142.529 164.735 141.883Z" fill="#4E516B"/>
<path d="M157.415 134.562C156.77 134.562 156.246 135.086 156.246 135.731C156.246 136.377 156.77 136.901 157.415 136.901C158.061 136.901 158.585 136.377 158.585 135.731C158.585 135.086 158.061 134.562 157.415 134.562Z" fill="#4E516B"/>
<path d="M169.732 134.562C169.086 134.562 168.562 135.086 168.562 135.731C168.562 136.377 169.086 136.901 169.732 136.901C170.377 136.901 170.901 136.377 170.901 135.731C170.901 135.086 170.377 134.562 169.732 134.562Z" fill="#4E516B"/>
<path d="M160.025 130.567C159.563 130.116 158.832 130.116 158.381 130.567C157.93 131.017 157.93 131.76 158.381 132.211C158.844 132.662 159.575 132.662 160.025 132.211C160.476 131.748 160.476 131.017 160.025 130.567Z" fill="#4E516B"/>
<path d="M168.772 139.227C168.309 138.776 167.578 138.776 167.127 139.227C166.676 139.69 166.676 140.421 167.127 140.872C167.59 141.322 168.321 141.322 168.772 140.872C169.222 140.409 169.222 139.678 168.772 139.227Z" fill="#4E516B"/>
<path d="M158.416 139.276C157.965 139.739 157.965 140.47 158.416 140.92C158.879 141.371 159.61 141.371 160.061 140.92C160.511 140.458 160.511 139.727 160.061 139.276C159.598 138.825 158.867 138.825 158.416 139.276Z" fill="#4E516B"/>
<path d="M167.078 130.53C166.628 130.993 166.628 131.724 167.078 132.175C167.541 132.626 168.272 132.626 168.723 132.175C169.173 131.712 169.173 130.981 168.723 130.53C168.272 130.08 167.529 130.08 167.078 130.53Z" fill="#4E516B"/>
<path d="M504.332 131.723L546.539 131.626V125.146H504.332V131.723Z" fill="#EFEFEF"/>
<path d="M270.068 54.8013H239.36C236.083 54.8013 233.428 57.4567 233.428 60.7455V131.675H235.255V60.7455C235.255 58.4799 237.094 56.6284 239.36 56.6284H270.068C272.333 56.6284 274.185 58.4799 274.185 60.7455V131.675H276.012V60.7455C276.012 57.4567 273.344 54.8013 270.068 54.8013Z" fill="#4E516B"/>
<path d="M552.446 110.931L549.559 61.8667L545.929 46.129C544.224 42.6209 542.202 38.5281 539.839 33.7045C532.36 18.4784 534.455 11.8764 537.403 9.02603C536.173 3.75171 531.483 0 526.05 0H17.4255C12.2973 0 7.76604 3.36192 6.27997 8.28299L3.80725 16.4685C3.80725 16.4685 3.80725 16.4807 3.79507 16.5173C3.62454 17.5892 0.908203 34.9591 0.908203 54.9601V130.798C0.908203 131.066 0.920385 131.334 0.932565 131.602C0.932565 131.627 0.932565 131.651 0.932565 131.675H136.628C136.603 131.797 136.579 131.931 136.567 132.053C136.42 133.161 136.347 134.306 136.347 135.464C136.347 139.739 137.346 143.771 139.137 147.364H139.186C137.371 143.759 136.36 139.69 136.36 135.39C136.36 134.233 136.433 133.088 136.579 131.98C136.591 131.858 136.615 131.724 136.64 131.602C136.956 129.349 137.578 127.181 138.418 125.146C142.438 115.414 152.012 108.568 163.182 108.568C174.352 108.568 183.926 115.414 187.946 125.146C188.786 127.193 189.407 129.349 189.724 131.602H413.048C413.365 129.349 413.986 127.181 414.827 125.146C418.846 115.414 428.42 108.568 439.603 108.568C450.785 108.568 460.347 115.414 464.366 125.146C465.207 127.193 465.828 129.349 466.145 131.602H503.662V57.8713C503.662 55.1672 505.854 52.9746 508.558 52.9746H537.293C539.34 52.9746 541.264 53.8273 542.604 55.3012C543.03 55.7519 543.396 56.2756 543.688 56.836C545.99 61.3916 548.366 70.5516 548.366 99.7736V146.463H551.508V136.207H559.95V110.931H552.434H552.446ZM329.804 9.428H367.882C367.882 9.428 371.341 9.41582 379.234 9.41582C380.099 9.41582 384.971 9.46454 386.336 9.56199C390.672 9.87869 397.262 10.7313 404.241 12.2783V51.0013H329.804V9.428ZM251.664 9.46454L326.089 9.428V51.0013H251.664V9.46454ZM14.7579 39.8558L19.8373 13.4355C20.2636 11.182 22.2369 9.54981 24.5269 9.54981L91.6679 9.52544V50.9891H62.1658C54.5893 50.9891 47.0494 50.1974 39.6434 48.6261L17.4498 43.9242C15.5983 43.5345 14.3924 41.7195 14.7579 39.8558ZM169.808 50.9891H95.3831V9.52544L169.808 9.4889V50.9891ZM173.523 50.9891V9.4889L247.949 9.45236V50.9891H173.523ZM447.325 58.3586C442.709 54.8018 436.85 50.9891 427.787 50.9891H407.957V13.1432C417.738 15.6281 427.665 19.4894 432.842 25.1901C443.61 37.0299 450.042 48.1632 454 54.8018C456.558 59.0772 460.139 65.5453 462.941 70.4176C456.363 65.8133 450.456 60.7704 447.325 58.3586ZM541.642 48.9062L504.332 49.1742C501.664 49.1742 492.407 49.3447 490.957 51.3789C490.872 51.5129 490.774 51.6591 490.689 51.8053L490.433 52.2803C490.348 52.4509 490.263 52.6214 490.19 52.8041C490.092 53.0355 490.007 53.2791 489.934 53.5228C489.788 53.9978 489.69 54.4851 489.629 54.9845C489.605 55.2525 489.593 55.5204 489.593 55.7884L494.745 78.5057C494.745 78.5057 489.215 71.6723 494.745 89.0787C490.36 86.6426 491.895 96.7162 488.192 93.5491C484.538 90.5161 482.589 88.3113 482.589 88.3113C478.983 84.6327 475.67 80.6374 472.515 76.3984C472.491 76.3619 472.467 76.3254 472.442 76.2888C472.418 76.2645 472.406 76.2401 472.393 76.2279C471.419 74.9246 470.469 73.5847 469.531 72.2448C469.202 71.7697 468.885 71.2825 468.556 70.8196C468.033 70.0766 467.509 69.3457 467.034 68.5783C466.608 67.9084 466.157 67.275 465.743 66.605C464.805 65.1677 463.867 63.706 462.941 62.2321C462.783 61.9763 462.624 61.7205 462.466 61.4647C461.674 60.1979 460.895 58.9189 460.103 57.6399C459.811 57.1527 459.518 56.6776 459.226 56.1904C458.459 54.9114 457.679 53.6324 456.912 52.329C456.778 52.122 456.656 51.9149 456.534 51.7078C455.693 50.2948 454.853 48.8819 454 47.4689C453.257 46.2142 452.502 44.9596 451.747 43.705C451.333 43.0107 450.931 42.3285 450.517 41.6342C450.09 40.9399 449.652 40.2334 449.225 39.5269C448.555 38.4185 447.886 37.31 447.203 36.2016C444.755 32.2306 442.075 28.8443 439.286 25.9453C432.477 18.9169 424.961 14.8485 418.152 12.5219C415.899 11.7424 413.718 11.1699 411.66 10.7314C411.002 10.5974 411.111 9.63507 411.781 9.63507L462.405 9.51327L495.695 9.61071H500.276L511.153 9.65943H516.038C518.291 9.65943 532.384 7.82012 541.313 47.4811C541.496 48.285 541.447 48.0779 541.642 48.9306V48.9062Z" stroke="#4E516B" stroke-width="1.81664" stroke-miterlimit="10"/>
<path d="M560.801 22.291H556.574C556.574 17.4796 552.652 13.5574 547.84 13.5574H533.15C531.981 13.5574 531.043 12.6072 531.043 11.4501C531.043 10.2807 531.993 9.34277 533.15 9.34277H547.84C554.978 9.34277 560.789 15.1531 560.789 22.291H560.801Z" fill="white" stroke="#4E516B" stroke-width="1.81664" stroke-miterlimit="10"/>
<path d="M558.057 22.2915H560.81V44.1805H558.057C555.719 44.1805 553.818 42.2803 553.818 39.9416V26.5426C553.818 24.2039 555.719 22.3037 558.057 22.3037V22.2915Z" fill="#4E516B" stroke="#4E516B" stroke-width="1.81664" stroke-miterlimit="10"/>
<rect x="2.45898" y="131.547" width="556.801" height="38.1495" rx="19.0747" fill="black" fill-opacity="0.1"/>
</g>
<defs>
<clipPath id="clip0_2043_10135">
<rect width="561.72" height="169.697" fill="white"/>
</clipPath>
</defs>
</svg>
