<svg width="660" height="204" viewBox="0 0 660 204" fill="none" xmlns="http://www.w3.org/2000/svg">
<g clip-path="url(#clip0_2067_10886)">
<g clip-path="url(#clip1_2067_10886)">
<path d="M647.87 141.739L644.182 79.0482L639.544 58.9398C637.365 54.4575 634.781 49.2281 631.762 43.0648C622.206 23.6102 624.883 15.1746 628.649 11.5327C627.077 4.79363 621.085 0 614.144 0H-35.7354C-42.2878 0 -48.0775 4.29559 -49.9762 10.5833L-53.1357 21.0422C-53.1357 21.0422 -53.1357 21.0577 -53.1512 21.1044C-53.3691 22.474 -56.8398 44.6679 -56.8398 70.2235V167.123C-56.8398 167.466 -56.8243 167.808 -56.8087 168.15C-56.8087 168.182 -56.8087 168.213 -56.8087 168.244H116.571C116.54 168.4 116.509 168.571 116.493 168.726C116.307 170.143 116.213 171.606 116.213 173.084C116.213 178.547 117.49 183.699 119.777 188.29H119.84C117.521 183.683 116.229 178.485 116.229 172.991C116.229 171.512 116.322 170.049 116.509 168.633C116.525 168.477 116.556 168.306 116.587 168.15C116.991 165.271 117.785 162.501 118.859 159.902C123.995 147.466 136.228 138.719 150.5 138.719C164.772 138.719 177.005 147.466 182.141 159.902C183.215 162.516 184.009 165.271 184.414 168.15H469.759C470.164 165.271 470.957 162.501 472.031 159.902C477.167 147.466 489.4 138.719 503.688 138.719C517.975 138.719 530.193 147.466 535.329 159.902C536.403 162.516 537.197 165.271 537.601 168.15H584.059V73.9433C584.059 70.4881 586.86 67.6866 590.316 67.6866H628.509C631.124 67.6866 633.583 68.7761 635.295 70.6593C635.84 71.2352 636.306 71.9044 636.68 72.6203C639.622 78.4412 642.656 90.1451 642.656 127.482V187.138H646.672V174.034H657.458V141.739H647.855H647.87ZM363.396 12.0463H412.049C412.049 12.0463 416.469 12.0308 426.554 12.0308C427.659 12.0308 433.885 12.093 435.628 12.2175C441.168 12.6222 449.588 13.7116 458.506 15.6882V65.1653H363.396V12.0463ZM263.555 12.093L358.65 12.0463V65.1653H263.555V12.093ZM-39.1439 50.9245L-32.6538 17.1668C-32.1091 14.2875 -29.5878 12.202 -26.6618 12.202L59.1255 12.1708V65.1498H21.4302C11.7495 65.1498 2.11556 64.1381 -7.34718 62.1304L-35.7043 56.1228C-38.07 55.6248 -39.6108 53.3058 -39.1439 50.9245ZM158.967 65.1498H63.8724V12.1708L158.967 12.1241V65.1498ZM163.714 65.1498V12.1241L258.808 12.0774V65.1498H163.714ZM513.555 74.5658C507.657 70.0212 500.171 65.1498 488.591 65.1498H463.253V16.7933C475.751 19.9683 488.435 24.902 495.05 32.1858C508.808 47.3137 517.026 61.539 522.084 70.0212C525.353 75.4841 529.928 83.7484 533.508 89.9739C525.104 84.0908 517.555 77.6474 513.555 74.5658ZM634.065 62.4884L586.394 62.8308C582.985 62.8308 582.129 63.2354 580.277 65.8346C580.168 66.0058 580.044 66.1925 579.935 66.3793L579.608 66.9863C579.499 67.2042 579.39 67.4221 579.297 67.6555C579.172 67.9512 579.063 68.2625 578.97 68.5738C578.783 69.1808 578.658 69.8033 578.581 70.4414C578.549 70.7838 578.534 71.1262 578.534 71.4686V128.759C572.931 125.646 570.503 123.56 565.772 119.514C561.102 115.638 558.612 112.821 558.612 112.821C554.005 108.121 549.772 103.016 545.741 97.6001C545.71 97.5534 545.679 97.5067 545.648 97.4601C545.617 97.4289 545.601 97.3978 545.585 97.3822C544.34 95.7169 543.126 94.0049 541.928 92.2929C541.508 91.6859 541.103 91.0634 540.683 90.4719C540.014 89.5226 539.344 88.5887 538.737 87.6082C538.193 86.7522 537.617 85.9429 537.088 85.0869C535.889 83.2504 534.691 81.3827 533.508 79.4995C533.306 79.1727 533.103 78.8458 532.901 78.519C531.889 76.9004 530.893 75.2662 529.882 73.632C529.508 73.0094 529.135 72.4025 528.761 71.7799C527.781 70.1457 526.784 68.5115 525.804 66.8462C525.633 66.5816 525.477 66.317 525.322 66.0525C524.248 64.2471 523.174 62.4417 522.084 60.6363C521.135 59.0332 520.17 57.4301 519.205 55.8271C518.676 54.94 518.162 54.0684 517.633 53.1813C517.088 52.2941 516.528 51.3914 515.983 50.4887C515.127 49.0724 514.271 47.6561 513.4 46.2398C510.271 41.1661 506.847 36.8393 503.283 33.1352C494.583 24.1549 484.98 18.9566 476.28 15.9839C473.401 14.9879 470.615 14.2564 467.985 13.6961C467.144 13.5249 467.284 12.2953 468.14 12.2953L532.823 12.1397L575.359 12.2642H581.211L595.109 12.3265H601.35C604.23 12.3265 622.237 9.97634 633.645 60.6518C633.878 61.679 633.816 61.4145 634.065 62.5039V62.4884Z" fill="white" stroke="#4E516B" stroke-width="2.32116" stroke-miterlimit="10"/>
<path d="M584.074 168.15V159.901H535.344C536.418 162.516 537.211 165.27 537.616 168.15H584.074Z" fill="#EFEFEF"/>
<path d="M469.774 168.15C470.179 165.27 470.972 162.5 472.046 159.901H182.156C183.23 162.516 184.024 165.27 184.429 168.15H469.774Z" fill="#EFEFEF"/>
<path d="M-56.8087 168.15C-56.8087 168.15 -56.8087 168.212 -56.8087 168.243H116.571C116.54 168.399 116.509 168.57 116.493 168.726C116.307 170.142 116.213 171.605 116.213 173.083C116.213 178.546 117.489 183.698 119.777 188.289H119.84C117.521 183.682 116.229 178.484 116.229 172.99C116.229 171.511 116.322 170.048 116.509 168.632C116.525 168.476 116.556 168.305 116.587 168.15C116.991 165.27 117.785 162.5 118.859 159.901H-56.8398V167.122C-56.8398 167.465 -56.8243 167.807 -56.8087 168.15Z" fill="#EFEFEF"/>
<path d="M602.389 14.6147H601.346L595.089 14.6302L583.541 14.5991V58.2865H630.699C624.022 30.4897 613.766 14.6147 602.389 14.6147Z" fill="#DDE2FE"/>
<path d="M625.879 35.4234C623.56 29.9917 621.194 25.8206 618.86 22.63C617.879 21.2916 616.914 20.1243 615.949 19.0971C615.187 18.2878 614.439 17.5718 613.708 16.9337C611.436 14.9727 609.319 13.8365 607.482 13.1829C604.463 12.0778 602.222 12.2957 601.35 12.2957H595.109L581.211 12.249V60.6211H633.645C631.279 50.1 628.618 41.8668 625.879 35.4234ZM583.545 14.5991L595.031 14.6303L583.545 26.1163V14.5991ZM583.545 37.1199L605.615 15.0505C607.825 15.6264 609.973 16.8248 612.043 18.6146L583.545 47.0962V37.1199ZM583.545 51.5007L614.284 20.7624C615.264 21.8207 616.214 23.0036 617.163 24.3265L583.545 57.9441V51.5007ZM624.058 37.2444C626.548 43.1897 628.774 50.2401 630.704 58.2865H603.016L624.058 37.2444Z" fill="#F8F6FE"/>
<path d="M593.35 79.5155V130.923C594.844 131.529 596.369 132.105 597.91 132.619C598.112 132.666 598.314 132.712 598.517 132.79C598.75 132.868 599.482 133.117 599.482 133.117C604.524 134.689 609.302 134.922 615.388 135.218C619.512 135.42 624.508 135.654 630.64 136.385V97.6006C630.64 84.5426 628.415 80.4338 627.714 79.4844L593.365 79.5155H593.35Z" fill="#DDE2FE"/>
<path d="M631.495 82.659C630.904 80.3555 630.203 78.9237 629.596 78.0988C629.16 77.5074 628.771 77.2272 628.476 77.1494H616.149L605.146 77.165H591.014V132.478C593.068 133.35 595.169 134.159 597.317 134.875C597.457 134.906 597.582 134.938 597.722 134.984C597.986 135.078 598.266 135.171 598.531 135.264L598.655 135.296L598.78 135.342C604.103 137.008 609.021 137.241 615.246 137.552C619.947 137.77 625.69 138.05 632.958 139.046V97.6002C632.958 90.5654 632.32 85.7873 631.495 82.659ZM593.348 79.5151H602.811L593.348 88.9623V79.5151ZM593.348 99.9658L613.815 79.4995H623.822L593.348 109.958V99.9658ZM593.348 120.806V114.347L627.915 79.7797C628.32 80.4645 628.989 81.8808 629.549 84.6044L593.348 120.806ZM630.623 136.385C624.507 135.653 619.495 135.42 615.386 135.218C609.721 134.938 605.208 134.72 600.539 133.412L630.623 103.328V136.385Z" fill="#F8F6FE"/>
<path d="M504.96 31.5012C508.835 35.5322 512.337 40.0768 515.387 44.995C516.243 46.3801 517.068 47.7653 517.986 49.2594C518.407 49.9598 519.652 51.9675 519.652 51.9675C519.652 51.9675 522.718 57.1035 523.418 58.2864H573.035V14.5679L532.834 14.4434L479.311 14.5834C489.038 18.272 497.66 23.9528 504.975 31.5012H504.96Z" fill="#DDE2FE"/>
<path d="M551.962 12.1707L532.819 12.1084H525.753L521.333 12.1395L511.325 12.1707L500.29 12.2018L468.603 12.2796C467.684 12.2796 467.56 13.587 468.447 13.7737C470.937 14.3184 473.567 15.0344 476.276 15.9682C480.711 17.4779 485.365 19.579 490.034 22.4427C492.197 23.7812 494.376 25.2909 496.508 26.9873C498.298 28.4036 500.073 29.9444 501.816 31.6564C502.298 32.1234 502.796 32.6214 503.279 33.1194C503.512 33.3684 503.761 33.6175 503.995 33.8821C505.022 34.9715 506.018 36.1077 507.014 37.3061C509.24 39.983 511.372 42.9557 513.395 46.2241C513.971 47.1579 514.531 48.0917 515.107 49.0256C515.403 49.508 515.683 49.9905 515.979 50.473C516.523 51.3757 517.084 52.2784 517.628 53.1655C518.158 54.0526 518.671 54.9242 519.2 55.8113C520.165 57.4144 521.13 59.0175 522.08 60.6205H575.354V12.2329L551.962 12.1707ZM491.73 20.7618C487.824 18.3028 483.684 16.2328 479.311 14.583L497.956 14.5363L491.73 20.7618ZM503.465 30.0067C501.769 28.3414 500.01 26.785 498.174 25.322L508.991 14.5052L518.998 14.4741L503.465 30.0067ZM505.644 32.2323L523.403 14.4741L529.877 14.443L508.664 35.6563C507.699 34.4735 506.687 33.3373 505.644 32.2323ZM573.02 58.286H523.418C522.702 57.1031 519.636 51.9671 519.636 51.9671C519.636 51.9671 518.407 49.9749 517.986 49.2746C517.582 48.6053 517.193 47.9517 516.804 47.3291L549.643 14.4897L573.02 14.5675V58.286Z" fill="#F8F6FE"/>
<path d="M519.314 69.9272C514.116 61.1804 506.256 47.9668 493.322 33.7571C488.311 28.2631 478.755 23.4539 465.572 19.812V62.8146H488.591C500.482 62.8146 508.31 67.5771 514.987 72.7131C516.139 73.6003 517.586 74.7675 519.267 76.1216C521.213 77.6935 523.5 79.5456 526.022 81.4911C523.905 77.7713 521.82 74.0827 520.092 71.219L519.329 69.9272H519.314Z" fill="#DDE2FE"/>
<path d="M522.079 70.0218C518.079 63.2983 512.087 52.9796 502.92 41.4468C500.523 38.4275 497.908 35.3303 495.045 32.1864C494.624 31.7195 494.189 31.2682 493.722 30.8324C492.648 29.8207 491.465 28.8558 490.173 27.9375C489.333 27.3305 488.446 26.7547 487.512 26.1944C485.489 24.9493 483.279 23.8131 480.944 22.7704C478.438 21.6342 475.777 20.607 473.053 19.6732C469.847 18.5837 466.532 17.6188 463.232 16.7783V65.1504H488.586C500.165 65.1504 507.651 70.0218 513.55 74.5664C517.55 77.6481 525.098 84.0914 533.503 89.9745C529.923 83.749 525.347 75.4847 522.079 70.0218ZM465.567 19.8132C467.528 20.358 469.411 20.9338 471.201 21.5253L465.567 27.1593V19.8132ZM465.567 38.1473L479.17 24.5446C481.613 25.603 483.839 26.7235 485.815 27.8908L465.567 48.1392V38.1473ZM465.567 52.5438L488.492 29.6184C489.831 30.5522 491.014 31.5016 492.056 32.4977L465.567 58.9871V52.5438ZM514.982 72.7144C508.305 67.5783 500.492 62.8158 488.586 62.8158H481.535L501.255 43.1122C509.643 53.6644 515.278 63.1427 519.309 69.9284L520.071 71.2202C521.799 74.0995 523.9 77.7726 526.001 81.5079C523.495 79.5468 521.207 77.6948 519.262 76.1228C517.581 74.7688 516.134 73.6171 514.982 72.7144Z" fill="#F8F6FE"/>
<path d="M426.554 14.35H365.73V62.8155H456.171V17.5562C449.168 16.0932 441.557 14.9726 435.456 14.5212C433.868 14.4123 427.861 14.3345 426.554 14.3345V14.35Z" fill="#DDE2FE"/>
<path d="M435.626 12.2019C434.365 12.1085 430.723 12.0463 428.404 12.0307C427.533 12.0151 426.848 12.0151 426.552 12.0151H376.764L363.395 12.0307V65.1497H458.504V15.6726C449.586 13.696 441.166 12.6066 435.626 12.2019ZM365.729 14.3653H374.429L365.729 23.0654V14.3653ZM365.729 34.0689L385.433 14.3653H395.409L365.729 44.0453V34.0689ZM365.729 48.4498L399.829 14.3497H406.273L365.729 54.8932V48.4498ZM456.17 62.8151H377.62L426.085 14.3497H426.552C427.875 14.3497 433.883 14.4275 435.47 14.5365C441.556 14.9722 449.182 16.0928 456.17 17.5558V62.8151Z" fill="#F8F6FE"/>
<path d="M263.557 12.0779L358.667 12.0312V65.1502H263.557V12.0779Z" fill="#DDE2FE"/>
<path d="M328.862 12.1395H309.034H288.21H277.19L263.557 12.1551V65.134H358.667V12.1084H328.862V12.1395ZM265.891 14.5052H274.856L265.891 23.4699V14.5052ZM265.891 34.4735L285.875 14.4897H295.867L265.891 44.4498V34.4735ZM265.891 48.8699L300.256 14.4897H306.699L265.891 55.2977V48.8699ZM356.332 62.815H278.187L326.527 14.4741H356.332V62.815Z" fill="#F8F6FE"/>
<path d="M163.711 12.1234L258.821 12.0767V65.149H163.711V12.1234Z" fill="#DDE2FE"/>
<path d="M229.016 12.1395H209.188H188.364H177.345L163.711 12.1551V65.134H258.821V12.1084H229.016V12.1395ZM166.045 14.5052H175.01L166.045 23.4699V14.5052ZM166.045 34.4735L186.029 14.4897H196.021L166.045 44.4498V34.4735ZM166.045 48.8699L200.41 14.4897H206.854L166.045 55.2977V48.8699ZM256.486 62.815H178.341L226.682 14.4741H256.486V62.815Z" fill="#F8F6FE"/>
<path d="M66.207 62.8151H156.648V14.4741L66.207 14.5052V62.8151Z" fill="#DDE2FE"/>
<path d="M129.175 12.1395H109.346H88.5221H77.503L63.8691 12.1551V65.134H158.979V12.1084H129.175V12.1395ZM66.2037 14.5052H75.1684L66.2037 23.4699V14.5052ZM66.2037 34.4735L86.1875 14.4897H96.1794L66.2037 44.4498V34.4735ZM66.2037 48.8699L100.568 14.4897H107.012L66.2037 55.2977V48.8699ZM156.645 62.815H78.499L126.84 14.4741H156.645V62.815Z" fill="#F8F6FE"/>
<path d="M-30.368 17.6192L-36.8581 51.3924C-37.076 52.513 -36.3445 53.6181 -35.2239 53.8515L-6.86679 59.8591C2.40919 61.8357 11.9342 62.8318 21.4281 62.8318H56.7889V14.522L-26.6638 14.5531C-28.4692 14.5531 -30.0256 15.8449 -30.368 17.6192Z" fill="#DDE2FE"/>
<path d="M32.1222 12.1865H-8.53024L-26.662 12.202C-29.588 12.202 -32.1093 14.2876 -32.654 17.1669L-34.5995 27.2833L-37.2142 40.886L-39.1441 50.9246C-39.2686 51.5627 -39.253 52.1852 -39.113 52.7767C-38.8639 53.835 -38.2414 54.7688 -37.3543 55.4069C-36.8718 55.7493 -36.3115 55.9984 -35.7045 56.1229L-32.3272 56.8388L-15.9853 60.2939L-7.3474 62.1305C2.11535 64.1382 11.7493 65.1498 21.4299 65.1498H59.1253V12.1709H32.1222V12.1865ZM-30.3506 17.6182C-30.0237 15.8284 -28.4674 14.5366 -26.662 14.5366H-21.8528L-31.6424 24.3262L-30.3506 17.6182ZM-36.6539 50.3176L-34.2726 37.9444L-10.8648 14.5366H-0.857319L-36.6539 50.3176ZM-30.3661 54.8778L-35.222 53.8506C-35.3777 53.8194 -35.5177 53.7727 -35.6578 53.7105L3.53165 14.521H9.9906L-30.3661 54.8778ZM56.7907 62.8153H21.4299C11.9516 62.8153 2.42662 61.8192 -6.86492 59.8582L-14.0242 58.3329L29.7877 14.521H56.7907V62.8153Z" fill="#F8F6FE"/>
<path d="M181.221 188.259C183.493 183.683 184.769 178.531 184.769 173.084C184.769 171.605 184.676 170.142 184.489 168.726C184.474 168.57 184.442 168.399 184.411 168.244H469.757C469.726 168.399 469.694 168.57 469.679 168.726C469.492 170.142 469.399 171.605 469.399 173.084C469.399 178.282 470.55 183.2 472.62 187.605L181.221 188.259Z" fill="#4E516B" stroke="#4E516B" stroke-width="2.32116" stroke-miterlimit="10"/>
<path d="M633.645 60.6211H581.211V12.249H575.359V60.6211H522.084C523.173 62.4265 524.247 64.2319 525.321 66.0373C525.477 66.3018 525.633 66.5664 525.804 66.831C526.784 68.4963 527.78 70.1305 528.761 71.7647C529.134 72.3873 529.508 72.9942 529.881 73.6168C530.893 75.251 531.889 76.8852 532.901 78.5038C533.103 78.8306 533.305 79.1575 533.508 79.4843C534.691 81.3675 535.889 83.2352 537.087 85.0717C537.383 85.5542 537.694 86.0211 538.006 86.488C538.94 87.9043 539.889 89.305 540.854 90.7058C541.212 91.2194 541.57 91.7485 541.928 92.2777C543.126 93.9897 544.34 95.7017 545.585 97.3671C545.601 97.3826 545.616 97.4137 545.647 97.4449C545.679 97.4915 545.71 97.5382 545.741 97.5849C549.772 103.001 554.005 108.106 558.612 112.806C558.612 112.806 561.102 115.623 565.771 119.499C570.503 123.545 574.114 127.172 579.716 130.284L581.211 73.8191C581.211 73.4456 581.211 73.0721 581.273 72.6985C581.351 72.0604 581.475 71.4379 581.662 70.8309C581.755 70.5196 581.864 70.2083 581.989 69.9126C582.082 69.6792 582.191 69.4613 582.3 69.2434L582.627 68.6364C582.736 68.4496 582.86 68.2629 582.969 68.0917C584.821 65.4925 587.825 63.7961 591.234 63.7961L634.065 62.4732C633.832 61.4148 633.878 61.6172 633.645 60.6211Z" fill="#4E516B"/>
<path d="M637.255 73.0245C636.881 72.3086 636.415 71.6394 635.87 71.0635C634.158 69.1803 631.699 68.0908 629.084 68.0908H590.891C587.436 68.0908 584.634 70.8923 584.634 74.3474V132.198H584.618V168.648H538.161C538.192 168.804 538.223 168.975 538.239 169.131C538.425 170.547 538.519 172.01 538.519 173.488C538.519 178.624 537.383 183.511 535.344 187.885L584.618 187.776L595.918 187.745L642.671 187.138L643.216 156.711H643.231V127.887C643.231 90.5493 640.197 78.8454 637.255 73.0245ZM640.897 154.376V156.711V168.586L586.969 168.71V132.198V74.3474C586.969 72.1841 588.727 70.4254 590.891 70.4254H629.084C631.03 70.4254 632.866 71.2347 634.142 72.6354C634.562 73.0868 634.905 73.5693 635.185 74.114C637.831 79.359 640.897 90.238 640.897 127.902V154.392V154.376Z" fill="#4E516B" stroke="#4E516B" stroke-width="2.32116" stroke-miterlimit="10"/>
<path d="M13.5861 188.414L-43.6262 181.909C-50.7855 181.099 -56.2639 175.31 -56.7931 168.244H-56.8242C-56.3262 175.356 -50.8322 181.193 -43.6417 182.002L13.5705 188.508C14.1464 188.585 14.7222 188.617 15.2981 188.617L119.84 188.383C119.84 188.383 119.809 188.321 119.793 188.29L15.3137 188.523C14.7378 188.523 14.1619 188.492 13.5861 188.414Z" stroke="#DA946C" stroke-width="0.290145" stroke-miterlimit="10"/>
<path d="M116.507 168.726C116.523 168.57 116.554 168.399 116.585 168.244H-56.7949C-56.2502 175.31 -50.7873 181.099 -43.628 181.909L13.5843 188.414C14.1601 188.492 14.736 188.523 15.3118 188.523L119.791 188.29C117.503 183.698 116.227 178.547 116.227 173.084C116.227 171.605 116.32 170.142 116.507 168.726Z" fill="#4E516B" stroke="#4E516B" stroke-width="2.32116" stroke-miterlimit="10"/>
<path d="M646.686 187.138H652.693C655.323 187.122 657.471 184.974 657.471 182.344V174.033H646.686V187.138Z" fill="#4E516B" stroke="#4E516B" stroke-width="2.32116" stroke-linejoin="round"/>
<path d="M631.759 43.0649C634.778 49.2281 637.362 54.4575 639.541 58.9243L636.63 46.271L628.646 11.5483C624.88 15.1747 622.203 23.6102 631.759 43.0649Z" fill="#4E516B" stroke="#4E516B" stroke-width="2.32116" stroke-linejoin="round"/>
<path d="M657.086 135.124L644.184 79.0479L647.872 141.739H657.475V138.455C657.475 137.334 657.351 136.213 657.086 135.124Z" fill="#4E516B" stroke="#4E516B" stroke-width="2.32116" stroke-linejoin="round"/>
<path d="M640.338 153.971V127.482C640.338 89.8331 637.272 78.9541 634.627 73.6935C634.346 73.1488 634.004 72.6663 633.584 72.2306C632.308 70.8298 630.471 70.0205 628.526 70.0205H590.332C588.169 70.0205 586.41 71.7792 586.41 73.9426V134.127L586.395 159.901H640.323V153.971H640.338ZM635.296 141.738C616.822 138.906 608.417 140.804 598.083 137.567C597.709 137.443 597.32 137.318 596.931 137.178V137.209C594.067 136.26 591.328 135.186 588.682 133.987V77.1798C588.682 75.8725 589.756 74.8141 591.064 74.8141H628.681C630.284 75.0165 635.296 77.2732 635.296 97.5994V141.738Z" fill="white"/>
<path d="M24.6532 104.417H-4.38867V106.161H24.6532V104.417Z" fill="#4E516B"/>
<path d="M24.6532 109.195H-4.38867V110.938H24.6532V109.195Z" fill="#4E516B"/>
<path d="M19.6994 121.755H-28.875V127.981H19.6994V121.755Z" fill="#4E516B"/>
<path d="M19.6994 130.875H-28.875V133.988H19.6994V130.875Z" fill="#4E516B"/>
<path d="M19.6994 146.035H-28.875V149.148H19.6994V146.035Z" fill="#4E516B"/>
<path d="M19.6994 161.178H-28.875V164.29H19.6994V161.178Z" fill="#4E516B"/>
<path d="M19.6994 136.899H-28.875V143.124H19.6994V136.899Z" fill="#4E516B"/>
<path d="M19.6994 152.042H-28.875V158.267H19.6994V152.042Z" fill="#4E516B"/>
<path d="M19.6994 167.201H-28.875V173.426H19.6994V167.201Z" fill="#4E516B"/>
<path d="M635.293 97.5998V141.738C616.819 138.906 608.415 140.805 598.08 137.567C597.707 137.443 597.318 137.318 596.928 137.178V137.209C594.065 136.26 591.326 135.186 588.68 133.988V77.1801C588.68 75.8728 589.754 74.8145 591.061 74.8145H628.678C630.282 75.0168 635.293 77.2735 635.293 97.5998Z" stroke="#DA946C" stroke-width="0.290145" stroke-miterlimit="10"/>
<path d="M628.678 74.8145H591.061C589.754 74.8145 588.68 75.8728 588.68 77.1801V133.988C591.326 135.186 594.065 136.26 596.928 137.209V137.178C597.318 137.318 597.707 137.443 598.08 137.567C608.415 140.805 616.819 138.906 635.293 141.738V97.5998C635.293 77.2735 630.282 75.0168 628.678 74.8145ZM632.959 139.046C625.69 138.05 619.947 137.785 615.247 137.552C609.021 137.256 604.103 137.007 598.781 135.342L598.532 135.264C598.267 135.171 597.987 135.093 597.722 134.984C597.582 134.937 597.458 134.906 597.318 134.875C595.185 134.159 593.069 133.35 591.03 132.463V77.1801L628.492 77.149C629.752 77.4914 632.974 81.7715 632.974 97.5998V139.046H632.959Z" fill="#4E516B"/>
<path d="M298.913 119.311C295.598 115.996 291.38 112.79 289.699 111.623C292.392 109.833 296.578 106.891 306.399 107.265C316.22 107.638 317.947 109.895 323.208 109.288C328.468 108.681 332.92 104.93 334.352 106.346C329.76 114.113 316.002 130.501 297.699 133.988C299.489 130.47 302.228 122.626 298.913 119.311Z" fill="#0B24BB"/>
<path d="M363.47 133.288C360.154 129.973 355.937 126.782 354.256 125.599C356.948 123.809 361.135 120.868 370.956 121.241C380.776 121.615 382.504 123.872 387.765 123.265C393.025 122.658 397.476 118.907 398.908 120.323C394.317 128.089 380.559 144.478 362.256 147.964C364.045 144.447 366.785 136.603 363.47 133.288Z" fill="#B2B2B2"/>
<path d="M171.665 115.996C168.35 112.681 164.132 109.474 162.451 108.307C165.144 106.517 169.33 103.576 179.151 103.949C188.972 104.323 190.699 106.58 195.96 105.973C201.22 105.366 205.672 101.615 207.104 103.031C202.512 110.797 188.754 127.186 170.451 130.672C172.241 127.155 174.98 119.311 171.665 115.996Z" fill="#B2B2B2"/>
<path d="M90.7313 104.589C87.4162 101.274 83.1985 98.0677 81.5176 96.9004C84.2101 95.1105 88.3967 92.169 98.2174 92.5425C108.038 92.9161 109.766 95.1728 115.026 94.5658C120.287 93.9588 124.738 90.208 126.17 91.6243C121.579 99.3906 107.82 115.779 89.5173 119.265C91.3072 115.748 94.0464 107.904 90.7313 104.589Z" fill="#B2B2B2"/>
<path d="M15.3602 87.7637C12.0451 84.4486 7.82737 81.258 6.14648 80.0752C8.83901 78.2854 13.0257 75.3438 22.8464 75.7173C32.6671 76.0909 34.3946 78.3476 39.6552 77.7406C44.9157 77.1336 49.367 73.3828 50.7988 74.7991C46.2075 82.5654 32.4492 98.954 14.1462 102.44C15.9361 98.9228 18.6753 91.0787 15.3602 87.7637Z" fill="#F3D143"/>
<path d="M234.03 81.3828C230.715 78.0677 226.497 74.8616 224.816 73.6943C227.509 71.9045 231.696 68.9629 241.516 69.3365C251.337 69.71 253.065 71.9667 258.325 71.3598C263.586 70.7528 268.037 67.0019 269.469 68.4182C264.877 76.1845 251.119 92.5731 232.816 96.0594C234.606 92.542 237.345 84.6979 234.03 81.3828Z" fill="#B2B2B2"/>
<path d="M357.651 87.7637C354.336 84.4486 350.118 81.258 348.438 80.0752C351.13 78.2854 355.317 75.3438 365.137 75.7173C374.958 76.0909 376.686 78.3476 381.946 77.7406C387.207 77.1336 391.658 73.3828 393.09 74.7991C388.499 82.5654 374.74 98.954 356.437 102.44C358.227 98.9228 360.966 91.0787 357.651 87.7637Z" fill="#1A811E"/>
<path d="M416.391 104.589C413.076 101.274 408.859 98.0832 407.178 96.9004C409.87 95.1105 414.057 92.169 423.878 92.5425C433.698 92.9161 435.426 95.1728 440.686 94.5658C445.947 93.9588 450.398 90.208 451.83 91.6243C447.239 99.3906 433.48 115.779 415.177 119.265C416.967 115.748 419.707 107.904 416.391 104.589Z" fill="#F8172A"/>
<path d="M486.195 68.0908H407.178V88.4482H486.195V68.0908Z" fill="#F3D143"/>
<path d="M411.328 78.1301C411.469 77.9122 411.624 77.8811 411.811 78.0056C412.122 78.1924 412.449 78.3947 412.76 78.6126C413.04 78.8772 413.134 79.0951 413.025 79.2818C412.869 79.4997 412.791 79.7176 412.791 79.9355V82.2234C412.791 82.4724 412.869 82.7059 413.04 82.9238C413.663 83.4218 414.395 83.7331 415.266 83.842C415.951 83.951 416.729 84.0132 417.601 84.0288H419.935C421.243 83.9821 422.441 83.8576 423.546 83.6397C423.764 83.593 423.904 83.5774 423.997 83.593C424.091 83.6708 423.997 83.8265 423.733 84.0599C423.219 84.5113 422.97 85.1027 423.017 85.8031C422.939 85.8497 422.752 85.8653 422.488 85.8809H421.896L420.122 85.8964C417.585 85.8964 415.78 85.6474 414.675 85.1649C413.756 84.7603 412.978 84.0288 412.34 82.9549C412.122 82.6747 411.889 82.6903 411.655 83.0171C411.188 83.7642 410.753 84.4957 410.364 85.2428C410.208 85.6319 410.006 85.6785 409.757 85.3984C409.57 85.1182 409.414 84.8381 409.259 84.558C409.103 84.2 409.212 83.9043 409.57 83.6708C409.959 83.4374 410.332 83.1105 410.737 82.6747C410.924 82.4568 411.002 82.2234 411.002 81.9744V79.4064C411.002 79.1418 410.877 79.0017 410.613 79.0017C410.364 79.0017 410.099 79.0173 409.834 79.0795C409.492 79.1262 409.305 79.0328 409.243 78.8305C409.181 78.6126 409.321 78.5037 409.679 78.5192L410.488 78.597C410.737 78.597 411.017 78.4414 411.297 78.1146L411.328 78.1301ZM409.492 73.9124C409.492 73.9124 409.71 73.8657 410.037 73.8968C410.924 74.0213 411.655 74.4104 412.216 75.0952C412.402 75.4065 412.434 75.7956 412.293 76.2625C412.122 76.7294 411.811 76.9473 411.344 76.9162C410.83 76.7761 410.566 76.4959 410.535 76.0757C410.441 75.422 410.239 74.8929 409.928 74.4882C409.648 74.1769 409.492 73.9902 409.492 73.9279V73.9124ZM409.943 70.7374C409.99 70.5973 410.223 70.5662 410.613 70.644C411.142 70.7062 411.562 70.8308 411.889 71.0331C412.776 71.5778 413.009 72.2782 412.589 73.1342C412.309 73.4143 411.998 73.5388 411.64 73.4921C411.266 73.3676 411.048 73.1186 410.971 72.714C410.893 72.0758 410.659 71.5467 410.27 71.1265C410.068 70.9397 409.959 70.8152 409.959 70.7529L409.943 70.7374ZM415.157 70.8619C415.282 70.4728 415.391 70.4572 415.531 70.8307C415.593 71.142 415.795 71.3132 416.153 71.3443H421.025C421.274 71.3443 421.46 71.3132 421.554 71.2665C421.99 70.7529 422.363 70.6284 422.69 70.9241C423.468 71.3443 423.951 71.7023 424.106 71.998C424.075 72.1225 423.982 72.2004 423.826 72.2004C423.733 72.2004 423.608 72.247 423.437 72.3404C423.157 72.4805 422.877 72.6361 422.597 72.8229C422.363 72.9785 422.379 73.1653 422.643 73.3988L422.83 73.6011C423.079 73.9435 423.188 74.1303 423.11 74.1925C423.032 74.2392 422.83 74.2548 422.503 74.2548H419.717C419.453 74.2548 419.328 74.3793 419.328 74.6439V75.2353C419.328 75.4999 419.453 75.6399 419.717 75.6399H420.371C420.636 75.6399 420.822 75.5621 420.947 75.422C421.087 75.2664 421.18 75.173 421.243 75.1419C421.305 75.1108 421.538 75.173 421.927 75.3287C422.534 75.6244 422.892 75.9045 422.955 76.1691C422.892 76.2936 422.752 76.4026 422.519 76.5271C422.503 76.5738 422.488 76.7294 422.488 76.994V79.5776C422.628 80.1845 422.363 80.5114 421.663 80.5581C421.149 80.6203 420.9 80.4024 420.931 79.92C420.931 79.7643 420.807 79.7021 420.542 79.7021H419.717C419.453 79.7021 419.328 79.8266 419.328 80.0912V80.6826C419.328 80.9472 419.453 81.0872 419.717 81.0872H421.336C421.616 81.1651 421.85 81.0872 422.005 80.8382C422.285 80.4491 422.534 80.1845 422.768 80.0289C423.11 80.2157 423.453 80.4803 423.779 80.8382C423.997 81.1495 424.106 81.3518 424.106 81.4141C424.06 81.4763 423.857 81.5075 423.53 81.5075H419.733C419.468 81.5075 419.344 81.632 419.344 81.8966V82.7214C419.406 83.5307 419.033 83.8576 418.208 83.6864C418.021 83.6553 417.881 83.5307 417.741 83.3284C417.71 82.8459 417.694 82.379 417.71 81.8966C417.71 81.632 417.585 81.4919 417.321 81.4919H414.659L414.145 81.5853C413.803 81.632 413.601 81.5542 413.523 81.3518C413.461 81.0872 413.616 80.9627 414.005 80.9939C414.192 80.9939 414.41 81.025 414.628 81.0717H417.305C417.57 81.0717 417.694 80.9472 417.694 80.6826V80.0912C417.694 79.8266 417.57 79.6865 417.305 79.6865H416.698C416.449 79.6865 416.309 79.7643 416.309 79.92C416.169 80.4024 415.795 80.6048 415.188 80.5425C414.97 80.4958 414.846 80.4336 414.784 80.3713C414.752 80.2935 414.737 80.1067 414.737 79.7799V75.6088C414.737 75.2508 414.908 75.1108 415.235 75.2041C415.484 75.2664 415.749 75.3754 415.998 75.4999C416.153 75.5777 416.371 75.6244 416.62 75.6244H417.289C417.554 75.6244 417.678 75.4999 417.678 75.2353V74.6439C417.678 74.3793 417.554 74.2392 417.289 74.2392H415.531L415.033 74.317C414.69 74.3637 414.503 74.3637 414.457 74.2859C414.379 74.2236 414.223 74.1458 414.005 74.068C413.554 73.6945 413.507 73.2431 413.865 72.714C414.566 72.2315 414.986 71.6089 415.142 70.8463L415.157 70.8619ZM416.309 71.7646L416.075 71.7957C415.826 71.8113 415.717 71.998 415.717 72.3404C415.717 72.6517 415.64 73.0097 415.5 73.4143C415.344 73.6789 415.437 73.819 415.749 73.8501H417.289C417.554 73.8501 417.678 73.7256 417.678 73.461V72.5116C417.678 72.1537 417.865 71.9825 418.239 71.998C418.659 72.0447 419.079 72.1225 419.515 72.2004C419.904 72.3404 419.92 72.5428 419.562 72.8229C419.39 72.9007 419.313 73.103 419.313 73.3988C419.313 73.6945 419.437 73.8501 419.702 73.8501C420.153 73.9279 420.48 73.8501 420.682 73.6322C420.947 73.2587 421.211 72.9318 421.492 72.6517C421.538 72.6361 421.585 72.4805 421.647 72.2004C421.678 71.9202 421.569 71.7801 421.32 71.7801H416.309V71.7646ZM416.822 76.029C416.48 76.0757 416.309 76.2158 416.309 76.4492V77.0562C416.309 77.3208 416.433 77.4609 416.698 77.4609H417.305C417.57 77.4609 417.694 77.3364 417.694 77.0718V76.4337C417.694 76.1691 417.57 76.029 417.305 76.029H416.807H416.822ZM417.694 78.2702C417.694 78.0056 417.57 77.8656 417.305 77.8656H416.698C416.433 77.8656 416.309 77.9901 416.309 78.2546V78.8461C416.309 79.1106 416.433 79.2507 416.698 79.2507H417.305C417.57 79.2507 417.694 79.1262 417.694 78.8616V78.2702ZM420.916 76.4181C420.916 76.138 420.745 75.9979 420.402 76.0135H419.702C419.437 76.0135 419.313 76.138 419.313 76.4026V77.0407C419.313 77.3053 419.437 77.4453 419.702 77.4453H420.527C420.791 77.4453 420.931 77.3208 420.931 77.0562V76.4181H420.916ZM420.916 78.2702C420.916 78.0056 420.791 77.8656 420.527 77.8656H419.702C419.437 77.8656 419.313 77.9901 419.313 78.2546V78.8461C419.313 79.1106 419.437 79.2507 419.702 79.2507H420.527C420.791 79.2507 420.931 79.1262 420.931 78.8616V78.2702H420.916Z" fill="black"/>
<path d="M435.738 70.9869C435.738 70.6756 435.893 70.52 436.22 70.52C436.858 70.5667 437.403 70.6757 437.87 70.8313C438.072 71.0181 438.025 71.1737 437.714 71.3293C437.59 71.376 437.527 71.5472 437.527 71.8118V72.2787C437.527 72.5433 437.652 72.6834 437.917 72.6834H440.951C441.247 72.7456 441.481 72.6678 441.652 72.4499C442.01 71.9986 442.399 71.9363 442.804 72.2943C443.519 72.6834 443.971 73.0413 444.189 73.3371C444.235 73.4927 444.158 73.5861 443.924 73.6172C443.66 73.6172 443.395 73.7261 443.13 73.9907C442.43 74.5043 441.792 74.909 441.216 75.2047C441.029 75.2981 440.92 75.267 440.92 75.1269C440.92 75.0179 441.014 74.8312 441.154 74.5666C441.309 74.2242 441.45 73.8662 441.574 73.5083C441.636 73.2592 441.543 73.1192 441.294 73.1192H431.8C431.489 73.1503 431.286 73.3215 431.224 73.6483C431.115 74.2086 430.975 74.6288 430.788 74.909C430.306 75.4537 429.792 75.5471 429.248 75.158C428.905 74.8623 428.89 74.4421 429.201 73.8818C429.388 73.6328 429.59 73.4771 429.808 73.3993C430.415 72.9013 430.804 72.2943 430.975 71.6095C431.022 71.5939 431.069 71.6095 431.115 71.6406C431.193 71.8585 431.24 72.0608 431.255 72.2787C431.286 72.5277 431.473 72.6678 431.8 72.6989H435.38C435.644 72.6989 435.784 72.5744 435.784 72.3099V71.0025L435.738 70.9869ZM433.777 73.8662C433.901 73.5083 434.103 73.3526 434.399 73.3993C434.757 73.4616 435.131 73.5705 435.535 73.7106C435.784 73.7728 435.94 73.8973 435.987 74.0997C435.924 74.2553 435.831 74.3176 435.738 74.2864C435.629 74.302 435.489 74.4265 435.317 74.66C435.177 74.909 435.24 75.0179 435.489 75.0179H437.574C437.932 75.1113 438.259 74.9401 438.539 74.4732C438.679 74.3176 438.819 74.2709 438.928 74.302C439.535 74.66 440.018 75.1113 440.376 75.656C440.376 75.9051 440.251 76.0296 439.955 76.0296C439.738 76.0296 439.566 76.1852 439.426 76.4809C439.084 77.0724 438.695 77.6015 438.259 78.0684C437.979 78.3797 437.994 78.6132 438.306 78.7688C440.033 79.4069 441.901 79.7337 443.893 79.7337C443.955 79.7804 443.986 79.8271 443.986 79.8738C443.955 79.9205 443.784 80.045 443.457 80.2007C443.13 80.4497 442.913 80.6987 442.788 80.9477C442.663 81.2901 442.586 81.4924 442.555 81.5236C442.43 81.5703 442.197 81.5547 441.854 81.4769L441.636 81.4458C441.325 81.3991 441.216 81.4458 441.309 81.5858C441.465 81.7415 441.434 81.8971 441.216 82.0683C440.951 82.1617 440.858 82.364 440.936 82.6909V84.8386C441.092 85.4301 440.811 85.7725 440.111 85.8503C439.613 85.9904 439.317 85.8347 439.208 85.3834C439.208 85.1188 439.068 84.9787 438.819 84.9787H434.804C434.555 84.9787 434.415 85.041 434.399 85.1499C434.352 85.6791 433.994 85.9592 433.325 85.9748C432.749 86.0059 432.531 85.7258 432.64 85.1344V81.7103C432.64 81.4613 432.485 81.3368 432.158 81.3524C430.679 81.5703 429.652 81.6481 429.076 81.6014C429.03 81.5547 428.999 81.508 429.014 81.4613C430.602 81.1656 432.002 80.7298 433.247 80.1384C434.103 79.7026 434.726 79.3135 435.162 78.9556C435.504 78.6754 435.535 78.3797 435.271 78.084C434.788 77.4614 434.446 76.9634 434.259 76.5899C434.135 76.3253 433.917 76.3253 433.59 76.6054C432.765 77.2902 431.956 77.7727 431.177 78.084C430.757 78.2241 430.555 78.2552 430.57 78.1618C432.314 76.7299 433.403 75.2825 433.792 73.8195L433.777 73.8662ZM437.247 79.8271C436.905 79.5937 436.563 79.5781 436.267 79.7804C435.675 80.1695 435.006 80.5119 434.243 80.8076C433.979 80.9166 433.932 81.01 434.119 81.0878C434.321 81.2123 434.555 81.259 434.804 81.259H438.586C438.835 81.259 439.037 81.1967 439.177 81.0567C439.302 80.901 439.177 80.7609 438.85 80.6053C438.43 80.4185 437.994 80.2162 437.574 79.9828L437.263 79.8116L437.247 79.8271ZM439.193 82.115C439.193 81.8348 439.053 81.6792 438.773 81.6792H434.819C434.539 81.6792 434.399 81.8193 434.399 82.0839V84.1694C434.399 84.434 434.524 84.5741 434.788 84.5741H438.804C439.068 84.5741 439.208 84.4496 439.208 84.185V82.115H439.193ZM434.975 75.4537C434.819 75.5004 434.679 75.5782 434.555 75.6716C434.43 75.7961 434.508 76.014 434.742 76.3253C435.162 76.7922 435.566 77.1657 435.987 77.477C436.267 77.6949 436.547 77.6482 436.812 77.3681C437.31 76.7455 437.683 76.1385 437.948 75.5315C437.948 75.4848 437.808 75.4537 437.559 75.4537H434.975Z" fill="black"/>
<path d="M461.557 70.5199C461.682 70.302 461.838 70.2397 462.024 70.3642C462.491 70.66 462.911 71.0023 463.301 71.3914C463.612 71.7961 463.736 72.014 463.69 72.0607C463.612 72.1074 463.425 72.1385 463.098 72.1385H457.791C457.558 72.1385 457.573 72.2008 457.853 72.3097C458.242 72.4965 458.429 72.621 458.445 72.6988C458.398 72.9011 458.305 72.9945 458.149 72.9789C458.024 73.0256 457.931 73.0879 457.838 73.1657C457.589 73.4147 457.355 73.6326 457.106 73.8194C456.826 74.0373 456.795 74.1307 457.044 74.1307H459.005C459.254 74.1307 459.503 74.0373 459.721 73.8349C459.939 73.6171 460.25 73.6015 460.655 73.7571C461.262 74.0528 461.651 74.3174 461.838 74.5353C461.884 74.7221 461.744 74.9088 461.402 75.0645C461.371 75.1423 461.355 75.2979 461.355 75.5314V78.862C461.48 79.4535 461.199 79.7959 460.53 79.8892C459.97 80.0137 459.674 79.7959 459.674 79.2356C459.674 79.0488 459.55 78.9554 459.285 78.9554H458.554C458.289 78.9554 458.149 79.0799 458.149 79.3445V84.4183C457.931 85.3988 457.355 85.8813 456.421 85.8813C456.11 85.8813 455.877 85.7412 455.752 85.4144C455.503 84.9941 455.192 84.714 454.818 84.5895C454.538 84.5117 454.383 84.4494 454.32 84.3871C454.274 84.2938 454.289 84.2159 454.367 84.1537C454.523 84.1381 454.772 84.1537 455.13 84.1693L455.69 84.2004C455.97 84.2004 456.157 84.1848 456.219 84.1537C456.375 83.9981 456.437 83.7957 456.375 83.5467V79.3601C456.375 79.0955 456.25 78.9554 455.986 78.9554H455.519C455.27 78.9554 455.13 79.0021 455.13 79.111C455.083 79.5624 454.818 79.8114 454.32 79.8581C453.667 80.0137 453.371 79.7647 453.433 79.111V73.975C453.433 73.6171 453.604 73.4925 453.931 73.5704C454.274 73.6482 454.632 73.7883 455.021 73.9906C455.192 74.0995 455.379 74.1462 455.596 74.1462C455.814 74.1462 455.97 73.9906 456.079 73.6637C456.172 73.3058 456.25 72.9322 456.281 72.5587C456.312 72.2786 456.203 72.1229 455.97 72.1229H452.328C452.064 72.1229 451.923 72.2474 451.923 72.512V75.8271C451.877 77.9438 451.674 79.7492 451.316 81.2433C450.896 83.0642 450.087 84.4494 448.92 85.4299C448.795 85.4455 448.811 85.2743 448.92 84.9163C449.449 83.5934 449.791 81.9281 449.931 79.9204C450.056 78.8309 450.118 77.5858 450.149 76.2006V71.4693C450.149 71.1113 450.32 70.9868 450.647 71.1113L451.737 71.5938C451.908 71.6716 452.126 71.7183 452.375 71.7183H460.188C460.53 71.8428 460.841 71.656 461.106 71.158C461.246 70.9401 461.417 70.7378 461.604 70.5199H461.557ZM453.075 80.574C453.153 80.2161 453.371 80.0916 453.698 80.1694C454.056 80.2939 454.414 80.4184 454.787 80.5896C455.176 80.8386 455.379 81.0098 455.363 81.0721C455.316 81.2433 455.192 81.3211 454.99 81.3211C454.881 81.3211 454.709 81.4923 454.46 81.8191C453.511 83.142 452.468 84.1226 451.332 84.7607C450.99 84.9319 450.803 84.9941 450.756 84.963C450.756 84.9163 450.865 84.7451 451.099 84.4183C452.017 83.2977 452.671 82.0215 453.075 80.574ZM459.643 74.9867C459.643 74.7065 459.503 74.5509 459.223 74.5509H455.581C455.254 74.5976 455.098 74.7376 455.098 75.0022V75.9516C455.098 76.2162 455.223 76.3563 455.488 76.3563H459.238C459.503 76.3563 459.643 76.2318 459.643 75.9672V74.9867ZM459.643 77.2123C459.643 76.9321 459.519 76.7765 459.285 76.7765H455.503C455.239 76.7765 455.114 76.901 455.114 77.1656V78.1305C455.114 78.3951 455.239 78.5352 455.503 78.5352H459.254C459.519 78.5352 459.659 78.4107 459.659 78.1461V77.2123H459.643ZM458.865 80.4807C458.865 80.4807 459.083 80.4028 459.41 80.4651C460.188 80.6207 460.982 80.9787 461.791 81.539C462.818 82.3483 463.285 83.1732 463.176 83.9981C462.958 84.7451 462.476 84.963 461.729 84.6206C461.448 84.4183 461.308 84.1537 461.293 83.8269C461.028 82.6284 460.375 81.6479 459.347 80.8698C459.005 80.6674 458.849 80.5429 458.849 80.4651L458.865 80.4807Z" fill="black"/>
<path d="M473.32 83.2196C473.196 82.8772 473.196 82.6904 473.274 82.6593C473.694 82.6749 474.114 82.8149 474.503 83.064C475.079 83.4842 475.204 83.9978 474.861 84.6048C474.783 84.7137 474.877 84.776 475.126 84.776H476.744C476.993 84.776 477.18 84.6203 477.289 84.2935C477.367 83.9667 477.429 83.6398 477.476 83.313C477.491 82.955 477.678 82.8149 478.005 82.8461C478.363 82.9239 478.721 83.0173 479.079 83.1107C479.406 83.2819 479.561 83.3908 479.577 83.4375C479.577 83.5931 479.499 83.6865 479.312 83.7176C479.188 83.7643 479.079 83.811 479.001 83.8888C478.83 84.0756 478.659 84.2312 478.472 84.3713C478.192 84.5892 478.052 84.6982 478.083 84.7293C478.674 84.7604 479.281 84.776 479.919 84.7604C480.184 84.7604 480.433 84.6048 480.682 84.2935L481.024 83.8421C481.32 83.5309 481.522 83.3908 481.616 83.3908C482.067 83.6398 482.487 83.9822 482.892 84.4024C483.203 84.7915 483.343 84.9939 483.312 85.0561C483.266 85.1184 483.063 85.1495 482.736 85.1495H470.114L469.601 85.2429C469.258 85.2896 469.056 85.2118 468.978 85.0094C468.916 84.7448 469.072 84.6203 469.461 84.6515C469.647 84.6515 469.865 84.6826 470.083 84.7293H473.305C473.554 84.7293 473.647 84.6826 473.569 84.5736C473.414 84.3869 473.352 84.169 473.383 83.9044C473.414 83.6398 473.383 83.3908 473.305 83.1729L473.32 83.2196ZM475.266 71.0332C475.266 70.6908 475.422 70.5352 475.717 70.5352C476.091 70.5352 476.48 70.5974 476.9 70.7064C477.149 70.7375 477.305 70.8309 477.383 70.9865C477.383 71.111 477.305 71.2044 477.134 71.2511C477.009 71.2978 476.947 71.4534 476.947 71.718V76.2782C476.947 76.5428 477.071 76.6828 477.336 76.6828H480.573C480.838 76.6828 480.978 76.5583 480.978 76.2937V75.8891C480.978 75.6245 480.853 75.4844 480.589 75.4844H479.904C479.639 75.4844 479.515 75.5467 479.515 75.6868C479.515 76.1692 479.235 76.3716 478.659 76.3093C478.301 76.2471 478.161 76.0603 478.192 75.7334C478.192 75.6245 478.067 75.5622 477.787 75.5778C477.507 75.6089 477.336 75.5311 477.258 75.3288C477.211 75.1109 477.211 74.9864 477.258 74.9553L477.803 74.9864C478.052 75.0019 478.192 74.8619 478.192 74.5506C478.192 74.2393 478.083 74.0993 477.865 74.0993C477.585 74.1304 477.414 74.0526 477.351 73.8502C477.305 73.6012 477.429 73.4923 477.725 73.5234C478.036 73.5545 478.207 73.4144 478.207 73.1032C478.207 72.7919 478.083 72.6363 477.818 72.6363C477.569 72.6674 477.398 72.574 477.336 72.3717C477.305 72.1538 477.429 72.0448 477.725 72.0604C478.036 72.0915 478.207 71.9826 478.207 71.7491V71.3133C478.207 70.9709 478.379 70.8153 478.705 70.8309C479.032 70.8776 479.375 70.9243 479.748 71.0021C479.966 71.1266 479.966 71.2511 479.733 71.4223C479.608 71.5779 479.546 71.718 479.546 71.8892C479.546 72.076 479.67 72.0448 479.904 71.7803C480.137 71.5157 480.277 71.3756 480.34 71.36C480.386 71.3756 480.526 71.5001 480.744 71.718C480.931 71.967 481.009 71.9203 481.009 71.6091V71.1733C481.009 70.8309 481.18 70.6752 481.507 70.7064C482.207 70.7842 482.705 70.8931 482.985 71.0643C483.017 71.111 482.985 71.2355 482.877 71.3912C482.705 71.6091 482.628 71.8269 482.628 72.0448V76.4961C482.752 77.0408 482.55 77.3676 481.989 77.4766C481.678 77.5233 481.382 77.4455 481.087 77.212C481.024 77.1186 480.869 77.0719 480.635 77.0719H471.733C471.484 77.0719 471.344 77.1186 471.313 77.2276C471.188 77.6322 470.861 77.8034 470.332 77.7412C469.803 77.6789 469.585 77.3832 469.694 76.8696V71.1733C469.694 70.8309 469.865 70.6752 470.192 70.7064C470.892 70.7842 471.391 70.8931 471.671 71.0643C471.702 71.111 471.671 71.2355 471.546 71.3912C471.391 71.6091 471.313 71.8269 471.313 72.0448V76.2626C471.313 76.5272 471.437 76.6673 471.702 76.6673H474.955C475.219 76.6673 475.359 76.5428 475.359 76.2782V75.8735C475.359 75.6556 475.219 75.5467 474.939 75.5467H474.239C473.99 75.5467 473.85 75.6245 473.85 75.7957C473.756 76.3093 473.367 76.4338 472.682 76.2004C472.558 76.1225 472.511 75.9669 472.527 75.7646C472.527 75.6556 472.387 75.6089 472.106 75.6401C471.842 75.6712 471.671 75.5778 471.593 75.3755C471.546 75.1576 471.671 75.0486 471.998 75.0642H472.138C472.387 75.0953 472.527 74.9397 472.527 74.6284C472.527 74.3172 472.387 74.1771 472.106 74.1771C471.826 74.2082 471.655 74.1148 471.593 73.9125C471.546 73.6946 471.686 73.6012 472.029 73.6012C472.355 73.6168 472.527 73.4923 472.527 73.1966C472.527 72.9009 472.387 72.7763 472.106 72.7763C471.826 72.8075 471.655 72.7141 471.593 72.5118C471.546 72.2939 471.546 72.1849 471.593 72.1538C471.78 72.1538 471.951 72.1694 472.138 72.2005C472.387 72.2005 472.527 72.0915 472.527 71.8269V71.2978C472.527 70.9554 472.698 70.7997 473.025 70.8153C473.165 70.8153 473.32 70.8464 473.492 70.8931C473.896 70.9554 474.13 71.0176 474.176 71.0799C474.208 71.1577 474.176 71.2667 474.052 71.3912C473.927 71.5468 473.865 71.718 473.865 71.9203C473.865 72.1227 473.99 72.1071 474.254 71.8581C474.503 71.5935 474.659 71.469 474.721 71.469C474.799 71.5157 474.892 71.6246 475.017 71.8114C475.266 72.1694 475.39 72.216 475.39 71.9359V70.9554L475.266 71.0332ZM480.309 77.5077C480.417 77.2587 480.589 77.1964 480.838 77.3365C481.414 77.6478 481.958 78.0836 482.487 78.6439C482.503 78.8306 482.316 78.8929 481.912 78.8306H470.721L470.223 78.8929C469.896 78.9084 469.694 78.8151 469.632 78.6127C469.57 78.3948 469.71 78.3015 470.052 78.3326C470.254 78.3326 470.472 78.3637 470.706 78.4104H479.312C479.624 78.4882 479.826 78.4104 479.935 78.1614C480.044 77.9435 480.168 77.7412 480.309 77.5233V77.5077ZM471.328 79.9201C471.328 79.5777 471.484 79.4532 471.811 79.5154C472.091 79.5933 472.355 79.7022 472.636 79.8267C472.745 79.889 472.916 79.9201 473.18 79.9201H478.923C479.172 79.9201 479.39 79.8111 479.561 79.6088C479.748 79.422 479.997 79.4065 480.34 79.531C480.682 79.6866 481.04 79.889 481.445 80.1691C481.709 80.4026 481.616 80.6205 481.18 80.8072C481.133 80.885 481.118 81.0407 481.118 81.3053C481.118 81.7255 481.118 82.1457 481.087 82.597C480.791 82.955 480.371 83.0795 479.826 82.9861C479.624 82.9083 479.515 82.7838 479.499 82.5815C479.484 82.5037 479.344 82.457 479.11 82.457H473.367C473.118 82.457 472.962 82.5348 472.9 82.6904C472.62 83.0795 472.184 83.204 471.608 83.0951C471.359 83.0173 471.282 82.7838 471.344 82.3792V79.9357L471.328 79.9201ZM473.429 80.3559C473.118 80.4026 472.947 80.5426 472.947 80.8072V81.6477C472.947 81.9123 473.071 82.0523 473.336 82.0523H479.079C479.344 82.0523 479.484 81.9278 479.484 81.6632V80.7917C479.484 80.5115 479.344 80.3559 479.063 80.3559H473.429ZM475.266 73.0409C475.266 72.7608 475.235 72.6363 475.188 72.6985C474.846 72.7297 474.503 72.7452 474.145 72.7296C473.881 72.7296 473.756 72.8853 473.756 73.2121C473.756 73.539 473.787 73.6946 473.834 73.7102C473.896 73.7102 474.052 73.5701 474.316 73.2899C474.566 73.0254 474.783 72.9942 475.001 73.1966C475.188 73.4456 475.266 73.3989 475.266 73.0565V73.0409ZM475.266 74.5662C475.266 74.2705 475.141 74.1148 474.892 74.1148H474.145C473.881 74.1148 473.756 74.286 473.756 74.6284C473.756 74.9708 473.772 75.142 473.818 75.1732C473.865 75.1732 474.021 75.0175 474.254 74.7374C474.503 74.2238 474.783 74.2705 475.11 74.893C475.157 75.002 475.188 75.0486 475.235 75.0175C475.25 74.9708 475.266 74.8152 475.266 74.5506V74.5662ZM480.947 72.9008C480.947 72.683 480.807 72.5896 480.526 72.5896H479.873C479.608 72.5896 479.484 72.7608 479.484 73.0876C479.484 73.4456 479.593 73.5078 479.81 73.2433C480.044 72.9942 480.184 72.8542 480.246 72.8542C480.309 72.9009 480.433 73.0254 480.589 73.2433C480.822 73.5857 480.947 73.6168 480.947 73.3366V72.9008ZM480.947 74.4105C480.947 74.0993 480.931 73.9747 480.884 74.0059C480.838 74.037 480.651 74.0526 480.324 74.0526H479.873C479.608 74.0526 479.484 74.1771 479.484 74.4417V74.7374C479.484 75.0486 479.624 75.0331 479.935 74.7218C480.184 74.4417 480.34 74.3016 480.386 74.3016C480.604 74.4572 480.775 74.644 480.884 74.8463C480.931 74.8463 480.962 74.7062 480.962 74.395L480.947 74.4105Z" fill="black"/>
<path d="M59.6534 155.716H49.9883V159.622H59.6534V155.716Z" fill="#F3D143"/>
<path d="M204.911 155.716H195.246V159.622H204.911V155.716Z" fill="#F3D143"/>
<path d="M320.409 155.716H310.744V159.622H320.409V155.716Z" fill="#F3D143"/>
<path d="M424.95 155.716H415.285V159.622H424.95V155.716Z" fill="#F3D143"/>
<path d="M578.964 155.716H569.299V159.622H578.964V155.716Z" fill="#F3D143"/>
<path d="M611.933 142.704C612.556 143.544 613.583 143.824 614.859 143.326C615.139 145.412 614.237 148.462 613.365 149.318C613.272 145.256 611.435 146.563 611.933 142.704Z" fill="#F8172A"/>
<path d="M606.652 150.719C607.508 150.112 607.789 149.085 607.275 147.824C609.392 147.544 612.473 148.447 613.345 149.303C609.236 149.412 610.543 151.202 606.652 150.719Z" fill="#0B24BB"/>
<path d="M620.052 147.901C619.211 148.508 618.916 149.535 619.429 150.796C617.313 151.076 614.231 150.173 613.375 149.317C617.484 149.208 616.161 147.418 620.052 147.901Z" fill="#F3D143"/>
<path d="M614.779 155.932C614.156 155.092 613.129 154.812 611.853 155.31C611.573 153.224 612.475 150.174 613.347 149.318C613.456 153.38 615.277 152.073 614.779 155.932Z" fill="#1A811E"/>
<path d="M619.091 153.008C618.048 152.852 617.114 153.365 616.585 154.611C614.888 153.334 613.348 150.548 613.348 149.334C616.336 152.12 616.678 149.941 619.091 153.008Z" fill="#B2B2B2"/>
<path d="M609.626 154.983C609.782 153.956 609.268 153.038 608.008 152.508C609.3 150.828 612.117 149.318 613.346 149.318C610.529 152.259 612.739 152.617 609.626 154.983Z" fill="#B2B2B2"/>
<path d="M607.623 145.63C608.666 145.786 609.6 145.272 610.129 144.027C611.825 145.303 613.366 148.089 613.366 149.303C610.378 146.517 610.035 148.696 607.623 145.63Z" fill="#B2B2B2"/>
<path d="M617.085 143.639C616.929 144.666 617.443 145.584 618.704 146.113C617.412 147.794 614.595 149.304 613.365 149.304C616.182 146.362 613.972 146.004 617.085 143.639Z" fill="#B2B2B2"/>
<path d="M525.695 195.123C537.681 183.137 537.681 163.704 525.695 151.718C513.709 139.732 494.276 139.732 482.29 151.718C470.304 163.704 470.304 183.137 482.29 195.123C494.276 207.109 513.709 207.109 525.695 195.123Z" fill="#4E516B"/>
<path d="M518.103 179.296C521.356 171.489 517.664 162.522 509.857 159.269C502.049 156.016 493.083 159.708 489.83 167.516C486.577 175.323 490.269 184.29 498.076 187.543C505.884 190.796 514.85 187.104 518.103 179.296Z" fill="#B2B2B2" stroke="#383B4D" stroke-width="1.35788" stroke-miterlimit="10"/>
<path d="M507.628 173.426C507.628 171.418 505.993 169.784 503.986 169.784C501.978 169.784 500.344 171.418 500.344 173.426C500.344 175.434 501.978 177.068 503.986 177.068C505.993 177.068 507.628 175.434 507.628 173.426Z" fill="#4E516B"/>
<path d="M505.475 165.55C505.475 164.725 504.805 164.056 503.98 164.056C503.156 164.056 502.486 164.725 502.486 165.55C502.486 166.375 503.156 167.044 503.98 167.044C504.805 167.044 505.475 166.375 505.475 165.55Z" fill="#4E516B"/>
<path d="M505.475 181.287C505.475 180.462 504.805 179.792 503.98 179.792C503.156 179.792 502.486 180.462 502.486 181.287C502.486 182.111 503.156 182.781 503.98 182.781C504.805 182.781 505.475 182.111 505.475 181.287Z" fill="#4E516B"/>
<path d="M496.123 171.933C495.298 171.933 494.629 172.602 494.629 173.427C494.629 174.252 495.298 174.921 496.123 174.921C496.948 174.921 497.617 174.252 497.617 173.427C497.617 172.602 496.948 171.933 496.123 171.933Z" fill="#4E516B"/>
<path d="M511.844 171.933C511.019 171.933 510.35 172.602 510.35 173.427C510.35 174.252 511.019 174.921 511.844 174.921C512.669 174.921 513.338 174.252 513.338 173.427C513.338 172.602 512.669 171.933 511.844 171.933Z" fill="#4E516B"/>
<path d="M499.439 166.827C498.848 166.252 497.914 166.252 497.338 166.827C496.762 167.403 496.762 168.353 497.338 168.928C497.93 169.504 498.863 169.504 499.439 168.928C500.015 168.337 500.015 167.403 499.439 166.827Z" fill="#4E516B"/>
<path d="M510.609 177.893C510.018 177.317 509.084 177.317 508.508 177.893C507.932 178.484 507.932 179.418 508.508 179.994C509.099 180.57 510.033 180.57 510.609 179.994C511.185 179.402 511.185 178.469 510.609 177.893Z" fill="#4E516B"/>
<path d="M497.383 177.955C496.807 178.547 496.807 179.481 497.383 180.056C497.974 180.632 498.908 180.632 499.484 180.056C500.06 179.465 500.06 178.531 499.484 177.955C498.893 177.379 497.959 177.379 497.383 177.955Z" fill="#4E516B"/>
<path d="M508.465 166.781C507.889 167.372 507.889 168.306 508.465 168.882C509.057 169.458 509.99 169.458 510.566 168.882C511.142 168.291 511.142 167.357 510.566 166.781C509.99 166.205 509.041 166.205 508.465 166.781Z" fill="#4E516B"/>
<path d="M172.716 195.115C184.702 183.13 184.702 163.697 172.716 151.711C160.73 139.725 141.298 139.725 129.312 151.711C117.326 163.697 117.326 183.13 129.312 195.115C141.297 207.101 160.73 207.101 172.716 195.115Z" fill="#4E516B"/>
<path d="M165.14 179.288C168.393 171.481 164.701 162.514 156.894 159.261C149.086 156.008 140.12 159.7 136.867 167.507C133.614 175.315 137.306 184.281 145.113 187.534C152.921 190.787 161.887 187.095 165.14 179.288Z" fill="#B2B2B2" stroke="#383B4D" stroke-width="1.35788" stroke-miterlimit="10"/>
<path d="M154.639 173.426C154.639 171.418 153.005 169.784 150.997 169.784C148.99 169.784 147.355 171.418 147.355 173.426C147.355 175.434 148.99 177.068 150.997 177.068C153.005 177.068 154.639 175.434 154.639 173.426Z" fill="#4E516B"/>
<path d="M152.484 165.55C152.484 164.725 151.815 164.056 150.99 164.056C150.165 164.056 149.496 164.725 149.496 165.55C149.496 166.375 150.165 167.044 150.99 167.044C151.815 167.044 152.484 166.375 152.484 165.55Z" fill="#4E516B"/>
<path d="M152.484 181.287C152.484 180.462 151.815 179.792 150.99 179.792C150.165 179.792 149.496 180.462 149.496 181.287C149.496 182.111 150.165 182.781 150.99 182.781C151.815 182.781 152.484 182.111 152.484 181.287Z" fill="#4E516B"/>
<path d="M143.133 171.933C142.308 171.933 141.639 172.602 141.639 173.427C141.639 174.252 142.308 174.921 143.133 174.921C143.958 174.921 144.627 174.252 144.627 173.427C144.627 172.602 143.958 171.933 143.133 171.933Z" fill="#4E516B"/>
<path d="M158.869 171.933C158.044 171.933 157.375 172.602 157.375 173.427C157.375 174.252 158.044 174.921 158.869 174.921C159.694 174.921 160.363 174.252 160.363 173.427C160.363 172.602 159.694 171.933 158.869 171.933Z" fill="#4E516B"/>
<path d="M146.469 166.827C145.877 166.252 144.943 166.252 144.367 166.827C143.792 167.403 143.792 168.353 144.367 168.928C144.959 169.504 145.893 169.504 146.469 168.928C147.044 168.337 147.044 167.403 146.469 166.827Z" fill="#4E516B"/>
<path d="M157.642 177.893C157.051 177.317 156.117 177.317 155.541 177.893C154.965 178.484 154.965 179.418 155.541 179.994C156.133 180.57 157.067 180.57 157.642 179.994C158.218 179.402 158.218 178.469 157.642 177.893Z" fill="#4E516B"/>
<path d="M144.412 177.955C143.837 178.547 143.837 179.481 144.412 180.056C145.004 180.632 145.938 180.632 146.513 180.056C147.089 179.465 147.089 178.531 146.513 177.955C145.922 177.379 144.988 177.379 144.412 177.955Z" fill="#4E516B"/>
<path d="M155.479 166.781C154.903 167.372 154.903 168.306 155.479 168.882C156.07 169.458 157.004 169.458 157.58 168.882C158.156 168.291 158.156 167.357 157.58 166.781C157.004 166.205 156.055 166.205 155.479 166.781Z" fill="#4E516B"/>
<path d="M586.395 168.305L640.323 168.181V159.901H586.395V168.305Z" fill="#EFEFEF"/>
<path d="M287.072 70.0205H247.835C243.649 70.0205 240.256 73.4134 240.256 77.6156V168.243H242.59V77.6156C242.59 74.7207 244.941 72.3551 247.835 72.3551H287.072C289.966 72.3551 292.332 74.7207 292.332 77.6156V168.243H294.667V77.6156C294.667 73.4134 291.258 70.0205 287.072 70.0205Z" fill="#4E516B"/>
<path d="M647.87 141.739L644.182 79.0482L639.544 58.9398C637.365 54.4575 634.781 49.2281 631.762 43.0648C622.206 23.6102 624.883 15.1746 628.649 11.5327C627.077 4.79363 621.085 0 614.144 0H-35.7354C-42.2878 0 -48.0775 4.29559 -49.9762 10.5833L-53.1357 21.0422C-53.1357 21.0422 -53.1357 21.0577 -53.1512 21.1044C-53.3691 22.474 -56.8398 44.6679 -56.8398 70.2235V167.123C-56.8398 167.466 -56.8243 167.808 -56.8087 168.15C-56.8087 168.182 -56.8087 168.213 -56.8087 168.244H116.571C116.54 168.4 116.509 168.571 116.493 168.726C116.307 170.143 116.213 171.606 116.213 173.084C116.213 178.547 117.49 183.699 119.777 188.29H119.84C117.521 183.683 116.229 178.485 116.229 172.991C116.229 171.512 116.322 170.049 116.509 168.633C116.525 168.477 116.556 168.306 116.587 168.15C116.991 165.271 117.785 162.501 118.859 159.902C123.995 147.466 136.228 138.72 150.5 138.72C164.772 138.72 177.005 147.466 182.141 159.902C183.215 162.516 184.009 165.271 184.414 168.15H469.759C470.164 165.271 470.957 162.501 472.031 159.902C477.167 147.466 489.4 138.72 503.688 138.72C517.975 138.72 530.193 147.466 535.329 159.902C536.403 162.516 537.197 165.271 537.601 168.15H585.538V73.9433C585.538 70.4881 588.339 67.6866 591.794 67.6866H628.509C631.124 67.6866 633.583 68.7761 635.295 70.6593C635.84 71.2352 636.306 71.9044 636.68 72.6203C639.622 78.4412 642.656 90.1451 642.656 127.482V187.138H646.672V174.034H657.458V141.739H647.855H647.87ZM363.396 12.0463H412.049C412.049 12.0463 416.469 12.0308 426.554 12.0308C427.659 12.0308 433.885 12.093 435.628 12.2175C441.168 12.6222 449.588 13.7116 458.506 15.6882V65.1653H363.396V12.0463ZM263.555 12.093L358.65 12.0463V65.1653H263.555V12.093ZM-39.1439 50.9245L-32.6538 17.1668C-32.1091 14.2875 -29.5878 12.202 -26.6618 12.202L59.1255 12.1708V65.1498H21.4302C11.7495 65.1498 2.11556 64.1381 -7.34718 62.1304L-35.7043 56.1228C-38.07 55.6248 -39.6108 53.3058 -39.1439 50.9245ZM158.967 65.1498H63.8724V12.1708L158.967 12.1241V65.1498ZM163.714 65.1498V12.1241L258.808 12.0774V65.1498H163.714ZM513.555 74.5658C507.657 70.0212 500.171 65.1498 488.591 65.1498H463.253V16.7933C475.751 19.9683 488.435 24.902 495.05 32.1858C508.808 47.3137 517.026 61.539 522.084 70.0212C525.353 75.4841 529.928 83.7484 533.508 89.9739C525.104 84.0908 517.555 77.6474 513.555 74.5658ZM634.065 62.4884L586.394 62.8308C582.985 62.8308 571.157 63.0487 569.305 65.6478C569.196 65.819 569.071 66.0058 568.962 66.1925L568.635 66.7995C568.526 67.0174 568.417 67.2353 568.324 67.4688C568.2 67.7645 568.091 68.0757 567.997 68.387C567.81 68.994 567.686 69.6166 567.608 70.2547C567.577 70.5971 567.561 70.9395 567.561 71.2819L574.145 100.308C574.145 100.308 567.079 91.577 574.145 113.818C568.542 110.705 570.503 123.576 565.772 119.529C561.103 115.654 558.612 112.837 558.612 112.837C554.005 108.137 549.772 103.032 545.741 97.6157C545.71 97.569 545.679 97.5223 545.648 97.4756C545.617 97.4445 545.601 97.4134 545.585 97.3978C544.34 95.7325 543.126 94.0205 541.928 92.3085C541.508 91.7015 541.103 91.0789 540.683 90.4875C540.014 89.5381 539.344 88.6043 538.737 87.6238C538.193 86.7678 537.617 85.9585 537.088 85.1025C535.889 83.2659 534.691 81.3983 533.508 79.5151C533.306 79.1882 533.103 78.8614 532.901 78.5346C531.889 76.9159 530.893 75.2817 529.882 73.6475C529.508 73.025 529.135 72.418 528.761 71.7955C527.781 70.1613 526.784 68.5271 525.804 66.8618C525.633 66.5972 525.477 66.3326 525.322 66.068C524.248 64.2626 523.174 62.4572 522.084 60.6518C521.135 59.0488 520.17 57.4457 519.205 55.8427C518.676 54.9555 518.162 54.0839 517.633 53.1968C517.088 52.3097 516.528 51.407 515.983 50.5043C515.127 49.088 514.271 47.6717 513.4 46.2554C510.271 41.1816 506.847 36.8549 503.283 33.1507C494.583 24.1705 484.98 18.9722 476.28 15.9995C473.401 15.0034 470.615 14.2719 467.985 13.7116C467.144 13.5404 467.284 12.3109 468.14 12.3109L532.823 12.1553L575.359 12.2798H581.211L595.109 12.342H601.35C604.23 12.342 622.237 9.99191 633.645 60.6674C633.878 61.6946 633.816 61.43 634.065 62.5195V62.4884Z" stroke="#4E516B" stroke-width="2.32116" stroke-miterlimit="10"/>
<path d="M658.546 28.4817H653.145C653.145 22.3341 648.134 17.3226 641.986 17.3226H623.216C621.722 17.3226 620.523 16.1086 620.523 14.63C620.523 13.1359 621.737 11.9375 623.216 11.9375H641.986C651.106 11.9375 658.53 19.3614 658.53 28.4817H658.546Z" fill="white" stroke="#4E516B" stroke-width="2.32116" stroke-miterlimit="10"/>
<path d="M655.041 28.4824H658.559V56.4504H655.041C652.053 56.4504 649.625 54.0225 649.625 51.0343V33.9142C649.625 30.9259 652.053 28.498 655.041 28.498V28.4824Z" fill="#4E516B" stroke="#4E516B" stroke-width="2.32116" stroke-miterlimit="10"/>
</g>
</g>
<defs>
<clipPath id="clip0_2067_10886">
<rect width="660" height="204" fill="white"/>
</clipPath>
<clipPath id="clip1_2067_10886">
<rect width="717.72" height="216.825" fill="white" transform="translate(-58)"/>
</clipPath>
</defs>
</svg>
