<svg width="127" height="116" viewBox="0 0 127 116" fill="none" xmlns="http://www.w3.org/2000/svg">
<path d="M95.4273 114.988C98.7252 114.826 100.374 114.736 103.672 114.538C104.97 114.457 106.096 113.312 106.195 111.988C106.609 106.311 106.79 103.473 107.096 97.7961C101.798 98.0304 99.1397 98.1295 93.8415 98.2917C93.6252 104.04 93.4991 106.915 93.2107 112.664C93.1386 114.006 94.1298 115.051 95.4273 114.988Z" fill="#4E516B" stroke="#4E516B" stroke-width="1.14" stroke-miterlimit="10"/>
<path d="M22.9631 114.547C26.261 114.745 27.9099 114.835 31.2078 114.997C32.5053 115.06 33.4965 114.015 33.4244 112.672C33.136 106.924 33.0099 104.049 32.7936 98.3005C27.4954 98.1383 24.8373 98.0392 19.5391 97.8049C19.8454 103.482 20.0256 106.32 20.4401 111.997C20.5392 113.321 21.6656 114.466 22.9631 114.547Z" fill="#4E516B" stroke="#4E516B" stroke-width="1.14" stroke-miterlimit="10"/>
<path d="M108.735 109.942C78.4058 111.591 48.2294 111.591 17.8907 109.942C15.5209 109.798 13.4395 107.726 13.2592 105.329C11.0967 72.7827 11.2138 40.4978 13.5926 7.96952C13.7909 5.58171 15.8723 3.50026 18.2241 3.33807C48.3375 1.55398 78.2797 1.55398 108.393 3.33807C110.745 3.50026 112.826 5.58171 113.025 7.96952C115.412 40.4978 115.529 72.7827 113.358 105.32C113.178 107.708 111.096 109.78 108.726 109.933L108.735 109.942Z" fill="white" stroke="#4E516B" stroke-width="2.1" stroke-miterlimit="10"/>
<path d="M32.0737 102.545C26.6764 102.355 23.9732 102.238 18.5759 101.968C17.8821 101.932 17.2874 101.337 17.2423 100.643C17.1342 98.8863 17.0801 98.0033 16.99 96.2372C16.954 95.5434 17.4856 95.0027 18.1884 95.0298C23.6308 95.255 26.361 95.3542 31.8034 95.5164C32.5063 95.5344 33.0919 96.1201 33.11 96.8319C33.173 98.625 33.2091 99.5171 33.2812 101.301C33.3082 102.004 32.7676 102.563 32.0737 102.536V102.545Z" fill="#F3D143"/>
<path d="M107.926 101.977C102.628 102.247 99.9784 102.356 94.6802 102.545C93.9143 102.572 93.3196 102.076 93.3466 101.428C93.4187 99.5443 93.4547 98.6072 93.5268 96.724C93.5538 96.0842 94.1936 95.5436 94.9595 95.5256C100.303 95.3724 102.979 95.2733 108.322 95.048C109.088 95.012 109.683 95.4985 109.656 96.1293C109.557 97.9855 109.503 98.9046 109.385 100.761C109.349 101.391 108.701 101.932 107.935 101.977H107.926Z" fill="#F3D143"/>
<path d="M32.7212 107.825C27.0265 107.6 24.1881 107.464 18.4935 107.14C18.0609 107.113 17.6825 106.735 17.6465 106.293C17.5924 105.527 17.5654 105.14 17.5113 104.374C17.4843 103.932 17.8177 103.599 18.2502 103.617C23.9719 103.923 26.8283 104.049 32.55 104.257C32.9915 104.275 33.3609 104.644 33.379 105.095C33.415 105.879 33.433 106.266 33.46 107.041C33.4781 107.491 33.1447 107.834 32.7032 107.816L32.7212 107.825Z" fill="#F3D143"/>
<path d="M108.132 107.14C102.437 107.465 99.5987 107.609 93.9041 107.825C93.4715 107.843 93.1291 107.492 93.1472 107.05C93.1832 106.266 93.2012 105.879 93.2373 105.104C93.2553 104.653 93.6247 104.284 94.0662 104.266C99.788 104.059 102.644 103.933 108.366 103.626C108.808 103.599 109.132 103.942 109.105 104.383C109.051 105.149 109.024 105.536 108.97 106.302C108.943 106.744 108.564 107.122 108.123 107.149L108.132 107.14Z" fill="#F3D143"/>
<path d="M41.2029 95.9851C55.773 96.2644 70.3431 96.3095 84.9132 95.9941C86.8145 95.9581 88.13 97.7332 87.5263 99.5533C87.4362 99.8236 87.3911 99.9588 87.301 100.229C85.9224 104.437 82.0118 107.411 77.6867 107.483C67.9373 107.6 58.2148 107.591 48.4564 107.483C44.2484 107.402 40.4279 104.59 38.9502 100.544C38.815 100.184 38.752 100.004 38.6168 99.6434C37.941 97.8052 39.2566 95.9491 41.2029 95.9941V95.9851Z" fill="#B2B2B2"/>
<path d="M114.637 83.3163C80.4058 84.2804 46.2196 84.2804 11.9884 83.3163C11.2856 60.7718 11.619 38.4255 12.9886 15.908C46.58 14.223 80.0364 14.223 113.628 15.908C114.997 38.4165 115.331 60.7627 114.628 83.3073L114.637 83.3163Z" fill="#F8F6FE" stroke="#4E516B" stroke-width="1.93" stroke-miterlimit="10"/>
<path d="M12.8808 45.4445C21.2607 35.8212 29.5774 26.1528 37.8131 16.4123C39.3629 16.3673 40.1378 16.3493 41.6877 16.3132C32.1905 27.7116 22.5041 38.9478 12.7637 50.13C12.7997 48.2558 12.8267 47.3187 12.8808 45.4355V45.4445Z" fill="#DDE2FE"/>
<path d="M12.7997 54.2932C23.7025 41.6964 34.5333 29.0365 45.2198 16.2505C48.0762 16.1964 49.4999 16.1694 52.3472 16.1423C39.3179 31.7126 26.0813 47.0937 12.7637 62.4207C12.7637 59.1769 12.7637 57.546 12.7997 54.3022V54.2932Z" fill="#DDE2FE"/>
<path d="M113.467 81.8654C80.0105 82.7304 46.5902 82.7304 13.1338 81.8654C13.0978 80.3336 13.0798 79.5767 13.0527 78.0449C30.317 57.4557 47.6534 36.9296 64.5933 16.0701C80.5961 16.1872 96.5539 16.6197 112.539 17.3856C113.773 38.9119 114.079 60.3121 113.476 81.8654H113.467Z" fill="#DDE2FE"/>
<path d="M123.657 22.8101C122.126 22.72 121.351 22.684 119.819 22.6029C119.314 15.0069 113.764 13.1868 113.511 13.1057C113.394 11.7001 113.331 10.9972 113.205 9.60059C113.556 9.70871 122.946 12.7273 123.666 22.8191L123.657 22.8101Z" fill="white" stroke="#4E516B" stroke-width="1.93" stroke-miterlimit="10"/>
<path d="M121.449 20.1248C120.35 20.0618 119.8 20.0257 118.701 19.9626C119.134 26.189 119.314 29.2976 119.575 35.5239C120.693 35.56 121.251 35.578 122.368 35.6231C124.261 35.6861 125.729 34.2715 125.63 32.4513C125.441 28.9192 125.333 27.1531 125.081 23.6119C124.955 21.7918 123.324 20.224 121.458 20.1158L121.449 20.1248Z" fill="#4E516B" stroke="#4E516B" stroke-width="1.05" stroke-miterlimit="10"/>
<path d="M2.96995 22.8101C4.50175 22.72 5.27666 22.684 6.80846 22.6029C7.31305 15.0069 12.8636 13.1868 13.1159 13.1057C13.233 11.7001 13.2961 10.9972 13.4222 9.60059C13.0708 9.70871 3.68178 12.7273 2.96094 22.8191L2.96995 22.8101Z" fill="white" stroke="#4E516B" stroke-width="1.93" stroke-miterlimit="10"/>
<path d="M5.18565 20.1248C6.28494 20.0618 6.83459 20.0257 7.93388 19.9626C7.50137 26.189 7.32116 29.2976 7.05985 35.5239C5.94254 35.56 5.38388 35.578 4.26657 35.6231C2.37435 35.6861 0.90562 34.2715 1.00474 32.4513C1.19396 28.9192 1.30209 27.1531 1.55438 23.6119C1.68053 21.7918 3.31145 20.224 5.17664 20.1158L5.18565 20.1248Z" fill="#4E516B" stroke="#4E516B" stroke-width="1.05" stroke-miterlimit="10"/>
<path d="M62.4839 86.7583C62.8444 87.2539 63.4571 87.4251 64.1959 87.1187C64.3581 88.3531 63.8265 90.1733 63.3129 90.6779C63.2588 88.2721 62.1866 89.038 62.4749 86.7493L62.4839 86.7583Z" fill="#F8172A"/>
<path d="M59.3945 91.5247C59.8901 91.1642 60.0613 90.5515 59.7549 89.8126C60.9894 89.6505 62.8005 90.1821 63.3051 90.6957C60.8993 90.7678 61.6742 91.831 59.3945 91.5337V91.5247Z" fill="#0B24BB"/>
<path d="M67.2309 89.8397C66.7353 90.2001 66.5641 90.8129 66.8615 91.5517C65.627 91.7229 63.8249 91.1913 63.3203 90.6867C65.7171 90.6146 64.9602 89.5604 67.2309 89.8397Z" fill="#F3D143"/>
<path d="M64.1439 94.6154C63.7835 94.1198 63.1798 93.9486 62.4409 94.255C62.2697 93.0205 62.8013 91.2004 63.315 90.6958C63.378 93.1016 64.4323 92.3357 64.1439 94.6154Z" fill="#1A811E"/>
<path d="M66.6644 92.8673C66.0607 92.7772 65.5111 93.0836 65.1957 93.8224C64.2136 93.0656 63.3125 91.4076 63.3125 90.6868C65.0515 92.3447 65.2678 91.0472 66.6554 92.8583L66.6644 92.8673Z" fill="#B2B2B2"/>
<path d="M61.1414 94.0567C61.2315 93.444 60.9252 92.8944 60.1953 92.588C60.9432 91.5969 62.6011 90.6958 63.313 90.6958C61.664 92.4439 62.9525 92.6511 61.1414 94.0658V94.0567Z" fill="#B2B2B2"/>
<path d="M59.9512 88.4974C60.5549 88.5965 61.1045 88.2811 61.4199 87.5422C62.4111 88.2991 63.3121 89.9571 63.3121 90.6779C61.5731 89.02 61.3658 90.3175 59.9512 88.4974Z" fill="#B2B2B2"/>
<path d="M65.5021 87.3169C65.403 87.9296 65.7093 88.4793 66.4482 88.7856C65.6913 89.7858 64.0333 90.6869 63.3125 90.6869C64.9614 88.9388 63.6729 88.7316 65.4931 87.3169H65.5021Z" fill="#B2B2B2"/>
</svg>
