<svg width="101" height="93" viewBox="0 0 101 93" fill="none" xmlns="http://www.w3.org/2000/svg">
<path d="M75.8914 91.9908C78.5181 91.8616 79.8314 91.7898 82.458 91.6319C83.4914 91.5674 84.3885 90.6559 84.4674 89.601C84.7976 85.0797 84.9411 82.8191 85.1851 78.2979C80.9653 78.4844 78.8482 78.5634 74.6283 78.6926C74.4561 83.2712 74.3556 85.5606 74.126 90.1392C74.0686 91.2085 74.858 92.041 75.8914 91.9908Z" fill="#4E516B" stroke="#4E516B" stroke-width="1.14" stroke-miterlimit="10"/>
<path d="M18.1763 91.639C20.8029 91.7969 22.1163 91.8687 24.7429 91.9978C25.7763 92.0481 26.5657 91.2156 26.5083 90.1463C26.2787 85.5676 26.1782 83.2783 26.006 78.6996C21.7861 78.5705 19.669 78.4915 15.4492 78.3049C15.6932 82.8262 15.8368 85.0868 16.1669 89.608C16.2458 90.663 17.1429 91.5744 18.1763 91.639Z" fill="#4E516B" stroke="#4E516B" stroke-width="1.14" stroke-miterlimit="10"/>
<path d="M86.4907 87.9718C62.3343 89.2852 38.3 89.2852 14.1364 87.9718C12.249 87.857 10.5912 86.2064 10.4476 84.2974C8.72527 58.3756 8.81856 32.6619 10.7132 6.75448C10.8711 4.85269 12.5289 3.1949 14.4019 3.06572C38.3861 1.64476 62.2338 1.64476 86.218 3.06572C88.0911 3.1949 89.7489 4.85269 89.9067 6.75448C91.8085 32.6619 91.9018 58.3756 90.1723 84.2903C90.0287 86.192 88.371 87.8427 86.4835 87.9647L86.4907 87.9718Z" fill="white" stroke="#4E516B" stroke-width="2.1" stroke-miterlimit="10"/>
<path d="M25.4329 82.0798C21.1342 81.9291 18.9812 81.8358 14.6824 81.6205C14.1298 81.5918 13.6562 81.1181 13.6203 80.5655C13.5342 79.1661 13.4911 78.4628 13.4193 77.0562C13.3906 76.5036 13.8141 76.073 14.3738 76.0945C18.7085 76.2739 20.883 76.3529 25.2176 76.4821C25.7774 76.4964 26.2439 76.9629 26.2583 77.5298C26.3085 78.958 26.3372 79.6685 26.3946 81.0894C26.4161 81.6492 25.9855 82.0941 25.4329 82.0726V82.0798Z" fill="#F3D143"/>
<path d="M85.8448 81.628C81.625 81.8433 79.5151 81.9294 75.2953 82.0801C74.6853 82.1016 74.2116 81.7069 74.2331 81.1902C74.2905 79.6903 74.3192 78.9439 74.3767 77.444C74.3982 76.9345 74.9077 76.5039 75.5177 76.4895C79.7734 76.3675 81.9049 76.2886 86.1606 76.1092C86.7706 76.0805 87.2443 76.468 87.2227 76.9704C87.1438 78.4487 87.1007 79.1807 87.0074 80.6591C86.9787 81.1615 86.462 81.5921 85.852 81.628H85.8448Z" fill="#F3D143"/>
<path d="M25.9473 86.2854C21.4117 86.106 19.1511 85.9983 14.6155 85.74C14.271 85.7184 13.9696 85.417 13.9409 85.0654C13.8978 84.4553 13.8763 84.1467 13.8333 83.5367C13.8117 83.1851 14.0773 82.9196 14.4217 82.9339C18.9789 83.1779 21.2538 83.2784 25.811 83.4434C26.1626 83.4578 26.4569 83.752 26.4712 84.1109C26.4999 84.7352 26.5143 85.0438 26.5358 85.661C26.5502 86.0198 26.2846 86.2925 25.933 86.2782L25.9473 86.2854Z" fill="#F3D143"/>
<path d="M86.0094 85.7402C81.4738 85.9986 79.2132 86.1134 74.6776 86.2857C74.3331 86.3 74.0604 86.0201 74.0748 85.6685C74.1035 85.0441 74.1178 84.7355 74.1465 84.1183C74.1609 83.7595 74.4551 83.4653 74.8068 83.4509C79.3639 83.2858 81.6389 83.1854 86.196 82.9414C86.5477 82.9198 86.806 83.1926 86.7845 83.5442C86.7414 84.1542 86.7199 84.4628 86.6768 85.0728C86.6553 85.4245 86.3539 85.7259 86.0022 85.7474L86.0094 85.7402Z" fill="#F3D143"/>
<path d="M32.7044 76.8555C44.309 77.0779 55.9135 77.1138 67.518 76.8627C69.0323 76.8339 70.0801 78.2477 69.5992 79.6974C69.5275 79.9127 69.4916 80.0203 69.4198 80.2356C68.3218 83.5871 65.2072 85.9554 61.7624 86.0128C53.9974 86.1061 46.2538 86.0989 38.4816 86.0128C35.1301 85.9482 32.0873 83.7091 30.9103 80.4868C30.8027 80.1998 30.7524 80.0562 30.6448 79.7692C30.1065 78.3051 31.1543 76.8268 32.7044 76.8627V76.8555Z" fill="#B2B2B2"/>
<path d="M91.1907 66.7651C63.9269 67.533 36.699 67.533 9.43514 66.7651C8.87537 48.8093 9.14091 31.0113 10.2317 13.0771C36.986 11.7351 63.6327 11.7351 90.387 13.0771C91.4778 31.0042 91.7433 48.8021 91.1836 66.7579L91.1907 66.7651Z" fill="#F8F6FE" stroke="#4E516B" stroke-width="1.93" stroke-miterlimit="10"/>
<path d="M10.146 36.6018C16.8203 28.9372 23.4442 21.2367 30.0036 13.4788C31.238 13.443 31.8552 13.4286 33.0896 13.3999C25.5254 22.4783 17.8106 31.4275 10.0527 40.3336C10.0814 38.8409 10.103 38.0945 10.146 36.5946V36.6018Z" fill="#DDE2FE"/>
<path d="M10.0814 43.6496C18.7651 33.6167 27.3914 23.5336 35.9028 13.35C38.1778 13.307 39.3116 13.2854 41.5794 13.2639C31.2021 25.665 20.6597 37.9155 10.0527 50.1228C10.0527 47.5393 10.0527 46.2403 10.0814 43.6567V43.6496Z" fill="#DDE2FE"/>
<path d="M90.259 65.6097C63.6124 66.2986 36.9944 66.2986 10.3478 65.6097C10.3191 64.3897 10.3047 63.7868 10.2832 62.5668C24.0335 46.1683 37.8413 29.8201 51.3332 13.2063C64.0788 13.2996 76.7886 13.6441 89.5198 14.2541C90.503 31.3989 90.747 48.4433 90.2662 65.6097H90.259Z" fill="#DDE2FE"/>
<path d="M98.3756 18.5743C97.1556 18.5026 96.5384 18.4739 95.3184 18.4093C94.9165 12.3594 90.4957 10.9097 90.2948 10.8452C90.2015 9.72561 90.1513 9.16584 90.0508 8.05347C90.3307 8.13959 97.8087 10.5437 98.3828 18.5815L98.3756 18.5743Z" fill="white" stroke="#4E516B" stroke-width="1.93" stroke-miterlimit="10"/>
<path d="M96.6166 16.4358C95.7411 16.3856 95.3033 16.3569 94.4277 16.3066C94.7722 21.2657 94.9157 23.7416 95.1239 28.7006C96.0138 28.7293 96.4587 28.7437 97.3486 28.7795C98.8557 28.8298 100.025 27.7031 99.9465 26.2534C99.7958 23.4402 99.7097 22.0336 99.5088 19.2132C99.4083 17.7635 98.1093 16.5148 96.6238 16.4286L96.6166 16.4358Z" fill="#4E516B" stroke="#4E516B" stroke-width="1.05" stroke-miterlimit="10"/>
<path d="M2.25327 18.5743C3.47329 18.5026 4.09047 18.4739 5.31049 18.4093C5.71238 12.3594 10.1332 10.9097 10.3341 10.8452C10.4274 9.72561 10.4776 9.16584 10.5781 8.05347C10.2982 8.13959 2.82022 10.5437 2.24609 18.5815L2.25327 18.5743Z" fill="white" stroke="#4E516B" stroke-width="1.93" stroke-miterlimit="10"/>
<path d="M4.0173 16.4358C4.89284 16.3856 5.33061 16.3569 6.20616 16.3066C5.86168 21.2657 5.71815 23.7416 5.51003 28.7006C4.62013 28.7293 4.17518 28.7437 3.28529 28.7795C1.77821 28.8298 0.608424 27.7031 0.687366 26.2534C0.838074 23.4402 0.924194 22.0336 1.12514 19.2132C1.22561 17.7635 2.52457 16.5148 4.01012 16.4286L4.0173 16.4358Z" fill="#4E516B" stroke="#4E516B" stroke-width="1.05" stroke-miterlimit="10"/>
<path d="M49.6537 69.5067C49.9408 69.9014 50.4288 70.0378 51.0173 69.7937C51.1465 70.7769 50.7231 72.2266 50.314 72.6285C50.2709 70.7123 49.4169 71.3224 49.6466 69.4995L49.6537 69.5067Z" fill="#F8172A"/>
<path d="M47.1934 73.303C47.5881 73.0159 47.7244 72.5279 47.4804 71.9394C48.4636 71.8102 49.9061 72.2337 50.308 72.6427C48.3918 72.7001 49.009 73.547 47.1934 73.3101V73.303Z" fill="#0B24BB"/>
<path d="M53.433 71.9608C53.0383 72.2478 52.9019 72.7358 53.1388 73.3243C52.1556 73.4607 50.7202 73.0373 50.3184 72.6354C52.2273 72.578 51.6245 71.7383 53.433 71.9608Z" fill="#F3D143"/>
<path d="M50.9762 75.7644C50.6891 75.3697 50.2083 75.2333 49.6198 75.4773C49.4835 74.4941 49.9069 73.0445 50.3159 72.6426C50.3662 74.5587 51.2058 73.9487 50.9762 75.7644Z" fill="#1A811E"/>
<path d="M52.9822 74.3722C52.5014 74.3005 52.0636 74.5445 51.8124 75.1329C51.0302 74.5301 50.3125 73.2096 50.3125 72.6355C51.6976 73.956 51.8698 72.9226 52.975 74.365L52.9822 74.3722Z" fill="#B2B2B2"/>
<path d="M48.5836 75.3194C48.6554 74.8314 48.4114 74.3937 47.8301 74.1497C48.4257 73.3602 49.7462 72.6426 50.3132 72.6426C48.9999 74.0348 50.0261 74.1999 48.5836 75.3266V75.3194Z" fill="#B2B2B2"/>
<path d="M47.6367 70.8918C48.1175 70.9708 48.5553 70.7196 48.8065 70.1311C49.5959 70.7339 50.3136 72.0544 50.3136 72.6286C48.9285 71.3081 48.7634 72.3415 47.6367 70.8918Z" fill="#B2B2B2"/>
<path d="M52.0564 69.9514C51.9775 70.4394 52.2215 70.8772 52.8099 71.1212C52.2071 71.9178 50.8866 72.6355 50.3125 72.6355C51.6258 71.2432 50.5996 71.0781 52.0492 69.9514H52.0564Z" fill="#B2B2B2"/>
</svg>
