<svg width="87" height="260" viewBox="0 0 87 260" fill="none" xmlns="http://www.w3.org/2000/svg">
<g clip-path="url(#clip0_1693_11432)">
<path d="M86.2358 255.571H75.7168C75.7168 256.655 76.5944 257.527 77.6722 257.527H84.2804C85.3641 257.527 86.2358 256.649 86.2358 255.571Z" fill="#4E516A"/>
<path d="M82.1191 257.527V258.741C82.1191 259.153 81.7834 259.483 81.377 259.483H80.576C80.1638 259.483 79.8339 259.147 79.8339 258.741V257.527H82.1191Z" fill="#4E516A"/>
<path d="M72.4551 246.336L73.6566 246.006L76.466 256.183C77.0196 257.29 78.174 258.009 79.4167 258.009H80.8715V259.258H79.4167C77.6792 259.258 76.0714 258.245 75.3175 256.678L75.2763 256.572L72.4492 246.336H72.4551Z" fill="#4E516A"/>
<path d="M0.09375 255.572H10.6127C10.6127 256.656 9.73515 257.528 8.65734 257.528H2.04912C0.965422 257.528 0.09375 256.65 0.09375 255.572Z" fill="#4E516A"/>
<path d="M6.50195 257.527V258.741C6.50195 259.153 6.16624 259.483 5.75985 259.483H4.95884C4.54657 259.483 4.21676 259.147 4.21676 258.741V257.527H6.50195Z" fill="#4E516A"/>
<path d="M5.45898 259.253V258.004H6.91373C8.15646 258.004 9.31083 257.291 9.86446 256.178L12.6738 246.001L13.8753 246.331L11.0129 256.673C10.2591 258.24 8.65119 259.253 6.91373 259.253H5.45898Z" fill="#4E516A"/>
<path d="M71.1761 254.854H15.1536C13.3101 254.854 11.8082 253.358 11.8082 251.508V247.026C11.8082 246.19 12.4855 245.512 13.3219 245.512H73.0078C73.8442 245.512 74.5215 246.19 74.5215 247.026V251.508C74.5215 253.352 73.0255 254.854 71.1761 254.854Z" fill="#EED154"/>
<path d="M12.6094 4.42457L12.6094 249.671C12.6094 251.59 14.1651 253.146 16.0843 253.146H70.2399C72.159 253.146 73.7148 251.59 73.7148 249.671V4.42457C73.7148 2.50543 72.159 0.949646 70.2399 0.949646H16.0843C14.1651 0.949646 12.6094 2.50543 12.6094 4.42457Z" fill="white"/>
<path d="M73.7148 196.752H12.6094V197.376L73.7148 197.376V196.752Z" fill="#4E516A"/>
<path d="M73.7148 126.911H12.6094V127.535H73.7148V126.911Z" fill="#4E516A"/>
<path d="M73.7148 57.0771L12.6094 57.0771V57.7015L73.7148 57.7015V57.0771Z" fill="#4E516A"/>
<path d="M26.4453 185.756V172.451C26.4453 170.814 27.7764 169.477 29.4196 169.477H56.9126C58.5499 169.477 59.8869 170.808 59.8869 172.451V185.756C59.8869 187.393 58.5558 188.73 56.9126 188.73H29.4196C27.7823 188.73 26.4453 187.399 26.4453 185.756ZM59.2567 172.451C59.2567 171.155 58.2024 170.101 56.9067 170.101H29.4137C28.118 170.101 27.0637 171.155 27.0637 172.451V185.756C27.0637 187.051 28.118 188.106 29.4137 188.106H56.9067C58.2024 188.106 59.2567 187.051 59.2567 185.756V172.451Z" fill="#4E516A"/>
<path d="M73.7148 38.4313V12.4932L12.6095 12.4932V38.4313L73.7148 38.4313Z" fill="#F7F5FD"/>
<path d="M73.7207 116.947V70.8896H12.6153V116.947H73.7207Z" fill="#F7F5FD"/>
<path d="M26.4453 46.9714V33.6667C26.4453 32.0293 27.7764 30.6924 29.4196 30.6924L56.9126 30.6924C58.5499 30.6924 59.8869 32.0234 59.8869 33.6667V46.9714C59.8869 48.6088 58.5558 49.9457 56.9126 49.9457H29.4196C27.7823 49.9457 26.4453 48.6147 26.4453 46.9714ZM59.2567 33.6667C59.2567 32.3709 58.2024 31.3167 56.9067 31.3167L29.4137 31.3167C28.118 31.3167 27.0637 32.3709 27.0637 33.6667V46.9714C27.0637 48.2672 28.118 49.3214 29.4137 49.3214H56.9067C58.2024 49.3214 59.2567 48.2672 59.2567 46.9714V33.6667Z" fill="#4E516A"/>
<path d="M26.4453 116.364V103.059C26.4453 101.422 27.7764 100.085 29.4196 100.085H56.9126C58.5499 100.085 59.8869 101.416 59.8869 103.059V116.364C59.8869 118.001 58.5558 119.338 56.9126 119.338H29.4196C27.7823 119.338 26.4453 118.007 26.4453 116.364ZM59.2567 103.059C59.2567 101.764 58.2024 100.709 56.9067 100.709H29.4137C28.118 100.709 27.0637 101.764 27.0637 103.059V116.364C27.0637 117.66 28.118 118.714 29.4137 118.714H56.9067C58.2024 118.714 59.2567 117.66 59.2567 116.364V103.059Z" fill="#4E516A"/>
<path d="M12.6094 4.42457L12.6094 249.671C12.6094 251.59 14.1651 253.146 16.0843 253.146H70.2399C72.159 253.146 73.7148 251.59 73.7148 249.671V4.42457C73.7148 2.50543 72.159 0.949646 70.2399 0.949646H16.0843C14.1651 0.949646 12.6094 2.50543 12.6094 4.42457Z" stroke="#4E516A" stroke-width="1.3811" stroke-miterlimit="10"/>
<path d="M42.0332 224.544C42.5338 225.227 43.3819 225.463 44.4126 225.045C44.6482 226.747 43.9061 229.232 43.1935 229.927C43.111 226.623 41.6268 227.677 42.0332 224.544Z" fill="#E7352F"/>
<path d="M37.7403 231.083C38.4294 230.582 38.6649 229.751 38.2468 228.733C39.9666 228.503 42.4815 229.233 43.1882 229.934C39.8429 230.022 40.9089 231.483 37.7344 231.083H37.7403Z" fill="#0023B6"/>
<path d="M48.655 228.785C47.9659 229.286 47.7303 230.116 48.1485 231.135C46.4287 231.365 43.9138 230.635 43.207 229.934C46.5524 229.845 45.4804 228.385 48.655 228.785Z" fill="#EFD254"/>
<path d="M44.3595 235.324C43.853 234.64 43.0108 234.405 41.9801 234.823C41.7445 233.121 42.4866 230.635 43.1992 229.94C43.2935 233.245 44.7659 232.19 44.3595 235.324Z" fill="#3C8029"/>
<path d="M47.8756 232.936C47.0334 232.807 46.2677 233.231 45.8319 234.244C44.4478 233.207 43.1992 230.928 43.1992 229.938C45.6317 232.212 45.9144 230.433 47.8756 232.936Z" fill="#B2B2B2"/>
<path d="M40.1611 234.558C40.2966 233.722 39.8607 232.968 38.8359 232.538C39.8843 231.171 42.1872 229.935 43.1884 229.935C40.8914 232.338 42.6878 232.62 40.1611 234.558Z" fill="#B2B2B2"/>
<path d="M38.5176 226.934C39.3598 227.064 40.1255 226.64 40.5613 225.627C41.9454 226.664 43.194 228.943 43.194 229.932C40.7615 227.659 40.4788 229.438 38.5176 226.934Z" fill="#B2B2B2"/>
<path d="M46.2343 225.31C46.1048 226.146 46.5347 226.9 47.5595 227.33C46.5111 228.696 44.2083 229.933 43.207 229.933C45.504 227.53 43.7077 227.247 46.2343 225.31Z" fill="#B2B2B2"/>
<path d="M28.0577 243.496C28.0165 243.378 28.0106 243.314 28.04 243.302C28.1873 243.308 28.3286 243.355 28.4641 243.437C28.6643 243.584 28.7056 243.761 28.5878 243.973C28.5642 244.014 28.5878 244.032 28.682 244.032H29.2415C29.3299 244.032 29.3888 243.979 29.43 243.867C29.4594 243.755 29.483 243.637 29.4948 243.526C29.5007 243.408 29.5596 243.355 29.6774 243.367C29.801 243.39 29.9247 243.425 30.0484 243.461C30.1603 243.52 30.2133 243.555 30.2192 243.579C30.2192 243.632 30.1898 243.667 30.125 243.679C30.0838 243.69 30.0425 243.714 30.0131 243.738C29.9542 243.802 29.8953 243.855 29.8305 243.903C29.7304 243.973 29.6891 244.014 29.7009 244.02C29.9071 244.032 30.1191 244.032 30.3311 244.032C30.4254 244.032 30.5078 243.979 30.5962 243.873L30.7139 243.72C30.8141 243.614 30.8847 243.561 30.9142 243.567C31.0673 243.655 31.2146 243.773 31.3559 243.92C31.4619 244.05 31.5091 244.126 31.4973 244.144C31.4796 244.168 31.4148 244.179 31.3029 244.179H26.9504L26.7738 244.215C26.656 244.232 26.5853 244.203 26.5617 244.132C26.5382 244.038 26.5971 244.003 26.7266 244.014C26.7914 244.014 26.8621 244.026 26.9387 244.044H28.0518C28.1402 244.044 28.1696 244.026 28.146 243.991C28.093 243.926 28.0754 243.85 28.0813 243.761C28.093 243.673 28.0813 243.584 28.0518 243.508L28.0577 243.496ZM28.7291 239.291C28.7291 239.173 28.7821 239.12 28.8823 239.12C29.0118 239.12 29.1473 239.144 29.2886 239.179C29.3711 239.191 29.43 239.22 29.4536 239.279C29.4536 239.32 29.4241 239.356 29.3652 239.373C29.324 239.391 29.3004 239.444 29.3004 239.532V241.111C29.3004 241.199 29.3417 241.246 29.43 241.246H30.549C30.6433 241.246 30.6845 241.205 30.6845 241.117V240.981C30.6845 240.893 30.6433 240.846 30.5549 240.846H30.3193C30.231 240.846 30.1839 240.869 30.1839 240.916C30.1839 241.081 30.0896 241.152 29.8894 241.128C29.7716 241.105 29.7186 241.04 29.7304 240.934C29.7304 240.893 29.6833 240.875 29.5949 240.881C29.5007 240.893 29.4418 240.863 29.4123 240.793C29.4005 240.716 29.4005 240.675 29.4123 240.669L29.6008 240.681C29.6891 240.687 29.7304 240.64 29.7304 240.534C29.7304 240.428 29.6891 240.375 29.6126 240.38C29.5183 240.392 29.4594 240.363 29.4359 240.292C29.4241 240.21 29.4653 240.168 29.5596 240.174C29.6715 240.186 29.7245 240.139 29.7245 240.033C29.7245 239.927 29.6833 239.868 29.5949 239.874C29.5066 239.886 29.4536 239.856 29.43 239.78C29.4182 239.703 29.4653 239.668 29.5596 239.668C29.6715 239.68 29.7245 239.644 29.7245 239.556V239.409C29.7245 239.291 29.7834 239.238 29.8953 239.244C30.0072 239.256 30.125 239.279 30.2546 239.303C30.3311 239.344 30.3311 239.391 30.2546 239.444C30.2133 239.497 30.1898 239.55 30.1898 239.603C30.1898 239.668 30.231 239.656 30.3134 239.562C30.3959 239.473 30.443 239.42 30.4607 239.42C30.4784 239.426 30.5255 239.468 30.5962 239.538C30.6609 239.621 30.6904 239.609 30.6904 239.497V239.35C30.6904 239.232 30.7493 239.179 30.8612 239.191C31.1027 239.214 31.2735 239.256 31.3736 239.309C31.3854 239.326 31.3736 239.367 31.3324 239.426C31.2735 239.497 31.244 239.574 31.244 239.65V241.187C31.2852 241.376 31.2146 241.488 31.0261 241.529C30.9201 241.547 30.8141 241.517 30.7139 241.435C30.6904 241.399 30.6433 241.388 30.5608 241.388H27.4864C27.3981 241.388 27.3509 241.405 27.3451 241.441C27.3038 241.582 27.1919 241.635 27.0034 241.617C26.8209 241.594 26.7502 241.494 26.7855 241.317V239.35C26.7855 239.232 26.8444 239.179 26.9563 239.191C27.1978 239.214 27.3686 239.256 27.4687 239.309C27.4805 239.326 27.4687 239.367 27.4275 239.426C27.3745 239.497 27.3451 239.574 27.3451 239.65V241.105C27.3451 241.193 27.3863 241.24 27.4746 241.24H28.5996C28.6879 241.24 28.735 241.199 28.735 241.111V240.975C28.735 240.899 28.6879 240.858 28.5937 240.858H28.3522C28.2638 240.858 28.2167 240.887 28.2167 240.946C28.1814 241.123 28.0518 241.17 27.8162 241.081C27.775 241.052 27.7573 241.005 27.7632 240.934C27.7632 240.899 27.7161 240.881 27.6219 240.893C27.5276 240.905 27.4746 240.875 27.4452 240.799C27.4275 240.722 27.4746 240.687 27.5806 240.687H27.6278C27.7161 240.699 27.7573 240.646 27.7573 240.54C27.7573 240.433 27.7102 240.381 27.616 240.386C27.5217 240.398 27.4628 240.369 27.4393 240.292C27.4275 240.221 27.4746 240.18 27.5865 240.18C27.6984 240.186 27.7573 240.139 27.7573 240.045C27.7573 239.951 27.7102 239.898 27.616 239.903C27.5217 239.915 27.4628 239.886 27.4393 239.809C27.4275 239.739 27.4275 239.697 27.4393 239.691C27.5041 239.691 27.563 239.691 27.6278 239.709C27.7161 239.709 27.7573 239.668 27.7573 239.585V239.403C27.7573 239.285 27.8162 239.232 27.9281 239.238C27.9752 239.238 28.0283 239.25 28.0871 239.267C28.2285 239.291 28.3051 239.309 28.3227 239.332C28.3345 239.356 28.3227 239.397 28.2815 239.444C28.2403 239.497 28.2167 239.556 28.2167 239.627C28.2167 239.697 28.258 239.691 28.3463 239.603C28.4288 239.515 28.4818 239.468 28.5053 239.473C28.5289 239.485 28.5642 239.526 28.6113 239.591C28.6938 239.715 28.735 239.733 28.735 239.633V239.291H28.7291ZM30.4666 241.529C30.5019 241.441 30.5608 241.423 30.6492 241.47C30.8435 241.576 31.0379 241.723 31.2205 241.924C31.2263 241.988 31.1616 242.012 31.0261 241.988H27.1625L26.9917 242.012C26.8798 242.018 26.8091 241.988 26.7914 241.912C26.7679 241.835 26.815 241.8 26.9328 241.812C27.0034 241.812 27.0741 241.823 27.1566 241.841H30.1309C30.2369 241.871 30.3076 241.841 30.3429 241.753C30.3782 241.682 30.4195 241.606 30.4666 241.535V241.529ZM27.3686 242.359C27.3686 242.242 27.4216 242.195 27.5335 242.224C27.6278 242.253 27.722 242.289 27.8162 242.336C27.8516 242.359 27.9163 242.371 28.0047 242.371H29.9895C30.0779 242.371 30.1485 242.336 30.2074 242.259C30.2722 242.195 30.3606 242.189 30.4784 242.23C30.5962 242.283 30.7198 242.354 30.8553 242.448C30.9495 242.53 30.9142 242.601 30.7611 242.666C30.7493 242.689 30.7375 242.748 30.7375 242.837C30.7375 242.978 30.7375 243.125 30.7257 243.284C30.6256 243.408 30.4784 243.455 30.2899 243.414C30.2192 243.39 30.1839 243.343 30.1721 243.278C30.1662 243.249 30.1191 243.237 30.0425 243.237H28.0577C27.9694 243.237 27.9163 243.266 27.8987 243.319C27.7986 243.449 27.6513 243.496 27.4511 243.455C27.3686 243.431 27.3333 243.349 27.3568 243.208V242.359H27.3686ZM28.093 242.513C27.9811 242.524 27.9281 242.577 27.9281 242.666V242.954C27.9281 243.043 27.9694 243.09 28.0577 243.09H30.0425C30.1309 243.09 30.178 243.049 30.178 242.96V242.66C30.178 242.56 30.1309 242.513 30.0366 242.513H28.093ZM28.7291 239.986C28.7291 239.886 28.7173 239.845 28.6997 239.868C28.5819 239.88 28.4641 239.88 28.3404 239.88C28.2462 239.88 28.2049 239.933 28.2049 240.045C28.2049 240.157 28.2167 240.21 28.2344 240.216C28.258 240.216 28.311 240.168 28.3993 240.074C28.4818 239.986 28.5642 239.974 28.6349 240.039C28.6997 240.127 28.7291 240.11 28.7291 239.992V239.986ZM28.7291 240.51C28.7291 240.41 28.6879 240.357 28.6054 240.357H28.3463C28.2521 240.357 28.2108 240.416 28.2108 240.534C28.2108 240.651 28.2167 240.71 28.2344 240.722C28.2521 240.722 28.2992 240.669 28.3816 240.575C28.4641 240.398 28.5642 240.416 28.6761 240.628C28.6879 240.663 28.7056 240.681 28.7173 240.669C28.7232 240.657 28.7291 240.604 28.7291 240.51ZM30.6904 239.939C30.6904 239.868 30.6433 239.827 30.549 239.827H30.3252C30.2369 239.827 30.1898 239.886 30.1898 239.998C30.1898 240.121 30.231 240.139 30.3076 240.051C30.39 239.962 30.4371 239.921 30.4548 239.921C30.4784 239.933 30.5196 239.98 30.5726 240.051C30.655 240.168 30.6904 240.18 30.6904 240.086V239.939ZM30.6904 240.457C30.6904 240.351 30.6845 240.304 30.6668 240.322C30.6492 240.333 30.5844 240.339 30.4725 240.339H30.3193C30.2251 240.339 30.1839 240.38 30.1839 240.469V240.575C30.1839 240.681 30.2369 240.681 30.337 240.575C30.4254 240.475 30.4784 240.428 30.4901 240.434C30.5667 240.487 30.6256 240.551 30.6609 240.622C30.6786 240.622 30.6904 240.575 30.6904 240.469V240.457Z" fill="black"/>
<path d="M36.4792 239.116C36.5204 239.039 36.5735 239.021 36.6382 239.063C36.7973 239.163 36.9445 239.286 37.08 239.422C37.186 239.563 37.2272 239.64 37.2095 239.652C37.186 239.669 37.1153 239.681 37.0093 239.681H35.1776C35.0951 239.681 35.1069 239.699 35.2012 239.74C35.3307 239.805 35.4014 239.852 35.4014 239.87C35.3896 239.94 35.3543 239.97 35.2954 239.97C35.2542 239.981 35.2188 240.005 35.1835 240.034C35.101 240.117 35.0127 240.193 34.9302 240.258C34.8301 240.329 34.8242 240.37 34.9067 240.37H35.584C35.6723 240.37 35.7548 240.335 35.8314 240.264C35.9079 240.193 36.0139 240.182 36.1553 240.235C36.3614 240.335 36.4969 240.429 36.5617 240.506C36.5734 240.57 36.5263 240.629 36.4144 240.688C36.4026 240.712 36.3968 240.765 36.3968 240.847V241.996C36.438 242.202 36.3438 242.32 36.1141 242.355C35.9197 242.396 35.8196 242.32 35.8196 242.131C35.8196 242.066 35.7783 242.031 35.69 242.031H35.4367C35.3425 242.031 35.3013 242.072 35.3013 242.161V243.916C35.2247 244.251 35.0245 244.422 34.7005 244.422C34.5886 244.422 34.5121 244.375 34.4708 244.263C34.3825 244.116 34.2765 244.022 34.1469 243.981C34.0527 243.957 33.9938 243.933 33.9761 243.91C33.9584 243.875 33.9643 243.851 33.9938 243.827C34.0468 243.822 34.1351 243.827 34.2588 243.827L34.4532 243.839C34.5533 243.839 34.6122 243.839 34.6357 243.822C34.6888 243.769 34.7064 243.698 34.6888 243.615V242.172C34.6888 242.084 34.6475 242.037 34.5592 242.037H34.4002C34.3118 242.037 34.2647 242.055 34.2647 242.09C34.2529 242.249 34.1587 242.331 33.982 242.349C33.7523 242.402 33.6522 242.314 33.6757 242.09V240.317C33.6757 240.199 33.7346 240.152 33.8465 240.182C33.9643 240.205 34.088 240.252 34.2176 240.323C34.2765 240.358 34.3413 240.376 34.4119 240.376C34.4826 240.376 34.5415 240.323 34.5769 240.211C34.6122 240.087 34.6357 239.958 34.6475 239.834C34.6593 239.734 34.624 239.687 34.5356 239.687H33.2752C33.1869 239.687 33.1398 239.728 33.1398 239.817V240.959C33.1221 241.689 33.0514 242.314 32.9336 242.826C32.7864 243.45 32.5096 243.933 32.1032 244.269C32.062 244.275 32.062 244.216 32.1032 244.092C32.2858 243.633 32.4036 243.062 32.4566 242.367C32.4978 241.99 32.5214 241.56 32.5331 241.083V239.451C32.5331 239.328 32.592 239.286 32.7039 239.328L33.075 239.493C33.1339 239.522 33.2046 239.534 33.2929 239.534H35.9904C36.1082 239.575 36.2142 239.516 36.3084 239.339C36.3614 239.269 36.4144 239.192 36.4792 239.122V239.116ZM33.5462 242.591C33.5756 242.473 33.6463 242.426 33.7582 242.455C33.8819 242.496 34.0056 242.543 34.1292 242.596C34.2647 242.685 34.3295 242.738 34.3236 242.761C34.3118 242.82 34.2647 242.85 34.1999 242.85C34.1646 242.85 34.1057 242.909 34.0173 243.021C33.6934 243.474 33.3282 243.816 32.9336 244.039C32.8158 244.098 32.7511 244.122 32.7393 244.11C32.7393 244.098 32.7746 244.034 32.8571 243.922C33.1692 243.539 33.3989 243.097 33.5403 242.591H33.5462ZM35.8196 240.659C35.8196 240.559 35.7725 240.512 35.6782 240.512H34.4178C34.3059 240.523 34.2529 240.576 34.2529 240.665V240.994C34.2529 241.083 34.2941 241.13 34.3825 241.13H35.6782C35.7666 241.13 35.8137 241.089 35.8137 241V240.659H35.8196ZM35.8196 241.43C35.8196 241.33 35.7783 241.283 35.7018 241.283H34.3943C34.3059 241.283 34.2588 241.324 34.2588 241.413V241.748C34.2588 241.837 34.3 241.884 34.3884 241.884H35.6841C35.7725 241.884 35.8196 241.843 35.8196 241.754V241.43ZM35.5486 242.555C35.5486 242.555 35.6252 242.526 35.7371 242.555C36.0022 242.608 36.279 242.732 36.5617 242.926C36.9151 243.209 37.0741 243.492 37.0387 243.78C36.9681 244.039 36.7973 244.11 36.5381 243.992C36.4439 243.922 36.3968 243.833 36.3909 243.716C36.2966 243.303 36.0787 242.962 35.7194 242.691C35.6017 242.62 35.5486 242.573 35.5486 242.555Z" fill="black"/>
<path d="M37.6172 240.614C37.629 240.578 37.6879 240.578 37.8057 240.602C37.9411 240.637 38.0766 240.69 38.212 240.773C38.483 240.95 38.5772 241.167 38.4947 241.421C38.43 241.621 38.2886 241.692 38.0648 241.633C37.9352 241.568 37.8704 241.456 37.8646 241.303C37.8881 241.138 37.8528 240.973 37.7585 240.808C37.6643 240.696 37.6172 240.631 37.6172 240.614ZM39.8435 239.13C39.8435 239.13 39.92 239.106 40.032 239.13C40.1733 239.159 40.3264 239.212 40.4972 239.283C40.6091 239.353 40.6621 239.401 40.668 239.424C40.6798 239.465 40.6504 239.507 40.562 239.536C40.4796 239.524 40.4266 239.565 40.3912 239.671C40.3559 239.73 40.3264 239.795 40.3029 239.866C40.2675 239.954 40.3029 239.995 40.3853 239.995H41.5633C41.6516 239.995 41.7341 239.954 41.8047 239.866C41.8754 239.754 41.9638 239.654 42.0639 239.554C42.0875 239.548 42.1522 239.571 42.2582 239.63C42.4644 239.789 42.6116 239.931 42.6882 240.066C42.6882 240.149 42.6234 240.178 42.4938 240.149H40.3323C40.244 240.149 40.1733 240.202 40.1144 240.313C39.8494 240.873 39.4783 241.332 38.9954 241.698C38.9129 241.739 38.8481 241.815 38.8069 241.927C38.7539 242.057 38.7127 242.186 38.6714 242.328C38.5478 242.622 38.5124 242.911 38.5654 243.193C38.6008 243.341 38.642 243.488 38.6891 243.635C38.7539 243.877 38.7244 244.095 38.6008 244.295C38.4594 244.436 38.3181 244.466 38.1649 244.371C38.0766 244.313 38.0177 244.201 37.9882 244.024C37.9823 243.9 38 243.724 38.0354 243.494C38.0589 243.394 38.0589 243.241 38.0354 243.034C38.0177 242.923 37.9411 242.817 37.8115 242.722C37.6938 242.646 37.6349 242.599 37.6349 242.581C37.6349 242.557 37.6996 242.557 37.8174 242.569C37.9765 242.634 38.0884 242.593 38.1473 242.451C38.4771 241.792 38.8128 241.132 39.1544 240.472C39.2133 240.361 39.2545 240.302 39.2722 240.29C39.3075 240.29 39.3134 240.355 39.2722 240.472L38.9718 241.391C38.9365 241.509 38.9541 241.521 39.0189 241.432C39.443 240.767 39.7139 240.007 39.8376 239.136L39.8435 239.13ZM38.0766 239.194C38.0766 239.194 38.1532 239.153 38.3004 239.159C38.6361 239.183 38.8835 239.336 39.0602 239.613C39.1014 239.772 39.0896 239.907 39.0307 240.019C38.9836 240.09 38.9129 240.137 38.8305 240.149C38.7127 240.172 38.6125 240.137 38.5301 240.037C38.4771 239.966 38.4359 239.842 38.4064 239.666C38.3711 239.542 38.3122 239.43 38.2179 239.336C38.1237 239.253 38.0825 239.2 38.0825 239.183L38.0766 239.194ZM41.2276 241.497C41.3454 241.391 41.416 241.338 41.4337 241.338C41.6398 241.421 41.8283 241.544 41.9932 241.703C42.0462 241.774 42.0227 241.827 41.9225 241.868C41.8695 241.892 41.8342 241.915 41.8224 241.927C41.7989 242.357 41.8754 242.817 42.0462 243.294C42.1051 243.447 42.1994 243.582 42.3289 243.694C42.3819 243.706 42.4232 243.682 42.4526 243.623C42.5233 243.488 42.594 243.294 42.6646 243.046C42.6823 243.034 42.7 243.023 42.7176 243.023C42.7353 243.034 42.7471 243.099 42.7471 243.211L42.7235 243.594C42.6764 243.771 42.7235 243.936 42.8649 244.071C42.965 244.283 42.9061 244.413 42.6705 244.448C42.1876 244.454 41.7989 244.165 41.5044 243.576C41.2982 243.123 41.1981 242.552 41.2158 241.868C41.2158 241.768 41.1687 241.721 41.0744 241.721H39.7551L39.5843 241.751C39.4665 241.78 39.4018 241.751 39.3841 241.674C39.3664 241.591 39.4135 241.55 39.5313 241.556L39.7316 241.58H40.9684C41.0568 241.58 41.1392 241.55 41.2099 241.497H41.2276ZM41.4278 240.655C41.5103 240.543 41.5986 240.437 41.6987 240.331C41.7223 240.331 41.7871 240.355 41.8931 240.419C42.1051 240.578 42.2465 240.726 42.3172 240.873C42.2936 240.938 42.217 240.955 42.0933 240.932H40.35L40.1733 240.961C40.0555 240.979 39.9848 240.955 39.9613 240.885C39.9377 240.796 39.9907 240.755 40.1203 240.767L40.3264 240.791H41.1804C41.2747 240.791 41.3512 240.749 41.4219 240.667L41.4278 240.655Z" fill="black"/>
<path d="M45.6033 239.222C45.6033 239.11 45.6563 239.063 45.7682 239.075C45.8978 239.087 46.0215 239.104 46.1511 239.122C46.2806 239.122 46.3631 239.175 46.3984 239.269C46.4102 239.311 46.3749 239.352 46.2983 239.381C46.21 239.417 46.1805 239.523 46.21 239.705C46.21 239.794 46.2512 239.841 46.3395 239.841H47.064C47.1935 239.876 47.2996 239.811 47.3761 239.646L47.4645 239.534C47.5764 239.405 47.6412 239.346 47.6647 239.346C47.8414 239.428 48.0181 239.576 48.1948 239.776C48.2655 239.876 48.289 239.941 48.2772 239.964C48.2537 239.976 48.1889 239.982 48.0829 239.982H46.3454C46.2571 239.982 46.21 240.023 46.21 240.112V240.471C46.21 240.559 46.2512 240.606 46.3395 240.606H47.0227C47.0227 240.606 47.064 240.565 47.0993 240.524C47.1994 240.394 47.2642 240.324 47.2937 240.324C47.4998 240.377 47.706 240.483 47.9003 240.642C47.9533 240.706 47.9239 240.765 47.812 240.824C47.759 240.86 47.7354 240.918 47.7354 241.007V242.432C47.7707 242.685 47.6412 242.821 47.3526 242.827C47.1818 242.821 47.1052 242.732 47.1288 242.568C47.1288 242.497 47.0875 242.462 46.9992 242.462H46.3572C46.2689 242.462 46.2218 242.503 46.2218 242.591V242.968C46.2218 243.056 46.263 243.104 46.3513 243.104H47.3172C47.4468 243.139 47.5528 243.074 47.6294 242.909L47.7118 242.797C47.812 242.674 47.8768 242.609 47.9062 242.609C48.0711 242.674 48.2478 242.815 48.4422 243.027C48.5128 243.139 48.5423 243.198 48.5246 243.221C48.5069 243.233 48.4422 243.245 48.3303 243.245H46.3572C46.263 243.245 46.2218 243.286 46.2218 243.374V244.064C46.2512 244.234 46.1982 244.352 46.0686 244.423C45.8743 244.488 45.727 244.446 45.621 244.305C45.6151 244.281 45.6092 244.211 45.6092 244.105V243.392C45.6092 243.304 45.568 243.257 45.4797 243.257H43.6892L43.5066 243.292C43.3888 243.31 43.3181 243.28 43.2946 243.198C43.2828 243.115 43.3358 243.08 43.4418 243.086C43.5125 243.086 43.5832 243.098 43.6656 243.115H45.4738C45.5621 243.115 45.6092 243.074 45.6092 242.986V242.609C45.6092 242.52 45.568 242.473 45.4797 242.473H44.8495C44.7611 242.473 44.714 242.503 44.714 242.568C44.714 242.715 44.6256 242.803 44.4666 242.827C44.2016 242.886 44.0779 242.797 44.1015 242.568V240.565C44.1015 240.447 44.1604 240.406 44.2723 240.441C44.396 240.477 44.5255 240.524 44.6492 240.583C44.6904 240.606 44.7611 240.624 44.8436 240.624H45.4679C45.5621 240.624 45.6033 240.583 45.6033 240.494V240.135C45.6033 240.047 45.5621 240 45.4738 240H43.9248L43.7481 240.029C43.6303 240.053 43.5537 240.011 43.5184 239.905L43.5007 239.841C43.5007 239.841 43.5655 239.823 43.6774 239.841C43.754 239.841 43.8305 239.852 43.9071 239.87H45.4679C45.5562 239.87 45.6033 239.829 45.6033 239.741V239.252V239.222ZM44.8848 240.754H44.7317C44.7317 240.754 44.7022 240.818 44.7022 240.907V241.331C44.7022 241.419 44.7434 241.466 44.8318 241.466H45.462C45.5562 241.466 45.5974 241.425 45.5974 241.337V240.889C45.5974 240.801 45.5562 240.754 45.4679 240.754H44.8789H44.8848ZM45.6033 241.761C45.6033 241.661 45.5621 241.613 45.4855 241.613H44.8436C44.7552 241.613 44.7081 241.655 44.7081 241.743V242.185C44.7081 242.273 44.7493 242.32 44.8377 242.32H45.4679C45.5562 242.32 45.6033 242.279 45.6033 242.191V241.761ZM47.1288 240.895C47.1288 240.795 47.0699 240.748 46.9521 240.754H46.3513C46.2571 240.754 46.2159 240.795 46.2159 240.883V241.331C46.2159 241.419 46.2571 241.466 46.3454 241.466H46.9874C47.0758 241.466 47.1229 241.425 47.1229 241.337V240.895H47.1288ZM47.1288 241.761C47.1288 241.661 47.0875 241.613 47.011 241.613H46.3572C46.263 241.613 46.2218 241.655 46.2218 241.743V242.185C46.2218 242.273 46.263 242.32 46.3513 242.32H46.9933C47.0816 242.32 47.1288 242.279 47.1288 242.191V241.761Z" fill="black"/>
<path d="M51.3038 239.276C51.3038 239.164 51.3568 239.111 51.4687 239.117C51.6866 239.128 51.881 239.17 52.04 239.229C52.1107 239.293 52.093 239.346 51.987 239.399C51.9458 239.417 51.9222 239.47 51.9222 239.564V239.723C51.9222 239.812 51.9635 239.859 52.0518 239.859H53.1002C53.2003 239.882 53.2828 239.859 53.3416 239.776C53.4653 239.617 53.5949 239.6 53.7363 239.723C53.9836 239.859 54.1426 239.977 54.2133 240.088C54.231 240.141 54.2015 240.177 54.1191 240.189C54.0307 240.189 53.9365 240.23 53.8423 240.312C53.6008 240.489 53.3829 240.624 53.1826 240.73C53.1178 240.766 53.0825 240.754 53.0766 240.701C53.0766 240.666 53.1061 240.601 53.1591 240.507C53.2121 240.389 53.2592 240.265 53.3004 240.136C53.324 240.047 53.2886 240.006 53.2003 240.006H49.9197C49.8078 240.018 49.7431 240.077 49.7254 240.189C49.69 240.383 49.637 240.53 49.5781 240.624C49.4132 240.813 49.2365 240.842 49.0481 240.713C48.9303 240.613 48.9244 240.465 49.0304 240.271C49.0952 240.189 49.16 240.13 49.2365 240.106C49.4486 239.935 49.584 239.729 49.637 239.488C49.6547 239.482 49.6724 239.488 49.6842 239.499C49.7077 239.57 49.7254 239.647 49.7313 239.717C49.7431 239.806 49.802 239.853 49.9197 239.859H51.1566C51.2508 239.859 51.292 239.818 51.292 239.729V239.276H51.3038ZM50.6265 240.271C50.6677 240.147 50.7384 240.094 50.8385 240.112C50.9622 240.136 51.0918 240.171 51.2273 240.224C51.3156 240.247 51.3686 240.289 51.3804 240.353C51.3568 240.406 51.3274 240.424 51.292 240.418C51.2567 240.424 51.2096 240.465 51.1507 240.542C51.1036 240.624 51.1212 240.666 51.2096 240.666H51.9281C52.0518 240.701 52.1637 240.636 52.2638 240.477C52.3168 240.424 52.3581 240.406 52.3934 240.418C52.5995 240.542 52.7703 240.701 52.894 240.884C52.894 240.966 52.8528 241.007 52.7527 241.007C52.6761 241.007 52.6172 241.06 52.5701 241.16C52.4523 241.367 52.3168 241.549 52.1696 241.708C52.0754 241.82 52.0813 241.897 52.1873 241.95C52.7821 242.168 53.4241 242.279 54.1132 242.285C54.1368 242.303 54.1485 242.321 54.1485 242.332C54.1368 242.35 54.0779 242.391 53.966 242.45C53.854 242.533 53.7775 242.621 53.7363 242.709C53.695 242.827 53.6656 242.898 53.6538 242.904C53.6126 242.915 53.5301 242.915 53.4123 242.886L53.3358 242.874C53.2297 242.862 53.1944 242.874 53.2239 242.921C53.2769 242.974 53.2651 243.033 53.1885 243.086C53.0943 243.122 53.0648 243.192 53.0884 243.298V244.04C53.1414 244.247 53.0472 244.364 52.8057 244.394C52.6349 244.441 52.5289 244.394 52.4935 244.235C52.4935 244.141 52.4464 244.099 52.3581 244.099H50.974C50.8857 244.099 50.8385 244.117 50.8385 244.158C50.8268 244.341 50.6972 244.435 50.4675 244.441C50.2731 244.453 50.1907 244.353 50.2319 244.152V242.969C50.2319 242.88 50.1789 242.839 50.067 242.851C49.5605 242.921 49.2012 242.951 49.001 242.939C48.9833 242.927 48.9774 242.91 48.9774 242.892C49.5251 242.792 50.0081 242.639 50.438 242.438C50.7325 242.291 50.9504 242.156 51.0977 242.032C51.2155 241.932 51.2273 241.832 51.1389 241.732C50.9681 241.514 50.8562 241.343 50.7855 241.213C50.7443 241.125 50.6677 241.125 50.5558 241.213C50.2731 241.449 49.9904 241.62 49.7195 241.726C49.5723 241.773 49.5016 241.785 49.5134 241.755C50.12 241.26 50.491 240.76 50.6265 240.253V240.271ZM51.8221 242.332C51.7043 242.25 51.5865 242.244 51.4805 242.315C51.2744 242.444 51.0447 242.568 50.7855 242.674C50.6913 242.709 50.6795 242.745 50.7443 242.774C50.815 242.815 50.8915 242.833 50.9799 242.833H52.2874C52.3757 242.833 52.4405 242.809 52.4876 242.762C52.5289 242.709 52.4876 242.662 52.3699 242.609C52.2226 242.544 52.0754 242.474 51.9281 242.397L51.8162 242.338L51.8221 242.332ZM52.4935 243.122C52.4935 243.021 52.4464 242.974 52.3522 242.974H50.9858C50.8915 242.974 50.8444 243.022 50.8444 243.11V243.828C50.8444 243.917 50.8857 243.964 50.974 243.964H52.3581C52.4523 243.964 52.4935 243.923 52.4935 243.834V243.122ZM51.0388 240.819C50.9858 240.831 50.9387 240.86 50.8974 240.895C50.8562 240.937 50.8798 241.013 50.9622 241.119C51.1036 241.278 51.2449 241.414 51.3922 241.514C51.4923 241.584 51.5865 241.573 51.6749 241.473C51.8457 241.26 51.9752 241.048 52.0636 240.842C52.0636 240.825 52.0165 240.813 51.9281 240.813H51.0388V240.819Z" fill="black"/>
<path d="M55.3613 241.743C55.4084 241.673 55.4614 241.655 55.5262 241.702C55.6381 241.767 55.7441 241.832 55.856 241.908C55.9562 241.997 55.9856 242.079 55.9503 242.138C55.8973 242.214 55.8678 242.291 55.8678 242.362V243.151C55.8678 243.239 55.8973 243.322 55.9562 243.392C56.1682 243.563 56.4273 243.669 56.7218 243.71C56.9574 243.746 57.2283 243.769 57.5287 243.775H58.3356C58.7891 243.763 59.2014 243.716 59.5842 243.646C59.6549 243.634 59.7079 243.628 59.7373 243.628C59.7727 243.652 59.7373 243.705 59.6431 243.787C59.4664 243.946 59.384 244.146 59.3957 244.394C59.3663 244.405 59.3074 244.417 59.2132 244.423H59.0129H58.4004C57.5228 244.423 56.8985 244.335 56.5216 244.17C56.2094 244.028 55.9385 243.775 55.7147 243.404C55.6381 243.304 55.5616 243.316 55.4791 243.428C55.3201 243.681 55.167 243.94 55.0315 244.193C54.9785 244.323 54.9078 244.341 54.8254 244.246C54.7606 244.152 54.7076 244.052 54.6546 243.958C54.6015 243.84 54.6369 243.734 54.7665 243.652C54.896 243.569 55.0315 243.457 55.167 243.304C55.2317 243.227 55.2612 243.145 55.2612 243.063V242.179C55.2612 242.091 55.22 242.044 55.1316 242.044C55.0433 242.044 54.9549 242.044 54.8607 242.073C54.7429 242.085 54.6781 242.061 54.6604 241.985C54.6369 241.908 54.6899 241.873 54.8077 241.873L55.0904 241.902C55.1787 241.902 55.273 241.849 55.3731 241.737L55.3613 241.743ZM54.7252 240.289C54.7252 240.289 54.8018 240.271 54.9137 240.289C55.22 240.33 55.4732 240.465 55.6676 240.701C55.7324 240.813 55.7441 240.942 55.697 241.101C55.6381 241.26 55.5262 241.337 55.3672 241.325C55.1905 241.278 55.0963 241.184 55.0845 241.037C55.0492 240.813 54.9844 240.624 54.8784 240.489C54.7782 240.377 54.7311 240.318 54.7311 240.294L54.7252 240.289ZM54.8843 239.193C54.9019 239.146 54.9785 239.134 55.1139 239.158C55.2965 239.181 55.4438 239.223 55.5557 239.287C55.8619 239.476 55.9444 239.717 55.7972 240.012C55.7029 240.112 55.591 240.153 55.4673 240.13C55.3378 240.088 55.2612 240 55.2376 239.859C55.2082 239.641 55.1257 239.458 54.9962 239.311C54.9255 239.246 54.8901 239.205 54.8843 239.187V239.193ZM56.6865 239.234C56.7277 239.099 56.769 239.093 56.8102 239.223C56.8337 239.329 56.9044 239.387 57.0222 239.399H58.7008C58.7891 239.399 58.848 239.387 58.8833 239.37C59.0306 239.193 59.166 239.152 59.2721 239.252C59.543 239.399 59.7079 239.523 59.7609 239.623C59.7491 239.664 59.7197 239.688 59.6608 239.694C59.6254 239.694 59.5842 239.711 59.5312 239.741C59.437 239.788 59.3368 239.841 59.2426 239.906C59.1602 239.959 59.166 240.024 59.2603 240.1L59.3251 240.171C59.4134 240.289 59.4429 240.353 59.4252 240.371C59.3957 240.383 59.3251 240.395 59.2191 240.395H58.259C58.1707 240.395 58.1236 240.436 58.1236 240.524V240.724C58.1236 240.813 58.1648 240.86 58.2531 240.86H58.477C58.5712 240.86 58.636 240.836 58.6713 240.783C58.7184 240.73 58.7538 240.701 58.7773 240.683C58.8009 240.671 58.8775 240.695 59.0129 240.748C59.2249 240.848 59.3427 240.948 59.3722 241.037C59.3486 241.078 59.3015 241.119 59.2249 241.154C59.2191 241.172 59.2132 241.225 59.2132 241.313V242.203C59.2662 242.409 59.1719 242.527 58.9305 242.544C58.7538 242.568 58.6654 242.491 58.6772 242.326C58.6772 242.273 58.636 242.25 58.5476 242.25H58.2649C58.1707 242.25 58.1295 242.291 58.1295 242.379V242.58C58.1295 242.668 58.1707 242.715 58.259 242.715H58.8186C58.9187 242.745 58.9952 242.715 59.0483 242.627C59.1425 242.497 59.2308 242.403 59.3133 242.344C59.4311 242.409 59.5489 242.497 59.6667 242.627C59.7432 242.739 59.7786 242.803 59.7786 242.821C59.7609 242.845 59.6961 242.856 59.5842 242.856H58.2708C58.1766 242.856 58.1354 242.898 58.1354 242.986V243.269C58.1589 243.546 58.0293 243.657 57.7466 243.604C57.6818 243.593 57.6288 243.551 57.5876 243.487C57.5758 243.322 57.5758 243.157 57.5758 242.992C57.5758 242.904 57.5346 242.856 57.4463 242.856H56.5275L56.3508 242.892C56.233 242.909 56.1623 242.88 56.1388 242.809C56.1152 242.721 56.1741 242.68 56.3037 242.692C56.3685 242.692 56.4391 242.703 56.5157 242.721H57.4404C57.5287 242.721 57.5758 242.68 57.5758 242.591V242.391C57.5758 242.303 57.5346 242.256 57.4463 242.256H57.2401C57.1518 242.256 57.1047 242.285 57.1047 242.338C57.0575 242.503 56.928 242.574 56.7218 242.55C56.6512 242.533 56.604 242.509 56.5864 242.491C56.5746 242.468 56.5687 242.397 56.5687 242.291V240.854C56.5687 240.73 56.6276 240.683 56.7395 240.719C56.8278 240.742 56.9162 240.777 57.0045 240.825C57.0575 240.854 57.1282 240.866 57.2166 240.866H57.4463C57.5346 240.866 57.5817 240.825 57.5817 240.736V240.536C57.5817 240.448 57.5405 240.4 57.4522 240.4H56.8396L56.6688 240.43C56.551 240.448 56.4862 240.442 56.4745 240.418C56.445 240.395 56.392 240.371 56.3213 240.342C56.1623 240.212 56.1505 240.059 56.2742 239.876C56.5157 239.711 56.6629 239.499 56.7159 239.234H56.6865ZM57.0811 239.546L56.9986 239.558C56.9162 239.564 56.875 239.629 56.8809 239.747C56.8809 239.853 56.8514 239.976 56.8043 240.118C56.7513 240.206 56.7807 240.259 56.8926 240.265H57.4227C57.511 240.265 57.5582 240.224 57.5582 240.135V239.806C57.5582 239.682 57.623 239.623 57.7525 239.629C57.8998 239.647 58.047 239.67 58.1943 239.7C58.3297 239.747 58.3356 239.817 58.2119 239.912C58.153 239.941 58.1236 240.006 58.1236 240.106C58.1236 240.206 58.1648 240.259 58.2531 240.259C58.4122 240.283 58.5241 240.259 58.5947 240.183C58.6831 240.053 58.7773 239.941 58.8775 239.841C58.8892 239.835 58.9128 239.782 58.9305 239.688C58.9422 239.594 58.901 239.546 58.8127 239.546H57.0811ZM57.2519 241.019C57.1341 241.031 57.0752 241.084 57.0752 241.16V241.366C57.0752 241.455 57.1164 241.502 57.2048 241.502H57.4109C57.4993 241.502 57.5464 241.461 57.5464 241.372V241.154C57.5464 241.066 57.5052 241.019 57.4168 241.019H57.246H57.2519ZM57.5582 241.79C57.5582 241.702 57.5169 241.655 57.4286 241.655H57.2225C57.1341 241.655 57.087 241.696 57.087 241.785V241.985C57.087 242.073 57.1282 242.12 57.2166 242.12H57.4227C57.511 242.12 57.5582 242.079 57.5582 241.991V241.79ZM58.6713 241.154C58.6713 241.054 58.6124 241.013 58.4946 241.019H58.2531C58.1589 241.019 58.1177 241.06 58.1177 241.148V241.366C58.1177 241.455 58.1589 241.502 58.2473 241.502H58.53C58.6242 241.502 58.6654 241.461 58.6654 241.372V241.154H58.6713ZM58.6713 241.79C58.6713 241.702 58.6301 241.655 58.5417 241.655H58.259C58.1648 241.655 58.1236 241.696 58.1236 241.785V241.985C58.1236 242.073 58.1648 242.12 58.2531 242.12H58.5359C58.6301 242.12 58.6713 242.079 58.6713 241.991V241.79Z" fill="black"/>
<path d="M27.6039 246.718V247.089H27.492V247.036C27.492 246.865 27.4861 246.841 27.3448 246.841H27.0444V247.277H27.2918V247.095H27.4037V247.595H27.2918V247.395H27.0444V247.878H27.3625V247.996H26.7617V247.878H26.9384V246.841H26.7617V246.724H27.6098L27.6039 246.718Z" fill="black"/>
<path d="M27.8287 247.602C27.8405 247.785 27.9583 247.897 28.1527 247.897C28.2646 247.897 28.3706 247.856 28.4825 247.797L28.5119 247.903C28.4 247.967 28.2587 248.015 28.135 248.015C27.8111 248.015 27.7109 247.761 27.7109 247.567C27.7109 247.296 27.8817 247.084 28.1114 247.084C28.3411 247.084 28.4766 247.249 28.4766 247.514C28.4766 247.543 28.4766 247.573 28.4707 247.602H27.8287ZM28.3647 247.484C28.3647 247.32 28.2469 247.208 28.1114 247.208C27.976 247.208 27.8523 247.325 27.8287 247.484H28.3647Z" fill="black"/>
<path d="M28.7806 247.872H28.9043V247.99H28.5509V247.872H28.6746V247.23L28.545 247.254L28.5273 247.148C28.5862 247.148 28.6451 247.136 28.6864 247.089C28.6981 247.071 28.7099 247.054 28.7335 247.054C28.7865 247.054 28.7865 247.113 28.7865 247.16V247.189C28.8748 247.136 28.9691 247.089 29.0692 247.089C29.1575 247.089 29.2459 247.124 29.2871 247.225C29.3166 247.301 29.3166 247.395 29.3166 247.478V247.878H29.4402V247.996H29.0869V247.878H29.2105V247.484C29.2105 247.354 29.2164 247.207 29.0692 247.207C28.9691 247.207 28.8689 247.266 28.7865 247.325V247.872H28.7806Z" fill="black"/>
<path d="M30.2244 247.113V247.231H30.0948C30.1302 247.296 30.1478 247.343 30.1478 247.426C30.1478 247.638 30.0242 247.755 29.8534 247.755H29.7945C29.7945 247.755 29.7061 247.832 29.7061 247.856C29.7061 247.873 29.7709 247.873 29.7945 247.873H30.0713C30.2303 247.873 30.3245 247.95 30.3245 248.103C30.3245 248.374 30.0595 248.433 29.8828 248.433C29.7414 248.433 29.5059 248.409 29.5059 248.185C29.5059 248.091 29.5589 248.003 29.6237 247.956C29.606 247.938 29.5883 247.914 29.5883 247.867C29.5883 247.808 29.6413 247.755 29.6826 247.708C29.5883 247.644 29.5412 247.561 29.5412 247.426C29.5412 247.243 29.6708 247.084 29.8239 247.084C29.871 247.084 29.9181 247.096 29.9653 247.108H30.2244V247.113ZM29.7473 247.991C29.6884 248.038 29.6178 248.091 29.6178 248.179C29.6178 248.309 29.7886 248.315 29.8651 248.315C29.9829 248.315 30.2008 248.291 30.2008 248.115C30.2008 247.997 30.1243 247.991 30.0477 247.991H29.7473ZM29.8534 247.208C29.7473 247.208 29.659 247.29 29.659 247.42C29.659 247.567 29.7414 247.643 29.8592 247.643C29.977 247.643 30.0359 247.555 30.0359 247.431C30.0359 247.302 29.9653 247.208 29.8534 247.208Z" fill="black"/>
<path d="M30.6895 247.113V247.231H30.5481L30.7896 247.785L31.0016 247.231H30.8603V247.113H31.2313V247.231H31.1194L30.7896 248.12C30.7307 248.279 30.6777 248.438 30.5069 248.438C30.4362 248.438 30.3655 248.409 30.3066 248.362L30.3479 248.25C30.395 248.291 30.448 248.321 30.5069 248.321C30.6011 248.321 30.6482 248.168 30.6777 248.085L30.7307 247.938L30.4244 247.237H30.3125V247.119H30.6836L30.6895 247.113Z" fill="black"/>
<path d="M31.8863 247.938C31.798 247.979 31.7273 248.015 31.6272 248.015C31.4564 248.015 31.3562 247.909 31.3562 247.65V247.226L31.2267 247.249L31.209 247.143C31.2679 247.143 31.3268 247.131 31.368 247.084C31.3798 247.066 31.3916 247.049 31.4151 247.049C31.4681 247.049 31.4681 247.108 31.4681 247.155V247.608C31.4681 247.826 31.5094 247.897 31.6272 247.897C31.7155 247.897 31.8097 247.856 31.8863 247.809V247.231L31.7567 247.255L31.7391 247.149C31.798 247.149 31.8568 247.137 31.8981 247.09C31.9099 247.072 31.9216 247.055 31.9452 247.055C31.9982 247.055 31.9982 247.114 31.9982 247.161V247.879H32.1396V247.997H31.8863V247.944V247.938Z" fill="black"/>
<path d="M32.7413 247.927C32.6352 247.98 32.5292 248.016 32.4173 248.016C32.2877 248.016 32.1641 247.945 32.1641 247.768C32.1641 247.592 32.276 247.533 32.3996 247.497C32.5116 247.468 32.6176 247.462 32.7413 247.456V247.403C32.7413 247.279 32.7589 247.203 32.6235 247.203C32.5351 247.203 32.4468 247.226 32.3702 247.285V247.409H32.2583V247.203C32.3643 247.126 32.4939 247.079 32.6058 247.079C32.7884 247.079 32.8532 247.138 32.8532 247.344V247.862H33.0004V247.98H32.7413V247.915V247.927ZM32.7413 247.574C32.6411 247.574 32.5292 247.592 32.4291 247.615C32.3584 247.639 32.276 247.668 32.276 247.774C32.276 247.874 32.3466 247.898 32.4173 247.898C32.5292 247.898 32.6352 247.851 32.7354 247.792V247.568L32.7413 247.574Z" fill="black"/>
<path d="M33.2591 247.874H33.3828V247.992H33.0294V247.874H33.1531V247.232L33.0235 247.256L33.0059 247.15C33.0648 247.15 33.1237 247.138 33.1649 247.091C33.1767 247.073 33.1884 247.056 33.212 247.056C33.265 247.056 33.265 247.115 33.265 247.162V247.191C33.3592 247.138 33.4476 247.091 33.5477 247.091C33.6361 247.091 33.7244 247.126 33.7656 247.226C33.7951 247.303 33.7951 247.397 33.7951 247.48V247.88H33.9188V247.998H33.5654V247.88H33.6891V247.486C33.6891 247.356 33.695 247.209 33.5477 247.209C33.4476 247.209 33.3475 247.268 33.265 247.327V247.874H33.2591Z" fill="black"/>
<path d="M34.8242 247.915L35.0127 247.874V246.861L34.8242 246.843V246.714C34.889 246.72 34.9597 246.737 35.0245 246.737C35.1246 246.737 35.2247 246.714 35.3248 246.714C35.4662 246.714 35.6017 246.814 35.6017 246.997C35.6017 247.108 35.5428 247.22 35.4603 247.273C35.6075 247.326 35.6959 247.45 35.6959 247.633C35.6959 247.868 35.5604 247.986 35.3896 247.986C35.2895 247.986 35.1894 247.962 35.0951 247.962C35.0127 247.962 34.9243 247.992 34.8596 248.01L34.836 247.909L34.8242 247.915ZM35.1246 247.244H35.2012C35.4191 247.244 35.4839 247.12 35.4839 247.008C35.4839 246.896 35.4073 246.838 35.3131 246.838C35.2483 246.838 35.1835 246.849 35.1187 246.861V247.25L35.1246 247.244ZM35.1246 247.868L35.3366 247.892C35.4839 247.909 35.5781 247.792 35.5781 247.633C35.5781 247.497 35.5074 247.362 35.2659 247.362H35.1246V247.868Z" fill="black"/>
<path d="M36.3668 247.939C36.2784 247.98 36.2077 248.016 36.1076 248.016C35.9368 248.016 35.8367 247.91 35.8367 247.651V247.226L35.7071 247.25L35.6895 247.144C35.7483 247.144 35.8072 247.132 35.8485 247.085C35.8603 247.067 35.872 247.05 35.8956 247.05C35.9486 247.05 35.9486 247.109 35.9486 247.156V247.609C35.9486 247.827 35.9898 247.898 36.1076 247.898C36.196 247.898 36.2902 247.857 36.3668 247.81V247.232L36.2372 247.256L36.2195 247.15C36.2784 247.15 36.3373 247.138 36.3785 247.091C36.3903 247.073 36.4021 247.056 36.4257 247.056C36.4787 247.056 36.4787 247.115 36.4787 247.162V247.88H36.62V247.998H36.3668V247.945V247.939Z" fill="black"/>
<path d="M37.3039 247.043L37.404 247.067C37.3922 247.137 37.3804 247.202 37.3804 247.273C37.3804 247.32 37.3804 247.367 37.3922 247.408L37.2862 247.42V247.373C37.2685 247.267 37.2391 247.208 37.0624 247.208C36.9799 247.208 36.8563 247.237 36.8563 247.367C36.8563 247.591 37.4158 247.396 37.4158 247.767C37.4158 247.974 37.2096 248.027 37.0683 248.027C36.9682 248.027 36.9034 248.003 36.815 247.956L36.7974 248.032L36.7031 247.997C36.7149 247.944 36.7267 247.885 36.7267 247.826C36.7267 247.773 36.7267 247.72 36.7031 247.667L36.815 247.65C36.8386 247.826 36.868 247.903 37.086 247.903C37.1507 247.903 37.3039 247.879 37.3039 247.762C37.3039 247.526 36.7444 247.738 36.7444 247.373C36.7444 247.178 36.9093 247.09 37.0624 247.09C37.139 247.09 37.2155 247.108 37.2921 247.137L37.3098 247.043H37.3039Z" fill="black"/>
<path d="M39.2898 246.721V247.168H39.1779V247.009C39.1779 246.862 39.1661 246.838 39.0424 246.838H38.8952V247.875H39.1307V247.993H38.5536V247.875H38.7891V246.838H38.6419C38.5182 246.838 38.5064 246.856 38.5064 247.009V247.168H38.3945V246.721H39.2839H39.2898Z" fill="black"/>
<path d="M39.6498 247.874H39.9737V247.992H39.3848V247.874H39.5379V247.232L39.4083 247.256L39.3907 247.15C39.4496 247.15 39.5084 247.138 39.5497 247.091C39.5615 247.073 39.5732 247.056 39.5968 247.056C39.6498 247.056 39.6498 247.115 39.6498 247.162V247.274C39.7499 247.191 39.8442 247.091 39.9737 247.091C40.068 247.091 40.1269 247.168 40.1563 247.262L40.0444 247.315C40.0326 247.268 40.015 247.209 39.962 247.209C39.8736 247.209 39.7205 247.362 39.6498 247.433V247.874Z" fill="black"/>
<path d="M40.8038 247.926C40.6977 247.979 40.5917 248.015 40.4798 248.015C40.3502 248.015 40.2266 247.944 40.2266 247.767C40.2266 247.591 40.3385 247.532 40.4622 247.496C40.5741 247.467 40.6801 247.461 40.8038 247.455V247.402C40.8038 247.278 40.8214 247.202 40.686 247.202C40.5976 247.202 40.5093 247.225 40.4327 247.284V247.408H40.3208V247.202C40.4268 247.125 40.5564 247.078 40.6683 247.078C40.8509 247.078 40.9157 247.137 40.9157 247.343V247.861H41.0629V247.979H40.8038V247.914V247.926ZM40.8038 247.573C40.7036 247.573 40.5917 247.591 40.4916 247.614C40.4209 247.638 40.3385 247.667 40.3385 247.773C40.3385 247.873 40.4091 247.897 40.4798 247.897C40.5917 247.897 40.6977 247.85 40.7979 247.791V247.567L40.8038 247.573Z" fill="black"/>
<path d="M41.3158 247.873H41.4394V247.991H41.0861V247.873H41.2097V247.231L41.0802 247.255L41.0625 247.149C41.1214 247.149 41.1803 247.137 41.2215 247.09C41.2333 247.072 41.2451 247.055 41.2686 247.055C41.3216 247.055 41.3216 247.114 41.3216 247.161V247.19C41.4159 247.137 41.5042 247.09 41.6044 247.09C41.6927 247.09 41.781 247.125 41.8223 247.225C41.8517 247.302 41.8517 247.396 41.8517 247.479V247.879H41.9754V247.997H41.622V247.879H41.7457V247.485C41.7457 247.355 41.7516 247.208 41.6044 247.208C41.5042 247.208 41.4041 247.267 41.3216 247.326V247.873H41.3158Z" fill="black"/>
<path d="M42.675 247.043L42.7751 247.067C42.7633 247.137 42.7515 247.202 42.7515 247.273C42.7515 247.32 42.7515 247.367 42.7633 247.408L42.6573 247.42V247.373C42.6396 247.267 42.6102 247.208 42.4335 247.208C42.351 247.208 42.2274 247.237 42.2274 247.367C42.2274 247.591 42.7869 247.396 42.7869 247.767C42.7869 247.974 42.5807 248.027 42.4394 248.027C42.3393 248.027 42.2745 248.003 42.1861 247.956L42.1685 248.032L42.0742 247.997C42.086 247.944 42.0978 247.885 42.0978 247.826C42.0978 247.773 42.0978 247.72 42.0742 247.667L42.1861 247.65C42.2097 247.826 42.2391 247.903 42.457 247.903C42.5218 247.903 42.675 247.879 42.675 247.762C42.675 247.526 42.1154 247.738 42.1154 247.373C42.1154 247.178 42.2804 247.09 42.4335 247.09C42.5101 247.09 42.5866 247.108 42.6632 247.137L42.6809 247.043H42.675Z" fill="black"/>
<path d="M43.1478 248.292H43.3186V248.41H42.9299V248.292H43.0359V247.232L42.9063 247.256L42.8887 247.15C42.9476 247.15 43.0065 247.138 43.0477 247.091C43.0595 247.073 43.0713 247.056 43.0948 247.056C43.1478 247.056 43.1478 247.115 43.1478 247.162V247.185C43.2185 247.132 43.2715 247.091 43.3598 247.091C43.5778 247.091 43.7073 247.309 43.7073 247.55C43.7073 247.91 43.4482 248.022 43.3422 248.022C43.2715 248.022 43.2126 248.004 43.1478 247.98V248.292ZM43.1478 247.845C43.2008 247.88 43.2597 247.898 43.3186 247.898C43.4835 247.898 43.5954 247.733 43.5954 247.545C43.5954 247.38 43.5189 247.203 43.3598 247.203C43.2774 247.203 43.1949 247.262 43.1478 247.344V247.845Z" fill="black"/>
<path d="M43.8223 247.555C43.8223 247.29 43.9931 247.09 44.211 247.09C44.4289 247.09 44.5997 247.29 44.5997 247.555C44.5997 247.82 44.4289 248.02 44.211 248.02C43.9931 248.02 43.8223 247.814 43.8223 247.555ZM44.4878 247.555C44.4878 247.367 44.3759 247.208 44.211 247.208C44.0461 247.208 43.9342 247.367 43.9342 247.555C43.9342 247.744 44.0461 247.903 44.211 247.903C44.3759 247.903 44.4878 247.744 44.4878 247.555Z" fill="black"/>
<path d="M45.0268 247.874H45.3507V247.992H44.7617V247.874H44.9149V247.232L44.7853 247.256L44.7676 247.15C44.8265 247.15 44.8854 247.138 44.9266 247.091C44.9384 247.073 44.9502 247.056 44.9737 247.056C45.0268 247.056 45.0268 247.115 45.0268 247.162V247.274C45.1269 247.191 45.2211 247.091 45.3507 247.091C45.4449 247.091 45.5038 247.168 45.5333 247.262L45.4214 247.315C45.4096 247.268 45.3919 247.209 45.3389 247.209C45.2447 247.209 45.0974 247.362 45.0268 247.433V247.874Z" fill="black"/>
<path d="M45.9375 247.114H46.3556V247.232H45.9375V247.656C45.9375 247.768 45.9257 247.898 46.0494 247.898C46.1436 247.898 46.2673 247.862 46.3615 247.827L46.3969 247.939C46.2849 247.974 46.1495 248.016 46.0376 248.016C45.9021 248.016 45.8256 247.921 45.8256 247.715V247.232H45.5664V247.114H45.8256V246.879H45.9375V247.114Z" fill="black"/>
<path d="M47.0752 247.928C46.9692 247.981 46.8632 248.017 46.7513 248.017C46.6217 248.017 46.498 247.946 46.498 247.769C46.498 247.592 46.61 247.534 46.7336 247.498C46.8455 247.469 46.9515 247.463 47.0752 247.457V247.404C47.0752 247.28 47.0929 247.204 46.9574 247.204C46.8691 247.204 46.7808 247.227 46.7042 247.286V247.41H46.5923V247.204C46.6983 247.127 46.8279 247.08 46.9398 247.08C47.1224 247.08 47.1871 247.139 47.1871 247.345V247.863H47.3344V247.981H47.0752V247.916V247.928ZM47.0752 247.575C46.9751 247.575 46.8632 247.592 46.7631 247.616C46.6924 247.64 46.61 247.669 46.61 247.775C46.61 247.875 46.6806 247.899 46.7513 247.899C46.8632 247.899 46.9692 247.852 47.0693 247.793V247.569L47.0752 247.575Z" fill="black"/>
<path d="M47.7285 247.113H48.1466V247.23H47.7285V247.654C47.7285 247.766 47.7167 247.896 47.8404 247.896C47.9346 247.896 48.0583 247.861 48.1525 247.825L48.1879 247.937C48.076 247.972 47.9405 248.014 47.8286 248.014C47.6931 248.014 47.6166 247.919 47.6166 247.713V247.23H47.3574V247.113H47.6166V246.877H47.7285V247.113Z" fill="black"/>
<path d="M48.3418 247.874H48.6952V247.238C48.6363 247.249 48.5715 247.261 48.5126 247.261L48.3595 247.249L48.3418 247.132L48.5067 247.143C48.5597 247.143 48.6657 247.143 48.707 247.084C48.7187 247.067 48.7305 247.055 48.7541 247.055C48.8071 247.055 48.8071 247.12 48.8071 247.167V247.88H49.1251V247.997H48.3418V247.88V247.874ZM48.7305 246.89C48.6657 246.89 48.6127 246.831 48.6127 246.76C48.6127 246.69 48.6657 246.625 48.7305 246.625C48.7953 246.625 48.8424 246.684 48.8424 246.76C48.8424 246.837 48.7894 246.89 48.7305 246.89Z" fill="black"/>
<path d="M49.2012 247.556C49.2012 247.291 49.372 247.091 49.5899 247.091C49.8078 247.091 49.9786 247.291 49.9786 247.556C49.9786 247.821 49.8078 248.021 49.5899 248.021C49.372 248.021 49.2012 247.815 49.2012 247.556ZM49.8608 247.556C49.8608 247.368 49.7489 247.209 49.584 247.209C49.4191 247.209 49.3072 247.368 49.3072 247.556C49.3072 247.745 49.4191 247.904 49.584 247.904C49.7489 247.904 49.8608 247.745 49.8608 247.556Z" fill="black"/>
<path d="M50.2747 247.874H50.3984V247.992H50.045V247.874H50.1687V247.232L50.0392 247.256L50.0215 247.15C50.0804 247.15 50.1393 247.138 50.1805 247.091C50.1923 247.073 50.2041 247.056 50.2276 247.056C50.2806 247.056 50.2806 247.115 50.2806 247.162V247.191C50.3749 247.138 50.4632 247.091 50.5633 247.091C50.6517 247.091 50.74 247.126 50.7813 247.226C50.8107 247.303 50.8107 247.397 50.8107 247.48V247.88H50.9344V247.998H50.581V247.88H50.7047V247.486C50.7047 247.356 50.7106 247.209 50.5633 247.209C50.4632 247.209 50.3631 247.268 50.2806 247.327V247.874H50.2747Z" fill="black"/>
<path d="M52.5954 246.689L52.6956 246.725C52.672 246.795 52.6602 246.872 52.6661 246.949L52.6779 247.108L52.5719 247.131C52.566 246.937 52.5248 246.807 52.3363 246.807C52.0889 246.807 52.0006 247.102 52.0006 247.349C52.0006 247.596 52.0889 247.897 52.3304 247.897C52.513 247.897 52.5837 247.75 52.5837 247.555H52.6956V247.826C52.5954 247.938 52.4717 248.015 52.3304 248.015C52.136 248.015 51.8887 247.838 51.8887 247.337C51.8887 246.837 52.136 246.689 52.3304 246.689C52.4129 246.689 52.5012 246.719 52.5778 246.76L52.6013 246.689H52.5954Z" fill="black"/>
<path d="M52.7832 247.556C52.7832 247.291 52.954 247.091 53.1719 247.091C53.3898 247.091 53.5606 247.291 53.5606 247.556C53.5606 247.821 53.3898 248.021 53.1719 248.021C52.954 248.021 52.7832 247.815 52.7832 247.556ZM53.4487 247.556C53.4487 247.368 53.3368 247.209 53.1719 247.209C53.007 247.209 52.8951 247.368 52.8951 247.556C52.8951 247.745 53.007 247.904 53.1719 247.904C53.3368 247.904 53.4487 247.745 53.4487 247.556Z" fill="black"/>
<path d="M54.067 247.726C54.1377 247.726 54.1907 247.79 54.1907 247.873C54.1907 247.955 54.1318 248.02 54.067 248.02C54.0023 248.02 53.9434 247.955 53.9434 247.873C53.9434 247.79 54.0023 247.726 54.067 247.726Z" fill="black"/>
<path d="M54.8555 248.08C54.8967 248.068 54.932 248.05 54.9615 248.015C54.9026 248.015 54.8555 247.956 54.8555 247.886C54.8555 247.803 54.9085 247.738 54.9792 247.738C55.0557 247.738 55.1087 247.821 55.1087 247.909C55.1087 248.062 54.9733 248.168 54.8555 248.198V248.074V248.08Z" fill="black"/>
<path d="M56.8053 246.719V246.837H56.6051V247.873H56.8878C57.0821 247.873 57.0821 247.832 57.0821 247.608V247.549H57.194V247.997H56.3047V247.879H56.499V246.842H56.3047V246.725H56.8112L56.8053 246.719Z" fill="black"/>
<path d="M57.5839 247.114H58.0021V247.232H57.5839V247.656C57.5839 247.768 57.5722 247.898 57.6958 247.898C57.7901 247.898 57.9138 247.862 58.008 247.827L58.0433 247.939C57.9314 247.974 57.796 248.016 57.6841 248.016C57.5486 248.016 57.472 247.921 57.472 247.715V247.232H57.2129V247.114H57.472V246.879H57.5839V247.114Z" fill="black"/>
<path d="M58.7138 247.963C58.6431 247.998 58.5901 248.022 58.5195 248.022C58.3074 248.022 58.1543 247.804 58.1543 247.563C58.1543 247.321 58.3015 247.091 58.5195 247.091C58.5842 247.091 58.6549 247.115 58.7138 247.138V246.785L58.5548 246.809L58.5371 246.703C58.596 246.691 58.6844 246.703 58.7256 246.644C58.7374 246.626 58.7492 246.608 58.7727 246.608C58.8257 246.608 58.8257 246.667 58.8257 246.714V247.886H58.9671V248.004H58.7138V247.969V247.963ZM58.7138 247.268C58.6608 247.233 58.6019 247.209 58.543 247.209C58.3722 247.209 58.2721 247.368 58.2721 247.563C58.2721 247.733 58.3722 247.898 58.5253 247.898C58.596 247.898 58.6608 247.869 58.7138 247.822V247.262V247.268Z" fill="black"/>
<path d="M59.444 247.727C59.5147 247.727 59.5677 247.791 59.5677 247.874C59.5677 247.956 59.5088 248.021 59.444 248.021C59.3792 248.021 59.3203 247.956 59.3203 247.874C59.3203 247.791 59.3792 247.727 59.444 247.727Z" fill="black"/>
</g>
<defs>
<clipPath id="clip0_1693_11432">
<rect width="87" height="260" fill="white"/>
</clipPath>
</defs>
</svg>
