<svg width="36" height="104" viewBox="0 0 36 104" fill="none" xmlns="http://www.w3.org/2000/svg">
<path d="M35.3443 102.229H31.1367C31.1367 102.662 31.4877 103.011 31.9189 103.011H34.5622C34.9956 103.011 35.3443 102.66 35.3443 102.229Z" fill="#4E516A"/>
<path d="M33.6973 103.011V103.497C33.6973 103.661 33.563 103.793 33.4004 103.793H33.08C32.9151 103.793 32.7832 103.659 32.7832 103.497V103.011H33.6973Z" fill="#4E516A"/>
<path d="M29.8324 98.5343L30.313 98.4023L31.4368 102.473C31.6582 102.916 32.12 103.204 32.6171 103.204H33.199V103.703H32.6171C31.9221 103.703 31.2789 103.298 30.9774 102.671L30.9609 102.629L29.8301 98.5343H29.8324Z" fill="#4E516A"/>
<path d="M0.886719 102.229H5.0943C5.0943 102.662 4.74328 103.011 4.31215 103.011H1.66887C1.23539 103.011 0.886719 102.66 0.886719 102.229Z" fill="#4E516A"/>
<path d="M3.45117 103.011V103.497C3.45117 103.661 3.31688 103.793 3.15433 103.793H2.83393C2.66902 103.793 2.53709 103.659 2.53709 103.497V103.011H3.45117Z" fill="#4E516A"/>
<path d="M3.0332 103.702V103.202H3.6151C4.11219 103.202 4.57394 102.917 4.79539 102.472L5.91914 98.4009L6.39974 98.5328L5.25479 102.67C4.95324 103.296 4.31008 103.702 3.6151 103.702H3.0332Z" fill="#4E516A"/>
<path d="M29.3201 101.942H6.91103C6.17365 101.942 5.5729 101.344 5.5729 100.604V98.8109C5.5729 98.4764 5.84382 98.2055 6.17836 98.2055H30.0527C30.3873 98.2055 30.6582 98.4764 30.6582 98.8109V100.604C30.6582 101.341 30.0598 101.942 29.3201 101.942Z" fill="#EED154"/>
<path d="M5.89258 1.76992L5.89258 99.8683C5.89258 100.636 6.51488 101.258 7.28254 101.258H28.9448C29.7124 101.258 30.3347 100.636 30.3347 99.8683V1.76992C30.3347 1.00227 29.7124 0.379956 28.9448 0.379956H7.28254C6.51488 0.379956 5.89258 1.00227 5.89258 1.76992Z" fill="white"/>
<path d="M30.3347 78.7012H5.89258V78.9509H30.3347V78.7012Z" fill="#4E516A"/>
<path d="M30.3347 50.7646H5.89258V51.0144H30.3347V50.7646Z" fill="#4E516A"/>
<path d="M30.3347 22.8311L5.89258 22.8311V23.0808H30.3347V22.8311Z" fill="#4E516A"/>
<path d="M11.4277 74.3026V68.9807C11.4277 68.3258 11.9602 67.791 12.6174 67.791H23.6146C24.2696 67.791 24.8044 68.3234 24.8044 68.9807V74.3026C24.8044 74.9576 24.2719 75.4923 23.6146 75.4923H12.6174C11.9625 75.4923 11.4277 74.9599 11.4277 74.3026ZM24.5523 68.9807C24.5523 68.4624 24.1306 68.0407 23.6123 68.0407H12.6151C12.0968 68.0407 11.6751 68.4624 11.6751 68.9807V74.3026C11.6751 74.8209 12.0968 75.2426 12.6151 75.2426H23.6123C24.1306 75.2426 24.5523 74.8209 24.5523 74.3026V68.9807Z" fill="#4E516A"/>
<path d="M30.3359 15.3728V4.99756L5.89379 4.99756V15.3728L30.3359 15.3728Z" fill="#F7F5FD"/>
<path d="M30.3379 46.7789V28.356L5.89574 28.356V46.7789H30.3379Z" fill="#F7F5FD"/>
<path d="M11.4277 18.7885V13.4666C11.4277 12.8116 11.9602 12.2769 12.6174 12.2769L23.6146 12.2769C24.2696 12.2769 24.8044 12.8093 24.8044 13.4666V18.7885C24.8044 19.4434 24.2719 19.9782 23.6146 19.9782L12.6174 19.9782C11.9625 19.9782 11.4277 19.4458 11.4277 18.7885ZM24.5523 13.4666C24.5523 12.9483 24.1306 12.5266 23.6123 12.5266H12.6151C12.0968 12.5266 11.6751 12.9483 11.6751 13.4666V18.7885C11.6751 19.3068 12.0968 19.7285 12.6151 19.7285H23.6123C24.1306 19.7285 24.5523 19.3068 24.5523 18.7885V13.4666Z" fill="#4E516A"/>
<path d="M11.4277 46.5463V41.2244C11.4277 40.5694 11.9602 40.0347 12.6174 40.0347H23.6146C24.2696 40.0347 24.8044 40.5671 24.8044 41.2244V46.5463C24.8044 47.2012 24.2719 47.736 23.6146 47.736H12.6174C11.9625 47.736 11.4277 47.2036 11.4277 46.5463ZM24.5523 41.2244C24.5523 40.7061 24.1306 40.2844 23.6123 40.2844H12.6151C12.0968 40.2844 11.6751 40.7061 11.6751 41.2244V46.5463C11.6751 47.0646 12.0968 47.4863 12.6151 47.4863H23.6123C24.1306 47.4863 24.5523 47.0646 24.5523 46.5463V41.2244Z" fill="#4E516A"/>
<path d="M5.89258 1.76992L5.89258 99.8683C5.89258 100.636 6.51488 101.258 7.28254 101.258H28.9448C29.7124 101.258 30.3347 100.636 30.3347 99.8683V1.76992C30.3347 1.00227 29.7124 0.379956 28.9448 0.379956H7.28254C6.51488 0.379956 5.89258 1.00227 5.89258 1.76992Z" stroke="#4E516A" stroke-width="0.552441" stroke-miterlimit="10"/>
<path d="M17.6629 89.8179C17.8631 90.0912 18.2024 90.1854 18.6147 90.0181C18.7089 90.699 18.4121 91.6931 18.127 91.9711C18.094 90.6495 17.5003 91.0712 17.6629 89.8179Z" fill="#E7352F"/>
<path d="M15.9457 92.4333C16.2214 92.2331 16.3156 91.9009 16.1483 91.4933C16.8362 91.4014 17.8422 91.6936 18.1249 91.9739C16.7868 92.0092 17.2132 92.5935 15.9434 92.4333H15.9457Z" fill="#0023B6"/>
<path d="M20.31 91.5141C20.0344 91.7143 19.9402 92.0465 20.1074 92.4541C19.4195 92.5459 18.4136 92.2538 18.1309 91.9735C19.469 91.9381 19.0402 91.3539 20.31 91.5141Z" fill="#EFD254"/>
<path d="M18.5926 94.1298C18.39 93.8566 18.0531 93.7623 17.6409 93.9296C17.5466 93.2487 17.8435 92.2546 18.1285 91.9766C18.1662 93.2982 18.7552 92.8765 18.5926 94.1298Z" fill="#3C8029"/>
<path d="M19.9995 93.1747C19.6626 93.1229 19.3563 93.2925 19.182 93.6977C18.6284 93.2831 18.1289 92.3714 18.1289 91.9756C19.1019 92.885 19.215 92.1735 19.9995 93.1747Z" fill="#B2B2B2"/>
<path d="M16.9129 93.8235C16.9671 93.4889 16.7927 93.1874 16.3828 93.0154C16.8022 92.4688 17.7233 91.9741 18.1238 91.9741C17.205 92.9353 17.9236 93.0484 16.9129 93.8235Z" fill="#B2B2B2"/>
<path d="M16.2578 90.774C16.5947 90.8258 16.901 90.6562 17.0753 90.251C17.6289 90.6656 18.1284 91.5773 18.1284 91.9731C17.1554 91.0638 17.0423 91.7752 16.2578 90.774Z" fill="#B2B2B2"/>
<path d="M19.3418 90.124C19.2899 90.4586 19.4619 90.7601 19.8718 90.9321C19.4525 91.4786 18.5314 91.9734 18.1309 91.9734C19.0496 91.0122 18.3311 90.8991 19.3418 90.124Z" fill="#B2B2B2"/>
<path d="M12.0711 97.3988C12.0546 97.3517 12.0523 97.3258 12.0641 97.3211C12.123 97.3235 12.1795 97.3423 12.2337 97.3753C12.3138 97.4342 12.3303 97.5049 12.2832 97.5897C12.2737 97.6062 12.2832 97.6132 12.3209 97.6132H12.5447C12.58 97.6132 12.6036 97.592 12.62 97.5473C12.6318 97.5025 12.6412 97.4554 12.646 97.4106C12.6483 97.3635 12.6719 97.3423 12.719 97.347C12.7685 97.3564 12.8179 97.3706 12.8674 97.3847C12.9122 97.4083 12.9334 97.4224 12.9357 97.4318C12.9357 97.453 12.924 97.4672 12.898 97.4719C12.8815 97.4766 12.8651 97.486 12.8533 97.4954C12.8297 97.5214 12.8062 97.5426 12.7802 97.5614C12.7402 97.5897 12.7237 97.6062 12.7284 97.6085C12.8109 97.6132 12.8957 97.6132 12.9805 97.6132C13.0182 97.6132 13.0512 97.592 13.0865 97.5496L13.1336 97.4884C13.1737 97.446 13.2019 97.4248 13.2137 97.4271C13.275 97.4625 13.3339 97.5096 13.3904 97.5685C13.4328 97.6203 13.4517 97.6509 13.447 97.658C13.4399 97.6674 13.414 97.6721 13.3692 97.6721H11.6282L11.5575 97.6863C11.5104 97.6933 11.4822 97.6815 11.4727 97.6533C11.4633 97.6156 11.4869 97.6015 11.5387 97.6062C11.5646 97.6062 11.5929 97.6109 11.6235 97.6179H12.0688C12.1041 97.6179 12.1159 97.6109 12.1065 97.5967C12.0853 97.5708 12.0782 97.5402 12.0806 97.5049C12.0853 97.4695 12.0806 97.4342 12.0688 97.4036L12.0711 97.3988ZM12.3397 95.7168C12.3397 95.6696 12.3609 95.6484 12.4009 95.6484C12.4528 95.6484 12.507 95.6579 12.5635 95.672C12.5965 95.6767 12.62 95.6885 12.6295 95.712C12.6295 95.7285 12.6177 95.7427 12.5941 95.7497C12.5776 95.7568 12.5682 95.778 12.5682 95.8133V96.4447C12.5682 96.4801 12.5847 96.4989 12.62 96.4989H13.0677C13.1054 96.4989 13.1218 96.4824 13.1218 96.4471V96.3929C13.1218 96.3575 13.1054 96.3387 13.07 96.3387H12.9758C12.9404 96.3387 12.9216 96.3481 12.9216 96.367C12.9216 96.4329 12.8839 96.4612 12.8038 96.4518C12.7567 96.4424 12.7355 96.4164 12.7402 96.374C12.7402 96.3576 12.7213 96.3505 12.686 96.3528C12.6483 96.3576 12.6248 96.3458 12.613 96.3175C12.6083 96.2869 12.6083 96.2704 12.613 96.268L12.6884 96.2727C12.7237 96.2751 12.7402 96.2563 12.7402 96.2138C12.7402 96.1714 12.7237 96.1502 12.6931 96.1526C12.6554 96.1573 12.6318 96.1455 12.6224 96.1173C12.6177 96.0843 12.6342 96.0678 12.6719 96.0701C12.7166 96.0748 12.7378 96.056 12.7378 96.0136C12.7378 95.9712 12.7213 95.9476 12.686 95.95C12.6507 95.9547 12.6295 95.9429 12.62 95.9123C12.6153 95.8817 12.6342 95.8675 12.6719 95.8675C12.7166 95.8722 12.7378 95.8581 12.7378 95.8228V95.7639C12.7378 95.7168 12.7614 95.6956 12.8062 95.6979C12.8509 95.7026 12.898 95.712 12.9499 95.7215C12.9805 95.738 12.9805 95.7568 12.9499 95.778C12.9334 95.7992 12.924 95.8204 12.924 95.8416C12.924 95.8675 12.9404 95.8628 12.9734 95.8251C13.0064 95.7898 13.0253 95.7686 13.0323 95.7686C13.0394 95.7709 13.0582 95.7874 13.0865 95.8157C13.1124 95.8487 13.1242 95.844 13.1242 95.7992V95.7403C13.1242 95.6932 13.1478 95.672 13.1925 95.6767C13.2891 95.6861 13.3574 95.7026 13.3975 95.7238C13.4022 95.7309 13.3975 95.7474 13.381 95.7709C13.3574 95.7992 13.3457 95.8298 13.3457 95.8605V96.4753C13.3621 96.5507 13.3339 96.5955 13.2585 96.612C13.2161 96.6191 13.1737 96.6073 13.1336 96.5743C13.1242 96.5602 13.1054 96.5554 13.0724 96.5554H11.8426C11.8073 96.5554 11.7884 96.5625 11.7861 96.5766C11.7696 96.6332 11.7248 96.6544 11.6494 96.6473C11.5764 96.6379 11.5481 96.5978 11.5623 96.5272V95.7403C11.5623 95.6932 11.5858 95.672 11.6306 95.6767C11.7272 95.6861 11.7955 95.7026 11.8355 95.7238C11.8403 95.7309 11.8355 95.7474 11.819 95.7709C11.7978 95.7992 11.7861 95.8298 11.7861 95.8605V96.4424C11.7861 96.4777 11.8026 96.4965 11.8379 96.4965H12.2879C12.3232 96.4965 12.3421 96.4801 12.3421 96.4447V96.3905C12.3421 96.3599 12.3232 96.3434 12.2855 96.3434H12.1889C12.1536 96.3434 12.1347 96.3552 12.1347 96.3788C12.1206 96.4494 12.0688 96.4683 11.9745 96.4329C11.958 96.4212 11.951 96.4023 11.9533 96.374C11.9533 96.3599 11.9345 96.3528 11.8968 96.3575C11.8591 96.3623 11.8379 96.3505 11.8261 96.3199C11.819 96.2892 11.8379 96.2751 11.8803 96.2751H11.8991C11.9345 96.2798 11.951 96.2586 11.951 96.2162C11.951 96.1738 11.9321 96.1526 11.8944 96.1549C11.8567 96.1597 11.8332 96.1479 11.8238 96.1173C11.819 96.089 11.8379 96.0725 11.8827 96.0725C11.9274 96.0748 11.951 96.056 11.951 96.0183C11.951 95.9806 11.9321 95.9594 11.8944 95.9618C11.8567 95.9665 11.8332 95.9547 11.8238 95.9241C11.819 95.8958 11.819 95.8793 11.8238 95.8769C11.8497 95.8769 11.8732 95.877 11.8991 95.884C11.9345 95.884 11.951 95.8675 11.951 95.8345V95.7615C11.951 95.7144 11.9745 95.6932 12.0193 95.6956C12.0381 95.6956 12.0593 95.7003 12.0829 95.7073C12.1394 95.7168 12.1701 95.7238 12.1771 95.7332C12.1819 95.7427 12.1771 95.7592 12.1607 95.778C12.1442 95.7992 12.1347 95.8228 12.1347 95.851C12.1347 95.8793 12.1512 95.877 12.1866 95.8416C12.2195 95.8063 12.2408 95.7874 12.2502 95.7898C12.2596 95.7945 12.2737 95.811 12.2926 95.8369C12.3256 95.8864 12.3421 95.8934 12.3421 95.8534V95.7168H12.3397ZM13.0347 96.612C13.0488 96.5766 13.0724 96.5696 13.1077 96.5884C13.1855 96.6308 13.2632 96.6897 13.3362 96.7698C13.3386 96.7957 13.3127 96.8052 13.2585 96.7957H11.713L11.6447 96.8052C11.6 96.8075 11.5717 96.7957 11.5646 96.7651C11.5552 96.7345 11.574 96.7204 11.6212 96.7251C11.6494 96.7251 11.6777 96.7298 11.7107 96.7368H12.9004C12.9428 96.7486 12.9711 96.7368 12.9852 96.7015C12.9993 96.6732 13.0158 96.6426 13.0347 96.6143V96.612ZM11.7955 96.9442C11.7955 96.897 11.8167 96.8782 11.8615 96.89C11.8991 96.9018 11.9368 96.9159 11.9745 96.9347C11.9887 96.9442 12.0146 96.9489 12.0499 96.9489H12.8439C12.8792 96.9489 12.9075 96.9347 12.931 96.9041C12.9569 96.8782 12.9923 96.8758 13.0394 96.8923C13.0865 96.9135 13.136 96.9418 13.1902 96.9795C13.2279 97.0125 13.2137 97.0408 13.1525 97.0667C13.1478 97.0761 13.143 97.0997 13.143 97.135C13.143 97.1915 13.143 97.2504 13.1383 97.314C13.0983 97.3635 13.0394 97.3824 12.964 97.3659C12.9357 97.3564 12.9216 97.3376 12.9169 97.3117C12.9145 97.2999 12.8957 97.2952 12.8651 97.2952H12.0711C12.0358 97.2952 12.0146 97.307 12.0075 97.3282C11.9675 97.38 11.9086 97.3988 11.8285 97.3824C11.7955 97.3729 11.7814 97.3399 11.7908 97.2834V96.9442H11.7955ZM12.0853 97.0054C12.0405 97.0101 12.0193 97.0313 12.0193 97.0667V97.1821C12.0193 97.2174 12.0358 97.2363 12.0711 97.2363H12.8651C12.9004 97.2363 12.9192 97.2198 12.9192 97.1845V97.0643C12.9192 97.0243 12.9004 97.0054 12.8627 97.0054H12.0853ZM12.3397 95.9947C12.3397 95.9547 12.335 95.9382 12.3279 95.9476C12.2808 95.9523 12.2337 95.9523 12.1842 95.9523C12.1465 95.9523 12.13 95.9735 12.13 96.0183C12.13 96.0631 12.1347 96.0843 12.1418 96.0866C12.1512 96.0866 12.1724 96.0678 12.2078 96.0301C12.2408 95.9947 12.2737 95.99 12.302 96.016C12.3279 96.0513 12.3397 96.0442 12.3397 95.9971V95.9947ZM12.3397 96.2044C12.3397 96.1644 12.3232 96.1432 12.2902 96.1432H12.1866C12.1489 96.1432 12.1324 96.1667 12.1324 96.2138C12.1324 96.261 12.1347 96.2845 12.1418 96.2892C12.1489 96.2892 12.1677 96.268 12.2007 96.2303C12.2337 96.1597 12.2737 96.1667 12.3185 96.2515C12.3232 96.2657 12.3303 96.2727 12.335 96.268C12.3373 96.2633 12.3397 96.2421 12.3397 96.2044ZM13.1242 95.9759C13.1242 95.9476 13.1054 95.9311 13.0677 95.9311H12.9781C12.9428 95.9311 12.924 95.9547 12.924 95.9995C12.924 96.0489 12.9404 96.056 12.9711 96.0207C13.0041 95.9853 13.0229 95.9688 13.03 95.9688C13.0394 95.9735 13.0559 95.9924 13.0771 96.0207C13.1101 96.0678 13.1242 96.0725 13.1242 96.0348V95.9759ZM13.1242 96.1832C13.1242 96.1408 13.1218 96.122 13.1148 96.129C13.1077 96.1337 13.0818 96.1361 13.037 96.1361H12.9758C12.9381 96.1361 12.9216 96.1526 12.9216 96.1879V96.2303C12.9216 96.2727 12.9428 96.2727 12.9828 96.2303C13.0182 96.1903 13.0394 96.1714 13.0441 96.1738C13.0747 96.195 13.0983 96.2209 13.1124 96.2492C13.1195 96.2492 13.1242 96.2303 13.1242 96.1879V96.1832Z" fill="black"/>
<path d="M15.4425 95.6466C15.459 95.6159 15.4802 95.6089 15.5061 95.6254C15.5697 95.6654 15.6286 95.7149 15.6828 95.7691C15.7252 95.8256 15.7417 95.8562 15.7346 95.8609C15.7252 95.868 15.6969 95.8727 15.6545 95.8727H14.9218C14.8888 95.8727 14.8935 95.8798 14.9312 95.8963C14.9831 95.9222 15.0113 95.941 15.0113 95.9481C15.0066 95.9764 14.9925 95.9882 14.9689 95.9882C14.9524 95.9929 14.9383 96.0023 14.9242 96.0141C14.8912 96.0471 14.8559 96.0777 14.8229 96.1036C14.7828 96.1319 14.7805 96.1484 14.8135 96.1484H15.0844C15.1197 96.1484 15.1527 96.1342 15.1833 96.1059C15.2139 96.0777 15.2564 96.073 15.3129 96.0942C15.3954 96.1342 15.4495 96.1719 15.4754 96.2025C15.4802 96.2285 15.4613 96.252 15.4166 96.2756C15.4118 96.285 15.4095 96.3062 15.4095 96.3392V96.7986C15.426 96.881 15.3883 96.9282 15.2964 96.9423C15.2187 96.9588 15.1786 96.9282 15.1786 96.8528C15.1786 96.8268 15.1621 96.8127 15.1268 96.8127H15.0255C14.9878 96.8127 14.9713 96.8292 14.9713 96.8645V97.5666C14.9407 97.7009 14.8606 97.7692 14.731 97.7692C14.6862 97.7692 14.6556 97.7503 14.6391 97.7056C14.6038 97.6467 14.5614 97.609 14.5095 97.5925C14.4718 97.5831 14.4483 97.5737 14.4412 97.5642C14.4342 97.5501 14.4365 97.5407 14.4483 97.5313C14.4695 97.5289 14.5048 97.5313 14.5543 97.5313L14.632 97.536C14.6721 97.536 14.6957 97.536 14.7051 97.5289C14.7263 97.5077 14.7334 97.4794 14.7263 97.4464V96.8693C14.7263 96.8339 14.7098 96.8151 14.6745 96.8151H14.6108C14.5755 96.8151 14.5567 96.8221 14.5567 96.8363C14.5519 96.8999 14.5143 96.9329 14.4436 96.9399C14.3517 96.9611 14.3117 96.9258 14.3211 96.8363V96.1272C14.3211 96.08 14.3446 96.0612 14.3894 96.073C14.4365 96.0824 14.486 96.1012 14.5378 96.1295C14.5614 96.1436 14.5873 96.1507 14.6156 96.1507C14.6438 96.1507 14.6674 96.1295 14.6815 96.0847C14.6957 96.0353 14.7051 95.9834 14.7098 95.934C14.7145 95.8939 14.7004 95.8751 14.665 95.8751H14.1609C14.1255 95.8751 14.1067 95.8916 14.1067 95.9269V96.3839C14.0996 96.6761 14.0714 96.9258 14.0242 97.1308C13.9653 97.3805 13.8546 97.5737 13.6921 97.7079C13.6756 97.7103 13.6756 97.6867 13.6921 97.6373C13.7651 97.4535 13.8122 97.225 13.8334 96.947C13.8499 96.7962 13.8593 96.6242 13.864 96.4334V95.7808C13.864 95.7314 13.8876 95.7149 13.9324 95.7314L14.0808 95.7973C14.1043 95.8091 14.1326 95.8138 14.1679 95.8138H15.2469C15.294 95.8303 15.3365 95.8068 15.3741 95.7361C15.3954 95.7078 15.4166 95.6772 15.4425 95.6489V95.6466ZM14.2692 97.0365C14.281 96.9894 14.3093 96.9706 14.3541 96.9823C14.4035 96.9988 14.453 97.0177 14.5025 97.0389C14.5567 97.0742 14.5826 97.0954 14.5802 97.1048C14.5755 97.1284 14.5567 97.1402 14.5307 97.1402C14.5166 97.1402 14.4931 97.1637 14.4577 97.2085C14.3281 97.3899 14.1821 97.5265 14.0242 97.6161C13.9771 97.6396 13.9512 97.649 13.9465 97.6443C13.9465 97.6396 13.9606 97.6137 13.9936 97.5689C14.1185 97.4158 14.2103 97.2391 14.2669 97.0365H14.2692ZM15.1786 96.2638C15.1786 96.2237 15.1598 96.2049 15.1221 96.2049H14.6179C14.5732 96.2096 14.5519 96.2308 14.5519 96.2662V96.3981C14.5519 96.4334 14.5684 96.4523 14.6038 96.4523H15.1221C15.1574 96.4523 15.1763 96.4358 15.1763 96.4004V96.2638H15.1786ZM15.1786 96.5724C15.1786 96.5324 15.1621 96.5135 15.1315 96.5135H14.6085C14.5732 96.5135 14.5543 96.53 14.5543 96.5653V96.6996C14.5543 96.735 14.5708 96.7538 14.6061 96.7538H15.1244C15.1598 96.7538 15.1786 96.7373 15.1786 96.702V96.5724ZM15.0702 97.0224C15.0702 97.0224 15.1009 97.0106 15.1456 97.0224C15.2516 97.0436 15.3624 97.0931 15.4754 97.1708C15.6168 97.2839 15.6804 97.397 15.6663 97.5124C15.638 97.6161 15.5697 97.6443 15.466 97.5972C15.4283 97.5689 15.4095 97.5336 15.4071 97.4865C15.3694 97.3216 15.2823 97.1849 15.1386 97.0766C15.0914 97.0483 15.0702 97.0295 15.0702 97.0224Z" fill="black"/>
<path d="M15.8965 96.2453C15.9012 96.2312 15.9248 96.2312 15.9719 96.2406C16.0261 96.2548 16.0802 96.276 16.1344 96.3089C16.2428 96.3796 16.2805 96.4668 16.2475 96.5681C16.2216 96.6482 16.1651 96.6765 16.0755 96.6529C16.0237 96.627 15.9978 96.5822 15.9954 96.521C16.0049 96.455 15.9907 96.389 15.953 96.3231C15.9153 96.2783 15.8965 96.2524 15.8965 96.2453ZM16.787 95.6516C16.787 95.6516 16.8176 95.6422 16.8624 95.6516C16.9189 95.6634 16.9802 95.6846 17.0485 95.7129C17.0933 95.7412 17.1145 95.76 17.1168 95.7694C17.1215 95.7859 17.1098 95.8024 17.0744 95.8142C17.0414 95.8095 17.0202 95.826 17.0061 95.8684C16.992 95.892 16.9802 95.9179 16.9708 95.9461C16.9566 95.9815 16.9708 95.998 17.0037 95.998H17.4749C17.5103 95.998 17.5432 95.9815 17.5715 95.9461C17.5998 95.9014 17.6351 95.8613 17.6752 95.8213C17.6846 95.8189 17.7105 95.8283 17.7529 95.8519C17.8354 95.9155 17.8943 95.972 17.9249 96.0262C17.9249 96.0592 17.899 96.071 17.8471 96.0592H16.9825C16.9472 96.0592 16.9189 96.0804 16.8954 96.1252C16.7894 96.349 16.6409 96.5327 16.4478 96.6788C16.4148 96.6953 16.3889 96.7259 16.3724 96.7707C16.3512 96.8225 16.3347 96.8743 16.3182 96.9309C16.2687 97.0487 16.2546 97.1641 16.2758 97.2772C16.2899 97.3361 16.3064 97.395 16.3253 97.4539C16.3512 97.5505 16.3394 97.6377 16.2899 97.7178C16.2334 97.7743 16.1768 97.7861 16.1156 97.7484C16.0802 97.7248 16.0567 97.6801 16.0449 97.6094C16.0425 97.5599 16.0496 97.4892 16.0638 97.3973C16.0732 97.3573 16.0732 97.296 16.0638 97.2136C16.0567 97.1688 16.0261 97.1264 15.9742 97.0887C15.9271 97.0581 15.9036 97.0393 15.9036 97.0322C15.9036 97.0228 15.9295 97.0228 15.9766 97.0275C16.0402 97.0534 16.085 97.0369 16.1085 96.9804C16.2404 96.7165 16.3747 96.4526 16.5114 96.1888C16.5349 96.144 16.5514 96.1205 16.5585 96.1158C16.5726 96.1158 16.575 96.1417 16.5585 96.1888L16.4383 96.5563C16.4242 96.6034 16.4313 96.6081 16.4572 96.5728C16.6268 96.3066 16.7352 96.0027 16.7846 95.654L16.787 95.6516ZM16.0802 95.6776C16.0802 95.6776 16.1109 95.6611 16.1698 95.6634C16.3041 95.6729 16.403 95.7341 16.4737 95.8448C16.4902 95.9084 16.4855 95.9626 16.4619 96.0074C16.443 96.0357 16.4148 96.0545 16.3818 96.0592C16.3347 96.0686 16.2946 96.0545 16.2616 96.0145C16.2404 95.9862 16.224 95.9367 16.2122 95.866C16.198 95.8166 16.1745 95.7718 16.1368 95.7341C16.0991 95.7011 16.0826 95.6799 16.0826 95.6729L16.0802 95.6776ZM17.3406 96.5987C17.3877 96.5563 17.416 96.5351 17.4231 96.5351C17.5055 96.5681 17.5809 96.6176 17.6469 96.6812C17.6681 96.7094 17.6587 96.7306 17.6186 96.7471C17.5974 96.7566 17.5833 96.766 17.5786 96.7707C17.5692 96.9427 17.5998 97.1264 17.6681 97.3173C17.6917 97.3785 17.7294 97.4327 17.7812 97.4774C17.8024 97.4822 17.8189 97.4727 17.8307 97.4492C17.8589 97.395 17.8872 97.3172 17.9155 97.2183C17.9225 97.2136 17.9296 97.2089 17.9367 97.2089C17.9437 97.2136 17.9484 97.2395 17.9484 97.2843L17.939 97.4374C17.9202 97.5081 17.939 97.574 17.9956 97.6282C18.0356 97.713 18.0121 97.7649 17.9178 97.779C17.7246 97.7814 17.5692 97.6659 17.4514 97.4303C17.3689 97.2489 17.3289 97.0204 17.3359 96.7471C17.3359 96.7071 17.3171 96.6882 17.2794 96.6882H16.7517L16.6833 96.7C16.6362 96.7118 16.6103 96.7 16.6032 96.6694C16.5962 96.6364 16.615 96.6199 16.6621 96.6223L16.7422 96.6317H17.237C17.2723 96.6317 17.3053 96.6199 17.3336 96.5987H17.3406ZM17.4207 96.2618C17.4537 96.2171 17.4891 96.1747 17.5291 96.1322C17.5385 96.1322 17.5644 96.1417 17.6068 96.1676C17.6917 96.2312 17.7482 96.2901 17.7765 96.349C17.767 96.3749 17.7364 96.382 17.6869 96.3725H16.9896L16.9189 96.3843C16.8718 96.3914 16.8435 96.382 16.8341 96.3537C16.8247 96.3184 16.8459 96.3019 16.8977 96.3066L16.9802 96.316H17.3218C17.3595 96.316 17.3901 96.2995 17.4184 96.2665L17.4207 96.2618Z" fill="black"/>
<path d="M19.0902 95.6895C19.0902 95.6447 19.1114 95.6259 19.1561 95.6306C19.208 95.6353 19.2574 95.6424 19.3093 95.6494C19.3611 95.6494 19.3941 95.6706 19.4082 95.7083C19.4129 95.7248 19.3988 95.7413 19.3682 95.7531C19.3328 95.7672 19.321 95.8096 19.3328 95.8827C19.3328 95.918 19.3493 95.9368 19.3846 95.9368H19.6744C19.7262 95.951 19.7687 95.9251 19.7993 95.8591L19.8346 95.8143C19.8794 95.7625 19.9053 95.739 19.9147 95.739C19.9854 95.7719 20.0561 95.8308 20.1267 95.9109C20.155 95.951 20.1644 95.9769 20.1597 95.9863C20.1503 95.991 20.1244 95.9934 20.082 95.9934H19.387C19.3517 95.9934 19.3328 96.0099 19.3328 96.0452V96.1889C19.3328 96.2243 19.3493 96.2431 19.3846 96.2431H19.6579C19.6579 96.2431 19.6744 96.2266 19.6886 96.2101C19.7286 96.1583 19.7545 96.13 19.7663 96.13C19.8488 96.1512 19.9312 96.1936 20.009 96.2572C20.0302 96.2832 20.0184 96.3067 19.9736 96.3303C19.9524 96.3444 19.943 96.368 19.943 96.4033V96.9734C19.9571 97.0747 19.9053 97.1289 19.7899 97.1313C19.7215 97.1289 19.6909 97.0936 19.7003 97.0276C19.7003 96.9993 19.6838 96.9852 19.6485 96.9852H19.3917C19.3564 96.9852 19.3375 97.0017 19.3375 97.037V97.1878C19.3375 97.2232 19.354 97.242 19.3894 97.242H19.7757C19.8276 97.2561 19.87 97.2302 19.9006 97.1643L19.9336 97.1195C19.9736 97.07 19.9995 97.0441 20.0113 97.0441C20.0773 97.07 20.1479 97.1266 20.2257 97.2114C20.254 97.2561 20.2657 97.2797 20.2587 97.2891C20.2516 97.2938 20.2257 97.2985 20.1809 97.2985H19.3917C19.354 97.2985 19.3375 97.315 19.3375 97.3504V97.626C19.3493 97.6943 19.3281 97.7415 19.2763 97.7697C19.1985 97.7956 19.1396 97.7791 19.0972 97.7226C19.0949 97.7132 19.0925 97.6849 19.0925 97.6425V97.3574C19.0925 97.3221 19.076 97.3033 19.0407 97.3033H18.3245L18.2515 97.3174C18.2044 97.3245 18.1761 97.3127 18.1667 97.2797C18.1619 97.2467 18.1832 97.2326 18.2256 97.2349C18.2538 97.2349 18.2821 97.2397 18.3151 97.2467H19.0383C19.0737 97.2467 19.0925 97.2302 19.0925 97.1949V97.0441C19.0925 97.0088 19.076 96.9899 19.0407 96.9899H18.7886C18.7533 96.9899 18.7344 97.0017 18.7344 97.0276C18.7344 97.0865 18.6991 97.1219 18.6355 97.1313C18.5295 97.1548 18.48 97.1195 18.4894 97.0276V96.2266C18.4894 96.1795 18.513 96.163 18.5577 96.1772C18.6072 96.1913 18.659 96.2101 18.7085 96.2337C18.725 96.2431 18.7533 96.2502 18.7863 96.2502H19.036C19.0737 96.2502 19.0902 96.2337 19.0902 96.1984V96.0546C19.0902 96.0193 19.0737 96.0005 19.0383 96.0005H18.4187L18.3481 96.0122C18.3009 96.0217 18.2703 96.0052 18.2562 95.9628L18.2491 95.9368C18.2491 95.9368 18.275 95.9298 18.3198 95.9368C18.3504 95.9368 18.381 95.9416 18.4117 95.9486H19.036C19.0713 95.9486 19.0902 95.9321 19.0902 95.8968V95.7013V95.6895ZM18.8027 96.302H18.7415C18.7415 96.302 18.7297 96.3279 18.7297 96.3633V96.5329C18.7297 96.5682 18.7462 96.5871 18.7815 96.5871H19.0336C19.0713 96.5871 19.0878 96.5706 19.0878 96.5352V96.3562C19.0878 96.3209 19.0713 96.302 19.036 96.302H18.8004H18.8027ZM19.0902 96.7049C19.0902 96.6648 19.0737 96.646 19.043 96.646H18.7863C18.7509 96.646 18.7321 96.6625 18.7321 96.6978V96.8745C18.7321 96.9098 18.7486 96.9287 18.7839 96.9287H19.036C19.0713 96.9287 19.0902 96.9122 19.0902 96.8768V96.7049ZM19.7003 96.3586C19.7003 96.3185 19.6768 96.2997 19.6297 96.302H19.3894C19.3517 96.302 19.3352 96.3185 19.3352 96.3538V96.5329C19.3352 96.5682 19.3517 96.5871 19.387 96.5871H19.6438C19.6791 96.5871 19.698 96.5706 19.698 96.5352V96.3586H19.7003ZM19.7003 96.7049C19.7003 96.6648 19.6838 96.646 19.6532 96.646H19.3917C19.354 96.646 19.3375 96.6625 19.3375 96.6978V96.8745C19.3375 96.9098 19.354 96.9287 19.3894 96.9287H19.6461C19.6815 96.9287 19.7003 96.9122 19.7003 96.8768V96.7049Z" fill="black"/>
<path d="M21.3711 95.7103C21.3711 95.6655 21.3923 95.6443 21.4371 95.6467C21.5243 95.6514 21.602 95.6679 21.6656 95.6914C21.6939 95.7173 21.6868 95.7385 21.6444 95.7597C21.6279 95.7668 21.6185 95.788 21.6185 95.8257V95.8893C21.6185 95.9247 21.635 95.9435 21.6703 95.9435H22.0897C22.1297 95.9529 22.1627 95.9435 22.1863 95.9105C22.2357 95.8469 22.2876 95.8398 22.3441 95.8893C22.4431 95.9435 22.5067 95.9906 22.5349 96.0354C22.542 96.0566 22.5302 96.0707 22.4972 96.0754C22.4619 96.0754 22.4242 96.0919 22.3865 96.1249C22.2899 96.1956 22.2028 96.2498 22.1227 96.2922C22.0967 96.3063 22.0826 96.3016 22.0803 96.2804C22.0803 96.2663 22.092 96.2403 22.1132 96.2026C22.1344 96.1555 22.1533 96.1061 22.1698 96.0542C22.1792 96.0189 22.1651 96.0024 22.1297 96.0024H20.8175C20.7727 96.0071 20.7468 96.0307 20.7398 96.0754C20.7256 96.1532 20.7044 96.2121 20.6809 96.2498C20.6149 96.3252 20.5442 96.3369 20.4688 96.2851C20.4217 96.2451 20.4194 96.1862 20.4618 96.1084C20.4877 96.0754 20.5136 96.0519 20.5442 96.0424C20.629 95.9741 20.6832 95.8917 20.7044 95.7951C20.7115 95.7927 20.7186 95.7951 20.7233 95.7998C20.7327 95.8281 20.7398 95.8587 20.7421 95.887C20.7468 95.9223 20.7704 95.9411 20.8175 95.9435H21.3122C21.3499 95.9435 21.3664 95.927 21.3664 95.8917V95.7103H21.3711ZM21.1002 96.1084C21.1167 96.0589 21.145 96.0377 21.185 96.0448C21.2345 96.0542 21.2863 96.0684 21.3405 96.0896C21.3758 96.099 21.3971 96.1155 21.4018 96.1414C21.3923 96.1626 21.3806 96.1697 21.3664 96.1673C21.3523 96.1697 21.3334 96.1862 21.3099 96.2168C21.291 96.2498 21.2981 96.2663 21.3334 96.2663H21.6209C21.6703 96.2804 21.7151 96.2545 21.7551 96.1909C21.7763 96.1697 21.7928 96.1626 21.807 96.1673C21.8894 96.2168 21.9577 96.2804 22.0072 96.3534C22.0072 96.3864 21.9907 96.4029 21.9507 96.4029C21.9201 96.4029 21.8965 96.4241 21.8776 96.4641C21.8305 96.5466 21.7763 96.6196 21.7174 96.6832C21.6798 96.728 21.6821 96.7586 21.7245 96.7798C21.9625 96.867 22.2193 96.9118 22.4949 96.9141C22.5043 96.9212 22.509 96.9283 22.509 96.933C22.5043 96.94 22.4808 96.9565 22.436 96.9801C22.3912 97.0131 22.3606 97.0484 22.3441 97.0837C22.3276 97.1309 22.3158 97.1591 22.3111 97.1615C22.2946 97.1662 22.2617 97.1662 22.2145 97.1544L22.1839 97.1497C22.1415 97.145 22.1274 97.1497 22.1392 97.1686C22.1604 97.1898 22.1556 97.2133 22.125 97.2345C22.0873 97.2487 22.0755 97.2769 22.085 97.3193V97.6162C22.1062 97.6986 22.0685 97.7457 21.9719 97.7575C21.9036 97.7764 21.8612 97.7575 21.847 97.6939C21.847 97.6562 21.8282 97.6397 21.7928 97.6397H21.2392C21.2039 97.6397 21.185 97.6468 21.185 97.6633C21.1803 97.7363 21.1285 97.774 21.0366 97.7764C20.9589 97.7811 20.9259 97.741 20.9424 97.6609V97.1874C20.9424 97.1521 20.9212 97.1356 20.8764 97.1403C20.6738 97.1686 20.5301 97.1803 20.45 97.1756C20.4429 97.1709 20.4406 97.1638 20.4406 97.1568C20.6597 97.1167 20.8528 97.0555 21.0248 96.9754C21.1426 96.9165 21.2298 96.8623 21.2887 96.8128C21.3358 96.7728 21.3405 96.7327 21.3052 96.6927C21.2369 96.6055 21.1921 96.5372 21.1638 96.4854C21.1473 96.45 21.1167 96.45 21.0719 96.4854C20.9589 96.5796 20.8458 96.6479 20.7374 96.6903C20.6785 96.7092 20.6502 96.7139 20.655 96.7021C20.8976 96.5042 21.046 96.3039 21.1002 96.1013V96.1084ZM21.5785 96.933C21.5313 96.9 21.4842 96.8976 21.4418 96.9259C21.3594 96.9777 21.2675 97.0272 21.1638 97.0696C21.1261 97.0837 21.1214 97.0979 21.1473 97.1097C21.1756 97.1261 21.2062 97.1332 21.2416 97.1332H21.7646C21.7999 97.1332 21.8258 97.1238 21.8447 97.1049C21.8612 97.0837 21.8447 97.0649 21.7976 97.0437C21.7387 97.0178 21.6798 96.9895 21.6209 96.9589L21.5761 96.9353L21.5785 96.933ZM21.847 97.2486C21.847 97.2086 21.8282 97.1898 21.7905 97.1898H21.2439C21.2062 97.1898 21.1874 97.2086 21.1874 97.2439V97.5314C21.1874 97.5667 21.2039 97.5855 21.2392 97.5855H21.7928C21.8305 97.5855 21.847 97.5691 21.847 97.5337V97.2486ZM21.2651 96.3275C21.2439 96.3322 21.2251 96.344 21.2086 96.3581C21.1921 96.3746 21.2015 96.4052 21.2345 96.4477C21.291 96.5113 21.3476 96.5655 21.4065 96.6055C21.4465 96.6338 21.4842 96.6291 21.5196 96.589C21.5879 96.5042 21.6397 96.4194 21.675 96.3369C21.675 96.3299 21.6562 96.3252 21.6209 96.3252H21.2651V96.3275Z" fill="black"/>
<path d="M22.9934 96.6971C23.0122 96.6689 23.0334 96.6618 23.0593 96.6806C23.1041 96.7065 23.1465 96.7325 23.1912 96.7631C23.2313 96.7984 23.2431 96.8314 23.2289 96.855C23.2077 96.8856 23.196 96.9162 23.196 96.9445V97.2602C23.196 97.2955 23.2077 97.3285 23.2313 97.3568C23.3161 97.4251 23.4198 97.4675 23.5376 97.484C23.6318 97.4981 23.7402 97.5075 23.8603 97.5099H24.1831C24.3645 97.5052 24.5294 97.4863 24.6825 97.4581C24.7108 97.4534 24.732 97.451 24.7438 97.451C24.7579 97.4604 24.7438 97.4816 24.7061 97.5146C24.6354 97.5782 24.6024 97.6583 24.6071 97.7573C24.5953 97.762 24.5718 97.7667 24.5341 97.769H24.454H24.209C23.858 97.769 23.6082 97.7337 23.4575 97.6677C23.3326 97.6112 23.2242 97.5099 23.1347 97.3615C23.1041 97.3214 23.0735 97.3261 23.0405 97.3709C22.9769 97.4722 22.9156 97.5759 22.8614 97.6772C22.8402 97.729 22.812 97.7361 22.779 97.6984C22.7531 97.6607 22.7319 97.6206 22.7107 97.5829C22.6894 97.5358 22.7036 97.4934 22.7554 97.4604C22.8072 97.4274 22.8614 97.3827 22.9156 97.3214C22.9415 97.2908 22.9533 97.2578 22.9533 97.2248V96.8715C22.9533 96.8361 22.9368 96.8173 22.9015 96.8173C22.8661 96.8173 22.8308 96.8173 22.7931 96.8291C22.746 96.8338 22.7201 96.8243 22.713 96.7937C22.7036 96.7631 22.7248 96.749 22.7719 96.749L22.885 96.7607C22.9203 96.7607 22.958 96.7395 22.9981 96.6948L22.9934 96.6971ZM22.7389 96.1152C22.7389 96.1152 22.7695 96.1082 22.8143 96.1152C22.9368 96.1317 23.0381 96.1859 23.1159 96.2801C23.1418 96.3249 23.1465 96.3767 23.1276 96.4403C23.1041 96.5039 23.0593 96.5346 22.9957 96.5299C22.925 96.511 22.8873 96.4733 22.8826 96.4144C22.8685 96.3249 22.8426 96.2495 22.8002 96.1953C22.7601 96.1506 22.7413 96.127 22.7413 96.1176L22.7389 96.1152ZM22.8025 95.677C22.8096 95.6582 22.8402 95.6535 22.8944 95.6629C22.9674 95.6723 23.0263 95.6888 23.0711 95.7147C23.1936 95.7901 23.2266 95.8867 23.1677 96.0045C23.13 96.0445 23.0852 96.061 23.0358 96.0516C22.9839 96.0351 22.9533 95.9998 22.9439 95.9433C22.9321 95.8561 22.8991 95.783 22.8473 95.7241C22.819 95.6982 22.8049 95.6817 22.8025 95.6747V95.677ZM23.5234 95.6935C23.5399 95.6393 23.5564 95.637 23.5729 95.6888C23.5823 95.7312 23.6106 95.7548 23.6577 95.7595H24.3291C24.3645 95.7595 24.388 95.7548 24.4022 95.7477C24.4611 95.677 24.5152 95.6605 24.5577 95.7006C24.666 95.7595 24.732 95.809 24.7532 95.849C24.7485 95.8655 24.7367 95.8749 24.7131 95.8773C24.699 95.8773 24.6825 95.8844 24.6613 95.8961C24.6236 95.915 24.5836 95.9362 24.5459 95.9621C24.5129 95.9833 24.5152 96.0092 24.5529 96.0398L24.5789 96.0681C24.6142 96.1152 24.626 96.1411 24.6189 96.1482C24.6071 96.1529 24.5789 96.1576 24.5364 96.1576H24.1524C24.1171 96.1576 24.0983 96.1741 24.0983 96.2095V96.2896C24.0983 96.3249 24.1147 96.3437 24.1501 96.3437H24.2396C24.2773 96.3437 24.3032 96.3343 24.3174 96.3131C24.3362 96.2919 24.3503 96.2801 24.3598 96.2731C24.3692 96.2684 24.3998 96.2778 24.454 96.299C24.5388 96.339 24.5859 96.3791 24.5977 96.4144C24.5883 96.4309 24.5694 96.4474 24.5388 96.4615C24.5365 96.4686 24.5341 96.4898 24.5341 96.5251V96.8809C24.5553 96.9633 24.5176 97.0105 24.421 97.0175C24.3503 97.0269 24.315 96.9963 24.3197 96.9304C24.3197 96.9092 24.3032 96.8997 24.2679 96.8997H24.1548C24.1171 96.8997 24.1006 96.9162 24.1006 96.9516V97.0317C24.1006 97.067 24.1171 97.0858 24.1524 97.0858H24.3763C24.4163 97.0976 24.4469 97.0858 24.4681 97.0505C24.5058 96.9987 24.5412 96.961 24.5741 96.9374C24.6213 96.9633 24.6684 96.9987 24.7155 97.0505C24.7461 97.0953 24.7603 97.1212 24.7603 97.1283C24.7532 97.1377 24.7273 97.1424 24.6825 97.1424H24.1572C24.1195 97.1424 24.103 97.1589 24.103 97.1942V97.3073C24.1124 97.418 24.0606 97.4628 23.9475 97.4416C23.9216 97.4369 23.9004 97.4204 23.8839 97.3945C23.8792 97.3285 23.8792 97.2625 23.8792 97.1966C23.8792 97.1612 23.8627 97.1424 23.8273 97.1424H23.4598L23.3891 97.1565C23.342 97.1636 23.3138 97.1518 23.3043 97.1235C23.2949 97.0882 23.3185 97.0717 23.3703 97.0764C23.3962 97.0764 23.4245 97.0811 23.4551 97.0882H23.825C23.8603 97.0882 23.8792 97.0717 23.8792 97.0364V96.9563C23.8792 96.9209 23.8627 96.9021 23.8273 96.9021H23.7449C23.7095 96.9021 23.6907 96.9139 23.6907 96.9351C23.6718 97.001 23.62 97.0293 23.5376 97.0199C23.5093 97.0128 23.4904 97.0034 23.4834 96.9963C23.4787 96.9869 23.4763 96.9586 23.4763 96.9162V96.3414C23.4763 96.2919 23.4999 96.2731 23.5446 96.2872C23.58 96.2966 23.6153 96.3108 23.6506 96.3296C23.6718 96.3414 23.7001 96.3461 23.7355 96.3461H23.8273C23.8627 96.3461 23.8815 96.3296 23.8815 96.2943V96.2142C23.8815 96.1788 23.865 96.16 23.8297 96.16H23.5847L23.5164 96.1718C23.4692 96.1788 23.4433 96.1765 23.4386 96.1671C23.4268 96.1576 23.4056 96.1482 23.3774 96.1364C23.3138 96.0846 23.309 96.0233 23.3585 95.9503C23.4551 95.8844 23.514 95.7995 23.5352 95.6935H23.5234ZM23.6813 95.8184L23.6483 95.8231C23.6153 95.8255 23.5988 95.8514 23.6012 95.8985C23.6012 95.9409 23.5894 95.9904 23.5705 96.0469C23.5493 96.0822 23.5611 96.1034 23.6059 96.1058H23.8179C23.8532 96.1058 23.8721 96.0893 23.8721 96.054V95.922C23.8721 95.8726 23.898 95.849 23.9498 95.8514C24.0087 95.8584 24.0676 95.8679 24.1265 95.8796C24.1807 95.8985 24.1831 95.9268 24.1336 95.9645C24.11 95.9762 24.0983 96.0021 24.0983 96.0422C24.0983 96.0822 24.1147 96.1034 24.1501 96.1034C24.2137 96.1129 24.2585 96.1034 24.2867 96.0728C24.3221 96.021 24.3598 95.9762 24.3998 95.9362C24.4045 95.9338 24.4139 95.9126 24.421 95.8749C24.4257 95.8372 24.4092 95.8184 24.3739 95.8184H23.6813ZM23.7496 96.4073C23.7025 96.4121 23.6789 96.4333 23.6789 96.4639V96.5464C23.6789 96.5817 23.6954 96.6005 23.7307 96.6005H23.8132C23.8485 96.6005 23.8674 96.584 23.8674 96.5487V96.4615C23.8674 96.4262 23.8509 96.4073 23.8156 96.4073H23.7472H23.7496ZM23.8721 96.716C23.8721 96.6806 23.8556 96.6618 23.8203 96.6618H23.7378C23.7025 96.6618 23.6836 96.6783 23.6836 96.7136V96.7937C23.6836 96.8291 23.7001 96.8479 23.7355 96.8479H23.8179C23.8532 96.8479 23.8721 96.8314 23.8721 96.7961V96.716ZM24.3174 96.4615C24.3174 96.4215 24.2938 96.405 24.2467 96.4073H24.1501C24.1124 96.4073 24.0959 96.4238 24.0959 96.4592V96.5464C24.0959 96.5817 24.1124 96.6005 24.1477 96.6005H24.2608C24.2985 96.6005 24.315 96.584 24.315 96.5487V96.4615H24.3174ZM24.3174 96.716C24.3174 96.6806 24.3009 96.6618 24.2655 96.6618H24.1524C24.1147 96.6618 24.0983 96.6783 24.0983 96.7136V96.7937C24.0983 96.8291 24.1147 96.8479 24.1501 96.8479H24.2632C24.3009 96.8479 24.3174 96.8314 24.3174 96.7961V96.716Z" fill="black"/>
<path d="M11.8896 98.687V98.8354H11.8449V98.8142C11.8449 98.7459 11.8425 98.7365 11.786 98.7365H11.6658V98.9108H11.7648V98.8378H11.8095V99.038H11.7648V98.9579H11.6658V99.1511H11.793V99.1982H11.5527V99.1511H11.6234V98.7365H11.5527V98.6894H11.892L11.8896 98.687Z" fill="black"/>
<path d="M11.9807 99.0413C11.9854 99.1143 12.0325 99.1591 12.1103 99.1591C12.155 99.1591 12.1975 99.1426 12.2422 99.119L12.254 99.1614C12.2092 99.1874 12.1527 99.2062 12.1032 99.2062C11.9736 99.2062 11.9336 99.1049 11.9336 99.0272C11.9336 98.9188 12.0019 98.834 12.0938 98.834C12.1857 98.834 12.2399 98.9 12.2399 99.006C12.2399 99.0177 12.2399 99.0295 12.2375 99.0413H11.9807ZM12.1951 98.9942C12.1951 98.9282 12.148 98.8835 12.0938 98.8835C12.0396 98.8835 11.9901 98.9306 11.9807 98.9942H12.1951Z" fill="black"/>
<path d="M12.3611 99.1488H12.4105V99.1959H12.2692V99.1488H12.3187V98.892L12.2668 98.9014L12.2598 98.859C12.2833 98.859 12.3069 98.8543 12.3234 98.8354C12.3281 98.8284 12.3328 98.8213 12.3422 98.8213C12.3634 98.8213 12.3634 98.8449 12.3634 98.8637V98.8755C12.3988 98.8543 12.4365 98.8354 12.4765 98.8354C12.5118 98.8354 12.5472 98.8496 12.5637 98.8896C12.5755 98.9202 12.5755 98.9579 12.5755 98.9909V99.1511H12.6249V99.1982H12.4836V99.1511H12.533V98.9933C12.533 98.9414 12.5354 98.8825 12.4765 98.8825C12.4365 98.8825 12.3964 98.9061 12.3634 98.9297V99.1488H12.3611Z" fill="black"/>
<path d="M12.9398 98.8458V98.8929H12.8879C12.9021 98.9188 12.9091 98.9376 12.9091 98.9706C12.9091 99.0554 12.8597 99.1025 12.7913 99.1025H12.7678C12.7678 99.1025 12.7324 99.1332 12.7324 99.1426C12.7324 99.1497 12.7584 99.1497 12.7678 99.1497H12.8785C12.9421 99.1497 12.9798 99.1803 12.9798 99.2416C12.9798 99.3499 12.8738 99.3735 12.8031 99.3735C12.7466 99.3735 12.6523 99.3641 12.6523 99.2745C12.6523 99.2368 12.6735 99.2015 12.6995 99.1827C12.6924 99.1756 12.6853 99.1662 12.6853 99.1473C12.6853 99.1238 12.7065 99.1026 12.723 99.0837C12.6853 99.0578 12.6665 99.0248 12.6665 98.9706C12.6665 98.8976 12.7183 98.834 12.7796 98.834C12.7984 98.834 12.8173 98.8387 12.8361 98.8434H12.9398V98.8458ZM12.7489 99.1968C12.7254 99.2156 12.6971 99.2368 12.6971 99.2722C12.6971 99.324 12.7654 99.3264 12.7961 99.3264C12.8432 99.3264 12.9303 99.3169 12.9303 99.2463C12.9303 99.1991 12.8997 99.1968 12.8691 99.1968H12.7489ZM12.7913 98.8835C12.7489 98.8835 12.7136 98.9164 12.7136 98.9683C12.7136 99.0272 12.7466 99.0578 12.7937 99.0578C12.8408 99.0578 12.8644 99.0225 12.8644 98.973C12.8644 98.9212 12.8361 98.8835 12.7913 98.8835Z" fill="black"/>
<path d="M13.1258 98.8457V98.8928H13.0692L13.1658 99.1143L13.2506 98.8928H13.1941V98.8457H13.3425V98.8928H13.2978L13.1658 99.2486C13.1423 99.3122 13.1211 99.3758 13.0528 99.3758C13.0245 99.3758 12.9962 99.364 12.9727 99.3451L12.9891 99.3004C13.008 99.3169 13.0292 99.3287 13.0528 99.3287C13.0904 99.3287 13.1093 99.2674 13.1211 99.2344L13.1423 99.1755L13.0198 98.8952H12.975V98.8481H13.1234L13.1258 98.8457Z" fill="black"/>
<path d="M13.6049 99.1756C13.5696 99.192 13.5413 99.2062 13.5013 99.2062C13.4329 99.2062 13.3929 99.1638 13.3929 99.0601V98.8905L13.3411 98.8999L13.334 98.8575C13.3575 98.8575 13.3811 98.8528 13.3976 98.834C13.4023 98.8269 13.407 98.8198 13.4164 98.8198C13.4376 98.8198 13.4376 98.8434 13.4376 98.8622V99.0436C13.4376 99.1308 13.4541 99.1591 13.5013 99.1591C13.5366 99.1591 13.5743 99.1426 13.6049 99.1237V98.8929L13.5531 98.9023L13.546 98.8599C13.5696 98.8599 13.5931 98.8552 13.6096 98.8363C13.6143 98.8292 13.619 98.8222 13.6285 98.8222C13.6497 98.8222 13.6497 98.8457 13.6497 98.8646V99.152H13.7062V99.1991H13.6049V99.1779V99.1756Z" fill="black"/>
<path d="M13.9457 99.1713C13.9033 99.1925 13.8609 99.2066 13.8161 99.2066C13.7643 99.2066 13.7148 99.1783 13.7148 99.1077C13.7148 99.037 13.7596 99.0134 13.8091 98.9993C13.8538 98.9875 13.8962 98.9852 13.9457 98.9828V98.9616C13.9457 98.9121 13.9528 98.8815 13.8986 98.8815C13.8633 98.8815 13.8279 98.8909 13.7973 98.9145V98.964H13.7525V98.8815C13.7949 98.8509 13.8468 98.832 13.8915 98.832C13.9646 98.832 13.9905 98.8556 13.9905 98.938V99.1454H14.0494V99.1925H13.9457V99.1666V99.1713ZM13.9457 99.0299C13.9057 99.0299 13.8609 99.037 13.8209 99.0464C13.7926 99.0558 13.7596 99.0676 13.7596 99.11C13.7596 99.1501 13.7879 99.1595 13.8161 99.1595C13.8609 99.1595 13.9033 99.1406 13.9434 99.1171V99.0276L13.9457 99.0299Z" fill="black"/>
<path d="M14.1521 99.1502H14.2016V99.1973H14.0602V99.1502H14.1097V98.8934L14.0578 98.9029L14.0508 98.8604C14.0743 98.8604 14.0979 98.8557 14.1144 98.8369C14.1191 98.8298 14.1238 98.8228 14.1332 98.8228C14.1544 98.8228 14.1544 98.8463 14.1544 98.8652V98.8769C14.1921 98.8557 14.2275 98.8369 14.2675 98.8369C14.3029 98.8369 14.3382 98.851 14.3547 98.8911C14.3665 98.9217 14.3665 98.9594 14.3665 98.9924V99.1526H14.4159V99.1997H14.2746V99.1526H14.3241V98.9947C14.3241 98.9429 14.3264 98.884 14.2675 98.884C14.2275 98.884 14.1874 98.9076 14.1544 98.9311V99.1502H14.1521Z" fill="black"/>
<path d="M14.7793 99.1661L14.8547 99.1497V98.7444L14.7793 98.7374V98.6855C14.8052 98.6879 14.8335 98.695 14.8594 98.695C14.8994 98.695 14.9395 98.6855 14.9795 98.6855C15.0361 98.6855 15.0903 98.7256 15.0903 98.7986C15.0903 98.8434 15.0667 98.8882 15.0337 98.9094C15.0926 98.9306 15.128 98.98 15.128 99.0531C15.128 99.1473 15.0738 99.1944 15.0055 99.1944C14.9654 99.1944 14.9254 99.185 14.8877 99.185C14.8547 99.185 14.8193 99.1968 14.7934 99.2038L14.784 99.1638L14.7793 99.1661ZM14.8994 98.8976H14.9301C15.0172 98.8976 15.0432 98.8481 15.0432 98.8033C15.0432 98.7586 15.0125 98.735 14.9748 98.735C14.9489 98.735 14.923 98.7397 14.8971 98.7444V98.8999L14.8994 98.8976ZM14.8994 99.1473L14.9843 99.1567C15.0432 99.1638 15.0808 99.1167 15.0808 99.0531C15.0808 98.9989 15.0526 98.9447 14.956 98.9447H14.8994V99.1473Z" fill="black"/>
<path d="M15.3959 99.1756C15.3606 99.192 15.3323 99.2062 15.2923 99.2062C15.2239 99.2062 15.1839 99.1638 15.1839 99.0601V98.8905L15.1321 98.8999L15.125 98.8575C15.1486 98.8575 15.1721 98.8528 15.1886 98.834C15.1933 98.8269 15.198 98.8198 15.2075 98.8198C15.2287 98.8198 15.2287 98.8434 15.2287 98.8622V99.0436C15.2287 99.1308 15.2452 99.1591 15.2923 99.1591C15.3276 99.1591 15.3653 99.1426 15.3959 99.1237V98.8929L15.3441 98.9023L15.337 98.8599C15.3606 98.8599 15.3841 98.8552 15.4006 98.8363C15.4053 98.8292 15.4101 98.8222 15.4195 98.8222C15.4407 98.8222 15.4407 98.8457 15.4407 98.8646V99.152H15.4972V99.1991H15.3959V99.1779V99.1756Z" fill="black"/>
<path d="M15.7715 98.8174L15.8116 98.8268C15.8069 98.8551 15.8022 98.881 15.8022 98.9093C15.8022 98.9281 15.8022 98.947 15.8069 98.9634L15.7645 98.9682V98.9493C15.7574 98.9069 15.7456 98.8833 15.675 98.8833C15.642 98.8833 15.5925 98.8951 15.5925 98.947C15.5925 99.0365 15.8163 98.9587 15.8163 99.1072C15.8163 99.1896 15.7339 99.2108 15.6773 99.2108C15.6373 99.2108 15.6113 99.2014 15.576 99.1825L15.5689 99.2132L15.5312 99.199C15.536 99.1778 15.5407 99.1543 15.5407 99.1307C15.5407 99.1095 15.5407 99.0883 15.5312 99.0671L15.576 99.06C15.5854 99.1307 15.5972 99.1613 15.6844 99.1613C15.7103 99.1613 15.7715 99.1519 15.7715 99.1048C15.7715 99.0106 15.5477 99.0954 15.5477 98.9493C15.5477 98.8716 15.6137 98.8362 15.675 98.8362C15.7056 98.8362 15.7362 98.8433 15.7668 98.8551L15.7739 98.8174H15.7715Z" fill="black"/>
<path d="M16.5651 98.6885V98.8675H16.5204V98.8039C16.5204 98.745 16.5156 98.7356 16.4662 98.7356H16.4073V99.1502H16.5015V99.1973H16.2706V99.1502H16.3649V98.7356H16.306C16.2565 98.7356 16.2518 98.7427 16.2518 98.8039V98.8675H16.207V98.6885H16.5628H16.5651Z" fill="black"/>
<path d="M16.7076 99.1502H16.8371V99.1973H16.6016V99.1502H16.6628V98.8934L16.611 98.9029L16.6039 98.8604C16.6275 98.8604 16.651 98.8557 16.6675 98.8369C16.6722 98.8298 16.677 98.8228 16.6864 98.8228C16.7076 98.8228 16.7076 98.8463 16.7076 98.8652V98.9099C16.7476 98.8769 16.7853 98.8369 16.8371 98.8369C16.8748 98.8369 16.8984 98.8675 16.9102 98.9052L16.8654 98.9264C16.8607 98.9076 16.8536 98.884 16.8324 98.884C16.7971 98.884 16.7358 98.9453 16.7076 98.9735V99.1502Z" fill="black"/>
<path d="M17.1703 99.1703C17.1279 99.1915 17.0855 99.2056 17.0408 99.2056C16.9889 99.2056 16.9395 99.1774 16.9395 99.1067C16.9395 99.036 16.9842 99.0125 17.0337 98.9983C17.0784 98.9865 17.1209 98.9842 17.1703 98.9818V98.9606C17.1703 98.9112 17.1774 98.8805 17.1232 98.8805C17.0879 98.8805 17.0525 98.89 17.0219 98.9135V98.963H16.9771V98.8805C17.0196 98.8499 17.0714 98.8311 17.1161 98.8311C17.1892 98.8311 17.2151 98.8546 17.2151 98.9371V99.1444H17.274V99.1915H17.1703V99.1656V99.1703ZM17.1703 99.0289C17.1303 99.0289 17.0855 99.036 17.0455 99.0454C17.0172 99.0549 16.9842 99.0666 16.9842 99.109C16.9842 99.1491 17.0125 99.1585 17.0408 99.1585C17.0855 99.1585 17.1279 99.1397 17.168 99.1161V99.0266L17.1703 99.0289Z" fill="black"/>
<path d="M17.3747 99.1492H17.4242V99.1964H17.2829V99.1492H17.3323V98.8925L17.2805 98.9019L17.2734 98.8595C17.297 98.8595 17.3206 98.8548 17.337 98.8359C17.3418 98.8289 17.3465 98.8218 17.3559 98.8218C17.3771 98.8218 17.3771 98.8453 17.3771 98.8642V98.876C17.4148 98.8548 17.4501 98.8359 17.4902 98.8359C17.5255 98.8359 17.5609 98.85 17.5773 98.8901C17.5891 98.9207 17.5891 98.9584 17.5891 98.9914V99.1516H17.6386V99.1987H17.4972V99.1516H17.5467V98.9938C17.5467 98.9419 17.5491 98.883 17.4902 98.883C17.4501 98.883 17.4101 98.9066 17.3771 98.9302V99.1492H17.3747Z" fill="black"/>
<path d="M17.92 98.8174L17.96 98.8268C17.9553 98.8551 17.9506 98.881 17.9506 98.9093C17.9506 98.9281 17.9506 98.947 17.9553 98.9634L17.9129 98.9682V98.9493C17.9059 98.9069 17.8941 98.8833 17.8234 98.8833C17.7904 98.8833 17.7409 98.8951 17.7409 98.947C17.7409 99.0365 17.9647 98.9587 17.9647 99.1072C17.9647 99.1896 17.8823 99.2108 17.8258 99.2108C17.7857 99.2108 17.7598 99.2014 17.7244 99.1825L17.7174 99.2132L17.6797 99.199C17.6844 99.1778 17.6891 99.1543 17.6891 99.1307C17.6891 99.1095 17.6891 99.0883 17.6797 99.0671L17.7244 99.06C17.7339 99.1307 17.7457 99.1613 17.8328 99.1613C17.8587 99.1613 17.92 99.1519 17.92 99.1048C17.92 99.0106 17.6962 99.0954 17.6962 98.9493C17.6962 98.8716 17.7621 98.8362 17.8234 98.8362C17.854 98.8362 17.8846 98.8433 17.9153 98.8551L17.9223 98.8174H17.92Z" fill="black"/>
<path d="M18.1095 99.317H18.1778V99.3641H18.0224V99.317H18.0648V98.8929L18.0129 98.9024L18.0059 98.86C18.0294 98.86 18.053 98.8553 18.0695 98.8364C18.0742 98.8293 18.0789 98.8223 18.0883 98.8223C18.1095 98.8223 18.1095 98.8458 18.1095 98.8647V98.8741C18.1378 98.8529 18.159 98.8364 18.1943 98.8364C18.2815 98.8364 18.3333 98.9236 18.3333 99.0202C18.3333 99.1639 18.2297 99.2086 18.1873 99.2086C18.159 99.2086 18.1354 99.2016 18.1095 99.1921V99.317ZM18.1095 99.138C18.1307 99.1521 18.1543 99.1592 18.1778 99.1592C18.2438 99.1592 18.2886 99.0932 18.2886 99.0178C18.2886 98.9518 18.2579 98.8812 18.1943 98.8812C18.1613 98.8812 18.1284 98.9047 18.1095 98.9377V99.138Z" fill="black"/>
<path d="M18.377 99.0225C18.377 98.9165 18.4453 98.8364 18.5324 98.8364C18.6196 98.8364 18.6879 98.9165 18.6879 99.0225C18.6879 99.1285 18.6196 99.2087 18.5324 99.2087C18.4453 99.2087 18.377 99.1262 18.377 99.0225ZM18.6432 99.0225C18.6432 98.9471 18.5984 98.8835 18.5324 98.8835C18.4665 98.8835 18.4217 98.9471 18.4217 99.0225C18.4217 99.0979 18.4665 99.1615 18.5324 99.1615C18.5984 99.1615 18.6432 99.0979 18.6432 99.0225Z" fill="black"/>
<path d="M18.8599 99.1497H18.9895V99.1969H18.7539V99.1497H18.8152V98.8929L18.7633 98.9024L18.7563 98.86C18.7798 98.86 18.8034 98.8553 18.8199 98.8364C18.8246 98.8293 18.8293 98.8223 18.8387 98.8223C18.8599 98.8223 18.8599 98.8458 18.8599 98.8647V98.9094C18.9 98.8765 18.9377 98.8364 18.9895 98.8364C19.0272 98.8364 19.0507 98.867 19.0625 98.9047L19.0178 98.9259C19.0131 98.9071 19.006 98.8835 18.9848 98.8835C18.9471 98.8835 18.8882 98.9448 18.8599 98.973V99.1497Z" fill="black"/>
<path d="M19.2246 98.8462H19.3919V98.8933H19.2246V99.0629C19.2246 99.1077 19.2199 99.1595 19.2694 99.1595C19.307 99.1595 19.3565 99.1454 19.3942 99.1313L19.4084 99.176C19.3636 99.1901 19.3094 99.2066 19.2646 99.2066C19.2105 99.2066 19.1798 99.1689 19.1798 99.0865V98.8933H19.0762V98.8462H19.1798V98.752H19.2246V98.8462Z" fill="black"/>
<path d="M19.6781 99.1713C19.6357 99.1925 19.5933 99.2066 19.5486 99.2066C19.4967 99.2066 19.4473 99.1783 19.4473 99.1077C19.4473 99.037 19.492 99.0134 19.5415 98.9993C19.5863 98.9875 19.6287 98.9852 19.6781 98.9828V98.9616C19.6781 98.9121 19.6852 98.8815 19.631 98.8815C19.5957 98.8815 19.5603 98.8909 19.5297 98.9145V98.964H19.485V98.8815C19.5274 98.8509 19.5792 98.832 19.624 98.832C19.697 98.832 19.7229 98.8556 19.7229 98.938V99.1454H19.7818V99.1925H19.6781V99.1666V99.1713ZM19.6781 99.0299C19.6381 99.0299 19.5933 99.037 19.5533 99.0464C19.525 99.0558 19.492 99.0676 19.492 99.11C19.492 99.1501 19.5203 99.1595 19.5486 99.1595C19.5933 99.1595 19.6357 99.1406 19.6758 99.1171V99.0276L19.6781 99.0299Z" fill="black"/>
<path d="M19.9394 98.8452H20.1067V98.8923H19.9394V99.062C19.9394 99.1067 19.9347 99.1585 19.9842 99.1585C20.0219 99.1585 20.0714 99.1444 20.1091 99.1303L20.1232 99.175C20.0784 99.1892 20.0242 99.2057 19.9795 99.2057C19.9253 99.2057 19.8947 99.168 19.8947 99.0855V98.8923H19.791V98.8452H19.8947V98.751H19.9394V98.8452Z" fill="black"/>
<path d="M20.1855 99.1493H20.3269V98.8949C20.3033 98.8996 20.2774 98.9043 20.2539 98.9043L20.1926 98.8996L20.1855 98.8525L20.2515 98.8572C20.2727 98.8572 20.3151 98.8572 20.3316 98.8337C20.3363 98.8266 20.341 98.8219 20.3505 98.8219C20.3717 98.8219 20.3717 98.8478 20.3717 98.8666V99.1517H20.4989V99.1988H20.1855V99.1517V99.1493ZM20.341 98.7559C20.3151 98.7559 20.2939 98.7324 20.2939 98.7041C20.2939 98.6758 20.3151 98.6499 20.341 98.6499C20.3669 98.6499 20.3858 98.6735 20.3858 98.7041C20.3858 98.7347 20.3646 98.7559 20.341 98.7559Z" fill="black"/>
<path d="M20.5293 99.023C20.5293 98.917 20.5976 98.8369 20.6848 98.8369C20.772 98.8369 20.8403 98.917 20.8403 99.023C20.8403 99.129 20.772 99.2091 20.6848 99.2091C20.5976 99.2091 20.5293 99.1267 20.5293 99.023ZM20.7932 99.023C20.7932 98.9476 20.7484 98.884 20.6824 98.884C20.6165 98.884 20.5717 98.9476 20.5717 99.023C20.5717 99.0984 20.6165 99.162 20.6824 99.162C20.7484 99.162 20.7932 99.0984 20.7932 99.023Z" fill="black"/>
<path d="M20.9607 99.1497H21.0102V99.1969H20.8688V99.1497H20.9183V98.8929L20.8664 98.9024L20.8594 98.86C20.8829 98.86 20.9065 98.8553 20.923 98.8364C20.9277 98.8293 20.9324 98.8223 20.9418 98.8223C20.963 98.8223 20.963 98.8458 20.963 98.8647V98.8765C21.0007 98.8553 21.0361 98.8364 21.0761 98.8364C21.1115 98.8364 21.1468 98.8505 21.1633 98.8906C21.1751 98.9212 21.1751 98.9589 21.1751 98.9919V99.1521H21.2245V99.1992H21.0832V99.1521H21.1327V98.9942C21.1327 98.9424 21.135 98.8835 21.0761 98.8835C21.0361 98.8835 20.996 98.9071 20.963 98.9306V99.1497H20.9607Z" fill="black"/>
<path d="M21.8882 98.6758L21.9282 98.6899C21.9188 98.7182 21.9141 98.7488 21.9164 98.7794L21.9212 98.8431L21.8787 98.8525C21.8764 98.7747 21.8599 98.7229 21.7845 98.7229C21.6856 98.7229 21.6502 98.8407 21.6502 98.9396C21.6502 99.0386 21.6856 99.1587 21.7822 99.1587C21.8552 99.1587 21.8835 99.0998 21.8835 99.0221H21.9282V99.1305C21.8882 99.1752 21.8387 99.2059 21.7822 99.2059C21.7044 99.2059 21.6055 99.1352 21.6055 98.9349C21.6055 98.7347 21.7044 98.6758 21.7822 98.6758C21.8151 98.6758 21.8505 98.6876 21.8811 98.7041L21.8905 98.6758H21.8882Z" fill="black"/>
<path d="M21.9629 99.023C21.9629 98.917 22.0312 98.8369 22.1184 98.8369C22.2055 98.8369 22.2739 98.917 22.2739 99.023C22.2739 99.129 22.2055 99.2091 22.1184 99.2091C22.0312 99.2091 21.9629 99.1267 21.9629 99.023ZM22.2291 99.023C22.2291 98.9476 22.1843 98.884 22.1184 98.884C22.0524 98.884 22.0077 98.9476 22.0077 99.023C22.0077 99.0984 22.0524 99.162 22.1184 99.162C22.1843 99.162 22.2291 99.0984 22.2291 99.023Z" fill="black"/>
<path d="M22.4753 99.0908C22.5035 99.0908 22.5247 99.1167 22.5247 99.1497C22.5247 99.1827 22.5012 99.2086 22.4753 99.2086C22.4493 99.2086 22.4258 99.1827 22.4258 99.1497C22.4258 99.1167 22.4493 99.0908 22.4753 99.0908Z" fill="black"/>
<path d="M22.791 99.2319C22.8075 99.2271 22.8216 99.2201 22.8334 99.2059C22.8099 99.2059 22.791 99.1824 22.791 99.1541C22.791 99.1211 22.8122 99.0952 22.8405 99.0952C22.8711 99.0952 22.8923 99.1282 22.8923 99.1635C22.8923 99.2248 22.8381 99.2672 22.791 99.279V99.2295V99.2319Z" fill="black"/>
<path d="M23.5713 98.688V98.7351H23.4912V99.1497H23.6043C23.6821 99.1497 23.6821 99.1332 23.6821 99.0437V99.0202H23.7268V99.1992H23.3711V99.1521H23.4488V98.7375H23.3711V98.6903H23.5737L23.5713 98.688Z" fill="black"/>
<path d="M23.8828 98.8462H24.0501V98.8933H23.8828V99.0629C23.8828 99.1077 23.8781 99.1595 23.9276 99.1595C23.9653 99.1595 24.0147 99.1454 24.0524 99.1313L24.0666 99.176C24.0218 99.1901 23.9676 99.2066 23.9228 99.2066C23.8687 99.2066 23.838 99.1689 23.838 99.0865V98.8933H23.7344V98.8462H23.838V98.752H23.8828V98.8462Z" fill="black"/>
<path d="M24.3332 99.1849C24.3049 99.199 24.2837 99.2085 24.2554 99.2085C24.1706 99.2085 24.1094 99.1213 24.1094 99.0247C24.1094 98.9281 24.1683 98.8362 24.2554 98.8362C24.2814 98.8362 24.3096 98.8457 24.3332 98.8551V98.7137L24.2696 98.7232L24.2625 98.6808C24.2861 98.676 24.3214 98.6808 24.3379 98.6572C24.3426 98.6501 24.3473 98.6431 24.3567 98.6431C24.3779 98.6431 24.3779 98.6666 24.3779 98.6855V99.1543H24.4345V99.2014H24.3332V99.1873V99.1849ZM24.3332 98.9069C24.312 98.8928 24.2884 98.8834 24.2649 98.8834C24.1965 98.8834 24.1565 98.947 24.1565 99.0247C24.1565 99.093 24.1965 99.159 24.2578 99.159C24.2861 99.159 24.312 99.1472 24.3332 99.1284V98.9046V98.9069Z" fill="black"/>
<path d="M24.6276 99.0908C24.6559 99.0908 24.6771 99.1167 24.6771 99.1497C24.6771 99.1827 24.6535 99.2086 24.6276 99.2086C24.6017 99.2086 24.5781 99.1827 24.5781 99.1497C24.5781 99.1167 24.6017 99.0908 24.6276 99.0908Z" fill="black"/>
</svg>
