<svg width="1400" height="1659" viewBox="0 0 1400 1659" fill="none" xmlns="http://www.w3.org/2000/svg">
<g clip-path="url(#clip0_2059_8645)">
<path d="M1291.65 1049.66L1166.37 1049.66C1165.14 1049.66 1164.43 1049.71 1162.41 1049.6C1158.93 1049.46 1155.47 1049.31 1151.99 1049.04C1138.12 1047.58 1124.43 1043.54 1111.98 1037.24C1086.98 1024.7 1067 1002.96 1056.56 976.933C1051.31 963.971 1048.46 949.967 1048.29 936.087L1048.21 933.712L1048.15 932.94L1048.06 931.378C1048.13 930.315 1047.83 929.335 1047.71 928.314C1047.63 927.814 1047.6 927.293 1047.5 926.793L1047.08 925.334L1046.75 923.854C1046.63 923.354 1046.38 922.917 1046.21 922.437C1043.54 914.81 1037.88 907.954 1030.65 904.036C1027.06 902.077 1023.17 900.785 1019.13 900.222C1018.63 900.16 1018.13 900.014 1017.61 899.951L1016.04 899.91L1014.48 899.785C1014.36 899.743 1013.67 899.764 1013.13 899.764L957.256 899.764C952.443 899.701 949.319 899.93 941.298 899.472C913.446 897.951 886.156 885.739 866.49 866.024C846.7 846.435 834.367 819.197 832.7 791.335L832.451 786.125L832.367 783.666L832.367 765.889C832.367 765.556 832.367 765.327 832.367 765.264L832.242 763.701C832.034 759.554 831.138 755.574 829.513 751.823C826.368 744.3 820.014 738.006 812.639 734.609C808.952 732.9 804.994 731.879 800.869 731.567L799.307 731.483L798.536 731.421L798.348 731.421L797.932 731.4L600.693 731.4C596.402 731.4 590.632 731.358 589.632 731.567C585.507 731.817 581.528 732.796 577.82 734.442C570.341 737.693 564.029 744.008 560.779 751.468C559.113 755.199 558.154 759.158 557.883 763.285L557.779 764.848C557.779 765.202 557.717 765.16 557.717 765.827L557.717 987.666C557.717 988.874 557.738 989.645 557.654 991.667C557.509 995.147 557.363 998.606 557.071 1002.09C556.592 1005.55 556.071 1009.01 555.488 1012.44C550.071 1039.99 534.281 1065.13 512.115 1081.97C501.054 1090.43 488.408 1096.91 474.993 1100.93C471.618 1101.83 468.222 1102.74 464.827 1103.49C461.389 1104.08 457.931 1104.6 454.473 1105.08C451.015 1105.43 447.536 1105.53 444.057 1105.7L441.62 1105.78L334.959 1105.79C332.522 1105.76 331.043 1105.85 327.022 1105.66C313.169 1105.31 299.17 1102.45 286.254 1097.03C273.317 1091.68 261.422 1083.97 251.277 1074.44C230.903 1055.5 217.695 1028.76 215.091 1000.88C214.862 997.419 214.696 993.938 214.571 990.458L214.571 983.498L214.571 969.952L214.571 915.873C214.529 911.663 213.716 907.662 212.279 903.869C209.425 896.284 203.55 889.636 196.301 885.843C192.697 883.905 188.78 882.675 184.697 882.238C182.739 881.842 171.052 881.946 162.532 881.925L-1.95706e-05 881.925L-2.67214e-05 800.129L176.073 800.129C179.489 800.088 187.864 800.213 194.488 801.025C208.342 802.63 221.987 806.86 234.319 813.425C259.068 826.429 278.692 848.498 288.649 874.694C293.649 887.76 296.253 901.764 296.316 915.644L296.316 942.86L296.316 969.952L296.316 990.083C296.441 991.125 296.503 992.146 296.503 993.209C297.336 1001.36 301.107 1009.05 307.169 1014.74C313.211 1020.4 321.043 1023.8 329.376 1023.88C329.855 1024.01 332.897 1023.97 334.98 1023.97L441.64 1023.97C442.224 1023.97 442.245 1023.93 442.578 1023.91C443.619 1023.8 444.661 1023.82 445.682 1023.74C446.682 1023.53 447.703 1023.38 448.723 1023.28C449.702 1023.01 450.682 1022.72 451.681 1022.51C455.556 1021.32 459.244 1019.45 462.514 1016.92C469.097 1011.92 473.701 1004.5 475.305 996.564C475.409 995.543 475.555 994.543 475.784 993.522C475.826 992.48 475.826 991.438 475.93 990.416C476.013 990.166 475.972 988.687 475.993 987.645L475.993 765.785L476.055 763.389L476.305 758.179C477.159 744.3 480.555 730.441 486.325 717.708C492.075 704.954 500.137 693.305 509.97 683.448C519.844 673.611 531.489 665.567 544.259 659.836C557.009 654.085 570.862 650.709 584.736 649.875C592.756 649.416 596.006 649.625 600.756 649.562L799.077 649.562L801.681 649.687L806.889 649.958C820.764 650.979 834.575 654.543 847.241 660.441C872.615 672.215 893.405 693.242 904.509 719C910.113 731.817 913.321 745.717 913.987 759.596L914.216 764.806L914.216 768.411L914.237 775.184L914.237 783.645C914.237 784.187 914.279 784.249 914.3 784.562L914.404 786.125C914.925 794.336 918.404 802.13 924.278 808.027C930.195 813.904 938.007 817.322 946.215 817.801C947.194 817.989 953.11 817.947 957.339 817.947L1013.21 817.947C1013.77 817.947 1014.23 817.947 1015.23 817.989L1020.44 818.218L1025.65 818.531C1027.38 818.697 1029.11 818.989 1030.83 819.239C1044.65 821.198 1058.17 825.72 1070.39 832.493C1094.91 845.956 1114 868.567 1123.33 894.991C1123.91 896.638 1124.54 898.284 1125.04 899.951L1126.39 905.015L1127.66 910.1C1128.02 911.809 1128.25 913.539 1128.54 915.268C1129.06 918.728 1129.64 922.187 1129.75 925.647L1130 930.857L1130.1 933.461L1130.1 933.795L1130.12 933.899L1130.12 934.087L1130.18 934.483C1130.18 938.671 1131.04 942.693 1132.6 946.445C1135.62 953.989 1141.62 960.511 1148.91 964.179C1152.56 966.013 1156.47 967.201 1160.56 967.659C1161.6 967.659 1162.64 967.701 1163.66 967.805C1163.89 967.889 1165.45 967.847 1166.47 967.847L1400.1 967.847L1400.1 1049.66L1291.76 1049.66L1291.65 1049.66Z" fill="url(#paint0_linear_2059_8645)"/>
<path d="M14.4614 843.193L0.00390625 843.193L0.003906 840.297L14.4614 840.297L14.4614 843.193Z" fill="white"/>
<path d="M67.4301 843.193L40.9316 843.193L40.9316 840.297L67.4301 840.297L67.4301 843.193Z" fill="white"/>
<path d="M122.808 840.297L122.808 843.193L108.351 843.193L93.9141 843.193L93.9141 840.297L108.351 840.297L122.808 840.297Z" fill="white"/>
<path d="M175.782 843.173L149.283 843.194L149.283 840.297L174.636 840.276L175.802 840.276L175.782 843.173Z" fill="white"/>
<path d="M219.714 851.321C220.422 851.758 221.13 852.196 221.901 852.655C223.234 853.488 224.484 854.447 225.755 855.405C226.422 855.906 227.088 856.427 227.776 856.906L226.088 859.261C225.38 858.761 224.693 858.219 224.005 857.698C222.818 856.802 221.63 855.885 220.422 855.134C219.672 854.697 218.943 854.238 218.193 853.78C216.922 852.988 215.672 852.217 214.339 851.55C213.568 851.196 212.797 850.821 212.027 850.446C210.693 849.779 209.36 849.133 208.006 848.612C207.194 848.32 206.402 848.028 205.59 847.716C204.194 847.195 202.777 846.653 201.34 846.257L202.131 843.485C203.652 843.923 205.131 844.465 206.61 845.027C207.402 845.319 208.173 845.611 209.006 845.903C210.485 846.465 211.902 847.174 213.297 847.861C214.047 848.237 214.797 848.612 215.568 848.945L214.964 850.258L215.61 848.966C217.026 849.674 218.36 850.508 219.693 851.342L219.714 851.321Z" fill="white"/>
<path d="M242.838 878.539L245.296 877.018C249.942 884.479 253.15 892.94 254.837 902.173L251.983 902.694C250.358 893.816 247.275 885.709 242.838 878.56L242.838 878.539Z" fill="white"/>
<path d="M253.275 942.852L253.275 928.409L256.171 928.409L256.171 942.852L256.171 957.315L253.275 957.315L253.275 942.852Z" fill="white"/>
<path d="M257.319 1002.54L257.465 1003.46C257.881 1005.54 258.36 1007.63 258.923 1009.69L256.131 1010.44C255.548 1008.31 255.048 1006.17 254.611 1003.94L254.465 1002.98C253.986 999.999 253.506 996.915 253.486 993.872C253.298 991.413 253.277 988.975 253.277 986.703L253.277 983.806L256.173 983.806L256.173 986.703C256.173 988.933 256.173 991.309 256.36 993.747C256.381 996.665 256.84 999.52 257.319 1002.52L257.319 1002.54Z" fill="white"/>
<path d="M273.691 1042.08L272.629 1040.91C271.254 1039.51 270.108 1037.97 268.983 1036.45L267.941 1035.07L270.233 1033.32L271.295 1034.74C272.399 1036.22 273.441 1037.64 274.691 1038.91L275.816 1040.14C277.066 1041.53 278.253 1042.85 279.628 1043.99L278.712 1045.1L279.67 1044.01L280.836 1045.08C282.253 1046.37 283.565 1047.6 285.107 1048.64L286.357 1049.58C287.899 1050.72 289.336 1051.83 290.919 1052.7L289.523 1055.23C287.753 1054.25 286.149 1053.04 284.607 1051.87L283.42 1050.97C281.753 1049.83 280.295 1048.47 278.857 1047.18L277.712 1046.14C276.212 1044.87 274.899 1043.43 273.629 1042.03L273.691 1042.08Z" fill="white"/>
<path d="M334.814 1064.15L341.314 1064.15L341.314 1067.04L334.856 1067.04C328.002 1067.19 321.106 1066.63 314.648 1065.42L315.19 1062.58C320.815 1063.63 326.731 1064.17 332.752 1064.17C333.439 1064.17 334.106 1064.17 334.835 1064.17L334.814 1064.15Z" fill="white"/>
<path d="M396.81 1064.15L396.81 1067.04L382.373 1067.04L367.916 1067.04L367.916 1064.15L382.373 1064.15L396.81 1064.15Z" fill="white"/>
<path d="M443.099 1064.08L445.182 1063.98C446.682 1063.92 448.161 1063.83 449.661 1063.71L449.932 1066.58C448.39 1066.73 446.87 1066.79 445.328 1066.88L443.203 1066.98C440.287 1067.04 437.391 1067.04 434.495 1067.04L426.142 1067.04L423.309 1067.04L423.309 1064.15L426.142 1064.15L434.495 1064.15C437.37 1064.15 440.245 1064.15 443.078 1064.1L443.099 1064.08Z" fill="white"/>
<path d="M488.221 1051.48C486.409 1052.85 484.534 1054.27 482.513 1055.4L482.117 1055.65C480.18 1056.85 478.159 1058.08 475.972 1059.04L474.826 1056.4C476.826 1055.52 478.659 1054.39 480.618 1053.19L481.076 1052.89C482.972 1051.83 484.701 1050.54 486.513 1049.16L486.909 1048.87L487.784 1050.02L486.971 1048.83C488.742 1047.62 490.304 1046.18 491.95 1044.66L492.429 1044.22C494.033 1042.87 495.408 1041.35 496.887 1039.7L497.387 1039.14L499.533 1041.08L499.033 1041.64C497.554 1043.27 496.054 1044.95 494.346 1046.39L493.908 1046.79C492.263 1048.29 490.575 1049.85 488.659 1051.16L488.263 1051.46L488.221 1051.48Z" fill="white"/>
<path d="M518.034 1001.46C517.722 1003.71 517.388 1006.04 516.701 1008.27L516.263 1009.98C515.993 1011.05 515.722 1012.11 515.388 1013.26L513.659 1017.97L510.951 1016.96L512.639 1012.34C512.93 1011.32 513.201 1010.3 513.451 1009.27L513.909 1007.48C514.534 1005.42 514.847 1003.31 515.159 1001.06C515.305 999.98 515.472 998.875 515.638 997.937C515.805 995.812 515.93 993.686 515.993 991.56L518.888 991.644C518.826 993.811 518.701 995.978 518.513 998.292C518.326 999.334 518.18 1000.4 518.034 1001.46Z" fill="white"/>
<path d="M516.094 950.395L516.094 935.953L518.989 935.953L518.989 950.395L518.989 964.859L516.094 964.859L516.094 950.395Z" fill="white"/>
<path d="M518.987 909.446L516.092 909.446L516.092 882.937L518.987 882.937L518.987 909.446Z" fill="white"/>
<path d="M516.094 842.006L516.094 827.543L518.989 827.543L518.989 842.006L518.989 856.47L516.094 856.47L516.094 842.006Z" fill="white"/>
<path d="M518.994 801.074L516.098 801.074C516.098 799.094 516.098 797.135 516.098 795.176L516.057 778.753L516.057 774.564L518.952 774.564L518.952 778.753L518.973 795.176C518.973 797.135 518.973 799.115 518.973 801.074L518.994 801.074Z" fill="white"/>
<path d="M530.111 721.65L532.465 723.317C529.756 727.131 527.402 731.216 525.486 735.467C523.528 739.823 522.007 744.283 520.986 748.722L518.174 748.076C519.236 743.449 520.82 738.802 522.861 734.28L524.173 734.863L522.861 734.259C524.861 729.84 527.298 725.589 530.111 721.629L530.111 721.65Z" fill="white"/>
<path d="M569.361 693.119L573.59 692.035L574.298 694.828L570.194 695.87L567.819 696.724C561.486 698.704 555.57 702.205 550.633 705.352L549.07 702.914C554.174 699.663 560.278 696.058 566.882 693.974L569.319 693.077L569.361 693.119Z" fill="white"/>
<path d="M628.689 689.743L628.689 692.64L614.232 692.64L599.795 692.64L599.795 689.743L614.232 689.743L628.689 689.743Z" fill="white"/>
<path d="M681.668 692.642L655.17 692.642L655.17 689.745L681.668 689.745L681.668 692.642Z" fill="white"/>
<path d="M737.039 689.743L737.039 692.64L722.602 692.64L708.145 692.64L708.145 689.743L722.602 689.743L737.039 689.743Z" fill="white"/>
<path d="M790.018 692.642L763.52 692.642L763.52 689.745L790.018 689.745L790.018 692.642Z" fill="white"/>
<path d="M823.64 697.247L822.432 696.809C820.578 696.038 818.661 695.559 816.62 695.059L815.766 694.85L816.474 692.037L817.307 692.246C819.349 692.766 821.474 693.287 823.453 694.121L824.598 694.538C826.452 695.205 828.39 695.913 830.202 696.872L831.39 697.435C833.16 698.268 834.994 699.143 836.639 700.248L837.785 700.936C839.473 701.936 841.202 702.999 842.785 704.291L840.952 706.542C839.514 705.374 837.952 704.437 836.285 703.436L835.077 702.707C833.535 701.686 831.89 700.894 830.14 700.06L828.932 699.477L829.556 698.185L828.869 699.456C827.202 698.56 825.453 697.935 823.578 697.268L823.64 697.247Z" fill="white"/>
<path d="M858.82 724.963L861.237 723.379C866.299 731.152 869.903 739.447 871.945 748.033L869.132 748.7C867.174 740.447 863.695 732.444 858.82 724.963Z" fill="white"/>
<path d="M874.968 795.405L875.03 795.759C875.113 796.197 875.176 796.634 875.238 797.093C875.343 797.822 875.447 798.552 875.613 799.26L876.53 802.803L873.718 803.533L872.801 799.969C872.614 799.156 872.489 798.343 872.384 797.531L872.134 795.905C871.78 793.633 871.405 791.299 871.364 788.903C871.093 785.193 871.114 781.483 871.114 777.919L871.114 774.314L874.009 774.314L874.009 777.919C874.009 781.442 874.009 785.089 874.259 788.694L872.801 788.798L874.259 788.798C874.28 790.987 874.634 793.154 874.988 795.447L874.968 795.405Z" fill="white"/>
<path d="M900.696 840.901C901.509 841.568 902.363 842.214 903.217 842.839L904.654 843.923C905.029 844.214 905.384 844.485 905.759 844.777L904.05 847.111C903.655 846.82 903.259 846.528 902.884 846.215L901.488 845.173C900.592 844.506 899.696 843.839 898.821 843.11C893.134 838.171 888.635 833.252 885.072 828.105L887.447 826.458C890.884 831.418 895.218 836.149 900.676 840.901L900.696 840.901Z" fill="white"/>
<path d="M939.819 860.555L932.465 859.409L928.924 858.492L929.632 855.7L933.028 856.575L940.194 857.679C940.944 857.763 941.694 857.804 942.444 857.825L943.756 857.888C947.173 858.138 950.61 858.117 953.964 858.117C955.36 858.117 956.756 858.117 958.172 858.117L958.172 861.014C956.756 861.014 955.36 861.014 953.985 861.014C950.589 861.014 947.089 861.035 943.569 860.784L942.34 860.722C941.506 860.68 940.694 860.659 939.819 860.534L939.819 860.555Z" fill="white"/>
<path d="M1011.15 861.034L984.65 861.013L984.65 858.116L1004.5 858.116L1011.15 858.137L1011.15 861.034Z" fill="white"/>
<path d="M1053.08 868.974C1054.42 869.766 1055.75 870.579 1057.08 871.496C1057.75 872.017 1058.42 872.496 1059.1 872.996C1060.35 873.934 1061.62 874.851 1062.83 875.872L1060.98 878.102C1059.81 877.143 1058.6 876.247 1057.39 875.351C1056.71 874.851 1056.02 874.33 1055.39 873.851C1054.17 873.017 1052.87 872.246 1051.6 871.475C1050.87 871.037 1050.12 870.6 1049.42 870.141C1048.1 869.433 1046.77 868.787 1045.42 868.141C1044.62 867.766 1043.85 867.39 1043.15 867.057C1041.77 866.473 1040.35 865.953 1038.94 865.452C1038.12 865.161 1037.31 864.869 1036.5 864.556L1037.52 861.847C1038.31 862.139 1039.1 862.431 1039.9 862.722C1041.37 863.243 1042.83 863.785 1044.33 864.431C1045.08 864.806 1045.85 865.161 1046.62 865.536C1048.04 866.203 1049.44 866.869 1050.81 867.62L1050.12 868.891L1050.89 867.661C1051.62 868.12 1052.35 868.557 1053.08 868.995L1053.08 868.974Z" fill="white"/>
<path d="M1077.33 897.754L1079.83 896.295C1084.25 903.923 1087.27 912.447 1088.77 921.658L1085.91 922.138C1084.45 913.28 1081.56 905.09 1077.31 897.754L1077.33 897.754Z" fill="white"/>
<path d="M1091.63 960.068C1091.06 958.588 1090.48 957.046 1090.06 955.399C1089.88 954.586 1089.65 953.774 1089.44 952.961C1089.02 951.419 1088.6 949.835 1088.33 948.209L1091.19 947.751C1091.44 949.23 1091.81 950.689 1092.23 952.211C1092.46 953.044 1092.69 953.899 1092.88 954.712C1093.25 956.17 1093.77 957.567 1094.33 959.046C1094.63 959.838 1094.94 960.63 1095.21 961.422C1097 965.861 1099.23 970.113 1101.79 974.114L1099.35 975.677C1096.69 971.53 1094.4 967.112 1092.52 962.506L1093.85 961.964L1092.48 962.423C1092.21 961.631 1091.92 960.839 1091.6 960.068L1091.63 960.068Z" fill="white"/>
<path d="M1141.83 1007.58C1132.91 1004.92 1124.85 1000.83 1117.85 995.456L1119.62 993.163C1126.35 998.332 1134.1 1002.25 1142.66 1004.81L1141.83 1007.58Z" fill="white"/>
<path d="M1183.3 980.619L1165.43 980.619C1164.51 980.619 1163.62 980.619 1163.3 980.556C1162.16 980.473 1161.03 980.431 1159.89 980.39L1159.12 980.348C1153.53 979.743 1148.12 978.139 1143.06 975.575C1132.99 970.532 1124.83 961.654 1120.64 951.213C1118.45 945.877 1117.35 940.334 1117.33 934.79L1116.91 926.516C1116.85 923.89 1116.43 921.202 1116.04 918.597L1115.64 915.992C1115.47 914.887 1115.31 913.803 1115.1 912.761L1112.77 903.675C1112.47 902.654 1112.1 901.674 1111.74 900.674L1111.24 899.278C1102.95 875.811 1085.79 855.533 1064.14 843.654C1053.35 837.693 1041.19 833.609 1028.96 831.879L1027.6 831.67C1026.52 831.504 1025.44 831.337 1024.4 831.233L1015.04 830.753C1014.33 830.712 1013.88 830.712 1013.44 830.732L954.608 830.732C950.858 830.732 947.004 830.732 945.338 830.545C933.963 829.878 923.256 825.105 915.194 817.082C907.111 808.996 902.299 798.304 901.59 786.925L901.444 784.487C901.444 784.258 901.403 784.028 901.403 783.653L901.403 768.419L901.174 760.228C900.569 747.87 897.653 735.386 892.737 724.111C883.008 701.499 864.426 682.513 841.781 672.01C830.636 666.82 818.22 663.59 805.929 662.694L801.242 662.465C799.7 662.402 798.055 662.319 797.096 662.34L600.712 662.34C599.442 662.34 598.275 662.34 597.088 662.34C593.879 662.34 590.567 662.319 585.463 662.631C573.11 663.382 560.673 666.445 549.465 671.489C526.821 681.555 508.03 700.332 497.927 722.986C492.865 734.178 489.781 746.64 489.031 758.978L488.781 764.417C488.781 764.938 488.74 765.48 488.74 765.814L488.74 988.434C488.74 989.393 488.74 990.372 488.698 990.664L488.469 994.957C488.219 996.291 488.011 997.625 487.844 999.042C485.636 1010.03 479.24 1020.26 470.283 1027.07C465.783 1030.51 460.762 1033.1 455.283 1034.76C454.409 1034.95 453.554 1035.18 452.679 1035.41L451.2 1035.78C449.846 1035.95 448.513 1036.16 447.034 1036.41L442.534 1036.66C442.305 1036.66 442.076 1036.7 441.68 1036.7L333.291 1036.7C331.478 1036.7 329.749 1036.7 329.083 1036.6C317.833 1036.45 306.98 1031.97 298.501 1024.01C290.168 1016.21 284.981 1005.69 283.856 994.29C283.835 992.915 283.752 991.56 283.648 990.101L283.648 942.814L283.627 915.638C283.585 903.321 281.231 890.733 276.815 879.187C268.024 856.054 250.421 836.193 228.464 824.668C217.548 818.874 205.298 815.06 193.049 813.643C186.945 812.914 179.571 812.789 176.154 812.83L-0.0019727 812.83L-0.00197289 810.663L176.05 810.663C176.425 810.663 176.863 810.663 177.342 810.663C181.154 810.663 187.695 810.83 193.216 811.497C205.736 812.935 218.256 816.832 229.401 822.751C251.796 834.505 269.795 854.804 278.773 878.416C283.273 890.191 285.689 903.05 285.731 915.617L285.731 942.793L285.752 989.997C285.856 991.414 285.939 992.811 285.96 994.144C287.023 1004.96 291.981 1014.99 299.918 1022.43C308.001 1030.03 318.333 1034.28 329.187 1034.45C329.833 1034.55 331.645 1034.55 333.228 1034.53L441.638 1034.53C441.951 1034.53 442.118 1034.53 442.305 1034.49L446.742 1034.24C448.117 1033.99 449.492 1033.78 450.742 1033.64L452.075 1033.28C452.971 1033.05 453.867 1032.8 454.679 1032.62C459.846 1031.05 464.637 1028.59 468.929 1025.3C477.491 1018.8 483.594 1009.05 485.678 998.646C485.844 997.25 486.052 995.874 486.302 994.645L486.532 990.372C486.573 990.018 486.573 989.184 486.573 988.372L486.573 765.73C486.573 765.376 486.573 764.793 486.615 764.23L486.865 758.77C487.636 746.161 490.781 733.448 495.948 722.007C506.28 698.873 525.467 679.7 548.59 669.425C560.027 664.278 572.735 661.152 585.359 660.381C589.463 660.131 592.421 660.089 595.088 660.089C595.775 660.089 596.463 660.089 597.129 660.089C598.317 660.089 599.483 660.089 600.733 660.089L797.096 660.089C797.221 660.089 797.367 660.089 797.534 660.089C798.534 660.089 800.013 660.151 801.388 660.214L806.096 660.443C818.699 661.36 831.365 664.653 842.74 669.967C865.863 680.679 884.82 700.082 894.757 723.174C899.778 734.678 902.757 747.432 903.361 760.062L903.569 764.793L903.569 783.57C903.569 783.862 903.611 784.049 903.632 784.237L903.778 786.738C904.444 797.575 909.048 807.787 916.735 815.477C924.443 823.146 934.651 827.711 945.525 828.315L945.463 829.399L945.588 828.315C947.129 828.503 951.087 828.482 954.587 828.482L1013.4 828.482C1013.88 828.482 1014.35 828.482 1015.1 828.523L1024.54 829.003C1025.67 829.107 1026.79 829.274 1027.9 829.44L1029.25 829.628C1041.73 831.399 1054.16 835.568 1065.16 841.653C1087.27 853.782 1104.79 874.498 1113.27 898.444L1113.77 899.819C1114.14 900.861 1114.52 901.903 1114.85 902.987L1117.2 912.178C1117.43 913.303 1117.6 914.429 1117.79 915.554L1118.18 918.159C1118.6 920.827 1119.01 923.578 1119.08 926.329L1119.47 934.603C1119.49 939.938 1120.56 945.21 1122.64 950.296L1121.74 950.671L1122.64 950.316C1126.62 960.278 1134.41 968.74 1144.01 973.554C1148.85 975.992 1154.01 977.534 1159.26 978.097L1159.95 978.097C1161.12 978.16 1162.28 978.201 1163.53 978.305C1163.85 978.347 1164.64 978.347 1165.39 978.347L1399.98 978.347L1399.98 980.515L1183.28 980.515L1183.3 980.619Z" fill="white"/>
<path d="M1197.74 1008.02L1197.74 1010.92L1183.3 1010.92L1168.85 1010.92L1168.85 1008.02L1183.3 1008.02L1197.74 1008.02Z" fill="white"/>
<path d="M1250.74 1010.92L1224.24 1010.92L1224.24 1008.02L1250.74 1008.02L1250.74 1010.92Z" fill="white"/>
<path d="M1291.65 1040.49L1165.39 1040.49C1164.6 1040.49 1163.81 1040.49 1162.51 1040.43C1159.35 1040.3 1156.16 1040.16 1152.95 1039.91C1140.29 1038.57 1127.54 1034.82 1116.12 1029.05C1093.23 1017.55 1074.62 997.31 1065.1 973.51C1060.27 961.589 1057.65 948.585 1057.48 935.914L1057.21 930.599C1057.23 929.745 1057.1 928.89 1056.94 927.994C1056.87 927.598 1056.79 927.202 1056.75 926.848C1056.71 926.556 1056.67 926.243 1056.62 925.952C1056.58 925.597 1056.54 925.243 1056.48 924.993L1055.5 921.137C1055.4 920.804 1055.27 920.471 1055.15 920.137C1055.04 919.866 1054.94 919.595 1054.83 919.324C1051.35 909.425 1044.17 900.922 1035.11 895.983L1035.65 894.982L1035.11 895.962C1030.54 893.461 1025.61 891.815 1020.44 891.085C1020.15 891.043 1019.86 891.002 1019.56 890.939C1019.21 890.877 1018.86 890.814 1018.59 890.773L1014.44 890.564C1014.25 890.543 1013.84 890.564 1013.15 890.564L957.276 890.564C955.943 890.564 954.735 890.564 953.506 890.564C950.339 890.564 947.048 890.585 941.882 890.293C916.216 888.897 891.114 877.664 872.99 859.491C854.741 841.422 843.408 816.35 841.887 790.716L841.658 785.944L841.575 767.271C841.575 766.52 841.575 765.749 841.575 765.249L841.45 763.228C841.2 757.955 840.013 752.891 837.971 748.118C833.992 738.677 826.201 730.737 816.576 726.298C811.868 724.11 806.848 722.817 801.64 722.421L799.182 722.296C798.682 722.255 798.161 722.213 797.161 722.234L598.631 722.234C594.944 722.234 590.736 722.234 589.152 722.401C583.903 722.713 578.841 723.964 574.112 726.069C564.571 730.237 556.696 738.114 552.509 747.66L551.53 747.243L552.488 747.68C550.363 752.411 549.113 757.475 548.801 762.707L548.655 765.124C548.655 765.291 548.613 765.457 548.634 765.812L548.634 988.515C548.634 989.349 548.634 990.204 548.572 991.558C548.426 994.747 548.301 997.915 548.03 1001.14C547.592 1004.31 547.113 1007.46 546.593 1010.65C541.634 1035.8 527.073 1059.14 506.637 1074.67C496.366 1082.55 484.867 1088.43 472.43 1092.16L472.097 1092.24C469.118 1093.03 466.118 1093.82 463.056 1094.51C459.91 1095.03 456.744 1095.51 453.556 1095.97C451.036 1096.22 448.453 1096.35 445.973 1096.45L382.456 1096.62L333.126 1096.62C331.564 1096.62 329.939 1096.62 327.397 1096.49C301.878 1096.03 276.442 1085.55 257.631 1067.75C238.84 1050.27 226.695 1025.59 224.32 999.999C224.112 996.831 223.966 993.642 223.841 990.433L223.841 942.854L223.82 915.844C223.778 910.634 222.82 905.507 220.945 900.589C217.279 890.898 209.883 882.561 200.676 877.706L201.176 876.747L200.676 877.685C196.072 875.205 191.114 873.662 185.885 873.1C183.114 872.704 175.885 872.725 168.927 872.725C166.782 872.725 164.657 872.725 162.657 872.725L-1.95732e-05 872.725L-1.97627e-05 870.557L162.532 870.557C163.344 870.557 164.178 870.557 165.011 870.557C167.553 870.557 170.219 870.557 172.74 870.557C178.552 870.557 183.656 870.599 186.031 870.953C191.489 871.537 196.717 873.162 201.551 875.767C211.237 880.852 218.987 889.606 222.841 899.797C224.799 904.965 225.82 910.342 225.862 915.823L225.862 942.833L225.882 990.349C226.007 993.517 226.153 996.664 226.362 999.79C228.695 1024.84 240.59 1049.02 259.005 1066.13L258.276 1066.92L259.005 1066.15C277.421 1083.57 302.336 1093.82 327.356 1094.28C329.876 1094.41 331.48 1094.41 333.001 1094.41L439.911 1094.41L445.786 1094.24C448.244 1094.14 450.786 1094.01 453.202 1093.78C456.348 1093.34 459.494 1092.86 462.556 1092.34C465.535 1091.68 468.493 1090.88 471.451 1090.11L471.764 1090.03C483.909 1086.38 495.158 1080.63 505.241 1072.92C525.26 1057.71 539.53 1034.84 544.363 1010.23C544.884 1007.11 545.363 1003.96 545.78 1000.87C546.03 997.727 546.176 994.58 546.301 991.412C546.363 990.099 546.363 989.287 546.363 988.474L546.363 765.77C546.363 765.291 546.363 765.062 546.405 764.853L546.551 762.519C546.905 757.017 548.197 751.703 550.426 746.743C554.842 736.697 563.133 728.424 573.153 724.047C578.111 721.817 583.424 720.525 588.882 720.191C590.257 720.025 593.298 720.004 596.548 720.004C597.214 720.004 597.902 720.004 598.569 720.004L614.255 720.004L722.603 720.004L797.078 720.004C797.265 720.004 797.432 720.004 797.598 720.004C798.369 720.004 798.848 720.046 799.307 720.066L801.744 720.191C807.244 720.608 812.535 721.984 817.472 724.276C827.576 728.945 835.763 737.302 839.95 747.222C842.096 752.203 843.346 757.538 843.616 763.061L843.741 765.082C843.762 765.624 843.762 766.437 843.741 767.25L843.741 781.922L844.054 790.591C845.554 815.704 856.657 840.234 874.531 857.948C892.259 875.746 916.862 886.75 942.006 888.126C947.11 888.438 950.36 888.418 953.485 888.397C954.735 888.397 955.964 888.397 957.276 888.397L1013.4 888.397C1013.98 888.397 1014.52 888.397 1014.65 888.418L1018.73 888.626C1019.15 888.668 1019.54 888.73 1019.94 888.814C1020.21 888.855 1020.46 888.918 1020.73 888.939C1026.17 889.71 1031.36 891.419 1036.15 894.065C1045.69 899.255 1053.25 908.175 1056.9 918.595C1056.98 918.845 1057.06 919.074 1057.17 919.303C1057.33 919.699 1057.48 920.095 1057.6 920.554L1058.6 924.451C1058.69 924.847 1058.73 925.243 1058.79 925.639C1058.83 925.91 1058.85 926.181 1058.92 926.494C1058.96 926.869 1059.02 927.223 1059.08 927.598C1059.25 928.578 1059.42 929.578 1059.37 930.557L1059.65 935.83C1059.79 948.251 1062.37 961.006 1067.1 972.656C1076.44 995.956 1094.66 1015.8 1117.1 1027.07C1128.31 1032.74 1140.79 1036.41 1153.16 1037.72C1156.31 1037.95 1159.47 1038.1 1162.62 1038.24C1163.87 1038.3 1164.62 1038.3 1165.39 1038.3L1400.02 1038.3L1400.02 1040.47L1291.67 1040.47L1291.65 1040.49Z" fill="white"/>
<path d="M1306.11 1008.02L1306.11 1010.92L1291.65 1010.92L1277.19 1010.92L1277.19 1008.02L1291.65 1008.02L1306.11 1008.02Z" fill="white"/>
<path d="M1359.08 1010.92L1332.59 1010.92L1332.59 1008.02L1359.08 1008.02L1359.08 1010.92Z" fill="white"/>
<path d="M1400 1010.92L1385.54 1010.92L1385.54 1008.02L1400 1008.02L1400 1010.92Z" fill="white"/>
</g>
<g clip-path="url(#clip1_2059_8645)">
<path d="M739.701 883.999C738.905 870.818 735.688 857.638 730.249 845.519C724.81 833.401 717.182 822.312 707.83 812.917C698.478 803.554 687.4 795.885 675.295 790.44C663.19 784.962 650.057 781.741 636.89 780.911L631.949 780.679L629.66 780.612H419.064C418.069 780.612 416.643 780.612 416.411 780.579C415.416 780.48 414.454 780.48 413.459 780.446C412.497 780.247 411.535 780.081 410.574 780.015C403.045 778.488 396.014 774.105 391.239 767.863C388.851 764.742 387.06 761.256 385.932 757.571C385.733 756.608 385.468 755.712 385.203 754.782C385.103 753.819 384.97 752.857 384.771 751.894C384.705 750.931 384.738 749.935 384.606 748.939C384.606 748.64 384.539 748.607 384.539 748.043V646.648C384.539 644.656 384.506 641.801 384.639 641.336C384.705 633.434 387.922 625.997 393.328 620.22C398.734 614.477 406.03 610.891 413.757 610.094C414.752 610.094 415.714 610.028 416.709 609.928H422.944H435.812H487.35C500.517 609.862 513.816 607.405 526.219 602.624C551.093 593.162 572.053 574.503 584.39 550.964C590.625 539.244 594.638 526.263 596.164 513.082C596.927 506.807 597.059 498.839 597.026 495.585V328.221H519.387V482.704C519.387 490.804 519.487 501.893 519.089 503.753C518.691 507.637 517.53 511.356 515.673 514.775C512.058 521.648 505.757 527.225 498.56 529.948C494.945 531.309 491.164 532.073 487.151 532.106H461.548H435.812H416.344C413.061 532.239 409.745 532.405 406.461 532.604C379.996 535.061 354.625 547.611 336.649 567C327.595 576.661 320.299 587.949 315.225 600.234C310.084 612.518 307.398 625.798 307.033 638.979C306.834 642.797 306.934 644.224 306.9 646.515V747.91L306.967 750.234C307.133 753.521 307.232 756.841 307.564 760.128C308.028 763.414 308.525 766.701 309.056 769.955C309.786 773.209 310.615 776.429 311.477 779.616C315.291 792.365 321.427 804.384 329.486 814.909C345.471 835.991 369.35 850.998 395.484 856.144C398.767 856.708 402.017 857.206 405.3 857.638C408.584 857.903 411.9 858.069 415.184 858.202C417.074 858.302 417.837 858.269 418.964 858.269H629.561C630.191 858.269 630.158 858.302 630.49 858.335L631.982 858.434C635.895 858.7 639.676 859.597 643.192 861.19C650.289 864.278 656.292 870.287 659.343 877.392C660.902 880.944 661.83 884.696 662.063 888.614C662.228 889.577 662.228 895.055 662.195 899.138V1087.02V1087.22L662.129 1087.95L662.063 1089.44C661.764 1093.36 660.802 1097.11 659.177 1100.63L729.553 1133.43C735.158 1121.38 738.541 1108.27 739.502 1095.09L739.768 1090.14L739.867 1087.65V1086.62V1085.83V899.138C739.834 894.623 740.033 891.536 739.569 883.899L739.701 883.999Z" fill="url(#paint1_linear_2059_8645)"/>
<path d="M642.961 1116.74C639.412 1118.26 635.631 1119.13 631.685 1119.32L630.192 1119.42C630.192 1119.42 629.894 1119.42 629.595 1119.42H612.714L610.393 1119.49L605.451 1119.72C579.019 1121.28 553.15 1133.04 534.578 1151.83C515.84 1170.52 504.265 1196.45 502.839 1222.94C502.408 1230.58 502.607 1233.53 502.574 1238.12V1291.24C502.574 1291.77 502.574 1292.4 502.574 1292.53L502.474 1294.03V1295.52C502.375 1296.02 502.275 1296.48 502.209 1296.95C501.679 1300.8 500.451 1304.48 498.594 1307.9C494.88 1314.78 488.379 1320.16 481.116 1322.68C480.652 1322.84 480.221 1323.08 479.757 1323.21L478.33 1323.54L476.938 1323.94C476.473 1324.04 475.976 1324.04 475.478 1324.14C474.517 1324.27 473.588 1324.54 472.56 1324.47L471.067 1324.54L470.338 1324.6L468.083 1324.7C454.916 1324.87 441.617 1327.59 429.313 1332.57C404.605 1342.47 383.977 1361.49 372.07 1385.23C366.101 1397.08 362.254 1410.06 360.861 1423.28C360.595 1426.56 360.463 1429.88 360.33 1433.17C360.231 1435.1 360.297 1435.76 360.264 1436.92V1659H437.903V1436.92C437.903 1435.96 437.903 1434.46 437.936 1434.23C438.035 1433.24 438.068 1432.27 438.068 1431.28C438.5 1427.39 439.627 1423.67 441.385 1420.22C444.867 1413.28 451.069 1407.57 458.199 1404.72C461.781 1403.26 465.562 1402.43 469.575 1402.43H469.94L470.139 1402.36H470.238H470.537L473.024 1402.26L477.966 1402.03C481.249 1401.93 484.532 1401.36 487.816 1400.9C489.441 1400.63 491.099 1400.4 492.724 1400.07L497.566 1398.87L502.375 1397.58C503.967 1397.11 505.526 1396.52 507.084 1395.95C532.157 1387.09 553.615 1368.93 566.416 1345.65C572.85 1334.03 577.129 1321.18 578.986 1308.04C579.218 1306.41 579.483 1304.75 579.649 1303.12L579.948 1298.18L580.147 1293.23C580.18 1292.27 580.147 1291.84 580.147 1291.3V1238.18C580.147 1234.17 580.113 1228.55 580.279 1227.63C580.71 1219.82 583.994 1212.39 589.565 1206.78C595.17 1201.2 602.566 1197.88 610.36 1197.41L611.852 1197.31C612.151 1197.31 612.217 1197.25 612.714 1197.25H630.59L635.532 1197.01C648.698 1196.38 661.898 1193.33 674.069 1187.98C698.512 1177.43 718.477 1157.67 729.654 1133.57L659.278 1100.77C656.061 1107.77 650.091 1113.81 642.928 1116.8L642.961 1116.74Z" fill="url(#paint2_linear_2059_8645)"/>
<path d="M519.453 209.164V328.254H597.092V209.164C597.092 208.201 597.092 206.707 597.125 206.474C597.225 205.478 597.258 204.516 597.258 203.52C597.689 199.635 598.816 195.917 600.574 192.464C604.057 185.525 610.258 179.814 617.389 176.959C620.971 175.498 624.751 174.668 628.764 174.668H629.129L629.328 174.602H629.428H629.726L632.213 174.502L637.155 174.27C640.438 174.17 643.722 173.606 647.005 173.141C648.63 172.875 650.288 172.643 651.913 172.311L656.755 171.116L661.564 169.821C663.156 169.356 664.715 168.759 666.274 168.194C691.346 159.33 712.804 141.169 725.606 117.895L699.107 103.187L715.026 112.019L716.817 113.015L725.606 117.895C732.04 106.308 736.318 93.4264 738.175 80.3122C738.407 78.6522 738.706 77.0254 738.872 75.3653L739.137 70.4184L739.369 65.4715C739.402 64.5419 739.402 64.1103 739.402 63.5459V10.3918C739.402 6.60692 739.369 1.36122 739.502 0H661.796C661.664 4.38248 661.796 6.90572 661.763 10.3918V63.4795C661.763 64.0107 661.763 64.6747 661.73 64.7743L661.597 66.2684V67.7292C661.531 68.2272 661.398 68.692 661.332 69.19C660.802 73.0413 659.574 76.7265 657.717 80.1462C654.003 87.0187 647.502 92.3972 640.239 94.9205C639.775 95.0865 639.344 95.3189 638.88 95.4517L637.454 95.7837L636.061 96.1821C635.596 96.2817 635.099 96.2817 634.601 96.3813C633.64 96.5141 632.711 96.7797 631.683 96.7133L630.19 96.7797L629.461 96.8461L627.206 96.9457C614.039 97.1117 600.74 99.8342 588.436 104.814C563.728 114.708 543.1 133.732 531.193 157.47C525.224 169.323 521.377 182.304 519.984 195.518C519.718 198.805 519.586 202.125 519.453 205.412C519.354 207.338 519.42 208.002 519.387 209.164H519.453ZM667.136 85.3587L689.854 97.9749L665.644 84.5619L667.136 85.3587Z" fill="url(#paint3_linear_2059_8645)"/>
<path d="M558.987 367.165H556.234V392.364H558.987V367.165Z" fill="white"/>
<path d="M556.234 431.243V444.988H558.987V431.243V417.498H556.234V431.243Z" fill="white"/>
<path d="M556.234 495.319L558.987 495.353V494.224V470.153H556.234V495.319Z" fill="white"/>
<path d="M551.823 531.01C552.487 529.649 553.15 528.321 553.681 526.926C553.946 526.129 554.244 525.399 554.51 524.635C555.04 523.241 555.571 521.813 555.969 520.386L553.316 519.622C552.918 520.983 552.42 522.311 551.923 523.673C551.624 524.436 551.359 525.2 551.094 525.963C550.596 527.225 549.966 528.52 549.336 529.781C548.971 530.512 548.606 531.242 548.275 531.973C547.645 533.234 546.915 534.43 546.152 535.625C545.721 536.322 545.29 537.019 544.859 537.75C544.129 538.912 543.267 540.04 542.405 541.169C541.907 541.833 541.41 542.497 540.912 543.161L543.134 544.755C543.598 544.091 544.096 543.46 544.56 542.829C545.456 541.634 546.384 540.439 547.18 539.177C547.611 538.447 548.009 537.783 548.441 537.086C549.236 535.824 550.032 534.529 550.696 533.201L549.469 532.604L550.729 533.168C551.061 532.438 551.425 531.74 551.757 531.01H551.823Z" fill="white"/>
<path d="M500.285 570.452C509.04 568.859 517.066 565.804 524.163 561.388L522.704 559.064C515.905 563.281 508.211 566.203 499.787 567.763L500.285 570.452Z" fill="white"/>
<path d="M447.918 568.992V571.747H461.648H475.345V568.992H461.648H447.918Z" fill="white"/>
<path d="M404.572 570.121L403.643 570.253C401.554 570.652 399.498 571.15 397.475 571.681L398.204 574.337C400.161 573.806 402.151 573.341 404.141 572.943L405.003 572.81C407.855 572.345 410.575 571.947 413.327 571.913C415.649 571.747 417.904 571.714 420.027 571.714H422.779V568.958H420.027C417.871 568.958 415.549 568.958 413.228 569.158C410.343 569.158 407.424 569.656 404.572 570.087V570.121Z" fill="white"/>
<path d="M374.425 586.123L375.784 585.127L374.126 582.936L372.8 583.932C371.374 584.994 369.881 586.09 368.588 587.385L367.46 588.381C366.134 589.576 364.774 590.805 363.547 592.265L362.552 593.361C361.325 594.722 360.031 596.117 358.937 597.677L358.074 598.806C356.98 600.267 355.819 601.794 354.891 603.487L357.278 604.815C358.108 603.288 359.136 601.927 360.23 600.466L361.126 599.271C362.121 597.81 363.281 596.548 364.508 595.22L365.503 594.125L364.475 593.195L365.537 594.091C366.631 592.797 367.891 591.668 369.218 590.473L370.379 589.41C371.606 588.215 372.932 587.219 374.325 586.19L374.425 586.123Z" fill="white"/>
<path d="M345.306 627.325C344.145 633.467 343.648 640.008 343.781 646.515V652.657H346.533V646.482C346.533 645.818 346.533 645.154 346.533 644.523C346.533 638.813 347.031 633.169 348.026 627.823L345.339 627.325H345.306Z" fill="white"/>
<path d="M346.532 691.701V677.956H343.779V691.701V705.446H346.532V691.701Z" fill="white"/>
<path d="M343.846 749.503L343.945 751.529C344.011 752.989 344.078 754.45 344.21 755.911L346.93 755.646C346.797 754.251 346.731 752.824 346.665 751.396L346.565 749.404C346.499 746.715 346.499 743.959 346.499 741.236V733.302V730.579H343.746V733.302V741.236C343.746 743.992 343.746 746.748 343.812 749.503H343.846Z" fill="white"/>
<path d="M360.727 790.639C359.434 788.912 358.174 787.286 357.179 785.46L356.913 785.028C355.786 783.169 354.691 781.442 353.862 779.517L351.342 780.612C352.237 782.704 353.431 784.596 354.559 786.456L354.791 786.854C355.852 788.78 357.212 790.572 358.505 792.299L358.804 792.664C360.064 794.49 361.523 796.084 362.949 797.644L363.314 798.043C364.674 799.669 366.266 801.097 367.825 802.491L368.355 802.956L370.179 800.898L369.649 800.433C368.09 799.039 366.631 797.711 365.371 796.183L364.939 795.719C363.48 794.158 362.12 792.664 360.993 791.004L359.865 791.801L360.96 790.971L360.661 790.606L360.727 790.639Z" fill="white"/>
<path d="M399.564 819.39C401.686 820.054 403.875 820.353 406.031 820.652C407.026 820.785 408.054 820.917 409.049 821.117C411.238 821.316 413.294 821.415 415.35 821.482L415.45 818.726C413.427 818.66 411.437 818.56 409.414 818.394C408.518 818.228 407.49 818.095 406.429 817.929C404.306 817.631 402.283 817.332 400.326 816.734L398.635 816.303C397.673 816.07 396.678 815.805 395.717 815.539L391.339 813.912L390.41 816.502L394.887 818.129C395.949 818.461 396.977 818.693 397.972 818.959L399.597 819.39H399.564Z" fill="white"/>
<path d="M468.181 821.582V818.826H454.484H440.754V821.582H454.484H468.181Z" fill="white"/>
<path d="M518.526 818.826H493.354V821.582H518.526V818.826Z" fill="white"/>
<path d="M571.091 821.582V818.826H557.361H543.631V821.582H557.361H571.091Z" fill="white"/>
<path d="M621.369 821.549V818.793H617.39H601.802C599.945 818.826 598.088 818.793 596.23 818.793V821.549C598.088 821.549 599.945 821.549 601.802 821.549H617.39H621.369Z" fill="white"/>
<path d="M646.509 820.785L645.879 823.474C650.091 824.437 654.336 825.898 658.448 827.757C662.494 829.583 666.342 831.807 669.99 834.397L671.582 832.172C667.834 829.483 663.788 827.159 659.609 825.267C655.298 823.341 650.92 821.814 646.509 820.818V820.785Z" fill="white"/>
<path d="M697.847 867.1C695.89 860.825 692.474 855.015 689.357 850.167L687.035 851.661C690.02 856.343 693.336 861.954 695.227 867.996L696.056 870.254L697.051 874.138L699.704 873.441L698.676 869.424L697.847 867.1Z" fill="white"/>
<path d="M701.86 912.086V898.375H699.141V912.086V925.831H701.86V912.086Z" fill="white"/>
<path d="M701.893 950.998H699.141V976.197H701.893V950.998Z" fill="white"/>
<path d="M729.951 1015.11V899.238C729.951 898.043 729.951 896.914 729.951 895.818C729.951 895.187 729.951 894.523 729.951 893.892C729.951 891.369 729.917 888.547 729.685 884.663C728.956 872.677 726.004 860.592 721.096 849.736C711.345 827.757 693.138 809.53 671.183 799.702C660.338 794.789 648.266 791.801 636.293 791.07L631.119 790.838C630.589 790.838 630.025 790.805 629.693 790.805H418.367C417.604 790.805 416.808 790.805 416.443 790.771L412.397 790.572C411.237 790.34 409.91 790.141 408.583 789.975C398.7 787.983 389.48 782.206 383.279 774.072C380.161 769.988 377.84 765.439 376.347 760.526C376.181 759.729 375.949 758.899 375.717 758.036L375.385 756.774C375.253 755.579 375.054 754.284 374.822 752.956L374.589 748.74C374.589 748.74 374.589 748.408 374.589 748.109V645.054C374.589 643.56 374.589 641.834 374.656 641.203C374.788 630.911 378.835 621.05 386.064 613.381C393.095 605.844 402.647 601.13 412.895 600.101C414.155 600.101 415.482 600.001 416.808 599.901H461.614H487.416C499.356 599.868 511.56 597.577 522.737 593.294C545.156 584.762 564.425 567.664 575.568 546.382C581.206 535.791 584.888 523.872 586.247 511.986C586.878 506.741 587.043 500.532 587.043 496.913C587.043 496.448 587.043 496.05 587.043 495.685V328.321V208.334C587.043 207.603 587.043 206.873 587.077 206.574C587.176 205.379 587.209 204.283 587.242 203.154V202.49C587.806 197.51 589.265 192.597 591.587 187.982C596.164 178.852 604.19 171.448 613.642 167.663L613.31 166.8L613.675 167.663C618.484 165.704 623.492 164.675 628.566 164.642L636.426 164.243C639.013 164.177 641.633 163.778 644.186 163.38L646.674 162.982C647.735 162.816 648.829 162.65 649.891 162.417L658.613 160.16C659.641 159.861 660.636 159.496 661.631 159.13L662.925 158.666C685.676 150.631 705.309 133.964 716.817 112.948L715.026 111.952C703.75 132.537 684.515 148.838 662.228 156.707L660.901 157.172C659.94 157.504 659.011 157.869 658.049 158.134L649.426 160.359C648.431 160.558 647.403 160.724 646.375 160.89L643.888 161.288C641.434 161.654 638.88 162.052 636.393 162.118L628.533 162.517C623.259 162.517 617.986 163.613 612.945 165.671C603.029 169.655 594.605 177.424 589.829 186.986C587.408 191.8 585.883 196.946 585.286 202.258V202.988C585.219 204.084 585.186 205.146 585.087 206.242C585.053 206.541 585.02 207.371 585.02 208.267V328.254V495.618C585.053 498.872 584.954 505.877 584.258 511.687C582.931 523.341 579.316 534.994 573.811 545.353C562.866 566.203 544.029 582.969 522.073 591.302C511.129 595.486 499.157 597.743 487.483 597.777H461.68H416.808C415.449 597.876 414.155 597.943 412.829 597.976C401.984 599.038 392.001 603.985 384.605 611.887C377.044 619.955 372.799 630.247 372.666 640.937C372.566 641.568 372.566 643.228 372.566 644.955V747.976C372.566 748.374 372.566 748.574 372.6 748.806L372.832 753.089C373.064 754.483 373.263 755.745 373.429 757.04L373.794 758.467C374.026 759.297 374.225 760.094 374.424 760.924C376.016 766.137 378.437 770.918 381.72 775.2C388.187 783.733 397.904 789.809 408.318 791.9C409.678 792.066 410.938 792.266 412.198 792.498L416.278 792.697C416.576 792.73 417.505 792.764 418.4 792.73H629.727C630.058 792.73 630.556 792.73 631.053 792.764L636.227 792.996C647.934 793.726 659.741 796.648 670.387 801.462C691.877 811.09 709.687 828.952 719.272 850.466C724.047 861.124 726.966 872.943 727.662 884.696C727.961 889.543 727.928 892.697 727.928 895.752C727.928 896.881 727.928 898.009 727.928 899.205V1085.86C727.928 1086.79 727.894 1088.35 727.828 1089.81L727.596 1094.26C726.734 1105.94 723.682 1117.76 718.741 1128.36C708.791 1149.87 690.75 1167.53 669.292 1176.79C658.58 1181.48 646.74 1184.23 635 1184.8L627.239 1185.03H612.779C612.414 1185.03 612.182 1185.03 611.983 1185.06L609.662 1185.19C598.883 1185.86 588.702 1190.44 581.041 1198.11C573.413 1205.78 568.902 1215.94 568.272 1226.76C568.073 1228.32 568.073 1232.01 568.106 1235.56V1291.47C568.106 1291.87 568.106 1292.3 568.106 1293L567.642 1301.89C567.542 1302.89 567.377 1303.92 567.244 1304.95L567.045 1306.24C565.387 1317.86 561.54 1329.42 555.868 1339.68C544.592 1360.26 525.357 1376.56 503.07 1384.43L501.743 1384.9C500.782 1385.23 499.853 1385.59 498.891 1385.86L490.268 1388.08C489.273 1388.28 488.245 1388.45 487.217 1388.61L484.73 1389.01C482.276 1389.38 479.722 1389.78 477.235 1389.84L469.375 1390.24C464.101 1390.24 458.828 1391.34 453.787 1393.4C443.871 1397.38 435.447 1405.15 430.671 1414.71C428.25 1419.52 426.725 1424.67 426.128 1429.98V1430.71C426.061 1431.81 426.028 1432.87 425.929 1433.97C425.895 1434.27 425.862 1435.1 425.862 1435.99V1658.97H427.919V1435.96C427.919 1435.23 427.919 1434.5 427.952 1434.2C428.051 1433 428.084 1431.91 428.117 1430.78V1430.12C428.681 1425.14 430.141 1420.22 432.462 1415.61C437.039 1406.48 445.065 1399.07 454.517 1395.29L454.185 1394.42L454.55 1395.29C459.359 1393.33 464.367 1392.3 469.441 1392.27L477.301 1391.87C479.888 1391.8 482.508 1391.4 485.062 1391L487.549 1390.61C488.61 1390.44 489.705 1390.27 490.766 1390.04L499.488 1387.78C500.516 1387.49 501.511 1387.12 502.506 1386.76L503.8 1386.29C526.551 1378.26 546.184 1361.59 557.692 1340.57C563.463 1330.11 567.41 1318.3 569.101 1306.44L569.3 1305.15C569.466 1304.09 569.632 1303.02 569.731 1301.96L570.196 1293C570.229 1292.27 570.196 1291.83 570.196 1291.37V1235.46C570.196 1232.14 570.196 1228.36 570.361 1226.89L569.333 1226.76L570.361 1226.83C570.925 1216.5 575.27 1206.77 582.533 1199.47C589.829 1192.17 599.547 1187.78 609.828 1187.15L612.182 1187.02C612.348 1187.02 612.514 1187.02 612.812 1187.02H630.655L635.132 1186.79C647.105 1186.19 659.21 1183.37 670.121 1178.59C692.043 1169.13 710.45 1151.13 720.631 1129.15C725.672 1118.33 728.79 1106.31 729.652 1094.32L729.884 1089.84C729.951 1088.55 730.017 1087.12 730.017 1086.19C730.017 1086.06 730.017 1085.89 730.017 1085.79V1015.01L729.951 1015.11Z" fill="white"/>
<path d="M701.86 1015.11V1001.36H699.141V1015.11V1028.82H701.86V1015.11Z" fill="white"/>
<path d="M701.893 1053.99H699.141V1079.19H701.893V1053.99Z" fill="white"/>
<path d="M688.064 1129.38C689.291 1127.89 690.286 1126.23 691.248 1124.64L691.911 1123.54C692.972 1121.98 693.802 1120.22 694.597 1118.56L695.128 1117.43C696.057 1115.71 696.72 1113.88 697.35 1112.09L697.748 1110.99C698.544 1109.1 699.042 1107.11 699.539 1105.15L699.738 1104.35L697.085 1103.65L696.886 1104.45C696.388 1106.38 695.924 1108.2 695.228 1109.96L694.796 1111.12C694.166 1112.88 693.569 1114.58 692.707 1116.14L693.934 1116.8L692.707 1116.2L692.143 1117.37C691.347 1119.03 690.618 1120.62 689.623 1122.08L688.926 1123.21C687.965 1124.8 687.069 1126.3 685.975 1127.62L688.097 1129.35L688.064 1129.38Z" fill="white"/>
<path d="M645.912 1154.38L646.542 1157.04C654.701 1155.11 662.561 1151.66 669.957 1146.88L668.464 1144.59C661.367 1149.24 653.772 1152.52 645.945 1154.38H645.912Z" fill="white"/>
<path d="M618.218 1159H621.667V1156.24H618.218C614.835 1156.24 611.32 1156.24 607.771 1156.48C605.516 1156.51 603.294 1156.87 601.138 1157.21L599.579 1157.44C598.817 1157.54 598.021 1157.67 597.258 1157.84L593.875 1158.7L594.571 1161.36L597.921 1160.49C598.584 1160.33 599.281 1160.23 599.977 1160.13C600.408 1160.06 600.806 1160 601.238 1159.93L601.569 1159.86C603.758 1159.53 605.814 1159.2 607.904 1159.17V1157.77L608.003 1159.17C611.419 1158.9 614.868 1158.93 618.218 1158.93V1159Z" fill="white"/>
<path d="M556.3 1182.6C555.604 1183.43 554.974 1184.3 554.344 1185.16L553.349 1186.49C553.083 1186.85 552.785 1187.22 552.52 1187.58L554.742 1189.21C555.007 1188.85 555.272 1188.51 555.538 1188.15L556.566 1186.79C557.163 1185.96 557.76 1185.16 558.39 1184.4C562.9 1179.18 567.411 1175.07 572.12 1171.81L570.561 1169.56C565.653 1172.94 561.01 1177.23 556.3 1182.64V1182.6Z" fill="white"/>
<path d="M542.338 1224.07C542.338 1223.38 542.405 1222.64 542.471 1221.95L543.532 1215.14L544.361 1211.92L541.708 1211.22L540.846 1214.58L539.751 1221.55C539.652 1222.38 539.619 1223.14 539.586 1223.94L539.519 1225.1C539.287 1228.45 539.287 1231.77 539.287 1235C539.287 1236.32 539.287 1237.62 539.287 1238.95H542.04C542.04 1237.65 542.04 1236.32 542.04 1235C542.04 1231.81 542.04 1228.55 542.239 1225.3L542.305 1224.04L542.338 1224.07Z" fill="white"/>
<path d="M539.32 1289.34L542.04 1289.38L542.073 1283.07V1264.18H539.32V1289.34Z" fill="white"/>
<path d="M535.041 1323.11C535.373 1322.38 535.737 1321.65 536.102 1320.92C536.732 1319.49 537.23 1318.1 537.727 1316.7C537.993 1315.94 538.258 1315.17 538.556 1314.44L536.003 1313.48C535.704 1314.25 535.439 1315.01 535.14 1315.81C534.643 1317.13 534.179 1318.49 533.615 1319.79C533.283 1320.45 532.918 1321.18 532.587 1321.95C531.99 1323.24 531.36 1324.5 530.696 1325.77C530.265 1326.46 529.834 1327.16 529.436 1327.86C528.706 1329.09 527.977 1330.28 527.181 1331.48C526.717 1332.07 526.252 1332.7 525.755 1333.37C524.893 1334.53 524.063 1335.69 523.135 1336.79L525.257 1338.55C526.219 1337.42 527.081 1336.19 527.977 1335C528.441 1334.36 528.939 1333.7 529.403 1333.07C530.265 1331.81 531.028 1330.55 531.791 1329.25C532.222 1328.55 532.62 1327.86 533.051 1327.16L531.89 1326.43L533.084 1327.09C533.781 1325.8 534.444 1324.47 535.074 1323.11H535.041Z" fill="white"/>
<path d="M481.746 1363.18C490.468 1361.76 498.56 1358.87 505.823 1354.68L504.43 1352.29C497.466 1356.34 489.705 1359.07 481.281 1360.46L481.712 1363.18H481.746Z" fill="white"/>
<path d="M450.372 1367.07C451.168 1366.87 451.963 1366.67 452.759 1366.47C454.219 1366.07 455.578 1365.71 457.005 1365.47L456.573 1362.75C455.015 1363.02 453.522 1363.41 452.063 1363.78C451.3 1363.98 450.504 1364.18 449.741 1364.38C448.183 1364.78 446.723 1365.34 445.33 1365.87C444.601 1366.14 443.838 1366.44 443.075 1366.7L443.506 1368L442.976 1366.74C438.598 1368.49 434.419 1370.69 430.473 1373.24L431.965 1375.57C435.746 1373.11 439.825 1371.02 444.004 1369.32C444.767 1369.06 445.496 1368.79 446.259 1368.49C447.652 1367.96 448.979 1367.47 450.372 1367.1V1367.07Z" fill="white"/>
<path d="M432.959 1341.7L433.324 1342.57C444.401 1338.08 456.473 1335.63 468.28 1335.46L473.288 1335.19C474.216 1335.23 475.178 1335.06 476.107 1334.9C476.472 1334.83 476.803 1334.76 477.168 1334.73C477.466 1334.7 477.732 1334.66 477.964 1334.63C478.329 1334.6 478.727 1334.53 479.092 1334.46L482.806 1333.5C483.237 1333.37 483.602 1333.24 484 1333.07C484.232 1332.97 484.464 1332.9 484.663 1332.8C494.546 1329.32 503.037 1322.15 507.945 1313.08C510.432 1308.53 512.091 1303.59 512.82 1298.44C512.853 1298.18 512.886 1297.94 512.953 1297.68C513.019 1297.28 513.085 1296.91 513.119 1296.52L513.318 1292.63C513.318 1292.63 513.318 1292 513.318 1291.44V1238.08C513.318 1236.82 513.318 1235.66 513.318 1234.46C513.318 1231.48 513.318 1228.39 513.583 1223.54C514.876 1199.64 525.323 1176.26 542.204 1159.4C559.019 1142.4 582.3 1131.84 606.146 1130.45L614.371 1130.15H628.3C629.063 1130.15 629.826 1130.15 630.356 1130.15L632.28 1130.02C637.52 1129.75 642.561 1128.59 647.304 1126.53C656.722 1122.55 664.649 1114.78 669.093 1105.18C671.249 1100.5 672.575 1095.45 672.973 1090.24L673.106 1087.92C673.106 1087.49 673.172 1087.02 673.172 1086.29C673.172 1086.16 673.172 1085.99 673.172 1085.79V897.113C673.172 896.482 673.172 895.818 673.172 895.187C673.172 892.1 673.172 889.211 673.006 887.917C672.675 882.737 671.448 877.691 669.358 872.976C665.213 863.448 657.352 855.579 647.801 851.396C643.092 849.271 638.051 848.043 632.81 847.711L630.588 847.578C630.389 847.578 630.157 847.545 629.693 847.545H418.334C417.571 847.545 416.808 847.545 415.548 847.478C412.53 847.345 409.545 847.213 406.56 846.98C403.642 846.582 400.657 846.117 397.672 845.619C374.324 841.004 352.634 827.458 338.174 808.434C330.845 798.873 325.406 788.149 321.923 776.628L321.857 776.329C321.127 773.507 320.365 770.718 319.735 767.863C319.237 764.942 318.806 761.954 318.375 758.965C318.143 756.641 318.043 754.251 317.944 751.894L317.778 746.316V644.689C317.778 643.228 317.778 641.734 317.877 639.311C318.308 615.506 328.059 591.867 344.575 574.337L343.845 573.64L344.608 574.337C360.859 556.84 383.809 545.552 407.588 543.328C410.54 543.128 413.558 542.996 416.543 542.863H461.647H487.283C492.49 542.83 497.598 541.867 502.506 539.974C512.157 536.322 520.481 528.952 525.323 519.722C527.811 515.107 529.336 510.16 529.9 504.948C530.232 502.69 530.265 497.843 530.265 492.298C530.265 489.908 530.265 487.385 530.265 484.961C530.265 484.164 530.265 483.367 530.265 482.604V328.121V208.101C530.265 207.371 530.265 206.674 530.331 205.479C530.464 202.457 530.596 199.469 530.829 196.481C532.056 184.728 535.538 172.842 540.911 162.218C551.623 140.903 570.427 123.573 592.548 114.708L592.217 113.845L592.582 114.708C603.659 110.226 615.731 107.769 627.537 107.603L632.545 107.338C633.474 107.371 634.436 107.205 635.364 107.039C635.729 106.972 636.061 106.906 636.425 106.873C636.724 106.84 636.989 106.806 637.221 106.773C637.586 106.74 637.984 106.674 638.349 106.607L642.063 105.644C642.495 105.512 642.859 105.379 643.257 105.213C643.49 105.113 643.722 105.047 643.921 104.947C653.804 101.461 662.294 94.2898 667.202 85.226L665.378 84.23C660.702 92.8621 652.643 99.7015 643.224 102.988C642.959 103.088 642.727 103.188 642.461 103.287C642.163 103.42 641.831 103.553 641.533 103.619L637.885 104.549C637.619 104.582 637.288 104.648 636.956 104.682C636.658 104.715 636.392 104.748 636.094 104.814C635.762 104.848 635.364 104.914 634.999 104.98C634.137 105.113 633.341 105.246 632.512 105.246L627.471 105.512C615.465 105.644 603.095 108.168 591.786 112.749C569.2 121.813 549.998 139.476 539.087 161.255C533.615 172.112 530.033 184.23 528.772 196.282C528.54 199.336 528.408 202.358 528.275 205.379C528.209 206.607 528.209 207.371 528.209 208.101V328.121V482.604C528.209 484.496 528.209 486.521 528.209 488.58C528.209 495.187 528.209 502.059 527.844 504.715C527.313 509.662 525.854 514.377 523.499 518.759C518.889 527.524 510.996 534.563 501.776 538.016C497.1 539.808 492.225 540.705 487.283 540.771H461.647H416.509C413.458 540.871 410.44 541.037 407.422 541.236C383.113 543.494 359.698 555.047 343.116 572.909C326.235 590.771 316.285 614.941 315.854 639.211C315.722 641.635 315.722 643.162 315.755 644.656V691.535L315.921 751.927C316.02 754.284 316.12 756.741 316.385 759.131C316.816 762.186 317.28 765.174 317.778 768.162C318.441 771.084 319.171 773.906 319.934 776.761L320.033 777.093C323.582 788.912 329.153 799.835 336.615 809.596C351.341 829.019 373.495 842.863 397.373 847.578C400.391 848.076 403.376 848.541 406.394 848.939C409.445 849.171 412.463 849.304 415.481 849.437C416.775 849.503 417.571 849.503 418.367 849.503H629.759C630.091 849.503 630.257 849.503 630.423 849.503L632.711 849.636C637.686 849.935 642.495 851.13 646.972 853.156C656.026 857.14 663.488 864.643 667.468 873.707C669.491 878.189 670.652 883.003 670.95 888.016C671.116 889.51 671.116 893.527 671.116 897.013V911.921V1014.91V1085.73C671.116 1086.69 671.116 1087.19 671.05 1087.65L670.917 1090.01C670.552 1094.96 669.292 1099.74 667.236 1104.22C663.024 1113.35 655.462 1120.75 646.508 1124.54C641.997 1126.5 637.188 1127.59 632.18 1127.86L630.257 1127.99C629.793 1127.99 629.063 1127.99 628.333 1127.99L610.59 1128.06L606.08 1128.29C581.737 1129.75 557.957 1140.51 540.811 1157.84C523.566 1175.04 512.92 1198.91 511.593 1223.31C511.295 1228.22 511.295 1231.34 511.328 1234.36C511.328 1235.53 511.328 1236.69 511.328 1237.95V1291.07C511.328 1291.74 511.328 1292.1 511.328 1292.3L511.129 1296.25C511.129 1296.52 511.029 1296.85 510.963 1297.18C510.897 1297.45 510.863 1297.74 510.83 1298.01C510.134 1302.92 508.575 1307.61 506.187 1311.95C501.511 1320.59 493.452 1327.43 484.033 1330.71C483.768 1330.81 483.536 1330.91 483.27 1331.01C482.972 1331.14 482.64 1331.28 482.342 1331.34L478.694 1332.27C478.428 1332.31 478.097 1332.37 477.765 1332.41C477.466 1332.44 477.201 1332.47 476.903 1332.54C476.571 1332.57 476.173 1332.64 475.808 1332.7C474.946 1332.84 474.15 1332.97 473.321 1332.97L468.28 1333.24C456.274 1333.37 443.904 1335.89 432.594 1340.47C410.009 1349.54 390.807 1367.2 379.896 1388.98C374.423 1399.84 370.842 1411.95 369.581 1424.01C369.349 1427.06 369.216 1430.08 369.084 1433.1C369.017 1434.33 369.017 1435.1 369.017 1435.83V1658.83H371.074V1435.83C371.074 1435.1 371.074 1434.4 371.14 1433.2C371.273 1430.18 371.405 1427.19 371.637 1424.21C372.865 1412.45 376.347 1400.57 381.72 1389.94C392.432 1368.63 411.236 1351.3 433.357 1342.43L433.026 1341.57L432.959 1341.7Z" fill="white"/>
<path d="M400.193 1413.58L402.813 1414.38C405.234 1406.24 408.982 1398.87 413.89 1392.47L411.702 1390.81C406.594 1397.45 402.714 1405.15 400.193 1413.61V1413.58Z" fill="white"/>
<path d="M397.043 1452.99V1466.74H399.796V1452.99V1439.28H397.043V1452.99Z" fill="white"/>
<path d="M399.796 1491.9H397.043V1517.1H399.796V1491.9Z" fill="white"/>
<path d="M397.043 1556.01V1569.72H399.796V1556.01V1542.27H397.043V1556.01Z" fill="white"/>
<path d="M399.796 1594.89H397.043V1620.09H399.796V1594.89Z" fill="white"/>
<path d="M399.796 1645.25H397.043V1659H399.796V1645.25Z" fill="white"/>
<path d="M671.979 70.7172C671.979 70.4516 672.078 70.2192 672.111 69.9536C672.178 69.5884 672.244 69.19 672.277 68.7916L672.476 64.9403C672.476 64.9403 672.509 64.2763 672.509 63.7451V6.77292C672.509 4.74768 672.509 2.65605 672.576 0H670.519C670.42 2.65605 670.42 4.74768 670.453 6.77292V64.7079L670.221 68.6588C670.221 68.9244 670.155 69.2564 670.088 69.5884C670.022 69.8872 669.989 70.1528 669.956 70.4184C669.259 75.3321 667.7 80.0466 665.312 84.3627L667.137 85.3587C669.624 80.8102 671.249 75.8633 671.979 70.7172Z" fill="white"/>
<path d="M728.227 78.8182L728.426 77.5234C728.592 76.4609 728.724 75.3985 728.857 74.3361L729.288 65.372C729.321 64.6415 729.321 64.2099 729.321 63.7451V7.83534C729.321 4.98009 729.321 1.75963 729.421 0H727.365C727.265 1.82603 727.265 4.88049 727.265 7.83534V63.7451C727.298 64.1435 727.265 64.6083 727.232 65.2723L726.801 74.1701C726.701 75.1661 726.536 76.1953 726.37 77.2246L726.204 78.5194C724.546 90.1396 720.665 101.693 715.027 111.952L716.818 112.948C722.589 102.49 726.536 90.6708 728.227 78.8182Z" fill="white"/>
<path d="M701.264 7.27093C701.264 4.91369 701.231 2.45684 701.364 0H698.611C698.512 2.45684 698.512 4.88049 698.512 7.27093C698.512 8.59895 698.512 9.92697 698.512 11.2218H701.264V7.27093Z" fill="white"/>
<path d="M698.512 61.6204H701.231L701.264 55.3123V36.4211H698.512V61.6204Z" fill="white"/>
<path d="M687.135 107.205C687.599 106.574 688.097 105.91 688.561 105.279C689.423 104.017 690.186 102.756 690.949 101.461C691.38 100.764 691.778 100.067 692.209 99.3693L691.049 98.6389L692.242 99.3029C692.939 98.0081 693.602 96.6801 694.232 95.3188C694.564 94.5884 694.929 93.858 695.294 93.1276C695.924 91.7 696.421 90.3056 696.919 88.9111C697.184 88.1475 697.449 87.3839 697.748 86.6535L695.194 85.6907C694.896 86.4543 694.63 87.2179 694.332 88.0147C693.834 89.3427 693.37 90.704 692.806 91.9988C692.475 92.6628 692.11 93.3932 691.778 94.1568C691.181 95.4516 690.551 96.7133 689.888 97.9749C689.457 98.6721 689.025 99.3693 688.627 100.067C687.898 101.295 687.168 102.49 686.372 103.685C685.908 104.283 685.444 104.914 684.946 105.578C684.084 106.74 683.255 107.902 682.326 108.997L684.449 110.757C685.41 109.628 686.273 108.4 687.168 107.205H687.135Z" fill="white"/>
<path d="M640.937 135.425C649.659 133.998 657.752 131.109 665.015 126.926L663.622 124.535C656.657 128.586 648.897 131.308 640.473 132.703L640.904 135.425H640.937Z" fill="white"/>
<path d="M609.596 139.31C610.392 139.111 611.188 138.911 611.984 138.712C613.443 138.314 614.803 137.949 616.229 137.716L615.798 134.994C614.239 135.259 612.747 135.658 611.288 136.023C610.525 136.222 609.729 136.421 608.966 136.62C607.407 137.019 605.948 137.583 604.555 138.115C603.825 138.38 603.063 138.679 602.3 138.945L602.731 140.239L602.2 138.978C597.823 140.737 593.644 142.929 589.697 145.485L591.19 147.809C594.97 145.352 599.05 143.261 603.229 141.567C603.991 141.302 604.721 141.036 605.484 140.737C606.877 140.206 608.203 139.708 609.596 139.343V139.31Z" fill="white"/>
<path d="M562.038 186.62C564.459 178.486 568.207 171.116 573.115 164.708L570.926 163.048C565.819 169.688 561.938 177.391 559.418 185.857L562.038 186.653V186.62Z" fill="white"/>
<path d="M558.987 225.266V211.521H556.234V225.266V238.978H558.987V225.266Z" fill="white"/>
<path d="M558.987 264.177H556.234V289.377H558.987V264.177Z" fill="white"/>
<path d="M556.234 328.254V341.966H558.987V328.254V314.509H556.234V328.254Z" fill="white"/>
</g>
<defs>
<linearGradient id="paint0_linear_2059_8645" x1="1357.32" y1="493.571" x2="5.14686e-05" y2="1159.23" gradientUnits="userSpaceOnUse">
<stop stop-color="#DDE2FE"/>
<stop offset="1" stop-color="#FFF7D3"/>
</linearGradient>
<linearGradient id="paint1_linear_2059_8645" x1="523.391" y1="328.221" x2="523.391" y2="1133.43" gradientUnits="userSpaceOnUse">
<stop stop-color="#D2E3D3"/>
<stop offset="1" stop-color="#DDE1FF"/>
</linearGradient>
<linearGradient id="paint2_linear_2059_8645" x1="544.959" y1="1100.77" x2="544.959" y2="1659" gradientUnits="userSpaceOnUse">
<stop stop-color="#DDE1FF"/>
<stop offset="0.685" stop-color="#D2E3D3"/>
<stop offset="1" stop-color="white"/>
</linearGradient>
<linearGradient id="paint3_linear_2059_8645" x1="629.444" y1="1.77543e-08" x2="629" y2="328" gradientUnits="userSpaceOnUse">
<stop stop-color="#FFF7D3"/>
<stop offset="1" stop-color="#D2E3D3"/>
</linearGradient>
<clipPath id="clip0_2059_8645">
<rect width="1400" height="456.224" fill="white" transform="matrix(1 -8.74228e-08 -8.74228e-08 -1 0 1105.79)"/>
</clipPath>
<clipPath id="clip1_2059_8645">
<rect width="433" height="1659" fill="white" transform="translate(307)"/>
</clipPath>
</defs>
</svg>
