<svg width="375" height="1516" viewBox="0 0 375 1516" fill="none" xmlns="http://www.w3.org/2000/svg">
<g clip-path="url(#clip0_1683_10102)">
<path d="M385.323 807.801C384.596 795.757 381.656 783.712 376.686 772.638C371.716 761.565 364.745 751.432 356.199 742.846C347.653 734.29 337.53 727.282 326.469 722.306C315.407 717.3 303.406 714.358 291.374 713.599L286.859 713.387L284.767 713.326H92.3235C91.4143 713.326 90.1111 713.326 89.899 713.296C88.9898 713.205 88.1109 713.205 87.2017 713.174C86.3229 712.992 85.444 712.841 84.5651 712.78C77.6856 711.384 71.2607 707.38 66.8966 701.676C64.7146 698.824 63.0781 695.639 62.0476 692.271C61.8658 691.391 61.6234 690.572 61.3809 689.722C61.29 688.843 61.1688 687.963 60.9869 687.083C60.9263 686.203 60.9566 685.293 60.8354 684.383C60.8354 684.11 60.7748 684.079 60.7748 683.564V590.909C60.7748 589.089 60.7445 586.479 60.8657 586.055C60.9263 578.834 63.866 572.038 68.8059 566.759C73.7458 561.511 80.4132 558.234 87.4745 557.506C88.3837 557.506 89.2626 557.445 90.1717 557.354H95.8693H107.628H154.724C166.755 557.294 178.908 555.048 190.243 550.68C212.972 542.033 232.126 524.983 243.4 503.473C249.097 492.763 252.764 480.9 254.158 468.856C254.855 463.122 254.977 455.841 254.946 452.867V299.929H184V441.096C184 448.499 184.09 458.632 183.727 460.331C183.363 463.88 182.302 467.278 180.605 470.403C177.302 476.683 171.544 481.78 164.967 484.268C161.664 485.512 158.209 486.21 154.542 486.24H131.146H107.628H89.8384C86.8381 486.361 83.8075 486.513 80.8072 486.695C56.6228 488.94 33.4387 500.408 17.0127 518.126C8.73915 526.955 2.0718 537.27 -2.56503 548.495C-7.26249 559.721 -9.71728 571.856 -10.0507 583.901C-10.2325 587.39 -10.1416 588.694 -10.1719 590.788V683.442L-10.1113 685.566C-9.95973 688.57 -9.86881 691.603 -9.56575 694.607C-9.14147 697.611 -8.68687 700.614 -8.20198 703.587C-7.53524 706.561 -6.77759 709.503 -5.98963 712.416C-2.50442 724.066 3.10221 735.049 10.4666 744.666C25.0742 763.931 46.8946 777.644 70.7758 782.347C73.7761 782.863 76.7461 783.318 79.7464 783.712C82.7467 783.955 85.7773 784.106 88.7777 784.228C90.5051 784.319 91.2021 784.289 92.2326 784.289H284.677C285.252 784.289 285.222 784.319 285.525 784.349L286.889 784.44C290.465 784.683 293.92 785.502 297.132 786.958C303.618 789.78 309.103 795.271 311.891 801.764C313.316 805.01 314.164 808.438 314.377 812.018C314.528 812.898 314.528 817.904 314.498 821.636V993.323V993.505L314.437 994.172L314.377 995.538C314.104 999.118 313.225 1002.55 311.74 1005.76L376.05 1035.74C381.171 1024.72 384.263 1012.74 385.141 1000.7L385.384 996.175L385.475 993.899V992.959V992.231V821.636C385.444 817.51 385.626 814.688 385.202 807.71L385.323 807.801Z" fill="url(#paint0_linear_1683_10102)"/>
<path d="M296.921 1020.48C293.679 1021.87 290.224 1022.66 286.617 1022.84L285.253 1022.93C285.253 1022.93 284.981 1022.93 284.708 1022.93H269.282L267.161 1022.99L262.645 1023.21C238.491 1024.63 214.852 1035.37 197.881 1052.54C180.758 1069.63 170.181 1093.32 168.878 1117.53C168.484 1124.51 168.666 1127.21 168.635 1131.4V1179.94C168.635 1180.42 168.635 1181 168.635 1181.12L168.545 1182.49V1183.85C168.454 1184.31 168.363 1184.73 168.302 1185.16C167.817 1188.67 166.696 1192.04 164.999 1195.17C161.604 1201.45 155.664 1206.36 149.027 1208.67C148.603 1208.82 148.209 1209.03 147.785 1209.15L146.482 1209.46L145.209 1209.82C144.785 1209.91 144.33 1209.91 143.875 1210C142.996 1210.12 142.148 1210.37 141.208 1210.31L139.845 1210.37L139.178 1210.43L137.117 1210.52C125.086 1210.67 112.933 1213.16 101.689 1217.71C79.1111 1226.75 60.2607 1244.13 49.3808 1265.83C43.9257 1276.66 40.4102 1288.52 39.1373 1300.59C38.8949 1303.6 38.7736 1306.63 38.6524 1309.64C38.5615 1311.4 38.6221 1312 38.5918 1313.06V1516H109.538V1313.06C109.538 1312.18 109.538 1310.82 109.569 1310.61C109.66 1309.7 109.69 1308.82 109.69 1307.91C110.084 1304.36 111.114 1300.96 112.721 1297.8C115.903 1291.46 121.57 1286.24 128.086 1283.64C131.359 1282.3 134.814 1281.54 138.481 1281.54H138.814L138.996 1281.48H139.087H139.36L141.633 1281.39L146.148 1281.18C149.149 1281.09 152.149 1280.57 155.149 1280.15C156.634 1279.9 158.15 1279.69 159.635 1279.39L164.059 1278.3L168.454 1277.11C169.908 1276.69 171.333 1276.14 172.757 1275.63C195.669 1267.53 215.277 1250.93 226.975 1229.66C232.854 1219.04 236.764 1207.3 238.461 1195.29C238.673 1193.8 238.915 1192.28 239.067 1190.8L239.34 1186.28L239.521 1181.76C239.552 1180.88 239.521 1180.48 239.521 1180V1131.46C239.521 1127.78 239.491 1122.66 239.643 1121.81C240.037 1114.68 243.037 1107.88 248.128 1102.76C253.25 1097.66 260.008 1094.62 267.13 1094.2L268.494 1094.11C268.767 1094.11 268.828 1094.05 269.282 1094.05H285.617L290.133 1093.84C302.164 1093.26 314.226 1090.47 325.348 1085.58C347.684 1075.94 365.928 1057.88 376.142 1035.86L311.832 1005.88C308.892 1012.28 303.437 1017.81 296.891 1020.54L296.921 1020.48Z" fill="url(#paint1_linear_1683_10102)"/>
<path d="M184.059 191.135V299.96H255.005V191.135C255.005 190.255 255.005 188.889 255.036 188.677C255.127 187.767 255.157 186.887 255.157 185.977C255.551 182.427 256.581 179.029 258.187 175.874C261.37 169.533 267.037 164.315 273.553 161.706C276.826 160.371 280.281 159.612 283.948 159.612H284.281L284.463 159.552H284.554H284.827L287.1 159.461L291.615 159.248C294.615 159.157 297.616 158.642 300.616 158.217C302.101 157.974 303.616 157.762 305.101 157.458L309.526 156.366L313.92 155.183C315.375 154.758 316.8 154.212 318.224 153.696C341.135 145.596 360.743 129.001 372.442 107.733L348.227 94.293L362.774 102.363L364.41 103.273L372.442 107.733C378.321 97.1449 382.23 85.3734 383.928 73.3896C384.14 71.8726 384.413 70.386 384.564 68.8691L384.807 64.3486L385.019 59.8281C385.049 58.9786 385.049 58.5842 385.049 58.0685V9.49605C385.049 6.03742 385.019 1.24389 385.14 0H314.133C314.011 4.00472 314.133 6.31047 314.102 9.49605V58.0078C314.102 58.4932 314.102 59.1 314.072 59.191L313.951 60.5563V61.8912C313.89 62.3463 313.769 62.771 313.708 63.2261C313.223 66.7454 312.102 70.113 310.405 73.2379C307.011 79.518 301.071 84.4329 294.434 86.7387C294.009 86.8904 293.615 87.1027 293.191 87.2241L291.888 87.5275L290.615 87.8915C290.191 87.9825 289.736 87.9826 289.282 88.0736C288.403 88.1949 287.554 88.4376 286.615 88.377L285.251 88.4376L284.584 88.4983L282.523 88.5893C270.492 88.741 258.339 91.2288 247.095 95.7796C224.517 104.821 205.667 122.205 194.787 143.897C189.332 154.728 185.816 166.59 184.544 178.665C184.301 181.669 184.18 184.703 184.059 187.706C183.968 189.466 184.028 190.073 183.998 191.135H184.059ZM319.012 78.0011L339.772 89.5298L317.648 77.2729L319.012 78.0011Z" fill="url(#paint2_linear_1683_10102)"/>
<path d="M220.185 335.517H217.67V358.544H220.185V335.517Z" fill="white"/>
<path d="M217.67 394.071V406.631H220.185V394.071V381.51H217.67V394.071Z" fill="white"/>
<path d="M217.67 452.625L220.185 452.655V451.624V429.628H217.67V452.625Z" fill="white"/>
<path d="M213.639 485.239C214.245 483.995 214.851 482.782 215.336 481.507C215.578 480.779 215.851 480.112 216.093 479.414C216.578 478.14 217.063 476.835 217.427 475.531L215.002 474.833C214.639 476.077 214.184 477.29 213.73 478.534C213.457 479.232 213.214 479.93 212.972 480.627C212.517 481.78 211.942 482.964 211.366 484.116C211.032 484.784 210.699 485.451 210.396 486.119C209.82 487.272 209.153 488.364 208.456 489.456C208.062 490.093 207.668 490.73 207.274 491.398C206.608 492.46 205.82 493.491 205.032 494.523C204.577 495.129 204.123 495.736 203.668 496.343L205.698 497.799C206.123 497.192 206.577 496.616 207.002 496.04C207.82 494.947 208.668 493.855 209.396 492.702C209.79 492.035 210.153 491.428 210.547 490.791C211.275 489.638 212.002 488.455 212.608 487.241L211.487 486.695L212.639 487.211C212.942 486.544 213.275 485.906 213.578 485.239H213.639Z" fill="white"/>
<path d="M166.542 521.281C174.543 519.825 181.877 517.034 188.363 512.999L187.029 510.875C180.817 514.728 173.786 517.398 166.088 518.824L166.542 521.281Z" fill="white"/>
<path d="M118.689 519.947V522.465H131.236H143.753V519.947H131.236H118.689Z" fill="white"/>
<path d="M79.0793 520.978L78.2307 521.099C76.3214 521.464 74.4424 521.919 72.5938 522.404L73.2605 524.831C75.0485 524.346 76.8669 523.921 78.6853 523.557L79.4732 523.436C82.0796 523.011 84.5647 522.647 87.0801 522.616C89.2015 522.465 91.2623 522.434 93.2019 522.434H95.7173V519.916H93.2019C91.232 519.916 89.1106 519.916 86.9892 520.098C84.3525 520.098 81.6856 520.553 79.0793 520.948V520.978Z" fill="white"/>
<path d="M51.532 535.601L52.7745 534.691L51.2592 532.689L50.047 533.599C48.7438 534.57 47.38 535.571 46.1981 536.754L45.1677 537.665C43.9554 538.757 42.7129 539.879 41.5915 541.214L40.6824 542.215C39.561 543.459 38.3791 544.733 37.379 546.159L36.591 547.191C35.5909 548.526 34.5302 549.921 33.6816 551.469L35.8637 552.682C36.6213 551.287 37.5608 550.043 38.5609 548.708L39.3792 547.616C40.2884 546.281 41.3491 545.128 42.4704 543.914L43.3796 542.913L42.4401 542.064L43.4099 542.883C44.41 541.7 45.5616 540.668 46.7739 539.576L47.8346 538.605C48.9559 537.513 50.1682 536.603 51.441 535.662L51.532 535.601Z" fill="white"/>
<path d="M24.923 573.252C23.8622 578.865 23.4076 584.841 23.5289 590.788V596.4H26.0443V590.757C26.0443 590.151 26.0443 589.544 26.0443 588.967C26.0443 583.749 26.4989 578.592 27.4081 573.707L24.9533 573.252H24.923Z" fill="white"/>
<path d="M26.0428 632.079V619.519H23.5273V632.079V644.639H26.0428V632.079Z" fill="white"/>
<path d="M23.587 684.899L23.6779 686.749C23.7385 688.084 23.7992 689.419 23.9204 690.754L26.4055 690.511C26.2843 689.237 26.2236 687.932 26.163 686.628L26.0721 684.808C26.0115 682.35 26.0115 679.832 26.0115 677.344V670.093V667.605H23.4961V670.093V677.344C23.4961 679.862 23.4961 682.38 23.5567 684.899H23.587Z" fill="white"/>
<path d="M39.0141 722.489C37.8322 720.911 36.6806 719.425 35.7714 717.756L35.5289 717.361C34.4985 715.662 33.4984 714.085 32.7408 712.325L30.4375 713.326C31.2558 715.238 32.3468 716.967 33.3772 718.666L33.5893 719.03C34.5591 720.79 35.8017 722.428 36.9836 724.006L37.2564 724.339C38.408 726.008 39.7415 727.464 41.0447 728.89L41.378 729.254C42.6206 730.741 44.0753 732.045 45.4997 733.32L45.9845 733.744L47.6514 731.863L47.1665 731.439C45.7421 730.164 44.4086 728.951 43.257 727.555L42.863 727.131C41.5295 725.705 40.287 724.339 39.2566 722.822L38.2262 723.551L39.2263 722.792L38.9535 722.458L39.0141 722.489Z" fill="white"/>
<path d="M74.5032 748.762C76.4428 749.369 78.443 749.642 80.4129 749.915C81.322 750.036 82.2615 750.157 83.1707 750.339C85.1709 750.521 87.0499 750.612 88.9289 750.673L89.0198 748.155C87.1711 748.094 85.3528 748.003 83.5041 747.852C82.6858 747.7 81.7463 747.579 80.7765 747.427C78.8369 747.154 76.9883 746.881 75.2002 746.335L73.6546 745.94C72.7757 745.728 71.8665 745.485 70.9877 745.242L66.9872 743.756L66.1387 746.122L70.23 747.609C71.1998 747.912 72.1393 748.125 73.0485 748.367L74.5335 748.762H74.5032Z" fill="white"/>
<path d="M137.206 750.764V748.246H124.689H112.143V750.764H124.689H137.206Z" fill="white"/>
<path d="M183.211 748.246H160.209V750.764H183.211V748.246Z" fill="white"/>
<path d="M231.246 750.764V748.246H218.699H206.152V750.764H218.699H231.246Z" fill="white"/>
<path d="M277.191 750.734V748.216H273.554H259.31C257.613 748.246 255.916 748.216 254.219 748.216V750.734C255.916 750.734 257.613 750.734 259.31 750.734H273.554H277.191Z" fill="white"/>
<path d="M300.164 750.036L299.588 752.494C303.437 753.373 307.316 754.708 311.074 756.407C314.771 758.076 318.287 760.109 321.62 762.475L323.075 760.442C319.651 757.985 315.953 755.861 312.135 754.132C308.195 752.372 304.194 750.977 300.164 750.066V750.036Z" fill="white"/>
<path d="M347.075 792.359C345.287 786.625 342.166 781.315 339.317 776.886L337.195 778.251C339.923 782.529 342.953 787.656 344.681 793.178L345.439 795.241L346.348 798.79L348.772 798.153L347.833 794.482L347.075 792.359Z" fill="white"/>
<path d="M350.743 833.467V820.938H348.258V833.467V846.028H350.743V833.467Z" fill="white"/>
<path d="M350.773 869.025H348.258V892.052H350.773V869.025Z" fill="white"/>
<path d="M376.413 927.609V821.727C376.413 820.635 376.413 819.603 376.413 818.602C376.413 818.025 376.413 817.419 376.413 816.842C376.413 814.536 376.383 811.958 376.171 808.408C375.504 797.456 372.807 786.412 368.321 776.492C359.411 756.407 342.773 739.751 322.71 730.771C312.8 726.281 301.769 723.55 290.828 722.883L286.101 722.67C285.616 722.67 285.101 722.64 284.798 722.64H91.6868C90.9897 722.64 90.2624 722.64 89.929 722.61L86.2317 722.428C85.1709 722.215 83.9587 722.033 82.7464 721.882C73.7152 720.061 65.2901 714.782 59.6229 707.349C56.7741 703.618 54.6527 699.461 53.2889 694.971C53.1374 694.243 52.9252 693.485 52.7131 692.696L52.41 691.543C52.2888 690.451 52.1069 689.267 51.8948 688.054L51.6827 684.201C51.6827 684.201 51.6827 683.897 51.6827 683.624V589.453C51.6827 588.087 51.6827 586.51 51.7433 585.933C51.8645 576.528 55.5618 567.518 62.1686 560.51C68.5935 553.623 77.3217 549.315 86.6862 548.374C87.8379 548.374 89.0501 548.283 90.2624 548.192H131.206H154.784C165.694 548.162 176.847 546.068 187.06 542.155C207.547 534.357 225.155 518.733 235.338 499.286C240.49 489.608 243.854 478.716 245.096 467.855C245.672 463.061 245.824 457.388 245.824 454.081C245.824 453.656 245.824 453.292 245.824 452.958V300.021V190.376C245.824 189.709 245.824 189.041 245.854 188.768C245.945 187.676 245.975 186.675 246.006 185.643V185.036C246.521 180.486 247.854 175.995 249.976 171.778C254.158 163.435 261.492 156.67 270.129 153.211L269.826 152.422L270.16 153.211C274.554 151.421 279.13 150.481 283.767 150.45L290.95 150.086C293.314 150.025 295.708 149.661 298.041 149.297L300.314 148.933C301.284 148.782 302.284 148.63 303.254 148.417L311.224 146.354C312.164 146.081 313.073 145.748 313.982 145.414L315.164 144.989C335.954 137.647 353.895 122.417 364.412 103.213L362.775 102.302C352.471 121.113 334.894 136.009 314.528 143.199L313.316 143.624C312.437 143.927 311.588 144.261 310.709 144.504L302.83 146.536C301.92 146.719 300.981 146.87 300.041 147.022L297.769 147.386C295.526 147.72 293.192 148.084 290.919 148.144L283.737 148.508C278.918 148.508 274.099 149.51 269.493 151.391C260.431 155.031 252.734 162.131 248.37 170.868C246.157 175.267 244.763 179.97 244.218 184.824V185.492C244.157 186.493 244.127 187.464 244.036 188.465C244.005 188.738 243.975 189.496 243.975 190.315V299.96V452.898C244.005 455.871 243.914 462.272 243.278 467.582C242.066 478.231 238.762 488.88 233.732 498.345C223.731 517.398 206.517 532.719 186.454 540.334C176.453 544.157 165.513 546.22 154.845 546.25H131.267H90.2624C89.0198 546.341 87.8379 546.402 86.6256 546.432C76.7155 547.403 67.5934 551.924 60.8351 559.144C53.9253 566.517 50.0461 575.922 49.9249 585.691C49.834 586.267 49.834 587.784 49.834 589.362V683.503C49.834 683.867 49.834 684.049 49.8643 684.262L50.0764 688.175C50.2886 689.449 50.4704 690.602 50.6219 691.786L50.9553 693.09C51.1675 693.849 51.3493 694.577 51.5311 695.335C52.9858 700.098 55.1982 704.467 58.1985 708.381C64.1082 716.178 72.9879 721.73 82.504 723.641C83.7466 723.793 84.8982 723.975 86.0498 724.187L89.7775 724.369C90.0502 724.4 90.8988 724.43 91.7171 724.4H284.828C285.131 724.4 285.585 724.4 286.04 724.43L290.768 724.643C301.466 725.31 312.255 727.98 321.983 732.379C341.621 741.177 357.896 757.499 366.654 777.159C371.018 786.898 373.685 797.698 374.322 808.438C374.595 812.868 374.564 815.75 374.564 818.541C374.564 819.573 374.564 820.604 374.564 821.696V992.261C374.564 993.111 374.534 994.537 374.473 995.871L374.261 999.937C373.473 1010.62 370.685 1021.42 366.169 1031.09C357.078 1050.75 340.591 1066.89 320.983 1075.36C311.194 1079.64 300.375 1082.15 289.646 1082.67L282.555 1082.88H269.341C269.008 1082.88 268.796 1082.88 268.614 1082.91L266.493 1083.03C256.643 1083.64 247.339 1087.83 240.338 1094.84C233.368 1101.84 229.246 1111.13 228.671 1121.02C228.489 1122.44 228.489 1125.81 228.519 1129.06V1180.15C228.519 1180.51 228.519 1180.91 228.519 1181.55L228.095 1189.68C228.004 1190.59 227.852 1191.53 227.731 1192.47L227.549 1193.65C226.034 1204.27 222.518 1214.83 217.336 1224.2C207.032 1243.01 189.454 1257.91 169.089 1265.1L167.876 1265.52C166.998 1265.83 166.149 1266.16 165.27 1266.4L157.39 1268.44C156.481 1268.62 155.542 1268.77 154.602 1268.92L152.329 1269.28C150.087 1269.62 147.753 1269.98 145.48 1270.04L138.298 1270.41C133.479 1270.41 128.66 1271.41 124.054 1273.29C114.992 1276.93 107.294 1284.03 102.93 1292.77C100.718 1297.17 99.3239 1301.87 98.7784 1306.72V1307.39C98.7178 1308.39 98.6875 1309.36 98.5966 1310.36C98.5663 1310.64 98.5359 1311.4 98.5359 1312.21V1515.97H100.415V1312.18C100.415 1311.52 100.415 1310.85 100.445 1310.58C100.536 1309.48 100.566 1308.48 100.597 1307.45V1306.84C101.112 1302.29 102.445 1297.8 104.567 1293.59C108.749 1285.24 116.083 1278.48 124.72 1275.02L124.417 1274.23L124.751 1275.02C129.145 1273.23 133.721 1272.29 138.358 1272.26L145.541 1271.89C147.905 1271.83 150.299 1271.47 152.632 1271.11L154.905 1270.74C155.875 1270.59 156.875 1270.44 157.845 1270.23L165.816 1268.16C166.755 1267.89 167.664 1267.56 168.573 1267.22L169.755 1266.8C190.545 1259.45 208.487 1244.22 219.003 1225.02C224.276 1215.46 227.883 1204.66 229.428 1193.83L229.61 1192.65C229.762 1191.68 229.913 1190.71 230.004 1189.74L230.428 1181.55C230.459 1180.88 230.428 1180.48 230.428 1180.06V1128.97C230.428 1125.93 230.428 1122.48 230.58 1121.14L229.64 1121.02L230.58 1121.08C231.095 1111.64 235.065 1102.76 241.702 1096.08C248.37 1089.41 257.249 1085.4 266.644 1084.82L268.796 1084.7C268.947 1084.7 269.099 1084.7 269.372 1084.7H285.676L289.768 1084.49C300.708 1083.95 311.77 1081.37 321.741 1077C341.773 1068.35 358.593 1051.91 367.897 1031.82C372.503 1021.93 375.352 1010.95 376.14 999.997L376.352 995.902C376.413 994.719 376.474 993.414 376.474 992.565C376.474 992.443 376.474 992.292 376.474 992.201V927.518L376.413 927.609Z" fill="white"/>
<path d="M350.743 927.609V915.049H348.258V927.609V940.139H350.743V927.609Z" fill="white"/>
<path d="M350.773 963.136H348.258V986.163H350.773V963.136Z" fill="white"/>
<path d="M338.136 1032.04C339.257 1030.67 340.166 1029.15 341.045 1027.7L341.651 1026.7C342.621 1025.27 343.379 1023.66 344.106 1022.14L344.591 1021.11C345.44 1019.54 346.046 1017.87 346.622 1016.23L346.985 1015.23C347.713 1013.5 348.167 1011.68 348.622 1009.89L348.804 1009.16L346.379 1008.52L346.197 1009.25C345.743 1011.01 345.318 1012.68 344.682 1014.29L344.288 1015.35C343.712 1016.96 343.167 1018.5 342.379 1019.93L343.5 1020.54L342.379 1019.99L341.864 1021.05C341.136 1022.57 340.469 1024.03 339.56 1025.36L338.924 1026.39C338.045 1027.85 337.227 1029.21 336.227 1030.43L338.166 1032L338.136 1032.04Z" fill="white"/>
<path d="M299.617 1054.88L300.193 1057.31C307.648 1055.55 314.831 1052.39 321.589 1048.02L320.225 1045.93C313.74 1050.18 306.8 1053.18 299.647 1054.88H299.617Z" fill="white"/>
<path d="M274.311 1059.1H277.463V1056.58H274.311C271.22 1056.58 268.007 1056.58 264.765 1056.79C262.704 1056.82 260.673 1057.16 258.703 1057.46L257.279 1057.67C256.582 1057.76 255.855 1057.88 255.158 1058.04L252.066 1058.82L252.703 1061.25L255.764 1060.46C256.37 1060.31 257.006 1060.22 257.643 1060.13C258.037 1060.07 258.4 1060.01 258.794 1059.95L259.097 1059.89C261.098 1059.58 262.977 1059.28 264.886 1059.25V1057.98L264.977 1059.25C268.098 1059.01 271.25 1059.04 274.311 1059.04V1059.1Z" fill="white"/>
<path d="M217.73 1080.67C217.094 1081.43 216.518 1082.22 215.942 1083L215.033 1084.22C214.791 1084.55 214.518 1084.89 214.275 1085.22L216.306 1086.71C216.548 1086.37 216.791 1086.07 217.033 1085.73L217.973 1084.49C218.518 1083.73 219.064 1083 219.64 1082.31C223.761 1077.54 227.883 1073.78 232.186 1070.81L230.762 1068.75C226.277 1071.84 222.034 1075.75 217.73 1080.7V1080.67Z" fill="white"/>
<path d="M204.972 1118.56C204.972 1117.92 205.032 1117.26 205.093 1116.62L206.063 1110.4L206.82 1107.46L204.396 1106.82L203.608 1109.88L202.608 1116.26C202.517 1117.01 202.487 1117.71 202.456 1118.44L202.396 1119.5C202.184 1122.57 202.184 1125.6 202.184 1128.54C202.184 1129.76 202.184 1130.94 202.184 1132.15H204.699C204.699 1130.97 204.699 1129.76 204.699 1128.54C204.699 1125.63 204.699 1122.66 204.881 1119.68L204.941 1118.53L204.972 1118.56Z" fill="white"/>
<path d="M202.213 1178.21L204.698 1178.24L204.728 1172.47V1155.21H202.213V1178.21Z" fill="white"/>
<path d="M198.304 1209.06C198.607 1208.39 198.94 1207.73 199.274 1207.06C199.849 1205.75 200.304 1204.48 200.759 1203.21C201.001 1202.51 201.243 1201.81 201.516 1201.14L199.183 1200.26C198.91 1200.96 198.667 1201.66 198.395 1202.39C197.94 1203.6 197.516 1204.84 197.001 1206.03C196.698 1206.63 196.364 1207.3 196.061 1208C195.516 1209.18 194.94 1210.34 194.334 1211.49C193.94 1212.13 193.546 1212.76 193.182 1213.4C192.515 1214.52 191.849 1215.62 191.121 1216.71C190.697 1217.25 190.273 1217.83 189.818 1218.44C189.03 1219.5 188.272 1220.56 187.424 1221.56L189.363 1223.17C190.242 1222.14 191.03 1221.02 191.849 1219.92C192.273 1219.35 192.727 1218.74 193.152 1218.16C193.94 1217.01 194.637 1215.86 195.334 1214.67C195.728 1214.04 196.091 1213.4 196.485 1212.76L195.425 1212.1L196.516 1212.7C197.152 1211.52 197.758 1210.31 198.334 1209.06H198.304Z" fill="white"/>
<path d="M149.602 1245.68C157.573 1244.38 164.967 1241.74 171.604 1237.91L170.331 1235.73C163.967 1239.43 156.875 1241.92 149.178 1243.19L149.572 1245.68H149.602Z" fill="white"/>
<path d="M120.932 1249.23C121.659 1249.05 122.386 1248.87 123.114 1248.68C124.447 1248.32 125.69 1247.99 126.993 1247.77L126.599 1245.29C125.175 1245.53 123.811 1245.89 122.477 1246.23C121.78 1246.41 121.053 1246.59 120.356 1246.77C118.932 1247.14 117.598 1247.65 116.325 1248.14C115.658 1248.38 114.961 1248.65 114.264 1248.9L114.658 1250.08L114.173 1248.93C110.173 1250.54 106.354 1252.54 102.748 1254.87L104.112 1257C107.567 1254.75 111.294 1252.84 115.113 1251.29C115.81 1251.05 116.477 1250.81 117.174 1250.54C118.447 1250.05 119.659 1249.59 120.932 1249.26V1249.23Z" fill="white"/>
<path d="M105.021 1226.05L105.354 1226.84C115.477 1222.75 126.508 1220.5 137.297 1220.35L141.873 1220.11C142.722 1220.14 143.601 1219.98 144.449 1219.83C144.783 1219.77 145.086 1219.71 145.419 1219.68C145.692 1219.65 145.934 1219.62 146.146 1219.59C146.48 1219.56 146.844 1219.5 147.177 1219.44L150.571 1218.56C150.965 1218.44 151.299 1218.32 151.662 1218.16C151.874 1218.07 152.086 1218.01 152.268 1217.92C161.3 1214.74 169.058 1208.18 173.543 1199.9C175.816 1195.74 177.332 1191.22 177.998 1186.52C178.029 1186.28 178.059 1186.07 178.119 1185.82C178.18 1185.46 178.241 1185.13 178.271 1184.76L178.453 1181.21C178.453 1181.21 178.453 1180.64 178.453 1180.12V1131.36C178.453 1130.21 178.453 1129.15 178.453 1128.06C178.453 1125.33 178.453 1122.51 178.695 1118.08C179.877 1096.23 189.424 1074.87 204.849 1059.46C220.215 1043.93 241.49 1034.28 263.28 1033.01L270.796 1032.73H283.524C284.221 1032.73 284.918 1032.73 285.403 1032.73L287.161 1032.61C291.949 1032.37 296.556 1031.31 300.89 1029.43C309.497 1025.79 316.74 1018.69 320.801 1009.92C322.771 1005.64 323.983 1001.03 324.347 996.266L324.468 994.142C324.468 993.748 324.528 993.323 324.528 992.656C324.528 992.534 324.528 992.383 324.528 992.201V819.785C324.528 819.209 324.528 818.602 324.528 818.026C324.528 815.204 324.528 812.565 324.377 811.381C324.074 806.648 322.953 802.037 321.043 797.729C317.255 789.022 310.072 781.831 301.344 778.009C297.041 776.067 292.434 774.944 287.646 774.641L285.615 774.52C285.434 774.52 285.221 774.489 284.797 774.489H91.6561C90.959 774.489 90.262 774.489 89.1103 774.429C86.3525 774.307 83.6249 774.186 80.8974 773.974C78.2304 773.609 75.5029 773.185 72.7753 772.73C51.4398 768.513 31.6196 756.134 18.4061 738.75C11.7085 730.013 6.73827 720.213 3.55612 709.686L3.49551 709.413C2.82877 706.834 2.13173 704.285 1.55592 701.676C1.10132 699.006 0.707345 696.276 0.313365 693.545C0.101222 691.422 0.0103035 689.237 -0.0806148 687.083L-0.232145 681.986V589.119C-0.232145 587.784 -0.232146 586.419 -0.141227 584.204C0.252753 562.451 9.16276 540.85 24.2552 524.831L23.5885 524.194L24.2855 524.831C39.1355 508.843 60.1074 498.527 81.8369 496.495C84.5341 496.313 87.292 496.191 90.0195 496.07H131.236H154.663C159.421 496.04 164.088 495.16 168.573 493.431C177.392 490.093 184.999 483.358 189.424 474.924C191.697 470.707 193.091 466.186 193.606 461.423C193.909 459.36 193.939 454.931 193.939 449.864C193.939 447.68 193.939 445.374 193.939 443.159C193.939 442.431 193.939 441.703 193.939 441.005V299.839V190.164C193.939 189.496 193.939 188.859 194 187.767C194.121 185.006 194.242 182.276 194.454 179.545C195.576 168.805 198.758 157.944 203.668 148.236C213.456 128.758 230.64 112.921 250.854 104.821L250.551 104.032L250.885 104.821C261.007 100.725 272.038 98.4799 282.827 98.3282L287.403 98.0855C288.252 98.1159 289.131 97.9642 289.979 97.8125C290.313 97.7518 290.616 97.6911 290.949 97.6608C291.222 97.6304 291.464 97.6001 291.677 97.5698C292.01 97.5394 292.374 97.4788 292.707 97.4181L296.101 96.5383C296.495 96.4169 296.829 96.2955 297.192 96.1439C297.404 96.0528 297.617 95.9922 297.798 95.9011C306.83 92.7156 314.588 86.1624 319.073 77.8799L317.406 76.9697C313.133 84.8578 305.769 91.1076 297.162 94.1112C296.92 94.2022 296.707 94.2932 296.465 94.3842C296.192 94.5056 295.889 94.6269 295.616 94.6876L292.283 95.5371C292.04 95.5674 291.737 95.6281 291.434 95.6584C291.161 95.6888 290.919 95.7191 290.646 95.7798C290.343 95.8101 289.979 95.8708 289.646 95.9315C288.858 96.0528 288.131 96.1742 287.373 96.1742L282.767 96.4169C271.796 96.5383 260.492 98.844 250.157 103.031C229.519 111.313 211.971 127.454 202.001 147.356C197 157.277 193.727 168.35 192.576 179.363C192.363 182.154 192.242 184.915 192.121 187.676C192.06 188.799 192.06 189.496 192.06 190.164V299.839V441.005C192.06 442.734 192.06 444.585 192.06 446.466C192.06 452.504 192.06 458.784 191.727 461.211C191.242 465.731 189.909 470.039 187.757 474.044C183.544 482.054 176.331 488.485 167.906 491.641C163.633 493.279 159.178 494.098 154.663 494.159H131.236H89.9892C87.2011 494.25 84.4432 494.401 81.6853 494.583C59.4709 496.647 38.0748 507.204 22.9217 523.527C7.49592 539.849 -1.59592 561.936 -1.9899 584.113C-2.11113 586.328 -2.11113 587.724 -2.08082 589.089V631.927L-1.92929 687.114C-1.83837 689.268 -1.74745 691.513 -1.505 693.697C-1.11102 696.488 -0.686738 699.219 -0.232145 701.949C0.373977 704.619 1.04071 707.198 1.73775 709.807L1.82867 710.11C5.07143 720.911 10.1629 730.892 16.9817 739.812C30.4377 757.56 50.6822 770.212 72.5026 774.52C75.2604 774.975 77.988 775.399 80.7458 775.764C83.534 775.976 86.2919 776.097 89.0497 776.219C90.2317 776.279 90.959 776.279 91.6864 776.279H284.858C285.161 776.279 285.312 776.279 285.464 776.279L287.555 776.401C292.101 776.674 296.495 777.766 300.587 779.617C308.86 783.257 315.679 790.114 319.316 798.396C321.164 802.492 322.225 806.891 322.498 811.472C322.649 812.838 322.649 816.509 322.649 819.694V833.316V927.427V992.14C322.649 993.02 322.649 993.475 322.589 993.9L322.468 996.054C322.134 1000.57 320.983 1004.94 319.104 1009.04C315.255 1017.38 308.345 1024.15 300.162 1027.61C296.041 1029.4 291.646 1030.4 287.07 1030.64L285.312 1030.76C284.888 1030.76 284.221 1030.76 283.555 1030.76L267.341 1030.82L263.219 1031.03C240.974 1032.37 219.245 1042.2 203.577 1058.04C187.817 1073.75 178.089 1095.56 176.877 1117.86C176.604 1122.35 176.604 1125.21 176.634 1127.97C176.634 1129.03 176.634 1130.09 176.634 1131.24V1179.79C176.634 1180.39 176.634 1180.73 176.634 1180.91L176.453 1184.52C176.453 1184.76 176.362 1185.06 176.301 1185.37C176.24 1185.61 176.21 1185.88 176.18 1186.13C175.543 1190.62 174.119 1194.89 171.937 1198.87C167.664 1206.76 160.299 1213.01 151.693 1216.01C151.45 1216.1 151.238 1216.19 150.995 1216.28C150.723 1216.4 150.42 1216.53 150.147 1216.59L146.813 1217.44C146.571 1217.47 146.268 1217.53 145.965 1217.56C145.692 1217.59 145.449 1217.62 145.177 1217.68C144.874 1217.71 144.51 1217.77 144.177 1217.83C143.389 1217.95 142.661 1218.07 141.904 1218.07L137.297 1218.32C126.326 1218.44 115.022 1220.74 104.688 1224.93C84.0492 1233.21 66.502 1249.35 56.5312 1269.25C51.5307 1279.18 48.2577 1290.25 47.106 1301.26C46.8939 1304.05 46.7727 1306.81 46.6514 1309.57C46.5908 1310.7 46.5908 1311.4 46.5908 1312.06V1515.85H48.4698V1312.06C48.4698 1311.4 48.4698 1310.76 48.5304 1309.67C48.6516 1306.91 48.7729 1304.17 48.985 1301.44C50.1063 1290.7 53.2885 1279.84 58.1981 1270.13C67.987 1250.66 85.1705 1234.82 105.385 1226.72L105.082 1225.93L105.021 1226.05Z" fill="white"/>
<path d="M75.0781 1291.74L77.4723 1292.46C79.6847 1285.03 83.1092 1278.3 87.5946 1272.44L85.5944 1270.92C80.9272 1276.99 77.3814 1284.03 75.0781 1291.77V1291.74Z" fill="white"/>
<path d="M72.1992 1327.75V1340.31H74.7146V1327.75V1315.22H72.1992V1327.75Z" fill="white"/>
<path d="M74.7146 1363.3H72.1992V1386.33H74.7146V1363.3Z" fill="white"/>
<path d="M72.1992 1421.89V1434.42H74.7146V1421.89V1409.33H72.1992V1421.89Z" fill="white"/>
<path d="M74.7146 1457.42H72.1992V1480.44H74.7146V1457.42Z" fill="white"/>
<path d="M74.7146 1503.44H72.1992V1516H74.7146V1503.44Z" fill="white"/>
<path d="M323.437 64.6217C323.437 64.379 323.528 64.1666 323.558 63.9239C323.619 63.5901 323.68 63.2261 323.71 62.862L323.892 59.3427C323.892 59.3427 323.922 58.7359 323.922 58.2505V6.18912C323.922 4.33845 323.922 2.4271 323.983 0H322.104C322.013 2.4271 322.013 4.33845 322.043 6.18912V59.1303L321.831 62.7407C321.831 62.9834 321.77 63.2868 321.71 63.5901C321.649 63.8632 321.619 64.1059 321.589 64.3486C320.952 68.8388 319.528 73.1469 317.346 77.0909L319.013 78.0011C321.285 73.8447 322.771 69.3242 323.437 64.6217Z" fill="white"/>
<path d="M374.837 72.0243L375.019 70.8411C375.171 69.8703 375.292 68.8994 375.413 67.9286L375.807 59.7371C375.837 59.0697 375.837 58.6753 375.837 58.2505V7.15996C375.837 4.55082 375.837 1.60796 375.928 0H374.049C373.958 1.66863 373.958 4.4598 373.958 7.15996V58.2505C373.989 58.6146 373.958 59.0393 373.928 59.6461L373.534 67.7769C373.443 68.6871 373.292 69.6276 373.14 70.5681L372.989 71.7513C371.473 82.3699 367.927 92.9278 362.775 102.302L364.412 103.213C369.685 93.6559 373.292 82.8553 374.837 72.0243Z" fill="white"/>
<path d="M350.199 6.6442C350.199 4.49014 350.169 2.24507 350.29 0H347.775C347.684 2.24507 347.684 4.45981 347.684 6.6442C347.684 7.85775 347.684 9.07131 347.684 10.2545H350.199V6.6442Z" fill="white"/>
<path d="M347.684 56.3089H350.169L350.199 50.5445V33.2817H347.684V56.3089Z" fill="white"/>
<path d="M337.287 97.964C337.711 97.3876 338.166 96.7808 338.59 96.2043C339.378 95.0515 340.075 93.8986 340.772 92.7154C341.166 92.0783 341.53 91.4411 341.924 90.804L340.863 90.1366L341.954 90.7434C342.591 89.5601 343.197 88.3466 343.772 87.1027C344.076 86.4352 344.409 85.7678 344.742 85.1003C345.318 83.7958 345.773 82.5215 346.227 81.2473C346.47 80.5495 346.712 79.8517 346.985 79.1843L344.651 78.3044C344.379 79.0022 344.136 79.7 343.863 80.4282C343.409 81.6417 342.985 82.8856 342.469 84.0688C342.166 84.6756 341.833 85.3431 341.53 86.0408C340.984 87.2241 340.408 88.3769 339.802 89.5298C339.408 90.1669 339.014 90.804 338.651 91.4411C337.984 92.5637 337.317 93.6559 336.59 94.7481C336.166 95.2942 335.741 95.8706 335.287 96.4774C334.499 97.5392 333.741 98.6011 332.893 99.6023L334.832 101.21C335.711 100.179 336.499 99.0562 337.317 97.964H337.287Z" fill="white"/>
<path d="M295.071 123.752C303.041 122.447 310.436 119.808 317.073 115.985L315.8 113.801C309.436 117.502 302.344 119.99 294.646 121.264L295.04 123.752H295.071Z" fill="white"/>
<path d="M266.432 127.302C267.159 127.12 267.886 126.938 268.614 126.756C269.947 126.392 271.19 126.058 272.493 125.845L272.099 123.358C270.675 123.6 269.311 123.964 267.977 124.298C267.28 124.48 266.553 124.662 265.856 124.844C264.432 125.208 263.098 125.724 261.825 126.21C261.158 126.452 260.461 126.725 259.764 126.968L260.158 128.151L259.673 126.998C255.673 128.606 251.854 130.609 248.248 132.945L249.612 135.068C253.067 132.823 256.794 130.912 260.613 129.365C261.31 129.122 261.977 128.879 262.674 128.606C263.947 128.121 265.159 127.666 266.432 127.332V127.302Z" fill="white"/>
<path d="M222.972 170.534C225.185 163.101 228.609 156.366 233.095 150.511L231.094 148.994C226.427 155.062 222.881 162.1 220.578 169.837L222.972 170.565V170.534Z" fill="white"/>
<path d="M220.185 205.849V193.289H217.67V205.849V218.379H220.185V205.849Z" fill="white"/>
<path d="M220.185 241.406H217.67V264.433H220.185V241.406Z" fill="white"/>
<path d="M217.67 299.96V312.49H220.185V299.96V287.4H217.67V299.96Z" fill="white"/>
</g>
<defs>
<linearGradient id="paint0_linear_1683_10102" x1="187.658" y1="299.929" x2="187.658" y2="1035.74" gradientUnits="userSpaceOnUse">
<stop stop-color="#D2E3D3"/>
<stop offset="1" stop-color="#DDE1FF"/>
</linearGradient>
<linearGradient id="paint1_linear_1683_10102" x1="207.367" y1="1005.88" x2="207.367" y2="1516" gradientUnits="userSpaceOnUse">
<stop stop-color="#DDE1FF"/>
<stop offset="0.685" stop-color="#D2E3D3"/>
<stop offset="1" stop-color="white"/>
</linearGradient>
<linearGradient id="paint2_linear_1683_10102" x1="284.569" y1="1.6224e-08" x2="284.163" y2="299.728" gradientUnits="userSpaceOnUse">
<stop stop-color="white"/>
<stop offset="0.22" stop-color="#FFF7D3"/>
<stop offset="1" stop-color="#D2E3D3"/>
</linearGradient>
<clipPath id="clip0_1683_10102">
<rect width="395.677" height="1516" fill="white" transform="translate(-10.082)"/>
</clipPath>
</defs>
</svg>
