<svg width="82" height="78" viewBox="0 0 82 78" fill="none" xmlns="http://www.w3.org/2000/svg">
<rect width="82" height="78" rx="39" fill="#F5D32F"/>
<path d="M52.8102 23.56H48.5095V23.4895C48.5095 20.3168 45.9009 17.6377 42.6577 17.6377H39.3441C36.1714 17.6377 33.4923 20.2463 33.4923 23.4895V23.56H29.1916C25.5959 23.56 22.6348 26.4506 22.6348 30.1168V36.1801C22.6348 37.5901 23.6218 38.7887 24.9614 39.0707V54.5109C24.9614 57.6836 27.57 60.3627 30.8132 60.3627H51.1886C54.3613 60.3627 57.0404 57.7541 57.0404 54.5109V39.0707C58.3799 38.7182 59.367 37.5901 59.367 36.1801V30.0463C59.2965 26.5211 56.4059 23.56 52.8102 23.56ZM36.7354 23.4895C36.7354 22.0089 37.934 20.8103 39.4146 20.8103H42.7282C44.2088 20.8103 45.4073 22.0089 45.4073 23.4895V23.56H36.7354V23.4895ZM25.9484 30.1168C25.9484 28.2837 27.429 26.7326 29.3326 26.7326H52.8807C54.7138 26.7326 56.2648 28.2132 56.2648 30.1168V36.0391H25.9484V30.1168ZM53.8677 49.7872H49.4965V48.8002C49.4965 46.403 47.5224 44.3584 45.0548 44.3584H36.9469C34.5498 44.3584 32.5052 46.3325 32.5052 48.8002V49.7872H28.134V39.2117H53.7972V49.7872H53.8677ZM46.3239 49.7872H35.7484V48.8002C35.7484 48.0951 36.3124 47.5311 37.0174 47.5311H45.1253C45.8304 47.5311 46.3944 48.0951 46.3944 48.8002V49.7872H46.3239ZM51.1886 57.19H30.8837C29.4031 57.19 28.2045 55.9915 28.2045 54.5109V52.9598H53.8677V54.5109C53.8677 55.9915 52.6692 57.19 51.1886 57.19Z" fill="white" stroke="white"/>
<path d="M44.9887 30.1162H37.0923C36.2462 30.1162 35.4707 30.8212 35.4707 31.7378C35.4707 32.6543 36.1757 33.3594 37.0923 33.3594H44.9887C45.8347 33.3594 46.6102 32.6543 46.6102 31.7378C46.6102 30.8212 45.8347 30.1162 44.9887 30.1162Z" fill="white" stroke="white"/>
</svg>
