<svg width="82" height="78" viewBox="0 0 82 78" fill="none" xmlns="http://www.w3.org/2000/svg">
<rect width="82" height="78" rx="39" fill="#FB5865"/>
<path d="M57.4146 20.1797H24.356C21.4814 20.1797 19.1816 22.4794 19.1816 25.3541V39.5118C19.1816 42.3146 21.4095 44.5424 24.2123 44.6862C25.0028 46.6266 27.0151 48.0639 29.3867 48.0639C31.6864 48.0639 33.6987 46.6984 34.5611 44.6862H47.497C48.2876 46.6266 50.2998 48.0639 52.6714 48.0639C54.9712 48.0639 56.9834 46.6266 57.8458 44.6862C60.6486 44.6143 62.8765 42.3146 62.8765 39.5118V25.3541C62.6609 22.4794 60.2893 20.1797 57.4146 20.1797ZM29.3148 44.8299C28.0212 44.8299 27.0151 43.8956 27.0151 42.7458C27.0151 41.5959 28.0212 40.6616 29.3148 40.6616C30.6084 40.6616 31.6145 41.5959 31.6145 42.7458C31.6145 43.8238 30.5365 44.8299 29.3148 44.8299ZM52.4558 44.8299C51.1622 44.8299 50.1561 43.8956 50.1561 42.7458C50.1561 41.5959 51.1622 40.6616 52.4558 40.6616C53.7494 40.6616 54.7556 41.5959 54.7556 42.7458C54.7556 43.8238 53.7494 44.8299 52.4558 44.8299ZM59.4269 39.5118C59.4269 40.446 58.7801 41.2366 57.9177 41.3803C57.3428 39.0806 55.1149 37.3558 52.5277 37.3558C49.9405 37.3558 47.7126 39.0806 47.1377 41.4522H34.6329C34.058 39.0806 31.8301 37.3558 29.2429 37.3558C26.6558 37.3558 24.4998 39.0806 23.853 41.3803C22.9906 41.1647 22.2719 40.446 22.2719 39.5118V25.3541C22.2719 24.2761 23.1343 23.4137 24.2123 23.4137H57.2709C58.3489 23.4137 59.2113 24.2761 59.2113 25.3541V39.5118H59.4269Z" fill="white" stroke="white"/>
<path d="M29.3132 50.0039C25.2887 50.0039 21.4797 52.0162 19.3956 55.322C18.8926 56.0407 19.1082 57.0468 19.8987 57.5499C20.6892 58.053 21.6235 57.8374 22.1265 57.0468C23.6357 54.6752 26.3667 53.2379 29.3132 53.2379C32.2597 53.2379 34.9906 54.6752 36.4998 57.0468C36.7873 57.5499 37.3622 57.7655 37.8653 57.7655C38.1528 57.7655 38.4402 57.6936 38.7277 57.5499C39.4464 57.0468 39.7338 56.0407 39.2308 55.322C37.0748 52.0162 33.3377 50.0039 29.3132 50.0039Z" fill="white" stroke="white"/>
<path d="M52.4499 50.0039C48.4254 50.0039 44.6165 52.0162 42.5323 55.322C42.0293 56.1126 42.2449 57.0468 43.0354 57.5499C43.3229 57.6936 43.6103 57.7655 43.8978 57.7655C44.4009 57.7655 44.9758 57.478 45.2633 57.0468C46.7725 54.6752 49.5034 53.2379 52.4499 53.2379C55.3964 53.2379 58.1274 54.6752 59.6366 57.0468C60.1396 57.7655 61.1458 58.053 61.8644 57.5499C62.5831 57.0468 62.8706 56.0407 62.3675 55.322C60.2834 52.0162 56.5463 50.0039 52.4499 50.0039Z" fill="white" stroke="white"/>
</svg>
