<svg width="230" height="42" viewBox="0 0 230 42" fill="none" xmlns="http://www.w3.org/2000/svg">
<path d="M2.48381 25.9678L4.72 25.7385C4.64355 27.0955 4.39509 28.4716 4.01283 29.8859C3.63058 31.3003 3.11453 32.5426 2.48381 33.6129C1.70019 33.2689 1.05036 33.0395 0.496094 32.944C1.1077 31.9692 1.58552 30.8225 1.92955 29.5419C2.29269 28.2614 2.48381 27.0764 2.48381 25.987V25.9678ZM3.13365 23.2921L10.4538 20.3296C11.5432 21.4381 12.8047 22.432 14.2572 23.3303C15.7098 24.2286 17.105 24.8402 18.4238 25.1842C17.9269 25.8149 17.5446 26.4839 17.2962 27.1719C16.0729 26.7706 14.8115 26.159 13.4927 25.3371C12.174 24.5344 10.9699 23.617 9.88043 22.6231L3.84082 25.0695L3.11453 23.2921H3.13365ZM12.9194 31.4914L14.2764 30.0197C15.6142 30.6887 16.9521 31.4532 18.3282 32.3133C19.6852 33.1733 20.7938 33.9761 21.6156 34.6832L20.1822 36.4034C19.9337 36.1549 19.4368 35.7535 18.6914 35.161C10.148 39.0983 5.69475 41.1433 5.35072 41.2962L4.35686 39.4996L7.10909 38.2764C7.47223 34.9508 7.52957 31.759 7.2811 28.6818L9.61285 28.3378C9.61285 31.3003 9.44084 34.301 9.09681 37.3972C10.0333 36.9959 11.4477 36.346 13.3398 35.5051C15.232 34.645 16.417 34.129 16.8757 33.9187C15.5951 33.0395 14.2764 32.2368 12.9194 31.5105V31.4914Z" fill="#6B6B6B"/>
<path d="M34.2819 13.3919L35.6389 13.5257C35.6772 15.6663 35.2758 17.7496 34.4539 19.7755C36.1359 20.54 37.856 20.9414 39.6526 21.0178C39.3277 21.5912 39.1174 22.2219 39.0028 22.9291L38.5632 22.8909L40.6273 29.4083L38.8308 29.9817L38.6205 29.3319L34.1673 30.7462L34.3966 31.4534L32.6956 31.9885L30.6123 25.4329C30.2874 25.7387 30.0198 25.968 29.8478 26.1018C29.6949 25.9489 29.4464 25.7387 29.0642 25.452L26.7133 26.2165L27.7263 29.3892L30.0389 28.0322L30.7652 29.6186C29.0451 30.6889 26.6368 32.1606 23.5406 33.9954L22.6614 32.2943C22.6614 32.2943 22.8334 32.1988 23.0437 32.0841C23.273 31.9694 23.445 31.8739 23.5597 31.7974L21.4191 25.0506L22.9481 24.5728L24.9932 31.0138L26.2164 30.3066L23.7317 22.4704L20.9604 23.3496L18.9727 17.0615L25.5857 14.9591L27.2102 20.0813C28.2805 18.0554 28.8157 15.7045 28.7966 13.0479L30.727 12.9141C30.727 13.4683 30.6887 14.0417 30.6314 14.6533L34.0335 13.5639L34.3202 13.3919H34.2819ZM21.0559 18.1509L22.0307 21.2281L25.299 20.196L24.3242 17.1189L21.0559 18.1509ZM28.5672 23.8465L28.8348 24.6684C30.1536 23.5407 31.2621 22.1264 32.1604 20.4636C31.4724 20.0431 30.7079 19.4315 29.8478 18.6479C29.5611 19.5653 29.2553 20.368 28.9304 21.037C28.4717 20.7885 27.9174 20.54 27.2867 20.3298L27.5734 21.2281L25.3945 21.9161L26.2355 24.5728L28.5863 23.8274L28.5672 23.8465ZM33.7085 15.3987L30.3638 16.469L30.3065 16.8895C31.1474 17.6922 32.0075 18.3612 32.8676 18.8963C33.2881 17.8451 33.5748 16.6793 33.7277 15.3987H33.7085ZM31.6062 24.3817L37.1488 22.6233C35.9639 22.3557 34.8362 21.9544 33.7277 21.381C33.1734 22.394 32.4662 23.4069 31.6253 24.3817H31.6062ZM33.6703 29.1407L38.1236 27.7264L37.0724 24.4008L32.6191 25.8151L33.6703 29.1407Z" fill="#6B6B6B"/>
<path d="M47.0159 18.8189L45.7353 19.2012L47.7231 27.7063L46.0794 28.0886L44.1108 19.7172C43.8432 19.7937 43.3845 19.9274 42.7155 20.1377C42.0466 20.3479 41.5688 20.4817 41.2439 20.5773L40.6705 18.9527L42.1995 18.5131C42.6582 17.3855 42.8876 16.793 42.8876 16.7738C42.1039 16.0285 41.0527 15.2448 39.7148 14.423L40.3647 12.9895C40.6896 13.1615 40.9189 13.3144 41.091 13.41C41.4732 12.0721 41.7408 10.696 41.8555 9.28167L43.6329 9.49191C43.136 11.5943 42.6964 13.1615 42.3333 14.2127C42.7538 14.4994 43.136 14.8052 43.48 15.111C43.9005 13.8305 44.2828 12.5117 44.5695 11.1356L46.2705 11.4605C45.3913 14.1554 44.5886 16.3534 43.8432 18.0353L46.0603 17.3855C45.8882 17.0988 45.506 16.6209 44.9708 15.9329L46.1558 15.111C47.4364 16.5063 48.3347 17.8442 48.8698 19.0674L47.5893 19.9848C47.4364 19.6216 47.2452 19.2394 46.9968 18.838L47.0159 18.8189ZM42.3906 21.4947L43.977 21.3991C44.2254 23.6353 44.1872 25.4701 43.8623 26.8845C43.4609 26.7316 42.964 26.6169 42.3715 26.5404C42.6582 25.2981 42.6582 23.6162 42.3715 21.4947H42.3906ZM46.519 20.864L47.7231 20.1377C48.5449 21.2462 49.1756 22.4121 49.6152 23.5971L48.3538 24.3425C47.9524 23.1766 47.3408 22.0107 46.519 20.864ZM52.0808 19.2967L52.7497 18.4175L49.2139 19.2394L47.0541 10.0462L50.8576 9.14788C50.9531 8.34514 50.9913 7.63797 50.9722 7.04548L53.1702 6.89258C53.1128 7.23661 52.9599 7.8291 52.7497 8.70828L57.2603 7.65709L59.42 16.8503L53.5716 18.2264C55.0623 18.6851 56.1709 19.1438 56.8398 19.6025L55.8651 20.9595C54.9859 20.3479 53.7245 19.7937 52.0808 19.2776V19.2967ZM48.9081 11.1356L50.3797 17.4237L52.0808 17.0223C51.8514 16.7738 51.5647 16.5636 51.278 16.4298C52.0999 15.8755 52.807 15.1875 53.3995 14.3274C52.8644 14.1363 52.4248 13.9834 52.0808 13.8878C51.7558 14.4421 51.4309 14.9199 51.0869 15.3213C50.7811 15.0537 50.418 14.8626 49.9975 14.7288C50.3033 14.3848 50.59 13.9834 50.8767 13.5247C50.4944 13.4291 50.093 13.3336 49.7108 13.2571L50.3988 12.225C50.4944 12.225 50.6664 12.2824 50.8958 12.3397C51.1251 12.397 51.2971 12.4353 51.4118 12.4544C51.7367 11.7281 51.9279 11.04 51.9661 10.4475L53.2275 10.3138C53.1511 10.7533 53.0937 11.0209 53.0746 11.1356L54.7757 10.7342L54.9859 10.6196L55.8651 10.7533C55.8077 11.7281 55.5784 12.7028 55.177 13.6394C55.6931 13.8305 56.19 14.0407 56.6869 14.3083L56.018 15.4551C55.6357 15.2257 55.1579 15.0155 54.5654 14.7861C54.0494 15.5697 53.4378 16.2578 52.6924 16.8885L57.4897 15.7609L56.018 9.47279L48.9081 11.1356ZM50.934 26.3302L49.405 25.8906C50.0548 24.8585 50.3033 23.3486 50.1122 21.38H51.6794C51.8705 23.6353 51.6221 25.279 50.934 26.3302ZM55.2726 24.2087L56.8781 23.8264C57.1074 23.7691 57.2412 23.6544 57.2603 23.4442C57.2985 23.2531 57.2412 22.7943 57.0883 22.0681C57.4897 22.2783 58.0248 22.3739 58.7129 22.3548C58.8467 23.3677 58.8275 24.094 58.6555 24.4954C58.4835 24.8967 58.0822 25.1643 57.4514 25.3172L55.3681 25.795C54.5654 25.9862 54.0111 25.9671 53.6862 25.7568C53.3613 25.5275 53.1128 25.0305 52.9217 24.2087L52.0808 20.6346L53.7436 20.2524L54.5845 23.8073C54.6419 24.0558 54.6992 24.2087 54.7757 24.2469C54.8521 24.2851 55.005 24.266 55.2917 24.2087H55.2726ZM54.4507 11.881L52.7688 12.2824C52.7115 12.4353 52.6541 12.6073 52.5968 12.7793C52.7497 12.8366 52.9791 12.894 53.304 12.9895C53.6289 13.0851 53.8582 13.1615 54.0111 13.1998C54.2023 12.7984 54.3552 12.3397 54.4507 11.8619V11.881ZM57.375 20.0039L58.6173 19.01C59.2863 19.5643 59.917 20.195 60.5286 20.9213C61.1402 21.6476 61.5798 22.2974 61.8856 22.8899L60.605 23.9793C59.917 22.6414 58.8275 21.3227 57.375 20.0039Z" fill="#6B6B6B"/>
<path d="M65.7242 12.5511L79.7147 10.3913C79.772 10.7927 79.8103 11.0603 79.8294 11.2514C80.1925 14.4432 80.4027 16.6985 80.4601 18.0364C80.5174 19.3743 80.4219 20.2535 80.1734 20.6548C79.9058 21.1327 79.4471 21.4576 78.7973 21.6296C78.2621 21.7825 77.3829 21.9354 76.1215 22.0883C76.0068 21.4767 75.7201 20.8842 75.2997 20.349C76.2553 20.2917 77.0007 20.2152 77.5932 20.1006C77.899 20.0623 78.1283 19.9286 78.2812 19.6801C78.6061 19.164 78.5106 16.7367 78.0137 12.4173L65.8771 14.2903C66.1064 18.0555 65.6477 21.0944 64.5201 23.388C64.329 23.2351 64.0423 23.063 63.6791 22.8528C63.2969 22.6426 63.0102 22.5088 62.7617 22.4132C63.316 21.2664 63.6791 19.9477 63.8511 18.4187C64.0232 16.8896 64.0614 15.5709 63.9849 14.4623C63.9085 13.3538 63.7556 12.1115 63.5262 10.6971L62.7617 5.72782L77.1536 3.51074L78.0137 9.07254L65.5331 11.0029C65.5904 11.3087 65.6477 11.8439 65.7433 12.5702L65.7242 12.5511ZM75.4717 5.44113L64.9215 7.0657L65.2655 9.34012L75.8157 7.71554L75.4717 5.44113ZM76.4464 19.7374L70.2348 20.6931L70.4259 21.9163L68.6293 22.1839L67.5972 15.4944L75.5863 14.2521L76.4273 19.7374H76.4464ZM74.0191 16.0869L69.6232 16.775L69.9863 19.1449L74.3822 18.4569L74.0191 16.0869Z" fill="#6B6B6B"/>
<path d="M87.3823 8.25034L86.1782 9.64557C85.4136 8.90017 84.2669 8.15478 82.7188 7.40938L83.9037 6.16706C85.4519 6.81689 86.6177 7.50494 87.4014 8.25034H87.3823ZM87.0956 11.0217L87.516 16.4115C88.529 17.7111 90.2874 18.3036 92.8103 18.1889C93.9952 18.1507 95.6581 18.036 97.7796 17.8449C99.9011 17.6538 101.602 17.4436 102.902 17.2524C102.653 17.9405 102.52 18.5712 102.5 19.1446C99.4615 19.5268 96.2697 19.7944 92.9632 19.9473C90.2874 20.0429 88.2614 19.4122 86.8853 18.0743C86.159 18.9535 85.3563 19.8709 84.4771 20.8074L83.3686 19.049C84.2287 18.3036 85.0123 17.5391 85.7194 16.7555L85.4328 12.9521L83.1392 13.1241L83.0054 11.3657L87.1147 11.0408L87.0956 11.0217ZM87.3823 4.31312L86.3502 5.38344C86.0253 5.02029 85.5474 4.61893 84.9358 4.17933C84.3242 3.73974 83.7317 3.35749 83.1392 3.05169L84.3433 1.84759C85.815 2.55476 86.9044 3.28104 87.6116 4.04555L87.4969 4.16022L90.0198 3.9691L89.8096 1.19775L91.6062 1.06396L91.8164 3.83531L94.3966 3.64418L94.4731 4.71449C95.0847 3.5295 95.486 2.1725 95.6581 0.662598L97.3591 0.911063C97.2444 1.63735 97.0915 2.28718 96.9386 2.86056L101.315 2.51653L101.43 4.14111L96.3843 4.52336C96.2314 4.98207 95.9639 5.53634 95.5816 6.18617L100.035 5.84214L100.379 5.72746L101.507 6.39641C100.895 7.56228 100.15 8.65171 99.2895 9.66468L99.3277 10.2189L101.984 10.0087L102.099 11.5568L99.4424 11.7671L99.6908 14.9589C99.7482 15.7807 99.557 16.3159 99.0983 16.5644C98.697 16.7937 97.856 16.9657 96.5946 17.0613C96.4799 16.5835 96.2505 16.0483 95.8874 15.4941C96.843 15.4558 97.4738 15.3985 97.7413 15.3412C97.856 15.3412 97.9516 15.3029 97.9707 15.2647C98.0089 15.2265 98.028 15.15 98.0089 15.0353L97.7605 11.8818L95.142 12.092L95.0273 10.5439L97.6458 10.3336L97.5311 8.7855L98.2 8.72816C98.5058 8.32679 98.8116 7.86809 99.0792 7.39027L95.4669 7.67696L95.3714 6.51108L95.1802 6.77866C94.798 6.41552 94.3202 6.09061 93.7659 5.76569C93.8041 5.72746 93.8615 5.65101 93.9188 5.55545C93.9952 5.45989 94.0335 5.38344 94.0717 5.3261L90.8034 5.57456L90.9563 7.48583L94.2628 7.23737C94.2628 7.5814 94.2819 7.82986 94.3011 7.98276C94.454 10.9835 94.5495 13.0859 94.5495 14.2517C94.5495 15.4176 94.454 16.163 94.2628 16.507C93.9761 16.9084 93.613 17.1569 93.1543 17.2333C92.8294 17.3289 92.256 17.3862 91.415 17.4244C91.3195 16.7555 91.1283 16.2395 90.8608 15.8763C91.2621 15.8763 91.7017 15.8763 92.1987 15.8381C92.428 15.8381 92.6 15.7425 92.7147 15.5323C92.9249 15.1691 92.9249 12.9903 92.7147 8.97662L91.071 9.11041C91.2621 12.7801 90.6505 15.5705 89.198 17.4627C88.7584 17.0231 88.3379 16.679 87.8983 16.4306C89.1788 14.634 89.6758 12.0155 89.4082 8.57526L89.198 5.72746L87.4205 5.86125L87.3058 4.37046L87.3823 4.31312Z" fill="#6B6B6B"/>
<path d="M117.943 17.6536L120.905 17.6154C121.268 17.6154 121.517 17.5007 121.612 17.3096C121.727 17.1184 121.784 16.6215 121.822 15.8379C122.262 16.1055 122.816 16.2966 123.485 16.4304C123.409 17.4816 123.199 18.1887 122.893 18.5519C122.568 18.915 121.994 19.1061 121.153 19.1061L117.77 19.1635C116.662 19.1635 115.936 19.0488 115.553 18.7812C115.19 18.5137 114.999 17.9785 114.98 17.1567V15.9908L112.209 16.029C111.884 17.0802 111.196 17.8829 110.164 18.4181C109.132 18.9532 107.45 19.3546 105.137 19.6031C104.965 19.087 104.678 18.5901 104.258 18.1123C106.226 17.9594 107.641 17.73 108.501 17.4242C109.361 17.1184 109.953 16.6597 110.24 16.0481L107.411 16.0863L107.297 9.22488L120.236 9.01464L120.351 15.8761L116.853 15.9334V17.0993C116.872 17.3478 116.949 17.5007 117.082 17.558C117.216 17.6154 117.503 17.6345 117.981 17.6345L117.943 17.6536ZM113.642 7.21805V8.38392L105.08 8.51771L104.965 0.987304L113.375 0.853515V2.0385L110.106 2.09584V2.99414L112.897 2.95591L112.954 6.18596L110.183 6.22418V7.27538L113.642 7.21805ZM108.558 2.11495L106.666 2.15318V3.05148L108.577 3.01325V2.11495H108.558ZM111.253 5.09654V4.06445L106.704 4.1409V5.17299L111.253 5.09654ZM106.742 6.28152V7.33272L108.654 7.2945V6.2433L106.742 6.28152ZM109.132 10.2952V11.1553L118.306 11.0024V10.1423L109.132 10.2952ZM109.17 12.1682V13.0474L118.344 12.8945V12.0153L109.17 12.1682ZM109.208 14.0986V14.9778L118.382 14.8249V13.9457L109.208 14.0986ZM122.95 2.47809L116.127 2.59277C115.649 3.35728 115.037 4.06445 114.311 4.71428C113.872 4.17913 113.432 3.8351 112.992 3.64397C114.177 2.68833 114.98 1.54157 115.42 0.18457L117.14 0.413923C117.044 0.700613 116.91 0.987304 116.777 1.27399L122.893 1.17843V2.47809H122.95ZM114.56 8.47948L114.502 5.1921L122.644 5.05831L122.702 8.34569L114.56 8.47948ZM115.63 3.29994L121.937 3.20438V4.37025L115.649 4.46582V3.29994H115.63ZM115.859 6.14773V7.4474H116.968V6.14773H115.859ZM117.962 6.10951V7.40917H119.108V6.10951H117.962ZM120.121 6.0904V7.39006L121.306 7.37095V6.07128L120.121 6.0904Z" fill="#6B6B6B"/>
<path d="M144.261 16.2586L144.127 18.0169L135.622 17.3862L135.393 20.3487L133.386 20.1958L133.615 17.2333L125.32 16.6217L125.454 14.8633L133.749 15.4749L133.864 14.0224L127.729 13.5637L128.34 5.3261L134.475 5.7848L134.571 4.50425L126.888 3.93087L127.021 2.15339L134.705 2.72677L134.838 0.930176L136.845 1.08308L136.711 2.87967L144.509 3.45305L144.376 5.23053L136.578 4.65715L136.482 5.9377L142.77 6.41552L142.159 14.6531L135.871 14.1753L135.756 15.6278L144.261 16.2586ZM129.716 12.1111L133.978 12.436L134.112 10.6585L129.85 10.3336L129.716 12.1111ZM130.098 7.10358L129.965 8.84284L134.227 9.16775L134.361 7.4285L130.098 7.10358ZM140.324 12.8947L140.458 11.1172L136.119 10.7923L135.985 12.5698L140.324 12.8947ZM140.706 7.8872L136.367 7.56228L136.234 9.30154L140.572 9.62646L140.706 7.8872Z" fill="#6B6B6B"/>
<path d="M153.068 7.27497L154.788 8.24971C153.909 9.2818 152.992 10.2183 152.055 11.0784L150.412 21.9153L148.481 21.6286L149.8 12.9323C149.074 13.4675 148.29 13.9835 147.449 14.4805C147.182 13.8115 146.818 13.1999 146.379 12.6456C147.583 12.034 148.787 11.2504 149.972 10.2948C151.176 9.33914 152.208 8.32617 153.068 7.29408V7.27497ZM152.935 2.72614L154.674 3.77734C153.833 4.59919 152.839 5.40192 151.692 6.18554C150.545 6.98828 149.456 7.65722 148.386 8.19238C148.195 7.58077 147.908 7.00739 147.526 6.45312C148.481 6.01353 149.475 5.45926 150.488 4.75209C151.501 4.04492 152.323 3.37598 152.935 2.70703V2.72614ZM166.218 11.8047L165.931 13.6586L162.931 13.1999L161.707 21.189C161.631 21.7624 161.478 22.1829 161.287 22.4505C161.096 22.718 160.79 22.9092 160.369 23.0047C159.758 23.1385 158.439 23.0429 156.413 22.7371C156.413 22.1638 156.298 21.4948 156.069 20.7112C157.56 20.9788 158.592 21.1508 159.165 21.2081C159.509 21.2655 159.7 21.1508 159.739 20.8832L160.943 12.9132L154.387 11.9194L154.674 10.0654L166.199 11.8238L166.218 11.8047ZM166.485 6.03264L166.199 7.88657L156.126 6.35756L156.413 4.50363L166.485 6.03264Z" fill="#6B6B6B"/>
<path d="M185.464 23.9991L185.063 25.7192L176.768 23.7888L176.099 26.694L174.13 26.2353L174.799 23.3301L166.695 21.4571L167.097 19.7369L175.2 21.61L175.525 20.1956L169.524 18.8004L171.397 10.754L177.398 12.1492L177.685 10.8878L170.193 9.14851L170.594 7.40925L178.086 9.14851L178.488 7.39014L180.456 7.84884L180.055 9.60721L187.681 11.3656L187.28 13.1048L179.654 11.3274L179.367 12.5888L185.502 14.0222L183.629 22.0687L177.494 20.6352L177.169 22.0496L185.464 23.98V23.9991ZM171.722 17.6728L175.889 18.6284L176.29 16.8891L172.123 15.9335L171.722 17.6728ZM172.869 12.7799L172.467 14.4809L176.634 15.4366L177.035 13.7356L172.869 12.7799ZM182.081 20.081L182.482 18.3417L178.239 17.367L177.838 19.1062L182.081 20.081ZM183.228 15.1881L178.985 14.2134L178.583 15.9144L182.826 16.8891L183.228 15.1881Z" fill="#6B6B6B"/>
<path d="M194.946 24.152L193.092 30.0387L188.658 28.6435L188.391 29.4844L186.785 28.9875L188.907 22.2598L194.946 24.152ZM192.844 25.1267L190.053 24.2475L189.136 27.1527L191.926 28.0319L192.844 25.1267ZM189.346 21.0175L189.805 19.5458L195.806 21.438L195.348 22.9097L189.327 21.0175H189.346ZM198.215 16.2775L197.737 17.7683L190.073 15.3601L190.55 13.8693L198.215 16.2775ZM190.187 18.3417L190.646 16.8892L196.647 18.7813L196.189 20.2339L190.187 18.3417ZM198.291 13.3915L197.832 14.8441L191.965 12.9902L192.423 11.5376L198.291 13.3915ZM207.064 25.8912L206.509 27.6496L201.903 26.197L199.667 33.307L197.813 32.7145L200.049 25.6045L195.405 24.152L195.959 22.3936L200.604 23.8462L202.725 17.1185L198.845 15.8953L199.4 14.1752L209.357 17.3096L208.803 19.0298L204.579 17.6919L202.458 24.4196L207.064 25.8721V25.8912ZM199.896 17.1376L201.464 18.0359C200.183 20.081 198.979 21.5335 197.832 22.3936C197.507 21.9349 197.106 21.5335 196.666 21.1895C197.851 20.3103 198.922 18.9533 199.916 17.1376H199.896ZM204.98 19.2974L206.643 19.1827C207.102 21.266 207.274 23.0434 207.217 24.5533L205.458 24.6871C205.573 23.2537 205.42 21.4762 205 19.3165L204.98 19.2974Z" fill="#6B6B6B"/>
<path d="M223.364 40.0344L224.282 40.3975L223.651 41.9648L212.011 37.2821L212.508 36.0398C209.909 35.562 207.768 35.1797 206.105 34.8548L206.335 33.0391C207.443 33.2685 208.456 33.4978 209.412 33.7081L211.686 28.0698L209.049 27.0186L209.68 25.4705L212.317 26.5217L213.024 24.7633L211.228 24.037L211.495 23.349C211.304 23.4445 211.113 23.5401 210.903 23.5974C210.75 22.9667 210.521 22.4316 210.215 21.992C212.241 21.2657 214.037 20.0807 215.585 18.437L217.153 19.0677C217.86 20.6541 218.357 22.1258 218.663 23.4828L219.771 20.7305L225.18 22.9094L224.626 24.2664L223.078 23.6548L222.542 24.9736L223.938 25.5278L223.001 27.8787C224.263 26.7893 225.505 25.1838 226.728 23.0241L228.181 23.9415C227.684 24.7633 227.206 25.4896 226.766 26.1585L229.499 27.248L228.869 28.8152L225.715 27.5347C225.084 28.3183 224.454 28.949 223.861 29.4459C223.689 29.121 223.383 28.7005 222.906 28.1845L222.485 29.2357L221.09 28.6814L220.555 30.0002L222.294 30.7074L221.74 32.0644L216.14 29.8091L218.51 23.9032L216.961 24.6295L217.057 24.6678L216.445 26.1777L214.534 25.4131L213.827 27.1715L216.063 28.0698L215.452 29.6179L213.215 28.7196L211.056 34.0712L213.751 34.6255L213.33 36.0207L214.037 36.3074L216.14 31.0896L225.467 34.8357L223.364 40.0535V40.0344ZM208.839 28.3565L210.1 28.5476C209.947 30.0002 209.699 31.2807 209.355 32.3319L207.979 32.1599C208.38 31.0323 208.667 29.7517 208.839 28.3374V28.3565ZM212.948 33.7081L211.935 32.9627C212.738 31.9306 213.445 30.9176 214.018 29.9237L215.165 30.7456C214.075 32.2555 213.33 33.2302 212.929 33.7081H212.948ZM212.585 22.8712L216.904 24.6104C216.694 23.2534 216.369 21.9155 215.891 20.6159C214.706 21.5524 213.617 22.3169 212.566 22.8712H212.585ZM217 33.0965L215.49 36.8617L216.828 37.3968L218.338 33.6316L217 33.0965ZM220.841 34.6446L219.484 34.1094L217.974 37.8746L219.331 38.4098L220.841 34.6446ZM219.255 29.5033L219.79 28.1845L218.529 27.6876L217.994 29.0063L219.255 29.5033ZM221.721 27.6111L222.275 26.2159L219.542 25.1265L218.987 26.5217L221.721 27.6111ZM221.797 23.177L220.536 22.68L220 23.9988L221.262 24.4957L221.797 23.177ZM223.364 35.6576L221.988 35.1033L220.478 38.8685L221.854 39.4228L223.364 35.6576ZM222.409 31.9306L223.02 30.4016L227.244 32.1026L226.633 33.6316L222.409 31.9306Z" fill="#6B6B6B"/>
</svg>
