<svg width="224" height="42" viewBox="0 0 224 42" fill="none" xmlns="http://www.w3.org/2000/svg">
<path d="M3.93707 21.3887L6.91306 21.3422C6.63406 23.1092 6.16906 24.9227 5.49481 26.7594C4.82057 28.5961 4.00682 30.1771 3.05358 31.5024C2.07708 30.9444 1.21684 30.5724 0.496094 30.3864C1.40284 29.1541 2.17008 27.7126 2.79783 26.0387C3.42558 24.3879 3.79757 22.8302 3.96032 21.3887H3.93707ZM17.0732 29.8981L19.0262 28.1079C20.7235 29.1541 22.4207 30.3166 24.118 31.6186C25.8152 32.9206 27.1869 34.0831 28.1867 35.1293L26.0942 37.2218C25.7919 36.8731 25.1874 36.2686 24.2575 35.4083C12.493 39.6166 6.37831 41.8021 5.91331 41.9648L4.82057 39.4771L8.6103 38.1751C9.49379 33.8274 9.93554 29.5959 9.93554 25.5039L13.0743 25.3179C12.7255 29.2239 12.1443 33.1996 11.3305 37.2218C12.6325 36.7801 14.5623 36.1058 17.1662 35.1991C19.7702 34.2924 21.3745 33.7344 22.0255 33.5019C20.4212 32.1766 18.7705 30.9676 17.0732 29.8749V29.8981ZM5.09957 17.9245L15.1203 14.8555C16.4222 16.4597 17.98 17.9245 19.7935 19.2729C21.607 20.6214 23.374 21.5979 25.0944 22.2024C24.3737 22.9697 23.7925 23.8067 23.374 24.6902C21.793 24.0159 20.1887 23.0627 18.5612 21.8304C16.9337 20.5982 15.4458 19.2729 14.0973 17.8082L5.84356 20.3424L5.09957 17.9245Z" fill="#6B6B6B"/>
<path d="M47.5508 8.57742L49.3178 8.92617C49.0853 11.7626 48.3181 14.4596 46.9696 17.0404C49.0853 18.2494 51.3405 19.0166 53.6888 19.3189C53.2005 20.0396 52.8285 20.8533 52.596 21.7601L52.0148 21.6671L53.9445 30.5253L51.5033 31.06L51.3173 30.1765L45.2491 31.5018L45.4583 32.455L43.1333 32.9433L41.2036 24.0153C40.7154 24.3873 40.3666 24.6431 40.1109 24.8058C39.9249 24.5966 39.6226 24.2711 39.1576 23.8526L35.9491 24.5733L36.8791 28.8978L40.0876 27.3866L40.8316 29.572C38.4136 30.781 35.0424 32.4085 30.7412 34.4545L29.7879 32.1063C29.7879 32.1063 30.0204 31.99 30.3227 31.8738C30.6249 31.7343 30.8574 31.6413 31.0434 31.5715L29.0439 22.3878L31.1132 21.9461L32.9964 30.7113L34.6936 29.9208L32.3919 19.2724L28.6022 20.0861L26.7422 11.5302L35.7399 9.57716L37.2511 16.5521C38.9251 14.0179 39.9249 10.9954 40.2271 7.46143L42.8078 7.50793C42.7148 8.22867 42.5986 8.99592 42.4591 9.78641L47.0858 8.78667L47.4811 8.57742H47.5508ZM29.4857 13.2041L30.3924 17.3891L34.8331 16.4359L33.9264 12.2509L29.4857 13.2041ZM38.6926 21.6671L38.9484 22.7831C40.8316 21.4346 42.4591 19.7374 43.8541 17.6449C42.9938 16.9939 42.0638 16.1104 41.0176 14.9711C40.5294 16.1569 40.0179 17.1566 39.5064 17.9936C38.9484 17.5984 38.2509 17.2264 37.4139 16.8544L37.6696 18.0866L34.7169 18.7376L35.5074 22.3646L38.6926 21.6671ZM46.5278 11.1582L41.9708 12.1346L41.8313 12.6926C42.8543 13.8551 43.9006 14.8549 44.9701 15.6686C45.6676 14.3201 46.1791 12.8321 46.5278 11.1582ZM42.6218 22.7598L50.1548 21.1323C48.6436 20.6441 47.1788 19.9466 45.7838 19.0631C44.9236 20.3418 43.8773 21.5741 42.6218 22.7598ZM44.7608 29.293L50.829 27.9678L49.8525 23.4341L43.7843 24.7593L44.7608 29.293Z" fill="#6B6B6B"/>
<path d="M61.4495 14.25L60.3103 16.6215C59.264 16.017 57.5435 15.2962 55.1953 14.4825L56.3346 12.4132C58.6828 13.0875 60.38 13.7152 61.4728 14.25H61.4495ZM62.1005 6.90301L60.845 9.20474C59.822 8.484 58.148 7.67025 55.8231 6.81001L57.0786 4.74077C59.3105 5.48477 61.0078 6.20551 62.1238 6.87976L62.1005 6.90301ZM60.2405 29.0369L57.8225 27.6884C59.2408 24.5962 60.4265 21.5737 61.3798 18.6209L63.5188 20.0392C62.519 23.2709 61.4495 26.2701 60.2638 29.0369H60.2405ZM80.0494 6.60076L66.425 8.36775C65.7043 10.0882 64.8905 11.5762 63.9838 12.8085C63.4955 12.4597 62.7515 12.018 61.7285 11.4832C62.612 10.437 63.3793 9.18149 64.0303 7.6935C64.6813 6.20551 65.1695 4.69427 65.4717 3.11328L67.9827 3.43878C67.82 4.29902 67.5875 5.15927 67.3085 6.01951L79.7704 4.39202L80.0494 6.57751V6.60076ZM63.7048 14.8312L77.7244 12.9945C78.2592 17.0399 78.7242 20.0159 79.1194 21.8759C79.5147 23.7359 80.0029 24.6427 80.5609 24.5729C80.8864 24.5264 80.9097 23.2942 80.6307 20.8529C81.3049 21.4807 81.9094 21.9224 82.4209 22.2014C82.5371 23.8754 82.4907 25.0611 82.2582 25.7586C82.0257 26.4561 81.4909 26.8746 80.6539 26.9909C80.1424 27.0606 79.7007 26.9909 79.3054 26.8049C78.9102 26.6189 78.5382 26.2701 78.2359 25.7819C77.9104 25.2936 77.6314 24.7589 77.3989 24.1544C77.1432 23.5499 76.9107 22.7594 76.7014 21.8062C76.4689 20.8297 76.2829 19.8997 76.1202 18.9697C75.9574 18.0397 75.7947 16.9237 75.6087 15.5985L64.0535 17.1097L63.7513 14.8312H63.7048ZM78.1429 10.9485L66.0297 12.5295L65.7507 10.3905L77.8639 8.8095L78.1429 10.9485Z" fill="#6B6B6B"/>
<path d="M109.462 19.1559L109.579 21.5042L98.2792 22.0389L98.4652 25.9914L95.7914 26.1076L95.6054 22.1552L84.585 22.6667L84.4688 20.3184L95.4892 19.8069L95.3962 17.8772L87.2355 18.2492L86.724 7.2985L94.8847 6.9265L94.7917 5.20601L84.585 5.67101L84.4688 3.29953L94.6754 2.81128L94.5592 0.416542L97.2329 0.300293L97.3492 2.69503L107.719 2.20678L107.835 4.57827L97.4654 5.06651L97.5352 6.787L105.882 6.39176L106.393 17.3424L98.0467 17.7377L98.1397 19.6674L109.439 19.1327L109.462 19.1559ZM89.328 9.34449L89.4442 11.6695L95.1172 11.4137L95.0009 9.08874L89.328 9.34449ZM89.6535 16.0172L95.3032 15.7615L95.1869 13.39L89.5372 13.6457L89.6535 16.0172ZM103.441 8.69349L97.6747 8.97249L97.7909 11.2975L103.557 11.0185L103.441 8.71674V8.69349ZM103.743 15.3662L103.627 12.9947L97.8607 13.2737L97.9769 15.6452L103.743 15.3662Z" fill="#6B6B6B"/>
<path d="M131.111 7.29903L132.785 8.41502C131.529 10.3215 129.739 11.9955 127.414 13.4835C130.483 14.8552 133.901 15.8317 137.737 16.3897C137.179 16.9477 136.598 17.7847 135.993 18.8542C135.179 18.7147 134.063 18.459 132.668 18.087L132.389 26.0152L129.716 25.9222V25.0852L119.416 24.7132V25.6199L116.812 25.5269L117.091 17.7847C115.812 18.1102 114.487 18.3892 113.115 18.6217C112.813 17.6917 112.418 16.9245 111.906 16.2967C115.789 15.762 119.323 14.8087 122.485 13.437C121.206 12.4605 120.183 11.5073 119.369 10.6005C118.277 11.3678 116.928 12.1117 115.37 12.8092C115.208 12.4837 114.952 12.1117 114.626 11.7165C114.301 11.3213 113.999 11.019 113.696 10.8098C115.556 10.1123 117.184 9.25202 118.556 8.25227C119.927 7.25253 121.02 6.20628 121.811 5.09029L124.508 5.76454C124.182 6.18303 123.81 6.64803 123.368 7.13628L130.646 7.39203L131.111 7.29903ZM116.045 4.64854L115.928 7.88027L113.394 7.78728L113.603 2.20731L123.95 2.57931L124.043 0.18457L126.693 0.27757L126.6 2.67231L137.086 3.0443L136.9 8.62427L134.249 8.53127L134.366 5.29954L116.068 4.64854H116.045ZM119.486 22.5509L129.809 22.9229L129.925 19.5982L119.602 19.2262L119.486 22.5509ZM119.625 17.0872L130.506 17.4825C128.344 16.7617 126.461 15.9247 124.833 14.9947C123.392 15.7387 121.648 16.4362 119.602 17.0872H119.625ZM121.439 9.06602L121.276 9.20552C122.229 10.2983 123.485 11.298 124.996 12.228C126.623 11.298 127.925 10.3215 128.855 9.34502L121.439 9.08927V9.06602Z" fill="#6B6B6B"/>
<path d="M146.406 14.3202L145.569 21.3184C146.546 23.2714 148.662 24.5037 151.917 25.0152C153.428 25.2709 155.543 25.5499 158.287 25.8289C161.03 26.1079 163.239 26.2939 164.96 26.3869C164.425 27.1774 164.053 27.9911 163.82 28.8049C159.961 28.5026 155.892 28.0609 151.638 27.4331C148.127 26.8984 145.686 25.5266 144.267 23.3412C142.919 24.3642 141.547 25.3639 140.152 26.3404L139.152 23.6667C140.524 22.9459 141.826 22.1554 143.082 21.2719L143.663 16.4127L140.385 16.0175L140.664 13.646L146.406 14.3202ZM147.406 10.67L145.407 12.251C144.639 11.0885 143.314 9.83299 141.384 8.41475L143.244 7.01976C144.035 7.508 144.802 8.1125 145.593 8.78675C146.383 9.48424 146.988 10.0887 147.383 10.67H147.406ZM148.848 5.36902L146.825 6.85701C146.151 5.74101 144.872 4.43902 143.012 2.95103L144.918 1.60254C146.802 2.97428 148.104 4.22977 148.824 5.36902H148.848ZM156.706 24.8757L154.195 24.5734L154.474 22.2949L146.895 21.3882L147.127 19.4352L154.706 20.3419L154.869 18.9934L149.08 18.2959L150.033 10.3677L155.822 11.0652L155.985 9.69349L149.429 8.903L149.661 7.04301L156.218 7.8335L156.427 6.13626L158.938 6.43851L158.729 8.13575L165.378 8.92625L165.146 10.7862L158.496 9.99574L158.333 11.3675L164.309 12.0882L163.355 20.0164L157.38 19.2957L157.217 20.6442L165.029 21.5742L164.797 23.5272L156.985 22.5972L156.706 24.8757ZM151.545 4.97377L151.335 6.74076L149.057 6.46176L149.499 2.81153L166.564 4.85752L166.122 8.50775L163.751 8.22875L163.96 6.46176L151.545 4.97377ZM151.475 16.9242L155.055 17.3427L155.241 15.785L151.661 15.3665L151.475 16.9242ZM152.01 12.3207L151.824 13.8087L155.404 14.2272L155.59 12.7392L152.01 12.3207ZM161.24 18.0867L161.426 16.529L157.752 16.0872L157.566 17.6449L161.24 18.0867ZM161.774 13.4832L158.101 13.0415L157.915 14.5295L161.588 14.9712L161.774 13.4832Z" fill="#6B6B6B"/>
<path d="M177.473 22.1092L175.822 30.1536L169.777 28.9214L169.545 30.0606L167.359 29.6189L169.243 20.4352L177.473 22.1324V22.1092ZM169.661 18.738L170.08 16.7385L178.287 18.4125L177.868 20.4119L169.661 18.738ZM180.728 11.2748L180.31 13.2975L169.87 11.1585L170.289 9.13577L180.728 11.2748ZM174.846 23.6902L171.033 22.8997L170.219 26.8522L174.032 27.6427L174.846 23.6902ZM170.405 15.0877L170.8 13.1115L179.008 14.7855L178.612 16.7617L170.405 15.0877ZM180.426 7.46178L180.031 9.43801L172.033 7.78727L172.428 5.81104L180.426 7.46178ZM193.701 22.7369L193.213 25.1317L186.936 23.8529L184.936 33.5481L182.402 33.0366L184.378 23.3414L178.054 22.0394L178.543 19.6447L184.867 20.9467L186.75 11.763L181.472 10.6703L181.96 8.32202L195.538 11.112L195.05 13.4602L189.284 12.2745L187.401 21.4582L193.678 22.7369H193.701ZM183.053 12.1815L185.239 13.158C183.82 16.041 182.425 18.1335 181.03 19.4122C180.542 18.8542 179.961 18.366 179.31 17.9707C180.751 16.6455 181.984 14.7157 183.03 12.1582L183.053 12.1815ZM190.075 14.3205L192.237 13.9252C193.12 16.599 193.608 18.9472 193.725 20.9234L191.423 21.3419C191.376 19.4355 190.935 17.1105 190.075 14.3205Z" fill="#6B6B6B"/>
<path d="M217.107 39.3602L218.363 39.7322L217.735 41.8712L201.762 37.1748L202.251 35.4775C198.763 35.1985 195.88 34.9428 193.625 34.7335L193.718 32.3155C195.206 32.4783 196.578 32.641 197.856 32.8038L200.135 25.0616L196.531 23.9921L197.159 21.8763L200.763 22.9458L201.46 20.5511L198.996 19.8304L199.275 18.8771C199.042 19.0399 198.786 19.1794 198.531 19.2724C198.252 18.4586 197.88 17.7611 197.415 17.2496C200.019 16.0174 202.227 14.2271 204.064 11.8789L206.203 12.5067C207.342 14.5061 208.179 16.3894 208.737 18.1331L209.853 14.3666L217.27 16.5521L216.735 18.4121L214.62 17.7844L214.085 19.5979L215.991 20.1559L215.038 23.3643C216.573 21.7601 218.014 19.4816 219.339 16.4824L221.362 17.5054C220.804 18.6446 220.269 19.6909 219.758 20.6209L223.501 21.7136L222.873 23.8526L218.526 22.5738C217.782 23.6898 217.038 24.5966 216.317 25.3406C216.061 24.9453 215.596 24.4338 214.899 23.7828L214.48 25.2243L212.574 24.6663L212.039 26.4798L214.41 27.1773L213.876 29.0373L206.18 26.7821L208.575 18.6679L206.622 19.8304L206.761 19.8769L206.157 21.9461L203.553 21.1788L202.855 23.5736L205.901 24.4803L205.273 26.5961L202.204 25.6893L200.042 33.0363L203.669 33.4315L203.274 35.338L204.25 35.617L206.366 28.4561L219.177 32.2225L217.061 39.3835L217.107 39.3602ZM196.415 25.7823L198.112 25.8753C198.112 27.8283 197.926 29.5255 197.601 30.9903L195.764 30.9438C196.159 29.386 196.368 27.6888 196.392 25.7823H196.415ZM200.67 18.0634L206.598 19.8071C206.157 18.0401 205.529 16.3196 204.762 14.6689C203.32 16.0639 201.948 17.2031 200.67 18.0634ZM202.53 32.3155L201.111 31.4785C202.041 30.0138 202.832 28.5956 203.483 27.2006L205.11 28.1306C203.855 30.2695 202.995 31.6645 202.553 32.3155H202.53ZM207.807 31.0135L206.273 36.1983L208.11 36.733L209.644 31.5483L207.807 31.0135ZM210.342 25.9683L210.876 24.1548L209.156 23.6433L208.621 25.4568L210.342 25.9683ZM213.341 23.1551L213.899 21.2486L210.156 20.1559L209.598 22.0623L213.341 23.1551ZM213.085 32.5713L211.225 32.0133L209.691 37.198L211.551 37.7327L213.085 32.548V32.5713ZM212.899 17.2729L211.179 16.7614L210.644 18.5749L212.364 19.0864L212.899 17.2729ZM216.526 33.571L214.643 33.013L213.108 38.1977L214.992 38.7557L216.503 33.571H216.526ZM214.829 28.7816L215.433 26.6891L221.246 28.3863L220.641 30.4788L214.829 28.7816Z" fill="#6B6B6B"/>
</svg>
