<svg width="216" height="42" viewBox="0 0 216 42" fill="none" xmlns="http://www.w3.org/2000/svg">
<path d="M11.9576 18.0702L13.1952 16.2937C14.7522 16.8725 16.2892 17.5712 17.8461 18.3696C19.3831 19.1681 20.5808 19.9266 21.4191 20.6452L20.0219 22.6812C19.463 22.1622 18.7044 21.6233 17.7862 21.0444C14.6723 22.2421 9.18304 24.298 1.35832 27.2523L0.5 25.1763L3.89337 23.9387C4.61197 21.244 5.09103 18.6091 5.29064 16.0342L7.9255 16.0741C7.52627 18.4295 7.02725 20.745 6.40846 23.0006C8.44448 22.2421 11.4386 21.1242 15.371 19.6471C14.0934 19.0084 12.9557 18.4694 11.9776 18.0702H11.9576ZM7.70592 38.4903L4.4922 28.7294L19.1436 23.9188L22.3373 33.6597L20.0418 34.4183L19.7424 33.4801L9.5623 36.8136L9.88167 37.7717L7.70592 38.4903ZM17.5267 26.6934L7.34663 30.0268L8.90358 34.7576L19.0837 31.4042L17.5267 26.6734V26.6934Z" fill="#6B6B6B"/>
<path d="M27.3692 12.4211L26.431 14.3374C25.6925 13.7585 24.415 13.1597 22.5586 12.5409L23.4968 10.8043C25.1535 11.2634 26.451 11.8023 27.3692 12.4411V12.4211ZM28.3074 18.4494L27.449 20.4055C26.5308 19.8267 25.2334 19.2877 23.5367 18.7887L24.3551 17.0122C26.1316 17.4313 27.449 17.9104 28.3074 18.4494ZM29.0659 31.444L26.8702 30.7853C27.3892 28.35 27.7684 25.6752 28.0279 22.721L30.004 23.4396C29.8044 26.4138 29.4851 29.0686 29.0659 31.444ZM27.3892 12.7605L27.8882 11.483L28.3074 11.6427C28.6267 10.465 28.7864 9.62659 28.8463 9.12757L30.3234 9.42698C29.7645 11.1436 29.4451 12.0818 29.4252 12.1816C29.6048 12.2614 29.8643 12.4211 30.2037 12.6207C30.5829 11.4231 30.7825 10.7843 30.8025 10.6845L32.2796 11.1237C31.5211 12.9002 30.9821 14.0979 30.6827 14.7167L32.0001 14.3574C32.0001 14.3574 31.8005 14.0579 31.561 13.6986L32.4393 13.0798C33.078 13.8184 33.5771 14.5769 33.9563 15.3953L32.9583 16.094C32.8984 15.9542 32.8185 15.7546 32.6988 15.5351L31.8205 15.8145L32.9383 20.5053L31.4812 20.8447L30.3833 16.2536C29.9442 16.4133 29.2455 16.6329 28.3273 16.9124L27.8283 15.5351L29.1058 15.1758C29.3054 14.7765 29.505 14.3773 29.6448 14.018C28.9062 13.519 28.1477 13.0998 27.3692 12.7605H27.3892ZM29.0459 17.2717L30.4232 17.2317C30.4831 18.7089 30.3633 19.9065 30.044 20.8247C29.8244 20.7449 29.3853 20.665 28.7265 20.5453C28.986 19.6869 29.0858 18.5891 29.026 17.2717H29.0459ZM34.2557 25.4557L46.1126 22.6412C46.1725 23.0204 46.1924 23.3198 46.1725 23.5195C46.2323 25.3758 46.0128 26.6134 45.5138 27.2921C45.1145 27.7312 44.5157 28.0706 43.7173 28.2702C42.3 28.6095 41.1024 28.869 40.1243 29.0487C39.9646 28.5097 39.6452 28.0107 39.1462 27.5516C40.264 27.3919 41.4617 27.1723 42.7192 26.8729C43.2182 26.7531 43.5376 26.6134 43.6773 26.4737C43.9568 26.1543 44.1165 25.5156 44.1165 24.5973L34.1759 26.9527L34.136 27.7113L32.1199 27.9109C32.2596 26.7332 32.3195 25.276 32.2796 23.5394L42.4797 21.1241L42.2401 20.1261L31.2416 22.741L30.9223 21.4235L43.9368 18.3296L44.7952 21.9425L34.2557 24.4377V25.4756V25.4557ZM38.1082 10.3651L38.1881 10.7045L32.6389 12.0219L32.3594 10.8243L37.9086 9.50683L38.0084 9.94597L38.4076 9.02776L38.8069 9.18745C39.1262 8.00975 39.3258 7.17139 39.4057 6.67236L40.8429 7.0117C40.763 7.23127 40.6632 7.53069 40.5435 7.90995C40.4237 8.30917 40.3039 8.6485 40.2041 8.94792C40.1043 9.24733 40.0045 9.52679 39.8847 9.76632C40.2041 9.92601 40.4636 10.1057 40.7031 10.2653C41.0624 9.38706 41.302 8.6485 41.4617 8.08959L42.9188 8.50878C41.9807 10.5847 41.3619 11.8622 41.1223 12.3014L42.7591 11.8622C42.5396 11.5828 42.34 11.3432 42.1603 11.1436L43.1184 10.4051C43.857 11.1237 44.4558 11.9021 44.9149 12.7205L43.8769 13.5389C43.8769 13.5389 43.8171 13.4391 43.7572 13.2994C43.6973 13.1597 43.6374 13.0599 43.5775 12.98L42.4996 13.3194L43.6175 17.9903L42.1403 18.3496L41.0624 13.7785L38.9865 14.4172L38.5074 13.0399L39.6053 12.7205C39.7251 12.5209 39.8847 12.1616 40.1243 11.6626C39.6652 11.2634 39.0065 10.8243 38.1082 10.3851V10.3651ZM34.5751 18.629L33.4773 19.2478C33.1778 18.4294 32.7986 17.631 32.3395 16.8325L33.3974 16.3135C33.9364 17.1918 34.3156 17.9703 34.5751 18.629ZM36.7309 7.8301L36.9904 8.94792L32.9782 9.90605L32.7187 8.78823L36.7309 7.8301ZM37.8088 11.5628L38.0683 12.6607L33.7368 13.6787L33.4773 12.5808L37.8088 11.5628ZM34.1559 15.4352L33.8964 14.3374L38.228 13.3194L38.4875 14.4172L34.1559 15.4352ZM35.1141 19.6271L34.2957 16.1938L38.6871 15.1558L39.5055 18.5891L35.1141 19.6271ZM35.8925 16.9523L36.192 18.2497L37.8487 17.8505L37.5493 16.5531L35.8925 16.9523ZM39.6652 14.7366H41.0624C41.1024 16.1538 40.9826 17.3315 40.7431 18.2298C40.5435 18.1499 40.1043 18.0302 39.3857 17.9104C39.6253 17.1319 39.7051 16.074 39.6652 14.7366ZM43.0785 14.2775L44.1364 13.6587C44.9748 14.7566 45.5337 15.6548 45.8331 16.3734L44.7353 17.0321C44.4159 16.2936 43.857 15.3754 43.0585 14.2575L43.0785 14.2775Z" fill="#6B6B6B"/>
<path d="M51.835 5.53415L54.0507 5.91341C53.5716 7.01126 52.9129 8.10912 52.0945 9.18701C51.2561 10.2649 50.3978 11.223 49.4796 12.0414C48.781 11.5025 48.1223 11.0833 47.5234 10.7839C48.4217 10.1052 49.26 9.28682 50.0385 8.34865C50.817 7.41048 51.4358 6.47232 51.8749 5.53415H51.835ZM62.4343 7.17095L64.65 7.78974C63.3126 9.84573 61.2367 11.7021 58.3822 13.3189L66.5463 12.0814L68.3428 24.018L66.1271 24.3574L66.0273 23.6388L56.4061 25.0959L56.5259 25.9343L54.4299 26.2537L52.873 15.9139C51.7352 16.353 50.6174 16.7522 49.5195 17.1115C49.0405 16.4528 48.4816 15.874 47.8428 15.3749C51.2561 14.4368 54.2703 13.279 56.8652 11.9017C59.4601 10.5244 61.3165 8.96744 62.4343 7.19091V7.17095ZM58.3423 3.3584L59.1407 8.64806C59.2206 9.18701 59.2006 9.60619 59.0809 9.92557C58.9611 10.2449 58.7016 10.5044 58.3223 10.724C57.7834 11.0035 56.5458 11.3029 54.6096 11.5823C54.41 11.1232 54.0307 10.5444 53.4519 9.82576C54.0507 9.76588 54.6695 9.68604 55.3082 9.60619C55.9669 9.52635 56.3462 9.44651 56.466 9.42654C56.8253 9.36666 56.985 9.20697 56.945 8.94748L56.1466 3.69774L58.3423 3.3584ZM64.8097 15.6544L64.5701 14.0775L54.9489 15.5346L55.1885 17.1115L64.8097 15.6544ZM55.428 18.6685L55.6675 20.2654L65.2887 18.8082L65.0492 17.2113L55.428 18.6685ZM56.1466 23.3992L65.7678 21.9421L65.5283 20.3652L55.9071 21.8223L56.1466 23.3992ZM61.4562 5.01516L63.0331 3.65781C64.111 4.15684 65.1889 4.75567 66.2868 5.43434C67.3846 6.11302 68.2629 6.73181 68.8618 7.29072L67.1451 8.82771C66.5662 8.26881 65.7279 7.63005 64.63 6.8915C63.5322 6.15294 62.4742 5.53415 61.4363 4.9952L61.4562 5.01516Z" fill="#6B6B6B"/>
<path d="M77.327 10.1856L76.2092 12.1618C75.3508 11.5829 73.9136 10.8843 71.9375 10.0459L73.0154 8.32924C74.9915 9.04784 76.4088 9.66663 77.307 10.1856H77.327ZM78.2651 3.93782L77.0475 5.85408C76.2092 5.17541 74.8119 4.39693 72.8757 3.51864L74.0534 1.82196C75.9297 2.58047 77.327 3.29907 78.2452 3.93782H78.2651ZM75.4906 22.801L73.4745 21.5035C74.8718 18.9285 76.0495 16.3935 77.0076 13.9383L78.7642 15.2757C77.7461 17.9904 76.6483 20.5055 75.4906 22.801ZM93.675 4.65642L81.918 5.4349C81.1994 6.87209 80.4209 8.08971 79.5826 9.10772C79.1833 8.76839 78.5645 8.34921 77.7262 7.85018C78.5246 6.99186 79.2632 5.95388 79.9019 4.73626C80.5407 3.49868 81.0397 2.22118 81.399 0.883789L83.5348 1.30297C83.3552 2.04153 83.1157 2.76012 82.8163 3.47872L93.5752 2.76012L93.695 4.65642H93.675ZM79.2233 10.8244L91.3396 10.0259C91.5791 13.5191 91.7987 16.0941 92.0582 17.7109C92.3177 19.3278 92.657 20.1262 93.1361 20.1062C93.4155 20.1062 93.4954 19.0283 93.3956 16.9324C93.9545 17.5113 94.4336 17.9305 94.8527 18.19C94.8527 19.6272 94.7529 20.6452 94.5134 21.244C94.2739 21.8428 93.7948 22.1622 93.0762 22.2021C92.6371 22.2221 92.2578 22.1423 91.9185 21.9626C91.5791 21.783 91.2997 21.4636 91.0402 21.0244C90.8007 20.5853 90.5811 20.1062 90.4014 19.5873C90.2218 19.0683 90.0621 18.3696 89.9224 17.5313C89.7826 16.6929 89.6629 15.8745 89.583 15.0761C89.5032 14.2776 89.4034 13.2995 89.3235 12.1418L79.3231 12.8005L79.2033 10.8443L79.2233 10.8244ZM91.7987 8.26936L81.3391 8.968L81.2194 7.13158L91.6789 6.43295L91.7987 8.26936Z" fill="#6B6B6B"/>
<path d="M118.127 17.0122L118.087 19.0282L108.386 18.8686L108.326 22.2619L106.031 22.222L106.091 18.8286L96.6094 18.669L96.6493 16.6529L106.111 16.8126V15.1558L99.1245 15.036L99.2842 5.63441L106.29 5.75418V4.27707L97.5475 4.13734L97.5875 2.10132L106.35 2.24104L106.39 0.185059L108.686 0.224981L108.646 2.28096L117.548 2.42069L117.509 4.45671L108.606 4.31699V5.7941L115.772 5.91387L115.612 15.3155L108.426 15.1957V16.8525L118.107 17.0122H118.127ZM101.32 13.2595L106.191 13.3394L106.231 11.3033L101.36 11.2235L101.32 13.2595ZM101.42 7.51075L101.38 9.50685L106.251 9.58669L106.29 7.59059L101.42 7.51075ZM113.437 13.4392L113.476 11.4031L108.526 11.3233L108.486 13.3593L113.437 13.4392ZM113.536 7.71036L108.586 7.63051L108.546 9.62662L113.496 9.70646L113.536 7.71036Z" fill="#6B6B6B"/>
<path d="M125.857 11.9427L125.258 17.9709C126.137 19.6476 127.953 20.6656 130.768 21.0249C132.065 21.2245 133.882 21.4042 136.237 21.6237C138.592 21.8234 140.509 21.9431 141.966 21.983C141.527 22.6817 141.207 23.3803 141.028 24.0789C137.714 23.8993 134.221 23.5799 130.548 23.1208C127.534 22.7216 125.398 21.5838 124.161 19.7474C123.023 20.6457 121.865 21.5239 120.687 22.3823L119.789 20.1067C120.947 19.468 122.065 18.7693 123.123 17.9908L123.542 13.799L120.727 13.5196L120.927 11.4636L125.857 11.9626V11.9427ZM126.656 8.78882L124.959 10.1661C124.28 9.18804 123.123 8.11014 121.446 6.9524L123.023 5.71482C123.701 6.134 124.38 6.61307 125.079 7.19194C125.757 7.7708 126.296 8.28979 126.656 8.76886V8.78882ZM127.793 4.19778L126.097 5.51521C125.498 4.55708 124.38 3.45923 122.763 2.22164L124.38 1.04395C126.017 2.20168 127.155 3.23966 127.793 4.19778ZM134.88 20.8253L132.704 20.6057L132.903 18.6496L126.376 18.0108L126.536 16.3341L133.063 16.9728L133.183 15.8151L128.193 15.3161L128.871 8.4894L133.862 8.98843L133.981 7.81073L128.352 7.25182L128.512 5.65494L134.141 6.21385L134.281 4.73673L136.457 4.9563L136.317 6.43342L142.046 6.99233L141.886 8.58921L136.157 8.0303L136.037 9.208L141.187 9.70702L140.509 16.5337L135.359 16.0347L135.239 17.1924L141.966 17.8511L141.806 19.5278L135.079 18.8691L134.88 20.8253ZM130.109 3.81853L129.969 5.33556L128.013 5.13595L128.332 2.00207L143.024 3.45923L142.724 6.59311L140.668 6.39349L140.828 4.87646L130.149 3.81853H130.109ZM130.249 14.0785L133.323 14.3779L133.462 13.0205L130.388 12.7211L130.249 14.0785ZM130.648 10.1262L130.528 11.4037L133.602 11.7031L133.722 10.4256L130.648 10.1262ZM138.652 14.9168L138.792 13.5595L135.618 13.2401L135.478 14.5975L138.652 14.9168ZM139.051 10.9646L135.878 10.6452L135.758 11.9227L138.932 12.2421L139.051 10.9646Z" fill="#6B6B6B"/>
<path d="M150.05 18.3292L149.75 19.9859L153.323 20.6446L152.964 22.6008L149.391 21.9421L148.673 25.8545L146.836 25.5151L147.555 21.6028L143.742 20.9041L144.101 18.9479L147.914 19.6466L148.213 17.9898L145.139 17.4109L146.656 9.14709L149.711 9.706L149.99 8.169L146.517 7.53025L146.876 5.61399L150.349 6.25274L150.788 3.85742L152.625 4.19676L152.186 6.59208L155.659 7.23083L155.3 9.14709L151.826 8.50834L151.547 10.0453L154.761 10.6442L154.561 11.742C156.477 11.0234 158.114 9.90561 159.432 8.40853L156.956 7.94943L157.296 6.09305L163.623 7.25079C163.883 8.5283 164.362 9.78584 165.1 11.0234C165.839 12.261 166.657 13.2591 167.596 14.0775C166.837 14.4368 166.218 14.7961 165.739 15.1554C165.14 14.5765 164.562 13.8778 164.023 13.0994L163.783 14.4368L157.695 13.3189L157.895 12.2211C157.076 12.7401 156.238 13.1792 155.34 13.5385C155.1 12.9397 154.821 12.4606 154.521 12.0814L153.264 18.908L150.07 18.3292H150.05ZM147.295 14.317L146.956 16.1135L148.693 16.4329L149.032 14.6364L147.295 14.317ZM147.914 11.0035L147.595 12.78L149.331 13.0994L149.651 11.3228L147.934 11.0035H147.914ZM151.886 17.0317L152.226 15.2352L150.529 14.9158L150.21 16.7123L151.906 17.0317H151.886ZM152.505 13.6782L152.824 11.9017L151.128 11.5823L150.808 13.3589L152.505 13.6782ZM161.967 15.3749L163.583 16.0336C163.104 17.0916 162.186 18.8481 160.849 21.3033C161.468 23.8584 161.827 26.0141 161.907 27.7707L160.17 27.9504C160.17 26.2736 159.871 24.1178 159.292 21.483L158.513 25.7546C158.374 26.5531 158.094 27.0322 157.675 27.1719C157.296 27.3316 156.597 27.3116 155.539 27.112C155.579 26.5132 155.539 25.9543 155.379 25.4153L156.657 25.6548C156.817 25.6748 156.896 25.6149 156.936 25.4153L157.376 22.9801L156.637 23.3992C156.378 22.9002 155.898 22.3014 155.22 21.6227L154.262 26.8525L152.685 26.5531L154.94 14.317L160.41 15.335L159.451 20.5049C160.529 18.5886 161.348 16.892 161.947 15.3749H161.967ZM155.399 20.8642L155.998 20.5448C156.457 20.9041 156.976 21.4431 157.555 22.1617L157.994 19.7464L157.316 20.1656C156.976 19.5667 156.477 18.9679 155.839 18.3691L155.379 20.8642H155.399ZM158.553 16.7123L156.238 16.2931L155.978 17.7702L156.637 17.371C157.116 17.7503 157.635 18.2493 158.174 18.8681L158.573 16.7323L158.553 16.7123ZM162.026 8.90756L161.627 8.82771C160.769 9.92557 159.791 10.8837 158.693 11.6821L163.683 12.6003C162.945 11.4226 162.386 10.1851 162.007 8.8876L162.026 8.90756ZM164.961 15.9338L166.578 16.6125C165.879 17.9898 164.901 19.7264 163.663 21.8223C164.402 24.3175 164.881 26.4932 165.08 28.3695L163.324 28.5492C163.244 26.6729 162.805 24.3374 162.007 21.5429C163.364 19.2474 164.362 17.371 164.961 15.9338Z" fill="#6B6B6B"/>
<path d="M186.036 21.0241L190.508 22.2417L190.009 24.0582L169.289 18.4092L169.788 16.6127L173.78 17.7106C173.78 16.5129 173.521 15.2354 173.062 13.878L174.998 13.6984C175.537 15.0158 175.816 16.3332 175.856 17.6706L174.299 17.8503L176.794 18.529L177.932 14.3571L172.203 12.8001L172.682 11.0635L176.794 12.1814C176.655 11.4228 176.395 10.6044 175.996 9.76608L178.072 9.58643C178.651 10.6044 178.99 11.5626 179.05 12.4808L178.252 12.6005L185.198 14.4968L184.32 13.918C185.278 13.1994 186.016 12.5207 186.555 11.8819L188.531 13.0996C187.553 13.9579 186.855 14.5168 186.416 14.8162L190.987 16.0738L190.508 17.8104L184.34 16.1336L183.202 20.3055L185.857 21.0241L184.439 20.0859C185.497 19.1677 186.456 18.1497 187.314 16.992L189.11 18.1098C187.693 19.527 186.675 20.5251 185.996 21.064L186.036 21.0241ZM169.688 30.0864L172.283 20.545L186.396 24.3975L183.821 33.859L181.545 33.2402L181.725 32.5815L172.064 29.9467L171.864 30.6852L169.688 30.0864ZM172.543 28.21L182.204 30.8449L182.723 28.9286L173.062 26.2938L172.543 28.21ZM183.681 25.4155L174.02 22.7807L173.501 24.6969L183.162 27.3318L183.681 25.4155ZM179.948 14.8961L178.81 19.0679L181.186 19.7067L182.324 15.5348L179.948 14.8961Z" fill="#6B6B6B"/>
<path d="M189.691 34.9378L190.37 33.0615L209.612 40.0877L208.934 41.9641L189.691 34.9378ZM214.842 26.634L207.956 24.1189C208.535 25.3765 209.353 26.634 210.371 27.8716C211.389 29.1092 212.507 30.207 213.704 31.1252C212.946 31.4247 212.287 31.8239 211.728 32.3229C210.431 31.225 209.253 29.9076 208.195 28.3706C207.137 26.8336 206.319 25.2767 205.76 23.6598L204.283 27.7319L202.207 26.9734L203.684 22.9013C202.267 23.7996 200.65 24.4982 198.854 25.0172C197.057 25.5362 195.28 25.8156 193.544 25.8555C193.444 25.1968 193.205 24.4782 192.845 23.6997C194.302 23.7596 195.819 23.5999 197.416 23.2606C198.993 22.9213 200.43 22.4222 201.688 21.8035L195.001 19.3682L195.66 17.5518L204.463 20.7655L205.461 18.0707L207.517 18.8293L206.538 21.524L215.501 24.7976L214.842 26.6141V26.634ZM196.718 25.7358L209.333 30.3468L206.658 37.6924L194.043 33.0814L196.718 25.7358ZM205.001 35.4169L205.56 33.8998L197.197 30.8458L196.638 32.3628L205.021 35.4169H205.001ZM206.079 32.4826L206.618 30.9855L198.235 27.9315L197.696 29.4286L206.079 32.4826Z" fill="#6B6B6B"/>
</svg>
