<svg width="222" height="42" viewBox="0 0 222 42" fill="none" xmlns="http://www.w3.org/2000/svg">
<path d="M10.6082 29.7192L8.93419 30.3842L12.2821 41.2994L10.1266 41.9644L6.82454 31.2097C6.43471 31.3473 5.79265 31.5766 4.9442 31.9206C4.07282 32.2645 3.43075 32.4939 2.99507 32.6314L2.10076 30.5677L3.88937 29.9027C3.88937 29.9027 4.02696 29.5128 4.25627 28.9166C4.48558 28.3204 4.6461 27.8618 4.73782 27.5408C3.70593 26.6694 2.2842 25.7521 0.472656 24.789L1.20645 22.794C1.59627 22.9775 1.89438 23.1151 2.12369 23.2527C2.53645 21.3494 2.76576 19.5378 2.78869 17.818L5.19644 17.9556C4.71489 20.6385 4.25627 22.7023 3.82058 24.1928C4.41679 24.5597 4.9442 24.9266 5.42575 25.2706C5.93023 23.482 6.32006 21.7163 6.64109 19.9506L8.95712 20.2258C8.06282 23.5966 7.09971 26.5547 6.11368 29.1001L9.1635 27.9765C8.91126 27.6783 8.38385 27.128 7.55833 26.3025L9.07178 25.0184C10.9521 26.6694 12.328 28.2516 13.1764 29.7192L11.5942 31.1639C11.4566 30.9116 11.1356 30.453 10.6082 29.7192ZM4.53144 33.7321L6.66402 33.434C7.16851 36.4839 7.28316 38.8916 6.98506 40.6344C6.45765 40.4738 5.76972 40.3592 4.9442 40.3133C5.21937 38.6852 5.05886 36.4839 4.53144 33.7321ZM23.0597 13.0942L23.7247 15.2498L9.59919 19.5837L8.93419 17.4282L23.0597 13.0942ZM10.2183 32.4709L11.8235 31.4161C12.993 32.769 13.9102 34.1678 14.5981 35.6583L12.8783 36.8049C12.328 35.429 11.4337 33.9844 10.1954 32.4709H10.2183ZM17.2581 27.9535L15.4925 29.3752C14.5294 28.114 13.0159 26.6923 10.9292 25.133C11.5254 23.138 11.9382 21.2806 12.1675 19.5608L14.3918 19.4003C14.0249 21.2806 13.6121 22.9316 13.1764 24.4221C14.9421 25.7063 16.295 26.8987 17.2581 27.9765V27.9535ZM23.1973 34.764L29.5262 32.8378L30.1912 35.0392L14.8504 39.74L14.1854 37.5387L20.7666 35.5207L19.4366 31.2097L14.4835 32.7232L13.8185 30.5677L26.4535 26.6923L27.1185 28.8478L21.8673 30.453L23.1973 34.764ZM16.6849 18.162L18.9092 18.0015C18.4735 19.8589 18.0378 21.5328 17.5792 23.0234C19.2761 24.1928 20.6749 25.3623 21.8214 26.5089L20.1245 27.9535C18.978 26.6006 17.3728 25.2018 15.309 23.7801C15.9511 21.7622 16.3868 19.8818 16.6849 18.162ZM26.4305 25.0184L24.8024 26.5089C23.61 25.2477 21.9131 23.8718 19.7118 22.4272C20.3997 20.3175 20.8812 18.4372 21.1793 16.7861L23.4266 16.6715C23.0138 18.4142 22.5552 20.0882 22.0049 21.6934C23.8164 22.817 25.284 23.9406 26.4305 25.0642V25.0184Z" fill="#6B6B6B"/>
<path d="M33.9495 12.0628L32.8946 14.3789C31.8857 13.7139 30.3034 13.0718 28.125 12.4756L29.134 10.3889C31.2665 10.8475 32.8717 11.3978 33.9495 12.0628ZM34.431 19.2173L33.4221 21.5333C32.2755 20.8684 30.6474 20.318 28.5607 19.8594L29.5467 17.7268C31.7252 18.0937 33.3533 18.5752 34.431 19.2173ZM34.5915 34.4206L32.0462 33.5951C32.8029 30.7745 33.3991 27.6789 33.8348 24.308L36.1508 25.1794C35.7152 28.4814 35.2107 31.5542 34.6145 34.4206H34.5915ZM50.07 10.8704L51.8356 11.7647C51.377 12.1775 50.9643 12.5215 50.5744 12.7737C51.5605 14.7916 52.6841 16.0528 53.9224 16.6032C53.4867 17.1077 53.1656 17.6809 52.9134 18.323C51.5375 17.5892 50.3222 16.0299 49.2674 13.6451C48.8546 13.8973 48.4648 14.1037 48.1438 14.2642L48.717 16.8554L50.6203 16.1446L51.0101 17.5663C50.5286 17.7727 49.8177 18.0478 48.9005 18.4147C47.9832 18.7816 47.3182 19.0568 46.8826 19.2173L46.08 17.7956C46.1946 17.7497 46.3781 17.6809 46.6303 17.5892C46.8825 17.4975 47.0431 17.4287 47.0889 17.4058L46.1258 12.9342C45.8965 13.6222 45.6672 14.1725 45.4838 14.5623L44.6582 14.4018L45.8736 20.0199L43.8557 20.4556L42.6403 14.8375L44.6582 14.4018L43.9474 14.3101C44.3143 13.0489 44.5436 12.017 44.6582 11.2144L41.2645 11.9482C42.1358 12.7049 42.8008 13.4846 43.2595 14.2872L41.8836 15.3878C41.6543 14.9751 41.402 14.6082 41.1498 14.2642L41.1957 14.4477C41.7689 17.4746 41.9753 19.2173 41.746 19.6989C41.5626 20.0428 41.2874 20.2951 40.9205 20.4556C40.5536 20.6161 40.0262 20.7308 39.3383 20.8454C39.1777 20.2492 38.9484 19.7677 38.6274 19.3549C38.9484 19.332 39.2924 19.2632 39.6364 19.1944C39.8657 19.1485 40.0033 19.0339 40.095 18.8504C40.1638 18.6211 40.0491 17.5892 39.7052 15.7547L38.4898 16.007C38.6274 18.6211 37.9853 20.6849 36.5636 22.1983C36.105 21.7168 35.6234 21.3728 35.096 21.1435C36.2884 19.974 36.8388 18.3918 36.7012 16.3968L35.44 16.672L35.0731 15.0209L40.737 13.7827C40.416 13.3699 40.1408 13.0718 39.8886 12.8425L41.0351 12.017L34.3164 13.4616L33.8807 11.4208L41.3103 9.81561L40.8288 7.52251L43.3512 6.97217L43.8327 9.26527L51.6293 7.56837L52.065 9.60923L45.2315 11.0768L46.722 11.2144C46.4469 12.017 46.2634 12.4985 46.1946 12.682L47.5017 12.8425C48.6253 12.1316 49.4738 11.4666 50.0929 10.8016L50.07 10.8704ZM49.4279 20.983L49.0839 19.3549L51.4688 18.8275L54.0141 30.5452L51.6293 31.0726L50.712 26.7845L42.067 28.6649C41.9524 30.6599 41.3103 32.3568 40.1408 33.7556C39.5446 33.3428 38.8338 33.0218 38.0083 32.8154C39.5446 30.958 39.9803 28.4585 39.2924 25.294L38.5127 21.648L40.8746 21.1435L41.2186 22.7716L49.4508 20.983H49.4279ZM41.9524 26.5782L50.2534 24.7895L49.8407 22.9321L41.6314 24.7208V24.8583C41.7689 25.3858 41.8836 25.959 41.9524 26.6011V26.5782Z" fill="#6B6B6B"/>
<path d="M69.0336 5.73327L69.3088 7.93465L56.3528 9.63154L56.0547 7.43017L61.283 6.74224L60.939 4.05931L63.3926 3.73828L63.7366 6.4212L69.0107 5.73327H69.0336ZM56.6968 17.3134L56.3987 14.9974L70.3636 13.1858L70.6617 15.5019L56.6968 17.3134ZM61.9021 13.5757L59.7236 14.4012C59.4255 13.1171 58.8981 11.7641 58.0955 10.2965L60.1364 9.56275C60.8702 10.6864 61.4435 12.0393 61.8792 13.5527L61.9021 13.5757ZM60.0447 29.4898L58.6918 19.1708L69.561 17.7491L70.891 27.9534L68.4145 28.2744L68.231 26.9215L62.1773 27.7012L62.3607 29.1687L60.0217 29.4669L60.0447 29.4898ZM67.3826 20.3403L61.3288 21.12L61.9021 25.5227L67.9559 24.7431L67.3826 20.3403ZM66.8552 13.5069L64.7685 13.2317C65.1583 11.7183 65.4335 10.2048 65.594 8.7143L68.0705 8.94361C67.2909 11.9476 66.8781 13.461 66.8781 13.5069H66.8552ZM78.4124 3.11914L80.4533 4.03638C79.3984 7.98051 78.5729 10.8469 77.9538 12.5896C80.2928 14.3783 81.6227 16.3962 81.9209 18.6664C82.1043 20.0422 81.9896 21.097 81.5769 21.8767C81.1641 22.6563 80.4074 23.2067 79.2838 23.5048C79.0086 23.5736 78.2519 23.6882 77.0595 23.8488C76.9219 22.9545 76.5779 22.1519 76.0505 21.441C76.6009 21.441 77.1741 21.3951 77.7015 21.3034C78.229 21.2117 78.6646 21.0512 78.9627 20.8219C79.4214 20.455 79.5819 19.7441 79.4443 18.7122C79.1921 16.7631 77.8621 14.9515 75.4543 13.3005C75.9129 11.81 76.5321 9.31051 77.3117 5.80207L72.9778 6.37534L75.7295 27.4719L73.2529 27.7929L70.2031 4.31155L78.0455 3.27966L78.4353 3.11914H78.4124Z" fill="#6B6B6B"/>
<path d="M88.9173 0.963867L91.325 1.51421C90.7518 3.50921 90.1326 5.34369 89.4218 7.01765L90.2931 26.0504L87.8854 26.165L87.2204 11.5809C86.4407 12.9338 85.7528 13.9657 85.1566 14.7225C84.8356 13.874 84.354 13.0026 83.7578 12.0625C84.8356 10.6866 85.8445 9.01265 86.7388 7.06351C87.6331 5.11438 88.3669 3.07352 88.8944 0.963867H88.9173ZM93.6411 13.2778L93.7328 15.4563C94.1914 14.9518 94.6042 14.4244 94.9252 13.874L96.6221 14.6995C95.7507 16.1442 94.8106 17.2219 93.8245 17.9328L92.1964 16.7404C92.678 16.4652 93.1825 16.0525 93.664 15.525L91.4856 15.6168L91.325 11.879L93.9162 11.7644L93.5952 4.908L98.2731 4.70162C98.2731 4.70162 98.2961 4.49524 98.3649 4.19714C98.4336 3.89903 98.4795 3.64679 98.4795 3.48628L91.8066 3.80731L91.7149 1.90404L108.546 1.12438L108.638 3.02766L101.185 3.37162L100.75 4.60989L106.758 4.33472L107.079 11.1682L109.555 11.0535L109.739 14.7913L107.881 14.883C108.454 15.4563 108.89 15.9149 109.165 16.3047L107.537 17.3137C106.941 16.3735 105.909 15.3416 104.442 14.2409L105.978 13.2778C106.414 13.5759 106.872 13.9657 107.4 14.4244L107.308 12.6816L101.346 12.9568C101.965 13.3695 102.447 13.7823 102.836 14.195L101.346 15.2499C100.75 14.5161 99.8324 13.8052 98.5712 13.1173L98.663 13.0485L93.6181 13.2778H93.6411ZM106.024 17.864L107.629 18.6437C106.758 20.0654 105.451 21.3037 103.685 22.3814C105.863 22.8171 108.111 23.0693 110.449 23.1152C109.899 23.7343 109.463 24.4452 109.142 25.2707C106.116 25.1331 103.364 24.6287 100.887 23.7802C98.6171 24.7204 95.9342 25.4771 92.8156 26.0045C92.4945 25.3624 92.0588 24.7662 91.4626 24.2159C94.0309 23.8031 96.3011 23.2757 98.2731 22.6337C97.31 22.1062 96.4845 21.533 95.7737 20.9138C94.6959 21.533 93.7328 22.0374 92.8843 22.4043C92.4487 21.7623 91.9442 21.2578 91.3709 20.8909C94.0997 19.859 96.2093 18.5978 97.654 17.1073C97.31 16.9926 97.0578 16.8092 96.9202 16.534C96.7826 16.2588 96.6909 15.869 96.668 15.3416L96.5992 13.7364L98.663 13.6447L98.7317 15.2499C98.7317 15.525 98.8235 15.6856 98.9381 15.7314C99.0528 15.8002 99.328 15.8002 99.7636 15.7773L102.722 15.6397C103.043 15.6397 103.249 15.548 103.341 15.4333C103.433 15.2957 103.478 14.9976 103.501 14.5161C104.006 14.7683 104.556 14.9288 105.198 14.9976C105.175 15.7773 104.992 16.3276 104.694 16.6028C104.396 16.878 103.845 17.0385 103.089 17.0844L100.314 17.2219C100.085 17.4742 99.7407 17.8411 99.2592 18.2997L105.565 18.0016L106.024 17.864ZM104.464 5.77938L96.003 6.1692L96.0488 7.2011L104.51 6.81127L104.464 5.80231V5.77938ZM104.602 8.98971L104.556 7.93489L96.0947 8.32472L96.1406 9.37954L104.602 8.98971ZM96.2093 10.5949L96.2552 11.6497L104.717 11.2599L104.671 10.2051L96.2093 10.5949ZM104.098 19.5838L97.654 19.8819C98.4795 20.5469 99.5802 21.1202 100.933 21.5788C102.24 20.9597 103.295 20.2947 104.098 19.5838Z" fill="#6B6B6B"/>
<path d="M134.203 14.7228L136.198 16.328C133.996 17.8873 131.772 19.2173 129.456 20.3409C131.566 22.0378 134.18 23.1614 137.299 23.7576C136.725 24.2392 136.152 24.9959 135.602 26.0049C132.254 25.1794 129.548 23.8723 127.507 22.0607C125.466 20.2492 123.93 17.8644 122.898 14.8833L118.816 14.7458L118.564 21.8314C119.481 21.7397 121.82 21.4645 125.581 20.983L125.65 23.3678C119.229 24.2163 115.17 24.7437 113.473 24.95L112.969 22.4506C112.969 22.4506 113.978 22.3359 115.858 22.1295L116.546 2.56939L123.884 2.82163L123.976 0.18457L126.613 0.276294L126.521 2.91336L134.616 3.21146L134.203 14.6999V14.7228ZM119 9.678L118.908 12.4756L131.658 12.9342L131.749 10.1366L119 9.678ZM131.91 5.38991L119.16 4.93129L119.068 7.59128L131.818 8.0499L131.91 5.38991ZM133.538 15.2502L125.512 14.9751C126.108 16.4426 126.888 17.7268 127.874 18.8275C129.961 17.7268 131.841 16.5573 133.538 15.2732V15.2502Z" fill="#6B6B6B"/>
<path d="M165.576 8.62301L160.646 8.0268C160.027 8.92111 159.453 9.7237 158.903 10.4116L164.498 11.0766L162.733 25.9818C162.641 26.6697 162.503 27.22 162.274 27.5869C162.045 27.9768 161.701 28.229 161.219 28.3666C160.439 28.55 158.857 28.5271 156.472 28.229C156.449 27.4494 156.266 26.6009 155.945 25.6837C156.679 25.7983 157.894 25.9588 159.614 26.1652C160.05 26.1881 160.279 26.0276 160.325 25.6607L161.54 15.5252C161.311 16.3737 161.013 16.924 160.646 17.1992C160.279 17.4744 159.729 17.5661 159.018 17.4744L156.449 17.1763C155.395 17.0616 154.73 16.8094 154.409 16.4425C154.11 16.0756 153.996 15.3876 154.133 14.4245L154.409 12.1314L151.657 11.8104C151.29 13.4614 150.671 14.6768 149.799 15.4564C148.928 16.2361 147.483 16.7406 145.465 16.9699C145.282 16.2361 144.984 15.594 144.525 15.0895L143.149 26.6238L140.719 26.3257L142.851 8.50835L147.965 9.12749C147.804 8.23318 147.529 7.33887 147.139 6.42163L142.095 5.82543L142.37 3.5094L152.735 4.74767L153.01 2.43164L155.601 2.72974L155.326 5.04577L165.897 6.30698L165.622 8.62301H165.576ZM144.984 11.0078L144.502 15.0437C146.13 14.9061 147.277 14.5851 147.942 14.0577C148.607 13.5302 149.089 12.6818 149.364 11.5352L144.984 11.0078ZM157.069 25.4314L148.905 24.4683L148.722 26.0735L146.451 25.7983L147.46 17.3597L157.894 18.598L157.091 25.4314H157.069ZM155.349 20.272L149.478 19.584L149.134 22.5651L155.005 23.2759L155.349 20.2949V20.272ZM150.694 9.44852L156.083 10.0906C156.725 9.21921 157.252 8.41663 157.642 7.68284L149.891 6.7656C150.281 7.75163 150.533 8.64594 150.671 9.44852H150.694ZM161.586 14.929L161.815 13.0028L156.587 12.3837L156.312 14.6539C156.289 14.929 156.312 15.0895 156.381 15.1813C156.449 15.273 156.656 15.3189 156.977 15.3647L158.926 15.594C159.201 15.617 159.385 15.5482 159.499 15.3418C159.614 15.1354 159.729 14.6997 159.843 13.9889C160.256 14.4016 160.829 14.7227 161.609 14.929H161.586Z" fill="#6B6B6B"/>
<path d="M191.049 28.1142L182.61 26.3714C183.619 27.4262 184.858 28.4581 186.371 29.4671C187.862 30.4531 189.421 31.2787 191.003 31.9437C190.292 32.3564 189.581 32.9985 188.893 33.8469C187.197 32.9985 185.591 31.9436 184.055 30.7283C182.519 29.49 181.257 28.183 180.271 26.8071L179.171 32.2418L176.717 31.7373L177.795 26.4861C176.327 27.2887 174.653 27.9307 172.796 28.4352C170.938 28.9397 169.058 29.2607 167.224 29.3983C166.903 28.4123 166.513 27.5868 166.031 26.9218C167.728 26.9218 169.471 26.7383 171.237 26.3944C173.002 26.0504 174.562 25.5918 175.892 25.0185L167.568 23.3216L168.003 21.2119L178.46 23.3445L178.781 21.7164L170.824 20.0883L171.214 18.1851L179.171 19.8132L179.492 18.208L170.228 16.3047L170.64 14.3097L176.167 15.4333C176.098 14.6995 175.892 13.8052 175.525 12.7504H176.19L170.09 11.5121L170.526 9.40249L174.493 10.228C174.309 9.01266 173.897 7.68266 173.255 6.19215L175.593 5.89404C176.35 7.54507 176.809 8.98973 176.969 10.1821L175.502 10.4344L178.483 11.0535L179.423 6.44439L181.762 6.92594L180.822 11.5351L183.482 12.0854L184.422 7.47628L186.784 7.95783L185.844 12.567L188.779 13.1632L187.816 12.6358C188.939 11.4204 189.857 10.228 190.522 9.01266L192.975 10.2051C191.76 11.6268 190.751 12.6816 189.994 13.4154L193.869 14.218L193.434 16.3276L188.251 15.2728C187.976 15.5939 187.609 16.0066 187.105 16.534C186.6 17.0614 186.302 17.4054 186.211 17.4971L191.943 18.6666L191.531 20.6616L181.968 18.7125L181.647 20.3176L189.902 22.0145L189.513 23.9178L181.235 22.2209L180.891 23.849L191.531 26.0275L191.095 28.1371L191.049 28.1142ZM185.316 14.6537L178.07 13.1632C178.483 14.3097 178.689 15.1811 178.735 15.8002H177.91L183.596 16.9697C184.216 16.213 184.789 15.4563 185.293 14.6537H185.316Z" fill="#6B6B6B"/>
<path d="M217.448 36.4145L207.977 33.6399C208.528 34.9699 209.537 36.1164 211.027 37.1024C212.518 38.0885 214.536 39.0057 217.104 39.8542C216.278 40.3357 215.59 40.9548 215.063 41.6886C212.311 40.6567 210.179 39.5102 208.665 38.2948C207.152 37.0566 206.097 35.5661 205.524 33.8004C203.322 35.7036 199.149 36.1852 193.026 35.268C192.912 34.58 192.659 33.7774 192.27 32.8602C197.681 33.6628 201.373 33.4564 203.322 32.2411L193.875 29.4664L194.494 27.4026L204.859 30.4524C204.859 30.4524 204.95 30.2002 205.019 29.9709L205.615 27.93L208.046 28.6409L207.312 31.1633L212.793 32.7914C211.623 31.943 210.614 31.255 209.766 30.7276L211.119 29.6499L210.706 29.5352C210.775 28.9619 210.752 28.3428 210.637 27.6778L208.596 28.2281C208.321 27.2421 207.725 26.0956 206.831 24.7656L208.596 24.284L205.248 23.298L205.753 21.5552L214.879 24.2381L215.43 22.4037L217.746 23.0916L217.196 24.9261L220.91 26.0268L220.406 27.7695L216.691 26.6688L216.072 28.8014C215.911 29.3518 215.728 29.7416 215.499 29.9709C215.269 30.2002 214.948 30.3149 214.49 30.3607C213.871 30.3607 212.862 30.2002 211.463 29.7874C213.458 30.8881 214.971 31.92 216.003 32.8831L215.201 33.5481L218.067 34.3966L217.471 36.4604L217.448 36.4145ZM200.112 21.6928L200.02 22.0368C199.768 22.9082 199.332 23.8025 198.713 24.6738C198.117 25.5681 197.314 26.2102 196.328 26.6C195.939 26.0497 195.388 25.5223 194.723 24.9719C196.26 24.3528 197.314 23.1375 197.842 21.303L197.911 21.0507L196.214 20.5463L196.787 18.6201L202.634 20.3399L203.116 18.6659L198.553 17.313L200.181 11.7866L202.267 12.4058L201.213 15.983L203.689 16.7168L204.973 12.3599L207.198 13.002L202.841 27.7695L200.616 27.1275L202.038 22.2661L200.043 21.6928H200.112ZM220.429 18.2073L221.529 19.2621C218.686 21.968 213.825 22.8394 206.922 21.8304C206.922 21.2571 206.762 20.6151 206.487 19.973C207.748 20.2023 209.101 20.3857 210.546 20.4545C210.133 19.7207 209.628 18.964 209.009 18.2073C208.413 18.2302 207.886 18.2302 207.427 18.2073C207.266 17.4964 206.991 16.9002 206.647 16.3958C210.385 16.648 213.228 16.2811 215.201 15.3639L217.127 16.4416C216.737 16.6251 216.347 16.8085 215.934 16.969L219.993 18.1614L220.429 18.2073ZM214.375 25.958L208.849 24.3299C209.628 25.4535 210.224 26.5083 210.591 27.4714C211.944 27.9071 212.816 28.1593 213.228 28.2511C213.527 28.3428 213.71 28.2511 213.756 28.0447L214.375 25.958ZM210.683 18.1156C211.371 18.964 211.898 19.7666 212.265 20.5233C212.426 20.5233 213.022 20.4775 214.008 20.4316C213.55 19.6519 212.885 18.8494 212.036 17.978C211.876 18.0009 211.646 18.0239 211.325 18.0697C211.004 18.0926 210.798 18.1156 210.683 18.1385V18.1156ZM218.25 19.1933L213.687 17.8404C214.329 18.4825 214.948 19.2621 215.59 20.1564C216.553 19.9501 217.425 19.629 218.25 19.1704V19.1933Z" fill="#6B6B6B"/>
</svg>
