<svg width="215" height="43" viewBox="0 0 215 43" fill="none" xmlns="http://www.w3.org/2000/svg">
<path d="M13.7331 29.7134L14.8292 33.0416L23.4385 30.2116L24.0763 32.1248L4.90451 38.4224L4.28671 36.5092L12.637 33.759L11.5409 30.4309L5.42266 32.4437L4.82479 30.6102L10.943 28.5974L9.92663 25.5084L4.82479 27.1824L4.22692 25.3489C3.58919 26.2059 2.81195 27.1426 1.87529 28.1191C1.31727 27.581 0.699471 27.1625 0.00195312 26.8436C1.13791 25.8272 2.27387 24.5717 3.36997 23.0372C4.486 21.5226 5.40273 20.008 6.12018 18.4734L2.53295 19.6492L1.87529 17.6762L9.10954 15.3047C10.6042 16.4606 12.4377 17.4371 14.6299 18.2143C16.8221 18.9916 18.9545 19.4499 21.0471 19.5894C20.6485 20.3667 20.3894 21.1638 20.2499 21.961C19.094 21.8414 17.9381 21.6023 16.7822 21.2834L17.3602 23.0571L12.1388 24.771L13.1551 27.86L19.3531 25.8272L19.951 27.6607L13.753 29.6935L13.7331 29.7134ZM8.59139 17.6563C7.61486 20.1674 6.16004 22.7183 4.22692 25.3091L16.563 21.2635C13.6733 20.4464 11.0227 19.2506 8.59139 17.6563Z" fill="#6B6B6B"/>
<path d="M26.7862 10.6016L29.0182 10.8009C28.6396 11.9368 28.0616 13.0728 27.3442 14.2287C26.6068 15.3846 25.8296 16.401 24.9726 17.2978C24.2352 16.8195 23.5577 16.4607 22.9199 16.2017C23.7569 15.4444 24.5142 14.5675 25.2118 13.571C25.9093 12.5746 26.4474 11.598 26.8061 10.6215L26.7862 10.6016ZM37.4681 11.339L39.7201 11.7575C38.5642 13.9098 36.6511 15.9227 33.9407 17.7761L41.9721 15.8629L44.7622 27.5812L42.5899 28.0993L42.4305 27.4018L32.9841 29.6538L33.1834 30.4709L31.1108 30.9691L28.6994 20.8053C27.6033 21.3434 26.5271 21.8217 25.4708 22.2601C24.9328 21.6423 24.3349 21.1241 23.6573 20.6857C26.9855 19.47 29.8752 18.0551 32.3464 16.4807C34.8176 14.9063 36.5315 13.1724 37.4881 11.339H37.4681ZM33.0838 7.89124L34.3194 13.0927C34.4389 13.6308 34.4589 14.0493 34.3592 14.3682C34.2596 14.6871 34.0403 14.9661 33.6617 15.2251C33.1435 15.5639 31.9478 15.9426 30.0545 16.401C29.8154 15.9625 29.3969 15.4045 28.7392 14.7468C29.3172 14.6472 29.935 14.5077 30.5727 14.3682C31.2104 14.2287 31.5891 14.129 31.7086 14.0892C32.0474 13.9895 32.2069 13.8301 32.1471 13.571L30.9115 8.4094L33.0638 7.89124H33.0838ZM40.5572 19.5896L40.1984 18.0351L30.752 20.2871L31.1108 21.8217L40.5572 19.5697V19.5896ZM31.4496 23.3562L31.8282 24.9306L41.2746 22.6786L40.896 21.1042L31.4496 23.3562ZM32.5656 28.0196L42.012 25.7676L41.6533 24.2132L32.2069 26.4651L32.5656 28.0196ZM36.3322 9.28628L37.787 7.81152C38.8831 8.23003 40.0191 8.72826 41.175 9.3062C42.3308 9.88415 43.2476 10.4422 43.9052 10.9404L42.3308 12.6144C41.6931 12.1162 40.8162 11.5383 39.6603 10.9005C38.5045 10.2628 37.4084 9.72471 36.3322 9.28628Z" fill="#6B6B6B"/>
<path d="M69.2378 15.1252L61.9039 16.2213C62.7409 17.995 63.6776 19.3701 64.7538 20.3865C65.81 21.4029 66.8065 21.8214 67.7033 21.6819C68.0421 21.6221 68.2414 21.3431 68.3012 20.805C68.3609 20.2669 68.341 19.3701 68.2214 18.0747C68.8193 18.4733 69.5168 18.7324 70.314 18.8519C70.4136 20.6655 70.2941 21.921 69.9353 22.6185C69.5766 23.3161 68.9189 23.7346 67.9225 23.894C66.388 24.1331 64.8733 23.5751 63.3787 22.22C61.884 20.8648 60.6085 18.9914 59.5523 16.58L52.9757 17.5765L53.7529 22.778C54.5302 22.5587 55.706 22.2 57.2405 21.7616C58.7751 21.3032 59.8711 21.0043 60.5089 20.8249L60.9274 22.9573C57.5594 23.9936 53.9124 25.1097 49.9664 26.2656L49.1294 24.0534C49.8269 23.8541 50.6241 23.6349 51.5607 23.3958L48.9102 5.75853L65.6904 3.22754L66.7865 10.5216L60.2498 11.4981C60.4491 12.4148 60.7281 13.3316 61.0669 14.2483L68.9189 13.0725L69.2378 15.1252ZM63.7573 5.57917L51.4411 7.43258L51.9194 10.6412L64.2356 8.78775L63.7573 5.57917ZM52.6568 15.5238L58.7751 14.607C58.4363 13.5508 58.1573 12.6341 57.9779 11.8369L52.2184 12.6939L52.6369 15.5039L52.6568 15.5238Z" fill="#6B6B6B"/>
<path d="M86.0959 0.377785L88.1287 0.238281C88.1287 1.87247 88.0091 3.14793 87.75 4.02481C89.9422 4.94154 91.5565 5.71878 92.6326 6.35651L91.6362 7.69176L92.4333 7.63197L92.7323 12.0363L90.5201 12.1758L90.3408 9.46544L74.6965 10.5018L74.8758 13.2121L72.7633 13.3516L72.4644 8.94729H72.6238C72.305 8.34942 71.9263 7.89105 71.5078 7.57218C73.421 6.97431 74.6566 6.217 75.2345 5.28034C75.8125 4.3636 76.0915 2.92871 76.0516 1.01552L77.9848 0.895941C78.0047 2.47034 77.8851 3.76573 77.6061 4.78211C79.2801 5.57927 80.5158 6.23693 81.293 6.75509L80.0375 8.22984C79.5791 7.89105 78.5228 7.27325 76.8687 6.35651C76.1314 7.41275 74.8958 8.24977 73.2018 8.8875L82.8076 8.24977C82.4688 7.61204 82.0702 7.09388 81.6119 6.6953C82.6083 6.4163 83.4055 6.0775 84.0033 5.71878C84.6012 5.36005 85.0596 4.90169 85.3784 4.34367C85.6973 3.80559 85.8966 3.22764 85.9962 2.6497C86.0959 2.07176 86.1358 1.29452 86.1158 0.357856L86.0959 0.377785ZM73.4409 2.23119L74.9356 2.6497C74.537 4.10452 73.9392 5.16076 73.1619 5.77857L71.727 5.06112C72.584 4.38353 73.1619 3.44686 73.4409 2.23119ZM89.3045 15.2648L84.0631 15.6036C84.0033 15.7232 83.9436 15.9424 83.8439 16.2413C83.7642 16.5403 83.6845 16.7595 83.6247 16.899L91.4967 16.3808L91.8753 21.9809L89.6632 22.1204L89.6233 21.5425L77.4068 22.3596L77.4467 22.9574L75.3541 23.0969L74.9755 17.4769L81.3926 17.0584C81.5321 16.4406 81.6119 16.0221 81.6517 15.783L76.51 16.1218L76.2111 11.6975L89.0055 10.8605L89.3045 15.2847V15.2648ZM89.5237 19.9083L89.4041 18.1346L77.1876 18.9517L77.3072 20.7254L89.5237 19.9083ZM78.3833 12.9929L78.483 14.5274L87.0126 13.9694L86.913 12.4349L78.3833 12.9929ZM80.0175 1.87247L81.851 2.41055C81.2332 3.28743 80.5955 4.12445 79.9179 4.90169L78.5627 4.42339C79.1207 3.66608 79.6189 2.80913 80.0375 1.87247H80.0175ZM83.1265 5.12091L81.6716 4.38353C82.5087 3.70594 83.0866 2.76927 83.4055 1.59346L84.9001 2.0319C84.5614 3.38708 83.9635 4.40346 83.1065 5.12091H83.1265ZM82.9272 8.2697L90.9984 7.73161C90.1216 7.19353 88.7664 6.49601 86.9528 5.65899C86.1756 6.75509 84.8204 7.63197 82.9272 8.2697ZM90.4604 1.13509L92.3736 1.71303C91.4568 2.90878 90.7394 3.78566 90.2611 4.30381L88.866 3.78566C89.5436 2.88885 90.0817 2.01197 90.4604 1.13509Z" fill="#6B6B6B"/>
<path d="M112.045 5.99865L113.499 6.93532C112.443 8.58943 110.948 10.0642 108.995 11.3795C111.646 12.5155 114.595 13.2927 117.884 13.6913C117.405 14.1895 116.927 14.907 116.429 15.8436C115.731 15.744 114.775 15.5447 113.559 15.2457L113.46 22.0416L111.168 22.0017V21.2843L102.319 21.1448V21.922L100.107 21.8821L100.207 15.2457C99.1106 15.5447 97.9746 15.8038 96.7988 16.023C96.5398 15.2457 96.181 14.5881 95.7227 14.05C99.0508 13.5318 102.06 12.655 104.731 11.4194C103.615 10.6023 102.718 9.80511 102.02 9.0478C101.084 9.72539 99.9675 10.383 98.6323 11.0009C98.4729 10.7218 98.2537 10.403 97.9746 10.0841C97.6757 9.74532 97.4166 9.50617 97.1775 9.32681C98.7519 8.70901 100.127 7.9517 101.303 7.05489C102.459 6.17801 103.375 5.24135 104.033 4.30468L106.365 4.84277C106.086 5.20149 105.767 5.62 105.408 6.03851L111.646 6.13816L112.045 6.05844V5.99865ZM99.0907 3.96589L99.0508 6.73603L96.8785 6.69617L96.9583 1.91319L105.827 2.0527L105.867 0L108.138 0.0398582L108.099 2.09255L117.087 2.23206L117.007 7.01504L114.735 6.97518L114.775 4.20504L99.0907 3.94596V3.96589ZM102.359 19.2515L111.208 19.391L111.247 16.5411L102.399 16.4016L102.359 19.2515ZM102.379 14.5881L111.726 14.7475C109.872 14.1496 108.238 13.4721 106.823 12.7148C105.588 13.3724 104.113 14.0101 102.379 14.608V14.5881ZM103.814 7.67269L103.674 7.79227C104.511 8.70901 105.588 9.54603 106.903 10.3233C108.278 9.48624 109.374 8.64922 110.171 7.79227L103.814 7.69262V7.67269Z" fill="#6B6B6B"/>
<path d="M125.256 11.7577L124.658 17.7763C125.535 19.4504 127.348 20.4667 130.158 20.8255C131.454 21.0248 133.267 21.2041 135.619 21.4233C137.97 21.6226 139.884 21.7422 141.338 21.7821C140.9 22.4796 140.581 23.1771 140.402 23.8746C137.094 23.6953 133.606 23.3764 129.939 22.918C126.93 22.5194 124.797 21.3835 123.562 19.55C122.426 20.4468 121.27 21.3237 120.094 22.1806L119.197 19.9087C120.353 19.271 121.469 18.5735 122.525 17.7963L122.944 13.6111L120.134 13.3321L120.333 11.2794L125.256 11.7777V11.7577ZM126.053 8.60895L124.359 9.98405C123.681 9.00753 122.525 7.93136 120.851 6.77547L122.426 5.53987C123.103 5.95838 123.781 6.43668 124.478 7.01462C125.156 7.59256 125.694 8.11072 126.053 8.58902V8.60895ZM127.189 4.02526L125.495 5.34058C124.897 4.38398 123.781 3.28788 122.167 2.05228L123.781 0.876465C125.415 2.03235 126.551 3.06866 127.209 4.02526H127.189ZM134.264 20.6262L132.111 20.407L132.311 18.4539L125.814 17.8162L125.973 16.1421L132.49 16.7799L132.61 15.624L127.627 15.1258L128.305 8.31001L133.287 8.80824L133.407 7.63242L127.787 7.07441L127.946 5.48008L133.566 6.0381L133.706 4.56334L135.858 4.78256L135.718 6.25732L141.438 6.81533L141.279 8.40966L135.559 7.85164L135.439 9.02746L140.581 9.52569L139.904 16.3414L134.762 15.8432L134.642 16.9991L141.358 17.6567L141.199 19.3308L134.483 18.6731L134.284 20.6262H134.264ZM129.501 3.64661L129.361 5.16122L127.408 4.96193L127.727 1.83306L142.395 3.28788L142.076 6.41675L140.023 6.21746L140.183 4.70285L129.521 3.64661H129.501ZM129.64 13.8902L132.709 14.1891L132.849 12.8339L129.78 12.535L129.64 13.8902ZM130.039 9.9442L129.919 11.2197L132.988 11.5186L133.108 10.2431L130.039 9.9442ZM138.03 14.7272L138.17 13.372L135.001 13.0531L134.862 14.4083L138.03 14.7272ZM138.429 10.7812L135.26 10.4624L135.141 11.7378L138.309 12.0567L138.429 10.7812Z" fill="#6B6B6B"/>
<path d="M164.539 23.0372L157.165 21.682C158.062 22.5987 159.158 23.4557 160.493 24.2927C161.808 25.1297 163.164 25.8272 164.559 26.3653C163.941 26.744 163.343 27.302 162.745 28.0593C161.27 27.3418 159.835 26.465 158.5 25.4286C157.145 24.3923 156.029 23.2763 155.132 22.0806L154.255 26.8037L152.123 26.4052L152.96 21.8414C151.704 22.5589 150.27 23.1567 148.635 23.6151C147.021 24.0934 145.407 24.3923 143.813 24.5318C143.533 23.6948 143.155 22.9774 142.736 22.3994C144.211 22.3596 145.726 22.1802 147.24 21.8613C148.755 21.5425 150.11 21.124 151.266 20.5859L144.012 19.2506L144.351 17.4172L153.478 19.0912L153.737 17.6762L146.802 16.4008L147.101 14.7467L154.036 16.0221L154.295 14.6271L146.204 13.1324L146.523 11.3786L151.346 12.2754C151.266 11.6377 151.067 10.8804 150.748 9.96368H151.326L146.005 8.98715L146.343 7.15368L149.811 7.79141C149.632 6.73517 149.253 5.57928 148.675 4.30382L150.708 4.00488C151.386 5.43978 151.824 6.65545 151.963 7.71169L150.688 7.95084L153.279 8.42914L154.016 4.40346L156.069 4.78212L155.332 8.80779L157.643 9.2263L158.381 5.20063L160.453 5.57928L159.716 9.60495L162.267 10.0833L161.43 9.64481C162.386 8.56864 163.144 7.5124 163.722 6.45616L165.874 7.45261C164.838 8.70815 163.981 9.64481 163.343 10.2825L166.711 10.9003L166.372 12.7338L161.848 11.8968C161.629 12.1758 161.29 12.5545 160.872 13.0328C160.453 13.5111 160.194 13.7901 160.114 13.8897L165.117 14.8064L164.798 16.5602L156.467 15.0257L156.208 16.4207L163.423 17.7559L163.124 19.4101L155.909 18.0748L155.65 19.4898L164.937 21.2037L164.599 23.0372H164.539ZM159.337 11.4384L153.02 10.2825C153.398 11.279 153.598 12.0363 153.638 12.5545H152.92L157.882 13.4712C158.421 12.8135 158.899 12.1359 159.317 11.4384H159.337Z" fill="#6B6B6B"/>
<path d="M175.558 23.038L173.704 29.8138L168.622 28.4188L168.363 29.3953L166.51 28.8971L168.622 21.1447L175.558 23.038ZM169.061 19.7098L169.519 18.0158L176.434 19.9091L175.976 21.6031L169.061 19.7098ZM173.226 24.2337L169.997 23.3568L169.081 26.685L172.309 27.5619L173.226 24.2337ZM178.946 13.9304L178.487 15.6443L169.678 13.2328L170.137 11.5189L178.946 13.9304ZM169.898 16.6208L170.356 14.9467L177.271 16.84L176.813 18.5141L169.898 16.6208ZM178.886 10.6421L178.427 12.3161L171.671 10.4826L172.13 8.80859L178.886 10.662V10.6421ZM189.408 24.4529L188.85 26.4857L183.549 25.0508L181.317 33.2217L179.185 32.6438L181.417 24.4728L176.076 23.018L176.634 20.9853L181.975 22.4401L184.087 14.6877L179.623 13.472L180.161 11.4791L191.62 14.608L191.082 16.6009L186.22 15.2656L184.107 23.018L189.408 24.4529ZM180.879 14.8471L182.692 15.8037C181.337 18.1952 180.022 19.9091 178.746 20.9255C178.348 20.4073 177.889 19.9689 177.371 19.6102C178.666 18.5539 179.842 16.9795 180.879 14.8471ZM186.758 17.0592L188.631 16.84C189.229 19.1916 189.528 21.2045 189.508 22.9184L187.515 23.1376C187.595 21.5034 187.336 19.4906 186.758 17.0592Z" fill="#6B6B6B"/>
<path d="M208.54 39.9768L209.597 40.3555L208.939 42.1491L195.527 37.2465L196.045 35.8316C193.075 35.3931 190.624 35.0145 188.711 34.7156L188.91 32.6429C190.166 32.8622 191.342 33.0814 192.438 33.2807L194.809 26.7838L191.78 25.6877L192.438 23.914L195.467 25.0101L196.204 22.9973L194.132 22.24L194.431 21.4428C194.211 21.5624 193.992 21.662 193.773 21.7417C193.574 21.0243 193.295 20.4264 192.936 19.9481C195.228 19.0513 197.221 17.6363 198.915 15.7231L200.708 16.3808C201.565 18.1545 202.183 19.8086 202.582 21.3431L203.737 18.1943L209.975 20.4663L209.397 22.0207L207.624 21.3631L207.066 22.8777L208.66 23.4556L207.663 26.1461C209.059 24.8706 210.414 22.9773 211.729 20.4862L213.403 21.4826C212.865 22.4193 212.347 23.2763 211.869 24.0535L214.997 25.2094L214.34 27.003L210.693 25.6678C209.995 26.5646 209.318 27.3219 208.66 27.8998C208.461 27.5411 208.082 27.0827 207.524 26.4848L207.086 27.7005L205.491 27.1226L204.933 28.6372L206.926 29.3746L206.348 30.929L199.891 28.5774L202.382 21.7816L200.648 22.6585L200.748 22.6983L200.11 24.4322L197.918 23.635L197.181 25.6478L199.752 26.5845L199.094 28.3582L196.523 27.4215L194.271 33.5796L197.36 34.1177L196.922 35.7319L197.739 36.0309L199.931 30.0123L210.673 33.9383L208.481 39.9569L208.54 39.9768ZM191.601 27.2222L193.055 27.4016C192.936 29.0756 192.697 30.5105 192.338 31.7461L190.784 31.6066C191.202 30.3112 191.481 28.8365 191.621 27.2422L191.601 27.2222ZM196.463 33.1412L195.288 32.344C196.184 31.1482 196.922 29.9724 197.54 28.8165L198.875 29.7134C197.679 31.4671 196.882 32.623 196.443 33.1611L196.463 33.1412ZM195.666 20.8449L200.648 22.6585C200.369 21.104 199.931 19.6093 199.353 18.1545C198.058 19.2705 196.822 20.1673 195.666 20.825V20.8449ZM201.047 32.3241L199.453 36.6686L200.987 37.2266L202.582 32.8821L201.047 32.3241ZM203.498 28.139L204.056 26.6244L202.602 26.0863L202.043 27.6009L203.498 28.139ZM205.471 33.9383L203.917 33.3604L202.323 37.7049L203.877 38.2829L205.471 33.9383ZM206.229 25.9069L206.807 24.3126L203.678 23.1567L203.1 24.751L206.229 25.9069ZM206.149 20.8449L204.694 20.3268L204.136 21.8414L205.591 22.3795L206.149 20.8648V20.8449ZM208.381 34.9946L206.807 34.4166L205.212 38.7612L206.787 39.3391L208.381 34.9946ZM207.165 30.7895L207.803 29.0358L212.666 30.8095L212.028 32.5632L207.165 30.7895Z" fill="#6B6B6B"/>
</svg>
