<svg width="82" height="78" viewBox="0 0 82 78" fill="none" xmlns="http://www.w3.org/2000/svg">
<rect width="82" height="78" rx="39" fill="#4F5ED2"/>
<path d="M56.9335 20.7628L42.3588 16.3828C41.4526 16.0807 40.4709 16.0807 39.5647 16.3828L25.0656 20.7628C23.0266 21.3669 21.5918 23.2548 21.5918 25.3693V42.9646C21.5918 48.5528 26.8024 53.4614 31.2579 56.6331C34.052 58.6721 36.9217 60.2579 38.8096 61.2396C39.4892 61.6927 40.2444 61.8437 40.9995 61.8437C41.7547 61.8437 42.5099 61.6927 43.1895 61.3151C45.0774 60.3334 47.8716 58.7476 50.7412 56.7086C55.1211 53.5369 60.4073 48.5528 60.4073 43.0401V25.3693C60.4073 23.2548 58.9725 21.3669 56.9335 20.7628ZM57.0091 43.0401C57.0091 46.2873 54.0639 50.1387 48.7777 53.99C46.1347 55.8779 43.4916 57.3883 41.6792 58.37C41.3016 58.5965 40.773 58.5965 40.3954 58.37C38.583 57.4638 35.9399 55.9535 33.2969 53.99C28.0107 50.1387 25.0656 46.2873 25.0656 43.0401V25.3693C25.0656 24.7651 25.5187 24.161 26.1228 24.01L40.6975 19.63C40.8485 19.5545 40.9995 19.5545 41.0751 19.5545C41.1506 19.5545 41.3771 19.5545 41.4526 19.63L56.0273 24.01C56.6315 24.161 57.0846 24.7651 57.0846 25.3693V43.0401H57.0091Z" fill="white" stroke="white" stroke-width="2"/>
<path d="M46.4378 32.6189L37.7534 39.6419L35.8655 36.9988C35.3369 36.2437 34.2797 36.0926 33.5245 36.6213C32.7694 37.1499 32.6183 38.2071 33.1469 38.9623L36.0921 43.0402C36.3941 43.4177 36.7717 43.6443 37.2248 43.7198C37.3003 43.7198 37.3759 43.7198 37.4514 43.7198C37.829 43.7198 38.2065 43.5688 38.5086 43.3422L48.5523 35.262C49.3075 34.6578 49.383 33.6006 48.7789 32.8454C48.2502 32.1658 47.193 32.0903 46.4378 32.6189Z" fill="white" stroke="white" stroke-width="2"/>
</svg>
