<svg width="375" height="239" viewBox="0 0 375 239" fill="none" xmlns="http://www.w3.org/2000/svg">
<g clip-path="url(#clip0_1683_9080)">
<path d="M-109.405 29.3029L-43.9904 29.3029C-43.3487 29.3029 -42.9789 29.2811 -41.9238 29.3355C-40.1074 29.4117 -38.3018 29.4879 -36.4853 29.6293C-29.2413 30.391 -22.0951 32.5019 -15.5907 35.7879C-2.53833 42.3382 7.8927 53.6871 13.342 67.2773C16.0831 74.0453 17.5732 81.3573 17.6602 88.604L17.7037 89.8444L17.7363 90.247L17.7798 91.0631C17.7472 91.618 17.8995 92.1294 17.9648 92.6626C18.0083 92.9237 18.0192 93.1957 18.0735 93.4569L18.2911 94.2185L18.4651 94.9911C18.5304 95.2522 18.6609 95.4807 18.7479 95.731C20.1402 99.7134 23.0987 103.293 26.873 105.339C28.7438 106.362 30.7778 107.036 32.888 107.33C33.149 107.363 33.41 107.439 33.6819 107.472L34.4977 107.493L35.3135 107.559C35.3788 107.58 35.7377 107.569 36.0206 107.569L65.1925 107.569C67.7051 107.602 69.3367 107.482 73.5243 107.722C88.0668 108.516 102.316 114.892 112.583 125.186C122.917 135.414 129.356 149.635 130.226 164.183L130.356 166.903L130.4 168.187L130.4 177.469C130.4 177.643 130.4 177.762 130.4 177.795L130.465 178.611C130.574 180.776 131.042 182.855 131.89 184.813C133.533 188.741 136.85 192.027 140.7 193.801C142.626 194.693 144.692 195.226 146.846 195.389L147.662 195.433L148.064 195.466L148.162 195.466L148.38 195.477L251.363 195.477C253.603 195.477 256.616 195.498 257.138 195.389C259.292 195.259 261.369 194.748 263.306 193.888C267.21 192.19 270.506 188.894 272.203 184.998C273.073 183.051 273.573 180.983 273.715 178.829L273.769 178.013C273.769 177.828 273.802 177.849 273.802 177.501L273.802 61.6737C273.802 61.0426 273.791 60.64 273.834 59.5845C273.911 57.7674 273.987 55.9612 274.139 54.1441C274.389 52.3378 274.661 50.5316 274.966 48.7363C277.794 34.3517 286.038 21.2293 297.612 12.4375C303.387 8.0198 309.99 4.63583 316.994 2.53581C318.756 2.06793 320.529 1.58917 322.302 1.19745C324.097 0.892788 325.903 0.620765 327.708 0.370503C329.514 0.185528 331.33 0.131123 333.147 0.0440757L334.419 0.000552118L390.109 0.000556986C391.382 0.011438 392.154 -0.0320856 394.253 0.065843C401.487 0.250819 408.796 1.74151 415.54 4.57055C422.294 7.36695 428.505 11.3929 433.802 16.3655C444.44 26.2563 451.336 40.2165 452.695 54.7752C452.815 56.5814 452.902 58.3985 452.967 60.2157L452.967 63.8499L452.967 70.9225L452.967 99.1585C452.989 101.356 453.413 103.446 454.164 105.426C455.654 109.387 458.721 112.858 462.506 114.838C464.388 115.85 466.433 116.492 468.565 116.72C469.587 116.927 475.689 116.873 480.138 116.884L565 116.884L565 159.591L473.068 159.591C471.284 159.613 466.912 159.548 463.453 159.123C456.219 158.286 449.095 156.077 442.656 152.649C429.734 145.859 419.488 134.337 414.289 120.659C411.678 113.837 410.319 106.525 410.286 99.2782L410.286 85.0677L410.286 70.9225L410.286 60.4115C410.221 59.8675 410.188 59.3343 410.188 58.7794C409.753 54.5249 407.784 50.5099 404.619 47.5394C401.465 44.5797 397.375 42.8062 393.024 42.7626C392.774 42.6973 391.186 42.7191 390.098 42.7191L334.408 42.7191C334.104 42.7191 334.093 42.7409 333.919 42.7517C333.375 42.8062 332.831 42.7953 332.298 42.8388C331.776 42.9476 331.243 43.0238 330.71 43.0782C330.199 43.2196 329.688 43.372 329.166 43.4808C327.143 44.101 325.217 45.0803 323.51 46.3969C320.072 49.0083 317.669 52.8819 316.831 57.0275C316.777 57.5607 316.701 58.083 316.581 58.6161C316.559 59.1602 316.559 59.7042 316.505 60.2374C316.461 60.368 316.483 61.1405 316.472 61.6846L316.472 177.523L316.44 178.774L316.309 181.495C315.863 188.741 314.09 195.977 311.077 202.625C308.075 209.284 303.866 215.367 298.732 220.514C293.576 225.649 287.496 229.849 280.828 232.842C274.172 235.845 266.938 237.608 259.694 238.043C255.507 238.282 253.81 238.173 251.33 238.206L147.781 238.206L146.422 238.141L143.702 237.999C136.458 237.466 129.247 235.605 122.634 232.526C109.386 226.378 98.5304 215.4 92.733 201.951C89.8071 195.259 88.1321 188.001 87.784 180.755L87.6644 178.034L87.6644 176.152L87.6535 172.616L87.6535 168.198C87.6535 167.915 87.6317 167.882 87.6208 167.719L87.5665 166.903C87.2945 162.616 85.4781 158.547 82.4108 155.467C79.3217 152.399 75.2429 150.614 70.9574 150.364C70.4461 150.266 67.3571 150.288 65.149 150.288L35.977 150.288C35.6833 150.288 35.444 150.288 34.9219 150.266L32.2027 150.147L29.4834 149.983C28.5807 149.896 27.6779 149.744 26.7751 149.613C19.5637 148.591 12.5045 146.229 6.11974 142.693C-6.68245 135.664 -16.6457 123.858 -21.5186 110.061C-21.8231 109.202 -22.1495 108.342 -22.4105 107.472L-23.1176 104.827L-23.781 102.173C-23.966 101.28 -24.0856 100.377 -24.2379 99.474C-24.5098 97.6678 -24.8143 95.8616 -24.8687 94.0553L-24.9992 91.3351L-25.0536 89.975L-25.0536 89.8009L-25.0645 89.7465L-25.0645 89.6485L-25.0972 89.4418C-25.0972 87.2547 -25.5431 85.1547 -26.3588 83.1962C-27.936 79.2572 -31.0686 75.8515 -34.8756 73.9365C-36.779 72.979 -38.8239 72.3587 -40.9558 72.1194C-41.4996 72.1194 -42.0435 72.0976 -42.5764 72.0432C-42.6961 71.9997 -43.5118 72.0214 -44.0448 72.0214L-166.03 72.0214L-166.03 29.3029L-109.459 29.3029L-109.405 29.3029Z" fill="url(#paint0_linear_1683_9080)"/>
<path d="M357.525 21.7399L357.525 20.2275L365.074 20.2275L372.633 20.2275L372.633 21.7399L365.074 21.7399L357.525 21.7399Z" fill="white"/>
<path d="M333.322 21.773L332.233 21.8274C331.449 21.8601 330.676 21.9036 329.891 21.9689L329.75 20.4674C330.556 20.3912 331.351 20.3586 332.157 20.3151L333.268 20.2607C334.793 20.228 336.307 20.228 337.821 20.228L342.189 20.228L343.67 20.228L343.67 21.7404L342.189 21.7404L337.821 21.7404C336.318 21.7404 334.815 21.7404 333.333 21.7622L333.322 21.773Z" fill="white"/>
<path d="M309.733 28.3556C310.68 27.6375 311.661 26.8976 312.717 26.3101L312.924 26.1795C313.937 25.5484 314.994 24.9065 316.137 24.406L316.736 25.7878C315.691 26.2448 314.732 26.8323 313.708 27.4634L313.469 27.6157C312.477 28.1706 311.573 28.8452 310.626 29.5633L310.419 29.7156L309.961 29.1172L310.386 29.7374C309.46 30.3685 308.643 31.1192 307.783 31.9135L307.532 32.142C306.694 32.8492 305.975 33.6435 305.201 34.503L304.94 34.7968L303.818 33.7849L304.08 33.4912C304.853 32.6425 305.637 31.7612 306.53 31.0104L306.759 30.8037C307.62 30.0203 308.502 29.2043 309.504 28.5188L309.711 28.3665L309.733 28.3556Z" fill="white"/>
<path d="M294.142 54.4736C294.306 53.2984 294.48 52.0797 294.839 50.9153L295.068 50.0231C295.21 49.4681 295.351 48.9132 295.526 48.3147L296.43 45.8555L297.846 46.3778L296.963 48.7935C296.811 49.3267 296.669 49.8598 296.539 50.393L296.299 51.3288C295.972 52.4061 295.809 53.5051 295.645 54.6803C295.569 55.2462 295.482 55.8229 295.395 56.3125C295.308 57.4225 295.242 58.5324 295.21 59.6423L293.696 59.5987C293.728 58.4671 293.794 57.3354 293.892 56.1276C293.99 55.5835 294.066 55.0285 294.142 54.4736Z" fill="white"/>
<path d="M295.156 81.135L295.156 88.6758L293.642 88.6758L293.642 81.135L293.642 73.5833L295.156 73.5833L295.156 81.135Z" fill="white"/>
<path d="M293.644 102.515L295.158 102.515L295.158 116.356L293.644 116.356L293.644 102.515Z" fill="white"/>
<path d="M295.154 137.726L295.154 145.277L293.64 145.277L293.64 137.726L293.64 130.174L295.154 130.174L295.154 137.726Z" fill="white"/>
<path d="M293.642 159.098L295.156 159.098C295.156 160.131 295.156 161.154 295.156 162.177L295.178 170.752L295.178 172.939L293.664 172.939L293.664 170.752L293.653 162.177C293.653 161.154 293.653 160.121 293.653 159.098L293.642 159.098Z" fill="white"/>
<path d="M287.829 200.566L286.598 199.695C288.014 197.704 289.245 195.571 290.247 193.352C291.271 191.077 292.066 188.749 292.6 186.431L294.07 186.768C293.515 189.184 292.687 191.61 291.62 193.972L290.933 193.667L291.62 193.983C290.574 196.29 289.3 198.509 287.829 200.577L287.829 200.566Z" fill="white"/>
<path d="M267.305 215.463L265.094 216.029L264.724 214.571L266.869 214.027L268.111 213.581C271.422 212.548 274.516 210.72 277.097 209.077L277.914 210.35C275.245 212.047 272.054 213.929 268.601 215.017L267.327 215.485L267.305 215.463Z" fill="white"/>
<path d="M236.287 217.227L236.287 215.714L243.846 215.714L251.395 215.714L251.395 217.227L243.846 217.227L236.287 217.227Z" fill="white"/>
<path d="M208.585 215.713L222.439 215.713L222.439 217.225L208.585 217.225L208.585 215.713Z" fill="white"/>
<path d="M179.635 217.226L179.635 215.713L187.183 215.713L194.742 215.713L194.742 217.226L187.183 217.226L179.635 217.226Z" fill="white"/>
<path d="M151.932 215.712L165.787 215.712L165.787 217.224L151.932 217.224L151.932 215.712Z" fill="white"/>
<path d="M134.353 213.308L134.985 213.537C135.955 213.94 136.957 214.19 138.024 214.451L138.471 214.56L138.1 216.029L137.665 215.92C136.597 215.648 135.486 215.376 134.451 214.941L133.852 214.723C132.883 214.375 131.87 214.005 130.922 213.504L130.302 213.211C129.376 212.775 128.417 212.318 127.557 211.742L126.958 211.383C126.075 210.86 125.171 210.305 124.344 209.631L125.302 208.456C126.054 209.065 126.87 209.555 127.742 210.077L128.374 210.458C129.18 210.991 130.04 211.404 130.955 211.84L131.587 212.144L131.26 212.819L131.619 212.155C132.491 212.623 133.406 212.949 134.386 213.298L134.353 213.308Z" fill="white"/>
<path d="M115.961 198.837L114.697 199.664C112.051 195.605 110.166 191.274 109.099 186.791L110.569 186.443C111.593 190.752 113.412 194.931 115.961 198.837Z" fill="white"/>
<path d="M107.518 162.057L107.485 161.872C107.442 161.643 107.409 161.415 107.376 161.175C107.322 160.795 107.267 160.414 107.18 160.044L106.701 158.194L108.171 157.813L108.651 159.674C108.749 160.098 108.814 160.522 108.869 160.947L108.999 161.796C109.184 162.982 109.381 164.2 109.402 165.452C109.544 167.389 109.533 169.326 109.533 171.186L109.533 173.069L108.019 173.069L108.019 171.186C108.019 169.347 108.019 167.443 107.888 165.561L108.651 165.506L107.888 165.506C107.877 164.364 107.692 163.232 107.507 162.035L107.518 162.057Z" fill="white"/>
<path d="M94.0652 138.302C93.6404 137.954 93.1938 137.616 92.7472 137.29L91.9957 136.724C91.7996 136.572 91.6144 136.43 91.4184 136.278L92.3116 135.059C92.5185 135.212 92.7255 135.364 92.9215 135.527L93.6513 136.071C94.1197 136.42 94.588 136.768 95.0455 137.149C98.0191 139.727 100.372 142.295 102.234 144.983L100.993 145.843C99.1954 143.253 96.9298 140.783 94.0761 138.302L94.0652 138.302Z" fill="white"/>
<path d="M73.61 128.041L77.455 128.639L79.3066 129.118L78.9363 130.576L77.1609 130.119L73.414 129.542C73.0218 129.499 72.6297 129.477 72.2376 129.466L71.5514 129.434C69.7651 129.303 67.9679 129.314 66.2142 129.314C65.4844 129.314 64.7546 129.314 64.014 129.314L64.014 127.801C64.7546 127.801 65.4844 127.801 66.2033 127.801C67.9787 127.801 69.8086 127.791 71.6494 127.921L72.2921 127.954C72.7277 127.976 73.1525 127.986 73.61 128.052L73.61 128.041Z" fill="white"/>
<path d="M36.317 127.79L50.1719 127.801L50.1719 129.313L39.7916 129.313L36.317 129.302L36.317 127.79Z" fill="white"/>
<path d="M14.3884 123.645C13.6913 123.232 12.9942 122.807 12.2971 122.329C11.9485 122.057 11.6 121.806 11.2405 121.545C10.587 121.056 9.92257 120.577 9.29082 120.044L10.2602 118.88C10.8702 119.38 11.502 119.848 12.1337 120.316C12.4932 120.577 12.8526 120.849 13.1794 121.099C13.822 121.534 14.4973 121.937 15.1617 122.34C15.543 122.568 15.9351 122.797 16.3054 123.036C16.9916 123.406 17.6887 123.743 18.3967 124.08C18.8106 124.276 19.2136 124.472 19.584 124.646C20.3029 124.951 21.0435 125.223 21.7842 125.484C22.209 125.636 22.6338 125.789 23.0586 125.952L22.5249 127.366C22.1109 127.214 21.6971 127.062 21.2832 126.909C20.5098 126.637 19.7474 126.354 18.9631 126.017C18.571 125.821 18.168 125.636 17.765 125.441C17.0243 125.092 16.2945 124.744 15.5756 124.352L15.9351 123.689L15.5321 124.331C15.1508 124.091 14.7696 123.863 14.3884 123.634L14.3884 123.645Z" fill="white"/>
<path d="M1.7098 108.618L0.402787 109.38C-1.90636 105.397 -3.48577 100.947 -4.27001 96.137L-2.77778 95.8867C-2.01533 100.511 -0.501309 104.788 1.7207 108.618L1.7098 108.618Z" fill="white"/>
<path d="M-53.6993 65.3542L-44.3538 65.3542C-43.8745 65.3542 -43.4061 65.3542 -43.2427 65.3869C-42.6436 65.4304 -42.0555 65.4521 -41.4564 65.4739L-41.0533 65.4957C-38.1343 65.8112 -35.3023 66.6491 -32.6555 67.9875C-27.3946 70.6208 -23.1248 75.2563 -20.9355 80.7079C-19.7918 83.4936 -19.2145 86.3881 -19.2036 89.2825L-18.9858 93.6025C-18.9531 94.9735 -18.7352 96.3772 -18.5283 97.7374L-18.3214 99.0976C-18.2342 99.6743 -18.1471 100.24 -18.0382 100.784L-16.8182 105.529C-16.6657 106.062 -16.4697 106.573 -16.2845 107.095L-16.0231 107.825C-11.688 120.077 -2.71284 130.665 8.60418 136.867C14.2463 139.979 20.6074 142.112 27.0012 143.015L27.7091 143.124C28.2755 143.211 28.8419 143.298 29.3865 143.352L34.2771 143.603C34.6475 143.625 34.8871 143.625 35.1158 143.614L65.8754 143.614C67.836 143.614 69.8511 143.614 70.7224 143.712C76.6696 144.06 82.2682 146.552 86.4834 150.741C90.7096 154.963 93.2257 160.545 93.5961 166.486L93.6723 167.76C93.6723 167.879 93.6941 167.999 93.6941 168.195L93.6941 176.149L93.8139 180.426C94.1298 186.878 95.6547 193.396 98.2253 199.283C103.312 211.09 113.028 221.003 124.868 226.487C130.695 229.196 137.187 230.883 143.613 231.351L146.064 231.471C146.87 231.503 147.73 231.547 148.231 231.536L250.912 231.536C251.577 231.536 252.187 231.536 252.808 231.536C254.485 231.536 256.217 231.547 258.885 231.383C265.344 230.992 271.847 229.392 277.707 226.759C289.547 221.503 299.372 211.699 304.654 199.871C307.301 194.027 308.913 187.52 309.305 181.079L309.436 178.238C309.436 177.966 309.458 177.684 309.458 177.509L309.458 61.2737C309.458 60.7731 309.458 60.2617 309.48 60.1094L309.599 57.8678C309.73 57.1714 309.839 56.475 309.926 55.735C311.081 50.0005 314.425 44.6577 319.108 41.0995C321.461 39.304 324.086 37.9547 326.951 37.0842C327.408 36.9863 327.855 36.8666 328.312 36.7469L329.086 36.551C329.794 36.464 330.491 36.3552 331.264 36.2246L333.617 36.094C333.737 36.094 333.856 36.0722 334.063 36.0722L390.736 36.0723C391.683 36.0723 392.587 36.0722 392.936 36.1267C398.818 36.2028 404.492 38.5423 408.926 42.6991C413.282 46.7687 415.995 52.2639 416.583 58.216C416.594 58.9342 416.637 59.6415 416.692 60.4032L416.692 85.0932L416.703 99.2826C416.724 105.714 417.955 112.286 420.264 118.314C424.861 130.393 434.065 140.763 445.545 146.78C451.253 149.805 457.657 151.797 464.062 152.536C467.253 152.917 471.109 152.983 472.895 152.961L565 152.961L565 154.093L472.95 154.093C472.754 154.093 472.525 154.093 472.275 154.093C470.281 154.093 466.861 154.005 463.975 153.657C457.429 152.906 450.882 150.872 445.055 147.781C433.346 141.644 423.935 131.046 419.24 118.717C416.888 112.569 415.624 105.855 415.602 99.2935L415.602 85.1041L415.592 60.4576C415.537 59.7177 415.494 58.9886 415.483 58.2922C414.927 52.6447 412.335 47.4107 408.185 43.526C403.959 39.5543 398.556 37.3345 392.881 37.2474C392.544 37.193 391.596 37.193 390.768 37.2039L334.085 37.2039C333.922 37.2039 333.835 37.2039 333.737 37.2257L331.417 37.3563C330.698 37.4868 329.979 37.5956 329.325 37.6718L328.628 37.8568C328.16 37.9765 327.691 38.1071 327.267 38.205C324.565 39.0211 322.06 40.3051 319.816 42.0244C315.34 45.4194 312.148 50.5119 311.059 55.9418C310.972 56.6708 310.863 57.389 310.732 58.031L310.612 60.2617C310.591 60.4467 310.591 60.882 310.591 61.3063L310.591 177.553C310.591 177.738 310.591 178.043 310.569 178.336L310.438 181.187C310.035 187.771 308.39 194.408 305.689 200.382C300.287 212.461 290.255 222.472 278.165 227.836C272.185 230.524 265.541 232.156 258.94 232.559C256.794 232.689 255.247 232.711 253.853 232.711C253.494 232.711 253.134 232.711 252.786 232.711C252.165 232.711 251.555 232.711 250.901 232.711L148.231 232.711C148.166 232.711 148.09 232.711 148.003 232.711C147.48 232.711 146.706 232.678 145.988 232.646L143.526 232.526C136.936 232.047 130.314 230.328 124.367 227.553C112.276 221.96 102.364 211.83 97.1687 199.773C94.5437 193.766 92.9861 187.107 92.6702 180.513L92.5613 178.043L92.5613 168.238C92.5613 168.086 92.5395 167.988 92.5286 167.89L92.4524 166.584C92.1038 160.926 89.6967 155.594 85.6774 151.579C81.6473 147.575 76.3101 145.191 70.6244 144.876L70.6571 144.31L70.5917 144.876C69.7857 144.778 67.7162 144.789 65.8863 144.789L35.1376 144.789C34.8871 144.789 34.6366 144.789 34.2444 144.767L29.3103 144.517C28.7221 144.462 28.1339 144.375 27.5566 144.288L26.8486 144.19C20.3242 143.265 13.8215 141.089 8.07049 137.912C-3.48615 131.579 -12.6466 120.763 -17.0797 108.26L-17.3411 107.542C-17.5371 106.998 -17.7332 106.453 -17.9074 105.888L-19.1383 101.089C-19.2581 100.501 -19.3452 99.9137 -19.4432 99.3261L-19.6502 97.9659C-19.868 96.5731 -20.0859 95.1368 -20.1186 93.7004L-20.3255 89.3805C-20.3364 86.5948 -20.892 83.8418 -21.9811 81.1867L-21.5128 80.9909L-21.9811 81.1758C-24.0616 75.9745 -28.1352 71.5566 -33.1565 69.043C-35.6835 67.7699 -38.3848 66.9647 -41.1296 66.6709L-41.4891 66.6709C-42.0991 66.6382 -42.709 66.6165 -43.3626 66.562C-43.5259 66.5403 -43.9398 66.5403 -44.3319 66.5403L-166.989 66.5403L-166.989 65.4086L-53.6884 65.4086L-53.6993 65.3542Z" fill="white"/>
<path d="M-110.352 34.0928L-44.3339 34.0928C-43.92 34.0928 -43.5061 34.0928 -42.8308 34.1254C-41.1752 34.1907 -39.5087 34.2669 -37.8313 34.3975C-31.2089 35.0939 -24.5428 37.0525 -18.5739 40.0667C-6.6034 46.0733 3.12341 56.6392 8.10113 69.0658C10.6281 75.29 12.0005 82.08 12.0877 88.6959L12.2293 91.4707C12.2184 91.9168 12.2837 92.363 12.3709 92.8309C12.4036 93.0376 12.4471 93.2444 12.4689 93.4294C12.4907 93.5817 12.5125 93.7449 12.5343 93.8973C12.556 94.0822 12.5778 94.2672 12.6105 94.3978L13.1224 96.4109C13.1769 96.585 13.2422 96.7591 13.3076 96.9332C13.3621 97.0746 13.4165 97.2161 13.471 97.3576C15.29 102.526 19.0478 106.966 23.7859 109.545L23.5027 110.067L23.7859 109.556C26.1713 110.861 28.7527 111.721 31.454 112.102C31.6065 112.124 31.759 112.145 31.9115 112.178C32.0967 112.211 32.2818 112.243 32.4234 112.265L34.591 112.374C34.689 112.385 34.9069 112.374 35.2663 112.374L64.4792 112.374C65.1763 112.374 65.8081 112.374 66.4507 112.374C68.1063 112.374 69.8273 112.363 72.5286 112.515C85.9477 113.244 99.0729 119.11 108.549 128.598C118.091 138.032 124.016 151.123 124.811 164.507L124.931 166.999L124.975 176.749C124.975 177.14 124.975 177.543 124.975 177.804L125.04 178.86C125.171 181.613 125.791 184.257 126.859 186.749C128.939 191.678 133.013 195.824 138.045 198.142C140.507 199.284 143.132 199.959 145.855 200.166L147.14 200.231C147.402 200.253 147.674 200.274 148.197 200.263L251.999 200.264C253.927 200.264 256.128 200.264 256.955 200.176C259.7 200.013 262.347 199.36 264.82 198.261C269.808 196.085 273.925 191.972 276.115 186.988L276.627 187.206L276.126 186.977C277.237 184.507 277.89 181.863 278.054 179.132L278.13 177.869C278.13 177.782 278.152 177.695 278.141 177.51L278.141 61.2311C278.141 60.7959 278.141 60.3498 278.173 59.6425C278.25 57.9776 278.315 56.3236 278.457 54.637C278.685 52.983 278.936 51.3399 279.208 49.675C281.801 36.5411 289.414 24.3539 300.1 16.2472C305.469 12.134 311.482 9.06545 317.985 7.11767L318.159 7.07415C319.716 6.66065 321.285 6.24716 322.886 5.88807C324.531 5.61603 326.186 5.36576 327.853 5.12637C329.171 4.99579 330.521 4.9305 331.818 4.87609L365.028 4.78905L390.821 4.78905C391.638 4.78905 392.487 4.78905 393.816 4.85434C407.159 5.09373 420.458 10.5671 430.294 19.8599C440.119 28.9894 446.469 41.8731 447.711 55.2355C447.82 56.8895 447.896 58.5543 447.961 60.2301L447.961 85.0724L447.972 99.1748C447.994 101.895 448.495 104.572 449.475 107.14C451.392 112.2 455.259 116.552 460.073 119.088L459.812 119.588L460.073 119.099C462.481 120.394 465.073 121.199 467.807 121.493C469.256 121.699 473.035 121.689 476.673 121.689C477.795 121.689 478.906 121.689 479.952 121.689L564.998 121.689L564.998 122.82L480.017 122.82C479.592 122.82 479.157 122.82 478.721 122.82C477.392 122.82 475.998 122.82 474.68 122.82C471.641 122.82 468.972 122.798 467.731 122.613C464.877 122.309 462.143 121.46 459.616 120.1C454.551 117.445 450.499 112.875 448.484 107.554C447.46 104.855 446.926 102.048 446.905 99.1857L446.905 85.0833L446.894 60.2736C446.828 58.6196 446.752 56.9765 446.643 55.3443C445.423 42.2648 439.204 29.6423 429.575 20.7086L429.956 20.2951L429.575 20.6977C419.946 11.6008 406.919 6.24716 393.838 6.00777C392.52 5.94248 391.681 5.94248 390.886 5.94248L334.987 5.94248L331.916 6.02953C330.63 6.08394 329.302 6.14922 328.038 6.26892C326.393 6.49743 324.749 6.7477 323.147 7.01974C321.59 7.36795 320.043 7.78144 318.496 8.18406L318.333 8.22758C311.983 10.1318 306.101 13.1351 300.829 17.1613C290.362 25.1047 282.901 37.0417 280.374 49.8927C280.101 51.5249 279.851 53.168 279.633 54.7784C279.502 56.4215 279.426 58.0646 279.361 59.7186C279.328 60.4042 279.328 60.8285 279.328 61.2529L279.328 177.532C279.328 177.782 279.328 177.902 279.306 178.011L279.23 179.23C279.045 182.102 278.37 184.877 277.204 187.467C274.895 192.712 270.56 197.032 265.321 199.317C262.728 200.481 259.951 201.156 257.097 201.33C256.378 201.417 254.788 201.428 253.089 201.428C252.74 201.428 252.381 201.428 252.032 201.428L243.83 201.428L187.18 201.428L148.24 201.428C148.142 201.428 148.055 201.428 147.968 201.428C147.565 201.428 147.314 201.406 147.075 201.395L145.8 201.33C142.925 201.112 140.158 200.394 137.577 199.197C132.294 196.76 128.013 192.396 125.824 187.217C124.702 184.616 124.049 181.83 123.907 178.947L123.842 177.891C123.831 177.608 123.831 177.184 123.842 176.76L123.842 169.099L123.678 164.572C122.894 151.46 117.089 138.653 107.743 129.403C98.4738 120.111 85.6101 114.365 72.4632 113.647C69.7946 113.484 68.0954 113.495 66.4616 113.506C65.808 113.506 65.1654 113.506 64.4792 113.506L35.1356 113.506C34.8306 113.506 34.5474 113.506 34.482 113.495L32.3472 113.386C32.1293 113.364 31.9224 113.332 31.7154 113.288C31.5738 113.266 31.4431 113.234 31.3015 113.223C28.4587 112.82 25.7465 111.928 23.2413 110.546C18.2527 107.836 14.2988 103.179 12.3926 97.7384C12.3491 97.6078 12.3055 97.4881 12.251 97.3684C12.1639 97.1617 12.0877 96.9549 12.0223 96.7156L11.4995 94.6807C11.4559 94.474 11.4341 94.2672 11.4015 94.0605C11.3797 93.919 11.3688 93.7776 11.3361 93.6143C11.3143 93.4185 11.2816 93.2335 11.249 93.0376C11.1618 92.5262 11.0747 92.0039 11.0965 91.4925L10.9549 88.7395C10.8787 82.2541 9.52801 75.5946 7.05548 69.5119C2.17578 57.3464 -7.35492 46.9873 -19.0858 41.1004C-24.9458 38.1407 -31.4703 36.2255 -37.9402 35.54C-39.585 35.4203 -41.2406 35.3441 -42.8853 35.268C-43.5389 35.2353 -43.9309 35.2353 -44.3339 35.2353L-167.013 35.2353L-167.013 34.1036L-110.363 34.1036L-110.352 34.0928Z" fill="white"/>
</g>
<defs>
<linearGradient id="paint0_linear_1683_9080" x1="-143.693" y1="319.653" x2="565" y2="-27.9059" gradientUnits="userSpaceOnUse">
<stop stop-color="#DDE2FE"/>
<stop offset="1" stop-color="#FFF7D3"/>
</linearGradient>
<clipPath id="clip0_1683_9080">
<rect width="732" height="238.206" fill="white" transform="matrix(-1 -8.74228e-08 -8.74228e-08 1 565 0)"/>
</clipPath>
</defs>
</svg>
