<svg width="1400" height="457" viewBox="0 0 1400 457" fill="none" xmlns="http://www.w3.org/2000/svg">
<g clip-path="url(#clip0_1579_11723)">
<path d="M110.155 56.4808L235.264 56.4808C236.492 56.4808 237.199 56.4391 239.217 56.5432C242.691 56.6889 246.144 56.8345 249.618 57.1051C263.473 58.5618 277.14 62.5991 289.581 68.8838C314.544 81.4118 334.494 103.117 344.916 129.11C350.159 142.054 353.009 156.038 353.175 169.898L353.259 172.271L353.321 173.041L353.404 174.601C353.342 175.663 353.633 176.641 353.758 177.66C353.841 178.16 353.862 178.68 353.966 179.18L354.382 180.636L354.715 182.114C354.84 182.613 355.089 183.05 355.256 183.529C357.918 191.146 363.577 197.992 370.795 201.905C374.374 203.861 378.264 205.151 382.299 205.713C382.799 205.776 383.298 205.921 383.818 205.984L385.378 206.025L386.938 206.15C387.063 206.192 387.75 206.171 388.291 206.171L444.084 206.171C448.89 206.233 452.01 206.004 460.019 206.462C487.833 207.981 515.085 220.176 534.723 239.863C554.485 259.425 566.801 286.624 568.465 314.448L568.715 319.651L568.798 322.106L568.798 339.858C568.798 340.191 568.798 340.42 568.798 340.482L568.923 342.043C569.131 346.184 570.025 350.159 571.648 353.905C574.789 361.417 581.134 367.702 588.498 371.094C592.18 372.801 596.133 373.821 600.252 374.133L601.812 374.216L602.582 374.278L602.769 374.278L603.185 374.299L800.147 374.299C804.433 374.299 810.195 374.341 811.194 374.133C815.313 373.883 819.286 372.905 822.989 371.261C830.457 368.014 836.76 361.709 840.006 354.259C841.67 350.534 842.627 346.58 842.897 342.459L843.001 340.898C843.001 340.545 843.064 340.586 843.064 339.92L843.064 118.392C843.064 117.185 843.043 116.415 843.126 114.397C843.272 110.921 843.417 107.467 843.709 103.991C844.187 100.537 844.707 97.0822 845.29 93.6484C850.698 66.1369 866.467 41.0394 888.601 24.2245C899.648 15.7754 912.275 9.30335 925.672 5.28692C929.042 4.39207 932.433 3.4764 935.824 2.72722C939.257 2.14453 942.71 1.62427 946.163 1.14562C949.616 0.791846 953.09 0.687794 956.565 0.52131L958.998 0.438068L1065.51 0.438077C1067.94 0.458888 1069.42 0.375646 1073.44 0.562941C1087.27 0.916721 1101.25 3.76776 1114.15 9.1785C1127.07 14.5268 1138.94 22.2267 1149.07 31.7371C1169.42 50.6539 1182.61 77.3538 1185.21 105.198C1185.44 108.653 1185.6 112.128 1185.73 115.604L1185.73 122.554L1185.73 136.081L1185.73 190.084C1185.77 194.288 1186.58 198.284 1188.02 202.071C1190.87 209.646 1196.73 216.285 1203.97 220.072C1207.57 222.008 1211.48 223.236 1215.56 223.673C1217.52 224.068 1229.19 223.964 1237.7 223.985L1400 223.985L1400 305.666L1224.17 305.666C1220.76 305.708 1212.4 305.583 1205.78 304.771C1191.95 303.169 1178.32 298.944 1166.01 292.389C1141.29 279.403 1121.7 257.365 1111.75 231.206C1106.76 218.158 1104.16 204.173 1104.1 190.313L1104.1 163.135L1104.1 136.081L1104.1 115.978C1103.97 114.938 1103.91 113.918 1103.91 112.857C1103.08 104.72 1099.31 97.0406 1093.26 91.3593C1087.23 85.6988 1079.41 82.3067 1071.08 82.2235C1070.61 82.0986 1067.57 82.1402 1065.49 82.1402L958.978 82.1402C958.395 82.1402 958.374 82.1818 958.042 82.2026C957.001 82.3067 955.961 82.2859 954.942 82.3691C953.943 82.5772 952.924 82.7229 951.905 82.827C950.927 83.0975 949.949 83.3888 948.951 83.5969C945.081 84.7831 941.399 86.6561 938.133 89.1742C931.559 94.1687 926.962 101.577 925.36 109.506C925.256 110.526 925.11 111.525 924.882 112.544C924.84 113.585 924.84 114.625 924.736 115.645C924.653 115.895 924.694 117.372 924.674 118.413L924.674 339.962L924.611 342.355L924.362 347.558C923.509 361.417 920.118 375.257 914.355 387.972C908.614 400.708 900.563 412.341 890.744 422.184C880.883 432.007 869.255 440.04 856.502 445.763C843.771 451.506 829.937 454.878 816.082 455.71C808.073 456.168 804.828 455.96 800.085 456.022L602.041 456.022L599.441 455.897L594.24 455.627C580.385 454.607 566.593 451.048 553.944 445.159C528.606 433.401 507.845 412.403 496.757 386.681C491.161 373.883 487.958 360.002 487.292 346.143L487.063 340.94L487.063 337.34L487.042 330.576L487.042 322.127C487.042 321.586 487.001 321.524 486.98 321.212L486.876 319.651C486.356 311.451 482.882 303.668 477.015 297.779C471.107 291.91 463.306 288.497 455.11 288.019C454.132 287.831 448.224 287.873 444.001 287.873L388.207 287.873C387.646 287.873 387.188 287.873 386.19 287.831L380.989 287.603L375.788 287.29C374.061 287.124 372.335 286.833 370.608 286.583C356.816 284.627 343.315 280.111 331.103 273.347C306.618 259.904 287.563 237.324 278.243 210.937C277.661 209.292 277.037 207.648 276.537 205.984L275.185 200.927L273.916 195.849C273.562 194.142 273.334 192.415 273.042 190.688C272.522 187.233 271.94 183.779 271.836 180.324L271.586 175.122L271.482 172.52L271.482 172.187L271.461 172.083L271.461 171.896L271.399 171.501C271.399 167.318 270.546 163.301 268.986 159.555C265.969 152.022 259.978 145.508 252.697 141.846C249.057 140.014 245.146 138.828 241.068 138.37C240.028 138.37 238.988 138.329 237.969 138.225C237.74 138.141 236.18 138.183 235.16 138.183L1.85521 138.183L1.85522 56.4807L110.051 56.4808L110.155 56.4808Z" fill="url(#paint0_linear_1579_11723)"/>
<path d="M1385.54 262.667L1400 262.667L1400 265.559L1385.54 265.559L1385.54 262.667Z" fill="white"/>
<path d="M1332.57 262.66L1359.07 262.66L1359.07 265.553L1332.57 265.553L1332.57 262.66Z" fill="white"/>
<path d="M1277.2 265.554L1277.2 262.662L1291.65 262.662L1306.09 262.662L1306.09 265.554L1291.65 265.554L1277.2 265.554Z" fill="white"/>
<path d="M1224.22 262.683L1250.72 262.662L1250.72 265.554L1225.37 265.575L1224.2 265.575L1224.22 262.683Z" fill="white"/>
<path d="M1180.29 254.545C1179.58 254.108 1178.87 253.672 1178.1 253.214C1176.77 252.381 1175.52 251.424 1174.25 250.467C1173.58 249.968 1172.91 249.447 1172.23 248.969L1173.91 246.617C1174.62 247.117 1175.31 247.658 1176 248.178C1177.18 249.073 1178.37 249.988 1179.58 250.738C1180.33 251.174 1181.06 251.632 1181.81 252.09C1183.08 252.881 1184.33 253.651 1185.66 254.317C1186.43 254.67 1187.2 255.045 1187.98 255.419C1189.31 256.085 1190.64 256.73 1192 257.251C1192.81 257.542 1193.6 257.833 1194.41 258.145C1195.81 258.666 1197.22 259.207 1198.66 259.602L1197.87 262.369C1196.35 261.933 1194.87 261.392 1193.39 260.83C1192.6 260.538 1191.83 260.247 1191 259.956C1189.52 259.394 1188.1 258.686 1186.7 258C1185.95 257.625 1185.2 257.251 1184.43 256.918L1185.04 255.607L1184.39 256.897C1182.98 256.189 1181.64 255.357 1180.31 254.525L1180.29 254.545Z" fill="white"/>
<path d="M1157.16 227.366L1154.7 228.885C1150.06 221.435 1146.85 212.985 1145.16 203.766L1148.01 203.246C1149.64 212.111 1152.72 220.207 1157.16 227.345L1157.16 227.366Z" fill="white"/>
<path d="M1146.72 163.141L1146.72 177.563L1143.83 177.563L1143.83 163.141L1143.83 148.698L1146.72 148.698L1146.72 163.141Z" fill="white"/>
<path d="M1142.69 103.537L1142.54 102.621C1142.12 100.54 1141.65 98.459 1141.08 96.3986L1143.87 95.6494C1144.46 97.7722 1144.96 99.9158 1145.4 102.143L1145.54 103.1C1146.02 106.076 1146.5 109.156 1146.52 112.195C1146.71 114.65 1146.73 117.085 1146.73 119.354L1146.73 122.247L1143.83 122.247L1143.83 119.354C1143.83 117.127 1143.83 114.754 1143.65 112.319C1143.62 109.406 1143.17 106.555 1142.69 103.558L1142.69 103.537Z" fill="white"/>
<path d="M1126.31 64.0605L1127.37 65.226C1128.75 66.6204 1129.89 68.1604 1131.02 69.6797L1132.06 71.0532L1129.77 72.8014L1128.71 71.3862C1127.6 69.9086 1126.56 68.4934 1125.31 67.2239L1124.19 65.996C1122.94 64.6016 1121.75 63.2905 1120.37 62.1459L1121.29 61.0429L1120.33 62.1251L1119.17 61.0637C1117.75 59.7734 1116.44 58.5455 1114.89 57.5049L1113.64 56.5684C1112.1 55.4238 1110.67 54.3207 1109.08 53.4467L1110.48 50.9285C1112.25 51.9066 1113.85 53.1137 1115.39 54.2791L1116.58 55.174C1118.25 56.3186 1119.71 57.6714 1121.14 58.9617L1122.29 60.0023C1123.79 61.2718 1125.1 62.7078 1126.37 64.1022L1126.31 64.0605Z" fill="white"/>
<path d="M1065.18 42.0168L1058.68 42.0168L1058.68 39.1244L1065.14 39.1244C1071.99 38.9787 1078.89 39.5405 1085.35 40.7474L1084.81 43.5774C1079.18 42.537 1073.27 41.9959 1067.24 41.9959C1066.56 41.9959 1065.89 41.9959 1065.16 41.9959L1065.18 42.0168Z" fill="white"/>
<path d="M1003.19 42.0164L1003.19 39.124L1017.63 39.124L1032.08 39.124L1032.08 42.0164L1017.63 42.0164L1003.19 42.0164Z" fill="white"/>
<path d="M956.901 42.0796L954.818 42.1836C953.318 42.246 951.839 42.3293 950.339 42.4541L950.068 39.5825C951.61 39.4369 953.13 39.3745 954.672 39.2912L956.797 39.1872C959.713 39.1248 962.609 39.1248 965.505 39.1248L973.858 39.1248L976.691 39.1248L976.691 42.0171L973.858 42.0171L965.505 42.0171C962.63 42.0171 959.755 42.0171 956.922 42.0588L956.901 42.0796Z" fill="white"/>
<path d="M911.785 54.669C913.597 53.2956 915.472 51.8806 917.493 50.757L917.888 50.5073C919.826 49.3004 921.847 48.0727 924.034 47.1155L925.18 49.7582C923.18 50.6321 921.347 51.7558 919.388 52.9627L918.93 53.254C917.034 54.3152 915.305 55.6054 913.493 56.9787L913.097 57.27L912.222 56.1256L913.035 57.3117C911.264 58.5186 909.701 59.9543 908.056 61.4734L907.577 61.9104C905.972 63.2629 904.598 64.7819 903.118 66.4258L902.619 66.9876L900.473 65.0524L900.973 64.4906C902.452 62.8675 903.952 61.182 905.66 59.7463L906.097 59.3509C907.743 57.8527 909.431 56.292 911.347 54.9811L911.743 54.6898L911.785 54.669Z" fill="white"/>
<path d="M881.966 104.622C882.278 102.374 882.612 100.043 883.299 97.8165L883.737 96.11C884.007 95.0486 884.278 93.9872 884.612 92.8426L886.341 88.1392L889.049 89.1381L887.361 93.7583C887.07 94.778 886.799 95.7978 886.549 96.8176L886.091 98.6074C885.466 100.668 885.153 102.77 884.841 105.017C884.695 106.1 884.528 107.203 884.362 108.139C884.195 110.262 884.07 112.385 884.007 114.507L881.112 114.424C881.174 112.26 881.299 110.095 881.487 107.785C881.674 106.745 881.82 105.683 881.966 104.622Z" fill="white"/>
<path d="M883.906 155.614L883.906 170.036L881.011 170.036L881.011 155.614L881.011 141.17L883.906 141.17L883.906 155.614Z" fill="white"/>
<path d="M881.013 196.504L883.908 196.504L883.908 222.976L881.013 222.976L881.013 196.504Z" fill="white"/>
<path d="M883.904 263.847L883.904 278.29L881.009 278.29L881.009 263.847L881.009 249.404L883.904 249.404L883.904 263.847Z" fill="white"/>
<path d="M881.008 304.722L883.904 304.722C883.904 306.699 883.904 308.656 883.904 310.612L883.945 327.011L883.945 331.194L881.05 331.194L881.05 327.011L881.029 310.612C881.029 308.656 881.029 306.678 881.029 304.722L881.008 304.722Z" fill="white"/>
<path d="M869.893 384.033L867.539 382.369C870.247 378.56 872.601 374.481 874.518 370.235C876.476 365.886 877.997 361.432 879.018 356.999L881.83 357.644C880.768 362.265 879.184 366.906 877.143 371.422L875.83 370.839L877.143 371.442C875.143 375.855 872.706 380.1 869.893 384.054L869.893 384.033Z" fill="white"/>
<path d="M830.639 412.525L826.41 413.607L825.702 410.819L829.806 409.779L832.181 408.926C838.514 406.949 844.43 403.453 849.367 400.311L850.93 402.745C845.826 405.992 839.722 409.591 833.118 411.672L830.681 412.567L830.639 412.525Z" fill="white"/>
<path d="M771.313 415.898L771.313 413.006L785.77 413.006L800.207 413.006L800.207 415.898L785.77 415.898L771.313 415.898Z" fill="white"/>
<path d="M718.334 413.002L744.832 413.002L744.832 415.895L718.334 415.895L718.334 413.002Z" fill="white"/>
<path d="M662.961 415.896L662.961 413.004L677.398 413.004L691.855 413.004L691.855 415.896L677.398 415.896L662.961 415.896Z" fill="white"/>
<path d="M609.982 413.001L636.48 413.001L636.48 415.893L609.982 415.893L609.982 413.001Z" fill="white"/>
<path d="M576.358 408.404L577.566 408.841C579.42 409.611 581.337 410.09 583.378 410.589L584.232 410.797L583.524 413.606L582.691 413.398C580.649 412.878 578.524 412.358 576.545 411.525L575.4 411.109C573.546 410.443 571.608 409.736 569.796 408.779L568.608 408.217C566.838 407.385 565.004 406.511 563.359 405.408L562.213 404.721C560.525 403.722 558.796 402.661 557.213 401.371L559.046 399.124C560.484 400.289 562.046 401.225 563.713 402.224L564.921 402.952C566.463 403.972 568.108 404.763 569.858 405.595L571.067 406.178L570.442 407.468L571.129 406.198C572.796 407.093 574.545 407.717 576.42 408.383L576.358 408.404Z" fill="white"/>
<path d="M541.182 380.727L538.765 382.309C533.703 374.546 530.099 366.263 528.057 357.689L530.87 357.023C532.828 365.264 536.307 373.256 541.182 380.727Z" fill="white"/>
<path d="M525.036 310.382L524.974 310.028C524.89 309.591 524.828 309.154 524.765 308.696C524.661 307.968 524.557 307.24 524.391 306.532L523.474 302.994L526.286 302.266L527.203 305.824C527.39 306.636 527.515 307.448 527.62 308.259L527.87 309.883C528.224 312.151 528.599 314.482 528.64 316.875C528.911 320.58 528.89 324.284 528.89 327.843L528.89 331.443L525.995 331.443L525.995 327.843C525.995 324.326 525.995 320.684 525.745 317.083L527.203 316.979L525.745 316.979C525.724 314.794 525.37 312.63 525.016 310.341L525.036 310.382Z" fill="white"/>
<path d="M499.306 264.949C498.493 264.283 497.639 263.638 496.785 263.014L495.347 261.932C494.972 261.64 494.618 261.37 494.243 261.078L495.952 258.748C496.347 259.039 496.743 259.33 497.118 259.642L498.514 260.683C499.41 261.349 500.306 262.015 501.18 262.743C506.868 267.676 511.367 272.587 514.93 277.728L512.555 279.372C509.118 274.419 504.784 269.694 499.326 264.949L499.306 264.949Z" fill="white"/>
<path d="M460.183 245.324L467.537 246.469L471.078 247.384L470.37 250.173L466.974 249.299L459.808 248.196C459.058 248.113 458.308 248.071 457.558 248.05L456.246 247.988C452.829 247.738 449.392 247.759 446.038 247.759C444.642 247.759 443.246 247.759 441.83 247.759L441.83 244.866C443.246 244.866 444.642 244.866 446.017 244.866C449.413 244.866 452.913 244.846 456.433 245.095L457.662 245.158C458.496 245.199 459.308 245.22 460.183 245.345L460.183 245.324Z" fill="white"/>
<path d="M388.857 244.844L415.355 244.865L415.355 247.757L395.502 247.757L388.857 247.736L388.857 244.844Z" fill="white"/>
<path d="M346.918 236.917C345.584 236.126 344.251 235.315 342.918 234.399C342.251 233.879 341.585 233.4 340.897 232.901C339.647 231.964 338.376 231.049 337.168 230.029L339.022 227.803C340.189 228.76 341.397 229.655 342.605 230.549C343.293 231.049 343.98 231.569 344.605 232.048C345.834 232.88 347.126 233.65 348.397 234.42C349.126 234.857 349.876 235.294 350.584 235.752C351.896 236.459 353.23 237.104 354.584 237.749C355.375 238.124 356.146 238.498 356.855 238.831C358.229 239.414 359.646 239.934 361.063 240.434C361.875 240.725 362.688 241.016 363.5 241.328L362.479 244.033C361.688 243.742 360.896 243.451 360.104 243.159C358.625 242.639 357.167 242.098 355.667 241.453C354.917 241.079 354.146 240.725 353.376 240.35C351.959 239.684 350.563 239.019 349.188 238.269L349.876 237L349.105 238.228C348.376 237.77 347.647 237.333 346.918 236.896L346.918 236.917Z" fill="white"/>
<path d="M322.669 208.177L320.169 209.634C315.752 202.017 312.732 193.505 311.232 184.306L314.086 183.827C315.544 192.672 318.44 200.851 322.689 208.177L322.669 208.177Z" fill="white"/>
<path d="M308.376 145.95C308.939 147.428 309.522 148.968 309.939 150.612C310.126 151.424 310.355 152.235 310.564 153.047C310.98 154.587 311.397 156.169 311.668 157.792L308.814 158.25C308.564 156.772 308.189 155.316 307.772 153.796C307.543 152.964 307.314 152.111 307.127 151.299C306.752 149.842 306.231 148.448 305.668 146.97C305.377 146.179 305.064 145.388 304.793 144.598C303.002 140.165 300.773 135.919 298.21 131.923L300.648 130.363C303.314 134.504 305.606 138.916 307.481 143.515L306.147 144.057L307.522 143.599C307.793 144.39 308.085 145.18 308.397 145.95L308.376 145.95Z" fill="white"/>
<path d="M258.173 98.5017C267.089 101.165 275.151 105.244 282.15 110.612L280.38 112.901C273.651 107.741 265.901 103.829 257.339 101.269L258.173 98.5017Z" fill="white"/>
<path d="M216.695 125.432L234.569 125.432C235.486 125.432 236.382 125.432 236.694 125.494C237.84 125.578 238.965 125.619 240.111 125.661L240.882 125.702C246.465 126.306 251.881 127.909 256.943 130.468C267.005 135.505 275.171 144.37 279.358 154.797C281.546 160.125 282.65 165.661 282.671 171.197L283.087 179.459C283.15 182.081 283.567 184.766 283.962 187.367L284.358 189.968C284.525 191.072 284.691 192.154 284.9 193.194L287.233 202.268C287.525 203.288 287.9 204.266 288.254 205.265L288.754 206.659C297.045 230.093 314.21 250.343 335.855 262.205C346.646 268.157 358.812 272.236 371.04 273.964L372.395 274.172C373.478 274.338 374.561 274.505 375.603 274.609L384.956 275.088C385.665 275.129 386.123 275.129 386.56 275.108L445.39 275.108C449.14 275.108 452.994 275.108 454.66 275.296C466.035 275.962 476.742 280.728 484.804 288.74C492.887 296.815 497.7 307.491 498.408 318.854L498.554 321.289C498.554 321.518 498.595 321.747 498.595 322.122L498.595 337.335L498.824 345.514C499.429 357.855 502.345 370.321 507.261 381.58C516.99 404.161 535.572 423.12 558.217 433.609C569.362 438.791 581.778 442.017 594.069 442.912L598.756 443.141C600.298 443.203 601.943 443.286 602.902 443.266L799.286 443.266C800.557 443.266 801.723 443.266 802.911 443.266C806.119 443.266 809.431 443.286 814.535 442.974C826.888 442.225 839.325 439.166 850.533 434.129C873.177 424.077 891.968 405.326 902.071 382.704C907.133 371.528 910.217 359.083 910.967 346.763L911.217 341.331C911.217 340.811 911.258 340.269 911.258 339.936L911.258 117.628C911.258 116.67 911.258 115.692 911.3 115.401L911.529 111.114C911.779 109.782 911.987 108.45 912.154 107.035C914.362 96.0669 920.758 85.8485 929.716 79.0431C934.215 75.6092 939.236 73.0286 944.715 71.3637C945.59 71.1764 946.444 70.9474 947.319 70.7185L948.798 70.3439C950.152 70.1774 951.485 69.9693 952.964 69.7195L957.464 69.4698C957.693 69.4698 957.922 69.4282 958.318 69.4282L1066.71 69.4282C1068.52 69.4282 1070.25 69.4282 1070.92 69.5322C1082.16 69.6779 1093.02 74.1524 1101.5 82.1024C1109.83 89.8859 1115.02 100.396 1116.14 111.78C1116.16 113.153 1116.25 114.506 1116.35 115.963L1116.35 163.184L1116.37 190.322C1116.41 202.622 1118.77 215.192 1123.18 226.722C1131.97 249.823 1149.58 269.656 1171.53 281.165C1182.45 286.95 1194.7 290.759 1206.95 292.174C1213.05 292.902 1220.43 293.027 1223.84 292.986L1400 292.986L1400 295.15L1223.95 295.15C1223.57 295.15 1223.14 295.15 1222.66 295.15C1218.84 295.15 1212.3 294.984 1206.78 294.318C1194.26 292.882 1181.74 288.99 1170.6 283.079C1148.2 271.342 1130.2 251.071 1121.22 227.492C1116.73 215.733 1114.31 202.893 1114.27 190.343L1114.27 163.205L1114.25 116.067C1114.14 114.652 1114.06 113.257 1114.04 111.925C1112.98 101.124 1108.02 91.1138 1100.08 83.6841C1092 76.0879 1081.66 71.8423 1070.81 71.6758C1070.17 71.5718 1068.35 71.5718 1066.77 71.5926L958.36 71.5926C958.047 71.5926 957.88 71.5926 957.693 71.6342L953.256 71.8839C951.881 72.1337 950.506 72.3418 949.256 72.4875L947.923 72.8413C947.027 73.0702 946.131 73.3199 945.319 73.5072C940.152 75.0681 935.361 77.5239 931.07 80.8121C922.508 87.3053 916.404 97.0451 914.321 107.43C914.154 108.824 913.946 110.198 913.696 111.426L913.466 115.692C913.425 116.046 913.425 116.878 913.425 117.69L913.425 340.02C913.425 340.373 913.425 340.956 913.383 341.518L913.133 346.971C912.362 359.562 909.217 372.257 904.05 383.682C893.718 406.783 874.531 425.93 851.408 436.19C839.971 441.33 827.263 444.452 814.639 445.222C810.535 445.472 807.577 445.513 804.91 445.513C804.223 445.513 803.535 445.513 802.869 445.513C801.681 445.513 800.515 445.513 799.265 445.513L602.902 445.513C602.777 445.513 602.631 445.513 602.464 445.513C601.464 445.513 599.985 445.451 598.61 445.388L593.902 445.16C581.299 444.244 568.633 440.956 557.258 435.649C534.135 424.951 515.178 405.576 505.241 382.517C500.22 371.029 497.241 358.292 496.637 345.68L496.429 340.956L496.429 322.205C496.429 321.914 496.387 321.726 496.366 321.539L496.22 319.042C495.554 308.22 490.95 298.022 483.263 290.343C475.555 282.684 465.347 278.126 454.473 277.523L454.535 276.44L454.41 277.523C452.869 277.335 448.911 277.356 445.411 277.356L386.602 277.356C386.123 277.356 385.644 277.356 384.894 277.314L375.457 276.836C374.332 276.732 373.207 276.565 372.103 276.399L370.749 276.211C358.27 274.442 345.834 270.28 334.834 264.203C312.731 252.091 295.212 231.404 286.733 207.492L286.233 206.118C285.858 205.078 285.483 204.037 285.15 202.955L282.796 193.777C282.567 192.653 282.4 191.529 282.212 190.406L281.817 187.804C281.4 185.14 280.983 182.393 280.921 179.646L280.525 171.384C280.504 166.056 279.442 160.791 277.359 155.713L278.254 155.338L277.359 155.692C273.38 145.744 265.588 137.295 255.985 132.487C251.152 130.052 245.985 128.512 240.736 127.95L240.048 127.95C238.882 127.888 237.715 127.846 236.465 127.742C236.153 127.7 235.361 127.7 234.611 127.7L0.0207469 127.7L0.020747 125.536L216.716 125.536L216.695 125.432Z" fill="white"/>
<path d="M202.26 98.0652L202.26 95.1728L216.697 95.1729L231.154 95.1729L231.154 98.0652L216.697 98.0652L202.26 98.0652Z" fill="white"/>
<path d="M149.261 95.1699L175.76 95.1699L175.76 98.0623L149.261 98.0623L149.261 95.1699Z" fill="white"/>
<path d="M108.346 65.6418L234.609 65.6418C235.401 65.6418 236.192 65.6418 237.484 65.7042C240.65 65.8291 243.838 65.9748 247.046 66.2245C259.712 67.5564 272.461 71.3025 283.877 77.0673C306.771 88.5553 325.374 108.763 334.895 132.53C339.728 144.434 342.353 157.421 342.519 170.074L342.79 175.381C342.769 176.234 342.894 177.088 343.061 177.982C343.123 178.378 343.207 178.773 343.248 179.127C343.29 179.418 343.332 179.731 343.373 180.022C343.415 180.376 343.457 180.73 343.519 180.979L344.498 184.829C344.602 185.162 344.727 185.495 344.852 185.828C344.957 186.099 345.061 186.369 345.165 186.64C348.644 196.525 355.831 205.017 364.893 209.949L364.351 210.948L364.893 209.97C369.455 212.467 374.392 214.111 379.559 214.84C379.85 214.881 380.142 214.923 380.434 214.985C380.788 215.048 381.142 215.11 381.413 215.152L385.558 215.36C385.746 215.381 386.162 215.36 386.85 215.36L442.722 215.36C444.055 215.36 445.263 215.36 446.492 215.36C449.659 215.36 452.95 215.339 458.116 215.63C483.782 217.025 508.884 228.242 527.008 246.39C545.257 264.434 556.59 289.47 558.111 315.068L558.34 319.834L558.423 338.481C558.423 339.23 558.423 340 558.423 340.5L558.548 342.518C558.798 347.784 559.985 352.841 562.027 357.607C566.006 367.034 573.797 374.964 583.422 379.396C588.13 381.582 593.15 382.872 598.358 383.267L600.816 383.392C601.316 383.434 601.837 383.475 602.837 383.455L801.367 383.455C805.054 383.455 809.262 383.455 810.846 383.288C816.095 382.976 821.157 381.727 825.886 379.625C835.427 375.463 843.302 367.596 847.489 358.065L848.468 358.481L847.51 358.044C849.635 353.32 850.885 348.262 851.197 343.039L851.343 340.625C851.343 340.458 851.385 340.292 851.364 339.938L851.364 117.546C851.364 116.713 851.364 115.86 851.427 114.507C851.572 111.323 851.697 108.16 851.968 104.934C852.406 101.771 852.885 98.6281 853.406 95.4439C858.364 70.3244 872.925 47.0155 893.362 31.5109C903.632 23.6442 915.131 17.7753 927.568 14.0501L927.901 13.9668C930.88 13.176 933.88 12.3851 936.942 11.6984C940.088 11.1781 943.254 10.6994 946.442 10.2416C948.962 9.99182 951.546 9.86695 954.025 9.76289L1017.54 9.5964L1066.87 9.59641C1068.43 9.59641 1070.06 9.59641 1072.6 9.72128C1098.12 10.1791 1123.56 20.6473 1142.37 38.4204C1161.16 55.8813 1173.3 80.5221 1175.68 106.079C1175.89 109.242 1176.03 112.426 1176.16 115.631L1176.16 163.144L1176.18 190.116C1176.22 195.318 1177.18 200.438 1179.05 205.35C1182.72 215.027 1190.11 223.352 1199.32 228.201L1198.82 229.158L1199.32 228.222C1203.93 230.698 1208.88 232.238 1214.11 232.8C1216.88 233.195 1224.11 233.175 1231.07 233.175C1233.22 233.175 1235.34 233.175 1237.34 233.175L1400 233.175L1400 235.339L1237.47 235.339C1236.65 235.339 1235.82 235.339 1234.99 235.339C1232.45 235.339 1229.78 235.339 1227.26 235.339C1221.45 235.339 1216.34 235.297 1213.97 234.944C1208.51 234.361 1203.28 232.738 1198.45 230.136C1188.76 225.058 1181.01 216.317 1177.16 206.14C1175.2 200.979 1174.18 195.61 1174.14 190.136L1174.14 163.165L1174.12 115.714C1173.99 112.551 1173.84 109.409 1173.64 106.287C1171.3 81.2713 1159.41 57.1299 1140.99 40.0437L1141.72 39.2528L1140.99 40.0229C1122.58 22.6244 1097.66 12.3852 1072.64 11.9273C1070.12 11.8024 1068.52 11.8024 1067 11.8024L960.087 11.8024L954.212 11.9689C951.754 12.073 949.212 12.1978 946.796 12.4268C943.65 12.8638 940.505 13.3425 937.442 13.8628C934.463 14.5287 931.505 15.3196 928.547 16.0896L928.234 16.1728C916.089 19.8149 904.84 25.5588 894.757 33.2591C874.738 48.4515 860.468 71.2818 855.635 95.8602C855.114 98.9819 854.635 102.124 854.218 105.205C853.968 108.347 853.822 111.49 853.697 114.653C853.635 115.964 853.635 116.776 853.635 117.587L853.635 339.979C853.635 340.458 853.635 340.687 853.593 340.895L853.447 343.226C853.093 348.72 851.801 354.027 849.572 358.98C845.156 369.012 836.865 377.274 826.845 381.644C821.887 383.871 816.574 385.161 811.116 385.494C809.741 385.661 806.7 385.682 803.45 385.682C802.784 385.682 802.096 385.682 801.429 385.682L785.743 385.682L677.395 385.682L602.92 385.682C602.733 385.682 602.566 385.682 602.4 385.682C601.629 385.682 601.15 385.64 600.691 385.619L598.254 385.494C592.754 385.078 587.463 383.704 582.526 381.415C572.422 376.753 564.235 368.408 560.048 358.502C557.902 353.528 556.652 348.2 556.382 342.685L556.257 340.666C556.236 340.125 556.236 339.313 556.257 338.502L556.257 323.85L555.944 315.193C554.444 290.115 543.341 265.62 525.467 247.93C507.739 230.157 483.136 219.168 457.991 217.795C452.888 217.483 449.638 217.504 446.513 217.524C445.263 217.524 444.034 217.524 442.722 217.524L386.6 217.524C386.017 217.524 385.475 217.524 385.35 217.504L381.267 217.295C380.85 217.254 380.454 217.191 380.059 217.108C379.788 217.066 379.538 217.004 379.267 216.983C373.83 216.213 368.643 214.507 363.851 211.864C354.31 206.682 346.748 197.774 343.103 187.368C343.019 187.119 342.936 186.89 342.832 186.661C342.665 186.265 342.519 185.87 342.394 185.412L341.394 181.52C341.311 181.125 341.269 180.73 341.207 180.334C341.165 180.064 341.144 179.793 341.082 179.481C341.04 179.106 340.978 178.752 340.915 178.378C340.749 177.4 340.582 176.401 340.624 175.423L340.353 170.157C340.207 157.754 337.624 145.017 332.895 133.383C323.562 110.116 305.334 90.3034 282.898 79.0444C271.69 73.3837 259.212 69.7208 246.837 68.4097C243.692 68.1808 240.525 68.0351 237.38 67.8894C236.13 67.827 235.38 67.827 234.609 67.827L-0.0228322 67.827L-0.022832 65.6626L108.325 65.6626L108.346 65.6418Z" fill="white"/>
<path d="M93.8938 98.0628L93.8938 95.1704L108.351 95.1704L122.809 95.1704L122.809 98.0628L108.351 98.0628L93.8938 98.0628Z" fill="white"/>
<path d="M40.9136 95.1709L67.4121 95.1709L67.4121 98.0633L40.9136 98.0633L40.9136 95.1709Z" fill="white"/>
<path d="M-0.000448227 95.1685L14.457 95.1685L14.457 98.0608L-0.00044848 98.0608L-0.000448227 95.1685Z" fill="white"/>
</g>
<defs>
<linearGradient id="paint0_linear_1579_11723" x1="44.5765" y1="611.795" x2="1400" y2="-52.9351" gradientUnits="userSpaceOnUse">
<stop stop-color="#DDE2FE"/>
<stop offset="1" stop-color="#FFF7D3"/>
</linearGradient>
<clipPath id="clip0_1579_11723">
<rect width="1400" height="455.585" fill="white" transform="matrix(-1 -8.74228e-08 -8.74228e-08 1 1400 0.437012)"/>
</clipPath>
</defs>
</svg>
