<svg width="84" height="385" viewBox="0 0 84 385" fill="none" xmlns="http://www.w3.org/2000/svg">
<g clip-path="url(#clip0_1547_11339)">
<path d="M54.5384 3.62843C55.0118 2.77765 55.5599 2.52743 56.1579 2.87774C57.2542 3.27811 58.2757 3.77856 59.1727 4.37911C60.3437 5.22988 60.2441 5.9055 58.8239 6.38093C58.7242 6.50604 58.6744 6.88138 58.6744 7.48193V28.2508C58.9485 29.7021 58.2757 30.5779 56.6811 30.8282C55.2111 31.0784 54.5135 30.4278 54.6381 28.8514C54.6381 28.1257 54.3391 27.7504 53.7411 27.7504H52.5451C51.9223 27.7504 51.5983 28.0506 51.5983 28.6512V30.9533C51.1997 32.4046 50.1532 32.9801 48.4341 32.6298C47.6866 32.2795 47.3876 31.5788 47.562 30.5029V4.30404C47.562 3.55336 47.6119 3.15299 47.7115 3.12797C48.3095 3.17802 49.2563 3.50331 50.5768 4.07884C51.1 4.45418 51.8475 4.60431 52.7943 4.50422C53.4172 4.50422 53.9903 4.20395 54.5384 3.62843ZM52.8441 5.53016C52.0219 5.60522 51.5983 5.93052 51.5983 6.48102V14.6635C51.5983 15.289 51.8973 15.6143 52.4953 15.6143H53.6913C54.3142 15.6143 54.6381 15.3141 54.6381 14.7135V6.58111C54.6381 5.9055 54.3142 5.55518 53.6664 5.55518H52.8441V5.53016ZM54.6381 17.5911C54.6381 16.9155 54.364 16.5652 53.8158 16.5652H52.5451C51.9223 16.5652 51.5983 16.8655 51.5983 17.466V25.8236C51.5983 26.4492 51.8973 26.7745 52.4953 26.7745H53.6913C54.3142 26.7745 54.6381 26.4742 54.6381 25.8737V17.5911ZM68.0925 1.1762C68.0427 0.375469 68.4164 -0.0248947 69.1888 0.00012802C71.1322 0.100219 72.5026 0.400492 73.3248 0.900947C73.5241 1.32633 73.3248 1.67665 72.7268 1.92688C72.3282 2.02697 72.1787 2.45236 72.3032 3.17802V5.15481C72.3032 5.78038 72.4527 6.08066 72.7517 6.05563C73.0507 5.98057 73.4992 5.5802 74.0722 4.87956C74.2965 4.52925 74.5706 4.17893 74.8695 3.82861C75.4924 3.20304 75.8911 2.87774 76.0406 2.87774C77.112 3.50331 78.1584 4.35409 79.155 5.40504C79.7032 6.15572 79.9772 6.60613 79.9523 6.75627C79.8278 6.93143 79.3544 7.03152 78.5571 7.03152H73.25C72.6271 7.03152 72.3032 7.33179 72.3032 7.93234V12.3113C72.3032 12.9369 72.6022 13.2622 73.2002 13.2622H74.446C75.0689 13.2622 75.617 12.9619 76.1153 12.3864L77.0621 11.1353C77.6352 9.98421 78.3577 9.83407 79.2547 10.7099C79.9274 11.1102 80.65 11.7608 81.4473 12.6867C81.9954 13.4123 82.2446 13.8627 82.1947 14.0379C82.0452 14.188 81.5718 14.2631 80.7995 14.2631H62.2622L61.0165 14.4633C60.2192 14.5884 59.7458 14.4132 59.5714 13.8878C59.4219 13.2872 59.7956 13.012 60.6926 13.087L62.0878 13.2372H67.1457C67.7686 13.2372 68.0925 12.9369 68.0925 12.3363V7.95736C68.0925 7.33179 67.7935 7.0065 67.1955 7.0065C65.1774 6.93143 63.7323 7.0065 62.8602 7.2317C62.038 7.33179 61.5646 7.18166 61.44 6.78129L61.2407 5.9055C61.2407 5.78038 61.6643 5.75536 62.4117 5.83043C63.3834 5.98056 64.978 6.03061 67.1457 5.98057C67.7686 5.98057 68.0925 5.68029 68.0925 5.07975V1.1762ZM72.0042 16.4651C72.0042 15.6644 72.378 15.289 73.1255 15.3391C74.0224 15.4141 74.9443 15.5393 75.8413 15.6894C76.4392 15.7394 76.8877 15.9146 77.1867 16.1898C77.4608 16.6903 77.2365 17.0656 76.5389 17.2908C76.2648 17.441 76.1153 17.8413 76.1153 18.4669V19.4178C76.1153 20.0183 76.1901 20.3186 76.3147 20.2936C76.4392 20.2185 76.6136 20.0434 76.813 19.7931C77.2864 19.0424 77.9591 18.2417 78.856 17.416C79.6783 17.6912 80.6251 18.3918 81.6715 19.4929C82.3941 20.4187 82.718 20.9442 82.6183 21.0693C82.4688 21.2194 81.9954 21.2945 81.223 21.2945H77.087C76.4641 21.2945 76.1402 21.5948 76.1402 22.1953V33.0552C75.4924 35.057 74.147 36.133 72.1039 36.3081C71.3564 36.3582 70.9329 36.3582 70.8332 36.2581C70.7585 36.183 70.7336 35.9328 70.7585 35.5324C70.6837 34.6316 70.1605 33.8059 69.2137 33.1052C68.4662 32.6048 68.0925 32.2795 68.0925 32.1544C68.1423 31.804 68.5908 31.704 69.4379 31.8791H71.182C71.9046 31.804 72.1787 31.3286 72.0042 30.4778V22.1953C72.0042 21.5697 71.7053 21.2444 71.1073 21.2444H62.5612L61.3653 21.4696C60.5431 21.5447 60.0448 21.3696 59.8953 20.8941C59.7458 20.2686 60.1195 19.9933 60.9915 20.0684C61.4899 20.0934 61.9882 20.1685 62.4865 20.2686H71.0824C71.7053 20.2686 72.0292 19.9683 72.0292 19.3677V16.4651H72.0042ZM62.935 22.6707C63.0346 22.4455 63.4582 22.4956 64.2057 22.8709C65.6757 23.4965 66.9215 24.6475 67.8932 26.3241C68.5161 27.2249 68.6406 28.2508 68.2669 29.3518C67.6689 31.0283 66.5477 31.4287 64.9531 30.603C64.3053 29.9774 64.106 29.0515 64.3552 27.8004C64.5046 26.4992 64.2555 25.2481 63.6326 24.047C63.1343 23.2963 62.8851 22.8459 62.91 22.6958L62.935 22.6707Z" fill="#6B6B6B"/>
<path d="M62.6383 42.3889C62.6383 41.5381 62.9871 41.1127 63.6598 41.1378C64.507 41.1628 65.4787 41.2879 66.5501 41.5131C67.5218 41.9135 67.9952 42.1887 67.9952 42.3389C67.9453 42.514 67.746 42.7392 67.4221 42.9894C67.0484 43.2397 66.849 43.6651 66.849 44.2656V55.7761C66.849 56.4016 67.148 56.7269 67.746 56.7269H73.4766C74.2739 57.0272 74.9965 56.5768 75.6193 55.3757L76.7405 53.8743C77.3136 53.1737 78.0362 53.2738 78.9331 54.2247C80.3533 55.3257 81.3499 56.3516 81.8732 57.2524C81.8732 57.7529 81.3749 57.928 80.453 57.7529H72.1312C71.5083 57.7529 71.1844 58.0531 71.1844 58.6537V70.3143C70.985 71.3652 71.3837 71.9908 72.4301 72.166C73.0032 72.2911 73.9251 72.3411 75.2207 72.2661L76.7156 72.166C77.4382 72.1159 77.9863 72.0158 78.3351 71.8657C78.9082 71.14 79.3318 70.1641 79.6058 68.9631C79.8301 68.2124 80.0045 67.812 80.1291 67.762C80.6025 67.8871 80.8018 68.3875 80.7021 69.2383C80.6274 70.039 80.8267 70.7897 81.2752 71.5154C82.0227 71.9658 82.4961 72.3661 82.6705 72.7165C83.1937 73.8675 82.8698 74.7934 81.6988 75.444C80.3533 76.0695 78.3351 76.4198 75.719 76.4699C73.3271 76.57 71.2591 76.3698 69.515 75.8944C68.2941 75.5941 67.447 74.5932 67.0235 72.8666V58.7288C67.0235 58.1032 66.7245 57.7779 66.1265 57.7779H63.3858C62.7878 57.7779 62.4639 58.1532 62.4141 58.9039C62.4141 60.6055 62.1151 62.4822 61.6168 64.5841C61.0188 67.0613 60.072 69.0631 58.8013 70.6396C55.8862 73.9176 52.2734 75.9944 47.9879 76.8702C47.8384 76.8202 47.7637 76.7451 47.7637 76.645C47.8135 76.5199 48.2122 76.2197 48.9596 75.7692C52.5475 73.8925 54.9892 71.4904 56.3097 68.5377C57.6053 65.7601 58.2781 62.4822 58.303 58.7037C58.303 58.0782 58.004 57.7529 57.406 57.7529H50.5542L49.3583 57.953C48.561 58.0782 48.0627 57.903 47.8882 57.4276C47.7138 56.802 48.0876 56.5268 48.9845 56.6018C49.433 56.6268 49.9313 56.7019 50.4546 56.802H61.7663C62.3891 56.802 62.713 56.5017 62.713 55.9012V42.464L62.6383 42.3889ZM52.3232 45.0663C52.398 44.8912 52.8215 44.8912 53.569 45.0914C55.637 45.8921 57.3562 47.3184 58.7265 49.3702C59.3494 50.4712 59.4989 51.5472 59.1501 52.5982C58.7265 54.0745 57.705 54.625 56.1104 54.1746C55.2384 53.7492 54.8148 53.0236 54.8397 51.9726C55.064 49.5454 54.2417 47.2433 52.3481 45.0413L52.3232 45.0663ZM73.7008 45.0163C73.8503 44.1905 74.3237 43.8652 75.0961 44.0404C76.0429 44.3407 76.9648 44.716 77.8119 45.1414C78.5594 45.7169 78.9331 46.0672 78.9082 46.1673C78.7587 46.4926 78.5594 46.6428 78.3102 46.5927C78.0362 46.5927 77.7621 46.8179 77.5129 47.3184C76.2921 49.6205 74.4234 51.7975 71.9069 53.8994C71.1844 54.4248 70.7359 54.6751 70.5615 54.65C70.4618 54.5249 70.711 53.9744 71.284 52.9735C72.5298 50.5213 73.352 47.8689 73.7258 45.0413L73.7008 45.0163Z" fill="#6B6B6B"/>
<path d="M56.8329 91.083C57.3063 90.2322 57.6053 89.7818 57.7049 89.7317C58.2033 89.8819 58.2282 90.4074 57.7548 91.2832L52.9211 106.047C52.5474 108.073 52.7717 110.1 53.5939 112.127C54.0673 113.804 53.9676 115.305 53.2451 116.656C52.7966 117.357 52.0989 117.707 51.1771 117.707C50.5043 117.657 49.9313 117.257 49.4828 116.506C49.0343 115.455 48.9346 114.254 49.1838 112.903C49.4828 111.677 49.6074 110.35 49.5326 108.924C49.707 108.199 49.2835 107.473 48.2868 106.772C47.6889 106.422 47.0909 106.122 46.468 105.871C46.3683 105.696 46.3933 105.546 46.5427 105.446C47.9629 105.521 49.0094 105.446 49.6572 105.246C49.9562 104.82 50.2053 104.37 50.4047 103.92L56.808 91.058L56.8329 91.083ZM46.7421 89.9069C46.767 89.7317 47.2902 89.7318 48.2868 89.957C49.4828 90.3323 50.5043 90.8328 51.3016 91.4333C53.0457 93.0097 53.6686 94.5111 53.1952 95.9374C52.6471 97.5639 51.5508 98.0143 49.9064 97.2886C49.2835 96.7381 48.9596 95.9874 48.9346 95.0616C48.9845 93.8605 48.5858 92.5843 47.7387 91.2832C47.0909 90.5325 46.767 90.0821 46.767 89.9319L46.7421 89.9069ZM50.0808 81.7995C50.1306 81.5994 50.5292 81.5243 51.2767 81.5994C53.6188 81.9997 55.3629 83.1257 56.509 84.9774C56.9326 86.0534 56.7831 87.1044 56.0107 88.1053C55.5373 88.6057 54.9144 88.8059 54.1171 88.7058C53.0208 88.4055 52.4228 87.5548 52.3481 86.1785C52.2484 84.9774 51.7999 83.8764 51.0276 82.8755C50.3798 82.2249 50.0559 81.8496 50.0559 81.7745L50.0808 81.7995ZM59.4241 100.992C59.4241 100.216 59.8228 99.8159 60.5952 99.8159L63.2611 100.116C64.0335 100.416 64.4571 100.642 64.5069 100.792C64.5318 100.967 64.3823 101.192 64.0584 101.442C63.4854 101.542 63.2611 102.018 63.4106 102.844C63.3857 106.522 62.9123 109.65 62.0154 112.227C60.645 115.23 58.4026 117.032 55.338 117.632C54.5905 117.732 54.1918 117.732 54.142 117.582C54.142 117.457 54.5656 117.132 55.338 116.606C56.1353 115.906 56.8578 115.055 57.4807 114.079C58.278 112.678 58.8262 110.651 59.1501 108.023C59.3245 106.547 59.4241 104.195 59.4241 100.992ZM67.0732 82.9506C67.0732 82.1749 67.422 81.7995 68.1944 81.8246C69.3156 81.8996 70.5116 82.0998 71.7324 82.4001C72.3055 82.5502 72.5048 82.8755 72.3055 83.351C72.1311 83.5511 71.9069 83.7013 71.6577 83.7763C71.4085 83.8764 71.284 84.2768 71.284 84.9524V86.6289C71.284 87.2545 71.583 87.5798 72.1809 87.5798H75.0711C75.694 87.5798 76.2422 87.2795 76.7405 86.679L77.463 85.8032C77.9614 84.8023 78.5095 84.4519 79.1324 84.7522C80.0543 85.3277 80.9512 86.1035 81.7984 87.1044C82.3465 87.8801 82.5458 88.3305 82.3963 88.4556C82.2219 88.5557 81.7485 88.6057 81.0011 88.6057H71.1594C70.5614 88.6057 70.0631 88.9811 69.6395 89.7317C68.9419 91.108 67.9453 92.5093 66.6746 93.8855C66.0517 94.5611 66.1015 94.9115 66.8739 94.9115L74.3735 94.4861C75.0462 94.411 75.1957 94.0857 74.7971 93.5352C74.4482 93.1098 74.0247 92.6594 73.5513 92.209C72.8786 91.9087 72.6045 91.5584 72.7291 91.158C72.8786 91.108 73.327 91.2081 74.0745 91.4583C76.2671 92.184 78.1358 93.2349 79.7304 94.5611C81.6489 96.2126 81.6987 97.9642 79.9297 99.8159C78.6839 100.467 77.762 100.041 77.2139 98.4897C77.0893 97.8391 76.8651 97.1385 76.5412 96.3628C76.2422 95.7622 75.7189 95.512 74.9715 95.6371C69.8139 96.7882 64.9305 97.7641 60.2713 98.5398C59.9972 98.6399 59.748 98.815 59.5487 99.0402C59.3743 99.4906 59.1002 99.5907 58.7514 99.3405C58.0289 98.1644 57.6053 96.6881 57.4807 94.9115C57.5804 94.8114 58.0538 94.7863 58.876 94.8364C60.1965 94.9115 61.542 94.9365 62.8625 94.9115C63.4605 94.9115 63.9339 94.5361 64.3076 93.7854C64.8059 92.5593 65.2046 91.158 65.5035 89.6317C65.653 88.931 65.4537 88.5807 64.9056 88.5807H60.645L59.3992 88.8059C58.577 88.906 58.1036 88.7559 58.0039 88.3055L57.7797 87.4297C57.7797 87.4297 58.2282 87.3045 58.9756 87.3796C59.474 87.3796 59.9723 87.4297 60.4706 87.5297H66.1264C66.7493 87.5297 67.0732 87.2295 67.0732 86.6289V82.9506ZM65.4537 101.092C65.4537 100.291 65.8274 99.916 66.55 99.9661C67.3722 100.041 68.2443 100.166 69.1412 100.341C69.6395 100.467 69.9884 100.592 70.1877 100.692C70.6362 101.267 70.4618 101.718 69.6146 102.018C69.3655 102.118 69.2409 102.518 69.2409 103.194V115.005C69.3904 116.956 68.4934 117.732 66.5749 117.357C65.5534 117.032 65.1796 116.306 65.4537 115.155V101.117V101.092ZM71.7075 101.067C71.7075 100.241 72.0813 99.8409 72.8786 99.866C73.8004 99.866 74.7472 100.016 75.6691 100.216C76.6907 100.441 76.89 100.867 76.2422 101.492C75.8934 101.943 75.7189 102.443 75.7189 103.019V112.202C75.4698 113.378 75.8684 113.904 76.9149 113.779C77.762 113.879 78.4347 113.428 78.9081 112.427C79.1822 111.927 79.4065 111.426 79.5809 110.926C79.9795 109.925 80.2536 109.4 80.4031 109.375C80.9263 109.425 81.0509 109.9 80.7768 110.776V112.127C80.7768 112.778 81.1007 113.303 81.7984 113.679C82.7202 114.98 82.496 116.106 81.1256 117.057C79.2321 117.707 76.9149 117.857 74.1243 117.507C72.5297 117.032 71.7075 115.881 71.7075 114.104V101.092V101.067Z" fill="#6B6B6B"/>
<path d="M52.1714 122.862C52.1714 122.061 52.5452 121.686 53.2926 121.736C54.1149 121.836 54.9869 121.986 55.8839 122.161C56.5068 122.286 56.9054 122.537 57.0549 122.887C57.1047 123.262 56.8556 123.563 56.3324 123.763C55.859 123.938 55.6845 124.363 55.834 125.039V126.24C55.6596 126.991 55.834 127.291 56.4071 127.141C56.5317 127.091 56.7808 126.816 57.1297 126.315L58.3754 124.614C58.6993 124.438 59.1478 124.689 59.696 125.339C60.568 126.215 61.0912 127.016 61.2656 127.716C61.2656 127.867 61.166 127.992 61.0663 128.092C59.6212 128.167 58.201 128.192 56.7808 128.167C56.1579 128.167 55.834 128.467 55.834 129.068V131.52C55.834 132.145 55.9586 132.471 56.2576 132.471C56.6313 132.571 57.1795 132.17 57.8771 131.27C58.0017 131.22 58.4502 131.32 59.1976 131.57C59.9202 131.92 60.5431 132.296 61.0912 132.671C61.7141 132.971 62.0131 133.347 61.9633 133.772C61.6394 134.097 61.3155 134.372 60.9916 134.598C60.9417 134.698 60.9168 135.048 60.9168 135.649V144.432C61.1411 145.382 60.867 146.108 60.0946 146.584C59.8704 146.659 60.1195 147.084 60.8919 147.86L61.4899 148.61C62.0131 149.511 62.2374 150.037 62.1377 150.162C62.0131 150.312 61.5646 150.387 60.8172 150.387H56.8307C56.2078 150.387 55.8839 150.687 55.8839 151.288V157.669C55.4105 158.845 54.5384 159.245 53.2428 158.845C52.296 158.594 51.9472 157.894 52.1964 156.718V151.313C52.1964 150.687 51.8974 150.362 51.2994 150.362C50.0038 150.312 48.9075 150.362 48.0105 150.562C47.1883 150.662 46.7149 150.487 46.5903 150.037C46.4658 149.436 46.8395 149.161 47.6866 149.211C48.7082 149.411 49.9041 149.486 51.2745 149.411C51.8974 149.411 52.2213 149.111 52.2213 148.51V145.282C52.2213 144.657 51.997 144.332 51.5486 144.332C51.0752 144.332 50.826 144.632 50.826 145.232C50.9007 146.308 50.2779 146.959 48.9324 147.134C48.3095 147.309 47.7365 147.134 47.1883 146.634C47.1385 146.483 47.1136 146.033 47.1136 145.282V132.22C47.1136 131.42 47.4873 131.094 48.2348 131.245C48.8078 131.395 49.4307 131.645 50.0785 131.97C50.6765 132.296 51.1499 132.471 51.4987 132.471C51.9472 132.471 52.1714 132.17 52.1714 131.57V129.118C52.1714 128.492 51.8725 128.167 51.2745 128.167C49.9789 128.092 48.8327 128.167 47.8361 128.392C47.0887 128.442 46.6402 128.242 46.5156 127.791C46.391 127.241 46.7648 126.966 47.6119 126.991C48.6085 127.191 49.8294 127.266 51.2246 127.191C51.8475 127.191 52.1714 126.891 52.1714 126.29V122.887V122.862ZM51.8974 133.447C51.1499 133.522 50.7762 133.597 50.7762 133.672V137.125C50.7762 137.751 51.0004 138.076 51.4489 138.076C51.8974 138.076 52.1714 137.776 52.1714 137.175V134.422C52.1714 133.822 52.0718 133.497 51.8974 133.472V133.447ZM52.1714 140.028C52.1714 139.377 51.9472 139.052 51.5236 139.052C51.0253 139.052 50.7762 139.352 50.7762 139.953V142.38C50.7762 143.005 51.0004 143.331 51.4489 143.331C51.8974 143.331 52.1714 143.03 52.1714 142.43V140.053V140.028ZM57.1795 134.422C57.1795 133.722 56.9552 133.397 56.5317 133.447C56.0832 133.447 55.859 133.747 55.859 134.347V137.1C55.859 137.726 56.0583 138.051 56.5068 138.051C56.9552 138.051 57.1795 137.751 57.1795 137.15V134.422ZM57.1795 140.028C57.1795 139.377 56.9802 139.052 56.5815 139.052C56.1081 139.052 55.859 139.352 55.859 139.953V142.38C55.859 143.005 56.0583 143.331 56.5068 143.331C56.9552 143.331 57.1795 143.03 57.1795 142.43V140.053V140.028ZM57.1795 145.132C57.1795 144.607 56.9802 144.332 56.5815 144.332C56.1081 144.332 55.859 144.632 55.859 145.232V148.46C55.859 149.086 56.0334 149.411 56.3573 149.411C56.9802 149.586 57.5283 149.111 57.9768 148.01C58.5249 147.284 58.6744 146.909 58.4003 146.884C57.5034 146.809 57.1047 146.233 57.2044 145.132H57.1795ZM69.8615 122.737C69.8615 122.061 70.2602 121.711 71.0575 121.711C72.2036 121.836 73.2251 122.011 74.0723 122.236C74.4211 122.286 74.6703 122.487 74.8197 122.837C74.8197 123.162 74.5706 123.387 74.147 123.513C73.8979 123.613 73.7733 124.063 73.7733 124.839C73.7733 125.665 74.1719 126.09 74.9692 126.09C75.7665 126.09 76.215 126.09 76.3147 126.015C76.6386 125.79 77.0123 125.364 77.4359 124.739C77.8345 124.213 78.283 123.688 78.7564 123.162C79.0554 122.987 79.5288 123.162 80.1517 123.738C81.547 124.864 82.4688 125.815 82.8924 126.54C82.8924 126.69 82.8924 126.841 82.7678 126.966C82.6183 127.066 82.1699 127.116 81.4224 127.116H74.6702C74.0474 127.116 73.7235 127.416 73.7235 128.017V129.268C73.7235 129.893 74.0224 130.219 74.6204 130.219H75.5921C76.1901 130.219 76.6884 129.968 77.0622 129.493C77.5355 129.068 78.1584 128.993 78.9059 129.268C80.4507 129.993 81.4722 130.694 81.9456 131.345C81.846 131.72 81.5968 131.97 81.1981 132.07C80.7497 132.346 80.6002 132.821 80.7497 133.497V138.651C80.8992 139.402 80.7497 140.028 80.3012 140.503C80.0022 140.778 80.0271 141.079 80.3759 141.404C80.9739 142.079 81.248 142.805 81.1732 143.606C81.1732 144.006 80.8742 144.357 80.3759 144.657C79.2298 145.107 78.3827 144.657 77.8595 143.306C77.4857 142.78 76.8877 142.63 76.0406 142.88C72.4528 143.931 69.0144 144.857 65.7505 145.633C65.2521 145.783 64.8286 145.983 64.5047 146.233C64.2804 146.534 64.0811 146.684 63.9316 146.659C63.7572 146.584 63.5081 146.158 63.2091 145.407C62.8353 144.432 62.5613 143.481 62.4118 142.605C62.4865 142.48 62.9101 142.405 63.6575 142.405C65.3269 142.405 67.071 142.405 68.8151 142.28C69.438 142.28 69.7619 141.979 69.7619 141.379V139.677C69.7619 139.052 69.4629 138.726 68.8649 138.726H67.8185C67.1956 138.726 66.8717 138.902 66.8717 139.227C67.0212 140.328 66.4232 141.003 65.0528 141.204C63.3586 141.504 62.6858 140.903 63.0097 139.377V129.968C63.0097 129.168 63.4084 128.867 64.1808 129.068C64.7787 129.243 65.3767 129.468 65.9996 129.743C66.5727 130.194 67.5195 130.344 68.8151 130.194C69.438 130.194 69.7619 129.893 69.7619 129.293V128.042C69.7619 127.416 69.4629 127.091 68.8649 127.091H64.6791L63.4831 127.291C62.6858 127.441 62.1626 127.166 61.9384 126.415L61.8138 125.965C61.8138 125.965 62.2623 125.865 63.0097 125.94C63.4831 125.94 64.0064 126.04 64.5545 126.14H68.8151C69.438 126.14 69.7619 125.84 69.7619 125.239V122.787L69.8615 122.737ZM73.2251 144.582C73.2251 144.582 73.6736 144.407 74.3962 144.482L76.9874 144.857C77.5605 144.932 77.9342 145.182 78.1086 145.583C78.0588 145.958 77.7598 146.233 77.2116 146.408C77.112 146.534 77.0622 146.834 77.0622 147.309C77.0622 147.785 77.1618 148.035 77.3611 148.06C77.7349 148.135 78.0837 147.86 78.3827 147.234L79.4291 145.733C79.9025 145.007 80.5254 145.132 81.3227 146.158C82.12 146.934 82.6931 147.71 83.017 148.51C82.9422 149.086 82.4688 149.286 81.5719 149.086H77.984C77.3611 149.086 77.0372 149.386 77.0372 149.987V155.742C76.4143 157.794 74.9443 158.87 72.6272 159.045C71.8797 159.22 71.5807 158.945 71.7302 158.219C71.5807 157.418 71.0824 156.718 70.2353 156.142L68.84 155.392C68.7652 155.266 68.7652 155.141 68.8649 155.041C68.9895 154.916 69.438 154.866 70.1854 154.891H72.0292C73.0009 154.891 73.3746 154.316 73.1504 153.265V150.037C73.1504 149.411 72.8514 149.086 72.2534 149.086H65.1774L63.9316 149.286C63.1094 149.411 62.636 149.286 62.5114 148.861L62.3121 147.985C62.3121 147.985 62.7606 147.86 63.5081 147.91C64.0064 147.91 64.5545 148.01 65.1276 148.11H72.2036C72.8265 148.11 73.1504 147.81 73.1504 147.209C73.1504 146.358 73.1504 145.483 73.2002 144.632L73.2251 144.582ZM63.7323 150.162C63.832 150.012 64.2555 150.012 65.003 150.162C67.5693 150.862 68.6656 152.289 68.3168 154.391C67.7935 155.492 67.0212 155.867 66.0245 155.492C65.003 155.116 64.5794 154.291 64.7787 152.989C64.6791 152.289 64.3303 151.338 63.7323 150.162ZM68.0925 131.17C67.3451 131.27 66.9713 131.62 66.9713 132.22V133.021C66.9713 133.647 67.2703 133.972 67.8683 133.972H68.9147C69.5376 133.972 69.8615 133.672 69.8615 133.071V132.12C69.8615 131.495 69.5625 131.17 68.9646 131.17H68.0925ZM69.8615 135.899C69.8615 135.273 69.5625 134.948 68.9646 134.948H67.9181C67.2952 134.948 66.9713 135.248 66.9713 135.849V136.75C66.9713 137.375 67.2703 137.7 67.8683 137.7H68.9147C69.5376 137.7 69.8615 137.4 69.8615 136.8V135.899ZM76.9874 132.195C76.9874 131.47 76.5888 131.119 75.8164 131.17H74.7201C74.0972 131.17 73.7733 131.47 73.7733 132.07V133.021C73.7733 133.647 74.0723 133.972 74.6702 133.972H76.0157C76.6386 133.972 76.9625 133.672 76.9625 133.071V132.195H76.9874ZM76.9874 135.899C76.9874 135.273 76.6884 134.948 76.0904 134.948H74.745C74.1221 134.948 73.7982 135.248 73.7982 135.849V136.75C73.7982 137.375 74.0972 137.7 74.6952 137.7H76.0406C76.6635 137.7 76.9874 137.4 76.9874 136.8V135.899ZM76.9874 139.427C76.9874 138.977 76.6884 138.751 76.0904 138.751H74.745C74.1221 138.751 73.7982 139.052 73.7982 139.652V141.054C73.7982 141.654 74.1719 141.929 74.9194 141.879C75.1686 141.804 75.4676 141.779 75.7915 141.779C76.3894 141.704 76.3645 141.379 75.6918 140.828C75.4177 140.678 75.2184 140.528 75.1187 140.403C75.0938 140.228 75.4177 140.103 76.0655 140.028C76.6884 140.028 77.0123 139.827 77.0123 139.427H76.9874Z" fill="#6B6B6B"/>
<path d="M11.7841 94.2604C11.51 93.4347 11.4602 92.9843 11.6844 92.9342C12.681 92.9843 13.6527 93.3096 14.5746 93.8851C15.945 94.886 16.244 96.1121 15.4467 97.5635C15.2723 97.8387 15.4716 97.9888 16.0945 97.9888H19.9315C20.5295 97.9888 20.953 97.6135 21.2022 96.8628C21.4015 96.0871 21.551 95.3114 21.6507 94.5107C21.7005 93.6849 22.1241 93.3096 22.8964 93.4097C23.7436 93.5848 24.6156 93.81 25.4628 94.0603C26.2102 94.4606 26.6089 94.7359 26.6338 94.861C26.6338 95.2363 26.4345 95.4615 25.986 95.5366C25.687 95.6367 25.4378 95.7868 25.2385 95.962C24.8399 96.3874 24.4163 96.7627 23.9927 97.088C23.32 97.5885 23.021 97.8637 23.0958 97.9138C24.491 97.9888 25.9362 98.0139 27.4311 97.9888C28.054 97.9888 28.652 97.6135 29.2499 96.8878L30.0721 95.8369C30.7698 95.1112 31.2432 94.7609 31.4674 94.7859C32.5139 95.3865 33.5354 96.1872 34.4822 97.2131C35.2048 98.1139 35.5287 98.6394 35.4539 98.7645C35.3293 98.9147 34.8809 98.9898 34.1085 98.9898H4.20973L3.01378 99.215C2.21648 99.3401 1.71816 99.1399 1.54375 98.6394C1.39426 98.0139 1.76799 97.7386 2.66496 97.8137C3.11344 97.8137 3.61175 97.9138 4.13498 98.0139H11.7841C12.3821 98.0139 12.6063 97.8887 12.4319 97.6385C12.0831 97.2131 11.9336 96.6877 11.9834 96.0621C12.0581 95.4365 11.9834 94.861 11.7841 94.3105V94.2604ZM16.3935 65.2841C16.3935 64.4834 16.7423 64.083 17.4399 64.108C18.312 64.108 19.2588 64.2832 20.2305 64.5334C20.8035 64.6085 21.1773 64.8337 21.3517 65.209C21.3517 65.5093 21.1524 65.7345 20.7537 65.8596C20.4547 65.9847 20.3052 66.3601 20.3052 66.9606V77.8205C20.3052 78.4461 20.6042 78.7714 21.2022 78.7714H28.8762C29.4991 78.7714 29.823 78.4711 29.823 77.8706V76.9197C29.823 76.2941 29.524 75.9688 28.926 75.9688H27.3065C26.6836 75.9688 26.3597 76.144 26.3597 76.4693C26.3846 77.5953 25.7119 78.0958 24.3166 77.9456C23.4944 77.7955 23.1207 77.3451 23.2204 76.5944C23.2204 76.3191 22.8964 76.194 22.2736 76.219C21.6257 76.2941 21.2022 76.0939 21.0278 75.6185C20.9281 75.093 20.9281 74.7928 21.0278 74.7427L22.2985 74.8178C22.8964 74.8678 23.1954 74.5175 23.1954 73.7918C23.1954 73.0662 22.9214 72.7159 22.3981 72.7409C21.7503 72.816 21.3517 72.6158 21.2022 72.1403C21.1025 71.5648 21.4015 71.2896 22.0742 71.3396C22.8217 71.4147 23.1954 71.0894 23.1954 70.3637C23.1954 69.6381 22.8964 69.2377 22.2985 69.2627C21.7005 69.3378 21.3268 69.1126 21.1773 68.6121C21.1025 68.0867 21.4015 67.8364 22.0742 67.8615C22.8217 67.9365 23.1954 67.6863 23.1954 67.1108V66.0848C23.1954 65.2841 23.5941 64.9088 24.3665 64.9588C25.1389 65.0589 25.9611 65.209 26.8082 65.3842C27.3314 65.6594 27.3314 65.9847 26.7584 66.3601C26.4594 66.7104 26.3099 67.0857 26.3099 67.4611C26.3099 67.9115 26.6089 67.8364 27.1819 67.1858C27.7301 66.5603 28.0789 66.235 28.2035 66.2099C28.3281 66.26 28.652 66.5352 29.1503 67.0357C29.5738 67.6112 29.7981 67.5362 29.7981 66.7604V65.7345C29.7981 64.9338 30.1967 64.5584 30.9691 64.6335C32.6385 64.8087 33.7846 65.0839 34.4822 65.4593C34.557 65.5844 34.4822 65.8596 34.2081 66.26C33.8095 66.7604 33.6102 67.2859 33.6102 67.8114V78.396C33.9092 79.6722 33.4108 80.4729 32.1152 80.7482C31.3927 80.8733 30.6701 80.6481 29.9725 80.0976C29.823 79.8724 29.4742 79.7473 28.926 79.7473H7.84741C7.24943 79.7473 6.92553 79.8724 6.8757 80.1226C6.60163 81.0735 5.82924 81.4738 4.53363 81.3237C3.28785 81.1736 2.76462 80.4729 3.03869 79.2468V65.7095C3.03869 64.9088 3.43734 64.5334 4.20973 64.6085C5.87907 64.7836 7.02519 65.0589 7.72283 65.4342C7.79758 65.5594 7.69791 65.8346 7.42384 66.235C7.05011 66.7354 6.85078 67.2609 6.85078 67.7864V77.8205C6.85078 78.4461 7.14977 78.7714 7.74774 78.7714H15.4716C16.0945 78.7714 16.4184 78.4711 16.4184 77.8706V76.9197C16.4184 76.3942 16.0945 76.119 15.4467 76.119H13.7773C13.1794 76.119 12.8554 76.3191 12.8305 76.7195C12.6063 77.9206 11.6844 78.2459 10.0898 77.6704C9.81574 77.4702 9.69116 77.1199 9.71608 76.6444C9.71608 76.3942 9.39218 76.2941 8.74437 76.3442C8.12148 76.4192 7.72283 76.194 7.54842 75.6936C7.42384 75.1681 7.74774 74.9179 8.49521 74.9429L8.84403 74.9929C9.44201 75.018 9.74099 74.6676 9.74099 73.942C9.74099 73.2163 9.41709 72.866 8.76929 72.891C8.12148 72.9661 7.72283 72.7409 7.57334 72.2404C7.47367 71.74 7.82249 71.4897 8.59488 71.4897C9.36726 71.5398 9.76591 71.2145 9.76591 70.5389C9.76591 69.8633 9.44201 69.538 8.7942 69.563C8.14639 69.6381 7.74774 69.4129 7.59825 68.9124C7.49859 68.412 7.49859 68.1367 7.59825 68.0867C8.02182 68.0867 8.44538 68.1367 8.86895 68.2118C9.46692 68.2118 9.76591 67.9365 9.76591 67.336V66.0848C9.76591 65.2841 10.1646 64.9088 10.9369 64.9588C11.2608 64.9838 11.6346 65.0589 12.0332 65.159C12.98 65.3091 13.5282 65.4593 13.6527 65.6094C13.7275 65.7846 13.6278 66.0348 13.3538 66.3601C13.0548 66.7104 12.9053 67.1358 12.9053 67.6112C12.9053 68.0867 13.2043 68.0366 13.8022 67.4611C14.3753 66.8355 14.749 66.5352 14.8985 66.5603C15.0729 66.6604 15.3221 66.9356 15.6211 67.386C16.1941 68.2368 16.4931 68.3369 16.4931 67.6863V65.3342L16.3935 65.2841ZM28.3281 80.6731C28.5772 80.0726 29.0008 79.9224 29.5738 80.2477C30.9193 80.9734 32.2398 82.0243 33.4856 83.3505C33.5354 83.8009 33.0869 83.9511 32.1401 83.8009H5.65483L4.4838 83.9511C3.71141 84.0011 3.23802 83.7759 3.08852 83.2755C2.93903 82.75 3.26293 82.5248 4.06023 82.5998C4.53363 82.6249 5.05686 82.6999 5.605 82.8H25.986C26.7085 83.0002 27.2069 82.8 27.456 82.1995C27.7052 81.699 28.0042 81.1986 28.3281 80.6981V80.6731ZM7.07502 86.4283C7.07502 85.6276 7.44876 85.3023 8.19623 85.4775C8.84403 85.6776 9.49184 85.9279 10.1646 86.2281C10.4137 86.3783 10.8373 86.4534 11.4353 86.4534H25.0392C25.6372 86.4534 26.1355 86.2031 26.5341 85.7027C26.9577 85.2773 27.5806 85.2022 28.3779 85.5025C29.1752 85.8528 30.0472 86.3533 30.9691 87.0039C31.592 87.5544 31.3927 88.0548 30.3213 88.5052C30.2216 88.6804 30.1718 89.0807 30.1718 89.6813C30.1967 90.6572 30.1718 91.6831 30.0971 92.7341C29.3994 93.5848 28.4028 93.8851 27.1321 93.6349C26.6587 93.4597 26.3846 93.1344 26.3348 92.684C26.285 92.4838 25.986 92.3837 25.4378 92.3837H11.8339C11.2359 92.3837 10.8622 92.5839 10.7376 92.9593C10.0649 93.8601 9.04336 94.1854 7.69791 93.9101C7.12485 93.735 6.90061 93.1594 7.05011 92.2086V86.3783L7.07502 86.4283ZM12.0581 87.4543C11.3107 87.5544 10.9369 87.9047 10.9369 88.5052V90.507C10.9369 91.1326 11.2359 91.4579 11.8339 91.4579H25.4378C26.0607 91.4579 26.3846 91.1576 26.3846 90.5571V88.4802C26.3846 87.8046 26.0607 87.4543 25.4129 87.4543H12.0831H12.0581ZM16.3935 70.0384C16.3935 69.3628 16.3187 69.0876 16.1941 69.2127C15.3968 69.2877 14.5746 69.3128 13.7524 69.2877C13.1295 69.2877 12.8056 69.6631 12.8056 70.4138C12.8056 71.1645 12.8804 71.5648 13.0049 71.5898C13.1544 71.5898 13.5282 71.2645 14.1261 70.6139C14.6992 69.9884 15.2473 69.9133 15.7457 70.3887C16.1692 70.9893 16.3935 70.8892 16.3935 70.0384ZM16.3935 73.6667C16.3935 72.9661 16.0945 72.6158 15.5214 72.6158H13.7524C13.1295 72.6158 12.8056 73.0161 12.8056 73.8169C12.8056 74.6176 12.8554 75.043 12.9551 75.093C13.0797 75.068 13.4285 74.7177 13.9767 74.0671C14.5497 72.841 15.2224 72.9661 16.0197 74.4424C16.1194 74.6927 16.2191 74.7928 16.3187 74.7427C16.3686 74.6426 16.3935 74.2673 16.3935 73.6417V73.6667ZM29.823 69.7382C29.823 69.2377 29.4991 68.9875 28.8513 68.9875H27.3065C26.6836 68.9875 26.3597 69.3878 26.3597 70.1635C26.3597 71.0143 26.6338 71.1394 27.157 70.5389C27.7052 69.9383 28.054 69.6381 28.1786 69.6381C28.3281 69.7382 28.6021 70.0384 29.0008 70.5389C29.5489 71.3396 29.823 71.4147 29.823 70.7641V69.7382ZM29.823 73.2914C29.823 72.5657 29.7732 72.2404 29.6735 72.3405C29.5489 72.4156 29.1004 72.4656 28.353 72.4656H27.3065C26.6836 72.4656 26.3597 72.7659 26.3597 73.3665V74.0921C26.3597 74.8178 26.7085 74.8178 27.4062 74.0421C28.0042 73.3665 28.353 73.0412 28.4526 73.0662C28.9759 73.4415 29.3745 73.8669 29.6237 74.3423C29.7482 74.3674 29.823 74.017 29.823 73.2914Z" fill="#6B6B6B"/>
<path d="M16.9161 105.846C16.9161 105.096 17.2898 104.72 18.0373 104.745C19.5322 104.845 20.8527 105.096 21.949 105.496C22.4224 105.921 22.2978 106.322 21.5753 106.672C21.2763 106.797 21.1268 107.173 21.1268 107.798V108.899C21.1268 109.525 21.4258 109.85 22.0238 109.85H29.2244C29.922 110 30.4702 109.825 30.8937 109.274C31.7409 108.198 32.6627 108.073 33.6095 108.899C35.2789 109.825 36.3752 110.676 36.8984 111.401C37.023 111.777 36.7987 112.002 36.2506 112.077C35.6277 112.077 35.0048 112.352 34.357 112.953C32.6876 114.154 31.1927 115.13 29.8473 115.83C29.3988 116.056 29.1496 116.006 29.1247 115.63C29.1247 115.38 29.324 114.93 29.6978 114.304C30.0715 113.478 30.3954 112.627 30.6695 111.777C30.819 111.176 30.5947 110.876 29.9968 110.876L7.49795 110.926C6.75048 110.976 6.302 111.376 6.1525 112.127C5.90335 113.453 5.55453 114.454 5.13096 115.105C4.00976 116.406 2.78889 116.606 1.46837 115.705C0.671066 115.005 0.621235 113.979 1.3687 112.678C1.79227 112.102 2.26567 111.727 2.78889 111.552C4.234 110.375 5.15588 108.949 5.52961 107.273C5.65419 107.223 5.77877 107.248 5.87843 107.348C6.05284 107.848 6.17742 108.349 6.22725 108.849C6.302 109.45 6.72556 109.775 7.49795 109.825H15.9693C16.5921 109.825 16.9161 109.525 16.9161 108.924V105.821V105.846ZM12.2817 112.678C12.5558 111.827 13.0541 111.451 13.7518 111.577C14.5989 111.727 15.4959 111.977 16.4177 112.327C17.0157 112.477 17.3645 112.778 17.4642 113.228C17.3147 113.578 17.1154 113.728 16.8662 113.678C16.6171 113.728 16.2932 114.029 15.8945 114.554C15.5706 115.13 15.6952 115.43 16.3181 115.43H21.2514C22.0985 115.655 22.8709 115.23 23.5436 114.154C23.8924 113.804 24.1914 113.653 24.4406 113.728C25.8608 114.579 27.0069 115.655 27.8789 116.956C27.8789 117.532 27.5799 117.832 26.9072 117.832C26.384 117.832 25.9604 118.183 25.6614 118.883C24.8392 120.284 23.9173 121.561 22.9207 122.662C22.2729 123.412 22.2978 123.963 23.0453 124.338C27.1315 125.839 31.5415 126.615 36.2755 126.64C36.425 126.765 36.4997 126.89 36.4997 126.991C36.425 127.116 36.0014 127.391 35.254 127.791C34.4816 128.367 33.9583 128.967 33.6843 129.568C33.3853 130.394 33.186 130.844 33.1112 130.919C32.8122 131.019 32.2641 130.994 31.4419 130.819L30.9186 130.744C30.1961 130.644 29.9469 130.744 30.1712 131.094C30.5449 131.47 30.4702 131.845 29.9469 132.22C29.324 132.445 29.0998 132.946 29.2742 133.697V138.801C29.623 140.203 28.9752 141.028 27.3059 141.228C26.1348 141.554 25.4123 141.203 25.1631 140.127C25.1382 139.502 24.8143 139.177 24.2163 139.177H14.7235C14.1255 139.177 13.8016 139.327 13.7767 139.602C13.677 140.853 12.8299 141.529 11.2104 141.579C9.86493 141.654 9.31679 140.978 9.59086 139.577V131.445C9.59086 130.844 9.21713 130.569 8.46966 130.619C4.98147 131.119 2.53974 131.319 1.16938 131.219C1.0448 131.119 0.994969 130.994 1.01988 130.869C4.75723 130.168 8.09592 129.117 11.036 127.741C13.0541 126.715 14.5491 125.764 15.5457 124.939C16.343 124.263 16.4427 123.562 15.8198 122.862C14.6736 121.385 13.8514 120.184 13.403 119.309C13.104 118.683 12.5807 118.683 11.8333 119.359C9.86493 120.96 7.97134 122.136 6.10267 122.887C5.10605 123.212 4.63265 123.287 4.68248 123.087C8.81848 119.684 11.3848 116.231 12.3316 112.753L12.2817 112.678ZM20.479 126.865C19.6568 126.315 18.8844 126.265 18.1369 126.74C16.7167 127.641 15.1221 128.467 13.3531 129.193C12.7302 129.443 12.6306 129.668 13.0541 129.868C13.5275 130.143 14.0757 130.294 14.6736 130.294H23.6433C24.2412 130.294 24.7146 130.118 25.0385 129.793C25.3126 129.443 25.0385 129.092 24.2412 128.742C23.2446 128.317 22.2231 127.816 21.2265 127.266L20.479 126.84V126.865ZM25.0884 132.32C25.0884 131.645 24.7645 131.294 24.1167 131.294H14.7484C14.1006 131.294 13.7767 131.62 13.7767 132.245V137.2C13.7767 137.825 14.0757 138.151 14.6736 138.151H24.1665C24.7894 138.151 25.1133 137.85 25.1133 137.25V132.32H25.0884ZM15.0972 116.481C14.7235 116.581 14.3996 116.756 14.1255 117.006C13.8514 117.307 14.0009 117.832 14.574 118.558C15.5457 119.659 16.5423 120.585 17.514 121.285C18.1868 121.786 18.8346 121.711 19.4824 121.01C20.6534 119.559 21.5504 118.107 22.1483 116.656C22.1234 116.531 21.7995 116.456 21.2015 116.456H15.0972V116.481Z" fill="#6B6B6B"/>
<path d="M7.04948 146.434C6.99964 145.633 7.34846 145.232 8.14576 145.257C8.99289 145.307 9.84003 145.408 10.7121 145.558C11.3848 145.633 11.9329 145.858 12.3316 146.233C12.5309 146.634 12.3316 146.934 11.7336 147.134C11.4097 147.384 11.2353 147.81 11.2353 148.41V152.864C11.2353 153.49 11.4097 153.815 11.7585 153.815C12.1323 153.815 12.5807 153.515 13.0791 152.914L13.8016 152.039C14.4245 151.288 14.7982 150.888 14.9228 150.838C16.3928 151.413 17.7383 152.614 18.9591 154.441C18.7349 154.866 18.2117 155.016 17.3645 154.866H12.1572C11.5343 154.866 11.2104 155.166 11.2104 155.767V162.423C11.2104 163.049 11.3599 163.374 11.634 163.374C12.1073 163.449 12.4811 163.274 12.7552 162.873C13.3033 161.422 14.0757 161.047 15.0474 161.747C15.7699 162.098 16.3679 161.898 16.8662 161.147C18.8346 157.644 20.1302 153.74 20.778 149.411C21.0022 148.11 21.1766 146.784 21.3012 145.433C21.4009 145.307 21.8244 145.282 22.5719 145.358C24.2163 145.583 25.6365 146.058 26.8574 146.784C27.281 147.409 27.0567 147.81 26.1847 147.96C25.9106 148.01 25.5618 148.435 25.1631 149.236C24.4655 151.213 23.7679 152.914 23.0453 154.391C22.7463 155.016 22.8958 155.342 23.4938 155.342H28.5517C29.1496 155.342 29.6978 155.041 30.221 154.441L31.2675 153.19C31.7159 152.364 32.1893 152.139 32.6627 152.514C33.4102 152.989 34.2075 153.69 35.0796 154.591C35.7772 155.492 36.0762 156.042 35.9765 156.167C35.8519 156.292 35.4035 156.368 34.6311 156.368H33.2856C32.6877 156.368 32.3388 156.743 32.2392 157.494C31.8654 162.448 30.5947 166.827 28.4271 170.706C28.0035 171.381 28.0284 171.982 28.5018 172.532C30.2459 174.534 32.3638 176.111 34.9051 177.312C35.8769 177.712 36.3253 177.962 36.2257 178.062C35.1543 178.638 34.2075 179.489 33.4351 180.59C32.9119 181.39 32.588 181.816 32.4883 181.841C29.8224 180.289 27.6049 178.363 25.8608 176.085C25.3625 175.36 24.7147 175.335 23.9423 176.01C20.7531 178.663 17.4642 180.239 14.1006 180.765C13.3531 180.89 12.9296 180.915 12.8299 180.815C12.9296 180.439 13.1787 180.214 13.5774 180.139C16.8662 178.688 19.9059 176.261 22.7214 172.908C23.1948 172.282 23.2696 171.606 22.9456 170.856C21.7746 167.553 21.0521 163.799 20.8029 159.595C20.7531 158.995 20.4043 158.995 19.7814 159.621C19.1086 160.346 18.4608 161.072 17.8629 161.823C17.3396 162.448 17.24 162.873 17.5888 163.074C18.5356 163.649 18.6103 164.225 17.7881 164.825C17.3396 165.075 17.1154 165.526 17.1154 166.151V174.409C17.3645 175.86 16.7167 176.736 15.1969 176.986C13.5275 177.287 12.7801 176.686 12.9296 175.21C12.9296 174.584 12.6306 174.259 12.0326 174.259H6.57608C5.95319 174.259 5.62929 174.559 5.62929 175.16C5.87844 176.911 5.03131 177.787 3.06298 177.837C1.74245 177.887 1.1943 177.287 1.49329 176.06V162.823C1.49329 162.048 1.89194 161.772 2.68924 161.998C3.53637 162.223 4.40842 162.548 5.25555 162.974C5.72895 163.249 6.1276 163.399 6.4515 163.399C6.82524 163.399 7.02456 163.099 7.02456 162.498V155.842C7.02456 155.217 6.72557 154.891 6.1276 154.891C4.45825 154.841 3.21247 154.891 2.36534 155.091C1.56804 155.217 1.06973 155.016 0.895316 154.516C0.745822 153.915 1.11956 153.64 2.01652 153.715C2.96331 153.865 4.33367 153.915 6.07777 153.865C6.70066 153.865 7.02456 153.565 7.02456 152.964V146.459L7.04948 146.434ZM12.9545 165.426C12.9545 164.75 12.6306 164.4 12.0077 164.4H6.62591C5.9781 164.4 5.6542 164.725 5.6542 165.351V172.282C5.6542 172.908 5.95319 173.233 6.55116 173.233H12.0077C12.6306 173.233 12.9545 172.933 12.9545 172.332V165.451V165.426ZM28.2028 157.368C28.3025 156.718 28.0534 156.393 27.4554 156.393H23.0951C22.4972 156.393 22.0985 156.518 21.8992 156.768C21.6999 157.093 21.65 157.619 21.7497 158.319C22.248 161.597 23.3194 164.7 24.9638 167.578C25.3375 168.178 25.6864 168.103 26.0103 167.353C27.1315 164.575 27.8789 161.247 28.2278 157.368H28.2028Z" fill="#6B6B6B"/>
<path d="M16.0442 185.944C16.0442 185.944 16.5176 185.769 17.2152 185.844L19.8065 186.144C20.7533 186.419 21.2765 186.67 21.3512 186.87C21.426 187.22 21.2017 187.52 20.6785 187.771C20.2549 187.771 20.0805 188.121 20.1802 188.747C20.1802 189.197 20.4792 189.422 21.0772 189.422H27.1317C27.7795 189.622 28.3027 189.422 28.6764 188.822C29.1747 188.071 29.7727 187.32 30.4454 186.545C30.8939 185.994 31.5168 186.094 32.2892 186.895C33.1612 187.52 33.9087 188.196 34.5067 188.947C35.0797 189.697 35.304 190.148 35.1545 190.273C35.0299 190.373 34.5814 190.423 33.834 190.423H21.1021C20.4792 190.423 20.1553 190.723 20.1553 191.324V193.176C20.1553 193.801 20.4543 194.126 21.0522 194.126H25.3377C25.9357 194.126 26.4839 193.876 26.9573 193.401C27.4556 192.5 28.203 192.4 29.2246 193.1C29.972 193.426 30.8939 193.976 31.9404 194.727C32.4636 195.202 32.3639 195.653 31.5916 196.053C31.1182 196.278 30.9438 196.779 31.0683 197.53V199.531C31.3175 201.033 30.6697 201.858 29.1498 201.984C28.1034 202.359 27.3559 201.984 26.9323 200.883C26.8825 200.557 26.5835 200.382 26.0354 200.382H21.1021C20.4792 200.382 20.1553 200.682 20.1553 201.283V203.26C20.1553 203.885 20.4543 204.211 21.0522 204.211H25.8111C26.4091 204.211 26.9323 203.985 27.3808 203.535C27.904 202.659 28.6515 202.534 29.5983 203.185C30.0966 203.41 30.5949 203.685 31.1182 203.985C31.9902 204.511 32.5134 204.936 32.6878 205.262C32.8373 205.512 32.638 205.812 32.1148 206.162C31.5666 206.388 31.3673 206.838 31.5168 207.489C31.5168 208.164 31.8407 208.114 32.4636 207.338C33.0865 206.663 33.834 206.688 34.6811 207.439C35.1047 207.939 35.4784 208.439 35.7774 208.94C36.0265 209.315 36.0016 209.616 35.6777 209.816C34.6313 209.891 33.5599 209.916 32.4636 209.891C31.8407 209.891 31.5168 210.191 31.5168 210.792V215.521C31.766 216.697 31.3673 217.448 30.3458 217.748C28.2778 218.574 27.2812 217.948 27.331 215.896C27.331 215.221 27.032 214.87 26.434 214.87H21.0772C20.4543 214.87 20.1304 215.171 20.1304 215.771V219.049C19.5573 221.051 18.162 222.127 15.9944 222.302C15.1722 222.352 14.7237 222.152 14.6489 221.727C14.5991 220.826 14.0011 220.025 12.8799 219.349C12.1325 218.999 11.7089 218.749 11.6341 218.624C11.6341 218.474 11.6341 218.348 11.7089 218.248C11.8085 218.173 12.2321 218.148 12.9796 218.148C14.2752 218.248 15.2469 218.098 15.8449 217.723C15.9445 217.473 15.9944 216.947 15.9944 216.121C15.9944 215.271 15.6954 214.845 15.0974 214.845H6.4766L5.28065 214.995C4.50827 215.095 4.05979 214.895 3.93521 214.395C3.78572 213.869 4.13454 213.619 4.95675 213.669L6.42677 213.819H15.0974C15.7203 213.819 16.0442 213.519 16.0442 212.919V210.792C16.0442 210.166 15.7452 209.841 15.1472 209.841H3.53656L2.11637 210.041C1.3689 210.091 0.945335 209.891 0.845673 209.44C0.721095 208.89 1.09483 208.615 1.94196 208.64C2.41536 208.64 2.93859 208.74 3.48673 208.84H15.1223C15.7452 208.84 16.0691 208.54 16.0691 207.939V206.112C16.0691 205.487 15.7701 205.161 15.1722 205.161H7.02475L5.8288 205.362C5.05641 205.487 4.58302 205.312 4.43352 204.786C4.25911 204.236 4.58302 203.96 5.40523 203.985C5.87863 203.985 6.40186 204.035 6.95 204.136H15.1223C15.7452 204.136 16.0691 203.835 16.0691 203.235V201.258C16.0691 200.632 15.7701 200.307 15.1722 200.307H10.0395C9.44157 200.307 9.11766 200.432 9.06783 200.682C8.76884 201.783 7.77222 202.309 6.10287 202.184C5.13116 202.084 4.75743 201.433 4.98167 200.207V193.626C4.98167 192.825 5.38032 192.525 6.1527 192.75C6.97492 192.975 7.84696 193.301 8.74393 193.726C9.04292 193.901 9.4914 194.001 10.0894 194.001H15.1472C15.7701 194.001 16.094 193.701 16.094 193.1V191.249C16.094 190.623 15.795 190.298 15.1971 190.298H3.73589L2.53994 190.498C1.74264 190.648 1.26924 190.498 1.11974 189.998C0.92042 189.372 1.24432 189.072 2.14129 189.122C2.6396 189.147 3.13791 189.222 3.63622 189.322H15.1223C15.7452 189.322 16.0691 189.022 16.0691 188.421V185.844L16.0442 185.944ZM10.2389 195.102C9.4914 195.202 9.11766 195.553 9.11766 196.153V198.43C9.11766 199.056 9.41665 199.381 10.0146 199.381H15.0974C15.7203 199.381 16.0442 199.081 16.0442 198.48V196.053C16.0442 195.428 15.7452 195.102 15.1472 195.102H10.2389ZM26.9323 196.128C26.9323 195.453 26.6084 195.102 25.9606 195.102H21.1519C20.529 195.102 20.2051 195.403 20.2051 196.003V198.43C20.2051 199.056 20.5041 199.381 21.1021 199.381H26.0105C26.6333 199.381 26.9573 199.081 26.9573 198.48V196.128H26.9323ZM27.3808 206.287C27.3808 205.587 27.0569 205.237 26.434 205.237H21.127C20.5041 205.237 20.1802 205.537 20.1802 206.137V207.964C20.1802 208.59 20.4792 208.915 21.0772 208.915H26.434C27.0569 208.915 27.3808 208.615 27.3808 208.014V206.313V206.287ZM27.3808 210.917C27.3808 210.266 27.0818 209.941 26.5088 209.941H21.127C20.5041 209.941 20.1802 210.241 20.1802 210.842V212.969C20.1802 213.594 20.4792 213.919 21.0772 213.919H26.434C27.0569 213.919 27.3808 213.619 27.3808 213.019V210.942V210.917Z" fill="#6B6B6B"/>
<path d="M10.4392 241.745C10.8627 240.944 11.2365 240.444 11.5604 240.244C12.2331 240.444 13.1799 241.019 14.3509 241.945C14.8492 242.32 15.2479 242.721 15.5469 243.121C15.7462 243.572 15.3974 243.972 14.5004 244.322C14.326 244.497 14.1765 244.798 14.0519 245.198C12.7314 249.877 9.89103 254.081 5.53079 257.759C3.6372 259.286 2.06752 260.187 0.821738 260.487C0.69716 260.362 0.647329 260.237 0.672245 260.112C3.36313 257.985 5.35638 255.733 6.62708 253.305C8.34626 250.178 9.44254 246.9 9.94086 243.496C9.86611 243.396 9.51729 243.346 8.91932 243.346H5.03248L3.83653 243.547C3.06414 243.672 2.59075 243.471 2.44125 242.971C2.31668 242.421 2.64058 242.145 3.41296 242.17L4.88299 242.32H8.91932C9.61695 242.521 10.1153 242.32 10.4143 241.745H10.4392ZM17.9388 234.263C18.4371 233.362 18.9354 233.062 19.4337 233.387C21.6263 234.388 22.9717 235.364 23.47 236.29C23.47 236.941 23.0216 237.341 22.2243 237.491C21.7259 237.816 21.6263 238.292 21.9502 238.917C22.299 240.644 22.7973 242.37 23.4451 244.097C23.6943 244.723 24.2175 244.698 25.0397 243.997C27.1077 241.97 28.8269 239.668 30.1973 237.041C30.6457 236.24 31.2437 236.015 31.9663 236.39C32.7885 236.865 33.6605 237.441 34.5575 238.142C34.9312 238.492 35.0807 238.817 34.9811 239.092C34.8814 239.318 34.6322 239.418 34.2585 239.368C33.8349 239.168 33.2121 239.568 32.4148 240.569C30.0478 242.721 27.5811 244.297 25.0397 245.348C24.4418 245.623 24.3172 246.149 24.666 246.9C27.1326 251.604 30.4963 254.732 34.8067 256.308C35.7285 256.558 35.7784 256.934 34.9561 257.434C33.4612 258.235 32.4397 259.511 31.9414 261.263C31.8417 261.338 31.3683 261.113 30.5461 260.587C28.4781 258.885 26.8337 256.759 25.563 254.181C24.1178 251.379 22.9468 248.126 22.0997 244.422C21.8754 243.822 21.7509 243.797 21.7509 244.347V259.486C21.5765 260.787 21.0034 261.763 20.0566 262.364C18.8607 263.014 17.7394 263.239 16.7428 263.014C16.5186 261.588 15.6465 260.587 14.1018 260.062C13.2546 260.062 12.8062 259.811 12.7812 259.261C12.8311 259.086 13.3294 258.986 14.2513 258.986C15.5469 258.986 16.5186 258.785 17.1415 258.385C17.565 257.935 17.7145 257.384 17.565 256.759V237.566C17.565 236.966 17.5401 236.615 17.4654 236.515C17.3657 236.415 17.0169 236.365 16.4189 236.365H11.9839C11.6102 236.365 11.2365 236.465 10.8627 236.565C10.0654 236.715 9.56712 236.515 9.39271 235.965C9.2183 235.389 9.56712 235.139 10.4392 235.214C10.8877 235.214 11.386 235.314 11.9092 235.414H16.6182C17.1415 235.339 17.59 234.964 17.9388 234.288V234.263ZM15.0984 227.157C17.291 226.881 19.5334 227.207 21.8505 228.133C24.068 229.158 24.8155 230.46 24.1428 232.036C23.9185 232.537 23.4451 232.862 22.7475 232.987C22.0997 233.137 21.3522 232.787 20.53 231.961C18.7859 230.009 17.0667 228.733 15.3226 228.108C14.326 227.857 13.8028 227.657 13.7779 227.532C13.7779 227.407 14.2513 227.282 15.0984 227.157Z" fill="#6B6B6B"/>
<path d="M30.8446 267.744C31.3429 266.893 32.0156 266.893 32.8378 267.744C33.6601 268.27 34.557 269.07 35.4789 270.121C36.027 270.897 36.2264 271.347 36.0769 271.472C35.9025 271.547 35.4291 271.573 34.6816 271.573H22.6224C22.0245 271.573 21.5511 271.948 21.2272 272.699L20.2804 274.75C19.9565 275.351 20.1807 275.876 21.0029 276.327C22.0494 276.852 22.1989 277.353 21.4514 277.803C21.0278 278.128 20.8036 278.579 20.8036 279.154V302.676C20.5544 303.702 19.6575 304.202 18.0878 304.127C16.6676 303.927 16.0696 303.076 16.3437 301.6V281.957C16.3437 281.356 16.0198 281.406 15.372 282.107C11.0865 286.711 6.45219 289.739 1.46907 291.14C1.31957 291.065 1.24483 290.965 1.24483 290.84C1.24483 290.69 1.66839 290.365 2.44078 289.889C7.02525 286.686 10.6878 282.883 13.4037 278.504C14.6993 276.402 15.671 274.425 16.2939 272.523C16.4932 271.873 16.2939 271.547 15.7208 271.547H3.76131L2.56536 271.773C1.74314 271.848 1.26974 271.673 1.14516 271.197C0.970755 270.572 1.31957 270.296 2.19162 270.371C2.68993 270.396 3.18825 270.472 3.71147 270.572H27.5806C28.2783 270.772 28.8015 270.572 29.1254 269.971C29.6486 269.22 30.2217 268.47 30.8695 267.694L30.8446 267.744ZM23.7187 278.829C23.7187 278.829 24.1921 278.804 24.9147 279.104C27.8298 280.406 30.6951 282.232 33.5106 284.559C34.9557 285.861 35.6782 287.487 35.6284 289.389C35.5287 290.29 35.0304 290.965 34.1584 291.391C33.1368 291.666 32.215 291.14 31.4177 289.814C29.9975 286.186 27.7052 282.858 24.5659 279.83C23.9679 279.255 23.6938 278.929 23.7436 278.854L23.7187 278.829Z" fill="#6B6B6B"/>
<path d="M2.9396 308.981C2.9396 308.18 3.28842 307.78 4.03589 307.805C6.00423 307.955 7.32476 308.205 7.99748 308.555C8.47087 308.981 8.37121 309.356 7.64866 309.682C7.29984 309.882 7.12543 310.282 7.12543 310.858V315.136C7.12543 315.737 7.17526 316.062 7.27492 316.112C7.3995 316.112 7.74832 315.687 8.32138 314.936C8.74495 314.236 9.24326 314.035 9.7914 314.361C11.1119 315.011 12.2082 315.887 13.0304 316.963C13.2547 317.414 13.0055 317.714 12.2331 317.864C12.0338 317.914 11.8096 318.089 11.5604 318.389C10.6884 320.316 9.4675 322.318 7.89781 324.445C7.22509 325.471 7.25001 326.021 7.99748 326.071C8.37121 326.297 8.74495 326.121 9.11868 325.496C9.54225 324.745 9.91598 323.97 10.215 323.194C10.5389 322.418 11.087 322.193 11.8843 322.518L12.9308 323.019C13.6533 323.294 14.2015 323.619 14.5503 323.995C14.6749 324.595 14.4008 324.87 13.7281 324.795C13.4789 324.845 13.2298 324.97 12.9806 325.171C12.258 325.721 11.5355 326.222 10.788 326.647C10.1901 326.972 10.0655 327.272 10.4143 327.548C10.7133 327.948 11.1867 328.123 11.8096 328.048H12.8311C13.4291 328.048 13.9772 327.748 14.5005 327.172C15.0486 326.722 15.7213 326.697 16.4937 327.097C16.992 327.398 17.4903 327.748 18.0136 328.123C18.6364 328.699 18.8358 329.199 18.6115 329.65C18.2378 330.15 18.0385 330.676 18.0385 331.201V337.257C17.8142 338.182 18.2378 338.883 19.3092 339.308C20.6795 339.884 22.324 340.184 24.2176 340.184H28.4781C31.2188 340.084 33.9596 339.734 36.7003 339.133C36.7999 339.208 36.8747 339.308 36.9245 339.409C36.9245 339.534 36.501 339.934 35.7286 340.585C35.1057 341.285 34.7319 342.036 34.6323 342.862C34.5825 343.813 34.1589 344.338 33.3865 344.438C31.0943 344.513 28.4283 344.438 25.3637 344.238C22.0748 344.238 19.2843 342.687 16.992 339.534C16.5685 338.908 16.0452 338.958 15.3974 339.684L12.5321 343.212C11.984 344.188 11.6352 344.688 11.4857 344.688C11.3611 344.663 11.0621 344.238 10.6136 343.437L10.0156 341.936C9.69174 340.96 9.91598 340.284 10.6884 339.934C12.0338 339.384 13.1052 338.683 13.9025 337.807C14.0021 337.582 14.052 337.207 14.052 336.681V330.025C14.052 329.399 13.753 329.074 13.1799 329.074C12.6069 329.074 12.2082 329.074 12.0089 329.149C11.9092 329.199 11.984 329.65 12.2082 330.475C12.3577 331.051 12.1833 331.677 11.6352 332.377C10.1153 333.403 9.06885 332.903 8.54562 330.826C8.44596 330.325 8.29646 329.825 8.09714 329.324C7.64866 328.449 7.42442 328.449 7.42442 329.324V342.461C7.64866 343.637 7.27492 344.438 6.30321 344.838C5.82982 344.939 5.3315 344.989 4.83319 344.964C3.56249 344.838 3.03927 344.063 3.28842 342.662V330C3.28842 329.374 2.88977 329.299 2.11739 329.8L1.29517 330.25C0.423126 330.626 -0.000439977 330.726 0.0244757 330.551C0.0244757 330.425 0.497873 329.925 1.345 329.074C4.50929 325.546 6.52745 321.868 7.37459 318.064C7.47425 317.464 7.22509 317.163 6.62712 317.163C4.18539 317.113 2.56587 317.163 1.71874 317.364C0.946354 317.464 0.497873 317.263 0.373294 316.763C0.248716 316.237 0.572619 315.987 1.39484 316.037L2.06756 316.112C2.66553 316.137 2.96452 315.837 2.96452 315.237V309.031L2.9396 308.981ZM12.856 309.857C12.8311 309.631 13.2298 309.506 14.052 309.506C15.0984 309.606 16.12 309.907 17.0668 310.407C18.1381 311.108 18.6614 311.959 18.6364 312.985C18.4371 314.811 17.4903 315.412 15.7712 314.811C15.2978 314.511 15.0237 314.161 14.9489 313.785C14.7994 312.384 14.1018 311.058 12.8311 309.857H12.856ZM13.4789 317.889C13.4789 317.889 14.0021 317.789 14.7496 317.889C16.9422 318.289 18.2627 319.415 18.7361 321.242C18.7361 323.144 17.889 323.869 16.2944 323.469C15.1981 323.194 14.7496 322.418 14.9489 321.117C14.8742 320.491 14.6001 319.816 14.1516 319.115C13.6533 318.339 13.4291 317.914 13.4789 317.864V317.889ZM20.4802 310.657C20.4802 309.832 20.8539 309.506 21.5765 309.707C22.1994 309.907 22.8721 310.207 23.5697 310.582C24.0431 310.833 24.5913 310.958 25.1893 310.958H28.9266C29.5246 311.233 30.3219 310.757 31.3434 309.556C32.3899 309.857 33.4612 310.357 34.5575 311.058C35.8282 311.558 35.9528 312.159 34.9313 312.884C34.4828 313.21 34.3333 313.685 34.4828 314.311V321.868C34.7818 323.319 34.134 324.145 32.5145 324.32C31.4431 324.545 30.7454 324.22 30.4714 323.369C30.3966 323.019 30.0478 322.843 29.4498 322.843H25.4633C24.8404 322.843 24.5165 323.144 24.5165 323.744V332.327C24.5165 332.953 24.9152 333.153 25.6876 332.903C26.2606 332.752 26.8835 332.552 27.5313 332.302C28.3286 331.977 28.802 331.827 28.9266 331.852C29.0512 331.977 28.7522 332.427 28.0546 333.203C26.4849 334.754 24.7408 336.131 22.897 337.357C22.2492 337.932 21.9253 338.308 21.9253 338.458C21.9253 338.883 21.7758 339.133 21.427 339.183C21.2526 339.183 20.8789 338.733 20.3058 337.832C19.7577 336.581 19.3092 335.355 18.9604 334.204C18.9604 334.104 19.2593 334.004 19.7577 333.904C20.256 333.828 20.5051 333.478 20.5051 332.878V310.632L20.4802 310.657ZM25.6627 311.984C24.9152 312.109 24.5415 312.484 24.5415 313.085V315.612C24.5415 316.237 24.8404 316.563 25.4384 316.563H29.5495C30.1724 316.563 30.4963 316.263 30.4963 315.662V313.01C30.4963 312.334 30.1724 311.984 29.5246 311.984H25.6876H25.6627ZM30.4714 318.565C30.4714 317.914 30.1724 317.589 29.5993 317.589H25.4633C24.8404 317.589 24.5165 317.889 24.5165 318.49V320.942C24.5165 321.567 24.8155 321.893 25.4135 321.893H29.5246C30.1475 321.893 30.4714 321.592 30.4714 320.992V318.565ZM31.9414 327.147C32.2653 326.347 32.7885 326.096 33.5111 326.397L35.2801 327.197C36.0026 327.673 36.3764 327.998 36.4013 328.148C36.4013 328.574 36.202 328.774 35.7535 328.724C35.4296 328.799 35.1555 328.924 34.9562 329.074L33.4363 330.1C32.639 330.55 32.5892 331.051 33.2868 331.576C35.6787 333.453 36.4013 335.405 35.5043 337.482C34.8067 338.483 33.9596 338.708 32.938 338.132C32.2902 337.657 31.8417 336.931 31.5926 335.93C30.4963 333.003 28.7771 330.375 26.46 328.048C26.3852 327.748 26.8088 327.773 27.7057 328.173C28.3286 328.474 29.0014 328.824 29.699 329.224C30.3717 329.65 30.8451 329.6 31.1192 329.074C31.4182 328.449 31.6673 327.823 31.8666 327.172L31.9414 327.147Z" fill="#6B6B6B"/>
<path d="M10.6881 349.693C11.1615 348.842 11.8591 348.567 12.8059 348.892C13.3042 349.092 13.8025 349.342 14.3008 349.618C15.2725 349.993 15.9203 350.468 16.1944 351.044C16.1197 351.419 15.8456 351.594 15.3971 351.569C15.123 351.569 14.7244 351.87 14.2261 352.47C13.7776 353.121 13.8523 353.446 14.4503 353.446H18.6361C19.2341 353.446 19.7823 353.246 20.3055 352.871C21.1526 351.87 21.9001 351.619 22.5728 352.145C24.5162 353.146 25.7869 354.072 26.4098 354.897C26.3849 355.348 26.061 355.573 25.4381 355.548C25.2139 355.598 24.9647 355.723 24.6906 355.923C23.2455 357.174 21.7755 358.401 20.2806 359.552C19.6577 360.077 19.6577 360.352 20.2806 360.352H26.9829C27.232 360.277 27.4812 360.102 27.7054 359.852C28.2785 358.701 28.9512 358.301 29.7485 358.651C31.8165 359.326 33.137 360.227 33.7101 361.328C33.5855 361.754 33.3115 362.004 32.9128 362.054C32.3647 362.204 32.1653 362.654 32.3397 363.405V372.413C31.7667 373.74 30.6206 374.24 28.9512 373.84C28.2287 373.539 27.9546 372.939 28.1539 372.063C28.1539 371.387 27.8549 371.037 27.257 371.037H10.4887C9.86585 371.037 9.54194 371.337 9.54194 371.938V378.819C9.61669 379.345 9.7911 379.77 10.0652 380.095C10.5635 380.446 11.5352 380.621 12.9554 380.596L16.5682 380.671H24.7405C27.5559 380.546 29.5492 380.27 30.7701 379.87C31.5923 379.495 32.2401 378.569 32.6886 377.118C32.8381 376.542 33.0374 375.967 33.2616 375.366C33.3862 375.241 33.5108 375.166 33.6354 375.166C33.8098 375.241 33.9343 375.666 34.0091 376.417L34.0589 378.419C34.0589 379.119 34.4825 379.67 35.23 380.095C36.5505 381.321 36.5505 382.422 35.205 383.348C34.6071 383.724 33.5855 384.024 32.1903 384.224C29.599 384.649 26.2105 384.875 22.0247 384.9H16.6429C13.7029 384.825 11.3857 384.649 9.66652 384.399C6.97564 383.949 5.55544 382.498 5.40595 380.045V362.029C5.40595 361.403 5.0073 361.303 4.23492 361.729C2.86456 362.454 1.66861 362.955 0.696897 363.205C0.572319 363.155 0.497572 363.08 0.472656 362.93C5.20663 359.276 8.62007 354.822 10.713 349.568L10.6881 349.693ZM20.0813 355.448C20.3553 354.797 20.1809 354.472 19.5829 354.472H13.4039C12.9056 354.572 12.4322 354.872 12.0086 355.373L9.06855 358.426C8.27125 359.101 8.22142 359.627 8.94397 360.002C9.36754 360.252 9.89076 360.377 10.4887 360.377H16.5432C17.1412 360.377 17.6894 360.002 18.1628 359.251C18.8355 358 19.4584 356.724 20.0563 355.423L20.0813 355.448ZM16.6927 362.454C16.6927 361.779 16.4187 361.428 15.8705 361.428H10.4887C9.86585 361.428 9.54194 361.729 9.54194 362.329V369.135C9.54194 369.761 9.84093 370.086 10.4389 370.086H15.7459C16.3688 370.086 16.6927 369.786 16.6927 369.185V362.454ZM28.129 362.529C28.129 361.804 27.8051 361.428 27.1822 361.428H21.7506C21.1277 361.428 20.8038 361.729 20.8038 362.329V369.135C20.8038 369.761 21.1028 370.086 21.7008 370.086H27.1573C27.7802 370.086 28.1041 369.786 28.1041 369.185V362.529H28.129Z" fill="#6B6B6B"/>
</g>
<defs>
<clipPath id="clip0_1547_11339">
<rect width="83.0189" height="385" fill="white"/>
</clipPath>
</defs>
</svg>
