<svg width="82" height="78" viewBox="0 0 82 78" fill="none" xmlns="http://www.w3.org/2000/svg">
<rect width="82" height="78" rx="39" fill="#55A257"/>
<path d="M24.2466 26.3687L20 28.492M36.9864 26.3687H45.4796M62.4661 28.492L58.2195 26.3687" stroke="white" stroke-width="5" stroke-linecap="round" stroke-linejoin="round"/>
<path d="M53.9704 20H28.4907C26.1454 20 24.2441 21.9013 24.2441 24.2466V49.7263C24.2441 52.0716 26.1454 53.9729 28.4907 53.9729H53.9704C56.3157 53.9729 58.217 52.0716 58.217 49.7263V24.2466C58.217 21.9013 56.3157 20 53.9704 20Z" stroke="white" stroke-width="5" stroke-linecap="round" stroke-linejoin="round"/>
<path d="M24.2441 36.9873H58.217M32.7374 45.4805H32.7586M49.7238 45.4805H49.745M28.4907 53.9737V58.2204M53.9704 58.2204V53.9737" stroke="white" stroke-width="5" stroke-linecap="round" stroke-linejoin="round"/>
</svg>
