<svg width="583" height="205" viewBox="0 0 583 205" fill="none" xmlns="http://www.w3.org/2000/svg">
<path d="M257.716 176.171C218.399 166.117 187.823 122.83 177.45 102.443C180.368 98.846 190.152 108.798 201.431 110.679C212.71 112.561 216.213 106.797 237.138 106.366C258.063 105.935 267.212 113.8 273.106 118.589C269.594 121.558 260.862 129.603 254.025 138.03C247.188 146.457 253.637 166.969 257.716 176.171Z" fill="#FFF7D3"/>
<path d="M294.686 88.4939C255.37 78.4396 224.794 35.1526 214.42 14.7659C217.338 11.169 227.123 21.1208 238.402 23.0022C249.68 24.8836 253.183 19.1204 274.109 18.6891C295.034 18.2578 304.183 26.1228 310.077 30.9123C306.565 33.8814 297.832 41.9264 290.995 50.3533C284.159 58.7802 290.607 79.2916 294.686 88.4939Z" fill="#FFF7D3"/>
<path d="M373.968 172.953C334.651 162.899 304.075 119.612 293.702 99.2254C296.62 95.6285 306.404 105.58 317.683 107.462C328.962 109.343 332.465 103.58 353.39 103.149C374.315 102.717 383.464 110.582 389.358 115.372C385.846 118.341 377.113 126.386 370.277 134.813C363.44 143.24 369.889 163.751 373.968 172.953Z" fill="#FFF7D3"/>
<path d="M484.999 175.858C445.683 165.804 415.106 122.517 404.733 102.13C407.651 98.5335 417.436 108.485 428.714 110.367C439.993 112.248 443.496 106.485 464.421 106.054C485.346 105.622 494.495 113.487 500.39 118.277C496.878 121.246 488.145 129.291 481.308 137.718C474.471 146.145 480.92 166.656 484.999 175.858Z" fill="#FFF7D3"/>
<path d="M565.341 117.615C526.024 107.561 495.448 64.2737 485.075 43.887C487.993 40.2901 497.777 50.2419 509.056 52.1233C520.335 54.0047 523.838 48.2415 544.763 47.8102C565.688 47.3789 574.837 55.2439 580.731 60.0333C577.219 63.0025 568.487 71.0475 561.65 79.4744C554.813 87.9013 561.262 108.413 565.341 117.615Z" fill="#FFF7D3"/>
<path d="M163.317 203.649C124.001 193.595 93.4247 150.308 83.0512 129.921C85.9693 126.324 95.754 136.276 107.033 138.157C118.311 140.039 121.814 134.275 142.74 133.844C163.665 133.413 172.814 141.278 178.708 146.067C175.196 149.036 166.463 157.081 159.626 165.508C152.79 173.935 159.238 194.447 163.317 203.649Z" fill="#FFF7D3"/>
<path d="M173.907 76.9375C134.591 66.8832 104.015 23.5962 93.641 3.20953C96.5591 -0.387386 106.344 9.56442 117.622 11.4458C128.901 13.3272 132.404 7.56401 153.329 7.13271C174.255 6.70141 183.403 14.5664 189.298 19.3559C185.786 22.325 177.053 30.37 170.216 38.7969C163.379 47.2239 169.828 67.7352 173.907 76.9375Z" fill="#FFF7D3"/>
<path d="M81.0359 104.943C41.7197 94.8883 11.1435 51.6013 0.769908 31.2147C3.68804 27.6177 13.4727 37.5695 24.7513 39.4509C36.0299 41.3323 39.5331 35.5691 60.4583 35.1378C81.3835 34.7065 90.5324 42.5715 96.4266 47.361C92.9148 50.3301 84.1819 58.3751 77.3451 66.802C70.5083 75.229 76.957 95.7403 81.0359 104.943Z" fill="#FFF7D3"/>
</svg>
