<svg width="375" height="138" viewBox="0 0 375 138" fill="none" xmlns="http://www.w3.org/2000/svg">
<path d="M164.842 113.378C139.479 106.891 119.754 78.9669 113.062 65.8153C114.945 63.4949 121.257 69.9149 128.533 71.1286C135.809 72.3423 138.069 68.6244 151.567 68.3462C165.066 68.068 170.968 73.1417 174.771 76.2314C172.505 78.1468 166.872 83.3367 162.461 88.7729C158.051 94.2092 162.211 107.441 164.842 113.378Z" fill="#FFF7D3"/>
<path d="M188.692 56.8163C163.329 50.3302 143.604 22.4056 136.912 9.25405C138.794 6.93367 145.106 13.3536 152.382 14.5673C159.658 15.781 161.918 12.0631 175.417 11.7849C188.916 11.5067 194.818 16.5804 198.62 19.6701C196.355 21.5855 190.721 26.7754 186.311 32.2116C181.9 37.6479 186.06 50.8798 188.692 56.8163Z" fill="#FFF7D3"/>
<path d="M239.836 111.302C214.473 104.816 194.748 76.8909 188.056 63.7394C189.939 61.419 196.251 67.839 203.527 69.0527C210.803 70.2664 213.063 66.5485 226.562 66.2703C240.061 65.992 245.963 71.0658 249.765 74.1555C247.499 76.0709 241.866 81.2607 237.455 86.697C233.045 92.1332 237.205 105.365 239.836 111.302Z" fill="#FFF7D3"/>
<path d="M311.463 113.176C286.1 106.69 266.375 78.7652 259.683 65.6137C261.566 63.2933 267.878 69.7132 275.154 70.9269C282.43 72.1406 284.69 68.4228 298.189 68.1445C311.688 67.8663 317.589 72.94 321.392 76.0297C319.126 77.9451 313.493 83.135 309.082 88.5712C304.672 94.0075 308.832 107.239 311.463 113.176Z" fill="#FFF7D3"/>
<path d="M363.293 75.6027C337.93 69.1166 318.205 41.192 311.513 28.0404C313.396 25.72 319.708 32.14 326.984 33.3537C334.26 34.5674 336.52 30.8495 350.019 30.5713C363.518 30.2931 369.42 35.3668 373.222 38.4565C370.956 40.3719 365.323 45.5618 360.912 50.998C356.502 56.4343 360.662 69.6662 363.293 75.6027Z" fill="#FFF7D3"/>
<path d="M103.95 131.104C78.5866 124.618 58.8617 96.6929 52.1697 83.5414C54.0522 81.221 60.3643 87.641 67.6402 88.8547C74.916 90.0684 77.176 86.3505 90.6749 86.0723C104.174 85.794 110.076 90.8678 113.878 93.9575C111.613 95.8729 105.979 101.063 101.569 106.499C97.1582 111.935 101.318 125.167 103.95 131.104Z" fill="#FFF7D3"/>
<path d="M110.78 49.3615C85.4166 42.8754 65.6918 14.9508 58.9997 1.79922C60.8822 -0.521166 67.1944 5.89878 74.4702 7.11248C81.7461 8.32618 84.006 4.60831 97.505 4.33008C111.004 4.05185 116.906 9.12557 120.708 12.2153C118.443 14.1307 112.809 19.3205 108.399 24.7568C103.988 30.193 108.148 43.425 110.78 49.3615Z" fill="#FFF7D3"/>
<path d="M50.8676 67.4279C25.5045 60.9418 5.77967 33.0172 -0.912372 19.8656C0.97013 17.5452 7.28226 23.9652 14.5581 25.1789C21.834 26.3926 24.0939 22.6747 37.5929 22.3965C51.0918 22.1183 56.9938 27.192 60.7962 30.2817C58.5307 32.1971 52.897 37.3869 48.4866 42.8232C44.0762 48.2595 48.2362 61.4914 50.8676 67.4279Z" fill="#FFF7D3"/>
</svg>
