<svg width="185" height="56" viewBox="0 0 185 56" fill="none" xmlns="http://www.w3.org/2000/svg">
<g clip-path="url(#clip0_1717_12331)">
<path d="M5.03936 7.09159C5.15536 6.52817 5.48678 6.29617 6.01706 6.41217C6.58047 6.54474 7.14389 6.74359 7.72388 6.99216C8.10502 7.09159 8.33701 7.29044 8.4033 7.58872C8.37016 7.83729 8.20444 7.96985 7.90616 7.96985C7.74045 8.003 7.49189 8.28471 7.16046 8.79841C6.87875 9.29554 6.54733 9.79268 6.18277 10.3064C5.96734 10.6047 5.85134 10.9527 5.85134 11.3504V23.5301C5.68563 24.1433 5.12221 24.425 4.17766 24.3753C3.39882 24.2758 3.0674 23.8118 3.23311 22.9667V14.5983C3.23311 14.2006 2.98454 14.2006 2.48741 14.6314L1.228 15.6257C0.498871 16.1228 0.266876 16.1228 0.532013 15.6091C2.90168 12.8418 4.40966 9.99153 5.0725 7.09159H5.03936ZM4.16109 1.42426C4.31023 0.877415 4.62508 0.66199 5.08907 0.777988C5.65249 0.96027 6.24905 1.1757 6.86218 1.42426C7.29303 1.60654 7.50846 1.83854 7.49189 2.10368C7.44217 2.30253 7.29303 2.40196 7.04447 2.40196C6.77933 2.35224 6.48105 2.65052 6.14962 3.28023C4.84051 5.15276 3.21654 6.69388 1.26114 7.887C0.764009 8.13557 0.4823 8.23499 0.416016 8.18528C0.416016 8.119 0.63144 7.82071 1.06229 7.29044C2.57026 5.36819 3.59767 3.4128 4.17766 1.42426H4.16109ZM14.6175 11.2675C14.6175 10.7538 14.866 10.5052 15.3466 10.5218C15.8934 10.5715 16.4734 10.6544 17.07 10.7538C17.6997 11.0024 18.0145 11.2178 18.0145 11.3835C17.9814 11.5492 17.8488 11.6818 17.6334 11.7646C17.4843 11.8144 17.3848 11.8806 17.3517 11.9469C17.302 12.6098 17.2854 13.3058 17.302 14.0183C17.302 14.4326 17.4677 14.648 17.7991 14.648C18.1803 14.7474 18.4951 14.6149 18.7602 14.2669L19.5557 13.256C19.8539 12.7423 20.1688 12.5932 20.4836 12.8086C21.4945 13.5212 22.2236 14.2503 22.6379 14.996C22.6379 15.1286 22.3893 15.228 21.859 15.2943H17.9317C17.5174 15.2943 17.302 15.4931 17.302 15.8909V20.3319C17.302 20.7296 17.5506 20.9616 18.0477 21.0113C19.9368 21.177 21.5608 21.1273 22.9362 20.829C23.4333 20.7793 23.715 20.7793 23.7647 20.8456C23.7482 20.9285 23.4996 21.1936 23.0356 21.641C22.6545 22.0884 22.4059 22.6022 22.2899 23.1987C22.207 23.7124 21.9088 24.0107 21.3951 24.0936C20.1357 24.2427 18.6608 24.1598 16.954 23.845C14.6175 23.2816 12.7449 21.873 11.3695 19.6359C11.0878 19.1388 10.8061 19.1388 10.541 19.6359C9.34785 21.6079 8.00559 22.9501 6.48105 23.6461C6.39819 23.5799 6.54733 23.2981 6.92847 22.8176C7.32617 22.2873 7.72388 21.6079 8.13816 20.8125C9.04957 18.6914 9.54671 16.2057 9.61299 13.3389C9.61299 12.7921 9.87813 12.5269 10.3918 12.5435C10.9552 12.5932 11.5352 12.6761 12.0987 12.7921C12.4467 12.7921 12.7284 12.9246 12.9438 13.14C13.0432 13.4052 12.9438 13.5875 12.6621 13.6703C12.4798 13.7863 12.3307 14.1012 12.2312 14.5983C12.0489 15.3937 11.8335 16.2223 11.585 17.084C11.3861 17.6142 11.4855 18.1114 11.9164 18.5919C12.4632 19.1554 13.1261 19.6359 13.8883 20.0171C14.3523 20.2159 14.5843 20.1496 14.5843 19.7851V11.2675H14.6175ZM10.8558 0.479708C10.9221 0.36371 11.2038 0.330568 11.6844 0.380281C12.2809 0.479708 12.8609 0.645419 13.3912 0.877415C14.0375 1.22541 14.3689 1.4574 14.3855 1.5734C14.4186 1.83854 14.2529 2.00425 13.8883 2.07054C13.5569 2.16996 13.2255 2.65052 12.8775 3.49565C12.6952 3.89336 12.8609 4.17507 13.3581 4.34078C14.1369 4.58935 14.8329 5.10305 15.4295 5.89846C15.6449 6.32931 15.8603 6.29617 16.0592 5.7659C16.8711 3.90993 17.4014 2.13682 17.6334 0.429995C17.6997 0.380281 17.9814 0.396852 18.4785 0.496279C19.1414 0.66199 19.7545 0.893986 20.2848 1.19227C20.7654 1.55683 21.0305 1.78883 21.0636 1.88825C20.9974 2.2031 20.7985 2.35224 20.4836 2.33567C20.2848 2.36882 20.0528 2.5511 19.8042 2.88252L19.2077 4.05907C18.9922 4.45678 19.1414 4.73849 19.6882 4.9042C21.2956 5.48419 22.3562 6.47845 22.903 7.85386C23.0522 8.28471 22.9693 8.78184 22.671 9.36183C22.3396 9.79268 21.8425 9.94182 21.1962 9.79268C20.7985 9.56068 20.5334 9.2624 20.4174 8.89784C20.1688 7.83729 19.7214 6.89273 19.0585 6.0476C18.6774 5.6499 18.3128 5.69961 17.9483 6.22989C16.3409 8.61613 14.75 10.1407 13.1592 10.8201C13.0929 10.7704 13.2586 10.4721 13.6563 9.92525C13.9381 9.59382 14.1866 9.2624 14.402 8.93098C14.7335 8.43385 14.7998 8.18528 14.5843 8.18528C13.8221 8.01957 13.3746 7.52243 13.2752 6.67731C13.1426 6.34589 12.9604 6.01446 12.7449 5.68304C12.4301 5.16934 12.1318 5.15276 11.8501 5.63333C10.7398 7.73786 9.28157 9.47783 7.45874 10.8367C7.35932 10.8532 7.25989 10.8367 7.17703 10.7869C7.14389 10.7041 7.3096 10.4058 7.67417 9.90868C9.11586 7.92014 10.1598 4.77163 10.8061 0.463137L10.8558 0.479708Z" fill="#6B6B6B"/>
<path d="M33.3106 1.22551C33.3106 0.728378 33.5426 0.479812 34.0563 0.496383C35.3323 0.562667 36.2437 0.761521 36.7905 1.09294C36.9562 1.42437 36.7739 1.6895 36.2105 1.88836C36.1442 1.95464 36.1111 2.18664 36.1111 2.58434V4.55631C36.1111 4.97059 36.3099 5.18601 36.7077 5.18601H39.7899C40.2042 5.18601 40.4196 4.98716 40.4196 4.58945V1.25865C40.4196 0.74495 40.6516 0.496383 41.1653 0.512954C42.4744 0.579238 43.3858 0.778092 43.8995 1.10951C44.0652 1.44094 43.8664 1.70607 43.3195 1.90493C43.2532 1.97121 43.2201 2.20321 43.2201 2.60092V4.57288C43.2201 4.98716 43.3361 5.20258 43.5515 5.20258C43.8995 5.26887 44.1647 5.1363 44.3304 4.80487C44.9104 3.95975 45.4406 3.36319 45.8881 3.04834C46.5509 3.2969 47.3297 3.87689 48.1914 4.80487C48.5394 5.28544 48.7217 5.58372 48.7217 5.69971C48.6389 5.79914 48.324 5.84886 47.7937 5.84886H43.8664C43.4521 5.84886 43.2367 6.04771 43.2367 6.44542V9.77621C43.2367 10.1905 43.4355 10.4059 43.8332 10.4059C44.3967 10.4059 44.9932 10.4059 45.6063 10.3562C45.6726 10.3231 45.7886 10.2071 45.9378 10.0082C46.5178 9.16308 47.048 8.56652 47.4955 8.25167C48.1583 8.50023 48.9371 9.08022 49.7988 10.0082C50.1468 10.4888 50.3291 10.787 50.3291 10.903C50.2463 11.0025 49.9314 11.0522 49.4011 11.0522H28.8364L28.041 11.1848C27.5107 11.2842 27.1627 11.0853 27.0135 10.6048L26.9473 10.3065C26.9473 10.3065 27.2455 10.2402 27.7427 10.2899C28.0575 10.2899 28.4055 10.3562 28.7701 10.4225H32.6974C33.1117 10.4225 33.3271 10.2236 33.3271 9.82592V6.49513C33.3271 6.08085 33.1283 5.86543 32.7306 5.86543H30.2449L29.4495 6.01457C28.9192 6.06428 28.5878 5.93171 28.4718 5.63343C28.389 5.21915 28.6375 5.03687 29.2175 5.08658C29.8638 5.21915 31.0238 5.26887 32.6974 5.21915C33.1117 5.21915 33.3271 5.0203 33.3271 4.62259V1.22551H33.3106ZM31.0238 13.455C31.0238 12.9413 31.2889 12.7424 31.8026 12.8584C32.366 13.0242 32.9626 13.2561 33.5757 13.5544C33.8574 13.7201 34.2054 13.803 34.6031 13.803H41.6956C42.1596 13.9024 42.5241 13.7699 42.8058 13.4219C43.1207 12.9744 43.3692 12.6927 43.5515 12.5933C44.2475 12.6596 45.1258 13.0242 46.1532 13.7036C46.8658 14.1178 46.9155 14.5156 46.3023 14.8801C45.8715 14.9464 45.7058 15.2613 45.8218 15.8081V22.8508C46.0372 23.9279 45.5235 24.5245 44.2972 24.6239C43.3858 24.7399 42.955 24.3588 43.0378 23.464C43.0378 23.0828 42.839 22.884 42.4413 22.884H34.4043C33.99 22.884 33.7746 23.1325 33.758 23.6297C33.6751 24.0274 33.4597 24.2925 33.1117 24.4251C32.598 24.7234 31.9849 24.7399 31.2558 24.4582C31.0403 24.2594 30.9575 23.8948 31.0238 23.3811V13.4384V13.455ZM43.0544 15.1784C43.0544 14.7144 42.839 14.4824 42.4247 14.4824H34.454C34.0066 14.4824 33.7746 14.6978 33.7746 15.1121V17.4984C33.7746 17.9126 33.9734 18.1281 34.3711 18.1281H42.4081C42.8224 18.1281 43.0378 17.9292 43.0378 17.5315V15.195L43.0544 15.1784ZM43.0544 19.4206C43.0544 19.0063 42.8555 18.7909 42.4578 18.7909H34.4208C34.0066 18.7909 33.7911 18.9898 33.7911 19.3875V21.6246C33.7911 22.0388 33.99 22.2543 34.3877 22.2543H42.4247C42.839 22.2543 43.0544 22.0554 43.0544 21.6577V19.4206ZM40.4196 6.49513C40.4196 6.08085 40.2207 5.86543 39.823 5.86543H36.7408C36.3265 5.86543 36.1111 6.06428 36.1111 6.46199V9.79278C36.1111 10.2071 36.3099 10.4225 36.7077 10.4225H39.7899C40.2042 10.4225 40.4196 10.2236 40.4196 9.82592V6.49513Z" fill="#6B6B6B"/>
<path d="M71.4932 1.1273C71.9406 0.265599 72.504 0.0998873 73.1503 0.630163C73.8794 0.895301 74.5588 1.27644 75.1554 1.757C75.6691 2.22099 75.636 2.60213 75.0228 2.88384C74.5754 2.98326 74.4263 3.28154 74.5754 3.77868V23.1006C74.2274 23.8794 73.548 24.244 72.5206 24.1612C71.7252 24.012 71.4103 23.5315 71.6258 22.7029V21.9241C71.6258 21.5098 71.4269 21.2944 71.0292 21.2944H60.3905C59.9763 21.2944 59.7608 21.4932 59.7608 21.8909C59.9928 23.5315 59.1974 24.2109 57.358 23.9126C56.8775 23.6806 56.6952 23.2166 56.8112 22.504V1.42558C56.8112 0.87873 57.0763 0.663305 57.59 0.795874C58.1534 0.945014 58.7334 1.16044 59.2968 1.42558C59.6614 1.60786 60.026 1.70729 60.4071 1.70729H70.2338C70.7641 1.83986 71.1949 1.641 71.5429 1.1273H71.4932ZM60.5894 2.35356C59.91 2.22099 59.6283 2.43642 59.7443 2.98326V10.4071C59.7443 10.8214 59.9431 11.0368 60.3408 11.0368H70.9961C71.4103 11.0368 71.6258 10.838 71.6258 10.4403V3.11583C71.7583 2.43642 71.4932 2.18785 70.8469 2.37013H60.606L60.5894 2.35356ZM71.6258 12.3459C71.6258 11.8985 71.4435 11.6665 71.0789 11.6665H60.374C59.9597 11.6665 59.7443 11.8654 59.7443 12.2631V20.0018C59.7443 20.4161 59.9431 20.6315 60.3408 20.6315H70.9961C71.4103 20.6315 71.6258 20.4327 71.6258 20.0349V12.3459Z" fill="#6B6B6B"/>
<path d="M91.2094 1.30957C91.6237 0.795869 91.8723 0.530731 91.9551 0.51416C92.4357 0.630158 93.1317 1.14386 94.0099 2.07185C94.4076 2.60212 94.6065 2.9004 94.6065 2.96669C94.4739 3.16554 94.1425 3.23182 93.6122 3.16554H89.254C88.8563 3.16554 88.5415 3.41411 88.3095 3.91124C87.7792 5.23693 86.8843 6.57919 85.6249 7.97117C85.2604 8.3523 85.3101 8.53458 85.8072 8.50144C87.3649 8.41859 88.9226 8.30259 90.4637 8.15345C90.8946 8.10373 90.9774 7.82203 90.7123 7.32489C90.5466 7.01004 90.1157 6.56262 89.4032 5.9992C89.254 5.83349 89.3037 5.70092 89.5523 5.61807C91.1928 5.9992 92.5682 6.72833 93.6785 7.78888C94.4408 8.65058 94.7059 9.49571 94.4739 10.2911C94.3911 11.0203 93.9768 11.4345 93.2145 11.5174C92.1705 11.4014 91.6071 10.6888 91.5574 9.37971C91.4083 8.93229 91.0934 8.76658 90.6294 8.89915C90.1488 9.01515 89.6683 9.16429 89.1712 9.33C88.7735 9.47914 88.5746 9.76085 88.5746 10.1586V14.0859C88.5746 14.5002 88.7735 14.7156 89.1712 14.7156C89.5689 14.7156 89.95 14.5168 90.298 14.1191L90.9443 13.2905C91.2591 12.5614 91.7563 12.5282 92.4191 13.2242C93.1979 13.8373 93.7945 14.467 94.1756 15.0802C94.0265 15.3785 93.6785 15.4779 93.1151 15.3785H89.1877C88.7734 15.3785 88.558 15.5773 88.558 15.975V19.2561C88.558 19.6538 88.8066 19.8361 89.3037 19.7864C90.6957 19.5875 92.1042 19.3224 93.5459 18.991C94.0431 18.9412 94.3248 18.9744 94.3745 19.0904C94.3911 19.2064 94.0596 19.4218 93.3968 19.7201C90.6957 20.8304 87.3483 21.8909 83.3713 22.9515C82.9901 23.1337 82.7747 23.2995 82.725 23.432C82.6587 23.6806 82.493 23.7634 82.2279 23.6806C82.029 23.5314 81.8301 23.1503 81.6313 22.5538L81.2336 21.5595C81.0844 20.9464 81.2999 20.6315 81.913 20.6315L85.1941 20.3001C85.5918 20.2338 85.7906 20.0018 85.7906 19.6041V16.0247C85.7906 15.6105 85.5918 15.395 85.1941 15.395C83.653 15.3619 82.6256 15.395 82.0787 15.5276C81.5484 15.627 81.2004 15.4282 81.0513 14.9476L80.985 14.6493C80.985 14.6493 81.2833 14.5665 81.7804 14.6162C82.4598 14.7488 83.5867 14.7985 85.1609 14.7488C85.5752 14.7488 85.7906 14.5499 85.7906 14.1522V10.9208C85.7906 10.5231 85.5421 10.374 85.0449 10.4734C84.465 10.5894 83.8684 10.7385 83.2884 10.9043C82.8907 11.0037 82.6256 11.1528 82.5096 11.3351C82.1616 11.766 81.8799 11.65 81.681 10.954C81.449 10.4568 81.2833 9.94313 81.1839 9.446C81.101 8.83286 81.3164 8.53458 81.8633 8.55115L83.4873 8.5843C83.885 8.5843 84.1998 8.33573 84.4152 7.8386C84.8627 6.61233 85.2107 5.27007 85.4592 3.81181C85.4924 3.41411 85.3101 3.21525 84.9124 3.21525C83.4541 3.16554 82.4433 3.21525 81.8799 3.36439C81.333 3.41411 81.0016 3.28154 80.9022 2.98326C80.8027 2.56898 81.0513 2.3867 81.6479 2.43641C81.9461 2.43641 82.2776 2.50269 82.6256 2.56898H89.4694C89.9169 2.70155 90.2648 2.56898 90.5134 2.17127L91.1597 1.37586L91.2094 1.30957ZM95.6007 4.25923V3.36439C95.7333 3.33125 95.8825 3.33125 96.0813 3.36439C96.7442 3.43068 97.4236 3.5301 98.0864 3.6461C98.7493 3.66267 99.0641 3.94438 99.0144 4.49123L98.3184 4.97179C98.2687 5.05465 98.2521 5.30321 98.2521 5.70092V17.7978C98.103 18.3778 97.6887 18.6761 96.9927 18.6761C95.8659 18.643 95.4019 18.1458 95.6173 17.1681V4.25923H95.6007ZM100.539 1.37586C100.589 0.845583 100.854 0.580445 101.334 0.597016C101.931 0.6633 102.561 0.762727 103.207 0.878725C103.571 0.895296 103.853 1.01129 104.035 1.22672C104.185 1.54157 103.969 1.80671 103.389 2.00556C103.323 2.07185 103.29 2.30384 103.29 2.70155V22.04C103.19 22.7692 102.726 23.3823 101.881 23.8463C101.218 24.1777 100.506 24.3269 99.7767 24.2771C99.7104 24.2274 99.6441 24.0617 99.5944 23.7966C99.2961 22.9183 98.6333 22.3218 97.5893 22.04C97.175 21.9738 97.059 21.8081 97.2413 21.5429C97.3573 21.4932 97.6721 21.4601 98.1693 21.4601C99.1635 21.4932 99.843 21.4601 100.191 21.3938C100.506 21.2281 100.622 20.8966 100.539 20.3995V1.37586Z" fill="#6B6B6B"/>
<path d="M117.527 1.47474C117.775 0.845033 117.941 0.513611 118.007 0.480469C118.637 0.596467 119.283 0.79532 119.913 1.06046C120.576 1.24274 121.023 1.49131 121.239 1.80616C121.305 2.00501 121.222 2.15415 120.957 2.23701C120.808 2.28672 120.824 2.50215 121.023 2.86671C123.144 6.11465 125.779 8.25232 128.911 9.31288C129.574 9.5283 130.253 9.71058 130.916 9.84315C131.447 9.97572 131.695 10.0917 131.662 10.1746C131.629 10.2906 131.364 10.4563 130.867 10.6717C129.955 11.2186 129.392 11.782 129.209 12.3454C129.027 12.8425 128.895 13.1077 128.828 13.1408C126.077 12.3122 123.724 10.2077 121.786 6.86035C121.139 5.58437 120.642 4.45754 120.327 3.4467C120.195 3.04899 119.963 3.09871 119.631 3.59584C116.301 8.18604 112.357 11.1523 107.75 12.4614C107.684 12.4117 107.65 12.3288 107.65 12.2294C112.39 9.27973 115.671 5.6838 117.494 1.47474H117.527ZM124.089 14.0356C124.371 13.6214 124.686 13.5717 125.033 13.8865C125.746 14.2179 126.376 14.6819 126.906 15.2951C127.005 15.5602 126.889 15.7259 126.525 15.7922C126.293 15.875 126.127 16.1402 126.044 16.571C125.249 19.239 124.387 21.5755 123.459 23.5806C123.327 23.9286 123.028 24.144 122.581 24.2269C121.918 24.376 121.305 24.2766 120.775 23.8955C120.675 23.796 120.692 23.448 120.841 22.8515C121.951 20.5315 122.813 18.2447 123.443 15.991C123.542 15.5933 123.393 15.3945 122.995 15.3945H112.39L111.594 15.527C111.064 15.6265 110.749 15.527 110.666 15.1791C110.567 14.8145 110.782 14.6322 111.296 14.6488C111.611 14.6488 111.959 14.7151 112.323 14.7813H122.747C123.144 14.7813 123.575 14.5328 124.056 14.0522L124.089 14.0356ZM120.51 9.19688C120.841 8.68317 121.139 8.43461 121.404 8.46775C122.117 8.86546 122.846 9.44545 123.559 10.1911C123.94 10.7049 124.122 11.0031 124.106 11.0694C123.956 11.2683 123.608 11.3346 123.078 11.2683H115.439L114.643 11.4008C114.113 11.4837 113.782 11.3677 113.666 11.0528C113.566 10.6386 113.815 10.4563 114.411 10.506C114.726 10.506 115.041 10.5391 115.356 10.6054H118.687C119.217 10.8043 119.698 10.506 120.095 9.71058L120.493 9.21345L120.51 9.19688Z" fill="#6B6B6B"/>
<path d="M138.951 0.745501C138.951 0.231796 139.183 -0.0167709 139.697 -0.000199791C140.989 0.0660847 141.901 0.281509 142.448 0.629503C142.58 0.87807 142.448 1.09349 142.05 1.27578C141.851 1.35863 141.752 1.6072 141.752 2.00491V3.06546C141.752 3.47974 141.967 3.69516 142.398 3.69516C142.878 3.69516 143.26 3.49631 143.525 3.11517C143.79 2.68432 144.088 2.27004 144.419 1.88891C144.535 1.80605 144.9 2.00491 145.497 2.48547C145.745 2.73404 145.961 2.9826 146.143 3.23117C146.425 3.7283 146.574 4.02658 146.574 4.10944C146.425 4.35801 146.077 4.44086 145.546 4.35801H142.365C141.95 4.35801 141.735 4.55686 141.735 4.95457V6.47911C141.735 6.89339 141.868 7.10881 142.133 7.10881C142.398 7.10881 142.696 6.9431 143.011 6.62825C143.342 6.03169 143.839 5.9654 144.519 6.4294C145.596 6.9431 146.259 7.40709 146.524 7.8048C146.59 8.02022 146.458 8.21908 146.126 8.38479C145.795 8.53393 145.662 8.86535 145.745 9.36248V14.6984C145.729 15.0464 145.48 15.3115 144.999 15.4772C143.939 15.9247 143.26 15.7258 142.994 14.8475C142.961 14.599 142.746 14.4664 142.365 14.4664C141.95 14.4664 141.735 14.6652 141.735 15.063V16.9686C141.735 17.3829 141.95 17.5983 142.381 17.5983C142.862 17.5983 143.243 17.3995 143.508 17.0183C143.773 16.5875 144.071 16.1732 144.403 15.7921C144.519 15.7092 144.883 15.9081 145.48 16.3886C145.729 16.6372 145.944 16.8858 146.126 17.1343C146.408 17.6315 146.557 17.9298 146.557 18.0126C146.408 18.2612 146.06 18.344 145.53 18.2612H142.348C141.934 18.2612 141.718 18.46 141.718 18.8577V23.5142C141.569 24.1108 141.155 24.4091 140.492 24.4091C139.349 24.5913 138.835 24.0776 138.918 22.8514V18.8743C138.918 18.46 138.719 18.2446 138.321 18.2446C137.062 18.2115 136.167 18.2446 135.587 18.3772C135.04 18.4435 134.725 18.3275 134.643 18.0292C134.56 17.6315 134.808 17.4492 135.372 17.4823C136.034 17.5818 137.012 17.6149 138.305 17.5818C138.719 17.5818 138.934 17.3829 138.934 16.9852V15.0795C138.934 14.6652 138.752 14.4498 138.388 14.4498C138.023 14.4498 137.808 14.6984 137.791 15.1955C137.559 15.8584 136.996 16.2064 136.117 16.2229C135.206 16.1898 134.841 15.7921 135.057 15.0132V6.8271C135.057 6.29683 135.322 6.09797 135.836 6.24711C136.432 6.4294 137.012 6.66139 137.559 6.92653C137.741 7.02596 138.006 7.07567 138.354 7.07567C138.736 7.07567 138.934 6.87682 138.934 6.47911V4.95457C138.934 4.54029 138.736 4.32486 138.338 4.32486C137.078 4.29172 136.184 4.32486 135.604 4.45743C135.057 4.52372 134.742 4.40772 134.659 4.10944C134.576 3.71173 134.825 3.52945 135.388 3.56259C136.051 3.66202 137.029 3.69516 138.321 3.66202C138.736 3.66202 138.951 3.46316 138.951 3.06546V0.745501ZM138.504 7.77166C138.056 7.77166 137.824 7.97051 137.824 8.36822V9.89276C137.824 10.307 138.023 10.5225 138.421 10.5225H142.348C142.762 10.5225 142.978 10.3236 142.978 9.9259V8.45107C142.978 8.00365 142.762 7.77166 142.332 7.77166H138.504ZM142.978 11.8482C142.978 11.4007 142.796 11.1687 142.431 11.1687H138.454C138.04 11.1687 137.824 11.3676 137.824 11.7653V13.1738C137.824 13.5881 138.023 13.8035 138.421 13.8035H142.348C142.762 13.8035 142.978 13.6047 142.978 13.207V11.8482ZM147.717 0.281509C147.767 0.198654 148.049 0.264938 148.546 0.480363C148.96 0.662645 149.374 0.87807 149.805 1.11007C150.253 1.35863 150.65 1.4912 150.982 1.4912H153.782C154.13 1.44149 154.412 1.19292 154.627 0.745501C155.042 0.314652 155.522 0.198654 156.052 0.397507C156.881 0.811785 157.56 1.22606 158.058 1.65691C158.522 2.20376 158.356 2.61804 157.56 2.91632C157.229 3.16488 157.096 3.52945 157.179 3.99344V22.1057C157.113 22.5034 157.014 22.8348 156.881 23.0999C156.5 23.8125 155.787 24.2765 154.76 24.4588C154.23 24.4919 153.882 24.2599 153.732 23.7628C153.6 23.1497 153.169 22.6525 152.423 22.3045C151.893 22.1057 151.611 21.9565 151.595 21.8737C151.595 21.7577 151.595 21.6748 151.661 21.6251C152.208 21.592 152.771 21.5754 153.318 21.592C154.196 21.592 154.561 21.128 154.395 20.2663V15.2287C154.395 14.8144 154.196 14.599 153.799 14.599H150.766C150.369 14.599 150.12 14.8475 150.021 15.3447C149.905 16.4052 149.623 17.648 149.175 19.1063C148.148 21.7411 146.507 23.4479 144.287 24.2102C144.187 24.1439 144.287 23.8622 144.569 23.3651C144.983 22.7188 145.43 22.056 145.894 21.4097C146.425 20.2 146.839 18.8743 147.121 17.3995C147.303 16.7366 147.435 15.4772 147.502 13.6213L147.684 6.36311V1.22606C147.684 0.662645 147.701 0.347794 147.734 0.281509H147.717ZM154.412 9.21334C154.412 8.78249 154.213 8.56707 153.832 8.56707H151.048C150.634 8.56707 150.418 8.76592 150.418 9.16363L150.236 13.2733C150.236 13.6875 150.418 13.903 150.816 13.903H153.766C154.18 13.903 154.395 13.7041 154.395 13.3064V9.22992L154.412 9.21334ZM154.379 2.30319C154.312 2.20376 154.08 2.15405 153.699 2.15405H151.065C150.65 2.15405 150.435 2.3529 150.435 2.75061V7.25795C150.435 7.67223 150.634 7.88765 151.031 7.88765H153.766C154.18 7.88765 154.395 7.6888 154.395 7.29109V2.94946L154.362 2.30319H154.379Z" fill="#6B6B6B"/>
<path d="M8.25395 32.0154C8.73451 31.684 9.28136 31.6674 9.91106 31.9989C10.9053 32.5126 11.5516 33.0428 11.8333 33.5731C11.7339 34.0371 11.4025 34.1697 10.8556 33.9708C10.1265 34.12 9.38078 34.3023 8.65165 34.5011C8.20423 34.6337 7.97224 34.8822 7.97224 35.2468V38.3787C7.97224 38.793 8.17109 39.0085 8.5688 39.0085H12.2807C12.6784 39.0085 12.8773 38.7599 12.8607 38.2627C12.695 35.2634 12.6287 33.0594 12.6619 31.6674C12.7116 31.6012 13.0099 31.6012 13.5567 31.684C14.1367 31.7834 14.7498 31.916 15.3795 32.0817C15.9264 32.3137 16.2247 32.4794 16.2578 32.5789C16.3904 32.8771 16.2578 33.1423 15.8767 33.3743C15.6447 33.5068 15.5121 33.7885 15.479 34.2028V36.8873C15.479 37.3845 15.5121 37.8816 15.5618 38.3953C15.6115 38.793 15.8435 38.9919 16.2412 38.9919C16.8378 38.9919 17.4675 38.9919 18.1138 38.9422C18.2795 38.8262 18.528 38.5445 18.8429 38.097C19.0749 37.7656 19.34 37.4342 19.6217 37.1028C19.9697 36.6222 20.4503 36.7051 21.08 37.3513C22.1074 38.1136 22.7537 38.8262 23.0022 39.489C22.9028 39.605 22.588 39.6713 22.0577 39.6713H16.2744C15.8767 39.6713 15.6778 39.9199 15.6944 40.417C15.9098 42.4221 16.2578 44.1621 16.7549 45.6203C16.9206 46.0677 17.1361 46.0677 17.3846 45.6203C17.7658 44.8746 18.1303 43.8638 18.4618 42.5878C18.5943 42.041 18.9589 41.809 19.5389 41.8918C20.2349 42.041 20.9143 42.2398 21.544 42.4718C21.9086 42.5712 22.1571 42.7701 22.2731 43.0684C22.2234 43.2838 22.0743 43.4164 21.8423 43.4495C21.66 43.4827 21.4446 43.6815 21.2126 44.0461C20.5331 45.3883 19.7377 46.6643 18.8595 47.874C18.4783 48.3711 18.4618 48.8683 18.8098 49.382C19.5389 50.31 20.1852 50.7905 20.732 50.8071C21.1629 50.6911 21.5274 50.31 21.8423 49.6803C22.0246 49.1665 22.1571 48.8848 22.2234 48.8517C22.4057 48.7688 22.5383 48.8517 22.6045 49.1003C22.6377 49.1997 22.6045 49.4151 22.5051 49.7465C22.4057 50.078 22.3394 50.4094 22.3063 50.7408C22.1737 51.4037 22.6211 52.1493 23.632 52.9779C24.1125 53.7236 24.0959 54.3533 23.5822 54.8339C23.2011 55.1156 22.588 55.1653 21.7594 54.983C20.1354 54.5024 18.528 53.3093 16.9206 51.4202C16.5395 50.9231 16.0921 50.8734 15.595 51.2711C13.6893 52.7625 11.6842 53.8065 9.57964 54.4362C8.86708 54.5853 8.5688 54.5853 8.6848 54.4196C10.955 53.243 12.9601 51.6854 14.7001 49.7134C15.131 49.1997 15.2304 48.686 14.9984 48.1889C14.0041 45.8192 13.3579 43.1844 13.0927 40.301C13.043 39.8867 12.811 39.6713 12.4133 39.6713H8.63508C8.2208 39.6713 8.00538 39.8701 8.00538 40.2679V43.5821C8.00538 43.9964 8.27052 44.0958 8.78422 43.8804L10.5076 43.1015C11.1705 42.7701 11.5185 42.6707 11.535 42.8198C11.535 42.9192 11.2367 43.2175 10.7065 43.6981C10.0436 44.2284 9.36421 44.7255 8.70137 45.1729C8.23738 45.4712 8.00538 45.8192 8.00538 46.2169V52.4476C7.7071 54.0053 6.64655 54.8339 4.82372 54.9333C4.19402 54.9333 3.8626 54.6847 3.82946 54.1379C3.77974 53.5082 3.33232 52.9779 2.50377 52.5636C1.99006 52.3316 1.70835 52.1659 1.65864 52.0665C1.6255 51.9174 1.89064 51.8345 2.43748 51.8345H4.69115C5.20486 51.7682 5.40371 51.4699 5.27114 50.9397V47.758C5.27114 47.3603 5.00601 47.2774 4.47573 47.526C3.91231 47.758 3.33232 48.0231 2.7689 48.3048C2.20549 48.454 1.97349 48.7523 2.07292 49.1831C1.95692 49.4317 1.80778 49.5311 1.64207 49.4648C1.54264 49.4317 1.34379 49.1665 1.04551 48.6694C0.680943 47.7746 0.415805 46.9129 0.250094 46.0843C0.299807 46.0015 0.581517 45.9352 1.07865 45.8855C2.03978 45.7695 3.24947 45.554 4.69115 45.2392C5.08886 45.1232 5.28772 44.8581 5.28772 44.4603V40.301C5.28772 39.8867 5.08886 39.6713 4.69115 39.6713H1.89064L1.09522 39.8039C0.564945 39.8867 0.233523 39.7707 0.117525 39.4559C0.0015272 39.0416 0.250094 38.8593 0.863226 38.909C1.17808 38.9256 1.49293 38.9753 1.80778 39.0416H4.65801C5.07229 39.0416 5.28772 38.8427 5.28772 38.445V35.8931C5.28772 35.4954 5.03915 35.3131 4.54202 35.3462C3.61403 35.4788 2.66948 35.5782 1.7415 35.6445C1.24436 35.6777 0.962652 35.6777 0.896368 35.6279C0.92951 35.3628 1.07865 35.2302 1.32722 35.2468C4.09459 34.4182 6.43112 33.3577 8.3368 32.0652L8.25395 32.0154ZM17.2189 32.1646C17.2521 32.0651 17.5338 32.032 18.0641 32.0983C20.0857 32.4629 21.1463 33.4074 21.2457 34.932C21.0137 36.0919 20.3509 36.4399 19.2406 35.9759C18.7766 35.6611 18.5446 35.1805 18.5612 34.5508C18.3789 33.9211 18.1303 33.4074 17.8321 33.0428C17.4178 32.5457 17.2024 32.2474 17.2024 32.1646H17.2189Z" fill="#6B6B6B"/>
<path d="M29.9968 31.7826C30.0796 31.2689 30.3779 31.0369 30.8916 31.0867C31.4384 31.1364 32.0184 31.2524 32.615 31.4181C33.2116 31.7329 33.5098 31.9484 33.4933 32.0478C33.4601 32.1472 33.3276 32.2798 33.1121 32.4455C32.7641 32.5615 32.5487 32.8432 32.4824 33.2906C32.151 34.4837 31.7202 35.6437 31.2065 36.7706C31.0076 37.2014 31.0905 37.5163 31.4882 37.7151C31.7367 37.8311 31.9853 37.9802 32.2339 38.1625C32.3001 38.2454 32.2339 38.4277 32.0019 38.6928C31.7367 38.9414 31.6042 39.2728 31.6042 39.6705V54.5016C31.5544 54.9159 31.3059 55.1811 30.875 55.2805C29.4168 55.6285 28.7374 55.1479 28.8534 53.8222V41.5265C28.8534 41.0956 28.6379 41.1619 28.2071 41.7253C27.9917 41.9407 27.7928 42.1562 27.6271 42.3716C27.13 42.8687 26.8317 43.1339 26.7488 43.1504C26.666 43.0842 26.7157 42.8024 26.9311 42.3053C28.3894 39.3059 29.4002 35.7929 29.9802 31.7826H29.9968ZM34.2058 31.9152C34.2058 31.3849 34.4544 31.1695 34.9515 31.2689C35.4984 31.4347 36.0784 31.6666 36.6749 31.9484C37.1058 32.1638 37.4869 32.2798 37.8018 32.2798C38.1829 32.2798 38.5309 32.1306 38.8292 31.8324C39.1772 31.2524 39.6743 31.1695 40.304 31.6004C40.6354 31.7495 40.9668 31.9318 41.2983 32.1306C41.8783 32.4786 42.2262 32.7603 42.3588 32.9758C42.4582 33.1415 42.3257 33.3403 41.9777 33.5723C41.6131 33.6883 41.4805 34.0032 41.58 34.5335V39.9853C41.7457 40.9962 41.3148 41.5265 40.304 41.6093C39.3429 41.8082 38.8292 41.4768 38.796 40.6316C38.796 40.2505 38.5972 40.0516 38.1995 40.0516H37.5698C37.1555 40.0516 36.9401 40.2505 36.9401 40.6482V54.0542C36.8075 54.8496 36.3435 55.2639 35.5647 55.2805C34.4212 55.3302 33.9738 54.8496 34.1893 53.8554V31.9152H34.2058ZM38.0172 32.9426H37.8183C37.1058 32.7769 36.8241 33.0089 36.9732 33.6386V35.2626C36.9732 35.6769 37.1721 35.8923 37.5698 35.8923H38.1995C38.6137 35.8923 38.8292 35.6934 38.8292 35.2957V33.5889C38.8292 33.1249 38.564 32.9095 38.0338 32.9426H38.0172ZM38.8126 37.1683C38.8126 36.754 38.6137 36.5386 38.216 36.5386H37.5863C37.1721 36.5386 36.9566 36.7374 36.9566 37.1351V38.7425C36.9566 39.1568 37.1555 39.3722 37.5532 39.3722H38.1829C38.5972 39.3722 38.8126 39.1734 38.8126 38.7757V37.1683ZM42.9222 32.0644C42.9222 31.5009 43.1708 31.2855 43.6679 31.4346C44.2479 31.6169 44.8445 31.8324 45.4245 32.0809C45.6233 32.1969 45.9713 32.2632 46.4685 32.2632C46.9656 32.2632 47.3633 32.0975 47.6284 31.7661C47.9764 31.4347 48.457 31.3849 49.0536 31.6335C49.6667 31.9318 50.1638 32.2963 50.5284 32.7438C50.7604 33.0586 50.7438 33.3238 50.4621 33.5226C50.2964 33.6552 50.2135 33.9203 50.2135 34.318V53.0268C49.8324 54.6839 48.7056 55.4131 46.8496 55.2142C46.7999 55.1479 46.7502 54.9988 46.717 54.7834C46.6342 53.9714 46.021 53.2422 44.8611 52.6291C44.5793 52.5628 44.3971 52.4303 44.3308 52.248C44.3639 52.0326 44.6456 51.9828 45.1593 52.0988C45.7393 52.0988 46.369 52.0988 47.0153 52.0491C47.3799 51.9166 47.5124 51.6183 47.413 51.1543V40.6813C47.413 40.2671 47.2142 40.0516 46.8164 40.0516H46.3193C45.905 40.0516 45.6896 40.3002 45.673 40.7973C45.5073 41.4602 44.9439 41.8082 43.9994 41.8247C43.1045 41.8247 42.74 41.427 42.9222 40.6482V32.0478V32.0644ZM47.4296 33.622C47.4296 33.1746 47.2473 32.9426 46.8827 32.9426H46.3359C45.9216 32.9426 45.7062 33.1415 45.7062 33.5392V35.2626C45.7062 35.6769 45.905 35.8923 46.3027 35.8923H46.7999C47.2142 35.8923 47.4296 35.6934 47.4296 35.2957V33.622ZM47.4296 37.1683C47.4296 36.754 47.2307 36.5386 46.833 36.5386H46.3359C45.9216 36.5386 45.7062 36.7374 45.7062 37.1351V38.7425C45.7062 39.1568 45.905 39.3722 46.3027 39.3722H46.7999C47.2142 39.3722 47.4296 39.1734 47.4296 38.7757V37.1683Z" fill="#6B6B6B"/>
<path d="M60.4692 48.5044C60.7509 47.8582 61.1486 47.6427 61.6789 47.8582C63.0046 48.3884 63.8165 48.9022 64.1314 49.3827C64.0817 49.6479 63.8994 49.7804 63.5845 49.7804C63.3691 49.8136 63.0708 50.0456 62.7063 50.4598C60.2206 53.0284 57.2378 54.5363 53.7579 54.9672C53.5922 54.7849 53.6253 54.6358 53.8573 54.5363C53.9567 54.5363 54.0893 54.4866 54.2384 54.3872C56.8732 53.0781 58.9612 51.1227 60.4692 48.5044ZM60.0715 31.7676C60.0715 31.2539 60.3697 30.9888 60.9995 30.9888C61.6623 31.0551 62.3417 31.1545 63.0046 31.287C63.4354 31.4362 63.6508 31.635 63.6343 31.867C63.5183 32.099 63.3691 32.2316 63.2034 32.2647C62.8886 32.3642 62.7726 32.6459 62.872 33.0933V37.3686C62.872 37.7829 63.0708 37.9984 63.4685 37.9984H66.6502C67.0645 37.9984 67.2799 37.7995 67.2799 37.4018V31.8836C67.2799 31.3368 67.5119 31.0716 67.9759 31.0882C69.3347 31.1545 70.2627 31.3699 70.7598 31.7179C70.9256 31.9665 70.8096 32.1819 70.3787 32.3642C70.1799 32.447 70.0804 32.6956 70.0804 33.0933V37.3686C70.0804 37.7829 70.3124 37.9984 70.7598 37.9984H71.5553C71.8204 37.7829 72.069 37.5012 72.2844 37.1201C72.5164 36.7887 72.7815 36.4572 73.0632 36.1092C73.3946 35.5955 73.8089 35.6121 74.2895 36.159C74.8695 36.5732 75.4329 37.0704 75.9632 37.6338C76.3112 38.1475 76.4603 38.4458 76.4106 38.5286C76.3112 38.5949 76.0129 38.6281 75.5158 38.6281H70.7101C70.2958 38.6281 70.0804 38.8269 70.0804 39.2246V44.8588C70.0804 45.2731 70.2793 45.4885 70.677 45.4885H71.8535C72.2678 45.4885 72.6324 45.2896 72.9638 44.9085L73.5935 44.08C74.0078 43.2514 74.4718 43.0525 74.9689 43.5C75.8969 44.0634 76.7089 44.8422 77.3717 45.8365C77.3054 46.1348 76.974 46.2342 76.3774 46.1348H55.7133L54.9178 46.2673C54.3876 46.3668 54.0396 46.1679 53.8739 45.6874L53.791 45.3891C53.791 45.3891 54.0893 45.3062 54.5864 45.3559C54.9344 45.3725 55.2824 45.4222 55.6304 45.4885H59.4418C59.856 45.4885 60.0715 45.2896 60.0715 44.8919V39.2578C60.0715 38.8435 59.8726 38.6281 59.4749 38.6281H56.8235L56.0281 38.7606C55.4978 38.8601 55.1498 38.6778 54.9841 38.1806L54.9013 37.8824C54.9013 37.8824 55.1996 37.8161 55.6967 37.8658C56.0447 37.8658 56.3927 37.9321 56.7407 37.9984H59.4418C59.856 37.9984 60.0715 37.7995 60.0715 37.4018V31.7676ZM67.2799 39.2743C67.2799 38.8601 67.0811 38.6446 66.6833 38.6446H63.5017C63.0874 38.6446 62.872 38.8435 62.872 39.2412V44.8754C62.872 45.2896 63.0708 45.5051 63.4685 45.5051H66.6502C67.0645 45.5051 67.2799 45.3062 67.2799 44.9085V39.2743ZM67.5285 47.941C67.545 47.825 67.8267 47.7919 68.357 47.8416C70.7598 48.3222 72.7152 49.3496 74.1901 50.9238C75.3169 52.1667 75.5655 53.3266 74.9358 54.4369C73.7592 55.3649 72.8975 55.0998 72.3341 53.6415C71.6713 51.537 70.329 49.8301 68.3239 48.5376C67.8102 48.2559 67.545 48.057 67.5285 47.9576V47.941Z" fill="#6B6B6B"/>
<path d="M91.3927 31.6668C91.3927 31.1365 91.6413 30.8714 92.1384 30.8879C92.6853 30.9377 93.2653 31.0205 93.8618 31.1199C94.2098 31.1696 94.5081 31.2691 94.7401 31.4016C95.0881 31.6834 95.0218 31.9319 94.5081 32.1473C94.2927 32.2799 94.1767 32.5451 94.1767 32.9262V33.473C94.1767 33.8873 94.3755 34.1027 94.7732 34.1027H98.8829C99.2971 34.1027 99.6617 33.9039 99.9931 33.5227L100.623 32.6942C101.054 32.2468 101.319 32.0148 101.402 31.9982C102.529 32.5782 103.44 33.4399 104.103 34.5502C103.92 34.749 103.572 34.8153 103.042 34.749H86.1894C85.7751 34.749 85.5597 34.9479 85.5597 35.3456V37.649C85.5597 38.0632 85.7585 38.2787 86.1563 38.2787H87.5648C87.9791 38.2787 88.1945 38.0798 88.1945 37.6821V36.2238C88.1945 35.6936 88.4596 35.445 88.9733 35.4781C89.5368 35.5444 90.1167 35.6439 90.6802 35.7598C91.0944 35.793 91.3927 35.909 91.5584 36.0913C91.7573 36.3896 91.5916 36.6713 91.0779 36.9198C90.995 37.0358 90.9453 37.2844 90.9453 37.6655C90.9453 38.0798 91.1442 38.2952 91.5419 38.2952H93.8453C94.2595 38.2952 94.4749 38.0964 94.4749 37.6987V36.2404C94.4749 35.7101 94.7401 35.4616 95.2538 35.4947L96.9606 35.7433C97.3583 35.793 97.6566 35.909 97.8555 36.0913C98.0377 36.4393 97.8555 36.721 97.3252 36.9364C97.2589 37.0193 97.2258 37.2678 97.2258 37.6655C97.2258 38.0632 97.4246 38.2952 97.8057 38.2952C98.1869 38.2952 98.5514 38.0964 98.8829 37.6987C99.4297 36.9695 99.844 36.5055 100.142 36.3233C100.258 36.3233 100.573 36.489 101.07 36.8204C101.534 37.1518 102.081 37.6821 102.678 38.4278C102.877 38.9415 102.578 39.1238 101.783 38.9746H97.872C97.4578 38.9746 97.2423 39.1735 97.2423 39.5712V42.8026C97.4743 43.7637 97.0435 44.2774 95.9332 44.3271C95.0549 44.41 94.5578 44.0288 94.4749 43.2003C94.4749 42.9186 94.2761 42.7694 93.8784 42.7694H91.575C91.1607 42.7694 90.9453 42.8854 90.9453 43.1174C91.0116 43.714 90.7464 44.0951 90.1665 44.2443C88.7911 44.5757 88.1448 44.0786 88.1945 42.7694V39.5878C88.1945 39.1735 87.9956 38.9581 87.5979 38.9581H86.1728C85.7585 38.9581 85.5431 39.1569 85.5431 39.5546C85.5431 42.8523 85.2448 45.7025 84.698 48.1219C84.4494 49.3647 83.9357 50.6904 83.1403 52.1321C82.5769 53.143 81.8975 53.9715 81.1352 54.5846C80.6546 54.8995 80.3729 55.0321 80.3066 54.9658C80.5552 54.2532 80.8369 53.5241 81.1518 52.8115C82.1792 49.547 82.726 45.6031 82.7757 40.93V33.6719C82.7757 33.1085 83.1072 32.9428 83.7534 33.1913L84.7477 33.6387C85.3443 34.0199 85.858 34.169 86.2557 34.0862H90.7464C91.1607 34.0862 91.3762 33.8873 91.3762 33.4896V31.6668H91.3927ZM97.1926 44.8077C97.64 44.2443 98.0046 43.9791 98.2697 44.0288C99.032 44.526 99.7114 45.1722 100.275 45.9511C100.606 46.5476 100.341 46.8459 99.496 46.8459C99.264 46.9288 98.9989 47.2271 98.7172 47.7242C98.1703 48.5528 97.3749 49.4642 96.3641 50.4584C95.9664 50.823 96.0161 51.0881 96.5132 51.2538C98.6177 51.8836 101.004 52.1984 103.655 52.1818C103.838 52.4635 103.655 52.6955 103.109 52.8612C102.529 53.2258 102.147 53.6898 101.949 54.2698C101.816 54.8166 101.717 55.1149 101.667 55.1646C101.435 55.2309 101.07 55.2143 100.557 55.0983C98.1537 54.6178 96.0161 53.8389 94.1601 52.7618C93.779 52.5298 93.3315 52.5464 92.8013 52.8115C89.5533 54.4024 85.9905 55.0321 82.0798 54.6841C81.9803 54.6178 81.9306 54.5515 81.9306 54.4852C81.9969 54.4355 82.2786 54.3692 82.7757 54.3029C85.7254 54.0212 88.4928 53.0932 91.0447 51.5521C91.5253 51.2538 91.575 50.9059 91.1773 50.5081C89.9842 49.2156 89.1722 47.8733 88.7413 46.4482C88.6751 46.0505 88.3934 45.8517 87.8962 45.8682L87.2665 45.9677C86.7362 46.0505 86.4214 45.9345 86.3054 45.6197C86.2225 45.2385 86.438 45.0562 86.9517 45.0728C87.2665 45.0728 87.6145 45.106 87.9791 45.1722H96.0492C96.5132 45.2717 96.8778 45.1391 97.1595 44.7911L97.1926 44.8077ZM96.2481 46.5145C96.4966 46.0837 96.4303 45.8682 96.0492 45.8682H89.9179C89.5036 45.8682 89.4373 46.1334 89.7356 46.6471C90.6967 47.9231 91.6744 48.8842 92.7184 49.547C93.1493 49.8122 93.547 49.7624 93.9281 49.3979C94.8892 48.4699 95.6681 47.5088 96.2646 46.5145H96.2481ZM94.4915 39.6209C94.4915 39.1735 94.3092 38.9415 93.9447 38.9415H91.5916C91.1773 38.9415 90.9619 39.1404 90.9619 39.5381V41.4603C90.9619 41.8746 91.1607 42.09 91.5584 42.09H93.8618C94.2761 42.09 94.4915 41.8912 94.4915 41.4935V39.6209Z" fill="#6B6B6B"/>
<path d="M112.407 30.7895C112.489 30.6073 112.672 30.5907 112.953 30.7398C113.914 31.0878 114.76 31.5187 115.456 32.0158C116.135 32.4964 116.118 32.8609 115.406 33.0929C114.975 32.9935 114.577 33.3249 114.196 34.0872C113.948 34.4849 114.014 34.6838 114.428 34.6838H124.802C125.266 34.8163 125.614 34.6838 125.829 34.2861C126.045 33.9546 126.293 33.6232 126.575 33.2918C126.989 32.8112 127.238 32.5627 127.321 32.5461C127.917 32.7118 128.696 33.2918 129.657 34.2695C130.022 34.7335 130.204 35.0317 130.204 35.1477C130.121 35.2803 129.806 35.3466 129.276 35.3466H113.997C113.6 35.3466 113.185 35.5952 112.771 36.0923C111.363 37.8488 109.904 39.1248 108.363 39.9534C107.717 40.1688 107.402 40.2185 107.419 40.0859C107.419 40.0031 107.551 39.8539 107.767 39.6551C108.893 38.5117 109.838 37.186 110.6 35.6449C111.329 34.0872 111.943 32.4632 112.407 30.7895ZM112.158 37.2026C112.241 37.1197 112.572 37.2026 113.136 37.4511C113.467 37.5671 113.798 37.7163 114.13 37.8986C114.594 38.2466 115.025 38.3791 115.439 38.2797H124.288C124.686 38.2797 125.034 38.0643 125.315 37.65C125.597 37.0203 126.011 36.9209 126.575 37.3517C127.205 37.6334 127.884 38.0808 128.58 38.7105C128.878 39.0585 128.812 39.3734 128.381 39.6551C127.95 39.7545 127.751 40.0197 127.785 40.4505L127.635 43.0356C127.635 43.4333 127.834 43.3836 128.215 42.8865C128.646 42.439 128.911 42.207 128.994 42.1905C130.005 42.7539 130.867 43.5327 131.546 44.527C131.513 44.875 131.182 44.991 130.568 44.875H128.166C127.768 44.875 127.536 45.1236 127.486 45.6207L127.155 49.3492C127.138 49.8463 127.304 49.9126 127.652 49.5315L127.934 49.2001C128.348 48.7526 128.613 48.5206 128.712 48.5206C129.442 48.9184 130.121 49.4652 130.734 50.1446C131.066 50.6915 131.215 51.0063 131.165 51.0726C131.082 51.1389 130.784 51.172 130.287 51.172H127.553C127.155 51.172 126.89 51.4206 126.757 51.9177C126.061 54.5525 124.387 55.7291 121.769 55.4474C121.686 55.3811 121.62 55.0994 121.57 54.6022C121.487 53.9725 120.941 53.3428 119.946 52.7297C119.946 52.6303 119.946 52.5474 119.996 52.4811C121.438 52.5309 122.432 52.4811 122.995 52.332C123.277 52.2326 123.559 51.9674 123.841 51.5366C123.973 51.3046 123.841 51.1886 123.459 51.1886H113.268C112.87 51.1886 112.589 51.4372 112.44 51.9343C112.357 52.7463 111.943 53.144 111.213 53.1108C109.656 53.1108 109.175 52.448 109.755 51.1389C110.269 49.0509 110.683 47.1618 111.015 45.4716C111.048 45.0739 110.865 44.875 110.468 44.875C110.153 44.875 109.705 44.9081 109.142 45.0241C108.595 45.0739 108.264 44.9579 108.164 44.643C108.065 44.2287 108.297 44.0464 108.893 44.0962C109.457 44.1624 110.037 44.1956 110.6 44.1956C110.998 44.1956 111.247 43.947 111.346 43.4499L112.175 37.2191L112.158 37.2026ZM124.686 45.5213C124.719 45.0904 124.553 44.875 124.155 44.875H114.428C114.03 44.875 113.765 45.1236 113.649 45.6207L112.87 49.8298C112.804 50.2772 112.953 50.5092 113.318 50.5092H123.509C123.907 50.5092 124.155 50.2606 124.255 49.7635C124.421 48.3549 124.553 46.9464 124.653 45.5378L124.686 45.5213ZM125.067 39.6882C125.216 39.1082 125.001 38.8597 124.421 38.9591H115.406C114.892 39.0088 114.594 39.2905 114.528 39.8042L114.03 43.5327C113.964 43.9636 114.13 44.179 114.511 44.179H124.172C124.57 44.179 124.802 43.9304 124.851 43.4333L125.083 39.6717L125.067 39.6882ZM117.03 45.8196C117.03 45.687 117.312 45.6207 117.825 45.6207C118.687 45.7367 119.366 45.9687 119.83 46.3001C120.659 46.8635 121.106 47.4767 121.156 48.1064C121.206 49.0012 120.891 49.6143 120.195 49.9292C119.35 50.1943 118.77 49.9126 118.472 49.0509C118.339 48.1229 118.173 47.4435 117.991 47.0458C117.825 46.6647 117.494 46.2504 117.013 45.8196H117.03ZM117.278 39.6882C117.361 39.6054 117.66 39.5722 118.157 39.5888C118.902 39.6717 119.532 39.8208 120.029 40.0362C121.454 40.6494 121.968 41.6105 121.603 42.9196C121.471 43.3505 121.106 43.6322 120.526 43.7482C119.996 43.8807 119.532 43.6156 119.151 42.9693C118.969 41.9585 118.588 41.1299 117.991 40.4671C117.494 40.0197 117.245 39.7545 117.262 39.6882H117.278Z" fill="#6B6B6B"/>
<path d="M154.413 40.5996C154.827 40.0858 155.109 39.8041 155.241 39.771C155.506 39.771 155.937 40.0527 156.55 40.5498C157.263 41.1298 157.826 41.7264 158.207 42.323C158.091 42.6544 157.743 42.7704 157.18 42.6544H136.416L135.621 42.8035C135.091 42.8864 134.759 42.7538 134.643 42.4224C134.544 42.0081 134.776 41.8258 135.372 41.8755C135.671 41.8755 136.002 41.9087 136.35 41.975H152.64C153.12 42.0744 153.468 41.9418 153.684 41.5938C153.899 41.2624 154.148 40.931 154.429 40.583L154.413 40.5996Z" fill="#6B6B6B"/>
<path d="M167.837 31.8827C168.383 31.5182 168.93 31.4519 169.444 31.7005C170.339 32.1645 171.018 32.6616 171.466 33.2084C171.631 33.5896 171.449 33.7884 170.886 33.7884C170.77 33.7553 170.621 33.7553 170.455 33.805L168.483 34.2524C168.035 34.3684 167.803 34.6004 167.803 34.9484V38.5609C167.803 38.9586 167.87 39.174 168.002 39.1906C168.334 39.1243 168.682 38.7598 169.03 38.1135C169.444 37.6329 169.693 37.3844 169.759 37.3844C170.521 37.8483 171.134 38.5609 171.582 39.4889C171.582 39.8037 171.25 39.9197 170.604 39.8369H168.417C168.002 39.8369 167.787 40.102 167.787 40.6157C167.787 41.1294 168.035 41.494 168.533 41.6928C170.107 42.4054 171.018 43.3665 171.267 44.5762C171.267 45.5373 170.935 46.1505 170.289 46.3825C169.51 46.5813 168.947 46.2168 168.632 45.3054C168.632 44.5762 168.499 43.8968 168.284 43.3002C167.953 42.7534 167.787 42.7203 167.787 43.2008V54.4692C167.754 54.8006 167.489 55.0657 167.008 55.2646C165.666 55.5463 165.036 55.0657 165.102 53.8063V47.4927C165.102 46.9293 165.003 46.9127 164.804 47.443C164.241 48.835 163.495 49.9287 162.6 50.7241C161.987 51.155 161.639 51.3372 161.556 51.2544C161.49 51.155 161.589 50.8401 161.838 50.3098C163.445 47.0619 164.489 43.7642 164.97 40.4334C165.019 40.0357 164.837 39.8369 164.439 39.8369C163.627 39.7872 162.666 39.87 161.589 40.0854C161.506 40.0357 161.44 39.8866 161.39 39.638L161.258 39.1409C161.291 39.058 161.556 39.0249 162.053 39.058C162.749 39.1906 163.561 39.2403 164.489 39.1906C164.903 39.1906 165.119 38.9918 165.119 38.594V35.4787C165.119 35.081 164.87 34.8987 164.373 34.9318L162.468 35.1141C161.97 35.1141 161.672 35.1141 161.589 35.0478C161.589 34.9484 161.838 34.7827 162.335 34.5673C164.224 33.9707 166.047 33.0759 167.82 31.8827H167.837ZM179.867 41.4774C180.232 41.1626 180.547 41.0797 180.795 41.2454C182.088 41.9248 182.933 42.5545 183.38 43.1014C183.38 43.3002 183.314 43.4328 183.148 43.4991C182.817 43.4991 182.187 43.582 181.243 43.7808C180.629 43.8802 180 44.0128 179.37 44.1619C178.972 44.2614 178.773 44.5099 178.773 44.9076V47.5922C178.773 48.0064 178.889 48.2219 179.105 48.2219C179.469 48.3213 179.933 47.9236 180.513 47.0122C180.977 46.4819 181.276 46.2168 181.392 46.2168C182.287 46.631 183.132 47.4265 183.927 48.603C183.894 48.8847 183.563 48.9841 182.933 48.8847H179.42C179.005 48.8847 178.79 49.0836 178.79 49.4813V53.0938C178.79 53.5081 178.989 53.7235 179.387 53.7235H180.033C180.431 53.7235 180.795 53.5246 181.143 53.1269L181.624 52.5469C182.055 52.0498 182.32 51.7847 182.403 51.7515C183.016 51.9338 183.712 52.4475 184.457 53.3092C184.839 53.8229 185.037 54.1212 185.037 54.1875C184.888 54.4195 184.54 54.5023 184.01 54.4195H171.366L170.571 54.5686C170.041 54.6515 169.709 54.5189 169.593 54.1875C169.494 53.7732 169.742 53.5909 170.322 53.6406C170.62 53.6406 170.952 53.6738 171.3 53.74H175.509C175.923 53.74 176.139 53.5412 176.139 53.1435V49.531C176.139 49.1167 175.94 48.9013 175.542 48.9013H172.99L172.195 49.0504C171.664 49.1333 171.333 49.0007 171.217 48.6693C171.118 48.255 171.366 48.0727 171.963 48.1224C172.261 48.139 172.592 48.1887 172.94 48.255H175.526C175.94 48.255 176.155 48.0562 176.155 47.6584V45.3551C176.155 44.9574 175.907 44.7751 175.41 44.8082C174.515 44.9076 173.603 44.9739 172.675 45.0071C172.145 45.1396 171.847 45.0568 171.78 44.7254C171.88 44.6425 172.178 44.5265 172.675 44.3939C175.327 43.7311 177.746 42.77 179.933 41.5106L179.867 41.4774ZM171.88 32.3136C171.88 31.7667 172.128 31.5513 172.626 31.6673C173.073 31.7667 173.653 31.9987 174.382 32.3633C174.515 32.4462 174.78 32.4959 175.178 32.4959H179.569C179.967 32.4959 180.315 32.3467 180.613 32.0485C180.928 31.5845 181.243 31.4519 181.557 31.6673C182.883 32.181 183.695 32.7113 184.01 33.2416C183.977 33.3576 183.861 33.5067 183.662 33.6724C183.281 33.8713 183.132 34.2193 183.231 34.6998V39.3066C183.364 40.5494 182.668 41.0797 181.127 40.914C180.679 40.7317 180.497 40.3837 180.58 39.87C180.58 39.5386 180.381 39.3729 179.983 39.3729H175.178C174.763 39.3729 174.548 39.4889 174.548 39.7209C174.614 40.4997 174.216 40.9637 173.371 41.0963C172.228 41.3614 171.731 40.9637 171.863 39.9197V32.3302L171.88 32.3136ZM180.596 33.8216C180.596 33.3741 180.381 33.1421 179.95 33.1421H175.194C174.78 33.1421 174.564 33.341 174.564 33.7387V38.0472C174.564 38.4615 174.763 38.6769 175.161 38.6769H179.967C180.381 38.6769 180.596 38.478 180.596 38.0803V33.8216Z" fill="#6B6B6B"/>
</g>
<defs>
<clipPath id="clip0_1717_12331">
<rect width="185" height="55.4967" fill="white"/>
</clipPath>
</defs>
</svg>
