<svg width="47" height="317" viewBox="0 0 47 317" fill="none" xmlns="http://www.w3.org/2000/svg">
<path d="M16.4815 40.7798C17.3939 40.1506 18.432 40.1192 19.6275 40.7169C21.515 41.6921 22.742 42.6988 23.2768 43.7055C23.088 44.5864 22.4588 44.8381 21.4207 44.4606C20.0365 44.7437 18.6208 45.0897 17.2366 45.4673C16.3872 45.7189 15.9467 46.1908 15.9467 46.8829V52.8288C15.9467 53.6152 16.3242 54.0242 17.0793 54.0242H24.1262C24.8812 54.0242 25.2587 53.5523 25.2273 52.6085C24.9127 46.9144 24.7868 42.7303 24.8497 40.0877C24.9441 39.9619 25.5104 39.9619 26.5485 40.1506C27.6496 40.3394 28.8136 40.5911 30.0091 40.9056C31.0472 41.3461 31.6135 41.6607 31.6764 41.8494C31.9281 42.4157 31.6764 42.919 30.9529 43.3595C30.5124 43.6112 30.2608 44.146 30.1978 44.9324V50.0289C30.1978 50.9727 30.2608 51.9164 30.3551 52.8917C30.4495 53.6467 30.8899 54.0242 31.645 54.0242C32.7775 54.0557 33.973 54.0242 35.1999 53.9298C35.5145 53.7096 35.9864 53.1748 36.5841 52.3254C37.0245 51.6962 37.5279 51.067 38.0627 50.4378C38.7233 49.5255 39.6357 49.6828 40.8311 50.9097C42.7816 52.3569 44.0085 53.7096 44.4804 54.968C44.2916 55.1882 43.6939 55.314 42.6872 55.314H31.7079C30.9529 55.314 30.5753 55.7859 30.6068 56.7297C31.0158 60.5363 31.6764 63.8395 32.6202 66.608C32.9348 67.4574 33.3438 67.4574 33.8157 66.608C34.5392 65.1923 35.2313 63.2733 35.8605 60.8509C36.1122 59.8127 36.8043 59.3723 37.9054 59.5296C39.2267 59.8127 40.5165 60.1903 41.712 60.6307C42.4041 60.8194 42.876 61.197 43.0962 61.7632C43.0018 62.1722 42.7187 62.4239 42.2782 62.4868C41.9322 62.5497 41.5232 62.9272 41.0828 63.6193C39.793 66.1675 38.2829 68.5899 36.6156 70.8864C35.892 71.8302 35.8605 72.774 36.5212 73.7493C37.9054 75.511 39.1323 76.4233 40.1705 76.4548C40.9884 76.2345 41.6805 75.511 42.2782 74.3155C42.6243 73.3403 42.876 72.8055 43.0018 72.7426C43.3479 72.5853 43.5995 72.7426 43.7254 73.2144C43.7883 73.4032 43.7254 73.8122 43.5366 74.4414C43.3479 75.0705 43.222 75.6997 43.1591 76.3289C42.9074 77.5873 43.7568 79.003 45.6759 80.5759C46.5882 81.9916 46.5567 83.1871 45.5815 84.0994C44.8579 84.6342 43.6939 84.7286 42.1209 84.3825C39.0379 83.4702 35.9864 81.2051 32.9348 77.6188C32.2112 76.675 31.3618 76.5806 30.4181 77.3356C26.8002 80.167 22.9936 82.1489 18.9983 83.3444C17.6455 83.6275 17.0793 83.6275 17.2995 83.2815C21.6094 81.0478 25.416 78.0906 28.7192 74.347C29.5372 73.3717 29.7259 72.3965 29.2855 71.4527C27.3979 66.954 26.171 61.952 25.6677 56.478C25.5733 55.6916 25.1329 55.2826 24.3778 55.2826H17.2051C16.4186 55.2826 16.0096 55.6601 16.0096 56.4151V62.707C16.0096 63.4935 16.513 63.6822 17.4882 63.2733L20.76 61.7947C22.0184 61.1655 22.679 60.9767 22.7105 61.2599C22.7105 61.4486 22.1442 62.0149 21.1375 62.9272C19.8792 63.9339 18.5893 64.8777 17.3309 65.7271C16.4501 66.2934 16.0096 66.954 16.0096 67.7091V79.5378C15.4434 82.495 13.43 84.0679 9.96944 84.2567C8.77399 84.2567 8.1448 83.7848 8.08188 82.7466C7.9875 81.5512 7.1381 80.5445 5.56513 79.758C4.58989 79.3176 4.05508 79.003 3.9607 78.8142C3.89778 78.5311 4.40113 78.3738 5.43929 78.3738H9.71777C10.693 78.2479 11.0705 77.6817 10.8188 76.675V70.6348C10.8188 69.8797 10.3155 69.7225 9.3088 70.1943C8.23918 70.6348 7.1381 71.1381 6.06848 71.6729C4.99886 71.9561 4.55843 72.5223 4.74718 73.3403C4.52697 73.8122 4.24383 74.0009 3.92924 73.8751C3.74048 73.8122 3.36297 73.3088 2.7967 72.365C2.10459 70.6662 1.60124 69.0303 1.28665 67.4574C1.38103 67.3001 1.91584 67.1742 2.85962 67.0799C4.68426 66.8596 6.9808 66.4507 9.71777 65.8529C10.4728 65.6327 10.8503 65.1294 10.8503 64.3744V56.478C10.8503 55.6916 10.4728 55.2826 9.71777 55.2826H4.40113L2.89108 55.5343C1.88438 55.6916 1.25519 55.4713 1.03497 54.8736C0.814758 54.0871 1.28665 53.7411 2.45065 53.8355C3.04837 53.8669 3.6461 53.9613 4.24383 54.0871H9.65485C10.4413 54.0871 10.8503 53.7096 10.8503 52.9546V48.1098C10.8503 47.3548 10.3784 47.0088 9.43463 47.0717C7.67291 47.3234 5.87972 47.5121 4.11799 47.638C3.17421 47.7009 2.6394 47.7009 2.51357 47.575C2.57648 47.0717 2.85962 46.82 3.33151 46.8515C8.58523 45.2785 13.021 43.2651 16.6388 40.8113L16.4815 40.7798ZM33.5011 41.0629C33.564 40.8742 34.0988 40.8113 35.1055 40.9056C38.9436 41.5978 40.957 43.3909 41.1457 46.2852C40.7053 48.4874 39.4469 49.148 37.3391 48.2671C36.4583 47.6694 36.0178 46.7571 36.0493 45.5616C35.7032 44.3662 35.2313 43.3909 34.6651 42.6988C33.8786 41.755 33.4696 41.1888 33.4696 41.0315L33.5011 41.0629Z" fill="black"/>
<path d="M6.6364 91.492C6.79369 90.5168 7.35996 90.0763 8.3352 90.1707C9.37336 90.2651 10.4744 90.4853 11.607 90.7999C12.7395 91.3976 13.3058 91.8066 13.2743 91.9953C13.2114 92.1841 12.9597 92.4358 12.5508 92.7504C11.8901 92.9706 11.4811 93.5054 11.3553 94.3548C10.7261 96.6199 9.90817 98.822 8.93293 100.961C8.55542 101.779 8.71272 102.377 9.46774 102.754C9.93963 102.975 10.4115 103.258 10.8834 103.604C11.0093 103.761 10.8834 104.107 10.443 104.611C9.93963 105.082 9.68796 105.712 9.68796 106.467V134.623C9.59358 135.409 9.12169 135.913 8.30374 136.101C5.53532 136.762 4.24548 135.85 4.4657 133.333V109.99C4.4657 109.172 4.05673 109.298 3.23878 110.368C2.82981 110.777 2.4523 111.186 2.1377 111.595C1.19392 112.538 0.627652 113.042 0.470355 113.073C0.313058 112.947 0.407436 112.412 0.816408 111.469C3.58484 105.775 5.50386 99.1052 6.60494 91.492H6.6364ZM14.6271 91.7122C14.6271 90.7055 15.099 90.2965 16.0428 90.4853C17.0809 90.7999 18.182 91.2403 19.3145 91.7751C20.1325 92.1841 20.856 92.4043 21.4538 92.4043C22.1773 92.4043 22.838 92.1212 23.4043 91.5549C24.0649 90.4538 25.0087 90.2965 26.2041 91.1145C26.8333 91.3976 27.4625 91.7437 28.0917 92.1212C29.1928 92.7818 29.8534 93.3166 30.1051 93.7256C30.2939 94.0402 30.0422 94.4177 29.3815 94.8581C28.6894 95.0784 28.4378 95.6761 28.6265 96.6513V107.033C28.9411 108.92 28.1232 109.959 26.2041 110.116C24.3795 110.493 23.4043 109.864 23.3413 108.26C23.3413 107.536 22.9638 107.159 22.2088 107.159H21.0133C20.2269 107.159 19.8179 107.536 19.8179 108.291V133.742C19.5662 135.252 18.6853 136.038 17.2068 136.07C15.0361 136.164 14.1867 135.252 14.5956 133.364V91.7122H14.6271ZM21.8313 93.6627H21.4538C20.101 93.3481 19.5662 93.7885 19.8493 94.984V98.067C19.8493 98.8535 20.2269 99.2625 20.9819 99.2625H22.1773C22.9638 99.2625 23.3728 98.8849 23.3728 98.1299V94.8896C23.3728 94.0087 22.8694 93.5998 21.8627 93.6627H21.8313ZM23.3728 101.716C23.3728 100.93 22.9953 100.521 22.2403 100.521H21.0448C20.2583 100.521 19.8493 100.898 19.8493 101.653V104.705C19.8493 105.491 20.2269 105.9 20.9819 105.9H22.1773C22.9638 105.9 23.3728 105.523 23.3728 104.768V101.716ZM31.1747 91.9953C31.1747 90.9257 31.6466 90.5167 32.5904 90.7999C33.6915 91.1459 34.824 91.5549 35.9251 92.0268C36.3026 92.247 36.9633 92.3729 37.907 92.3729C38.8508 92.3729 39.6058 92.0583 40.1092 91.4291C40.7698 90.7999 41.6822 90.7055 42.8147 91.1774C43.9787 91.7437 44.9225 92.4358 45.6146 93.2852C46.055 93.8829 46.0236 94.3863 45.4888 94.7638C45.1742 95.0154 45.0169 95.5188 45.0169 96.2738V131.791C44.2933 134.937 42.1541 136.322 38.6306 135.913C38.5362 135.787 38.4418 135.504 38.3789 135.095C38.2216 133.553 37.0576 132.169 34.8555 131.005C34.3207 130.879 33.9746 130.627 33.8488 130.281C33.9117 129.872 34.4465 129.778 35.4217 129.998C36.5228 129.998 37.7183 129.998 38.9452 129.904C39.6373 129.652 39.889 129.086 39.7002 128.205V108.323C39.7002 107.536 39.3227 107.127 38.5677 107.127H37.6239C36.8374 107.127 36.4284 107.599 36.397 108.543C36.0824 109.801 35.0128 110.462 33.2196 110.493C31.5208 110.493 30.8287 109.738 31.1747 108.26V91.9324V91.9953ZM39.7317 94.9525C39.7317 94.1031 39.3856 93.6627 38.6935 93.6627H37.6554C36.8689 93.6627 36.4599 94.0402 36.4599 94.7952V98.067C36.4599 98.8535 36.8374 99.2625 37.5924 99.2625H38.5362C39.3227 99.2625 39.7317 98.8849 39.7317 98.1299V94.9525ZM39.7317 101.716C39.7317 100.93 39.3542 100.521 38.5991 100.521H37.6554C36.8689 100.521 36.4599 100.898 36.4599 101.653V104.705C36.4599 105.491 36.8374 105.9 37.5924 105.9H38.5362C39.3227 105.9 39.7317 105.523 39.7317 104.768V101.716Z" fill="black"/>
<path d="M7.57695 142.802C7.67133 141.638 8.20614 141.103 9.18138 141.229C10.1881 141.386 11.2577 141.606 12.3588 141.89C13.3026 142.299 13.8374 142.613 13.9317 142.833C13.9317 143.054 13.6801 143.305 13.2082 143.588C12.7677 143.84 12.4532 144.438 12.2959 145.382L11.1004 152.9C10.9431 153.75 11.3206 154.19 12.2015 154.19C13.2082 154.19 14.0576 153.75 14.7811 152.869C15.5362 151.894 16.3856 151.516 17.2979 151.768C18.7136 152.554 19.8461 153.498 20.6326 154.568C20.9157 155.291 20.6326 155.795 19.7832 156.046C19.3113 156.204 18.9652 156.801 18.7765 157.808C17.99 163.03 16.8889 167.907 15.5047 172.374C15.316 173.034 15.7564 173.852 16.7946 174.859C19.2169 177.093 20.0978 179.295 19.5001 181.528C19.0596 182.472 18.3046 183.007 17.2664 183.101C16.2597 183.227 15.3789 182.661 14.6553 181.434C14.4036 180.616 14.0576 179.767 13.6486 178.917C13.2711 178.162 12.7048 178.288 11.9498 179.295C9.68473 182.032 6.69608 184.171 2.92096 185.775C1.97718 186.059 1.41091 186.153 1.25361 186.059C1.25361 185.87 1.63112 185.398 2.48053 184.643C6.41295 181.874 8.89824 178.729 9.9364 175.237C10.2195 174.482 9.96786 173.664 9.21284 172.814L8.26905 171.965C7.41965 171.304 6.82192 171.336 6.44441 172.122C5.50063 173.443 4.17933 173.758 2.51199 173.066C1.85134 172.72 1.63112 172.122 1.8828 171.304C3.36139 166.617 4.55685 161.74 5.43771 156.644C5.53209 155.889 5.09166 155.512 4.14787 155.543L1.28507 155.92C0.435666 154.253 0.7188 153.624 2.19739 154.127C3.01534 154.127 3.83328 154.19 4.68268 154.253C5.43771 154.253 5.9096 153.781 6.09836 152.837C6.69608 149.44 7.16797 146.105 7.51403 142.865L7.57695 142.802ZM13.8374 156.738C13.8374 155.889 13.3026 155.449 12.2644 155.449C11.2262 155.449 10.597 155.92 10.3768 156.864C9.62181 160.639 8.67803 164.477 7.57695 168.41C7.38819 169.133 7.79716 169.637 8.80386 169.92C9.21284 170.014 9.68473 170.172 10.1881 170.392C10.9431 170.706 11.4465 170.392 11.6981 169.448C12.4532 166.271 13.1767 162.024 13.8374 156.707V156.738ZM27.5851 143.242C27.4907 142.078 27.9312 141.512 28.9064 141.544C30.1963 141.701 31.5175 141.921 32.8074 142.204C33.7512 142.676 34.2231 142.991 34.2231 143.148C34.2231 143.337 34.0028 143.557 33.6882 143.777C33.1534 143.903 32.8074 144.438 32.6501 145.35C31.1715 149.723 29.2525 153.53 26.893 156.77C26.1065 157.745 26.1694 158.217 27.1447 158.186C31.958 157.777 35.6387 157.368 38.1869 156.99C38.942 156.864 39.0993 156.298 38.6274 155.291C38.2184 154.505 37.4319 153.53 36.2365 152.397C35.2927 151.611 34.8208 151.107 34.8522 150.918C34.9466 150.635 35.6073 150.698 36.8342 151.17C38.4701 151.831 39.7599 152.46 40.6408 153.026C43.598 154.725 45.517 157.273 46.4293 160.639C46.6181 162.747 45.7372 164.006 43.8182 164.446C42.4025 164.635 41.3958 163.817 40.861 162.024L40.2318 159.35C39.9487 158.595 39.3195 158.343 38.3757 158.626C32.0524 160.514 27.1447 161.929 23.6212 162.81C22.9921 163.062 22.5831 163.345 22.3943 163.659C22.1741 164.194 21.8281 164.32 21.3562 164.006C21.0416 163.722 20.6641 162.999 20.2551 161.866C20.0034 161.269 19.7832 160.639 19.6259 160.01C19.5001 159.066 19.909 158.5 20.8528 158.343H23.2752C24.0302 158.343 24.5965 157.871 24.974 156.927C26.547 152.617 27.3964 148.056 27.4907 143.274L27.5851 143.242ZM37.1488 166.837C37.9982 165.673 38.879 165.201 39.8228 165.421C40.8924 165.862 41.9621 166.428 43.0631 167.089C44.5417 167.969 44.6361 168.756 43.3463 169.417C42.6542 169.668 42.4025 170.266 42.6227 171.178V183.542C42.9688 184.8 42.4969 185.838 41.207 186.593C38.5015 187.569 37.2117 186.814 37.369 184.265C37.369 183.353 36.9915 182.881 36.2365 182.881H28.6233C27.8368 182.881 27.4278 183.133 27.4278 183.699C27.6166 185.241 26.8616 186.184 25.1942 186.499C22.8977 187.034 21.891 186.247 22.1426 184.171V167.183C22.1426 166.208 22.7718 165.893 24.0302 166.239C24.6594 166.365 25.2886 166.617 25.9178 166.963C26.7357 167.372 27.4593 167.592 28.1199 167.592H35.1668C36.0792 167.781 36.7398 167.529 37.1488 166.868V166.837ZM37.1488 168.819L35.8275 168.756H28.5918C27.8053 168.756 27.3964 169.133 27.3964 169.888V180.396C27.3964 181.182 27.7739 181.591 28.5289 181.591H36.1421C36.9286 181.591 37.3375 181.214 37.3375 180.459V170.14C37.3375 169.385 37.2746 168.945 37.1488 168.819Z" fill="black"/>
<path d="M11.5141 200.467C11.8287 199.523 12.0489 199.02 12.1748 198.957C13.4961 199.398 14.9747 200.153 16.6106 201.254C17.46 202.009 17.8689 202.512 17.8375 202.732C17.6802 202.984 17.4285 203.11 17.1139 203.11C16.7049 203.015 16.296 203.33 15.887 204.022C13.8736 206.916 11.4512 209.59 8.55696 212.107C7.64463 212.831 7.58171 213.208 8.3682 213.208C9.94117 213.208 11.5771 213.082 13.2759 212.862C14.0309 212.768 14.2826 212.233 14.0309 211.289C13.6848 210.629 13.2444 209.968 12.7411 209.307C12.8669 208.741 13.3702 208.678 14.2511 209.15C15.5095 209.559 16.6106 210.125 17.5229 210.817C19.8823 212.925 20.3228 215.033 18.9071 217.141C18.2779 217.833 17.5858 218.085 16.7993 217.896C15.3836 217.55 14.6601 216.574 14.6601 214.939C14.6286 214.184 14.314 213.963 13.7163 214.278C12.9927 214.655 12.6152 215.19 12.6152 215.851V218.619C12.6152 219.374 13.0871 219.909 14.0309 220.224C17.4285 221.608 19.2846 223.527 19.6307 225.918C19.8194 227.711 19.0015 228.844 17.1454 229.253C15.7612 229.095 14.9118 228.309 14.6601 226.925C14.4084 224.911 13.8421 223.212 12.9613 221.828C12.7096 221.639 12.5838 221.923 12.5838 222.678V235.607C12.7411 238.25 11.3883 239.162 8.5255 238.376C7.55026 237.904 7.2042 236.992 7.48734 235.67V224.345C7.48734 223.433 7.17274 223.496 6.54355 224.597C5.41102 227.837 3.77513 230.794 1.63589 233.531C0.471891 234.727 0 234.758 0.251675 233.594C1.25838 229.441 1.91902 225.729 2.20216 222.457C2.29654 221.23 2.83135 220.664 3.80659 220.79C4.59307 220.884 5.37956 221.042 6.1975 221.23C7.0469 221.451 7.48734 221.23 7.48734 220.507V217.896C7.48734 217.141 7.01545 216.889 6.07166 217.141C4.62453 217.644 3.55491 218.085 2.89426 218.462C2.51675 219.374 2.0134 219.626 1.38421 219.186C0.786485 217.77 0.314594 215.694 0 212.988C0.125838 212.862 0.660647 212.862 1.60443 212.957L3.90097 213.145C4.65599 213.145 5.41102 212.705 6.13458 211.761C8.43112 208.364 10.1928 204.62 11.4512 200.499L11.5141 200.467ZM6.82669 193.106C7.10982 192.162 7.33004 191.659 7.45588 191.596C8.71425 191.942 9.94117 192.382 11.0737 192.886C11.9231 193.2 12.4579 193.546 12.6781 193.892C12.9613 194.427 12.6781 194.805 11.8287 194.993C11.5456 195.056 11.0737 195.591 10.4131 196.598C9.68949 197.667 8.84009 198.706 7.89631 199.649C7.14128 200.404 7.17274 201.254 8.05361 202.229C8.74571 203.833 8.58841 205.281 7.5188 206.57C7.01544 207.105 6.1975 207.294 5.09642 207.105C4.08972 206.633 3.52345 205.973 3.39761 205.123C3.27178 203.236 2.83135 201.631 2.10778 200.373C1.41567 199.366 1.13254 198.8 1.25838 198.674C1.63589 198.58 2.0134 198.643 2.39091 198.831L3.77513 199.272C4.53015 199.555 5.09642 199.24 5.47394 198.265C6.0402 196.787 6.51209 195.088 6.85815 193.232L6.82669 193.106ZM23.6575 193.703C23.9091 192.697 24.5383 192.225 25.5136 192.319C26.5832 192.508 27.6843 192.76 28.7539 193.043C29.9493 193.578 30.61 193.955 30.7044 194.175C30.8302 194.647 30.5785 194.962 29.9493 195.088C29.4775 195.025 29.1314 195.371 28.9112 196.094L27.873 198.013C27.3697 198.989 27.4955 199.492 28.2505 199.492C30.1696 199.492 32.0886 199.492 34.102 199.398C34.2278 199.335 34.448 199.115 34.7312 198.737C35.4862 197.919 35.9895 197.51 36.2098 197.51C37.185 198.013 38.2546 198.768 39.3872 199.807C40.8343 200.845 40.9916 201.6 39.8276 202.04C39.4186 202.04 39.0726 202.292 38.7894 202.89C37.594 205.469 35.9266 207.923 33.8503 210.251C33.1267 211.006 33.2211 211.667 34.1964 212.202C37.4052 213.963 40.8658 215.001 44.6094 215.285C45.742 215.096 46.3712 215.348 46.5285 216.04C46.4341 216.197 45.8993 216.417 44.9555 216.669C43.5713 217.235 42.4073 218.242 41.5264 219.72C41.0231 220.664 40.2995 220.979 39.3242 220.664C36.3356 219.406 33.6301 217.707 31.2077 215.568C30.1696 214.53 29.3202 214.246 28.691 214.718C24.79 217.235 21.4238 218.902 18.561 219.752C17.3341 220.098 16.7049 220.129 16.7049 219.846C16.7679 219.657 17.3027 219.28 18.2779 218.714C20.7317 217.361 23.5002 215.253 26.6146 212.39C27.3068 211.698 27.3697 210.849 26.8034 209.874C26.0484 208.458 25.3563 206.728 24.6956 204.683C24.5069 203.802 23.9721 203.802 23.1227 204.746C21.2351 206.759 19.1902 208.238 17.0195 209.182C16.8622 209.087 16.7679 208.961 16.7364 208.804C18.7813 206.287 20.4171 203.676 21.6755 200.971C22.462 198.863 23.1541 196.472 23.7204 193.798L23.6575 193.703ZM40.7714 227.9C41.9983 227.585 42.6275 227.554 42.6904 227.805C42.6589 227.963 42.1241 228.403 41.086 229.127C37.3423 231.077 31.6482 233.563 23.9721 236.551C23.626 236.803 23.4058 237.086 23.3114 237.401C22.6193 238.407 21.9272 238.061 21.2666 236.3C20.3857 234.789 19.8823 233.594 19.7565 232.745C19.8509 232.619 20.3857 232.493 21.3295 232.304C28.0303 231.266 34.511 229.787 40.8343 227.868L40.7714 227.9ZM25.2619 219.532C25.2934 218.934 25.8596 218.777 26.9292 219.06C27.7786 219.123 28.8797 219.406 30.2639 219.878C32.8751 220.979 34.0705 222.678 33.9132 224.974C33.7559 226.107 33.0953 226.893 31.9313 227.271C30.956 227.711 30.0437 227.334 29.2258 226.17L27.9045 222.363C27.527 221.482 26.6461 220.538 25.2934 219.563L25.2619 219.532ZM33.8189 201.977C34.1334 201.128 33.9132 200.687 33.1582 200.687H27.3068C26.5203 200.845 25.9855 201.096 25.7023 201.411C25.3877 201.82 25.4507 202.544 25.8911 203.55C26.5517 204.997 27.4641 206.413 28.6595 207.797C29.3202 208.552 30.0123 208.521 30.7044 207.703C32.12 205.815 33.1897 203.896 33.8503 202.009L33.8189 201.977Z" fill="black"/>
<path d="M9.18112 245.612C9.30696 244.574 9.43279 244.007 9.55863 243.944C10.6597 243.882 12.2327 244.007 14.2146 244.322C15.5674 244.322 16.1651 244.825 16.0078 245.738C15.8505 245.895 15.4415 246.115 14.8124 246.398C14.4348 246.681 14.1832 247.311 14.0888 248.254C13.6484 250.331 13.2394 252.438 12.8933 254.578C12.7989 255.333 13.145 255.71 13.9 255.71C15.0955 255.71 16.3539 255.71 17.6437 255.616C18.147 255.333 18.6189 254.798 19.0279 254.043C19.7515 253.193 20.1919 252.753 20.3492 252.753C21.4817 253.099 22.7716 254.043 24.1558 255.553C24.7535 256.245 24.8794 256.874 24.5018 257.441L23.0233 258.164C22.866 258.447 22.7087 258.919 22.5828 259.548C21.6076 264.613 20.2234 269.458 18.4931 274.051C18.1785 274.806 18.4931 275.624 19.4998 276.473C22.8974 279.305 24.2816 281.884 23.6524 284.212C22.8345 285.817 21.702 286.383 20.2234 285.817C19.6571 285.66 19.0908 285.125 18.556 284.244C18.0212 283.048 17.392 281.822 16.6999 280.626C16.1651 279.871 15.5674 279.965 14.9382 280.909C12.7046 283.709 10.1878 285.785 7.32501 287.201C6.06664 287.83 4.7768 288.397 3.51843 288.9C2.29151 289.246 1.63086 289.34 1.56794 289.152C1.56794 288.963 2.00838 288.491 2.95216 287.736C7.76545 284.842 10.8799 281.318 12.2641 277.166C12.6102 276.348 12.3271 275.53 11.4462 274.743C10.7855 274.208 10.1249 273.737 9.46425 273.328C8.74069 272.919 8.17442 273.233 7.79691 274.271C7.19918 276.379 5.72058 277.008 3.36113 276.222C2.26005 275.876 1.97692 275.026 2.51173 273.705C4.61951 267.791 6.12956 262.568 6.97896 258.07C7.07334 257.315 6.72729 256.937 5.97226 256.937C5.02848 256.874 3.51843 257.032 1.44211 257.378C0.529784 255.71 0.812918 255.081 2.29151 255.584C3.58135 255.71 4.90264 255.773 6.19248 255.742C6.9475 255.742 7.45085 255.27 7.67107 254.326C8.39463 250.771 8.86652 247.877 9.08674 245.612H9.18112ZM17.5493 258.258C17.9268 257.126 17.5493 256.685 16.4168 256.969H13.6484C12.8933 256.969 12.39 257.441 12.1383 258.384C11.226 262.285 10.2193 266.249 9.14966 270.213C8.92944 271.031 9.21258 271.503 9.9676 271.629C10.8485 271.849 11.7922 272.132 12.7675 272.478C13.5225 272.793 14.0888 272.478 14.4348 271.534C15.6618 267.539 16.7314 263.103 17.5808 258.227L17.5493 258.258ZM26.1377 253.697C26.1377 252.69 26.5782 252.25 27.459 252.407C28.4657 252.722 29.8814 253.319 31.6746 254.169C32.1779 254.452 32.8071 254.609 33.5936 254.609H37.4002C38.0923 253.791 38.8473 253.036 39.6338 252.281C40.3888 252.281 41.7416 252.785 43.6292 253.791C44.919 254.483 45.6111 255.175 45.674 255.899C45.5796 256.245 45.0448 256.623 44.101 257C43.9752 257.189 43.9123 257.661 43.9123 258.416V283.395C44.2583 284.684 43.7865 285.691 42.4966 286.383C40.9551 287.012 39.6967 286.824 38.7844 285.817C38.69 284.873 38.6586 283.898 38.69 282.923C38.69 282.136 38.3125 281.727 37.5575 281.727H32.6184C31.8319 281.727 31.4229 282.105 31.4229 282.86C31.5173 284.338 31.4229 285.408 31.1712 286.037C30.605 287.044 29.4095 287.516 27.6163 287.421C26.358 287.107 25.8546 286.163 26.1377 284.621V253.697ZM38.5957 256.025C38.5957 256.025 38.0294 255.836 37.3058 255.836H32.5869C31.8004 255.836 31.3915 256.214 31.3915 256.969V279.242C31.3915 280.028 31.769 280.437 32.524 280.437H37.4631C38.2496 280.437 38.6586 280.06 38.6586 279.305V257.315C38.6586 256.56 38.6586 256.119 38.5642 256.025H38.5957Z" fill="black"/>
<path d="M38.2552 312.778C39.0417 311.803 39.5765 311.268 39.8281 311.205C40.3315 311.237 41.1494 311.74 42.3134 312.684C43.6662 313.785 44.7358 314.917 45.4594 316.05C45.2392 316.679 44.5785 316.899 43.5089 316.679H4.05881L2.54876 316.962C1.54205 317.119 0.912867 316.868 0.692651 316.239C0.503894 315.452 0.944326 315.106 2.07686 315.2C2.64313 315.2 3.27232 315.263 3.93297 315.389H34.8576C35.7699 315.578 36.4305 315.326 36.8395 314.666C37.2485 314.036 37.7204 313.407 38.2552 312.778Z" fill="black"/>
</svg>
