<svg width="39" height="226" viewBox="0 0 39 226" fill="none" xmlns="http://www.w3.org/2000/svg">
<path d="M13.6754 0.633944C14.4325 0.122446 15.2939 0.0968715 16.2859 0.582795C17.8522 1.37562 18.8702 2.19401 19.314 3.01241C19.1574 3.72851 18.6353 3.93311 17.7738 3.62621C16.6252 3.85638 15.4505 4.13771 14.3019 4.44461C13.5971 4.6492 13.2316 5.03283 13.2316 5.59548V10.4291C13.2316 11.0685 13.5449 11.401 14.1714 11.401H20.0188C20.6454 11.401 20.9586 11.0174 20.9325 10.2501C20.6715 5.62105 20.567 2.21959 20.6192 0.0712965C20.6976 -0.0310031 21.1674 -0.0310031 22.0289 0.122446C22.9426 0.275896 23.9084 0.480495 24.9004 0.736244C25.7619 1.09429 26.2317 1.35004 26.2839 1.50349C26.4928 1.96384 26.2839 2.37304 25.6835 2.73109C25.3181 2.93569 25.1092 3.37046 25.057 4.00983V8.15297C25.057 8.92021 25.1092 9.68746 25.1876 10.4803C25.2659 11.0941 25.6313 11.401 26.2578 11.401C27.1976 11.4266 28.1896 11.401 29.2077 11.3243C29.4687 11.1452 29.8603 10.7105 30.3563 10.0199C30.7217 9.50844 31.1394 8.99694 31.5832 8.48544C32.1314 7.74377 32.8884 7.87164 33.8804 8.86906C35.4989 10.0455 36.517 11.1452 36.9085 12.1682C36.7519 12.3473 36.2559 12.4496 35.4206 12.4496H26.3101C25.6835 12.4496 25.3703 12.8332 25.3964 13.6004C25.7358 16.695 26.2839 19.3804 27.0671 21.6309C27.3281 22.3215 27.6675 22.3215 28.0591 21.6309C28.6595 20.4801 29.2338 18.92 29.7559 16.9507C29.9647 16.1068 30.539 15.7487 31.4527 15.8766C32.5491 16.1068 33.6193 16.4137 34.6113 16.7717C35.1856 16.9252 35.5772 17.2321 35.7599 17.6924C35.6816 18.0249 35.4467 18.2295 35.0812 18.2806C34.794 18.3318 34.4547 18.6387 34.0892 19.2013C33.0189 21.2729 31.7659 23.2422 30.3824 25.1091C29.782 25.8764 29.7559 26.6436 30.3041 27.4364C31.4527 28.8686 32.4707 29.6103 33.3322 29.6359C34.0109 29.4569 34.5852 28.8686 35.0812 27.8968C35.3684 27.104 35.5772 26.6692 35.6816 26.618C35.9688 26.4902 36.1776 26.618 36.282 27.0017C36.3342 27.1551 36.282 27.4876 36.1254 27.9991C35.9688 28.5106 35.8643 29.0221 35.8121 29.5336C35.6033 30.5566 36.3081 31.7075 37.9005 32.9862C38.6575 34.1371 38.6314 35.1089 37.8222 35.8506C37.2218 36.2854 36.2559 36.3621 34.9507 36.0808C32.3924 35.3391 29.8603 33.4977 27.3281 30.5822C26.7277 29.8149 26.0229 29.7382 25.2398 30.352C22.2377 32.6537 19.0791 34.2649 15.7638 35.2368C14.6413 35.467 14.1714 35.467 14.3541 35.1856C17.9305 33.3698 21.0891 30.9658 23.8301 27.9224C24.5088 27.1295 24.6655 26.3367 24.3 25.5695C22.7337 21.9123 21.7156 17.8459 21.298 13.3958C21.2197 12.7564 20.8542 12.424 20.2277 12.424H14.2758C13.6232 12.424 13.2839 12.7309 13.2839 13.3447V18.4597C13.2839 19.099 13.7015 19.2525 14.5108 18.92L17.2256 17.718C18.2698 17.2065 18.818 17.053 18.8441 17.2832C18.8441 17.4367 18.3743 17.897 17.5389 18.6387C16.4947 19.4571 15.4244 20.2243 14.3802 20.9148C13.6493 21.3752 13.2839 21.9123 13.2839 22.5261V32.1422C12.814 34.5463 11.1433 35.825 8.27177 35.9785C7.27979 35.9785 6.7577 35.5948 6.70549 34.7509C6.62718 33.779 5.92235 32.9606 4.61712 32.3213C3.80788 31.9632 3.3641 31.7075 3.28579 31.554C3.23358 31.3238 3.65125 31.196 4.5127 31.196H8.06293C8.87217 31.0937 9.18543 30.6333 8.97659 29.8149V24.9045C8.97659 24.2907 8.55892 24.1629 7.72357 24.5465C6.83602 24.9045 5.92235 25.3137 5.0348 25.7485C4.14724 25.9787 3.78178 26.439 3.9384 27.104C3.75567 27.4876 3.52073 27.641 3.25968 27.5387C3.10306 27.4876 2.7898 27.0784 2.31992 26.3111C1.74562 24.9301 1.32794 23.6002 1.0669 22.3215C1.14521 22.1936 1.58899 22.0913 2.37213 22.0146C3.88619 21.8355 5.79183 21.5031 8.06293 21.0171C8.68944 20.8381 9.0027 20.4289 9.0027 19.8151V13.3958C9.0027 12.7564 8.68944 12.424 8.06293 12.424H3.65125L2.39823 12.6286C1.56288 12.7564 1.04079 12.5774 0.85806 12.0915C0.675327 11.4521 1.0669 11.1708 2.03277 11.2475C2.52875 11.2731 3.02474 11.3498 3.52073 11.4521H8.01072C8.66334 11.4521 9.0027 11.1452 9.0027 10.5314V6.5929C9.0027 5.9791 8.61113 5.69778 7.82799 5.74893C6.36613 5.95353 4.87817 6.10697 3.41631 6.20927C2.63317 6.26042 2.18939 6.26042 2.08498 6.15812C2.13719 5.74893 2.37213 5.54433 2.7637 5.5699C7.12317 4.29116 10.8039 2.65436 13.8059 0.659519L13.6754 0.633944ZM27.798 0.864119C27.8502 0.710669 28.294 0.659519 29.1294 0.736244C32.3141 1.29889 33.9848 2.75666 34.1414 5.10955C33.776 6.8998 32.7318 7.43687 30.9828 6.72077C30.2518 6.23485 29.8864 5.49318 29.9125 4.52133C29.6253 3.54948 29.2338 2.75666 28.7639 2.19401C28.1113 1.42677 27.7719 0.966418 27.7719 0.838544L27.798 0.864119Z" fill="#6B6B6B"/>
<path d="M5.50626 41.8602C5.63678 41.0674 6.10666 40.7093 6.91591 40.786C7.77736 40.8628 8.69102 41.0418 9.63079 41.2975C10.5706 41.7835 11.0404 42.1159 11.0143 42.2694C10.9621 42.4228 10.7533 42.6274 10.4139 42.8832C9.86573 43.0622 9.52637 43.497 9.42195 44.1875C8.89986 46.0289 8.22114 47.8191 7.41189 49.5582C7.09864 50.2232 7.22916 50.7091 7.85567 51.016C8.24724 51.195 8.63881 51.4252 9.03038 51.7065C9.1348 51.8344 9.03038 52.1157 8.66492 52.5249C8.24724 52.9085 8.0384 53.42 8.0384 54.0338V76.9234C7.96009 77.5627 7.56852 77.972 6.8898 78.1254C4.5926 78.6625 3.52231 77.9208 3.70504 75.8748V56.8982C3.70504 56.2333 3.36568 56.3356 2.68696 57.2051C2.3476 57.5376 2.03434 57.8701 1.7733 58.2025C0.99016 58.9698 0.520277 59.379 0.389754 59.4046C0.259231 59.3023 0.337545 58.8675 0.676905 58.1002C2.97411 53.4712 4.56649 48.0493 5.48015 41.8602H5.50626ZM12.1368 42.0392C12.1368 41.2208 12.5284 40.8883 13.3115 41.0418C14.173 41.2975 15.0866 41.6556 16.0264 42.0904C16.7051 42.4228 17.3055 42.6019 17.8015 42.6019C18.4019 42.6019 18.9501 42.3717 19.42 41.9113C19.9682 41.0162 20.7513 40.8883 21.7433 41.5533C22.2654 41.7835 22.7875 42.0648 23.3096 42.3717C24.2233 42.9088 24.7715 43.3435 24.9803 43.676C25.1369 43.9317 24.9281 44.2386 24.3799 44.5967C23.8056 44.7757 23.5968 45.2616 23.7534 46.0545V54.4942C24.0144 56.0287 23.3357 56.8727 21.7433 57.0005C20.2293 57.3074 19.42 56.7959 19.3678 55.4916C19.3678 54.9034 19.0545 54.5965 18.428 54.5965H17.4361C16.7834 54.5965 16.4441 54.9034 16.4441 55.5172V76.2073C16.2353 77.4349 15.5043 78.0742 14.2774 78.0998C12.4762 78.1765 11.7714 77.4349 12.1107 75.9004V42.0392H12.1368ZM18.1148 43.6248H17.8015C16.679 43.3691 16.2353 43.7271 16.4702 44.699V47.2053C16.4702 47.8447 16.7834 48.1772 17.41 48.1772H18.4019C19.0546 48.1772 19.3939 47.8703 19.3939 47.2565V44.6223C19.3939 43.9062 18.9762 43.5737 18.1409 43.6248H18.1148ZM19.3939 50.172C19.3939 49.5327 19.0807 49.2002 18.4541 49.2002H17.4622C16.8096 49.2002 16.4702 49.5071 16.4702 50.1209V52.6016C16.4702 53.241 16.7834 53.5735 17.41 53.5735H18.4019C19.0546 53.5735 19.3939 53.2666 19.3939 52.6528V50.172ZM25.8679 42.2694C25.8679 41.3998 26.2594 41.0674 27.0426 41.2975C27.9562 41.5789 28.896 41.9113 29.8096 42.295C30.1229 42.474 30.6711 42.5763 31.4542 42.5763C32.2374 42.5763 32.8639 42.3205 33.2816 41.809C33.8298 41.2975 34.5868 41.2208 35.5266 41.6044C36.4924 42.0648 37.2756 42.6274 37.8499 43.318C38.2153 43.8039 38.1892 44.2131 37.7454 44.52C37.4844 44.7246 37.3539 45.1338 37.3539 45.7476V74.6216C36.7535 77.1791 34.9784 78.3044 32.0546 77.9719C31.9763 77.8696 31.898 77.6395 31.8458 77.307C31.7153 76.0538 30.7494 74.9285 28.9221 73.9823C28.4783 73.88 28.1912 73.6754 28.0867 73.394C28.139 73.0616 28.5827 72.9848 29.392 73.1639C30.3056 73.1639 31.2976 73.1639 32.3157 73.0871C32.89 72.8825 33.0988 72.4222 32.9422 71.7061V55.5428C32.9422 54.9034 32.6289 54.5709 32.0024 54.5709H31.2193C30.5667 54.5709 30.2273 54.9545 30.2012 55.7218C29.9402 56.7448 29.0526 57.2818 27.5647 57.3074C26.155 57.3074 25.5807 56.6936 25.8679 55.4916V42.2182V42.2694ZM32.9683 44.6734C32.9683 43.9829 32.6812 43.6248 32.1069 43.6248H31.2454C30.5928 43.6248 30.2534 43.9317 30.2534 44.5455V47.2053C30.2534 47.8447 30.5667 48.1772 31.1932 48.1772H31.9763C32.6289 48.1772 32.9683 47.8703 32.9683 47.2565V44.6734ZM32.9683 50.172C32.9683 49.5327 32.655 49.2002 32.0285 49.2002H31.2454C30.5928 49.2002 30.2534 49.5071 30.2534 50.1209V52.6016C30.2534 53.241 30.5667 53.5735 31.1932 53.5735H31.9763C32.6289 53.5735 32.9683 53.2666 32.9683 52.6528V50.172Z" fill="#6B6B6B"/>
<path d="M6.28655 83.5722C6.36486 82.6259 6.80864 82.1911 7.61788 82.2934C8.45323 82.4213 9.34079 82.6004 10.2544 82.8305C11.0376 83.163 11.4814 83.4187 11.5597 83.5978C11.5597 83.7768 11.3508 83.9814 10.9593 84.2116C10.5938 84.4162 10.3328 84.9021 10.2022 85.6693L9.21026 91.7817C9.07974 92.4723 9.393 92.8303 10.1239 92.8303C10.9593 92.8303 11.6641 92.4723 12.2645 91.7562C12.891 90.9633 13.5958 90.6564 14.3529 90.861C15.5276 91.5004 16.4673 92.2677 17.12 93.1372C17.3549 93.7254 17.12 94.1346 16.4151 94.3392C16.0236 94.4671 15.7364 94.953 15.5798 95.7714C14.9272 100.017 14.0135 103.981 12.8649 107.613C12.7083 108.15 13.0737 108.815 13.9352 109.633C15.9453 111.449 16.6762 113.239 16.1802 115.055C15.8147 115.822 15.1882 116.257 14.3268 116.334C13.4914 116.436 12.7605 115.976 12.1601 114.978C11.9512 114.313 11.6641 113.623 11.3247 112.932C11.0115 112.318 10.5416 112.421 9.91509 113.239C8.03556 115.464 5.55562 117.203 2.42307 118.508C1.63993 118.738 1.17005 118.814 1.03952 118.738C1.03952 118.584 1.35278 118.201 2.0576 117.587C5.32068 115.336 7.38294 112.779 8.24439 109.94C8.47934 109.326 8.2705 108.661 7.64399 107.971L6.86085 107.28C6.15602 106.743 5.66004 106.769 5.34678 107.408C4.56364 108.482 3.46725 108.738 2.08371 108.175C1.53551 107.894 1.35278 107.408 1.56162 106.743C2.78853 102.932 3.78051 98.9683 4.51144 94.8252C4.58975 94.2114 4.22428 93.9045 3.44115 93.93L1.06563 94.2369C0.360803 92.8815 0.595745 92.37 1.82266 92.7792C2.50138 92.7792 3.1801 92.8303 3.88493 92.8815C4.51144 92.8815 4.903 92.4978 5.05963 91.7306C5.55562 88.9685 5.94719 86.2576 6.23434 83.6233L6.28655 83.5722ZM11.4814 94.9019C11.4814 94.2114 11.0376 93.8533 10.1761 93.8533C9.31468 93.8533 8.79259 94.2369 8.60986 95.0042C7.98335 98.0732 7.20021 101.193 6.28655 104.39C6.12992 104.978 6.46928 105.388 7.30463 105.618C7.64399 105.694 8.03556 105.822 8.45323 106.001C9.07974 106.257 9.49741 106.001 9.70625 105.234C10.3328 102.651 10.9332 99.1985 11.4814 94.8763V94.9019ZM22.8891 83.9302C22.8108 82.984 23.1762 82.5236 23.9855 82.5492C25.0558 82.6771 26.1522 82.8561 27.2224 83.0863C28.0056 83.4699 28.3971 83.7256 28.3971 83.8535C28.3971 84.007 28.2144 84.186 27.9534 84.365C27.5096 84.4673 27.2224 84.9021 27.0919 85.6438C25.865 89.1987 24.2726 92.2932 22.3148 94.9275C21.6622 95.7203 21.7144 96.1039 22.5236 96.0783C26.5176 95.7459 29.5719 95.4134 31.6863 95.1065C32.3128 95.0042 32.4434 94.5438 32.0518 93.7254C31.7124 93.0861 31.0598 92.2932 30.0678 91.3725C29.2847 90.7332 28.8931 90.324 28.9192 90.1705C28.9976 89.9403 29.5458 89.9915 30.5638 90.3751C31.9213 90.9122 32.9916 91.4237 33.7225 91.884C36.1763 93.2651 37.7687 95.3367 38.5257 98.0732C38.6824 99.7867 37.9514 100.81 36.3591 101.168C35.1843 101.321 34.349 100.656 33.9052 99.1985L33.3831 97.0246C33.1482 96.4108 32.6261 96.2062 31.843 96.4364C26.5959 97.9709 22.5236 99.1217 19.5999 99.8378C19.0778 100.042 18.7384 100.273 18.5818 100.528C18.3991 100.963 18.1119 101.065 17.7204 100.81C17.4593 100.58 17.1461 99.9913 16.8067 99.0706C16.5979 98.5847 16.4151 98.0732 16.2846 97.5617C16.1802 96.7944 16.5196 96.3341 17.3027 96.2062H19.3127C19.9393 96.2062 20.4091 95.8226 20.7224 95.0553C22.0276 91.5516 22.7325 87.8432 22.8108 83.9558L22.8891 83.9302ZM30.8249 103.111C31.5297 102.165 32.2606 101.782 33.0438 101.961C33.9313 102.319 34.8189 102.779 35.7325 103.316C36.9595 104.032 37.0378 104.671 35.9675 105.209C35.3932 105.413 35.1843 105.899 35.3671 106.641V116.692C35.6542 117.715 35.2627 118.559 34.1924 119.172C31.9474 119.965 30.8771 119.351 31.0076 117.28C31.0076 116.538 30.6944 116.155 30.0678 116.155H23.7505C23.0979 116.155 22.7586 116.359 22.7586 116.82C22.9152 118.073 22.2887 118.84 20.9051 119.096C18.9995 119.531 18.1641 118.891 18.373 117.203V103.393C18.373 102.6 18.8951 102.344 19.9393 102.625C20.4613 102.728 20.9834 102.932 21.5055 103.214C22.1843 103.546 22.7847 103.725 23.3329 103.725H29.1803C29.9373 103.879 30.4855 103.674 30.8249 103.137V103.111ZM30.8249 104.723L29.7285 104.671H23.7244C23.0718 104.671 22.7324 104.978 22.7324 105.592V114.134C22.7324 114.774 23.0457 115.106 23.6722 115.106H29.9895C30.6421 115.106 30.9815 114.799 30.9815 114.185V105.797C30.9815 105.183 30.9293 104.825 30.8249 104.723Z" fill="#6B6B6B"/>
<path d="M9.55429 130.452C9.81533 129.685 9.99806 129.276 10.1025 129.225C11.1989 129.583 12.4258 130.197 13.7832 131.092C14.4881 131.706 14.8274 132.115 14.8013 132.294C14.6708 132.498 14.462 132.601 14.2009 132.601C13.8615 132.524 13.5222 132.78 13.1828 133.342C11.5121 135.695 9.50208 137.869 7.10045 139.915C6.34342 140.503 6.29121 140.81 6.94383 140.81C8.24906 140.81 9.60649 140.708 11.0161 140.529C11.6427 140.452 11.8515 140.017 11.6427 139.25C11.3555 138.713 10.99 138.176 10.5724 137.639C10.6768 137.179 11.0945 137.127 11.8254 137.511C12.8696 137.844 13.7832 138.304 14.5403 138.867C16.4981 140.58 16.8636 142.294 15.6889 144.007C15.1668 144.57 14.5925 144.774 13.9399 144.621C12.7652 144.34 12.1647 143.547 12.1647 142.217C12.1386 141.603 11.8776 141.424 11.3816 141.68C10.7812 141.987 10.4679 142.421 10.4679 142.958V145.209C10.4679 145.823 10.8595 146.258 11.6427 146.513C14.462 147.639 16.0021 149.199 16.2893 151.142C16.4459 152.6 15.7672 153.521 14.227 153.853C13.0784 153.726 12.3736 153.086 12.1647 151.961C11.9559 150.324 11.486 148.943 10.7551 147.818C10.5463 147.664 10.4418 147.894 10.4418 148.508V159.02C10.5724 161.168 9.44987 161.909 7.07435 161.27C6.26511 160.886 5.97795 160.145 6.2129 159.071V149.864C6.2129 149.122 5.95185 149.173 5.42976 150.068C4.48999 152.703 3.13255 155.107 1.35744 157.332C0.391569 158.303 0 158.329 0.208837 157.383C1.04418 154.007 1.59238 150.989 1.82732 148.329C1.90564 147.332 2.34941 146.871 3.15866 146.974C3.81127 147.05 4.46389 147.178 5.14261 147.332C5.84743 147.511 6.2129 147.332 6.2129 146.744V144.621C6.2129 144.007 5.82133 143.802 5.03819 144.007C3.83738 144.416 2.94982 144.774 2.40162 145.081C2.08837 145.823 1.67069 146.027 1.1486 145.669C0.652615 144.519 0.261046 142.831 0 140.631C0.104418 140.529 0.548197 140.529 1.33133 140.606L3.23697 140.759C3.86348 140.759 4.48999 140.401 5.0904 139.634C6.99603 136.872 8.45789 133.828 9.50208 130.478L9.55429 130.452ZM5.6647 124.468C5.89964 123.701 6.08237 123.291 6.18679 123.24C7.23098 123.522 8.24905 123.88 9.18882 124.289C9.89365 124.545 10.3374 124.826 10.5202 125.107C10.7551 125.542 10.5202 125.849 9.81533 126.002C9.58039 126.053 9.18882 126.488 8.64062 127.307C8.04022 128.176 7.33539 129.02 6.55226 129.787C5.92575 130.401 5.95185 131.092 6.68278 131.885C7.25708 133.189 7.12656 134.365 6.239 135.414C5.82133 135.849 5.14261 136.002 4.22895 135.849C3.3936 135.465 2.92372 134.928 2.8193 134.237C2.71488 132.703 2.34941 131.399 1.74901 130.376C1.17471 129.557 0.939766 129.097 1.04418 128.995C1.35744 128.918 1.67069 128.969 1.98395 129.122L3.13255 129.481C3.75906 129.711 4.22895 129.455 4.5422 128.662C5.01208 127.46 5.40365 126.079 5.6908 124.57L5.6647 124.468ZM19.6307 124.954C19.8395 124.135 20.3616 123.752 21.1708 123.828C22.0584 123.982 22.9721 124.187 23.8596 124.417C24.8516 124.851 25.3998 125.158 25.4781 125.337C25.5825 125.721 25.3737 125.977 24.8516 126.079C24.46 126.028 24.1729 126.309 23.9901 126.897L23.1287 128.458C22.711 129.25 22.8154 129.66 23.4419 129.66C25.0343 129.66 26.6267 129.66 28.2974 129.583C28.4018 129.532 28.5845 129.353 28.8195 129.046C29.446 128.381 29.8637 128.048 30.0464 128.048C30.8556 128.458 31.7432 129.071 32.683 129.915C33.8838 130.759 34.0143 131.373 33.0484 131.731C32.7091 131.731 32.4219 131.936 32.187 132.422C31.195 134.519 29.8115 136.514 28.0886 138.406C27.4881 139.02 27.5665 139.557 28.3757 139.992C31.0384 141.424 33.9099 142.268 37.0163 142.498C37.9561 142.345 38.4782 142.549 38.6087 143.112C38.5304 143.24 38.0866 143.419 37.3035 143.623C36.1549 144.084 35.189 144.902 34.4581 146.104C34.0404 146.871 33.44 147.127 32.6308 146.871C30.1508 145.848 27.9058 144.467 25.8958 142.728C25.0343 141.884 24.3295 141.654 23.8074 142.038C20.5704 144.084 17.7772 145.439 15.4017 146.13C14.3836 146.411 13.8615 146.437 13.8615 146.206C13.9138 146.053 14.3575 145.746 15.1668 145.286C17.2029 144.186 19.5001 142.473 22.0845 140.145C22.6588 139.583 22.711 138.892 22.2411 138.099C21.6146 136.948 21.0403 135.542 20.4921 133.879C20.3355 133.163 19.8917 133.163 19.1869 133.931C17.6206 135.567 15.9238 136.769 14.1226 137.537C13.9921 137.46 13.9138 137.358 13.8877 137.23C15.5844 135.184 16.9419 133.061 17.9861 130.862C18.6387 129.148 19.213 127.204 19.6829 125.03L19.6307 124.954ZM33.8316 152.754C34.8496 152.498 35.3717 152.472 35.424 152.677C35.3978 152.805 34.9541 153.163 34.0926 153.751C30.9862 155.337 26.2612 157.357 19.8917 159.787C19.6046 159.991 19.4218 160.222 19.3435 160.477C18.7692 161.296 18.1949 161.014 17.6467 159.582C16.9158 158.355 16.4981 157.383 16.3937 156.692C16.472 156.59 16.9158 156.488 17.6989 156.334C23.2592 155.49 28.6368 154.288 33.8838 152.728L33.8316 152.754ZM20.962 145.951C20.9881 145.465 21.458 145.337 22.3455 145.567C23.0504 145.618 23.964 145.848 25.1126 146.232C27.2793 147.127 28.2713 148.508 28.1408 150.375C28.0102 151.296 27.462 151.935 26.4962 152.242C25.6869 152.6 24.9299 152.293 24.2512 151.347L23.1548 148.252C22.8415 147.536 22.1106 146.769 20.9881 145.976L20.962 145.951ZM28.0625 131.68C28.3235 130.989 28.1408 130.631 27.5143 130.631H22.6588C22.0062 130.759 21.5624 130.964 21.3275 131.22C21.0664 131.552 21.1186 132.14 21.4841 132.959C22.0323 134.135 22.7893 135.286 23.7813 136.411C24.3295 137.025 24.9038 137 25.4781 136.335C26.6528 134.8 27.5404 133.24 28.0886 131.706L28.0625 131.68Z" fill="#6B6B6B"/>
<path d="M7.61871 167.152C7.72313 166.308 7.82754 165.848 7.93196 165.796C8.84562 165.745 10.1509 165.848 11.7954 166.103C12.9179 166.103 13.4139 166.513 13.2834 167.254C13.1529 167.382 12.8135 167.561 12.2914 167.791C11.9782 168.021 11.7693 168.533 11.691 169.3C11.3256 170.988 10.9862 172.702 10.6991 174.441C10.6207 175.055 10.9079 175.361 11.5344 175.361C12.5264 175.361 13.5706 175.361 14.6408 175.285C15.0585 175.055 15.4501 174.62 15.7895 174.006C16.3899 173.315 16.7553 172.957 16.8858 172.957C17.8256 173.239 18.8959 174.006 20.0445 175.234C20.5405 175.796 20.6449 176.308 20.3317 176.768L19.1047 177.356C18.9742 177.587 18.8437 177.97 18.7393 178.482C17.93 182.599 16.7814 186.538 15.3457 190.272C15.0846 190.885 15.3457 191.55 16.181 192.241C19.0003 194.543 20.1489 196.64 19.6268 198.532C18.9481 199.837 18.0083 200.297 16.7814 199.837C16.3115 199.709 15.8417 199.274 15.3979 198.558C14.9541 197.586 14.432 196.589 13.8577 195.617C13.4139 195.003 12.9179 195.08 12.3959 195.847C10.5424 198.123 8.45406 199.811 6.07854 200.962C5.03435 201.473 3.96406 201.934 2.91988 202.343C1.9018 202.624 1.3536 202.701 1.30139 202.548C1.30139 202.394 1.66686 202.011 2.45 201.397C6.444 199.044 9.02836 196.179 10.177 192.804C10.4641 192.139 10.2292 191.474 9.49824 190.834C8.95004 190.4 8.40185 190.016 7.85365 189.683C7.25324 189.351 6.78336 189.607 6.47011 190.451C5.97412 192.164 4.7472 192.676 2.78936 192.036C1.87569 191.755 1.64075 191.064 2.08453 189.99C3.83354 185.182 5.08656 180.937 5.79139 177.28C5.8697 176.666 5.58255 176.359 4.95604 176.359C4.1729 176.308 2.91988 176.436 1.19697 176.717C0.43994 175.361 0.674882 174.85 1.9018 175.259C2.97209 175.361 4.06848 175.413 5.13877 175.387C5.76528 175.387 6.18295 175.003 6.36569 174.236C6.96609 171.346 7.35766 168.993 7.54039 167.152H7.61871ZM14.5625 177.433C14.8758 176.512 14.5625 176.154 13.6228 176.384H11.3256C10.6991 176.384 10.2814 176.768 10.0725 177.535C9.31551 180.707 8.48016 183.929 7.5926 187.152C7.40987 187.816 7.64481 188.2 8.27132 188.302C9.00225 188.481 9.78539 188.712 10.5946 188.993C11.2211 189.249 11.691 188.993 11.9782 188.226C12.9963 184.978 13.8838 181.372 14.5886 177.407L14.5625 177.433ZM21.6891 173.725C21.6891 172.906 22.0546 172.548 22.7855 172.676C23.6208 172.932 24.7955 173.418 26.2835 174.108C26.7012 174.338 27.2233 174.466 27.8759 174.466H31.0345C31.6088 173.801 32.2354 173.188 32.888 172.574C33.5145 172.574 34.637 172.983 36.2033 173.801C37.2735 174.364 37.8478 174.927 37.9001 175.515C37.8217 175.796 37.378 176.103 36.5948 176.41C36.4904 176.564 36.4382 176.947 36.4382 177.561V197.867C36.7253 198.916 36.3338 199.734 35.2635 200.297C33.9844 200.809 32.9402 200.655 32.1831 199.837C32.1048 199.069 32.0787 198.277 32.1048 197.484C32.1048 196.844 31.7916 196.512 31.1651 196.512H27.0666C26.414 196.512 26.0747 196.819 26.0747 197.433C26.153 198.635 26.0747 199.504 25.8658 200.016C25.3959 200.834 24.404 201.218 22.916 201.141C21.8718 200.885 21.4541 200.118 21.6891 198.865V173.725ZM32.0265 175.617C32.0265 175.617 31.5566 175.464 30.9562 175.464H27.0405C26.3879 175.464 26.0486 175.771 26.0486 176.384V194.492C26.0486 195.131 26.3618 195.463 26.9883 195.463H31.0868C31.7394 195.463 32.0787 195.156 32.0787 194.543V176.666C32.0787 176.052 32.0787 175.694 32.0004 175.617H32.0265Z" fill="#6B6B6B"/>
<path d="M31.743 221.755C32.3956 220.962 32.8394 220.527 33.0483 220.476C33.4659 220.502 34.1447 220.911 35.1105 221.678C36.233 222.573 37.1206 223.494 37.721 224.415C37.5383 224.926 36.9901 225.105 36.1025 224.926H3.36732L2.1143 225.156C1.27895 225.284 0.756862 225.08 0.574129 224.568C0.417502 223.929 0.782966 223.647 1.72273 223.724C2.19262 223.724 2.71471 223.775 3.2629 223.878H28.9237C29.6808 224.031 30.229 223.826 30.5683 223.289C30.9077 222.778 31.2993 222.266 31.743 221.755Z" fill="#6B6B6B"/>
</svg>
