<svg width="85" height="342" viewBox="0 0 85 342" fill="none" xmlns="http://www.w3.org/2000/svg">
<path d="M55.4008 10.1009C55.5777 9.25783 56.0831 8.91068 56.8919 9.08425C57.7512 9.28263 58.6104 9.58019 59.495 9.95214C60.0763 10.1009 60.4301 10.3985 60.5312 10.8448C60.4806 11.2168 60.2279 11.4151 59.773 11.4151C59.5203 11.4647 59.1412 11.8863 58.6357 12.655C58.2061 13.3989 57.7006 14.1428 57.1446 14.9115C56.8161 15.3578 56.6391 15.8785 56.6391 16.4737V34.6992C56.3864 35.6167 55.5271 36.0382 54.0866 35.9638C52.8987 35.815 52.3933 35.1207 52.646 33.8561V21.3338C52.646 20.7387 52.2669 20.7387 51.5087 21.3834L49.588 22.8712C48.476 23.6151 48.1222 23.6151 48.5265 22.8216C52.1406 18.6806 54.4404 14.4155 55.4513 10.0761L55.4008 10.1009ZM54.0613 1.62046C54.2888 0.802172 54.7689 0.479815 55.4766 0.653392C56.3359 0.926155 57.2457 1.24851 58.1808 1.62046C58.8379 1.89322 59.1664 2.24038 59.1412 2.63712C59.0653 2.93468 58.8379 3.08346 58.4588 3.08346C58.0544 3.00907 57.5995 3.45541 57.0941 4.39769C55.0975 7.19971 52.6207 9.5058 49.6385 11.2912C48.8803 11.6631 48.4507 11.8119 48.3496 11.7375C48.3496 11.6383 48.6782 11.192 49.3353 10.3985C51.6351 7.52206 53.202 4.59606 54.0866 1.62046H54.0613ZM69.9833 16.3497C69.9833 15.581 70.3624 15.209 71.0953 15.2338C71.9293 15.3082 72.8138 15.4322 73.7237 15.581C74.684 15.9529 75.1642 16.2753 75.1642 16.5232C75.1137 16.7712 74.9115 16.9696 74.5829 17.0936C74.3555 17.168 74.2039 17.2671 74.1533 17.3663C74.0775 18.3582 74.0522 19.3997 74.0775 20.4659C74.0775 21.0858 74.3302 21.4082 74.8357 21.4082C75.417 21.557 75.8971 21.3586 76.3015 20.8379L77.5146 19.3501C77.9695 18.5814 78.4497 18.3582 78.9299 18.6806C80.4715 19.7468 81.5836 20.8379 82.2154 21.9537C82.2154 22.1521 81.8363 22.3009 81.0276 22.4001H75.0379C74.406 22.4001 74.0775 22.6976 74.0775 23.2927V29.9382C74.0775 30.5334 74.4566 30.8805 75.2148 30.9549C78.0959 31.2029 80.5726 31.1285 82.6703 30.6821C83.4285 30.6077 83.8581 30.6077 83.9339 30.7317C83.9087 30.8557 83.5296 31.2525 82.8219 31.922C82.2407 32.5915 81.8616 33.3602 81.6847 34.2529C81.5583 35.0215 81.1034 35.4679 80.3199 35.5919C78.3992 35.815 76.1499 35.6911 73.5468 35.2199C69.9833 34.3768 67.1274 32.2691 65.0298 28.9216C64.6001 28.1777 64.1705 28.1777 63.7661 28.9216C61.9465 31.8724 59.8994 33.8809 57.5742 34.9224C57.4479 34.8232 57.6753 34.4016 58.2566 33.6825C58.8632 32.889 59.4697 31.8724 60.1015 30.6821C61.4916 27.5082 62.2497 23.7887 62.3508 19.4988C62.3508 18.6806 62.7552 18.2838 63.5387 18.3086C64.3979 18.383 65.2825 18.507 66.1418 18.6806C66.6725 18.7054 67.1021 18.8789 67.4307 19.2013C67.5823 19.598 67.4307 19.8708 67.0011 19.9948C66.7231 20.1684 66.4956 20.6395 66.344 21.3834C66.066 22.5736 65.7374 23.8135 65.3583 25.1029C65.055 25.8964 65.2067 26.6651 65.8638 27.3594C66.6978 28.2025 67.7087 28.9216 68.8713 29.4919C69.5789 29.7895 69.9327 29.6903 69.9327 29.1447V16.3993L69.9833 16.3497ZM64.2463 0.182255C64.3474 0.00867883 64.777 -0.0409145 65.51 0.0334755C66.4198 0.182255 67.3043 0.430222 68.1131 0.777375C69.0987 1.2981 69.6042 1.64526 69.6294 1.81883C69.68 2.21558 69.4273 2.46355 68.8713 2.56273C68.3658 2.71151 67.8603 3.43062 67.3296 4.69525C67.0516 5.29037 67.3043 5.71191 68.0625 5.95988C69.2504 6.33182 70.3118 7.10052 71.2216 8.29076C71.5502 8.93547 71.8787 8.88588 72.182 8.09239C73.4204 5.31516 74.2291 2.66192 74.5829 0.107865C74.684 0.0334755 75.1137 0.0830688 75.8719 0.231849C76.8828 0.479815 77.8179 0.826968 78.6266 1.27331C79.3595 1.81883 79.7639 2.16599 79.8145 2.31477C79.7134 2.7859 79.4101 3.00907 78.9299 2.98428C78.6266 3.03387 78.2728 3.30663 77.8937 3.80257L76.9839 5.56313C76.6553 6.15825 76.8828 6.57979 77.7168 6.82776C80.1683 7.69564 81.7857 9.18344 82.6197 11.2416C82.8472 11.8863 82.7208 12.6302 82.2659 13.4981C81.7605 14.1428 81.0023 14.3659 80.0166 14.1428C79.4101 13.7956 79.0057 13.3493 78.8288 12.8038C78.4497 11.2168 77.7673 9.80336 76.7564 8.53873C76.1751 7.94361 75.6191 8.018 75.0631 8.81149C72.6117 12.3822 70.1854 14.6635 67.7592 15.6802C67.6582 15.6058 67.9109 15.1594 68.5174 14.3411C68.9471 13.8452 69.3262 13.3493 69.6547 12.8533C70.1602 12.1094 70.2613 11.7375 69.9327 11.7375C68.7702 11.4895 68.0878 10.7456 67.9362 9.481C67.734 8.98507 67.456 8.48913 67.1274 7.9932C66.6472 7.2245 66.1923 7.19971 65.7627 7.91881C64.0694 11.068 61.8454 13.6716 59.0653 15.705C58.9137 15.7298 58.7621 15.705 58.6357 15.6306C58.5852 15.5066 58.8379 15.0602 59.3939 14.3163C61.5926 11.3407 63.1848 6.62938 64.1705 0.182255H64.2463Z" fill="#6B6B6B"/>
<path d="M57.4216 41.617C57.4216 40.8731 57.7754 40.5012 58.5589 40.526C60.5049 40.6251 61.8949 40.9227 62.7289 41.4186C62.9817 41.9146 62.7037 42.3113 61.8444 42.6089C61.7433 42.7081 61.6927 43.0552 61.6927 43.6503V46.6011C61.6927 47.2211 61.996 47.5434 62.6026 47.5434H67.3033C67.9352 47.5434 68.2637 47.2458 68.2637 46.6507V41.617C68.2637 40.8483 68.6175 40.4764 69.401 40.5012C71.3976 40.6003 72.7876 40.8979 73.571 41.3938C73.8238 41.8898 73.5205 42.2865 72.6865 42.5841C72.5854 42.6833 72.5349 43.0304 72.5349 43.6255V46.5763C72.5349 47.1963 72.7118 47.5186 73.0403 47.5186C73.571 47.6178 73.9754 47.4194 74.2281 46.9235C75.1127 45.6589 75.9214 44.7662 76.6038 44.2951C77.6147 44.667 78.8025 45.5349 80.1167 46.9235C80.6475 47.6426 80.9255 48.0889 80.9255 48.2625C80.7991 48.4113 80.3189 48.4857 79.5102 48.4857H73.5205C72.8887 48.4857 72.5601 48.7832 72.5601 49.3784V54.3625C72.5601 54.9824 72.8634 55.3048 73.4699 55.3048C74.3292 55.3048 75.2391 55.3048 76.1742 55.2304C76.2752 55.1808 76.4522 55.0072 76.6796 54.7096C77.5642 53.445 78.3729 52.5523 79.0553 52.0812C80.0662 52.4531 81.254 53.321 82.5682 54.7096C83.0989 55.4287 83.377 55.8751 83.377 56.0487C83.2506 56.1974 82.7704 56.2718 81.9617 56.2718H50.5979L49.3848 56.4702C48.5761 56.619 48.0453 56.3214 47.8179 55.6023L47.7168 55.156C47.7168 55.156 48.1717 55.032 48.9299 55.1064C49.4101 55.1064 49.9408 55.2056 50.4968 55.3048H56.4865C57.1183 55.3048 57.4469 55.0072 57.4469 54.4121V49.428C57.4469 48.808 57.1436 48.4857 56.5371 48.4857H52.7461L51.533 48.7089C50.7243 48.7832 50.2188 48.5849 50.0419 48.1385C49.9155 47.5186 50.2946 47.2459 51.1792 47.3202C52.1648 47.5186 53.9339 47.593 56.4865 47.5186C57.1183 47.5186 57.4469 47.2211 57.4469 46.6259V41.5674L57.4216 41.617ZM53.9339 59.9169C53.9339 59.1482 54.3383 58.8507 55.1218 59.0243C55.9811 59.2722 56.8909 59.6194 57.826 60.0657C58.2556 60.3137 58.7864 60.4377 59.3929 60.4377H70.2097C70.9174 60.5865 71.4734 60.3881 71.903 59.8673C72.3832 59.1978 72.7623 58.7763 73.0403 58.6275C74.1018 58.7267 75.4412 59.2722 77.0082 60.2889C78.0949 60.9088 78.1707 61.5039 77.2356 62.0495C76.5785 62.1486 76.3258 62.6198 76.5027 63.4381V73.9766C76.8313 75.5884 76.0478 76.4811 74.1776 76.6299C72.7876 76.8035 72.1305 76.2331 72.2568 74.8941C72.2568 74.3238 71.9536 74.0262 71.347 74.0262H59.0896C58.4578 74.0262 58.1293 74.3982 58.104 75.1421C57.9776 75.7372 57.6491 76.1339 57.1183 76.3323C56.3349 76.7787 55.3998 76.8035 54.2878 76.3819C53.9592 76.0844 53.8329 75.5388 53.9339 74.7701V59.8921V59.9169ZM72.2821 62.4958C72.2821 61.8015 71.9536 61.4543 71.3217 61.4543H59.1655C58.4831 61.4543 58.1293 61.7767 58.1293 62.3966V65.9673C58.1293 66.5872 58.4325 66.9096 59.0391 66.9096H71.2965C71.9283 66.9096 72.2568 66.612 72.2568 66.0169V62.5206L72.2821 62.4958ZM72.2821 68.8437C72.2821 68.2238 71.9788 67.9015 71.3723 67.9015H59.1149C58.4831 67.9015 58.1545 68.199 58.1545 68.7941V72.1417C58.1545 72.7616 58.4578 73.084 59.0644 73.084H71.3217C71.9536 73.084 72.2821 72.7864 72.2821 72.1913V68.8437ZM68.2637 49.5023C68.2637 48.8824 67.9604 48.5601 67.3539 48.5601H62.6531C62.0213 48.5601 61.6927 48.8576 61.6927 49.4528V54.4369C61.6927 55.0568 61.996 55.3792 62.6026 55.3792H67.3033C67.9352 55.3792 68.2637 55.0816 68.2637 54.4865V49.5023Z" fill="#6B6B6B"/>
<path d="M74.5782 81.7877C75.2606 80.4982 76.1199 80.2503 77.1055 81.0438C78.2175 81.4405 79.2537 82.0108 80.1635 82.7299C80.947 83.4242 80.8964 83.9946 79.9613 84.4161C79.279 84.5649 79.0515 85.0112 79.279 85.7551V114.668C78.7483 115.833 77.7121 116.379 76.1451 116.23C74.932 116.007 74.4518 115.288 74.7804 114.048V112.883C74.7804 112.263 74.4771 111.94 73.8706 111.94H57.6453C57.0135 111.94 56.685 112.238 56.685 112.833C57.0388 115.288 55.8257 116.305 53.0204 115.858C52.2875 115.511 52.0095 114.817 52.1864 113.751V82.1844C52.1864 81.3661 52.5907 81.0438 53.3742 81.2421C54.2335 81.4653 55.118 81.7877 55.9773 82.1844C56.5333 82.4572 57.0893 82.6059 57.6706 82.6059H72.6575C73.4662 82.8043 74.1233 82.5068 74.654 81.7381L74.5782 81.7877ZM57.9486 83.6226C56.9124 83.4242 56.4828 83.7466 56.6597 84.5649V95.6738C56.6597 96.2937 56.963 96.616 57.5695 96.616H73.82C74.4518 96.616 74.7804 96.3185 74.7804 95.7234V84.788C74.9826 83.7714 74.5782 83.3994 73.5926 83.6722H57.9739L57.9486 83.6226ZM74.7551 98.575C74.7551 97.9055 74.4771 97.5583 73.9211 97.5583H57.5948C56.963 97.5583 56.6344 97.8559 56.6344 98.451V110.031C56.6344 110.651 56.9377 110.973 57.5442 110.973H73.7948C74.4266 110.973 74.7551 110.676 74.7551 110.081V98.575Z" fill="#6B6B6B"/>
<path d="M63.5648 122.355C64.1966 121.586 64.5757 121.189 64.7021 121.165C65.435 121.338 66.4964 122.107 67.8359 123.495C68.4425 124.289 68.7457 124.735 68.7457 124.834C68.5436 125.132 68.0381 125.231 67.2294 125.132H60.5826C59.976 125.132 59.4958 125.504 59.142 126.248C58.3333 128.232 56.9685 130.24 55.0478 132.323C54.4918 132.893 54.5676 133.166 55.3258 133.117C57.7014 132.993 60.0771 132.819 62.4275 132.596C63.0846 132.521 63.211 132.1 62.8066 131.356C62.5539 130.885 61.8968 130.215 60.81 129.372C60.5826 129.124 60.6584 128.926 61.0375 128.802C63.5395 129.372 65.6372 130.463 67.3304 132.075C68.493 133.364 68.8974 134.629 68.5436 135.819C68.4172 136.91 67.7854 137.53 66.6228 137.654C65.0306 137.481 64.1713 136.414 64.0955 134.456C63.8681 133.786 63.3879 133.538 62.6802 133.736C61.9473 133.91 61.2144 134.133 60.4562 134.381C59.8497 134.604 59.5464 135.026 59.5464 135.621V141.498C59.5464 142.118 59.8497 142.44 60.4562 142.44C61.0628 142.44 61.644 142.143 62.1748 141.547L63.1604 140.308C63.6406 139.217 64.3988 139.167 65.4097 140.208C66.5975 141.126 67.5074 142.068 68.0886 142.986C67.8612 143.432 67.3304 143.581 66.4712 143.432H60.4815C59.8497 143.432 59.5211 143.73 59.5211 144.325V149.234C59.5211 149.829 59.9002 150.102 60.6584 150.028C62.7813 149.73 64.9295 149.334 67.1283 148.838C67.8865 148.763 68.3161 148.838 68.3919 148.986C68.4172 149.16 67.9117 149.482 66.9008 149.929C62.7813 151.59 57.6762 153.202 51.6107 154.764C51.0294 155.037 50.7008 155.285 50.625 155.483C50.5239 155.855 50.2712 155.979 49.8668 155.855C49.5636 155.632 49.2603 155.062 48.957 154.169L48.3505 152.656C48.123 151.739 48.4515 151.268 49.3866 151.268L54.3907 150.772C54.9972 150.673 55.3005 150.325 55.3005 149.73V144.374C55.3005 143.754 54.9972 143.432 54.3907 143.432C52.0403 143.382 50.4734 143.432 49.6394 143.63C48.8306 143.779 48.2999 143.506 48.0725 142.762L47.9714 142.316C47.9714 142.316 48.4263 142.192 49.1845 142.266C50.2206 142.465 51.9392 142.539 54.3401 142.465C54.972 142.465 55.3005 142.167 55.3005 141.572V136.737C55.3005 136.142 54.9214 135.919 54.1632 136.067C53.2787 136.241 52.3689 136.464 51.4843 136.712C50.8778 136.861 50.4734 137.084 50.2965 137.357C49.7657 138.001 49.3361 137.828 49.0328 136.786C48.679 136.043 48.4263 135.299 48.2746 134.53C48.1483 133.612 48.4768 133.166 49.3108 133.191L51.7876 133.241C52.3941 133.241 52.8743 132.869 53.2029 132.125C53.8852 130.29 54.416 128.281 54.7951 126.099C54.8456 125.504 54.5676 125.206 53.9611 125.206C51.737 125.132 50.1954 125.206 49.3361 125.43C48.5021 125.504 47.9966 125.33 47.845 124.859C47.6934 124.239 48.0724 123.967 48.9823 124.041C49.4372 124.066 49.9426 124.14 50.4734 124.239H60.9111C61.5935 124.438 62.1242 124.239 62.5033 123.644L63.489 122.454L63.5648 122.355ZM70.2621 126.769L70.3127 125.43C70.4643 125.38 70.6918 125.38 70.995 125.43C72.0059 125.529 73.0421 125.678 74.0531 125.851C75.064 125.876 75.5442 126.297 75.4683 127.116L74.4069 127.835C74.3311 127.959 74.3058 128.331 74.3058 128.926V147.027C74.0783 147.895 73.4465 148.342 72.385 148.342C70.6665 148.292 69.9588 147.548 70.2874 146.085V126.769H70.2621ZM77.7935 122.454C77.8693 121.66 78.2736 121.264 79.0066 121.289C79.9164 121.388 80.8768 121.537 81.8624 121.71C82.4184 121.735 82.848 121.908 83.126 122.231C83.3535 122.702 83.025 123.099 82.1404 123.396C82.0393 123.495 81.9888 123.843 81.9888 124.438V153.375C81.8371 154.466 81.1295 155.384 79.8406 156.078C78.8296 156.574 77.7429 156.797 76.6309 156.723C76.5298 156.649 76.4287 156.401 76.3529 156.004C75.898 154.69 74.8871 153.797 73.2949 153.375C72.663 153.276 72.4861 153.028 72.7641 152.631C72.941 152.557 73.4212 152.532 74.1794 152.532C75.6958 152.582 76.732 152.532 77.2627 152.433C77.7429 152.185 77.9198 151.689 77.7935 150.921V122.479V122.454Z" fill="#6B6B6B"/>
<path d="M62.6271 162.923C63.0062 161.981 63.259 161.485 63.3601 161.435C64.3204 161.609 65.3061 161.906 66.2664 162.303C67.2774 162.576 67.9597 162.948 68.2883 163.419C68.3894 163.716 68.263 163.94 67.8586 164.064C67.6312 164.138 67.6565 164.46 67.9597 165.006C71.1947 169.866 75.2131 173.065 79.9897 174.652C81.0006 174.974 82.0368 175.247 83.0477 175.445C83.8564 175.644 84.2355 175.817 84.185 175.941C84.1344 176.115 83.7301 176.363 82.9719 176.685C81.5819 177.503 80.7226 178.346 80.4446 179.189C80.1666 179.933 79.9644 180.33 79.8633 180.38C75.668 179.14 72.0792 175.991 69.1223 170.982C68.1366 169.072 67.3785 167.386 66.8983 165.874C66.6961 165.279 66.3423 165.353 65.8368 166.097C60.7569 172.966 54.742 177.404 47.7161 179.363C47.615 179.289 47.5645 179.165 47.5645 179.016C54.7925 174.602 59.7966 169.221 62.5766 162.923H62.6271ZM72.6352 181.694C73.0649 181.074 73.5451 181 74.0758 181.471C75.1625 181.967 76.1229 182.661 76.9316 183.578C77.0833 183.975 76.9064 184.223 76.3504 184.322C75.9965 184.446 75.7438 184.843 75.6174 185.488C74.4043 189.48 73.0901 192.976 71.6749 195.977C71.4727 196.498 71.0178 196.82 70.3354 196.944C69.3245 197.167 68.3894 197.018 67.5806 196.448C67.429 196.299 67.4543 195.778 67.6817 194.861C69.375 191.389 70.6892 187.967 71.6496 184.595C71.8012 184 71.5738 183.702 70.9672 183.702H54.7925L53.5794 183.901C52.7707 184.05 52.2905 183.901 52.1641 183.38C52.0125 182.835 52.341 182.562 53.1245 182.587C53.6047 182.587 54.1354 182.686 54.6914 182.785H70.5881C71.1947 182.785 71.8518 182.413 72.5847 181.694H72.6352ZM67.151 174.478C67.6565 173.709 68.1114 173.337 68.5157 173.387C69.6025 173.982 70.7145 174.85 71.8012 175.966C72.3825 176.735 72.6605 177.181 72.6352 177.28C72.4078 177.578 71.877 177.677 71.0683 177.578H59.4175L58.2044 177.776C57.3956 177.9 56.8902 177.726 56.7133 177.255C56.5616 176.635 56.9407 176.363 57.8505 176.437C58.3307 176.437 58.8109 176.487 59.2911 176.586H64.371C65.1797 176.883 65.9126 176.437 66.5192 175.247L67.1257 174.503L67.151 174.478Z" fill="#6B6B6B"/>
<path d="M54.2099 202.15C54.2099 201.382 54.5638 201.01 55.3472 201.034C57.3185 201.134 58.7085 201.456 59.5425 201.977C59.7447 202.349 59.5425 202.671 58.936 202.944C58.6327 203.068 58.4811 203.44 58.4811 204.035V205.597C58.4811 206.217 58.8096 206.539 59.4667 206.539C60.1996 206.539 60.7809 206.242 61.1853 205.671C61.5897 205.027 62.0446 204.407 62.55 203.836C62.7269 203.712 63.2829 204.01 64.1928 204.729C64.5719 205.101 64.9004 205.473 65.1784 205.845C65.6081 206.589 65.8355 207.035 65.8355 207.159C65.6081 207.531 65.0773 207.655 64.2686 207.531H59.4162C58.7844 207.531 58.4558 207.829 58.4558 208.424V210.705C58.4558 211.325 58.658 211.647 59.0624 211.647C59.4667 211.647 59.9216 211.399 60.4018 210.928C60.9073 210.036 61.6655 209.936 62.7017 210.631C64.3444 211.399 65.3553 212.094 65.7597 212.689C65.8608 213.011 65.6586 213.309 65.1531 213.557C64.6477 213.78 64.4455 214.276 64.5719 215.02V223.004C64.5466 223.525 64.1675 223.922 63.4346 224.17C61.8171 224.839 60.7809 224.542 60.3765 223.227C60.326 222.855 59.9975 222.657 59.4162 222.657C58.7844 222.657 58.4558 222.955 58.4558 223.55V226.401C58.4558 227.021 58.7844 227.344 59.4415 227.344C60.1744 227.344 60.7556 227.046 61.16 226.476C61.5644 225.831 62.0193 225.211 62.5248 224.641C62.7017 224.517 63.2577 224.814 64.1675 225.533C64.5466 225.905 64.8751 226.277 65.1531 226.649C65.5828 227.393 65.8102 227.84 65.8102 227.964C65.5828 228.335 65.052 228.459 64.2433 228.335H59.3909C58.7591 228.335 58.4305 228.633 58.4305 229.228V236.196C58.2031 237.089 57.5712 237.535 56.5603 237.535C54.8165 237.808 54.033 237.039 54.1594 235.204V229.253C54.1594 228.633 53.8561 228.311 53.2496 228.311C51.3288 228.261 49.9641 228.311 49.0795 228.509C48.2455 228.608 47.7653 228.435 47.639 227.988C47.5126 227.393 47.8917 227.12 48.751 227.17C49.7619 227.319 51.253 227.368 53.2243 227.319C53.8561 227.319 54.1847 227.021 54.1847 226.426V223.575C54.1847 222.955 53.9067 222.632 53.3507 222.632C52.7947 222.632 52.4661 223.004 52.4408 223.748C52.087 224.74 51.2277 225.261 49.8883 225.285C48.4983 225.236 47.9423 224.641 48.2708 223.475V211.226C48.2708 210.432 48.6752 210.135 49.4586 210.358C50.3685 210.631 51.253 210.978 52.087 211.375C52.365 211.523 52.7694 211.598 53.3001 211.598C53.8814 211.598 54.1847 211.3 54.1847 210.705V208.424C54.1847 207.804 53.8814 207.481 53.2748 207.481C51.3541 207.432 49.9894 207.481 49.1048 207.68C48.2708 207.779 47.7906 207.605 47.6643 207.159C47.5379 206.564 47.917 206.291 48.7763 206.341C49.7872 206.49 51.2783 206.539 53.2496 206.49C53.8814 206.49 54.2099 206.192 54.2099 205.597V202.101V202.15ZM53.5276 212.639C52.8452 212.639 52.4914 212.937 52.4914 213.532V215.813C52.4914 216.433 52.7947 216.755 53.4012 216.755H59.3909C60.0227 216.755 60.3513 216.458 60.3513 215.863V213.656C60.3513 212.986 60.0227 212.639 59.3656 212.639H53.5276ZM60.3513 218.739C60.3513 218.07 60.0733 217.723 59.5173 217.723H53.4518C52.8199 217.723 52.4914 218.02 52.4914 218.615V220.723C52.4914 221.343 52.7947 221.665 53.4012 221.665H59.3909C60.0227 221.665 60.3513 221.368 60.3513 220.772V218.739ZM67.5793 201.431C67.6552 201.307 68.0848 201.431 68.843 201.729C69.4748 202.001 70.1066 202.324 70.7637 202.671C71.4461 203.043 72.0527 203.241 72.5581 203.241H76.8293C77.36 203.167 77.7896 202.795 78.1182 202.125C78.75 201.481 79.4829 201.307 80.2916 201.605C81.5553 202.225 82.5915 202.845 83.3497 203.489C84.0573 204.308 83.8046 204.927 82.5915 205.374C82.086 205.746 81.8838 206.291 82.0102 206.986V234.088C81.9091 234.683 81.7575 235.179 81.5553 235.601C80.974 236.667 79.8873 237.361 78.3204 237.634C77.5116 237.684 76.9809 237.337 76.7534 236.593C76.5513 235.675 75.8942 234.931 74.7569 234.411C73.9481 234.113 73.5185 233.89 73.4932 233.766C73.4932 233.592 73.4932 233.468 73.5943 233.394C74.4283 233.344 75.2876 233.32 76.1216 233.369C77.4611 233.344 78.0171 232.675 77.7644 231.385V223.847C77.7644 223.227 77.4611 222.905 76.8545 222.905H72.2296C71.623 222.905 71.2439 223.277 71.0923 224.021C70.9154 225.583 70.4857 227.468 69.8034 229.65C68.2364 233.592 65.7344 236.146 62.3478 237.287C62.1962 237.188 62.3478 236.766 62.7775 236.022C63.4093 235.055 64.0917 234.064 64.7993 233.096C65.6081 231.286 66.2399 229.303 66.6695 227.096C66.9475 226.104 67.1497 224.194 67.2508 221.442L67.5288 210.581V202.944C67.5288 202.101 67.5541 201.629 67.6046 201.53L67.5793 201.431ZM77.7896 214.821C77.7896 214.177 77.4863 213.854 76.9051 213.854H72.6592C72.0274 213.854 71.6988 214.152 71.6988 214.747L71.4208 220.896C71.4208 221.516 71.6988 221.839 72.3054 221.839H76.804C77.4358 221.839 77.7644 221.541 77.7644 220.946V214.846L77.7896 214.821ZM77.7391 204.456C77.638 204.308 77.2842 204.233 76.7029 204.233H72.6845C72.0527 204.233 71.7241 204.531 71.7241 205.126V211.871C71.7241 212.49 72.0274 212.813 72.6339 212.813H76.804C77.4358 212.813 77.7644 212.515 77.7644 211.92V205.423L77.7138 204.456H77.7391Z" fill="#6B6B6B"/>
<path d="M13.3458 64.6537C14.0787 64.1578 14.9127 64.133 15.8731 64.6041C17.3894 65.3728 18.3751 66.1663 18.8047 66.9598C18.6531 67.6541 18.1476 67.8525 17.3136 67.5549C16.2016 67.7781 15.0643 68.0509 13.9523 68.3484C13.27 68.5468 12.9161 68.9187 12.9161 69.4643V74.1508C12.9161 74.7707 13.2194 75.0931 13.826 75.0931H19.4871C20.0937 75.0931 20.3969 74.7212 20.3717 73.9773C20.1189 69.4891 20.0178 66.1911 20.0684 64.1082C20.1442 64.009 20.5991 64.009 21.4331 64.1578C22.3177 64.3066 23.2528 64.5049 24.2131 64.7529C25.0472 65.1001 25.5021 65.348 25.5526 65.4968C25.7548 65.9431 25.5526 66.3399 24.9713 66.687C24.6175 66.8854 24.4153 67.307 24.3648 67.9269V71.9439C24.3648 72.6878 24.4153 73.4317 24.4911 74.2004C24.567 74.7955 24.9208 75.0931 25.5273 75.0931C26.4372 75.1179 27.3975 75.0931 28.3832 75.0187C28.6359 74.8451 29.015 74.4236 29.4952 73.7541C29.849 73.2582 30.2534 72.7622 30.683 72.2663C31.2138 71.5472 31.9467 71.6712 32.907 72.6382C34.474 73.7789 35.4596 74.8451 35.8387 75.837C35.6871 76.0106 35.2069 76.1098 34.3982 76.1098H25.5779C24.9713 76.1098 24.6681 76.4817 24.6933 77.2256C25.0219 80.226 25.5526 82.8297 26.3108 85.0118C26.5635 85.6813 26.8921 85.6813 27.2712 85.0118C27.8525 83.8959 28.4085 82.3833 28.9139 80.474C29.1161 79.6557 29.6721 79.3085 30.5567 79.4325C31.6181 79.6557 32.6543 79.9532 33.6147 80.3004C34.1707 80.4492 34.5498 80.7467 34.7267 81.1931C34.6509 81.5154 34.4234 81.7138 34.0696 81.7634C33.7916 81.813 33.4631 82.1106 33.1092 82.6561C32.073 84.6646 30.8599 86.5739 29.5205 88.3841C28.9392 89.128 28.9139 89.8719 29.4447 90.6406C30.5567 92.0292 31.5423 92.7483 32.3763 92.7731C33.0334 92.5995 33.5894 92.0292 34.0696 91.0869C34.3476 90.3182 34.5498 89.8967 34.6509 89.8471C34.9289 89.7231 35.1311 89.8471 35.2322 90.2191C35.2827 90.3678 35.2322 90.6902 35.0805 91.1861C34.9289 91.6821 34.8278 92.178 34.7772 92.6739C34.5751 93.6658 35.2574 94.7816 36.7991 96.0215C37.532 97.1373 37.5067 98.0796 36.7233 98.7987C36.142 99.2202 35.2069 99.2946 33.9432 99.0219C31.4665 98.3028 29.015 96.5174 26.5635 93.6906C25.9823 92.9467 25.2999 92.8723 24.5417 93.4674C21.6353 95.6991 18.5773 97.2613 15.3676 98.2036C14.2809 98.4267 13.826 98.402 14.0029 98.154C17.4653 96.3934 20.5233 94.0625 23.177 91.1117C23.8341 90.343 23.9857 89.5743 23.6319 88.8304C22.1155 85.2845 21.1298 81.3419 20.7255 77.0272C20.6497 76.4073 20.2958 76.085 19.6893 76.085H13.9271C13.2952 76.085 12.9667 76.3825 12.9667 76.9777V81.937C12.9667 82.5569 13.371 82.7057 14.1545 82.3833L16.7829 81.2179C17.7938 80.7219 18.3245 80.5732 18.3498 80.7963C18.3498 80.9451 17.8949 81.3915 17.0862 82.1106C16.0753 82.904 15.0391 83.6479 14.0281 84.3175C13.3205 84.7638 12.9667 85.2845 12.9667 85.8796V95.2032C12.5118 97.5341 10.8943 98.7739 8.11427 98.9227C7.1539 98.9475 6.64844 98.5507 6.59789 97.7324C6.52207 96.7902 5.8397 95.9967 4.57606 95.3768C3.79259 95.0296 3.36295 94.7816 3.28713 94.6329C3.23659 94.4097 3.64096 94.2857 4.47496 94.2857H7.91209C8.69555 94.1865 8.99882 93.7402 8.79664 92.9467V88.1857C8.79664 87.5906 8.39227 87.4666 7.58354 87.8386C6.72426 88.1857 5.8397 88.5825 4.98042 89.004C4.12114 89.2272 3.76732 89.6735 3.91896 90.3182C3.74205 90.6902 3.51459 90.839 3.26186 90.7398C3.11022 90.6902 2.80695 90.2935 2.35203 89.5496C1.79603 88.2105 1.39166 86.9211 1.13893 85.6813C1.21475 85.5573 1.64439 85.4581 2.40258 85.3837C3.86841 85.2101 5.71334 84.8878 7.91209 84.4166C8.51864 84.2431 8.82191 83.8463 8.82191 83.2512V77.0272C8.82191 76.4073 8.51864 76.085 7.91209 76.085H3.64096L2.42785 76.2833C1.61912 76.4073 1.11366 76.2337 0.936749 75.7626C0.759838 75.1427 1.13893 74.8699 2.07403 74.9443C2.55422 74.9691 3.0344 75.0435 3.51459 75.1427H7.86154C8.49336 75.1427 8.82191 74.8451 8.82191 74.25V70.4313C8.82191 69.8362 8.44282 69.5634 7.68463 69.613C6.26934 69.8114 4.82878 69.9602 3.4135 70.0594C2.65531 70.109 2.22567 70.109 2.12458 70.0098C2.17512 69.613 2.40258 69.4147 2.78167 69.4395C7.00226 68.1996 10.5657 66.6126 13.4721 64.6785L13.3458 64.6537ZM27.0184 64.8769C27.069 64.7281 27.4986 64.6785 28.3074 64.7529C31.3907 65.2984 33.0081 66.7118 33.1598 68.9931C32.806 70.7289 31.795 71.2496 30.1017 70.5553C29.3941 70.0842 29.0403 69.3651 29.0656 68.4228C28.7876 67.4805 28.4085 66.7118 27.9535 66.1663C27.3217 65.4224 26.9932 64.9761 26.9932 64.8521L27.0184 64.8769Z" fill="#6B6B6B"/>
<path d="M5.4351 104.626C5.56147 103.857 6.01638 103.51 6.79984 103.585C7.63385 103.659 8.5184 103.833 9.42823 104.08C10.3381 104.552 10.793 104.874 10.7677 105.023C10.7172 105.172 10.515 105.37 10.1864 105.618C9.65569 105.791 9.32714 106.213 9.22605 106.883C8.72059 108.668 8.06349 110.404 7.28003 112.09C6.97675 112.735 7.10312 113.206 7.70967 113.503C8.08876 113.677 8.46786 113.9 8.84695 114.173C8.94805 114.297 8.84695 114.569 8.49313 114.966C8.08876 115.338 7.88658 115.834 7.88658 116.429V138.622C7.81076 139.242 7.43167 139.639 6.77457 139.788C4.55055 140.308 3.51436 139.589 3.69127 137.606V119.206C3.69127 118.562 3.36272 118.661 2.70562 119.504C2.37708 119.826 2.0738 120.149 1.82107 120.471C1.06288 121.215 0.607968 121.612 0.481603 121.637C0.355238 121.537 0.431057 121.116 0.759606 120.372C2.98363 115.884 4.52528 110.627 5.40983 104.626H5.4351ZM11.8544 104.824C11.8544 104.031 12.2335 103.709 12.9917 103.857C13.8257 104.105 14.7103 104.452 15.6201 104.874C16.2772 105.196 16.8585 105.37 17.3387 105.37C17.9199 105.37 18.4507 105.147 18.9056 104.7C19.4363 103.833 20.1945 103.709 21.1549 104.353C21.6603 104.576 22.1658 104.849 22.6713 105.147C23.5558 105.667 24.0865 106.089 24.2887 106.411C24.4404 106.659 24.2382 106.957 23.7075 107.304C23.1515 107.478 22.9493 107.949 23.1009 108.717V116.9C23.3536 118.388 22.6965 119.206 21.1549 119.33C19.6891 119.628 18.9056 119.132 18.855 117.867C18.855 117.297 18.5518 117 17.9452 117H16.9848C16.353 117 16.0245 117.297 16.0245 117.892V137.953C15.8223 139.143 15.1146 139.763 13.9268 139.788C12.183 139.862 11.5006 139.143 11.8292 137.655V104.824H11.8544ZM17.6419 106.362H17.3387C16.2519 106.114 15.8223 106.461 16.0497 107.403V109.833C16.0497 110.453 16.353 110.776 16.9596 110.776H17.9199C18.5518 110.776 18.8803 110.478 18.8803 109.883V107.329C18.8803 106.635 18.476 106.312 17.6672 106.362H17.6419ZM18.8803 112.685C18.8803 112.065 18.577 111.743 17.9705 111.743H17.0101C16.3783 111.743 16.0497 112.04 16.0497 112.635V115.041C16.0497 115.661 16.353 115.983 16.9596 115.983H17.9199C18.5518 115.983 18.8803 115.685 18.8803 115.09V112.685ZM25.148 105.048C25.148 104.204 25.5271 103.882 26.2853 104.105C27.1698 104.378 28.0797 104.7 28.9642 105.072C29.2675 105.246 29.7982 105.345 30.5564 105.345C31.3146 105.345 31.9212 105.097 32.3255 104.601C32.8563 104.105 33.5892 104.031 34.499 104.403C35.4341 104.849 36.1923 105.395 36.7483 106.064C37.1021 106.535 37.0769 106.932 36.6472 107.23C36.3945 107.428 36.2681 107.825 36.2681 108.42V136.415C35.6868 138.895 33.9683 139.986 31.1377 139.688C31.0619 139.589 30.9861 139.366 30.9355 139.044C30.8092 137.829 29.8741 136.738 28.1049 135.82C27.6753 135.721 27.3973 135.523 27.2962 135.25C27.3468 134.928 27.7764 134.853 28.5599 135.027C29.4444 135.027 30.4048 135.027 31.3904 134.952C31.9464 134.754 32.1486 134.308 31.997 133.613V117.942C31.997 117.322 31.6937 117 31.0872 117H30.329C29.6971 117 29.3686 117.371 29.3433 118.115C29.0906 119.107 28.2313 119.628 26.7908 119.653C25.426 119.653 24.87 119.058 25.148 117.892V105.023V105.048ZM32.0223 107.354C32.0223 106.684 31.7443 106.337 31.1883 106.337H30.3542C29.7224 106.337 29.3939 106.635 29.3939 107.23V109.809C29.3939 110.428 29.6971 110.751 30.3037 110.751H31.0619C31.6937 110.751 32.0223 110.453 32.0223 109.858V107.354ZM32.0223 112.685C32.0223 112.065 31.719 111.743 31.1124 111.743H30.3542C29.7224 111.743 29.3939 112.04 29.3939 112.635V115.041C29.3939 115.661 29.6971 115.983 30.3037 115.983H31.0619C31.6937 115.983 32.0223 115.685 32.0223 115.09V112.685Z" fill="#6B6B6B"/>
<path d="M10.8173 169.94C11.247 168.973 11.8535 168.651 12.6623 168.973C14.6841 169.766 15.9225 170.535 16.4027 171.254C16.3268 171.651 16.0488 171.849 15.5687 171.849C15.2401 171.899 14.7852 172.246 14.2292 172.866C10.4382 176.71 5.88911 178.966 0.581784 179.611C0.329055 179.338 0.3796 179.115 0.733422 178.966C0.88506 178.966 1.08724 178.892 1.3147 178.743C5.3331 176.784 8.5175 173.858 10.8173 169.94ZM10.2108 144.895C10.2108 144.127 10.6657 143.73 11.6261 143.73C12.637 143.829 13.6732 143.978 14.6841 144.176C15.3412 144.399 15.6697 144.697 15.6445 145.044C15.4676 145.391 15.2401 145.59 14.9874 145.639C14.5072 145.788 14.3303 146.21 14.4819 146.879V153.277C14.4819 153.897 14.7852 154.219 15.3917 154.219H20.2442C20.876 154.219 21.2045 153.921 21.2045 153.326V145.069C21.2045 144.251 21.5583 143.854 22.266 143.879C24.3384 143.978 25.7537 144.3 26.5118 144.821C26.7646 145.193 26.5877 145.515 25.9306 145.788C25.6273 145.912 25.4757 146.284 25.4757 146.879V153.277C25.4757 153.897 25.8295 154.219 26.5118 154.219H27.7249C28.1293 153.897 28.5084 153.475 28.837 152.905C29.1908 152.409 29.5951 151.913 30.0248 151.417C30.5302 150.648 31.1621 150.673 31.895 151.491C32.7795 152.111 33.6388 152.855 34.4476 153.698C34.9783 154.467 35.2057 154.913 35.1299 155.037C34.9783 155.136 34.5234 155.186 33.7652 155.186H26.436C25.8042 155.186 25.4757 155.484 25.4757 156.079V164.51C25.4757 165.129 25.7789 165.452 26.3855 165.452H28.1799C28.8117 165.452 29.3677 165.154 29.8731 164.584L30.8335 163.344C31.4653 162.104 32.173 161.807 32.9312 162.476C34.3465 163.319 35.5848 164.485 36.5958 165.973C36.4947 166.419 35.9892 166.568 35.0794 166.419H3.56399L2.35089 166.617C1.54216 166.766 1.01142 166.493 0.758695 165.749L0.63233 165.303C0.63233 165.303 1.08724 165.179 1.84543 165.253C2.37616 165.278 2.9069 165.353 3.43763 165.452H9.25041C9.88223 165.452 10.2108 165.154 10.2108 164.559V156.128C10.2108 155.508 9.90751 155.186 9.30096 155.186H5.25728L4.04418 155.384C3.23545 155.533 2.70471 155.236 2.45198 154.517L2.32562 154.07C2.32562 154.07 2.78053 153.971 3.53872 154.045C4.06945 154.045 4.60019 154.145 5.13092 154.244H9.25041C9.88223 154.244 10.2108 153.946 10.2108 153.351V144.92V144.895ZM21.2045 156.153C21.2045 155.533 20.9012 155.211 20.2947 155.211H15.4423C14.8105 155.211 14.4819 155.508 14.4819 156.104V164.534C14.4819 165.154 14.7852 165.477 15.3917 165.477H20.2442C20.876 165.477 21.2045 165.179 21.2045 164.584V156.153ZM21.5836 169.122C21.6089 168.948 22.0385 168.899 22.8473 168.973C26.5118 169.692 29.4941 171.229 31.7433 173.585C33.4619 175.445 33.841 177.181 32.8806 178.842C31.0863 180.231 29.7721 179.834 28.9128 177.652C27.9019 174.503 25.8547 171.949 22.7967 170.014C22.0133 169.593 21.6089 169.295 21.5836 169.147V169.122Z" fill="#6B6B6B"/>
<path d="M16.8823 185.041C16.8823 184.248 17.2614 183.851 18.0196 183.876C18.8536 183.95 19.7382 184.074 20.648 184.223C21.1787 184.297 21.6337 184.446 21.9875 184.644C22.5182 185.066 22.4171 185.438 21.6337 185.76C21.3051 185.959 21.1282 186.355 21.1282 186.926V187.744C21.1282 188.364 21.4315 188.686 22.038 188.686H28.3057C28.9375 188.686 29.4935 188.389 29.999 187.818L30.9594 186.578C31.6165 185.909 32.0208 185.562 32.1472 185.537C33.8658 186.405 35.2558 187.694 36.2667 189.356C35.9887 189.653 35.458 189.752 34.6492 189.653H8.9719C8.34008 189.653 8.01153 189.951 8.01153 190.546V193.993C8.01153 194.613 8.31481 194.935 8.92136 194.935H11.0696C11.7014 194.935 12.0299 194.637 12.0299 194.042V191.86C12.0299 191.067 12.4343 190.695 13.2178 190.744C14.077 190.843 14.9616 190.992 15.8209 191.166C16.4527 191.215 16.9076 191.389 17.1603 191.662C17.4636 192.108 17.2109 192.53 16.4274 192.902C16.3011 193.075 16.2252 193.447 16.2252 194.017C16.2252 194.637 16.5285 194.96 17.1351 194.96H20.648C21.2798 194.96 21.6084 194.662 21.6084 194.067V191.885C21.6084 191.091 22.0128 190.719 22.7962 190.769L25.3993 191.141C26.0059 191.215 26.4608 191.389 26.7641 191.662C27.0421 192.182 26.7641 192.604 25.9553 192.926C25.8542 193.05 25.8037 193.422 25.8037 194.017C25.8037 194.613 26.107 194.96 26.6882 194.96C27.2695 194.96 27.8255 194.662 28.331 194.067C29.165 192.976 29.7968 192.282 30.2517 192.009C30.4286 192.009 30.9088 192.257 31.667 192.753C32.3747 193.249 33.2087 194.042 34.1185 195.158C34.4218 195.927 33.9669 196.2 32.7538 195.976H26.7893C26.1575 195.976 25.829 196.274 25.829 196.869V201.704C26.1828 203.143 25.5257 203.911 23.8324 203.986C22.4929 204.11 21.7347 203.539 21.6084 202.3C21.6084 201.878 21.3051 201.655 20.6986 201.655H17.1856C16.5538 201.655 16.2252 201.828 16.2252 202.176C16.3263 203.068 15.922 203.639 15.0374 203.862C12.9398 204.358 11.9541 203.614 12.0299 201.655V196.894C12.0299 196.274 11.7267 195.952 11.1201 195.952H8.94663C8.31481 195.952 7.98626 196.249 7.98626 196.844C7.98626 201.779 7.53134 206.044 6.69734 209.664C6.31824 211.524 5.53478 213.508 4.32168 215.665C3.4624 217.178 2.4262 218.417 1.26365 219.335C0.530732 219.806 0.101092 220.004 0 219.905C0.379094 218.839 0.808735 217.748 1.28892 216.682C2.85584 211.797 3.68985 205.895 3.76567 198.902V188.041C3.76567 187.198 4.27113 186.95 5.25678 187.322L6.77315 187.992C7.68298 188.562 8.46644 188.785 9.07299 188.661H15.922C16.5538 188.661 16.8823 188.364 16.8823 187.769V185.041ZM25.7531 204.73C26.4355 203.886 26.9915 203.49 27.3959 203.564C28.5584 204.308 29.5946 205.275 30.4539 206.441C30.9594 207.333 30.555 207.78 29.2661 207.78C28.9123 207.904 28.5079 208.35 28.0783 209.094C27.2443 210.334 26.0312 211.697 24.4895 213.185C23.8829 213.731 23.9588 214.128 24.717 214.375C27.9266 215.318 31.5659 215.789 35.6096 215.764C35.8876 216.186 35.6096 216.533 34.7756 216.781C33.891 217.326 33.3098 218.021 33.0065 218.888C32.8043 219.707 32.6527 220.153 32.5769 220.227C32.223 220.327 31.667 220.302 30.8836 220.128C27.219 219.409 23.9588 218.244 21.1282 216.632C20.5469 216.285 19.8645 216.31 19.0558 216.706C14.1023 219.087 8.66863 220.004 2.70421 219.508C2.55257 219.409 2.47675 219.31 2.47675 219.211C2.57784 219.136 3.00748 219.037 3.76567 218.938C8.26426 218.517 12.4848 217.128 16.3769 214.822C17.1098 214.375 17.1856 213.855 16.5791 213.26C14.7594 211.325 13.521 209.317 12.8639 207.184C12.7628 206.589 12.3332 206.292 11.575 206.317L10.6146 206.465C9.80591 206.589 9.32572 206.416 9.14881 205.945C9.02245 205.374 9.351 205.102 10.1345 205.126C10.6146 205.126 11.1454 205.176 11.7014 205.275H24.0093C24.717 205.424 25.273 205.25 25.7026 204.705L25.7531 204.73ZM24.3126 207.284C24.6917 206.639 24.5906 206.317 24.0093 206.317H14.6583C14.0265 206.317 13.9254 206.713 14.3803 207.482C15.8461 209.391 17.3373 210.83 18.9294 211.821C19.5865 212.218 20.1931 212.144 20.7744 211.598C22.2402 210.21 23.428 208.771 24.3379 207.284H24.3126ZM21.6337 196.968C21.6337 196.299 21.3557 195.952 20.7996 195.952H17.2109C16.5791 195.952 16.2505 196.249 16.2505 196.844V199.721C16.2505 200.341 16.5538 200.663 17.1603 200.663H20.6733C21.3051 200.663 21.6337 200.365 21.6337 199.77V196.968Z" fill="#6B6B6B"/>
<path d="M7.85823 224.046C7.98459 223.773 8.26259 223.748 8.69223 223.971C10.1581 224.492 11.447 225.137 12.5085 225.881C13.5446 226.6 13.5194 227.145 12.4326 227.493C11.7755 227.344 11.169 227.84 10.5877 228.98C10.2086 229.575 10.3097 229.873 10.9415 229.873H26.7624C27.47 230.071 28.0008 229.873 28.3293 229.278C28.6579 228.782 29.037 228.286 29.4666 227.79C30.0984 227.071 30.4775 226.699 30.6039 226.674C31.5137 226.922 32.7016 227.79 34.1674 229.253C34.7234 229.947 35.0014 230.394 35.0014 230.567C34.875 230.766 34.3948 230.865 33.5861 230.865H10.3097C9.70315 230.865 9.07133 231.237 8.4395 231.981C6.2913 234.609 4.06728 236.519 1.7169 237.758C0.731252 238.081 0.251065 238.155 0.276338 237.957C0.276338 237.833 0.478522 237.61 0.807071 237.312C2.52563 235.601 3.96619 233.617 5.12875 231.311C6.24076 228.98 7.17586 226.55 7.8835 224.046H7.85823ZM7.47913 233.642C7.6055 233.518 8.11096 233.642 8.97024 234.014C9.4757 234.188 9.98116 234.411 10.4866 234.684C11.1943 235.204 11.8514 235.403 12.4832 235.254H25.9789C26.5855 235.254 27.1162 234.956 27.5459 234.312C27.9755 233.369 28.6073 233.221 29.4666 233.865C30.427 234.287 31.4632 234.956 32.5246 235.899C32.9796 236.419 32.8785 236.89 32.2214 237.312C31.5643 237.461 31.261 237.858 31.3115 238.502L31.0841 242.371C31.0841 242.966 31.3874 242.891 31.9686 242.147C32.6257 241.478 33.0301 241.131 33.1565 241.106C34.6981 241.949 36.0123 243.114 37.0485 244.602C36.998 245.123 36.4925 245.297 35.5574 245.123H31.8928C31.2863 245.123 30.9324 245.495 30.8566 246.239L30.3512 251.818C30.3259 252.562 30.5786 252.661 31.1094 252.091L31.539 251.595C32.1708 250.925 32.5752 250.578 32.7268 250.578C33.8388 251.173 34.875 251.992 35.8101 253.008C36.3156 253.827 36.543 254.298 36.4672 254.397C36.3409 254.496 35.8859 254.546 35.1278 254.546H30.9577C30.3512 254.546 29.9468 254.918 29.7446 255.662C28.6832 259.604 26.1306 261.365 22.1375 260.943C22.0111 260.844 21.91 260.423 21.8342 259.679C21.7078 258.736 20.8738 257.794 19.3574 256.877C19.3574 256.728 19.3574 256.604 19.4332 256.505C21.632 256.579 23.1484 256.505 24.0077 256.281C24.4373 256.133 24.8669 255.736 25.2966 255.091C25.4988 254.744 25.2966 254.571 24.7153 254.571H9.17242C8.56587 254.571 8.13623 254.942 7.90877 255.686C7.78241 256.901 7.15058 257.497 6.03857 257.447C3.66292 257.447 2.93 256.455 3.81455 254.496C4.59801 251.372 5.22984 248.545 5.7353 246.016C5.78584 245.421 5.50784 245.123 4.90129 245.123C4.4211 245.123 3.73873 245.173 2.87945 245.346C2.04545 245.421 1.53999 245.222 1.38835 244.776C1.23671 244.156 1.59053 243.883 2.50036 243.958C3.35964 244.057 4.24419 244.106 5.10347 244.106C5.71003 244.106 6.08912 243.734 6.24076 242.99L7.50441 233.667L7.47913 233.642ZM26.5855 246.09C26.636 245.445 26.3833 245.123 25.7768 245.123H10.9415C10.335 245.123 9.93061 245.495 9.7537 246.239L8.56587 252.537C8.46478 253.207 8.69223 253.554 9.24824 253.554H24.7911C25.3977 253.554 25.7768 253.182 25.9284 252.438C26.1811 250.33 26.3833 248.223 26.5349 246.115L26.5855 246.09ZM27.1668 237.362C27.3942 236.494 27.0657 236.122 26.1811 236.271H12.4326C11.6492 236.345 11.1943 236.767 11.0932 237.535L10.335 243.114C10.2339 243.759 10.4866 244.082 11.0679 244.082H25.802C26.4086 244.082 26.7624 243.71 26.8382 242.966L27.192 237.337L27.1668 237.362ZM14.9094 246.536C14.9094 246.338 15.339 246.239 16.1225 246.239C17.4367 246.412 18.4729 246.76 19.1805 247.255C20.4442 248.099 21.1265 249.016 21.2024 249.958C21.2782 251.297 20.798 252.215 19.7365 252.686C18.4476 253.083 17.563 252.661 17.1081 251.372C16.9059 249.983 16.6532 248.966 16.3752 248.371C16.1225 247.801 15.617 247.181 14.8841 246.536H14.9094ZM15.2885 237.362C15.2885 237.362 15.8698 237.188 16.6279 237.213C17.7652 237.337 18.7256 237.56 19.4838 237.882C21.6573 238.8 22.4407 240.238 21.8847 242.197C21.6825 242.842 21.1265 243.263 20.242 243.437C19.4332 243.635 18.7256 243.238 18.1443 242.271C17.8663 240.784 17.285 239.519 16.3752 238.527C15.617 237.858 15.2379 237.461 15.2632 237.362H15.2885Z" fill="#6B6B6B"/>
<path d="M30.831 279.045C31.4628 278.276 31.8924 277.855 32.0946 277.805C32.499 277.83 33.1561 278.227 34.0912 278.971C35.1779 279.839 36.0372 280.731 36.6185 281.624C36.4416 282.12 35.9108 282.293 35.0515 282.12H3.35925L2.14615 282.343C1.33741 282.467 0.831954 282.269 0.655044 281.773C0.503406 281.153 0.857227 280.88 1.76705 280.954C2.22197 280.954 2.72743 281.004 3.25816 281.103H28.1015C28.8344 281.252 29.3651 281.054 29.6937 280.533C30.0222 280.037 30.4013 279.541 30.831 279.045Z" fill="#6B6B6B"/>
<path d="M10.2365 306.321C11.0705 305.776 11.9045 305.677 12.688 306.049C14.0527 306.743 15.0889 307.487 15.7713 308.305C16.024 308.875 15.746 309.173 14.8867 309.173C14.7098 309.123 14.4823 309.148 14.2296 309.222L11.2221 309.892C10.5398 310.066 10.1859 310.413 10.1859 310.933V316.339C10.1859 316.934 10.287 317.257 10.4892 317.281C10.9947 317.182 11.5254 316.637 12.0561 315.67C12.688 314.951 13.0671 314.579 13.1682 314.579C14.3307 315.273 15.2658 316.339 15.9482 317.728C15.9482 318.199 15.4427 318.372 14.4571 318.248H11.121C10.4892 318.248 10.1607 318.645 10.1607 319.414C10.1607 320.183 10.5398 320.728 11.298 321.026C13.6989 322.092 15.0889 323.53 15.468 325.34C15.468 326.779 14.9625 327.696 13.9769 328.043C12.7891 328.341 11.9298 327.795 11.4496 326.431C11.4496 325.34 11.2474 324.324 10.9189 323.431C10.4134 322.613 10.1607 322.563 10.1607 323.282V340.144C10.1101 340.64 9.70576 341.037 8.97284 341.334C6.92573 341.756 5.96536 341.037 6.06645 339.152V329.705C6.06645 328.861 5.91481 328.837 5.61154 329.63C4.75226 331.713 3.61497 333.35 2.25024 334.54C1.31514 335.185 0.784403 335.457 0.658038 335.333C0.556946 335.185 0.708584 334.713 1.08768 333.92C3.53916 329.035 5.13135 324.125 5.86427 319.141C5.94009 318.546 5.66209 318.248 5.05553 318.248C3.81716 318.174 2.35133 318.298 0.708584 318.62C0.582219 318.546 0.481128 318.323 0.405309 317.951L0.203125 317.207C0.203125 317.207 0.658038 317.033 1.41623 317.108C2.47769 317.306 3.71607 317.381 5.13135 317.306C5.76318 317.306 6.09173 317.009 6.09173 316.414V311.752C6.09173 311.157 5.71263 310.884 4.95444 310.933L2.04805 311.206C1.28986 311.206 0.834949 311.206 0.708584 311.082C0.708584 310.933 1.08768 310.686 1.84587 310.363C4.72699 309.47 7.50701 308.131 10.2112 306.346L10.2365 306.321ZM28.5847 320.679C29.1407 320.207 29.6209 320.083 29.9999 320.331C31.9712 321.348 33.2602 322.29 33.9425 323.109C33.9425 323.406 33.8414 323.605 33.5887 323.704C33.0832 323.704 32.1229 323.803 30.6823 324.125C29.7472 324.274 28.7868 324.472 27.8265 324.696C27.2199 324.844 26.9166 325.216 26.9166 325.811V329.828C26.9166 330.448 27.0936 330.771 27.4221 330.771C27.9781 330.92 28.6858 330.324 29.5703 328.961C30.278 328.167 30.7329 327.77 30.9098 327.77C32.2745 328.39 33.5634 329.581 34.7765 331.341C34.726 331.763 34.2205 331.911 33.2602 331.763H27.9023C27.2705 331.763 26.9419 332.06 26.9419 332.655V338.061C26.9419 338.681 27.2452 339.003 27.8517 339.003H28.8374C29.4439 339.003 29.9999 338.706 30.5307 338.111L31.2636 337.243C31.9207 336.499 32.3251 336.102 32.4514 336.052C33.3865 336.325 34.448 337.094 35.5853 338.383C36.1665 339.152 36.4698 339.598 36.4698 339.698C36.2424 340.045 35.7116 340.169 34.9029 340.045H15.6196L14.4065 340.268C13.5978 340.392 13.0923 340.194 12.9154 339.698C12.7638 339.078 13.1429 338.805 14.0274 338.879C14.4823 338.879 14.9878 338.929 15.5185 339.028H21.9379C22.5697 339.028 22.8982 338.731 22.8982 338.135V332.73C22.8982 332.11 22.595 331.787 21.9884 331.787H18.0964L16.8833 332.011C16.0745 332.135 15.5691 331.936 15.3922 331.44C15.2405 330.82 15.6196 330.548 16.5295 330.622C16.9844 330.622 17.4898 330.721 18.0206 330.82H21.9631C22.595 330.82 22.9235 330.523 22.9235 329.928V326.481C22.9235 325.886 22.5444 325.613 21.7862 325.663C20.4215 325.811 19.0315 325.911 17.6162 325.96C16.8075 326.159 16.3525 326.035 16.2515 325.539C16.4031 325.415 16.858 325.241 17.6162 325.043C21.6599 324.051 25.3497 322.613 28.6858 320.728L28.5847 320.679ZM16.4031 306.941C16.4031 306.123 16.7822 305.801 17.5404 305.974C18.2227 306.123 19.1073 306.47 20.2193 307.016C20.4215 307.14 20.8259 307.214 21.4324 307.214H28.1297C28.7363 307.214 29.267 306.991 29.7219 306.544C30.2021 305.85 30.6823 305.652 31.1625 305.974C33.1843 306.743 34.4227 307.536 34.9029 308.33C34.8524 308.503 34.6754 308.727 34.3722 308.975C33.7909 309.272 33.5634 309.793 33.7151 310.512V317.405C33.9173 319.265 32.8558 320.059 30.5054 319.811C29.823 319.538 29.545 319.017 29.6714 318.248C29.6714 317.753 29.3681 317.505 28.7616 317.505H21.4324C20.8006 317.505 20.472 317.678 20.472 318.025C20.5731 319.191 19.9666 319.885 18.6777 320.083C16.9338 320.48 16.1756 319.885 16.3778 318.323V306.966L16.4031 306.941ZM29.6967 309.198C29.6967 308.528 29.3681 308.181 28.711 308.181H21.4577C20.8259 308.181 20.4973 308.479 20.4973 309.074V315.521C20.4973 316.141 20.8006 316.463 21.4071 316.463H28.7363C29.3681 316.463 29.6967 316.166 29.6967 315.57V309.198Z" fill="#6B6B6B"/>
</svg>
