<svg width="216" height="64" viewBox="0 0 216 64" fill="none" xmlns="http://www.w3.org/2000/svg">
<g clip-path="url(#clip0_1683_12175)">
<path d="M4.76445 2.65144C5.08552 2.0773 5.4573 1.90843 5.86287 2.14485C6.60641 2.41503 7.29926 2.75276 7.90762 3.15804C8.70186 3.73218 8.63426 4.18812 7.67103 4.50896C7.60344 4.5934 7.56964 4.84669 7.56964 5.25197V19.2678C7.75553 20.2472 7.29926 20.8382 6.21774 21.0071C5.22071 21.176 4.74755 20.7369 4.83204 19.6731C4.83204 19.1834 4.62926 18.9301 4.22369 18.9301H3.41255C2.99008 18.9301 2.77039 19.1327 2.77039 19.538V21.0915C2.50001 22.071 1.79026 22.4594 0.624249 22.2229C0.117286 21.9865 -0.0854992 21.5137 0.0327922 20.7876V3.12427C0.0327922 2.61767 0.0665897 2.34748 0.134185 2.3306C0.539755 2.36437 1.18191 2.5839 2.07754 2.97229C2.43242 3.22558 2.93938 3.3269 3.58153 3.25936C4.004 3.25936 4.39267 3.05672 4.76445 2.66833V2.65144ZM3.61533 3.93482C3.05767 3.98548 2.77039 4.205 2.77039 4.57651V10.0984C2.77039 10.5206 2.97318 10.7401 3.37875 10.7401H4.18989C4.61236 10.7401 4.83204 10.5375 4.83204 10.1322V4.64405C4.83204 4.18812 4.61236 3.95171 4.17299 3.95171H3.61533V3.93482ZM4.83204 12.0741C4.83204 11.6182 4.64615 11.3818 4.27438 11.3818H3.41255C2.99008 11.3818 2.77039 11.5844 2.77039 11.9897V17.6298C2.77039 18.052 2.97318 18.2715 3.37875 18.2715H4.18989C4.61236 18.2715 4.83204 18.0689 4.83204 17.6636V12.0741ZM13.9574 0.996561C13.9236 0.456192 14.1771 0.186007 14.7009 0.202894C16.019 0.27044 16.9485 0.473079 17.5061 0.810809C17.6413 1.09788 17.5061 1.33429 17.1005 1.50316C16.8302 1.5707 16.7288 1.85778 16.8133 2.34748V3.68152C16.8133 4.10369 16.9147 4.30632 17.1174 4.28944C17.3202 4.23878 17.6244 3.96859 18.0131 3.49577C18.1652 3.25936 18.3511 3.02295 18.5538 2.78653C18.9763 2.36437 19.2467 2.14485 19.3481 2.14485C20.0747 2.56701 20.7845 3.14115 21.4604 3.85039C21.8322 4.35698 22.0181 4.66094 22.0012 4.76226C21.9167 4.88047 21.5956 4.94801 21.0549 4.94801H17.4554C17.0329 4.94801 16.8133 5.15065 16.8133 5.55593V8.51107C16.8133 8.93324 17.0161 9.15276 17.4216 9.15276H18.2666C18.689 9.15276 19.0608 8.95012 19.3988 8.56173L20.0409 7.71741C20.4296 6.94063 20.9197 6.83931 21.528 7.43034C21.9843 7.70052 22.4743 8.13957 23.0151 8.76437C23.3869 9.25408 23.5559 9.55804 23.5221 9.67624C23.4207 9.77756 23.0996 9.82822 22.5757 9.82822H10.0031L9.15812 9.96332C8.61736 10.0477 8.29629 9.92954 8.178 9.57493C8.0766 9.16965 8.33008 8.9839 8.93844 9.03456L9.88477 9.13588H13.3152C13.7377 9.13588 13.9574 8.93324 13.9574 8.52796V5.57281C13.9574 5.15065 13.7546 4.93113 13.349 4.93113C11.9802 4.88047 11.0001 4.93113 10.4086 5.0831C9.85097 5.15065 9.5299 5.04933 9.4454 4.77915L9.31021 4.18812C9.31021 4.10369 9.59749 4.0868 10.1045 4.13746C10.7635 4.23878 11.845 4.27255 13.3152 4.23878C13.7377 4.23878 13.9574 4.03614 13.9574 3.63086V0.996561ZM16.6105 11.3142C16.6105 10.7739 16.864 10.5206 17.3709 10.5543C17.9793 10.605 18.6045 10.6894 19.2129 10.7908C19.6185 10.8245 19.9226 10.9427 20.1254 11.1285C20.3113 11.4662 20.1592 11.7195 19.6861 11.8715C19.5002 11.9728 19.3988 12.243 19.3988 12.6652V13.3069C19.3988 13.7121 19.4495 13.9148 19.534 13.8979C19.6185 13.8472 19.7368 13.729 19.8719 13.5601C20.193 13.0536 20.6493 12.5132 21.2576 11.9559C21.8153 12.1417 22.4575 12.6145 23.1672 13.3575C23.6573 13.9823 23.8769 14.3369 23.8094 14.4214C23.708 14.5227 23.3869 14.5733 22.863 14.5733H20.0578C19.6354 14.5733 19.4157 14.776 19.4157 15.1813V22.51C18.9763 23.8609 18.0638 24.5871 16.6781 24.7053C16.1711 24.739 15.8838 24.739 15.8162 24.6715C15.7655 24.6208 15.7486 24.452 15.7655 24.1818C15.7148 23.5739 15.36 23.0166 14.7178 22.5438C14.2109 22.2061 13.9574 21.9865 13.9574 21.9021C13.9912 21.6657 14.2953 21.5981 14.8699 21.7163H16.0528C16.5429 21.6657 16.7288 21.3448 16.6105 20.7707V15.1813C16.6105 14.7591 16.4077 14.5396 16.0021 14.5396H10.2058L9.39471 14.6915C8.83705 14.7422 8.49907 14.624 8.39768 14.3032C8.29629 13.881 8.54977 13.6952 9.14123 13.7459C9.4792 13.7628 9.81718 13.8134 10.1552 13.881H15.9852C16.4077 13.881 16.6274 13.6784 16.6274 13.2731V11.3142H16.6105ZM10.4593 15.5021C10.5269 15.3501 10.8142 15.3839 11.3212 15.6372C12.3182 16.0594 13.1631 16.8361 13.8222 17.9675C14.2447 18.5755 14.3291 19.2678 14.0757 20.0108C13.6701 21.1422 12.9096 21.4124 11.8281 20.8551C11.3888 20.433 11.2536 19.8082 11.4226 18.9638C11.524 18.0857 11.355 17.2414 10.9325 16.4309C10.5945 15.9243 10.4255 15.6203 10.4424 15.519L10.4593 15.5021Z" fill="#6B6B6B"/>
<path d="M37.7175 1.35138C37.7175 0.777236 37.9541 0.490165 38.4103 0.507052C38.9849 0.523938 39.6439 0.608371 40.3706 0.76035C41.0296 1.03053 41.3507 1.21629 41.3507 1.31761C41.3169 1.43581 41.1817 1.58779 40.962 1.75666C40.7085 1.92552 40.5734 2.21259 40.5734 2.61787V10.3857C40.5734 10.8078 40.7761 11.0274 41.1817 11.0274H45.0684C45.6092 11.23 46.0993 10.926 46.5217 10.1155L47.2822 9.1023C47.6708 8.62948 48.1609 8.69703 48.7693 9.33871C49.7325 10.0817 50.4084 10.7741 50.7633 11.382C50.7633 11.7197 50.4253 11.8379 49.8001 11.7197H44.1559C43.7334 11.7197 43.5137 11.9224 43.5137 12.3276V20.1968C43.3786 20.906 43.6489 21.3282 44.3587 21.4464C44.7474 21.5308 45.3726 21.5646 46.2513 21.5139L47.2653 21.4464C47.7553 21.4126 48.1271 21.345 48.3637 21.2437C48.7524 20.754 49.0396 20.0954 49.2255 19.2849C49.3776 18.7783 49.4959 18.5081 49.5804 18.4743C49.9015 18.5588 50.0367 18.8965 49.9691 19.4706C49.9184 20.011 50.0536 20.5176 50.3577 21.0073C50.8647 21.3113 51.1858 21.5815 51.3041 21.8179C51.6589 22.5947 51.4393 23.2195 50.645 23.6585C49.7325 24.0807 48.3637 24.3171 46.5893 24.3508C44.967 24.4184 43.5644 24.2833 42.3815 23.9625C41.5535 23.7598 40.9789 23.0844 40.6917 21.9192V12.3783C40.6917 11.9561 40.4889 11.7366 40.0833 11.7366H38.2244C37.8189 11.7366 37.5992 11.9899 37.5654 12.4965C37.5654 13.6448 37.3626 14.9113 37.0246 16.3297C36.619 18.0015 35.9769 19.3524 35.1151 20.4163C33.1379 22.6284 30.6876 24.03 27.781 24.621C27.6796 24.5873 27.6289 24.5366 27.6289 24.4691C27.6627 24.3846 27.9331 24.182 28.44 23.878C30.8735 22.6115 32.5295 20.9904 33.4252 18.9978C34.3039 17.1234 34.7602 14.9113 34.7771 12.3614C34.7771 11.9392 34.5743 11.7197 34.1687 11.7197H29.5216L28.7104 11.8548C28.1697 11.9392 27.8317 11.821 27.7134 11.5002C27.5951 11.078 27.8486 10.8923 28.4569 10.9429C28.7611 10.9598 29.0991 11.0105 29.454 11.078H37.126C37.5485 11.078 37.7682 10.8754 37.7682 10.4701V1.35138H37.7175ZM30.7214 3.17513C30.7721 3.05692 31.0594 3.05692 31.5663 3.19201C32.9689 3.73238 34.1349 4.69491 35.0644 6.07961C35.4868 6.82262 35.5882 7.54874 35.3516 8.25798C35.0644 9.25428 34.3715 9.62578 33.29 9.32183C32.6985 9.03476 32.4113 8.54505 32.4282 7.83581C32.5802 6.19782 32.0226 4.64425 30.7383 3.15824L30.7214 3.17513ZM45.2374 3.14135C45.3388 2.5841 45.6599 2.36457 46.1837 2.48278C46.8259 2.68542 47.4512 2.93871 48.0257 3.22579C48.5327 3.61418 48.7862 3.85059 48.7693 3.91813C48.6679 4.13766 48.5327 4.23898 48.3637 4.2052C48.1778 4.2052 47.9919 4.35718 47.8229 4.69491C46.9949 6.24848 45.7275 7.71761 44.0207 9.13608C43.5306 9.49069 43.2265 9.65956 43.1082 9.64267C43.0406 9.55824 43.2096 9.18674 43.5982 8.51127C44.4432 6.85639 45.0008 5.06642 45.2543 3.15824L45.2374 3.14135Z" fill="#6B6B6B"/>
<path d="M61.2579 6.77132C61.579 6.19718 61.7818 5.89322 61.8494 5.85945C62.1874 5.96077 62.2043 6.31538 61.8832 6.90641L58.6048 16.8695C58.3514 18.2373 58.5034 19.6051 59.0611 20.9729C59.3822 22.1043 59.3146 23.1175 58.8245 24.0294C58.5203 24.5022 58.0472 24.7386 57.4219 24.7386C56.9657 24.7048 56.577 24.4346 56.2728 23.928C55.9686 23.2188 55.901 22.4083 56.07 21.4964C56.2728 20.6689 56.3573 19.774 56.3066 18.8114C56.4249 18.3217 56.1376 17.832 55.4617 17.3592C55.0561 17.1228 54.6505 16.9201 54.2281 16.7513C54.1605 16.6331 54.1774 16.5317 54.2788 16.4642C55.242 16.5149 55.9517 16.4642 56.3911 16.3291C56.5939 16.042 56.7629 15.7381 56.8981 15.4341L61.241 6.75443L61.2579 6.77132ZM54.4139 5.97765C54.4308 5.85945 54.7857 5.85945 55.4617 6.01143C56.2728 6.26472 56.9657 6.60246 57.5064 7.00773C58.6893 8.07158 59.1118 9.08478 58.7907 10.0473C58.419 11.1449 57.6754 11.4489 56.5601 10.9592C56.1376 10.5877 55.9179 10.0811 55.901 9.45628C55.9348 8.64573 55.6644 7.78451 55.0899 6.90641C54.6505 6.39982 54.4308 6.09586 54.4308 5.99454L54.4139 5.97765ZM56.6784 0.506413C56.7122 0.371321 56.9826 0.320661 57.4895 0.371321C59.078 0.641505 60.2609 1.4014 61.0383 2.651C61.3255 3.37713 61.2241 4.08636 60.7003 4.76182C60.3792 5.09955 59.9567 5.23464 59.416 5.1671C58.6724 4.96446 58.2669 4.39032 58.2162 3.46156C58.1486 2.651 57.8444 1.908 57.3205 1.23253C56.8812 0.793484 56.6615 0.540186 56.6615 0.489526L56.6784 0.506413ZM63.0154 13.4584C63.0154 12.9349 63.2858 12.6647 63.8097 12.6647L65.6178 12.8674C66.1417 13.07 66.429 13.222 66.4628 13.3233C66.4797 13.4415 66.3783 13.5935 66.1586 13.7623C65.7699 13.8299 65.6178 14.1507 65.7192 14.708C65.7023 17.1903 65.3812 19.3011 64.7729 21.0404C63.8435 23.0668 62.3226 24.2827 60.244 24.6879C59.7371 24.7555 59.4667 24.7555 59.4329 24.6542C59.4329 24.5697 59.7202 24.3502 60.244 23.9956C60.7848 23.5228 61.2748 22.9486 61.6973 22.2901C62.2381 21.3444 62.6098 19.9766 62.8295 18.2035C62.9478 17.2072 63.0154 15.6199 63.0154 13.4584ZM68.2033 1.28319C68.2033 0.759711 68.4399 0.506413 68.9638 0.5233C69.7242 0.573959 70.5354 0.709051 71.3634 0.91169C71.7521 1.01301 71.8873 1.23253 71.7521 1.55338C71.6338 1.68847 71.4817 1.78979 71.3127 1.84045C71.1437 1.908 71.0592 2.17818 71.0592 2.63412V3.76552C71.0592 4.18768 71.262 4.4072 71.6676 4.4072H73.6278C74.0503 4.4072 74.4221 4.20457 74.7601 3.79929L75.2501 3.20826C75.5881 2.5328 75.9599 2.29639 76.3823 2.49903C77.0076 2.88742 77.6159 3.4109 78.1905 4.08636C78.5623 4.60984 78.6975 4.9138 78.5961 4.99823C78.4778 5.06578 78.1567 5.09955 77.6497 5.09955H70.9747C70.5692 5.09955 70.2312 5.35285 69.9439 5.85945C69.4707 6.78821 68.7948 7.73385 67.933 8.66261C67.5105 9.11855 67.5443 9.35496 68.0681 9.35496L73.1547 9.06789C73.6109 9.01723 73.7123 8.79771 73.4419 8.4262C73.2054 8.13913 72.9181 7.83517 72.597 7.53122C72.1407 7.32858 71.9549 7.09216 72.0394 6.82198C72.1407 6.78821 72.4449 6.85575 72.9519 7.02462C74.439 7.51433 75.7064 8.22356 76.7879 9.11855C78.0891 10.2331 78.1229 11.4151 76.9231 12.6647C76.0782 13.1038 75.4529 12.8167 75.0811 11.7697C74.9966 11.3307 74.8445 10.8579 74.6249 10.3344C74.4221 9.9291 74.0672 9.76024 73.5602 9.84467C70.0622 10.6215 66.75 11.28 63.59 11.8035C63.4041 11.8711 63.2351 11.9893 63.0999 12.1412C62.9816 12.4452 62.7957 12.5127 62.5591 12.3439C62.0691 11.5502 61.7818 10.5539 61.6973 9.35496C61.7649 9.28742 62.086 9.27053 62.6436 9.3043C63.5393 9.35496 64.4518 9.37185 65.3474 9.35496C65.753 9.35496 66.0741 9.10166 66.3276 8.59507C66.6655 7.76763 66.9359 6.82198 67.1387 5.7919C67.2401 5.31908 67.1049 5.08267 66.7331 5.08267H63.8435L62.9985 5.23464C62.4409 5.30219 62.1198 5.20087 62.0522 4.89691L61.9001 4.30589C61.9001 4.30589 62.2043 4.22145 62.7112 4.27211C63.0492 4.27211 63.3872 4.30589 63.7252 4.37343H67.5612C67.9837 4.37343 68.2033 4.17079 68.2033 3.76552V1.28319ZM67.1049 13.5259C67.1049 12.9856 67.3584 12.7323 67.8485 12.766C68.4061 12.8167 68.9976 12.9011 69.6059 13.0193C69.9439 13.1038 70.1805 13.1882 70.3157 13.2558C70.6199 13.6441 70.5016 13.9481 69.927 14.1507C69.758 14.2183 69.6735 14.4885 69.6735 14.9444V22.9149C69.7749 24.232 69.1666 24.7555 67.8654 24.5022C67.1725 24.2827 66.919 23.793 67.1049 23.0162V13.5428V13.5259ZM71.3465 13.5091C71.3465 12.9518 71.6 12.6816 72.1407 12.6985C72.766 12.7154 73.4082 12.7998 74.0334 12.9349C74.7263 13.0869 74.8615 13.374 74.4221 13.7961C74.1855 14.1001 74.0672 14.4378 74.0672 14.8093V21.0067C73.8982 21.8003 74.1686 22.1718 74.8783 22.0874C75.4529 22.155 75.9092 21.851 76.2302 21.1755C76.4161 20.8378 76.5682 20.5001 76.6865 20.1623C76.9569 19.4869 77.1428 19.1323 77.2442 19.1154C77.599 19.1492 77.6835 19.47 77.4977 20.061V20.9729C77.4977 21.412 77.7173 21.7666 78.1905 22.0199C78.8158 22.898 78.6637 23.6579 77.7342 24.2996C76.4499 24.7386 74.8783 24.8399 72.9857 24.6035C71.9042 24.2827 71.3465 23.5059 71.3465 22.3069V13.5259V13.5091Z" fill="#6B6B6B"/>
<path d="M85.5609 0.776781C85.5609 0.236412 85.8144 -0.0168865 86.3213 0.0168865C86.879 0.0844327 87.4704 0.185752 88.0788 0.303958C88.5013 0.388391 88.7716 0.557256 88.873 0.793668C88.9068 1.04697 88.7378 1.2496 88.383 1.3847C88.0619 1.5029 87.9436 1.78997 88.045 2.24591V3.05646C87.9267 3.56306 88.045 3.7657 88.4337 3.66438C88.5182 3.63061 88.6871 3.44485 88.9237 3.10712L89.7687 1.95884C89.9884 1.84063 90.2925 2.0095 90.6643 2.44855C91.2558 3.03958 91.6106 3.57995 91.7289 4.05277C91.7289 4.15409 91.6613 4.23852 91.5937 4.30607C90.6136 4.35673 89.6504 4.37361 88.6871 4.35673C88.2647 4.35673 88.045 4.55937 88.045 4.96464V6.61953C88.045 7.04169 88.1295 7.26121 88.3323 7.26121C88.5858 7.32876 88.9575 7.05858 89.4307 6.45066C89.5152 6.41689 89.8194 6.48443 90.3263 6.6533C90.8164 6.88971 91.2389 7.14301 91.6106 7.39631C92.0331 7.59895 92.2359 7.85224 92.2021 8.13931C91.9824 8.35884 91.7627 8.54459 91.543 8.69657C91.5092 8.76412 91.4923 9.00053 91.4923 9.40581V15.333C91.6444 15.9747 91.4585 16.4644 90.9347 16.7852C90.7826 16.8359 90.9516 17.123 91.4754 17.6464L91.881 18.153C92.2359 18.761 92.388 19.1156 92.3204 19.2C92.2359 19.3013 91.9317 19.352 91.4247 19.352H88.7209C88.2985 19.352 88.0788 19.5546 88.0788 19.9599V24.266C87.7577 25.0596 87.1663 25.3298 86.2875 25.0596C85.6454 24.8908 85.4088 24.4179 85.5778 23.6243V19.9768C85.5778 19.5546 85.375 19.3351 84.9694 19.3351C84.0907 19.3013 83.3471 19.3351 82.7388 19.4702C82.1811 19.5377 81.86 19.4195 81.7756 19.1156C81.6911 18.7103 81.9445 18.5245 82.5191 18.5583C83.212 18.6934 84.0231 18.7441 84.9525 18.6934C85.375 18.6934 85.5947 18.4908 85.5947 18.0855V15.9071C85.5947 15.485 85.4426 15.2654 85.1384 15.2654C84.8173 15.2654 84.6483 15.4681 84.6483 15.8734C84.699 16.5995 84.2766 17.0385 83.364 17.1567C82.9416 17.2749 82.5529 17.1567 82.1811 16.819C82.1473 16.7177 82.1304 16.4137 82.1304 15.9071V7.09235C82.1304 6.55198 82.3839 6.33245 82.8909 6.43377C83.2795 6.53509 83.702 6.70396 84.1414 6.92348C84.547 7.14301 84.868 7.26121 85.1046 7.26121C85.4088 7.26121 85.5609 7.05858 85.5609 6.6533V4.99842C85.5609 4.57625 85.3581 4.35673 84.9525 4.35673C84.0738 4.30607 83.2964 4.35673 82.6205 4.50871C82.1135 4.54248 81.8094 4.40739 81.7249 4.10343C81.6404 3.73193 81.8938 3.54617 82.4684 3.56306C83.1444 3.69815 83.9724 3.74881 84.9187 3.69815C85.3412 3.69815 85.5609 3.49551 85.5609 3.09024V0.776781ZM85.375 7.91979C84.868 7.97045 84.6145 8.02111 84.6145 8.07177V10.4021C84.6145 10.8243 84.7666 11.0438 85.0708 11.0438C85.375 11.0438 85.5609 10.8412 85.5609 10.4359V8.57836C85.5609 8.17309 85.4933 7.95356 85.375 7.93668V7.91979ZM85.5609 12.361C85.5609 11.9219 85.4088 11.7024 85.1215 11.7024C84.7835 11.7024 84.6145 11.905 84.6145 12.3103V13.9483C84.6145 14.3704 84.7666 14.59 85.0708 14.59C85.375 14.59 85.5609 14.3873 85.5609 13.9821V12.3778V12.361ZM88.9575 8.57836C88.9575 8.10554 88.8054 7.88602 88.5182 7.91979C88.214 7.91979 88.0619 8.12243 88.0619 8.52771V10.3852C88.0619 10.8074 88.1971 11.0269 88.5013 11.0269C88.8054 11.0269 88.9575 10.8243 88.9575 10.419V8.57836ZM88.9575 12.361C88.9575 11.9219 88.8223 11.7024 88.552 11.7024C88.2309 11.7024 88.0619 11.905 88.0619 12.3103V13.9483C88.0619 14.3704 88.1971 14.59 88.5013 14.59C88.8054 14.59 88.9575 14.3873 88.9575 13.9821V12.3778V12.361ZM88.9575 15.8058C88.9575 15.4512 88.8223 15.2654 88.552 15.2654C88.2309 15.2654 88.0619 15.4681 88.0619 15.8734V18.0517C88.0619 18.4739 88.1802 18.6934 88.3999 18.6934C88.8223 18.8116 89.1941 18.4908 89.4983 17.7478C89.8701 17.258 89.9715 17.0048 89.7856 16.9879C89.1772 16.9372 88.9068 16.5488 88.9744 15.8058H88.9575ZM97.5759 0.692348C97.5759 0.236412 97.8463 0 98.387 0C99.1644 0.0844327 99.8572 0.202639 100.432 0.354617C100.668 0.388391 100.837 0.523483 100.939 0.759894C100.939 0.97942 100.77 1.1314 100.482 1.21583C100.313 1.28338 100.229 1.58734 100.229 2.11082C100.229 2.66807 100.499 2.95515 101.04 2.95515C101.581 2.95515 101.885 2.93826 101.953 2.90449C102.172 2.75251 102.426 2.46544 102.713 2.04327C102.984 1.68865 103.288 1.33404 103.609 0.97942C103.812 0.861214 104.133 0.97942 104.555 1.36781C105.501 2.1277 106.127 2.76939 106.414 3.2591C106.414 3.36042 106.414 3.46174 106.329 3.54617C106.228 3.61372 105.924 3.64749 105.417 3.64749H100.837C100.415 3.64749 100.195 3.85013 100.195 4.25541V5.09974C100.195 5.5219 100.398 5.74143 100.804 5.74143H101.463C101.868 5.74143 102.206 5.57256 102.46 5.25172C102.781 4.96464 103.203 4.91398 103.71 5.09974C104.758 5.58945 105.451 6.06227 105.772 6.50132C105.704 6.75462 105.535 6.92348 105.265 6.99103C104.961 7.17678 104.859 7.49763 104.961 7.95356V11.4322C105.062 11.9388 104.961 12.361 104.656 12.6818C104.454 12.8675 104.471 13.0702 104.707 13.2897C105.113 13.7456 105.299 14.2354 105.248 14.7757C105.248 15.0459 105.045 15.2823 104.707 15.485C103.93 15.7889 103.355 15.485 103 14.5731C102.747 14.2185 102.341 14.1172 101.767 14.286C99.3334 14.9953 97.0013 15.6201 94.7876 16.1435C94.4496 16.2449 94.1623 16.3799 93.9427 16.5488C93.7906 16.7515 93.6554 16.8528 93.554 16.8359C93.4357 16.7852 93.2667 16.4982 93.0639 15.9916C92.8104 15.333 92.6246 14.6913 92.5232 14.1003C92.5739 14.0158 92.8611 13.9652 93.3681 13.9652C94.5003 13.9652 95.6832 13.9652 96.8662 13.8807C97.2886 13.8807 97.5083 13.6781 97.5083 13.2728V12.1245C97.5083 11.7024 97.3055 11.4829 96.8999 11.4829H96.1902C95.7677 11.4829 95.548 11.6011 95.548 11.8206C95.6494 12.5636 95.2439 13.0195 94.3144 13.1546C93.1653 13.3573 92.7091 12.952 92.9287 11.9219V5.57256C92.9287 5.03219 93.1991 4.82955 93.723 4.96464C94.1285 5.08285 94.5341 5.23483 94.9566 5.42058C95.3453 5.72454 95.9874 5.82586 96.8662 5.72454C97.2886 5.72454 97.5083 5.5219 97.5083 5.11662V4.2723C97.5083 3.85013 97.3055 3.63061 96.8999 3.63061H94.061L93.2498 3.7657C92.7091 3.86702 92.3542 3.66438 92.2021 3.17467L92.1176 2.87071C92.1176 2.87071 92.4218 2.78628 92.9287 2.83694C93.2498 2.85383 93.6047 2.90449 93.9765 2.97203H96.8662C97.2886 2.97203 97.5083 2.76939 97.5083 2.36412V0.692348H97.5759ZM99.8403 15.4174C99.8741 15.333 100.145 15.2992 100.635 15.3499L102.392 15.6032C102.781 15.6538 103.034 15.8227 103.152 16.0929C103.119 16.3462 102.916 16.5319 102.544 16.6501C102.477 16.7346 102.443 16.9372 102.443 17.258C102.443 17.5789 102.51 17.7478 102.646 17.7646C102.899 17.8153 103.136 17.6296 103.338 17.2074L104.048 16.1942C104.369 15.7045 104.792 15.7889 105.332 16.4813C105.873 17.0048 106.262 17.5282 106.482 18.0686C106.431 18.457 106.11 18.5921 105.501 18.457H103.068C102.646 18.457 102.426 18.6596 102.426 19.0649V22.9488C102.003 24.3335 101.006 25.0596 99.4348 25.1778C98.9278 25.296 98.725 25.1103 98.8264 24.6206C98.725 24.0802 98.387 23.6074 97.8125 23.219L96.8662 22.7124C96.8155 22.628 96.8155 22.5435 96.8831 22.476C96.9675 22.3916 97.2717 22.3578 97.7787 22.3747L99.0292 22.4084C99.6882 22.3747 99.9417 22.0032 99.7896 21.277V19.0987C99.7896 18.6765 99.5868 18.457 99.1813 18.457H94.382L93.5371 18.5921C92.9794 18.6765 92.6584 18.5921 92.5739 18.305L92.4387 17.714C92.4387 17.714 92.7429 17.6296 93.2498 17.6633C93.5878 17.6802 93.9596 17.7309 94.3482 17.7984H99.1475C99.57 17.7984 99.7896 17.5958 99.7896 17.1905C99.7896 16.6164 99.7896 16.0253 99.8234 15.4512L99.8403 15.4174ZM93.4019 19.2C93.4695 19.0987 93.7568 19.0987 94.2637 19.2C96.0043 19.6728 96.7479 20.6354 96.5113 22.0538C96.1564 22.7968 95.6325 23.0501 94.9566 22.7968C94.2637 22.5435 93.9765 21.9863 94.1117 21.1082C94.0441 20.6354 93.8075 19.9937 93.4019 19.2ZM96.3592 6.38311C95.8522 6.45066 95.5987 6.68707 95.5987 7.09235V7.63272C95.5987 8.05488 95.8015 8.27441 96.2071 8.27441H96.9168C97.3393 8.27441 97.559 8.07177 97.559 7.66649V7.0248C97.559 6.60264 97.3562 6.38311 96.9506 6.38311H96.3592ZM97.5759 9.57467C97.5759 9.15251 97.3731 8.93298 96.9675 8.93298H96.2578C95.8353 8.93298 95.6156 9.13562 95.6156 9.5409V10.1488C95.6156 10.571 95.8184 10.7905 96.224 10.7905H96.9337C97.3562 10.7905 97.5759 10.5879 97.5759 10.1826V9.57467ZM102.392 7.07546C102.392 6.58575 102.122 6.34934 101.598 6.38311H100.854C100.432 6.38311 100.212 6.58575 100.212 6.99103V7.63272C100.212 8.05488 100.415 8.27441 100.82 8.27441H101.733C102.155 8.27441 102.375 8.07177 102.375 7.66649V7.07546H102.392ZM102.392 9.57467C102.392 9.15251 102.189 8.93298 101.784 8.93298H100.871C100.449 8.93298 100.229 9.13562 100.229 9.5409V10.1488C100.229 10.571 100.432 10.7905 100.837 10.7905H101.75C102.172 10.7905 102.392 10.5879 102.392 10.1826V9.57467ZM102.392 11.9557C102.392 11.6517 102.189 11.4997 101.784 11.4997H100.871C100.449 11.4997 100.229 11.7024 100.229 12.1077V13.0533C100.229 13.4586 100.482 13.6443 100.989 13.6106C101.158 13.5599 101.361 13.5261 101.581 13.5261C101.986 13.4755 101.97 13.2559 101.513 12.8844C101.327 12.7831 101.192 12.6818 101.125 12.5974C101.108 12.4792 101.327 12.3947 101.767 12.3441C102.189 12.3441 102.409 12.209 102.409 11.9388L102.392 11.9557Z" fill="#6B6B6B"/>
<path d="M7.16438 59.5253C6.9785 58.968 6.9447 58.6641 7.09679 58.6303C7.77274 58.6641 8.43179 58.8836 9.05705 59.272C9.98648 59.9475 10.1893 60.7749 9.6485 61.7543C9.53021 61.9401 9.6654 62.0414 10.0879 62.0414H12.6903C13.0959 62.0414 13.3831 61.7881 13.5521 61.2815C13.6873 60.758 13.7887 60.2345 13.8563 59.6942C13.8901 59.1369 14.1774 58.8836 14.7012 58.9512C15.2758 59.0694 15.8672 59.2213 16.4418 59.3902C16.9488 59.6604 17.2191 59.8461 17.236 59.9306C17.236 60.1839 17.1009 60.3358 16.7967 60.3865C16.5939 60.4541 16.4249 60.5554 16.2897 60.6736C16.0193 60.9607 15.7321 61.214 15.4448 61.4335C14.9885 61.7712 14.7857 61.957 14.8364 61.9907C15.7828 62.0414 16.7629 62.0583 17.7768 62.0414C18.1993 62.0414 18.6048 61.7881 19.0104 61.2984L19.5681 60.5892C20.0412 60.0994 20.3623 59.863 20.5144 59.8799C21.2242 60.2852 21.917 60.8256 22.5592 61.5179C23.0492 62.1258 23.2689 62.4804 23.2182 62.5649C23.1337 62.6662 22.8295 62.7169 22.3057 62.7169H2.02716L1.21602 62.8688C0.675259 62.9533 0.337284 62.8182 0.218993 62.4804C0.1176 62.0583 0.371081 61.8725 0.979437 61.9232C1.28361 61.9232 1.62159 61.9907 1.97646 62.0583H7.16438C7.56995 62.0583 7.72204 61.9738 7.60375 61.805C7.36717 61.5179 7.26578 61.1633 7.29958 60.7411C7.35027 60.319 7.29957 59.9306 7.16438 59.5591V59.5253ZM10.2738 39.9707C10.2738 39.4303 10.5103 39.1601 10.9835 39.177C11.575 39.177 12.2171 39.2952 12.8762 39.4641C13.2648 39.5147 13.5183 39.6667 13.6366 39.92C13.6366 40.1227 13.5014 40.2746 13.231 40.3591C13.0283 40.4435 12.9269 40.6968 12.9269 41.1021V48.4308C12.9269 48.853 13.1296 49.0725 13.5352 49.0725H18.74C19.1625 49.0725 19.3822 48.8699 19.3822 48.4646V47.8229C19.3822 47.4008 19.1794 47.1812 18.7738 47.1812H17.6754C17.2529 47.1812 17.0333 47.2994 17.0333 47.519C17.0502 48.2789 16.5939 48.6166 15.6476 48.5153C15.0899 48.414 14.8364 48.11 14.904 47.6034C14.904 47.4176 14.6843 47.3332 14.2619 47.3501C13.8225 47.4008 13.5352 47.2657 13.4169 46.9448C13.3493 46.5902 13.3493 46.3876 13.4169 46.3538L14.2788 46.4045C14.6843 46.4382 14.8871 46.2018 14.8871 45.7121C14.8871 45.2224 14.7012 44.986 14.3464 45.0029C13.907 45.0535 13.6366 44.9184 13.5352 44.5976C13.4676 44.2092 13.6704 44.0235 14.1267 44.0572C14.6336 44.1079 14.8871 43.8884 14.8871 43.3987C14.8871 42.9089 14.6843 42.6388 14.2788 42.6556C13.8732 42.7063 13.6197 42.5543 13.5183 42.2166C13.4676 41.862 13.6704 41.6931 14.1267 41.71C14.6336 41.7607 14.8871 41.5918 14.8871 41.2034V40.5111C14.8871 39.9707 15.1575 39.7174 15.6814 39.7512C16.2052 39.8187 16.7629 39.92 17.3374 40.0382C17.6923 40.224 17.6923 40.4435 17.3036 40.6968C17.1009 40.9332 16.9995 41.1865 16.9995 41.4398C16.9995 41.7438 17.2023 41.6931 17.5909 41.2541C17.9627 40.8319 18.1993 40.6124 18.2838 40.5955C18.3683 40.6293 18.5879 40.815 18.9259 41.1527C19.2132 41.5411 19.3653 41.4905 19.3653 40.967V40.2746C19.3653 39.7343 19.6357 39.481 20.1595 39.5316C21.2918 39.6498 22.0691 39.8356 22.5423 40.0889C22.593 40.1733 22.5423 40.3591 22.3564 40.6293C22.086 40.967 21.9508 41.3216 21.9508 41.6762V48.8192C22.1536 49.6804 21.8156 50.2208 20.9369 50.4066C20.4468 50.491 19.9567 50.339 19.4836 49.9675C19.3822 49.8155 19.1456 49.7311 18.7738 49.7311H4.47748C4.07191 49.7311 3.85223 49.8155 3.81843 49.9844C3.63254 50.6261 3.10868 50.8963 2.22995 50.795C1.38501 50.6936 1.03013 50.2208 1.21602 49.3934V40.2578C1.21602 39.7174 1.4864 39.4641 2.01026 39.5147C3.14248 39.6329 3.91982 39.8187 4.39299 40.072C4.44368 40.1564 4.37609 40.3422 4.1902 40.6124C3.93672 40.9501 3.80153 41.3047 3.80153 41.6593V48.4308C3.80153 48.853 4.00432 49.0725 4.40989 49.0725H9.6485C10.071 49.0725 10.2907 48.8699 10.2907 48.4646V47.8229C10.2907 47.4683 10.071 47.2826 9.6316 47.2826H8.49939C8.09382 47.2826 7.87413 47.4176 7.85723 47.6878C7.70515 48.4984 7.07989 48.7179 5.99837 48.3295C5.81248 48.1944 5.72799 47.958 5.74489 47.6372C5.74489 47.4683 5.5252 47.4008 5.08584 47.4345C4.66337 47.4852 4.39299 47.3332 4.2747 46.9955C4.1902 46.6409 4.40989 46.472 4.91685 46.4889L5.15343 46.5227C5.559 46.5395 5.76179 46.3031 5.76179 45.8134C5.76179 45.3237 5.5421 45.0873 5.10274 45.1042C4.66337 45.1548 4.39299 45.0029 4.29159 44.6651C4.224 44.3274 4.46058 44.1585 4.98444 44.1585C5.50831 44.1923 5.77869 43.9728 5.77869 43.5169C5.77869 43.0609 5.559 42.8414 5.11963 42.8583C4.68027 42.9089 4.40989 42.757 4.30849 42.4192C4.2409 42.0815 4.2409 41.8957 4.30849 41.862C4.59577 41.862 4.88305 41.8957 5.17033 41.9464C5.5759 41.9464 5.77869 41.7607 5.77869 41.3554V40.5111C5.77869 39.9707 6.04907 39.7174 6.57293 39.7512C6.79261 39.768 7.04609 39.8187 7.31647 39.8862C7.95863 39.9876 8.3304 40.0889 8.41489 40.1902C8.46559 40.3084 8.39799 40.4773 8.21211 40.6968C8.00932 40.9332 7.90793 41.2203 7.90793 41.5411C7.90793 41.862 8.11072 41.8282 8.51629 41.4398C8.90496 41.0176 9.15844 40.815 9.25983 40.8319C9.37812 40.8994 9.54711 41.0852 9.7499 41.3892C10.1386 41.9633 10.3414 42.0308 10.3414 41.5918V40.0045L10.2738 39.9707ZM18.3683 50.3559C18.5373 49.9506 18.8245 49.8493 19.2132 50.0688C20.1257 50.5585 21.0214 51.2678 21.8663 52.1628C21.9001 52.4667 21.5959 52.568 20.9538 52.4667H2.99039L2.19615 52.568C1.67229 52.6018 1.35121 52.4498 1.24982 52.1121C1.14842 51.7575 1.36811 51.6055 1.90887 51.6562C2.22995 51.6731 2.58482 51.7237 2.95659 51.7913H16.7798C17.2698 51.9264 17.6078 51.7913 17.7768 51.386C17.9458 51.0483 18.1486 50.7105 18.3683 50.3728V50.3559ZM3.97052 54.2398C3.97052 53.6994 4.224 53.4799 4.73096 53.5981C5.17033 53.7332 5.6097 53.9021 6.06596 54.1047C6.23495 54.206 6.52223 54.2567 6.9278 54.2567H16.1545C16.5601 54.2567 16.8981 54.0878 17.1685 53.7501C17.4557 53.463 17.8782 53.4124 18.419 53.615C18.9597 53.8514 19.5512 54.1891 20.1764 54.6282C20.5989 54.9997 20.4637 55.3374 19.7371 55.6414C19.6695 55.7596 19.6357 56.0298 19.6357 56.4351C19.6526 57.0936 19.6357 57.786 19.585 58.4952C19.1118 59.0694 18.4359 59.272 17.574 59.1031C17.2529 58.9849 17.0671 58.7654 17.0333 58.4614C16.9995 58.3264 16.7967 58.2588 16.4249 58.2588H7.19818C6.79261 58.2588 6.53913 58.3939 6.45464 58.6472C5.99837 59.2551 5.30552 59.4746 4.39299 59.2889C4.00432 59.1707 3.85223 58.7823 3.95362 58.1406V54.206L3.97052 54.2398ZM7.33337 54.9322C6.82641 54.9997 6.57293 55.2361 6.57293 55.6414V56.9923C6.57293 57.4145 6.77571 57.634 7.18128 57.634H16.408C16.8305 57.634 17.0502 57.4314 17.0502 57.0261V55.6245C17.0502 55.1686 16.8305 54.9322 16.3911 54.9322H7.35027H7.33337ZM10.2738 43.1791C10.2738 42.7232 10.2231 42.5374 10.1386 42.6219C9.59781 42.6725 9.04015 42.6894 8.48249 42.6725C8.06002 42.6725 7.84034 42.9258 7.84034 43.4324C7.84034 43.939 7.89103 44.2092 7.97553 44.2261C8.07692 44.2261 8.3304 44.0066 8.73597 43.5675C9.12464 43.1453 9.49642 43.0947 9.83439 43.4155C10.1217 43.8208 10.2738 43.7533 10.2738 43.1791ZM10.2738 45.6277C10.2738 45.1549 10.071 44.9184 9.6823 44.9184H8.48249C8.06002 44.9184 7.84034 45.1886 7.84034 45.729C7.84034 46.2694 7.87413 46.5564 7.94173 46.5902C8.02622 46.5733 8.2628 46.3369 8.63458 45.8979C9.02325 45.0704 9.47952 45.1548 10.0203 46.1512C10.0879 46.32 10.1555 46.3876 10.2231 46.3538C10.2569 46.2862 10.2738 46.033 10.2738 45.6108V45.6277ZM19.3991 42.9765C19.3991 42.6388 19.1794 42.4699 18.74 42.4699H17.6923C17.2698 42.4699 17.0502 42.7401 17.0502 43.2636C17.0502 43.8377 17.236 43.9221 17.5909 43.5169C17.9627 43.1116 18.1993 42.9089 18.2838 42.9089C18.3852 42.9765 18.5711 43.1791 18.8414 43.5169C19.2132 44.0572 19.3991 44.1079 19.3991 43.6688V42.9765ZM19.3991 45.3744C19.3991 44.8847 19.3653 44.6651 19.2977 44.7327C19.2132 44.7833 18.909 44.8171 18.4021 44.8171H17.6923C17.2698 44.8171 17.0502 45.0198 17.0502 45.425V45.9147C17.0502 46.4045 17.2867 46.4045 17.7599 45.881C18.1655 45.425 18.4021 45.2055 18.4697 45.2224C18.8245 45.4757 19.0949 45.7628 19.2639 46.0836C19.3484 46.1005 19.3991 45.8641 19.3991 45.3744Z" fill="#6B6B6B"/>
<path d="M38.108 39.8864C38.108 39.3798 38.3615 39.1265 38.8684 39.1434C39.8823 39.2109 40.778 39.3798 41.5215 39.65C41.8426 39.937 41.7581 40.2072 41.268 40.4436C41.0653 40.5281 40.9639 40.7814 40.9639 41.2035V41.9465C40.9639 42.3687 41.1666 42.5882 41.5722 42.5882H46.456C46.9291 42.6895 47.3009 42.5545 47.5882 42.1998C48.1627 41.4737 48.788 41.3893 49.4301 41.9465C50.5624 42.5713 51.3059 43.1455 51.6608 43.6352C51.7453 43.8885 51.5932 44.0405 51.2214 44.0911C50.7989 44.0911 50.3765 44.2769 49.9371 44.6822C48.8049 45.4927 47.791 46.1513 46.8784 46.6241C46.5743 46.7761 46.4053 46.7423 46.3884 46.489C46.3884 46.3202 46.5236 46.0162 46.777 45.594C47.0305 45.0368 47.2502 44.4626 47.4361 43.8885C47.5375 43.4832 47.3854 43.2806 46.9798 43.2806L31.7202 43.3143C31.2133 43.3481 30.9091 43.6183 30.8077 44.1249C30.6387 45.0199 30.4021 45.6953 30.1149 46.1344C29.3544 47.0125 28.5264 47.1476 27.6307 46.5397C27.09 46.0669 27.0562 45.3745 27.5631 44.4964C27.8504 44.108 28.1715 43.8547 28.5264 43.7365C29.5065 42.9428 30.1318 41.9803 30.3852 40.8489C30.4697 40.8151 30.5542 40.8489 30.6218 40.8996C30.7401 41.2373 30.8246 41.575 30.8584 41.9128C30.9091 42.318 31.1964 42.5376 31.7202 42.5713H37.4658C37.8883 42.5713 38.108 42.3687 38.108 41.9634V39.8695V39.8864ZM34.9648 44.5133C35.1507 43.9391 35.4887 43.6858 35.9618 43.7703C36.5364 43.8716 37.1447 44.0405 37.77 44.2769C38.1756 44.3782 38.4122 44.5808 38.4797 44.8848C38.3784 45.1212 38.2432 45.2225 38.0742 45.1888C37.9052 45.2225 37.6855 45.4252 37.4151 45.7798C37.1954 46.1682 37.2799 46.3708 37.7024 46.3708H41.0484C41.6229 46.5228 42.1468 46.2357 42.603 45.5096C42.8396 45.2732 43.0424 45.1719 43.2114 45.2225C44.1746 45.7967 44.952 46.5228 45.5434 47.4009C45.5434 47.7893 45.3406 47.9919 44.8844 47.9919C44.5295 47.9919 44.2422 48.2283 44.0394 48.7012C43.4818 49.6468 42.8565 50.508 42.1806 51.251C41.7412 51.7576 41.7581 52.1291 42.2651 52.3824C45.0365 53.3956 48.0275 53.9191 51.2383 53.936C51.3397 54.0204 51.3904 54.1048 51.3904 54.1724C51.3397 54.2568 51.0524 54.4426 50.5455 54.7128C50.0216 55.1012 49.6667 55.5064 49.4808 55.9117C49.2781 56.469 49.1429 56.7729 49.0922 56.8236C48.8894 56.8911 48.5176 56.8574 47.9599 56.7391L47.6051 56.6885C47.115 56.6209 46.946 56.6885 47.0981 56.9249C47.3516 57.1782 47.3009 57.4315 46.946 57.6848C46.5236 57.8368 46.3715 58.1745 46.4898 58.6811V62.126C46.7263 63.0716 46.287 63.6289 45.1548 63.7639C44.3605 63.9835 43.8705 63.7302 43.7015 63.0209C43.6846 62.5988 43.4649 62.3793 43.0593 62.3793H36.6209C36.2153 62.3793 35.9956 62.4806 35.9787 62.6663C35.9111 63.5107 35.3366 63.9666 34.2382 64.0004C33.3256 64.051 32.9538 63.5951 33.1397 62.6494V57.1613C33.1397 56.756 32.8863 56.5703 32.3793 56.6041C30.0135 56.9418 28.3574 57.0769 27.428 57.0093C27.3435 56.9418 27.3097 56.8574 27.3266 56.7729C29.8614 56.3001 32.1258 55.5909 34.1199 54.6621C35.4887 53.9698 36.5026 53.3281 37.1785 52.7708C37.7193 52.3149 37.7869 51.8421 37.3644 51.3692C36.5871 50.3729 36.0294 49.5624 35.7252 48.9713C35.5225 48.5492 35.1676 48.5492 34.6606 49.0051C33.3256 50.1027 32.0413 50.8795 30.7739 51.3861C30.098 51.6056 29.7769 51.6563 29.8107 51.5212C32.6159 49.2246 34.3564 46.8943 34.9986 44.5471L34.9648 44.5133ZM40.5245 54.088C39.9668 53.7165 39.443 53.6827 38.936 54.0035C37.9728 54.6114 36.8913 55.1687 35.6915 55.6584C35.269 55.8273 35.2014 55.9793 35.4887 56.1143C35.8097 56.3001 36.1815 56.4014 36.5871 56.4014H42.6706C43.0762 56.4014 43.3973 56.2832 43.617 56.0637C43.8029 55.8273 43.617 55.5909 43.0762 55.3544C42.4003 55.0674 41.7074 54.7296 41.0315 54.3581L40.5245 54.0711V54.088ZM43.6508 57.7523C43.6508 57.2964 43.4311 57.06 42.9917 57.06H36.6378C36.1984 57.06 35.9787 57.2795 35.9787 57.7017V61.0452C35.9787 61.4674 36.1815 61.6869 36.5871 61.6869H43.0255C43.448 61.6869 43.6677 61.4843 43.6677 61.079V57.7523H43.6508ZM36.8744 47.0632C36.6209 47.1307 36.4012 47.2489 36.2153 47.4178C36.0294 47.6204 36.1308 47.975 36.5195 48.4647C37.1785 49.2078 37.8545 49.8326 38.5135 50.3054C38.9698 50.6431 39.4092 50.5924 39.8485 50.1196C40.6428 49.1402 41.2511 48.1608 41.6567 47.1814C41.6398 47.0969 41.4201 47.0463 41.0146 47.0463H36.8744V47.0632Z" fill="#6B6B6B"/>
<path d="M58.8754 39.8354C58.8416 39.2951 59.0782 39.0249 59.619 39.0418C60.1935 39.0755 60.7681 39.1431 61.3595 39.2444C61.8158 39.2951 62.1876 39.447 62.4579 39.7003C62.5931 39.9705 62.458 40.1732 62.0524 40.3083C61.8327 40.4771 61.7144 40.7642 61.7144 41.1695V44.1753C61.7144 44.5974 61.8327 44.817 62.0693 44.817C62.3228 44.817 62.6269 44.6143 62.9649 44.209L63.455 43.618C63.8774 43.1114 64.1309 42.8412 64.2154 42.8075C65.2124 43.1959 66.125 44.0064 66.953 45.2391C66.8009 45.5262 66.4461 45.6275 65.8715 45.5262H62.3397C61.9172 45.5262 61.6975 45.7288 61.6975 46.1341V50.6259C61.6975 51.0481 61.7989 51.2676 61.9848 51.2676C62.3059 51.3183 62.5593 51.2001 62.7452 50.9299C63.117 49.9674 63.6409 49.6972 64.2999 50.17C64.79 50.4064 65.1955 50.2713 65.5335 49.7647C66.8685 47.4006 67.7473 44.7663 68.1866 41.8449C68.3387 40.9668 68.457 40.0718 68.5415 39.16C68.6091 39.0755 68.8964 39.0586 69.4033 39.1093C70.5187 39.2613 71.4819 39.5821 72.3099 40.0718C72.5972 40.494 72.4451 40.7642 71.8537 40.8655C71.6678 40.8993 71.4312 41.1863 71.1608 41.7267C70.6876 43.0608 70.2145 44.209 69.7244 45.2053C69.5216 45.6275 69.623 45.847 70.0286 45.847H73.459C73.8646 45.847 74.2364 45.6444 74.5913 45.2391L75.301 44.3948C75.6052 43.8375 75.9263 43.6856 76.2473 43.9389C76.7543 44.2597 77.2951 44.7325 77.8865 45.3404C78.3597 45.9484 78.5625 46.303 78.4949 46.4043C78.4104 46.4887 78.1062 46.5394 77.5823 46.5394H76.6698C76.2642 46.5394 76.0277 46.7927 75.9601 47.2993C75.7066 50.6428 74.8447 53.598 73.3745 56.2154C73.0873 56.6713 73.1042 57.0766 73.4252 57.4481C74.6082 58.799 76.0446 59.8629 77.7682 60.6565C78.4273 60.9267 78.7315 61.0956 78.6639 61.1631C77.9372 61.5515 77.2951 62.1257 76.7712 62.8687C76.4163 63.409 76.1966 63.6961 76.129 63.713C74.3209 62.666 72.8169 61.3658 71.634 59.8291C71.296 59.3394 70.8566 59.3225 70.3328 59.7784C68.1697 61.5684 65.9391 62.6323 63.6578 62.9869C63.1508 63.0713 62.8635 63.0882 62.7959 63.0207C62.8635 62.7674 63.0325 62.6154 63.3029 62.5647C65.5335 61.5853 67.5952 59.9473 69.5047 57.6845C69.8258 57.2623 69.8765 56.8064 69.6568 56.2998C68.8626 54.0708 68.3725 51.5378 68.2035 48.7009C68.1697 48.2956 67.9331 48.2956 67.5107 48.7346C67.0544 49.2243 66.615 49.7141 66.2095 50.2207C65.8546 50.6428 65.787 50.9299 66.0236 51.065C66.6657 51.4534 66.7164 51.8418 66.1588 52.247C65.8546 52.4159 65.7025 52.7199 65.7025 53.142V58.7146C65.8715 59.694 65.4321 60.285 64.4013 60.4539C63.2691 60.6565 62.7621 60.2513 62.8635 59.255C62.8635 58.8328 62.6607 58.6133 62.2552 58.6133H58.5543C58.1319 58.6133 57.9122 58.8159 57.9122 59.2212C58.0812 60.4032 57.5066 60.9943 56.1716 61.028C55.276 61.0618 54.9042 60.6565 55.107 59.8291V50.8961C55.107 50.3726 55.3774 50.1869 55.9181 50.3389C56.4927 50.4908 57.0841 50.7104 57.6587 50.9974C57.9798 51.1832 58.2502 51.2845 58.4698 51.2845C58.7233 51.2845 58.8585 51.0819 58.8585 50.6766V46.1848C58.8585 45.7626 58.6557 45.5431 58.2502 45.5431C57.1179 45.5093 56.273 45.5431 55.6984 45.6782C55.1577 45.7626 54.8197 45.6444 54.7014 45.2898C54.6 44.8845 54.8535 44.6988 55.4619 44.7494C56.104 44.8507 57.0334 44.8845 58.2164 44.8507C58.6388 44.8507 58.8585 44.6481 58.8585 44.2428V39.8523L58.8754 39.8354ZM62.8973 52.6523C62.8973 52.1964 62.6776 51.96 62.2552 51.96H58.605C58.1657 51.96 57.946 52.1795 57.946 52.6017V57.2792C57.946 57.7014 58.1488 57.9209 58.5543 57.9209H62.2552C62.6776 57.9209 62.8973 57.7183 62.8973 57.313V52.6692V52.6523ZM73.2394 47.2148C73.307 46.7758 73.138 46.5563 72.7324 46.5563H69.7751C69.3695 46.5563 69.0992 46.6407 68.964 46.8096C68.8288 47.0291 68.795 47.3837 68.8626 47.8565C69.2006 50.0687 69.9272 52.1457 71.0425 54.1046C71.296 54.5098 71.5326 54.4592 71.7523 53.9526C72.5127 52.0782 73.0197 49.8323 73.2563 47.2148H73.2394Z" fill="#6B6B6B"/>
<path d="M92.455 39.0422C92.5057 38.9578 92.7761 38.924 93.2492 38.9578L95.0067 39.1604C95.6488 39.3462 96.0037 39.515 96.0544 39.6501C96.1051 39.8865 95.953 40.0892 95.5982 40.258C95.3109 40.2749 95.1926 40.4944 95.2602 40.9166C95.2602 41.2206 95.463 41.3725 95.8685 41.3725H99.9749C100.414 41.5076 100.769 41.3725 101.023 40.9673C101.361 40.4607 101.766 39.9541 102.222 39.4306C102.527 39.0591 102.949 39.1266 103.473 39.667C104.064 40.0892 104.571 40.5451 104.977 41.0517C105.366 41.5583 105.518 41.8623 105.416 41.9467C105.332 42.0142 105.028 42.048 104.521 42.048H95.8854C95.463 42.048 95.2433 42.2506 95.2433 42.6559V43.9055C95.2433 44.3277 95.4461 44.5472 95.8516 44.5472H98.7582C99.1638 44.5472 99.5356 44.3783 99.8566 44.0575C100.195 43.4496 100.702 43.382 101.394 43.8549C101.901 44.0744 102.527 44.4459 103.236 44.9525C103.591 45.2733 103.524 45.5773 103 45.8475C102.679 45.9995 102.56 46.3372 102.645 46.8438V48.1947C102.814 49.2079 102.375 49.7652 101.344 49.8496C100.634 50.1029 100.127 49.8496 99.8397 49.1066C99.8059 48.8871 99.6032 48.7688 99.2314 48.7688H95.8854C95.463 48.7688 95.2433 48.9715 95.2433 49.3768V50.7108C95.2433 51.133 95.4461 51.3525 95.8516 51.3525H99.0793C99.4849 51.3525 99.8397 51.2005 100.144 50.8965C100.499 50.3055 101.006 50.2211 101.648 50.6601C101.986 50.8121 102.324 50.9979 102.679 51.2005C103.27 51.5551 103.625 51.8422 103.743 52.0617C103.845 52.2306 103.71 52.4332 103.355 52.6696C102.983 52.8216 102.848 53.1256 102.949 53.5646C102.949 54.0206 103.169 53.9868 103.591 53.4633C104.014 53.0074 104.521 53.0243 105.095 53.5309C105.383 53.8686 105.636 54.2063 105.839 54.544C106.008 54.7973 105.991 55 105.771 55.1351C105.061 55.1857 104.335 55.2026 103.591 55.1857C103.169 55.1857 102.949 55.3884 102.949 55.7936V58.9852C103.118 59.7789 102.848 60.2855 102.155 60.4881C100.752 61.0454 100.076 60.6401 100.11 59.2385C100.11 58.7826 99.9073 58.5462 99.5018 58.5462H95.8685C95.4461 58.5462 95.2264 58.7488 95.2264 59.1541V61.3831C94.8377 62.734 93.8914 63.4601 92.4212 63.5783C91.8635 63.6121 91.5593 63.477 91.5087 63.1899C91.4749 62.582 91.0693 62.0417 90.3088 61.5857C89.8019 61.3493 89.5146 61.1805 89.4639 61.096C89.4639 60.9947 89.4639 60.9103 89.5146 60.8427C89.5822 60.7921 89.8695 60.7583 90.3764 60.7583C91.2552 60.8258 91.9142 60.7245 92.3198 60.4712C92.3874 60.3024 92.4212 59.9477 92.4212 59.4074C92.4212 58.8332 92.2184 58.5462 91.8128 58.5462H85.9659L85.1547 58.6475C84.6309 58.715 84.3267 58.5799 84.2422 58.2422C84.1408 57.8876 84.3774 57.7187 84.935 57.7525L85.9321 57.8538H91.8128C92.2353 57.8538 92.455 57.6512 92.455 57.2459V55.8105C92.455 55.3884 92.2522 55.1688 91.8466 55.1688H83.9718L83.0086 55.3039C82.5016 55.3377 82.2143 55.2026 82.1467 54.8987C82.0622 54.5272 82.3157 54.3414 82.8903 54.3583C83.2114 54.3752 83.5662 54.4258 83.938 54.4934H91.8297C92.2522 54.4934 92.4719 54.2907 92.4719 53.8855V52.6528C92.4719 52.2306 92.2691 52.0111 91.8635 52.0111H86.3376L85.5265 52.1462C85.0026 52.2306 84.6815 52.1124 84.5802 51.7578C84.4619 51.3863 84.6815 51.2005 85.2392 51.2174C85.5603 51.2174 85.9152 51.2512 86.2869 51.3187H91.8297C92.2522 51.3187 92.4719 51.1161 92.4719 50.7108V49.3768C92.4719 48.9546 92.2691 48.7351 91.8635 48.7351H88.3824C87.9768 48.7351 87.7571 48.8195 87.7233 48.9884C87.5205 49.7314 86.8446 50.086 85.7124 50.0016C85.0533 49.934 84.7998 49.495 84.9519 48.6675V44.2264C84.9519 43.686 85.2223 43.4834 85.7462 43.6353C86.3038 43.7873 86.8953 44.0068 87.5036 44.2939C87.7064 44.4121 88.0106 44.4797 88.4162 44.4797H91.8466C92.2691 44.4797 92.4888 44.277 92.4888 43.8717V42.6221C92.4888 42.2 92.286 41.9805 91.8804 41.9805H84.1408L83.3297 42.1156C82.7889 42.2169 82.4678 42.1155 82.3664 41.7778C82.2312 41.3557 82.4509 41.153 83.0593 41.1868C83.3972 41.1868 83.7352 41.2543 84.0732 41.3219H91.8635C92.286 41.3219 92.5057 41.1192 92.5057 40.714V38.9747L92.455 39.0422ZM88.5176 45.2227C88.0106 45.2902 87.7571 45.5266 87.7571 45.9319V47.4686C87.7571 47.8907 87.9599 48.1103 88.3655 48.1103H91.8128C92.2353 48.1103 92.455 47.9076 92.455 47.5024V45.8644C92.455 45.4422 92.2522 45.2227 91.8466 45.2227H88.5176ZM99.8397 45.915C99.8397 45.4591 99.6201 45.2227 99.1807 45.2227H95.9192C95.4968 45.2227 95.2771 45.4253 95.2771 45.8306V47.4686C95.2771 47.8907 95.4799 48.1103 95.8854 48.1103H99.2145C99.637 48.1103 99.8566 47.9076 99.8566 47.5024V45.915H99.8397ZM100.144 52.7878C100.144 52.315 99.9242 52.0786 99.5018 52.0786H95.9023C95.4799 52.0786 95.2602 52.2812 95.2602 52.6865V53.9192C95.2602 54.3414 95.463 54.5609 95.8685 54.5609H99.5018C99.9242 54.5609 100.144 54.3583 100.144 53.953V52.8047V52.7878ZM100.144 55.895C100.144 55.4559 99.9411 55.2364 99.5525 55.2364H95.9023C95.4799 55.2364 95.2602 55.439 95.2602 55.8443V57.2797C95.2602 57.7018 95.463 57.9214 95.8685 57.9214H99.5018C99.9242 57.9214 100.144 57.7187 100.144 57.3134V55.9119V55.895Z" fill="#6B6B6B"/>
<path d="M116.111 49.2576C116.398 48.7173 116.652 48.3795 116.871 48.2444C117.328 48.3795 117.97 48.7679 118.764 49.3927C119.102 49.646 119.372 49.9162 119.575 50.1864C119.71 50.4903 119.474 50.7605 118.865 50.9969C118.747 51.1151 118.646 51.3178 118.561 51.588C117.666 54.7626 115.739 57.5827 112.782 60.065C111.498 61.0782 110.433 61.703 109.588 61.9056C109.504 61.8212 109.47 61.7368 109.487 61.6523C111.312 60.217 112.664 58.6972 113.525 57.0592C114.691 54.9484 115.435 52.7531 115.773 50.4397C115.722 50.3721 115.486 50.3384 115.08 50.3384H112.444L111.633 50.4735C111.109 50.5579 110.788 50.4397 110.686 50.0851C110.602 49.7136 110.822 49.5278 111.346 49.5447L112.343 49.646H115.08C115.553 49.7811 115.891 49.646 116.094 49.2576H116.111ZM121.197 44.2085C121.535 43.6006 121.873 43.398 122.211 43.6175C123.699 44.293 124.611 44.9516 124.949 45.5764C124.949 46.0154 124.645 46.2856 124.104 46.3869C123.766 46.6064 123.699 46.9273 123.918 47.3494C124.155 48.5146 124.493 49.6798 124.932 50.845C125.101 51.2671 125.456 51.2502 126.014 50.7774C127.416 49.4096 128.582 47.856 129.512 46.083C129.816 45.5426 130.221 45.3906 130.711 45.6439C131.269 45.9647 131.861 46.3531 132.469 46.826C132.722 47.0624 132.824 47.2819 132.756 47.4677C132.689 47.6196 132.52 47.6872 132.266 47.6534C131.979 47.5183 131.556 47.7885 131.016 48.464C129.41 49.9162 127.737 50.9801 126.014 51.6724C125.608 51.8582 125.524 52.2128 125.76 52.7194C127.433 55.8771 129.714 58.0049 132.638 59.0687C133.263 59.2376 133.297 59.4909 132.739 59.8286C131.725 60.369 131.033 61.2302 130.695 62.4122C130.627 62.4629 130.306 62.3109 129.748 61.9563C128.346 60.808 127.23 59.3727 126.369 57.6334C125.388 55.7421 124.594 53.5468 124.02 51.0476C123.867 50.6423 123.783 50.6254 123.783 50.9969V61.2133C123.665 62.0914 123.276 62.75 122.634 63.1553C121.823 63.5943 121.062 63.7463 120.386 63.5943C120.234 62.6318 119.643 61.9563 118.595 61.6017C118.021 61.6017 117.716 61.4328 117.699 61.0613C117.733 60.9431 118.071 60.8756 118.696 60.8756C119.575 60.8756 120.234 60.7405 120.657 60.4703C120.944 60.1663 121.045 59.7948 120.944 59.3727V46.4207C120.944 46.0154 120.927 45.779 120.876 45.7115C120.809 45.6439 120.572 45.6101 120.167 45.6101H117.159C116.905 45.627 116.652 45.6777 116.398 45.7452C115.857 45.8465 115.52 45.7115 115.401 45.3399C115.283 44.9516 115.52 44.7827 116.111 44.8333C116.415 44.8502 116.753 44.9009 117.108 44.9684H120.302C120.657 44.9178 120.961 44.6645 121.197 44.2085ZM119.288 39.3959C120.775 39.2101 122.296 39.4297 123.867 40.0545C125.371 40.7468 125.878 41.6249 125.422 42.6888C125.27 43.0265 124.949 43.246 124.476 43.3304C124.036 43.4318 123.53 43.1954 122.972 42.6381C121.789 41.3209 120.623 40.4597 119.44 40.0376C118.764 39.8687 118.409 39.7336 118.392 39.6492C118.392 39.5647 118.713 39.4803 119.288 39.3959Z" fill="#6B6B6B"/>
<path d="M157.429 39.3456C157.767 38.7715 158.224 38.7715 158.781 39.3456C159.339 39.7003 159.947 40.2406 160.573 40.9499C160.944 41.4734 161.079 41.7773 160.978 41.8617C160.86 41.9124 160.539 41.9462 160.032 41.9462H151.853C151.447 41.9462 151.126 42.1995 150.906 42.7061L150.264 44.0908C150.045 44.496 150.197 44.8507 150.754 45.1715C151.464 45.5261 151.565 45.8639 151.059 46.1678C150.771 46.3873 150.619 46.6913 150.619 47.0797V62.953C150.45 63.6454 149.842 63.9662 148.777 63.9156C147.814 63.7805 147.408 63.2063 147.594 62.21V48.9541C147.594 48.5488 147.375 48.5826 146.935 49.0554C144.029 52.1625 140.885 54.2058 137.506 55.1515C137.404 55.1008 137.354 55.0332 137.354 54.9488C137.354 54.8475 137.641 54.628 138.165 54.3071C141.274 52.1456 143.758 49.5789 145.6 46.6237C146.479 45.2053 147.138 43.8712 147.56 42.5879C147.696 42.1488 147.56 41.9293 147.172 41.9293H139.027L138.215 42.0813C137.658 42.1319 137.337 41.9968 137.252 41.6929C137.134 41.2707 137.371 41.085 137.962 41.1356C138.3 41.1525 138.638 41.2032 138.993 41.2707H155.182C155.655 41.4058 156.01 41.2707 156.23 40.8654C156.584 40.3588 156.973 39.8522 157.412 39.3288L157.429 39.3456ZM152.613 46.8264C152.664 46.742 152.934 46.7926 153.424 47.0121C155.402 47.8902 157.345 49.123 159.254 50.6934C160.235 51.5715 160.725 52.6691 160.691 53.9694C160.623 54.5773 160.285 55.0332 159.694 55.3203C159.001 55.5061 158.376 55.1514 157.835 54.2396C156.872 51.791 155.317 49.5451 153.188 47.5018C152.782 47.1135 152.596 46.8939 152.63 46.8433L152.613 46.8264Z" fill="#6B6B6B"/>
<path d="M165.978 39.7339C165.978 39.1935 166.214 38.9233 166.721 38.9402C168.056 39.0415 168.952 39.2104 169.408 39.4468C169.729 39.7339 169.662 39.9872 169.172 40.2067C168.935 40.3418 168.817 40.612 168.817 41.0004V43.888C168.817 44.2932 168.851 44.5128 168.918 44.5465C169.003 44.5296 169.239 44.2595 169.628 43.7529C169.915 43.28 170.253 43.1449 170.625 43.3645C171.521 43.8035 172.264 44.3946 172.822 45.1207C172.974 45.4246 172.805 45.6273 172.281 45.7286C172.146 45.7624 171.994 45.8806 171.825 46.0832C171.233 47.3835 170.405 48.7344 169.341 50.1698C168.884 50.8621 168.901 51.2336 169.408 51.2674C169.662 51.4194 169.915 51.3011 170.169 50.879C170.456 50.3724 170.71 49.8489 170.912 49.3254C171.132 48.8019 171.504 48.65 172.045 48.8695L172.754 49.2072C173.244 49.393 173.616 49.6125 173.853 49.8658C173.937 50.2711 173.751 50.4568 173.295 50.4062C173.126 50.4399 172.957 50.5244 172.788 50.6595C172.298 51.031 171.808 51.3687 171.301 51.6558C170.895 51.8753 170.811 52.0779 171.047 52.2637C171.25 52.5339 171.571 52.6521 171.994 52.6014H172.687C173.092 52.6014 173.464 52.3988 173.819 52.0104C174.191 51.7064 174.647 51.6895 175.171 51.9597C175.509 52.1624 175.847 52.3988 176.202 52.6521C176.624 53.0405 176.759 53.3782 176.607 53.6653C176.354 54.003 176.219 54.3576 176.219 54.7122V58.7988C176.066 59.4236 176.354 59.8795 177.08 60.1835C178.01 60.5719 179.125 60.7745 180.409 60.7745H183.299C185.158 60.707 187.017 60.4705 188.876 60.0653C188.943 60.1159 188.994 60.1835 189.028 60.251C189.028 60.3355 188.74 60.6056 188.217 61.0447C187.794 61.5175 187.541 62.0241 187.473 62.5814C187.439 63.2231 187.152 63.5777 186.628 63.6621C185.073 63.7128 183.265 63.6621 181.187 63.527C178.956 63.527 177.063 62.48 175.509 60.3523C175.221 59.9302 174.867 59.9639 174.427 60.4537L172.484 62.8347C172.112 63.4932 171.876 63.831 171.774 63.831C171.69 63.8141 171.487 63.527 171.183 62.9866L170.777 61.9734C170.557 61.3149 170.71 60.8589 171.233 60.6225C172.146 60.251 172.873 59.7782 173.413 59.1872C173.481 59.0352 173.515 58.7819 173.515 58.4273V53.9355C173.515 53.5133 173.312 53.2938 172.923 53.2938C172.535 53.2938 172.264 53.3106 172.129 53.3444C172.061 53.3782 172.112 53.6822 172.264 54.2394C172.366 54.6278 172.247 55.05 171.876 55.5228C170.845 56.2151 170.135 55.8774 169.78 54.4758C169.712 54.1381 169.611 53.8004 169.476 53.4626C169.172 52.8716 169.02 52.8716 169.02 53.4626V62.3281C169.172 63.1217 168.918 63.6621 168.259 63.9323C167.938 63.9998 167.6 64.0336 167.262 64.0167C166.4 63.9323 166.045 63.4088 166.214 62.4632V53.9186C166.214 53.4964 165.944 53.4457 165.42 53.7835L164.863 54.0874C164.271 54.3407 163.984 54.4083 164.001 54.2901C164.001 54.2056 164.322 53.8679 164.896 53.2938C167.042 50.9128 168.411 48.4304 168.986 45.8637C169.053 45.4584 168.884 45.2558 168.479 45.2558C166.823 45.222 165.724 45.2558 165.15 45.3909C164.626 45.4584 164.322 45.3233 164.237 44.9856C164.153 44.631 164.372 44.4621 164.93 44.4959L165.386 44.5465C165.792 44.5634 165.995 44.3608 165.995 43.9555V39.7676L165.978 39.7339ZM172.687 40.3249C172.67 40.1729 172.94 40.0885 173.498 40.0885C174.208 40.156 174.9 40.3587 175.543 40.6964C176.269 41.1692 176.624 41.7603 176.607 42.4357C176.472 43.6684 175.83 44.0737 174.664 43.6684C174.343 43.4658 174.157 43.2294 174.106 42.9761C174.005 42.0304 173.532 41.1354 172.67 40.3249H172.687ZM173.126 45.7286C173.126 45.7286 173.481 45.661 173.988 45.7286C175.475 45.9988 176.371 46.7587 176.692 48.0083C176.692 49.2917 176.117 49.7814 175.036 49.5112C174.292 49.3254 173.988 48.8019 174.123 47.9238C174.072 47.5017 173.886 47.0457 173.582 46.5729C173.244 46.0494 173.092 45.7624 173.126 45.7286ZM177.875 40.8653C177.875 40.308 178.128 40.0885 178.618 40.2236C179.041 40.3587 179.497 40.5613 179.97 40.8146C180.291 40.9835 180.663 41.0679 181.068 41.0679H183.603C184.009 41.2537 184.55 40.9328 185.242 40.1223C185.952 40.3249 186.679 40.6626 187.422 41.1355C188.284 41.4732 188.369 41.8785 187.676 42.3682C187.372 42.5877 187.27 42.9085 187.372 43.3307V48.4304C187.574 49.4099 187.135 49.9671 186.037 50.0853C185.31 50.2373 184.837 50.0178 184.651 49.4436C184.6 49.2072 184.364 49.089 183.958 49.089H181.254C180.832 49.089 180.612 49.2917 180.612 49.6969V55.489C180.612 55.9112 180.883 56.0463 181.406 55.8774C181.795 55.7761 182.218 55.641 182.657 55.4721C183.198 55.2526 183.519 55.1513 183.603 55.1682C183.688 55.2526 183.485 55.5566 183.012 56.08C181.947 57.1101 180.764 58.0558 179.514 58.8832C179.074 59.2716 178.855 59.5249 178.855 59.6262C178.855 59.9133 178.753 60.0821 178.517 60.1159C178.398 60.1159 178.145 59.812 177.756 59.2041C177.385 58.3597 177.08 57.5323 176.844 56.7555C176.844 56.688 177.047 56.6204 177.385 56.5529C177.722 56.5022 177.891 56.2658 177.891 55.8605V40.8484L177.875 40.8653ZM181.373 41.7603C180.866 41.8447 180.612 42.098 180.612 42.5033V44.2088C180.612 44.631 180.815 44.8505 181.221 44.8505H184.009C184.431 44.8505 184.651 44.6479 184.651 44.2426V42.4526C184.651 41.9967 184.431 41.7603 183.992 41.7603H181.39H181.373ZM184.651 46.2014C184.651 45.7624 184.448 45.5428 184.06 45.5428H181.254C180.832 45.5428 180.612 45.7455 180.612 46.1508V47.8056C180.612 48.2278 180.815 48.4473 181.221 48.4473H184.009C184.431 48.4473 184.651 48.2447 184.651 47.8394V46.2014ZM185.648 51.9935C185.868 51.4531 186.223 51.2843 186.713 51.4869L187.912 52.0273C188.403 52.3481 188.656 52.5676 188.673 52.669C188.673 52.956 188.538 53.0911 188.234 53.0574C188.014 53.108 187.828 53.1924 187.693 53.2938L186.662 53.9861C186.121 54.2901 186.087 54.6278 186.561 54.9824C188.183 56.2489 188.673 57.5661 188.065 58.9676C187.591 59.6431 187.017 59.7951 186.324 59.4067C185.885 59.0858 185.58 58.5961 185.411 57.9207C184.668 55.9449 183.502 54.1719 181.93 52.6183C181.88 52.4157 182.167 52.4325 182.775 52.7027C183.198 52.9054 183.654 53.1418 184.127 53.412C184.583 53.699 184.904 53.6653 185.09 53.3106C185.293 52.8885 185.462 52.4663 185.597 52.0273L185.648 51.9935Z" fill="#6B6B6B"/>
<path d="M198.714 39.7676C199.035 39.1934 199.508 39.0077 200.15 39.2272C200.488 39.3623 200.826 39.5312 201.164 39.7169C201.823 39.9702 202.262 40.2911 202.448 40.6795C202.398 40.9328 202.212 41.051 201.908 41.0341C201.722 41.0341 201.451 41.2367 201.113 41.642C200.809 42.081 200.86 42.3006 201.265 42.3006H204.104C204.51 42.3006 204.882 42.1655 205.237 41.9122C205.811 41.2367 206.318 41.0679 206.774 41.4225C208.092 42.0979 208.954 42.7227 209.377 43.28C209.36 43.5839 209.14 43.7359 208.718 43.719C208.566 43.7528 208.397 43.8372 208.211 43.9723C207.231 44.8167 206.234 45.6441 205.22 46.4209C204.797 46.7755 204.797 46.9613 205.22 46.9613H209.765C209.934 46.9106 210.103 46.7924 210.256 46.6235C210.644 45.8467 211.1 45.5766 211.641 45.813C213.044 46.2689 213.939 46.8768 214.328 47.6198C214.244 47.9069 214.058 48.0758 213.787 48.1095C213.416 48.2109 213.28 48.5148 213.399 49.0214V55.1006C213.01 55.9956 212.233 56.3333 211.1 56.0631C210.61 55.8605 210.424 55.4552 210.56 54.8642C210.56 54.4082 210.357 54.1718 209.951 54.1718H198.578C198.156 54.1718 197.936 54.3744 197.936 54.7797V59.4235C197.987 59.7781 198.105 60.0652 198.291 60.2847C198.629 60.5211 199.288 60.6394 200.251 60.6225L202.702 60.6731H208.245C210.154 60.5887 211.506 60.4029 212.334 60.1328C212.892 59.8795 213.331 59.2547 213.635 58.2752C213.737 57.8868 213.872 57.4985 214.024 57.0932C214.108 57.0087 214.193 56.9581 214.277 56.9581C214.396 57.0087 214.48 57.2958 214.531 57.8024L214.565 59.1533C214.565 59.6262 214.852 59.9977 215.359 60.2847C216.255 61.1122 216.255 61.8552 215.342 62.48C214.936 62.7333 214.244 62.9359 213.297 63.071C211.54 63.3581 209.242 63.5101 206.403 63.5269H202.752C200.758 63.4763 199.187 63.3581 198.021 63.1892C196.196 62.8853 195.233 61.9058 195.131 60.251V48.0926C195.131 47.6705 194.861 47.6029 194.337 47.89C193.407 48.3797 192.596 48.7175 191.937 48.8863C191.853 48.8525 191.802 48.785 191.785 48.7006C194.996 46.2351 197.311 43.2293 198.731 39.6832L198.714 39.7676ZM205.068 43.6346C205.253 43.1956 205.135 42.976 204.73 42.976H200.539C200.201 43.0436 199.88 43.2462 199.592 43.5839L197.598 45.6441C197.058 46.1 197.024 46.4547 197.514 46.7248C197.801 46.8937 198.156 46.9781 198.562 46.9781H202.668C203.074 46.9781 203.445 46.7248 203.766 46.2182C204.223 45.3739 204.645 44.5127 205.051 43.6346H205.068ZM202.769 48.3628C202.769 47.9069 202.583 47.6705 202.212 47.6705H198.562C198.139 47.6705 197.919 47.8731 197.919 48.2784V52.8715C197.919 53.2937 198.122 53.5132 198.528 53.5132H202.127C202.55 53.5132 202.769 53.3106 202.769 52.9053V48.3628ZM210.543 48.4135C210.543 47.9238 210.323 47.6705 209.901 47.6705H206.217C205.794 47.6705 205.575 47.8731 205.575 48.2784V52.8715C205.575 53.2937 205.777 53.5132 206.183 53.5132H209.884C210.306 53.5132 210.526 53.3106 210.526 52.9053V48.4135H210.543Z" fill="#6B6B6B"/>
</g>
<defs>
<clipPath id="clip0_1683_12175">
<rect width="216" height="64" fill="white"/>
</clipPath>
</defs>
</svg>
