<svg width="87" height="251" viewBox="0 0 87 251" fill="none" xmlns="http://www.w3.org/2000/svg">
<g clip-path="url(#clip0_1547_11802)">
<path d="M66.0344 1.30466C66.0344 0.416902 66.4 -0.0269751 67.1049 -0.00086463C69.1938 0.0774667 70.6299 0.390792 71.4915 0.913001C71.7787 1.35688 71.5959 1.72242 70.9693 1.98353C70.4732 2.19241 70.2904 2.58407 70.4471 3.13239C70.4471 3.6546 70.7604 3.9157 71.3871 3.9157H72.9537C73.6064 3.9157 74.1809 3.60238 74.6509 2.97573C75.4342 1.74854 76.1914 0.913001 76.8964 0.521344C78.4369 1.25244 79.8991 2.58407 81.2829 4.46402C81.1001 4.98623 80.5518 5.169 79.6641 4.98623H71.4132C70.7604 4.98623 70.421 5.29956 70.421 5.92621V7.70172C70.421 8.35448 70.7343 8.69391 71.361 8.69391H77.0008C77.7058 8.9028 78.2541 8.69391 78.6458 8.06726C79.4552 6.84007 80.2646 5.9001 81.1001 5.29956C82.719 6.00454 84.2073 7.31006 85.5128 9.21612C85.5128 9.42501 85.4606 9.58167 85.2778 9.66C85.1473 9.71222 84.6773 9.73833 83.894 9.73833H76.8964C76.2697 9.73833 75.9564 10.13 75.9564 10.9133L76.0347 13.2371C76.1131 13.8638 76.5047 14.1771 77.2097 14.1771C77.9147 14.1771 78.228 13.9682 78.0452 13.5766C77.8363 13.0021 77.6536 12.4016 77.523 11.8011C77.1052 11.0177 76.9486 10.5478 77.053 10.4172C78.5674 10.2605 79.7946 10.7827 80.6824 11.9838C80.839 12.2972 81.0479 12.3233 81.309 12.036C81.5962 11.4616 81.9618 11.305 82.3796 11.5922C83.4762 12.4799 84.2856 13.5505 84.7817 14.7776C84.5467 15.2215 83.9984 15.3782 83.1629 15.2215H77.1575C76.5308 15.2215 76.2175 15.6132 76.2436 16.3965C76.5047 18.9814 76.8441 21.2008 77.2358 23.0808C77.3664 23.8119 77.6013 23.8641 77.9147 23.2113C78.3847 22.1408 78.8546 20.7569 79.3246 19.0598C79.5857 18.1981 80.0818 17.8587 80.7868 18.0415C82.8495 18.7464 84.129 19.5036 84.6251 20.3392C84.6251 20.6525 84.3639 20.8092 83.8679 20.8092C83.5545 20.8875 83.189 21.3314 82.7973 22.1147C81.9879 23.7596 80.9174 25.6396 79.6118 27.7284C79.1941 28.3551 79.1158 28.9817 79.403 29.6345C79.638 30.1828 79.9774 30.7833 80.4213 31.41C80.9696 32.2978 81.544 32.5066 82.1185 32.0367C82.6407 31.6972 83.0584 31.2011 83.3718 30.5745C83.9201 29.765 84.2595 29.3473 84.364 29.3212C84.5989 29.2167 84.7817 29.3212 84.9123 29.6867C84.7556 30.7833 84.5467 31.9322 84.2856 33.1072C84.1812 33.8383 84.1812 34.3605 84.3378 34.6738C85.095 35.8227 85.1734 36.8932 84.5728 37.8332C83.9462 38.512 82.8757 38.5382 81.4135 37.8854C79.6119 37.3632 77.993 35.8749 76.5047 33.4727C76.0347 32.6372 75.4342 32.5066 74.677 33.1072C71.4132 35.6138 68.2538 37.1021 65.1989 37.5982C64.3372 37.7287 63.8411 37.7548 63.7367 37.6504C63.7367 37.5198 64.1284 37.2587 64.99 36.8671C67.7055 35.5093 70.4732 33.29 73.3192 30.2873C74.0503 29.4517 74.2853 28.6423 74.0242 27.8329C72.8492 24.1252 72.1443 20.2608 71.9354 16.2398C71.857 15.6132 71.4915 15.2999 70.8648 15.2999H56.7652C56.1125 15.2999 55.773 15.6132 55.773 16.2398V20.9658C55.6947 26.3185 54.833 30.5484 53.162 33.7077C52.5614 34.8305 51.752 35.8749 50.7598 36.8149C50.0287 37.5982 49.4543 37.9898 49.0104 37.9637C48.7754 37.7026 48.8537 37.2326 49.2976 36.5799C50.0287 34.6216 50.5248 32.5327 50.7598 30.2611C51.0731 28.329 51.282 25.4307 51.3865 21.5403V13.446C51.3865 12.5583 51.8042 12.2449 52.6137 12.5321C53.5014 12.8716 54.4153 13.2632 55.303 13.7071C55.9297 14.0204 56.5302 14.1771 57.0785 14.1771H70.8126C71.4393 14.1771 71.7526 13.7332 71.7265 12.8716L71.6482 10.7044C71.6482 10.0517 71.3348 9.71222 70.7082 9.71222H52.0392L50.7859 9.9211C49.9504 10.0778 49.4021 9.76444 49.1671 9.00724L49.0365 8.53725C49.0365 8.53725 49.5065 8.4067 50.2898 8.48503C50.7859 8.51114 51.3342 8.58947 51.9087 8.69391H55.9036C56.5563 8.69391 56.8958 8.38059 56.8958 7.75394V2.37519C56.8958 1.51354 57.2613 1.09577 57.9924 1.12188C60.029 1.22633 61.4912 1.56576 62.379 2.11408C62.6401 2.50574 62.4312 2.84517 61.7784 3.13239C61.4651 3.26294 61.3084 3.6546 61.3084 4.28125V7.72783C61.3084 8.38059 61.6218 8.72002 62.2484 8.72002H64.8856C65.5383 8.72002 65.8778 8.4067 65.8778 7.78005V1.30466H66.0344ZM65.1206 16.6576C65.6428 15.3521 66.3739 15.1954 67.3399 16.2137C68.6716 17.1015 69.6116 17.9631 70.1076 18.7464C70.1076 18.9292 69.6377 19.0336 68.8021 19.0336H66.87C66.2172 19.0336 65.8778 19.347 65.8778 19.9736V25.6135C65.8778 26.4751 66.0866 26.5535 66.5566 25.8485C66.9222 25.1696 67.2355 24.4646 67.4966 23.7596C67.8099 22.7413 68.0449 22.2191 68.2016 22.193C69.011 22.3236 70.0554 22.663 71.2826 23.2113C72.0398 23.6813 72.4315 23.9946 72.4576 24.1252C72.4054 24.4907 72.1965 24.6474 71.857 24.5952C71.5698 24.6474 71.2304 24.9607 70.8648 25.509C67.3922 31.2533 62.7184 34.4649 56.8174 35.1438C56.0341 35.2221 55.5641 35.2482 55.4336 35.2221C55.3814 35.0916 55.3814 34.961 55.4597 34.8305C57.183 34.491 59.0368 33.5772 61.0734 32.115C61.7523 31.6189 62.0917 31.0706 62.0917 30.47V20.052C62.0917 19.3992 61.7784 19.0598 61.1518 19.0598C60.3946 19.0075 59.6113 19.0598 58.8279 19.2164C58.0446 19.3209 57.6007 19.347 57.5224 19.2686L57.2352 18.4331C57.1046 17.9631 57.4441 17.7542 58.2535 17.8065C59.4024 18.0415 60.9951 18.1198 63.0317 18.0415C63.8673 18.172 64.4156 17.9892 64.6506 17.4931L65.0944 16.7098L65.1206 16.6576ZM57.1569 23.6552C57.1569 22.8197 57.6007 22.428 58.4102 22.4802C60.1074 22.663 61.204 23.0024 61.674 23.4985C61.674 23.7857 61.5173 24.0207 61.1257 24.2035C60.7079 24.3602 60.499 24.6474 60.499 25.0391C59.7157 27.2062 58.6713 28.9556 57.3919 30.2873C56.6085 31.0183 56.1386 31.3839 56.008 31.3578C55.8775 31.2533 55.9819 30.7833 56.2952 29.9739C56.8958 27.9634 57.183 25.8746 57.1569 23.6552Z" fill="#6B6B6B"/>
<path d="M55.9526 42.4547C56.0309 42.3242 56.5792 42.5069 57.5714 42.9769C58.3547 43.3425 59.138 43.7602 59.9475 44.2041C60.4436 44.4913 61.018 44.648 61.6446 44.648H74.5171C75.0393 44.648 75.4832 44.2302 75.8226 43.473C76.4754 42.6636 76.867 42.2458 76.9715 42.2197C79.2953 43.1858 80.9403 44.178 81.9063 45.1702C82.3241 45.7185 82.1674 46.2146 81.4364 46.6585C80.3658 47.0241 79.9219 47.729 80.1308 48.7473V77.0772C79.7131 79.5316 78.3553 80.811 76.0576 80.9415C75.2482 80.9937 74.6737 80.6021 74.3604 79.7665C73.7077 78.5916 72.9505 77.8344 72.0627 77.521C71.0444 77.2599 70.4961 77.0249 70.4177 76.8161C70.4961 76.1894 71.0705 76.0327 72.1149 76.3461C73.2377 76.4244 74.0732 76.3461 74.5954 76.1372C75.3526 75.7455 75.6398 75.0928 75.4571 74.1528V66.1108C75.4571 65.458 75.1437 65.1186 74.5171 65.1186H61.0963C60.4697 65.1186 60.078 65.5102 59.9475 66.2936C59.6863 68.2257 59.2164 70.184 58.5375 72.2206C57.232 75.9283 54.5948 78.6438 50.6521 80.3932C49.8166 80.6282 49.3466 80.7065 49.2422 80.6021C49.1377 80.4193 49.5555 79.8971 50.5477 79.0616C53.3937 75.6411 55.0126 71.4373 55.4565 66.4241C55.6915 61.4892 55.8481 56.711 55.9003 52.0895V43.9169C55.9003 43.1336 55.9526 42.6375 56.0309 42.4547H55.9526ZM75.4571 56.4499C75.4571 55.7972 75.1437 55.4577 74.5171 55.4577H61.5402C60.8874 55.4577 60.548 55.771 60.548 56.3977C60.5219 58.591 60.4436 60.8104 60.313 63.0559C60.2869 63.6825 60.6002 63.9958 61.2269 63.9958H74.491C75.1437 63.9958 75.4832 63.6825 75.4832 63.0559V56.4238L75.4571 56.4499ZM75.4571 46.8152C75.4571 46.058 75.1176 45.6663 74.4649 45.6663H61.5141C60.8613 45.6663 60.5219 46.0057 60.5219 46.6585V53.4472C60.5219 54.1 60.8352 54.4394 61.4619 54.4394H74.4388C75.0915 54.4394 75.431 54.1261 75.431 53.4994V46.8413L75.4571 46.8152Z" fill="#6B6B6B"/>
<path d="M48.3545 96.1644C48.6678 95.9294 49.2423 95.9555 50.1039 96.2428C51.4617 96.6344 52.5322 97.1044 53.2633 97.6266C55.0388 99.0366 55.2738 100.682 53.9421 102.509C53.5505 102.901 53.1066 103.11 52.6105 103.11C50.7567 103.084 49.8689 101.909 49.9995 99.5849C49.8689 98.8538 49.6339 98.1749 49.2945 97.5222C48.6417 96.6866 48.3284 96.2166 48.3806 96.1383L48.3545 96.1644ZM58.642 97.0783C58.7987 96.3472 59.112 96.1383 59.582 96.4516C59.6342 96.5822 59.4776 97.1566 59.1381 98.1488L55.0388 110.786C54.5166 112.588 54.621 114.546 55.4043 116.661C56.2399 118.306 56.2921 120.029 55.561 121.831C55.091 122.667 54.3599 123.084 53.3416 123.084C52.4539 123.163 51.775 122.667 51.2789 121.622C50.8872 120.708 50.8089 119.585 51.0439 118.28C51.3311 117.157 51.3833 115.747 51.1744 114.102C51.07 113.293 50.4956 112.588 49.425 112.013C48.6678 111.491 48.3023 111.178 48.3545 111.073C48.459 110.995 48.9028 110.943 49.6861 110.943L50.5478 110.865C51.2006 110.734 51.7489 110.264 52.1666 109.455C54.2816 105.355 56.4226 101.23 58.5898 97.1044L58.642 97.0783ZM50.6 86.0597C50.6522 85.8769 51.1222 85.7725 51.9839 85.7725C53.0805 85.8769 54.151 86.1641 55.1432 86.608C57.4932 87.9396 58.1982 89.6629 57.2843 91.7518C56.5271 92.8223 55.5088 93.1356 54.2555 92.6656C53.4722 92.0129 53.0544 91.2557 53.0022 90.3679C52.8194 89.1668 52.3755 88.0963 51.6705 87.2085C50.9917 86.5819 50.6522 86.1902 50.6522 86.0597H50.6ZM63.5508 97.1305C63.6291 96.3211 64.0469 96.0339 64.8041 96.295C65.6918 96.6605 66.5796 97.0783 67.4935 97.5222C68.0679 97.8355 68.6684 97.9921 69.269 97.9921C70.5484 97.9921 71.8539 97.9922 73.1333 97.9138C73.2639 97.8616 73.4728 97.7049 73.7339 97.4699C74.6477 96.8172 75.5355 96.6866 76.3449 97.0783C76.7888 97.3133 77.2327 97.6005 77.6765 97.9399C78.4076 98.5405 78.6948 99.0627 78.5382 99.4804C78.2249 99.9765 78.0682 100.525 78.0682 101.099V116.661C78.251 117.497 78.7471 118.019 79.5826 118.202C80.1831 118.202 80.7837 118.202 81.4103 118.123C81.8803 118.123 82.2981 117.706 82.6636 116.896C83.1858 115.852 83.6558 114.781 84.0475 113.737C84.0475 113.345 84.2564 113.11 84.6741 113.058C84.8047 113.162 84.8569 113.606 84.8308 114.39L84.7525 117.027C84.8308 117.366 84.9353 117.627 85.0658 117.81C86.0319 118.437 86.3974 119.194 86.1363 120.055C85.8491 121.257 84.9875 121.962 83.5775 122.118C82.6636 122.353 80.9403 122.405 78.4599 122.223C75.7705 122.379 74.2561 121.074 73.9166 118.306V99.9504C73.9166 99.2977 73.6033 98.9582 72.9767 98.9582H68.9557C68.3029 98.9582 67.9635 99.2716 67.9635 99.8982V105.042C67.8851 107.157 67.5979 109.246 67.1018 111.361C66.0052 116.374 62.9503 120.055 57.937 122.379C57.1276 122.719 56.6576 122.875 56.5532 122.823C56.2399 122.458 56.6054 121.935 57.6498 121.283C60.6264 118.698 62.3758 115.486 62.9503 111.648C63.3158 109.742 63.5247 107.653 63.5769 105.329V97.0783L63.5508 97.1305ZM62.7153 87.0258C62.7936 86.0597 63.0808 86.0336 63.5769 86.9735C63.8119 87.7046 64.3341 88.0963 65.1174 88.1485H77.5982C78.2771 88.3574 78.8515 88.1485 79.3476 87.548C80.2876 86.8169 81.1753 86.608 81.9587 86.9213C82.7942 87.3391 83.6558 87.8613 84.4914 88.4618C85.2486 89.0624 85.6663 89.4801 85.7447 89.689C85.6925 90.2112 85.3791 90.4462 84.8047 90.3679C84.5175 90.4201 84.2564 90.5507 84.0214 90.7334C82.8725 91.7779 81.0187 93.2139 78.486 95.0417C78.1726 95.2767 77.9115 95.4072 77.7027 95.4333C77.4677 95.4594 77.311 95.3811 77.2327 95.1983C77.2066 95.0156 77.4415 94.4411 77.9376 93.4489C78.4076 92.4306 78.8254 91.3862 79.1648 90.3418C79.3998 89.6107 79.2432 89.2452 78.6948 89.2452H65.3524C64.5691 89.3757 64.1774 89.8457 64.2036 90.629C64.2558 91.6995 64.0991 92.7962 63.7336 93.8667C63.3158 94.9633 62.5325 95.6161 61.4097 95.7728C60.0259 95.9033 59.2165 95.1983 59.0076 93.6317C58.9554 92.5873 59.4776 91.6995 60.6003 90.9945C61.6708 90.0024 62.4019 88.6707 62.7675 87.0519L62.7153 87.0258Z" fill="#6B6B6B"/>
<path d="M57.0789 129.037C57.0789 128.124 57.4967 127.836 58.3061 128.176C59.7944 128.985 60.8911 129.351 61.5438 129.246H66.1915C66.8704 129.534 67.6015 129.09 68.4109 127.915C69.5858 128.019 70.9436 128.646 72.4841 129.821C73.2152 130.395 73.0324 130.943 71.8836 131.44C71.7791 131.622 71.7269 132.04 71.7269 132.667V136.688C71.8836 138.646 70.9436 139.482 68.9331 139.247C68.202 139.247 67.7842 138.829 67.7059 138.019C67.6798 137.393 67.3403 137.079 66.7137 137.079H62.0921C61.4655 137.079 61.1261 137.471 61.0738 138.254C61.0738 139.978 61.0216 141.675 60.9172 143.398C60.865 144.077 60.9694 144.416 61.2305 144.416C61.5699 144.416 61.7527 144.103 61.7527 143.476V140.552C61.7527 139.743 62.1705 139.351 62.9799 139.403C63.3193 139.403 63.711 139.455 64.1288 139.534C65.121 139.717 65.6693 139.899 65.7476 140.056C65.7476 140.213 65.6693 140.422 65.4343 140.683C65.1732 140.944 65.0426 141.388 65.0426 142.014V143.424C65.0426 144.077 65.3037 144.416 65.8259 144.416C66.3481 144.416 66.6615 144.103 66.6615 143.476V140.865C66.6615 140.082 67.0531 139.69 67.8364 139.69C68.2281 139.69 68.6198 139.717 69.0114 139.795C70.0036 140.004 70.5258 140.213 70.578 140.422C70.578 140.604 70.4997 140.813 70.2647 141.048C70.0036 141.257 69.8731 141.727 69.8731 142.432C69.8731 143.215 70.2125 143.163 70.8914 142.275C71.1264 141.832 71.4397 141.701 71.8052 141.91C71.9619 142.014 72.1708 141.649 72.4319 140.839C72.9541 138.855 73.2413 136.583 73.2674 133.998V129.194C73.2674 128.411 73.3196 127.967 73.4241 127.889C74.103 128.071 74.834 128.359 75.5912 128.724C77.0534 129.612 78.124 129.56 78.7767 128.567C79.3773 128.15 80.1084 128.124 80.9961 128.541C81.5183 128.829 82.0405 129.168 82.5627 129.56C83.2677 130.108 83.2938 130.552 82.6411 130.891C82.38 131.074 82.2494 131.492 82.2494 132.118V138.594C82.2494 139.325 82.38 139.69 82.6411 139.69C83.346 139.534 83.816 138.959 84.0249 137.941C84.286 137.158 84.4688 136.714 84.5732 136.609C84.7038 136.609 84.8343 136.662 84.9649 136.766C85.1738 138.124 85.5393 139.09 86.0615 139.638C86.8187 140.056 87.106 140.709 86.9232 141.57C86.6621 142.38 85.9832 142.902 84.9127 143.111C83.5288 143.372 82.4061 143.476 81.5444 143.424C79.7167 143.476 78.7245 142.484 78.5156 140.474V131.387C78.5156 130.761 78.2806 130.421 77.8106 130.395C77.3406 130.5 77.1057 130.865 77.1057 131.492C77.2623 134.259 76.8445 136.818 75.8785 139.194C75.4607 140.291 74.7818 141.309 73.868 142.197C73.2674 142.745 73.2413 143.424 73.7896 144.208C74.103 144.495 74.1552 144.834 73.9463 145.226C73.8157 145.33 73.3458 145.383 72.5624 145.383H70.813C70.1603 145.383 69.8208 145.696 69.8208 146.323V151.727C69.8208 152.354 69.8992 152.693 70.0558 152.72C70.4214 152.824 70.813 152.511 71.2047 151.78C71.5441 151.179 72.0141 150.631 72.5885 150.135C72.7191 150.135 73.1108 150.37 73.7374 150.84C74.3641 151.571 74.6513 151.466 74.5729 150.526C74.4946 149.926 74.4424 149.325 74.4424 148.699C74.4424 148.124 73.9724 147.863 73.1108 147.941C72.2752 148.046 71.7791 147.837 71.6486 147.341C71.518 146.766 71.8575 146.479 72.6408 146.505C73.0846 146.505 73.633 146.61 74.3118 146.714H78.8812C79.5078 146.714 80.0822 146.505 80.6306 146.088C81.1528 145.644 81.4661 145.409 81.5705 145.383C83.4766 145.722 84.9127 146.375 85.8788 147.367C86.0093 147.706 85.8265 148.02 85.3565 148.281C84.7821 148.464 84.4688 148.907 84.4166 149.612C83.8422 152.25 82.7977 154.626 81.3094 156.714C80.7611 157.472 80.8656 158.229 81.675 159.012C83.0066 160.083 84.2077 160.866 85.2782 161.31C86.0876 161.623 86.5315 161.832 86.6099 161.937C86.6099 162.198 86.3487 162.328 85.7743 162.302C84.5732 162.459 83.5288 163.033 82.6672 164.052C82.1189 164.835 81.44 164.965 80.6567 164.443C79.5078 163.451 78.7245 162.642 78.3328 162.067C77.7845 161.284 77.1057 161.179 76.3223 161.78C73.398 163.764 70.7086 165.044 68.2281 165.644C68.0975 165.566 68.0192 165.461 68.0192 165.331L71.3614 163.19C72.8758 162.145 74.2596 160.918 75.539 159.561C76.1135 158.934 76.2701 158.229 75.9829 157.419C75.6696 156.558 75.4085 155.67 75.1996 154.782C75.0951 154.103 74.7557 153.764 74.1813 153.764H60.16C59.5333 153.764 59.0633 154.156 58.75 154.939C58.0711 156.767 57.1312 158.412 55.904 159.926C55.3557 160.553 55.0684 161.179 55.0684 161.832C55.0423 162.85 54.8596 163.686 54.5462 164.313C53.5279 165.749 52.2746 165.931 50.8385 164.861C49.8725 163.242 49.6375 161.336 50.1597 159.143C50.3163 157.733 50.2902 156.479 50.0552 155.383C50.0291 154.704 49.8463 154.182 49.533 153.79C48.593 152.928 48.1492 152.406 48.2014 152.25C48.2797 152.119 48.7497 152.015 49.6114 151.962C49.8986 151.884 50.1336 151.753 50.3163 151.518L56.4001 138.881C56.7656 138.176 57.0006 137.628 57.0789 137.262V128.985V129.037ZM48.3058 137.158C48.3058 137.158 48.9586 137.132 49.9769 137.445C53.5801 139.247 54.3896 141.362 52.4313 143.79C51.1519 144.573 50.0813 144.286 49.2458 142.876C49.0891 142.484 49.0369 141.884 49.0891 141.1C49.2458 140.134 49.1936 139.351 48.9586 138.803C48.4625 137.811 48.2536 137.262 48.3319 137.132L48.3058 137.158ZM49.063 127.758C49.063 127.758 49.6636 127.601 50.4469 127.627C51.3346 127.706 52.3007 127.941 53.2929 128.332C55.1207 129.194 55.9301 130.5 55.7473 132.197C55.6429 132.85 55.3818 133.372 54.964 133.737C53.0579 134.912 51.8307 134.338 51.2041 131.962C51.178 131.048 50.7863 130.082 50.0552 129.09C49.3241 128.332 48.9847 127.889 49.063 127.758ZM57.0006 141.701C57.0006 141.127 56.8439 141.205 56.5306 141.988C55.6429 144.991 54.7812 147.994 53.9718 150.996C53.1102 153.451 53.2407 155.931 54.4157 158.49C54.6246 159.117 54.8596 159.038 55.1207 158.255C56.3217 153.686 56.9223 149.221 56.8962 144.886C56.8962 143.842 56.9223 142.771 57.0006 141.727V141.701ZM60.0816 157.341C60.3689 156.349 60.9172 155.931 61.7005 156.114C62.6144 156.427 63.5543 156.793 64.4682 157.211C64.9382 157.498 65.1993 157.785 65.2515 158.072C65.1732 158.412 64.886 158.594 64.416 158.621C64.1549 158.621 63.711 159.064 63.1105 159.848C61.0999 162.328 59.0633 164.104 56.9484 165.226C56.0345 165.644 55.5906 165.749 55.6168 165.54C55.7212 165.331 56.0084 164.965 56.4523 164.443C58.0189 162.485 59.2461 160.135 60.0816 157.341ZM61.7266 146.427C61.7266 145.748 61.5699 145.409 61.2566 145.409C60.9172 145.409 60.6822 145.8 60.5777 146.584C60.3689 148.255 60.0816 149.952 59.7422 151.675C59.5855 152.38 59.8466 152.746 60.5255 152.746C61.3088 152.746 61.7005 152.432 61.7005 151.806V146.427H61.7266ZM67.6537 131.361C67.6537 130.63 67.3403 130.265 66.7137 130.265H62.4577C61.3349 130.003 60.865 130.369 61.1261 131.361V135.043C61.1261 135.696 61.4394 136.035 62.066 136.035H66.6876C67.3403 136.035 67.6798 135.722 67.6798 135.095V131.387L67.6537 131.361ZM66.6354 146.427C66.6354 145.748 66.3743 145.409 65.8782 145.409C65.3037 145.409 65.0165 145.722 65.0165 146.349V151.753C65.0165 152.406 65.2776 152.746 65.7998 152.746C66.322 152.746 66.6354 152.432 66.6354 151.806V146.427ZM66.9487 156.192C66.9487 156.192 67.497 156.062 68.2803 156.088C69.2464 156.192 70.1864 156.479 71.048 156.923C73.1369 158.02 73.633 159.613 72.5363 161.649C72.1708 162.145 71.5963 162.38 70.8391 162.354C70.0297 162.407 69.4292 161.989 69.0114 161.127C68.8286 160.762 68.6981 160.239 68.6198 159.561C68.4892 158.829 68.202 158.151 67.7581 157.498C67.1054 156.741 66.8181 156.297 66.9226 156.192H66.9487ZM80.5522 148.803C80.5522 148.124 80.265 147.785 79.6123 147.785H76.3484C75.6957 147.785 75.4868 148.202 75.7479 149.012C76.2701 150.918 76.949 152.615 77.8106 154.103C78.2806 154.861 78.6984 154.835 79.0639 154.025C79.7689 152.458 80.265 150.709 80.5783 148.803H80.5522Z" fill="#6B6B6B"/>
<path d="M11.9329 31.828C11.6457 30.9664 11.5935 30.4964 11.8285 30.4442C12.8729 30.4964 13.8912 30.8358 14.8573 31.4364C16.2934 32.4808 16.6067 33.7602 15.7712 35.2746C15.5884 35.5618 15.7973 35.7185 16.45 35.7185H20.471C21.0977 35.7185 21.5416 35.3268 21.8027 34.5435C22.0116 33.7341 22.1682 32.9246 22.2727 32.0891C22.3249 31.2275 22.7688 30.8358 23.5782 30.9403C24.4659 31.123 25.3798 31.358 26.2676 31.6191C27.0509 32.0369 27.4686 32.3241 27.4948 32.4547C27.4948 32.8463 27.2859 33.0813 26.8159 33.1596C26.5026 33.2641 26.2415 33.4207 26.0326 33.6035C25.6148 34.0474 25.1709 34.4391 24.7271 34.7785C24.0221 35.3007 23.7087 35.5879 23.7871 35.6401C25.2493 35.7185 26.7637 35.7446 28.3303 35.7185C28.9831 35.7185 29.6097 35.3268 30.2364 34.5696L31.098 33.473C31.8291 32.7158 32.3252 32.3502 32.5602 32.3763C33.6568 33.003 34.7274 33.8385 35.7196 34.909C36.4768 35.849 36.8162 36.3973 36.7379 36.5279C36.6073 36.6846 36.1373 36.7629 35.3279 36.7629H3.99536L2.74206 36.9979C1.90652 37.1284 1.38431 36.9195 1.20154 36.3973C1.04488 35.7446 1.43653 35.4574 2.37651 35.5357C2.8465 35.5357 3.36871 35.6401 3.91703 35.7446H11.9329C12.5596 35.7446 12.7946 35.614 12.6118 35.3529C12.2463 34.909 12.0896 34.3607 12.1418 33.708C12.2201 33.0552 12.1418 32.4547 11.9329 31.8802V31.828ZM16.7373 1.59211C16.7373 0.756579 17.1028 0.338812 17.8339 0.364922C18.7478 0.364922 19.74 0.547695 20.7583 0.8088C21.3588 0.887131 21.7505 1.12212 21.9332 1.51378C21.9332 1.82711 21.7243 2.0621 21.3066 2.19265C20.9933 2.32321 20.8366 2.71486 20.8366 3.34151V14.6734C20.8366 15.3262 21.1499 15.6656 21.7766 15.6656H29.8186C30.4713 15.6656 30.8108 15.3523 30.8108 14.7257V13.7335C30.8108 13.0807 30.4975 12.7413 29.8708 12.7413H28.1736C27.5209 12.7413 27.1814 12.924 27.1814 13.2635C27.2075 14.4385 26.5026 14.9607 25.0404 14.804C24.1787 14.6473 23.7871 14.1773 23.8915 13.394C23.8915 13.1068 23.5521 12.9763 22.8993 13.0024C22.2205 13.0807 21.7766 12.8718 21.5938 12.3757C21.4894 11.8274 21.4894 11.5141 21.5938 11.4619L22.9254 11.5402C23.5521 11.5924 23.8654 11.2269 23.8654 10.4697C23.8654 9.71246 23.5782 9.34692 23.0299 9.37303C22.351 9.45136 21.9332 9.24247 21.7766 8.74638C21.6721 8.14583 21.9855 7.85862 22.6904 7.91084C23.4737 7.98917 23.8654 7.64974 23.8654 6.89253C23.8654 6.13533 23.5521 5.71756 22.9254 5.74367C22.2988 5.82201 21.9071 5.58701 21.7505 5.0648C21.6721 4.51648 21.9855 4.25538 22.6904 4.28149C23.4737 4.35982 23.8654 4.09872 23.8654 3.49818V2.42765C23.8654 1.59211 24.2832 1.20046 25.0926 1.25268C25.902 1.35712 26.7637 1.51378 27.6514 1.69655C28.1997 1.98377 28.1997 2.32321 27.5992 2.71486C27.2859 3.08041 27.1292 3.47207 27.1292 3.86372C27.1292 4.33371 27.4425 4.25538 28.0431 3.57651C28.6175 2.92375 28.9831 2.58431 29.1136 2.5582C29.2442 2.61042 29.5836 2.89764 30.1058 3.41984C30.5497 4.02038 30.7847 3.94205 30.7847 3.13263V2.0621C30.7847 1.22657 31.2024 0.83491 32.0119 0.913242C33.7613 1.09601 34.9623 1.38323 35.6934 1.77489C35.7718 1.90544 35.6934 2.19265 35.4062 2.61042C34.9885 3.13263 34.7796 3.68095 34.7796 4.22927V15.274C35.0929 16.6056 34.5707 17.4412 33.2129 17.7284C32.4557 17.8589 31.6985 17.6239 30.9674 17.0495C30.8108 16.8145 30.4452 16.684 29.8708 16.684H7.78137C7.15472 16.684 6.81529 16.8145 6.76306 17.0756C6.47585 18.0678 5.66643 18.4856 4.30868 18.3289C3.00316 18.1722 2.45484 17.4412 2.74206 16.1617V2.00988C2.74206 1.17435 3.15982 0.782689 3.96925 0.861021C5.71865 1.04379 6.91973 1.33101 7.65082 1.72267C7.72915 1.85322 7.62471 2.14043 7.33749 2.5582C6.94584 3.08041 6.73695 3.62873 6.73695 4.17705V14.6473C6.73695 15.3001 7.05028 15.6395 7.67693 15.6395H15.7712C16.4239 15.6395 16.7634 15.3262 16.7634 14.6996V13.7074C16.7634 13.159 16.4239 12.8718 15.7451 12.8718H13.9957C13.369 12.8718 13.0296 13.0807 13.0035 13.4985C12.7685 14.7518 11.8024 15.0912 10.1313 14.4907C9.8441 14.2818 9.71354 13.9162 9.73966 13.4201C9.73966 13.159 9.40022 13.0546 8.72135 13.1068C8.06859 13.1852 7.65082 12.9502 7.46805 12.4279C7.33749 11.8796 7.67693 11.6185 8.46024 11.6446L8.82579 11.6969C9.45244 11.723 9.76577 11.3574 9.76577 10.6002C9.76577 9.84301 9.42633 9.47747 8.74746 9.50358C8.06859 9.58191 7.65082 9.34692 7.49416 8.82471C7.38971 8.3025 7.75526 8.04139 8.56469 8.04139C9.37411 8.09361 9.79188 7.75418 9.79188 7.0492C9.79188 6.34421 9.45244 6.00478 8.77357 6.03089C8.0947 6.10922 7.67693 5.87423 7.52027 5.35202C7.41583 4.82981 7.41583 4.54259 7.52027 4.49037C7.96415 4.49037 8.40802 4.54259 8.8519 4.62092C9.47855 4.62092 9.79188 4.33371 9.79188 3.70706V2.40154C9.79188 1.566 10.2096 1.17435 11.0191 1.22657C11.3585 1.25268 11.7502 1.33101 12.1679 1.43545C13.1601 1.59211 13.7346 1.74878 13.8651 1.90544C13.9434 2.08821 13.839 2.34932 13.5518 2.68875C13.2385 3.0543 13.0818 3.49818 13.0818 3.99427C13.0818 4.49037 13.3951 4.43815 14.0218 3.83761C14.6223 3.18485 15.014 2.87153 15.1706 2.89764C15.3534 3.00208 15.6145 3.28929 15.9278 3.75928C16.5284 4.64704 16.8417 4.75148 16.8417 4.07261V1.61822L16.7373 1.59211ZM29.2442 17.65C29.5053 17.0234 29.9491 16.8667 30.5497 17.2062C31.9596 17.9634 33.3435 19.06 34.649 20.4439C34.7012 20.9138 34.2313 21.0705 33.2391 20.9138H5.48365L4.25646 21.0705C3.44704 21.1227 2.95094 20.8877 2.79428 20.3655C2.63761 19.8172 2.97705 19.5822 3.81258 19.6605C4.30868 19.6867 4.857 19.765 5.43143 19.8694H26.7898C27.547 20.0783 28.0692 19.8694 28.3303 19.2428C28.5914 18.7206 28.9047 18.1984 29.2442 17.6761V17.65ZM6.99806 23.6554C6.99806 22.8199 7.38972 22.4805 8.17303 22.6632C8.8519 22.8721 9.53077 23.1332 10.2358 23.4466C10.4969 23.6032 10.9407 23.6815 11.5674 23.6815H25.8237C26.4503 23.6815 26.9725 23.4204 27.3903 22.8982C27.8342 22.4544 28.487 22.376 29.3225 22.6894C30.158 23.0549 31.0719 23.5771 32.038 24.256C32.6907 24.8304 32.4819 25.3526 31.3591 25.8226C31.2547 26.0054 31.2024 26.4231 31.2024 27.0498C31.2286 28.0681 31.2024 29.1386 31.1241 30.2353C30.393 31.123 29.3486 31.4364 28.017 31.1752C27.5209 30.9925 27.2337 30.653 27.1814 30.1831C27.1292 29.9742 26.8159 29.8697 26.2415 29.8697H11.9852C11.3585 29.8697 10.9668 30.0786 10.8363 30.4703C10.1313 31.4102 9.06078 31.7497 7.65082 31.4625C7.05028 31.2797 6.81529 30.6791 6.97195 29.687V23.6032L6.99806 23.6554ZM12.194 24.6999C11.4107 24.8043 11.0191 25.1698 11.0191 25.7965V27.8853C11.0191 28.5381 11.3324 28.8775 11.959 28.8775H26.2153C26.8681 28.8775 27.2075 28.5642 27.2075 27.9376V25.7704C27.2075 25.0654 26.8681 24.6999 26.1892 24.6999H12.2201H12.194ZM16.7373 6.5531C16.7373 5.84812 16.6589 5.5609 16.5284 5.69145C15.6928 5.76978 14.8312 5.7959 13.9695 5.76978C13.3168 5.76978 12.9773 6.16144 12.9773 6.94476C12.9773 7.72807 13.0557 8.14584 13.1862 8.17195C13.3429 8.17195 13.7346 7.83251 14.3612 7.15364C14.9617 6.50088 15.5362 6.42255 16.0584 6.91864C16.5023 7.5453 16.7373 7.44085 16.7373 6.5531ZM16.7373 10.3391C16.7373 9.60802 16.4239 9.24247 15.8234 9.24247H13.9695C13.3168 9.24247 12.9773 9.66024 12.9773 10.4958C12.9773 11.3313 13.0296 11.7752 13.134 11.8274C13.2646 11.8013 13.6301 11.4358 14.2045 10.7569C14.8051 9.47747 15.5101 9.60802 16.3456 11.1485C16.45 11.4096 16.5545 11.5141 16.6589 11.4619C16.7111 11.3574 16.7373 10.9658 16.7373 10.313V10.3391ZM30.8369 6.23977C30.8369 5.71756 30.4975 5.45646 29.8186 5.45646H28.1997C27.547 5.45646 27.2075 5.87423 27.2075 6.68365C27.2075 7.57141 27.4948 7.70196 28.0431 7.07531C28.6175 6.44866 28.9831 6.13533 29.1136 6.13533C29.2703 6.23977 29.5575 6.5531 29.9753 7.07531C30.5497 7.91084 30.8369 7.98917 30.8369 7.3103V6.23977ZM30.8369 9.94746C30.8369 9.19025 30.7847 8.85082 30.6802 8.95526C30.5497 9.03359 30.0797 9.08581 29.2964 9.08581H28.1997C27.547 9.08581 27.2075 9.39914 27.2075 10.0258V10.783C27.2075 11.5402 27.5731 11.5402 28.3042 10.7308C28.9308 10.0258 29.2964 9.68635 29.4008 9.71246C29.9491 10.1041 30.3669 10.548 30.628 11.0441C30.7586 11.0702 30.8369 10.7047 30.8369 9.94746Z" fill="#6B6B6B"/>
<path d="M17.2828 43.9167C17.2828 43.1334 17.6744 42.7417 18.4577 42.7678C20.0244 42.8723 21.4082 43.1334 22.5571 43.5511C23.0532 43.995 22.9226 44.4128 22.1654 44.7783C21.8521 44.9089 21.6954 45.3005 21.6954 45.9533V47.1022C21.6954 47.7549 22.0088 48.0944 22.6354 48.0944H30.1813C30.9124 48.251 31.4869 48.0421 31.9307 47.4938C32.8185 46.3711 33.7846 46.2405 34.7768 47.1022C36.5262 48.0683 37.675 48.956 38.2234 49.7132C38.3539 50.1049 38.1189 50.3399 37.5445 50.4182C36.8917 50.4182 36.239 50.7054 35.5601 51.3321C33.8107 52.5854 32.2441 53.6037 30.8341 54.3348C30.3641 54.5697 30.103 54.5175 30.0769 54.1259C30.0769 53.8648 30.2858 53.3948 30.6774 52.742C31.0691 51.8804 31.4085 50.9926 31.6957 50.1049C31.8524 49.4782 31.6174 49.1649 30.9908 49.1649L7.41303 49.2171C6.62972 49.2693 6.15973 49.6871 6.00307 50.4704C5.74196 51.8543 5.37642 52.8987 4.93254 53.5776C3.75757 54.9353 2.47816 55.1442 1.0943 54.2042C0.258769 53.4731 0.206548 52.4026 0.989861 51.0448C1.43374 50.4443 1.92984 50.0526 2.47816 49.8699C3.99256 48.6427 4.95865 47.1544 5.35031 45.405C5.48086 45.3528 5.61141 45.405 5.71585 45.4833C5.89862 46.0055 6.02918 46.5277 6.0814 47.0499C6.15973 47.6766 6.60361 48.016 7.41303 48.0682H16.2906C16.9433 48.0682 17.2828 47.7549 17.2828 47.1283V43.8906V43.9167ZM12.4262 51.0448C12.7135 50.1571 13.2357 49.7654 13.9668 49.896C14.8545 50.0526 15.7945 50.3137 16.7606 50.6793C17.3872 50.836 17.7528 51.1493 17.8572 51.6193C17.7005 51.9848 17.4917 52.1415 17.2306 52.0893C16.9695 52.1415 16.63 52.4548 16.2122 53.0031C15.8728 53.6037 16.0034 53.917 16.6561 53.917H21.826C22.7137 54.152 23.5232 53.7081 24.2282 52.5854C24.5937 52.2198 24.907 52.0631 25.1681 52.1415C26.6564 53.0292 27.8575 54.152 28.7714 55.5097C28.7714 56.1103 28.458 56.4236 27.7531 56.4236C27.2047 56.4236 26.7609 56.7891 26.4475 57.5202C25.5859 58.9824 24.6198 60.3141 23.5754 61.4629C22.8965 62.2462 22.9226 62.8207 23.7059 63.2123C27.9881 64.7789 32.6096 65.5884 37.5706 65.6145C37.7273 65.745 37.8056 65.8756 37.8056 65.98C37.7273 66.1106 37.2834 66.3978 36.5001 66.8155C35.6906 67.4161 35.1423 68.0427 34.8551 68.6694C34.5418 69.531 34.3329 70.001 34.2546 70.0794C33.9412 70.1838 33.3668 70.1316 32.5052 69.9488L31.9568 69.8705C31.1996 69.766 30.9385 69.8705 31.1735 70.236C31.5652 70.6277 31.4869 71.0193 30.9385 71.411C30.2858 71.646 30.0508 72.1682 30.2336 72.9515V78.278C30.5991 79.7402 29.9202 80.6019 28.1708 80.8108C26.9436 81.1502 26.1864 80.7585 25.9253 79.6619C25.8992 79.0091 25.5598 78.6697 24.9331 78.6697H14.9851C14.3584 78.6697 14.019 78.8264 13.9929 79.1136C13.8884 80.4191 13.0007 81.1241 11.3035 81.1763C9.89352 81.2546 9.31909 80.5496 9.60631 79.0875V70.6016C9.60631 69.9749 9.21465 69.6877 8.43134 69.7399C4.77588 70.2621 2.21705 70.471 0.780978 70.3666C0.650426 70.2621 0.598205 70.1316 0.624315 70.001C4.54088 69.2699 8.03968 68.1733 11.1207 66.7372C13.2357 65.6667 14.8023 64.6745 15.8467 63.8129C16.6822 63.1079 16.7867 62.3768 16.1339 61.6457C14.9328 60.1052 14.0712 58.8519 13.6012 57.938C13.2879 57.2852 12.7396 57.2852 11.9562 57.9902C9.89352 59.6874 7.90913 60.8885 5.95085 61.6718C4.90643 62.0112 4.41033 62.0896 4.46255 61.8807C8.79688 58.3297 11.4863 54.7264 12.4785 51.0971L12.4262 51.0448ZM21.0427 65.8495C20.181 65.275 19.3716 65.2228 18.5883 65.7189C17.1 66.6589 15.4289 67.5205 13.5751 68.2777C12.9223 68.5388 12.8179 68.7738 13.2618 68.9827C13.7579 69.2699 14.3323 69.4266 14.9589 69.4266H24.3587C24.9854 69.4266 25.4815 69.2438 25.8209 68.9044C26.1081 68.5388 25.8209 68.1733 24.9854 67.8077C23.9409 67.3639 22.8704 66.8417 21.826 66.2672L21.0427 65.8234V65.8495ZM25.847 71.5415C25.847 70.8366 25.5076 70.471 24.8287 70.471H15.0112C14.3323 70.471 13.9929 70.8105 13.9929 71.4632V76.6331C13.9929 77.2858 14.3062 77.6253 14.9328 77.6253H24.8809C25.5337 77.6253 25.8731 77.312 25.8731 76.6853V71.5415H25.847ZM15.4028 54.9875C15.0112 55.092 14.6717 55.2747 14.3845 55.5358C14.0973 55.8492 14.254 56.3975 14.8545 57.1547C15.8728 58.3035 16.9172 59.2696 17.9355 60.0007C18.6405 60.5229 19.3194 60.4446 19.9983 59.7135C21.2255 58.1991 22.1654 56.6847 22.7921 55.1703C22.766 55.0397 22.4265 54.9614 21.7999 54.9614H15.4028V54.9875Z" fill="#6B6B6B"/>
<path d="M20.6806 86.5552C20.8111 85.7718 21.2811 85.4063 22.0905 85.4585C23.6833 85.6674 25.1977 86.1896 26.6599 87.0251C26.9993 87.6779 26.7904 88.0957 25.981 88.2523C25.5371 88.2001 25.1977 88.5395 24.9627 89.2445L23.1872 93.4222C22.9522 94.0488 23.135 94.3622 23.7877 94.3622H29.7931C30.6548 94.6755 31.4381 94.2055 32.1169 92.9783C32.7436 91.96 33.5008 91.8817 34.3624 92.7694C35.5635 93.4483 36.6341 94.1272 37.5218 94.8322C38.2529 95.6416 37.9918 96.2943 36.7385 96.8166C36.2946 97.1299 36.1118 97.6782 36.2163 98.4354C36.2946 106.947 35.6941 113.553 34.3886 118.253C33.4486 121.517 31.4381 123.319 28.3832 123.632C27.5476 123.632 27.0776 123.266 26.9732 122.457C26.7643 121.282 25.9288 120.238 24.4927 119.376C23.6049 119.141 23.1872 118.749 23.2655 118.201C23.3699 118.097 23.8138 118.044 24.5971 118.044C26.8165 118.227 28.4093 118.149 29.3754 117.809C29.8192 117.47 30.1326 116.922 30.2892 116.164C31.0464 113.083 31.4903 108.436 31.6208 102.221V96.6599C31.5686 95.8505 31.177 95.4327 30.472 95.4327H23.1611L22.2472 95.5894C20.6022 98.4876 18.7745 100.759 16.7901 102.378C15.9807 102.979 15.5629 103.605 15.5629 104.232V118.984C15.0668 120.342 13.8919 120.838 12.0641 120.447C11.3069 120.107 11.0197 119.507 11.2286 118.619C11.2286 117.888 10.9153 117.522 10.2886 117.522H6.65926C6.0065 117.522 5.66707 117.862 5.66707 118.54C5.82373 120.264 5.14486 121.23 3.60434 121.465C1.85494 121.752 1.09774 120.995 1.28051 119.167V93.9444C1.28051 93.0828 1.69828 92.7433 2.5077 92.9261C3.02991 93.0567 3.91767 93.4222 5.19708 93.9966C5.84984 94.31 6.26761 94.1272 6.42427 93.4483C6.84204 91.7511 6.9987 89.6101 6.89426 86.9729C6.7376 85.7718 7.20758 85.4063 8.30422 85.9024C9.34864 86.0591 10.4192 86.2679 11.4636 86.529C12.1163 86.6857 12.4558 86.9729 12.4819 87.3646C12.3775 87.7562 12.1686 87.9651 11.8552 87.9651C11.5419 87.9651 11.2808 88.2001 11.098 88.7223C10.0797 90.6806 9.0092 92.2472 7.91257 93.4483C7.31203 94.075 7.31203 94.3883 7.96479 94.3883L10.1842 94.3361C10.6542 93.9444 11.0719 93.5005 11.4375 93.0044C11.8814 92.2472 12.6647 92.2211 13.7613 92.9261C15.4846 93.5527 16.5551 94.3883 17.0251 95.4588C16.9468 95.746 16.5029 96.0594 15.7196 96.3727C15.6151 96.5293 15.5629 96.921 15.5629 97.5476V100.655C15.5629 101.49 15.824 101.569 16.3462 100.89C18.6701 96.8949 20.08 92.1167 20.6022 86.5552H20.6806ZM10.1058 95.3805C8.72199 95.3805 7.31203 95.3805 5.92817 95.4327C5.79762 95.511 5.71929 95.8766 5.71929 96.5032V104.127C5.71929 104.78 6.03261 105.12 6.65926 105.12H10.2886C10.9414 105.12 11.2808 104.806 11.2808 104.18V96.6338C11.2808 96.0071 11.2808 95.6416 11.2025 95.5632C11.098 95.4588 10.7325 95.4066 10.1058 95.4066V95.3805ZM11.2808 107.156C11.2808 106.477 10.9675 106.138 10.3669 106.138H6.68537C6.03261 106.138 5.69318 106.451 5.69318 107.078V115.486C5.69318 116.138 6.0065 116.478 6.63315 116.478H10.2625C10.9153 116.478 11.2547 116.164 11.2547 115.538V107.156H11.2808ZM19.5056 101.856C19.5578 101.647 19.9756 101.647 20.7589 101.856C24.4405 102.926 26.8687 105.067 28.0176 108.279C28.0959 109.193 27.9132 110.028 27.4954 110.76C26.5554 111.804 25.4588 111.935 24.2316 111.125C23.8922 110.864 23.6049 110.394 23.3961 109.741C23.2394 107.182 22.2994 104.963 20.55 103.031C19.8189 102.352 19.4534 101.96 19.4795 101.856H19.5056Z" fill="#6B6B6B"/>
<path d="M7.8595 127.183C7.99006 126.896 8.27727 126.869 8.72115 127.104C10.2356 127.653 11.5672 128.332 12.6638 129.115C13.7344 129.872 13.7082 130.447 12.5855 130.812C11.9066 130.655 11.28 131.178 10.6794 132.379C10.2878 133.005 10.3922 133.319 11.045 133.319H27.3901C28.1212 133.528 28.6695 133.319 29.009 132.692C29.3484 132.17 29.7401 131.648 30.1839 131.125C30.8367 130.368 31.2283 129.977 31.3589 129.95C32.2989 130.212 33.5261 131.125 35.0405 132.666C35.6149 133.397 35.9021 133.867 35.9021 134.05C35.7716 134.259 35.2755 134.363 34.4399 134.363H10.3922C9.76557 134.363 9.1128 134.755 8.46004 135.538C6.24066 138.306 3.94294 140.316 1.51467 141.622C0.496358 141.961 0.000259323 142.04 0.0263698 141.831C0.0263698 141.7 0.235253 141.465 0.574689 141.152C2.3502 139.35 3.83849 137.261 5.03958 134.833C6.18843 132.379 7.15452 129.82 7.88561 127.183H7.8595ZM7.46785 137.288C7.5984 137.157 8.12061 137.287 9.00836 137.679C9.53057 137.862 10.0528 138.097 10.575 138.384C11.3061 138.932 11.985 139.141 12.6377 138.985H26.5807C27.2073 138.985 27.7557 138.671 28.1995 137.992C28.6434 137 29.2962 136.844 30.1839 137.522C31.1761 137.966 32.2467 138.671 33.3433 139.664C33.8133 140.212 33.7088 140.708 33.03 141.152C32.3511 141.309 32.0378 141.726 32.09 142.405L31.855 146.478C31.855 147.105 32.1683 147.027 32.7689 146.243C33.4477 145.538 33.8655 145.173 33.9961 145.147C35.5888 146.034 36.9465 147.262 38.0171 148.828C37.9648 149.377 37.4426 149.559 36.4766 149.377H32.6905C32.0639 149.377 31.6983 149.768 31.62 150.552L31.0978 156.426C31.0717 157.21 31.3328 157.314 31.8811 156.714L32.325 156.191C32.9777 155.486 33.3955 155.121 33.5522 155.121C34.701 155.748 35.7716 156.609 36.7377 157.68C37.2599 158.541 37.4949 159.037 37.4165 159.142C37.286 159.246 36.816 159.299 36.0327 159.299H31.7244C31.0978 159.299 30.68 159.69 30.4711 160.474C29.3745 164.625 26.7374 166.479 22.6119 166.035C22.4813 165.931 22.3769 165.487 22.2986 164.703C22.168 163.711 21.3064 162.719 19.7398 161.753C19.7398 161.596 19.7398 161.466 19.8181 161.361C22.0897 161.44 23.6563 161.361 24.5441 161.126C24.988 160.97 25.4318 160.552 25.8757 159.873C26.0846 159.507 25.8757 159.325 25.2752 159.325H9.19114C8.56448 159.325 8.12061 159.716 7.88561 160.5C7.75506 161.779 7.1023 162.406 5.95344 162.354C3.49906 162.354 2.74186 161.309 3.65572 159.246C4.46515 155.956 5.11791 152.98 5.64012 150.317C5.69234 149.69 5.40512 149.377 4.77847 149.377C4.28237 149.377 3.57739 149.429 2.68964 149.612C1.82799 149.69 1.30578 149.481 1.14912 149.011C0.992456 148.358 1.358 148.071 2.29798 148.149C3.18573 148.254 4.0996 148.306 4.98735 148.306C5.614 148.306 6.00566 147.914 6.16232 147.131L7.46785 137.314V137.288ZM27.2073 150.395C27.2596 149.716 26.9985 149.377 26.3718 149.377H11.045C10.4183 149.377 10.0006 149.768 9.81779 150.552L8.5906 157.184C8.48615 157.889 8.72115 158.254 9.29558 158.254H25.3535C25.9802 158.254 26.3718 157.863 26.5285 157.079C26.7896 154.86 26.9985 152.64 27.1551 150.421L27.2073 150.395ZM27.7818 141.178C28.0168 140.264 27.6773 139.872 26.7635 140.029H12.5594C11.75 140.107 11.28 140.551 11.1755 141.361L10.3922 147.236C10.2878 147.914 10.5489 148.254 11.1494 148.254H26.3718C26.9985 148.254 27.364 147.862 27.4423 147.079L27.8079 141.152L27.7818 141.178ZM15.1182 150.865C15.1182 150.656 15.5621 150.552 16.3715 150.552C17.7292 150.734 18.7998 151.1 19.5309 151.622C20.8364 152.51 21.5414 153.476 21.6197 154.468C21.698 155.878 21.2019 156.844 20.1053 157.34C18.7737 157.758 17.8598 157.314 17.3898 155.956C17.1809 154.494 16.9198 153.424 16.6326 152.797C16.3715 152.197 15.8493 151.544 15.0921 150.865H15.1182ZM15.5099 141.178C15.5099 141.178 16.1104 140.995 16.8937 141.021C18.0687 141.152 19.0609 141.387 19.8442 141.726C22.0897 142.692 22.8991 144.207 22.3247 146.269C22.1158 146.948 21.5414 147.392 20.6275 147.575C19.792 147.784 19.0609 147.366 18.4603 146.348C18.1731 144.781 17.5726 143.45 16.6326 142.405C15.8493 141.7 15.4576 141.282 15.4838 141.178H15.5099Z" fill="#6B6B6B"/>
<path d="M31.5938 185.097C32.2465 184.287 32.6904 183.843 32.8993 183.791C33.317 183.817 33.9959 184.235 34.962 185.018C36.0848 185.932 36.9725 186.872 37.5731 187.812C37.3903 188.334 36.842 188.517 35.9542 188.334H3.2117L1.9584 188.569C1.12287 188.7 0.60066 188.491 0.417887 187.969C0.261225 187.316 0.626771 187.029 1.56675 187.107C2.03673 187.107 2.55894 187.159 3.10726 187.264H28.7738C29.531 187.42 30.0794 187.211 30.4188 186.663C30.7582 186.141 31.1499 185.619 31.5938 185.097Z" fill="#6B6B6B"/>
<path d="M16.8941 213.688C16.8941 212.8 17.2858 212.382 18.043 212.435C18.9569 212.435 19.8968 212.591 20.8107 212.8C21.3329 212.852 21.7768 212.983 22.1162 213.166C22.6645 213.636 22.5601 214.053 21.7507 214.419C21.4112 214.602 21.2285 215.019 21.2285 215.646V219.171C21.2285 219.824 21.5418 220.163 22.1684 220.163H25.4845C26.1372 220.163 26.7117 219.85 27.2339 219.249L28.2261 217.944C28.6699 217.396 29.0616 216.952 29.401 216.638C29.7666 216.638 30.3671 216.952 31.1765 217.578C31.8554 217.996 32.8476 218.988 34.1792 220.581C34.127 221.182 33.6048 221.39 32.6387 221.182H22.2207C21.5679 221.182 21.2285 221.495 21.2285 222.122V226.586C21.2285 227.239 21.5418 227.579 22.1684 227.579H28.9572C29.6099 227.579 30.1844 227.265 30.7066 226.665L32.3254 224.576C32.8737 223.897 33.5265 223.949 34.3098 224.733C35.302 225.385 36.4247 226.482 37.6781 227.996C37.6781 228.545 37.2081 228.754 36.1898 228.597H22.2468C21.594 228.597 21.2546 228.91 21.2546 229.537V238.649C20.5757 240.738 19.1135 241.887 16.868 242.096C15.9803 242.096 15.5103 241.887 15.4842 241.417C15.4842 240.32 14.7531 239.354 13.3953 238.571C12.612 238.179 12.1943 237.892 12.1681 237.736C12.1681 237.501 12.6381 237.396 13.4737 237.448C14.4136 237.553 15.3797 237.553 16.3197 237.448C16.868 237.213 17.0769 236.717 16.9202 235.986V229.563C16.9202 228.91 16.6069 228.571 15.9803 228.571H3.00338L1.69786 228.806C0.862324 228.91 0.340115 228.701 0.157342 228.205C0.0267901 227.552 0.418447 227.265 1.3062 227.344C2.35062 227.552 3.94336 227.631 6.08441 227.552C6.73717 227.552 7.07661 227.239 7.07661 226.613V217.918C7.07661 217.161 7.46827 216.795 8.32991 216.821C9.63543 216.873 10.8626 217.082 12.0115 217.448C12.8992 217.839 12.8992 218.283 12.0115 218.779C11.6459 218.988 11.4632 219.406 11.4632 220.033V226.534C11.4632 227.187 11.7765 227.526 12.4031 227.526H15.9281C16.5808 227.526 16.9202 227.213 16.9202 226.586V213.688H16.8941ZM9.26989 229.902C9.26989 229.902 9.92265 230.007 10.8887 230.529C12.4293 231.417 13.4737 232.278 13.9698 233.062C14.022 233.532 13.7609 233.741 13.1865 233.688C12.7948 233.688 12.2465 234.002 11.5676 234.681C8.40824 237.683 5.24888 239.511 2.08952 240.216C0.992877 240.32 0.470668 240.294 0.548999 240.085C4.805 237.266 7.72937 233.871 9.26989 229.902ZM30.0799 233.741C30.3671 232.957 30.9154 232.67 31.7249 232.879C33.8398 233.453 35.1714 234.106 35.7198 234.811C35.772 235.177 35.5631 235.412 35.0931 235.49C34.6231 235.621 34.1531 235.986 33.7093 236.587C30.106 240.869 25.9806 244.028 21.359 246.013C15.197 248.702 8.87823 250.242 2.40284 250.634C1.82841 250.817 1.41064 250.686 1.17565 250.269C1.59342 250.034 2.19396 249.851 2.95116 249.72C6.73717 249.015 10.941 247.684 15.5886 245.725C17.9647 244.733 20.0535 243.584 21.9073 242.279C25.6672 239.772 28.3827 236.926 30.0799 233.715V233.741Z" fill="#6B6B6B"/>
</g>
<defs>
<clipPath id="clip0_1547_11802">
<rect width="87" height="250.712" fill="white"/>
</clipPath>
</defs>
</svg>
