<svg width="160" height="64" viewBox="0 0 160 64" fill="none" xmlns="http://www.w3.org/2000/svg">
<g clip-path="url(#clip0_1683_12228)">
<path d="M64.9012 0.970953C64.9012 0.401824 65.1356 0.11726 65.5875 0.133999C66.9267 0.184216 67.8473 0.385085 68.3997 0.719867C68.5838 1.00443 68.4667 1.23878 68.0649 1.40617C67.7469 1.54008 67.6297 1.79117 67.7301 2.14269C67.7301 2.47747 67.931 2.64486 68.3328 2.64486H69.3371C69.7556 2.64486 70.1238 2.44399 70.4251 2.04225C70.9273 1.25552 71.4127 0.719867 71.8647 0.46878C72.8523 0.937475 73.7897 1.79117 74.6769 2.99638C74.5597 3.33116 74.2082 3.44834 73.639 3.33116H68.3495C67.931 3.33116 67.7134 3.53203 67.7134 3.93377V5.07203C67.7134 5.49051 67.9143 5.70811 68.316 5.70811H71.9317C72.3836 5.84203 72.7351 5.70811 72.9862 5.30638C73.5051 4.51964 74.024 3.91703 74.5597 3.53203C75.5975 3.98399 76.5516 4.82094 77.3886 6.0429C77.3886 6.17681 77.3551 6.27724 77.2379 6.32746C77.1543 6.36094 76.8529 6.37768 76.3508 6.37768H71.8647C71.463 6.37768 71.2621 6.62876 71.2621 7.13094L71.3123 8.62072C71.3625 9.02245 71.6136 9.22332 72.0656 9.22332C72.5175 9.22332 72.7184 9.08941 72.6012 8.83832C72.4673 8.47006 72.3501 8.08506 72.2664 7.70007C71.9986 7.19789 71.8982 6.89659 71.9651 6.81289C72.936 6.71246 73.7227 7.04724 74.2919 7.81724C74.3923 8.01811 74.5262 8.03485 74.6936 7.85072C74.8777 7.48246 75.1121 7.38202 75.3799 7.56615C76.0829 8.13528 76.6019 8.82158 76.9199 9.60832C76.7692 9.89289 76.4177 9.99332 75.8821 9.89289H72.0321C71.6304 9.89289 71.4295 10.144 71.4462 10.6461C71.6136 12.3033 71.8312 13.7261 72.0823 14.9314C72.166 15.4 72.3167 15.4335 72.5175 15.015C72.8188 14.3287 73.1201 13.4416 73.4214 12.3535C73.5888 11.8011 73.9069 11.5835 74.3588 11.7007C75.6812 12.1527 76.5014 12.6381 76.8195 13.1737C76.8195 13.3746 76.6521 13.475 76.334 13.475C76.1332 13.5253 75.8988 13.8098 75.6477 14.312C75.1288 15.3666 74.4425 16.5718 73.6056 17.9109C73.3377 18.3126 73.2875 18.7144 73.4717 19.1329C73.6223 19.4844 73.8399 19.8694 74.1245 20.2711C74.476 20.8402 74.8443 20.9742 75.2125 20.6729C75.5473 20.4552 75.8151 20.1372 76.016 19.7355C76.3675 19.2166 76.5851 18.9487 76.6521 18.932C76.8027 18.865 76.9199 18.932 77.0036 19.1663C76.9032 19.8694 76.7693 20.6059 76.6019 21.3592C76.5349 21.8279 76.5349 22.1626 76.6353 22.3635C77.1208 23.1 77.171 23.7863 76.786 24.3889C76.3843 24.8242 75.6979 24.8409 74.7606 24.4224C73.6056 24.0876 72.5677 23.1335 71.6136 21.5935C71.3123 21.0579 70.9273 20.9742 70.4419 21.3592C68.3495 22.9661 66.3241 23.9202 64.3656 24.2383C63.8132 24.322 63.4952 24.3387 63.4282 24.2718C63.4282 24.1881 63.6793 24.0207 64.2317 23.7696C65.9725 22.8992 67.7469 21.4763 69.5714 19.5513C70.0401 19.0157 70.1908 18.4968 70.0234 17.9779C69.2701 15.6009 68.8182 13.1235 68.6843 10.5457C68.6341 10.144 68.3997 9.9431 67.998 9.9431H58.9589C58.5404 9.9431 58.3228 10.144 58.3228 10.5457V13.5755C58.2726 17.007 57.7202 19.7187 56.6489 21.7442C56.2639 22.4639 55.745 23.1335 55.1089 23.7361C54.6402 24.2383 54.2719 24.4894 53.9874 24.4726C53.8367 24.3052 53.8869 24.0039 54.1715 23.5855C54.6402 22.33 54.9582 20.9909 55.1089 19.5346C55.3097 18.2959 55.4437 16.4379 55.5106 13.9437V8.75463C55.5106 8.1855 55.7784 7.98463 56.2973 8.16876C56.8665 8.38637 57.4523 8.63745 58.0215 8.92202C58.4232 9.12289 58.8082 9.22332 59.1597 9.22332H67.9645C68.3662 9.22332 68.5671 8.93876 68.5504 8.38637L68.5001 6.99702C68.5001 6.57855 68.2993 6.36094 67.8975 6.36094H55.9291L55.1256 6.49485C54.59 6.59529 54.2384 6.39442 54.0878 5.90898L54.0041 5.60768C54.0041 5.60768 54.3054 5.52398 54.8076 5.5742C55.1256 5.59094 55.4771 5.64116 55.8454 5.70811H58.4065C58.825 5.70811 59.0426 5.50725 59.0426 5.10551V1.65726C59.0426 1.10487 59.2769 0.83704 59.7456 0.853779C61.0512 0.920736 61.9886 1.13834 62.5578 1.48986C62.7252 1.74095 62.5912 1.95856 62.1728 2.14269C61.9719 2.22638 61.8715 2.47747 61.8715 2.87921V5.08877C61.8715 5.50725 62.0723 5.72485 62.4741 5.72485H64.1647C64.5832 5.72485 64.8008 5.52398 64.8008 5.12225V0.970953H64.9012ZM64.3154 10.8303C64.6502 9.99332 65.1188 9.89289 65.7382 10.5457C66.5919 11.1148 67.1945 11.6672 67.5125 12.1694C67.5125 12.2866 67.2112 12.3535 66.6756 12.3535H65.4369C65.0184 12.3535 64.8008 12.5544 64.8008 12.9561V16.5718C64.8008 17.1242 64.9347 17.1744 65.236 16.7224C65.4704 16.2872 65.6712 15.8353 65.8386 15.3833C66.0395 14.7305 66.1901 14.3957 66.2906 14.379C66.8095 14.4627 67.4791 14.6803 68.2658 15.0318C68.7512 15.3331 69.0023 15.534 69.0191 15.6177C68.9856 15.852 68.8517 15.9524 68.6341 15.919C68.4499 15.9524 68.2323 16.1533 67.998 16.5048C65.7717 20.1874 62.7754 22.2463 58.9923 22.6815C58.4902 22.7318 58.1889 22.7485 58.1052 22.7318C58.0717 22.6481 58.0717 22.5644 58.1219 22.4807C59.2267 22.2631 60.4152 21.6772 61.7208 20.7398C62.156 20.4218 62.3736 20.0702 62.3736 19.6853V13.0064C62.3736 12.5879 62.1728 12.3703 61.771 12.3703C61.2856 12.3368 60.7834 12.3703 60.2813 12.4707C59.7791 12.5377 59.4945 12.5544 59.4443 12.5042L59.2602 11.9685C59.1765 11.6672 59.3941 11.5333 59.913 11.5668C60.6495 11.7174 61.6706 11.7677 62.9762 11.7174C63.5119 11.8011 63.8634 11.684 64.0141 11.3659L64.2986 10.8638L64.3154 10.8303ZM59.2099 15.2996C59.2099 14.764 59.4945 14.5129 60.0134 14.5464C61.1015 14.6635 61.8045 14.8811 62.1058 15.1992C62.1058 15.3833 62.0054 15.534 61.7543 15.6511C61.4865 15.7516 61.3526 15.9357 61.3526 16.1868C60.8504 17.5761 60.1808 18.6976 59.3606 19.5513C58.8584 20.02 58.5571 20.2544 58.4734 20.2376C58.3897 20.1707 58.4567 19.8694 58.6576 19.3505C59.0426 18.0616 59.2267 16.7224 59.2099 15.2996Z" fill="#6B6B6B"/>
<path d="M85.6577 0.150652C85.7079 0.0669563 86.0594 0.18413 86.6955 0.485433C87.1977 0.719781 87.6998 0.987606 88.2187 1.27217C88.5368 1.4563 88.905 1.55674 89.3068 1.55674H97.5591C97.8939 1.55674 98.1785 1.28891 98.3961 0.803476C98.8146 0.284564 99.0657 0.0167391 99.1326 0C100.622 0.619346 101.677 1.25543 102.296 1.89152C102.564 2.24304 102.464 2.56108 101.995 2.84564C101.309 3.07999 101.024 3.53195 101.158 4.18477V22.3467C100.89 23.9202 100.02 24.7404 98.5468 24.8241C98.0278 24.8575 97.6596 24.6065 97.4587 24.0708C97.0402 23.3175 96.5548 22.8321 95.9857 22.6312C95.3328 22.4639 94.9813 22.3132 94.9311 22.1793C94.9813 21.7776 95.3496 21.6771 96.0192 21.878C96.7389 21.9282 97.2746 21.878 97.6094 21.7441C98.0948 21.493 98.2789 21.0745 98.1618 20.4719V15.3163C98.1618 14.8978 97.9609 14.6802 97.5591 14.6802H88.9553C88.5535 14.6802 88.3024 14.9313 88.2187 15.4334C88.0513 16.6721 87.75 17.9276 87.3148 19.2332C86.4779 21.6102 84.7872 23.351 82.2596 24.4725C81.724 24.6232 81.4227 24.6734 81.3557 24.6065C81.2888 24.4893 81.5566 24.1545 82.1927 23.6188C84.0172 21.426 85.0551 18.731 85.3396 15.5171C85.4903 12.3534 85.5907 9.29019 85.6242 6.32737V1.08804C85.6242 0.585868 85.6577 0.267825 85.7079 0.150652H85.6577ZM98.1618 9.1228C98.1618 8.70432 97.9609 8.48672 97.5591 8.48672H89.2398C88.8213 8.48672 88.6037 8.68758 88.6037 9.08932C88.587 10.4954 88.5368 11.9182 88.4531 13.3578C88.4363 13.7595 88.6372 13.9604 89.039 13.9604H97.5424C97.9609 13.9604 98.1785 13.7595 98.1785 13.3578V9.10606L98.1618 9.1228ZM98.1618 2.94608C98.1618 2.46065 97.9441 2.20956 97.5257 2.20956H89.2231C88.8046 2.20956 88.587 2.42717 88.587 2.84564V7.19781C88.587 7.61628 88.7879 7.83389 89.1896 7.83389H97.5089C97.9274 7.83389 98.145 7.63302 98.145 7.23129V2.94608H98.1618Z" fill="#6B6B6B"/>
<path d="M107.986 7.38237C108.187 7.23172 108.555 7.24846 109.108 7.43259C109.978 7.68368 110.665 7.98498 111.133 8.31976C112.272 9.22367 112.422 10.2782 111.569 11.45C111.317 11.7011 111.033 11.835 110.715 11.835C109.526 11.8182 108.957 11.065 109.041 9.57519C108.957 9.1065 108.807 8.67128 108.589 8.2528C108.17 7.71715 107.97 7.41585 108.003 7.36563L107.986 7.38237ZM114.598 7.96824C114.699 7.49955 114.9 7.36563 115.201 7.5665C115.234 7.6502 115.134 8.01846 114.916 8.65454L112.288 16.7563C111.953 17.9113 112.02 19.1667 112.523 20.5226C113.058 21.5771 113.092 22.6819 112.623 23.8369C112.322 24.3725 111.853 24.6404 111.2 24.6404C110.631 24.6906 110.196 24.3725 109.878 23.703C109.627 23.1171 109.577 22.3973 109.727 21.5436C109.911 20.8239 109.945 19.9199 109.811 18.8654C109.744 18.3465 109.376 17.8945 108.689 17.5263C108.204 17.1915 107.97 16.9906 108.003 16.9237C108.07 16.8734 108.355 16.84 108.857 16.84L109.409 16.7897C109.828 16.706 110.179 16.4047 110.447 15.8858C111.803 13.2578 113.175 10.613 114.565 7.96824H114.598ZM109.426 0.904345C109.459 0.787171 109.761 0.720215 110.313 0.720215C111.016 0.787171 111.702 0.971301 112.339 1.25587C113.845 2.10956 114.297 3.21434 113.711 4.55347C113.226 5.23977 112.573 5.44064 111.769 5.13933C111.267 4.72086 110.999 4.23542 110.966 3.66629C110.849 2.8963 110.564 2.20999 110.112 1.64086C109.677 1.23913 109.459 0.98804 109.459 0.904345H109.426ZM117.728 7.98498C117.779 7.46607 118.047 7.28194 118.532 7.44933C119.101 7.68367 119.67 7.9515 120.256 8.23607C120.624 8.43693 121.009 8.53737 121.394 8.53737C122.215 8.53737 123.052 8.53737 123.872 8.48715C123.955 8.45367 124.089 8.35324 124.257 8.20259C124.843 7.78411 125.412 7.70041 125.931 7.9515C126.215 8.10215 126.5 8.28628 126.784 8.50389C127.253 8.88889 127.437 9.22367 127.337 9.4915C127.136 9.80954 127.035 10.1611 127.035 10.5293V20.5058C127.153 21.0415 127.471 21.3762 128.006 21.4934C128.391 21.5102 128.776 21.4934 129.178 21.4432C129.479 21.4432 129.747 21.1754 129.981 20.6565C130.316 19.9869 130.618 19.3006 130.869 18.631C130.869 18.38 131.003 18.2293 131.27 18.1958C131.354 18.2628 131.388 18.5473 131.371 19.0495L131.321 20.7402C131.371 20.9578 131.438 21.1252 131.521 21.2423C132.141 21.6441 132.375 22.1295 132.208 22.6819C132.024 23.4519 131.471 23.9039 130.567 24.0043C129.981 24.1549 128.877 24.1884 127.287 24.088C125.562 24.1884 124.592 23.3515 124.374 21.5771V9.80954C124.374 9.39106 124.173 9.17345 123.771 9.17345H121.193C120.775 9.17345 120.557 9.37432 120.557 9.77606V13.0737C120.507 14.4295 120.323 15.7687 120.005 17.1245C119.302 20.3384 117.343 22.6986 114.13 24.1884C113.611 24.406 113.309 24.5065 113.242 24.473C113.042 24.2386 113.276 23.9039 113.945 23.4854C115.854 21.8282 116.975 19.7693 117.343 17.3086C117.578 16.0867 117.712 14.7476 117.745 13.2578V7.96824L117.728 7.98498ZM117.193 1.50695C117.243 0.887606 117.427 0.870867 117.745 1.47347C117.896 1.94217 118.231 2.19325 118.733 2.22673H126.734C127.169 2.36065 127.538 2.22673 127.856 1.84173C128.458 1.37304 129.027 1.23913 129.53 1.44C130.065 1.70782 130.618 2.0426 131.153 2.4276C131.639 2.8126 131.906 3.08043 131.957 3.21434C131.923 3.54912 131.722 3.69977 131.354 3.64956C131.17 3.68303 131.003 3.76673 130.852 3.8839C130.115 4.55347 128.927 5.47412 127.303 6.64585C127.102 6.7965 126.935 6.8802 126.801 6.89694C126.65 6.91368 126.55 6.86346 126.5 6.74629C126.483 6.62911 126.634 6.26085 126.952 5.62477C127.253 4.97194 127.521 4.30238 127.738 3.63282C127.889 3.16412 127.789 2.92977 127.437 2.92977H118.883C118.381 3.01347 118.13 3.31477 118.147 3.81695C118.18 4.50325 118.08 5.20629 117.846 5.89259C117.578 6.59563 117.076 7.01411 116.356 7.11455C115.469 7.19824 114.95 6.74629 114.816 5.74194C114.782 5.07238 115.117 4.50325 115.837 4.05129C116.523 3.41521 116.992 2.56151 117.226 1.52369L117.193 1.50695Z" fill="#6B6B6B"/>
<path d="M140.797 1.23831C140.797 0.652444 141.065 0.468314 141.584 0.685922C142.538 1.20483 143.241 1.43918 143.66 1.37222H146.639C147.075 1.55635 147.543 1.27179 148.062 0.518531C148.815 0.585488 149.686 0.987226 150.674 1.74048C151.142 2.10874 151.025 2.46027 150.289 2.77831C150.222 2.89548 150.188 3.16331 150.188 3.56505V6.14286C150.289 7.3983 149.686 7.93395 148.397 7.78329C147.928 7.78329 147.66 7.51547 147.61 6.99656C147.594 6.59482 147.376 6.39395 146.974 6.39395H144.011C143.61 6.39395 143.392 6.64504 143.359 7.14721C143.359 8.25199 143.325 9.34003 143.258 10.4448C143.225 10.88 143.292 11.0976 143.459 11.0976C143.677 11.0976 143.794 10.8968 143.794 10.495V8.62025C143.794 8.10134 144.062 7.85025 144.58 7.88373C144.798 7.88373 145.049 7.91721 145.317 7.95069C145.953 8.06786 146.305 8.18503 146.355 8.28547C146.355 8.3859 146.305 8.51981 146.154 8.68721C145.987 8.8546 145.903 9.13916 145.903 9.5409V10.4448C145.903 10.8633 146.07 11.0809 146.405 11.0809C146.74 11.0809 146.941 10.88 146.941 10.4783V8.80438C146.941 8.30221 147.192 8.05112 147.694 8.05112C147.945 8.05112 148.196 8.0846 148.447 8.13482C149.083 8.26873 149.418 8.40264 149.452 8.53655C149.452 8.65373 149.401 8.78764 149.251 8.93829C149.083 9.0722 149 9.37351 149 9.82546C149 10.3276 149.217 10.2942 149.652 9.72503C149.803 9.44046 150.004 9.35677 150.238 9.49068C150.339 9.55764 150.473 9.32329 150.64 8.80438C150.975 7.53221 151.159 6.07591 151.176 4.41874V1.33875C151.176 0.836574 151.209 0.55201 151.276 0.501792C151.711 0.618966 152.18 0.803096 152.665 1.03744C153.603 1.60657 154.289 1.57309 154.708 0.937009C155.093 0.669183 155.561 0.652444 156.13 0.90353C156.465 1.08766 156.8 1.30527 157.135 1.55635C157.587 1.90788 157.603 2.19244 157.185 2.41005C157.018 2.52722 156.934 2.79505 156.934 3.19678V7.34808C156.934 7.81677 157.018 8.05112 157.185 8.05112C157.637 7.95069 157.938 7.58243 158.072 6.9296C158.24 6.42743 158.357 6.14286 158.424 6.07591C158.507 6.07591 158.591 6.10939 158.675 6.17634C158.809 7.04677 159.043 7.66612 159.378 8.01764C159.863 8.28547 160.047 8.70394 159.93 9.25633C159.763 9.77525 159.328 10.11 158.641 10.2439C157.754 10.4113 157.034 10.4783 156.482 10.4448C155.31 10.4783 154.674 9.8422 154.54 8.55329V2.74483C154.54 2.34309 154.39 2.12548 154.088 2.10874C153.787 2.1757 153.636 2.41005 153.636 2.81179C153.737 4.58613 153.469 6.22656 152.85 7.74982C152.582 8.45286 152.147 9.10568 151.561 9.67481C151.176 10.0263 151.159 10.4615 151.51 10.9637C151.711 11.1479 151.745 11.3655 151.611 11.6165C151.527 11.6835 151.226 11.717 150.724 11.717H149.602C149.184 11.717 148.966 11.9178 148.966 12.3196V15.7846C148.966 16.1863 149.016 16.4039 149.117 16.4207C149.351 16.4876 149.602 16.2868 149.853 15.8181C150.071 15.4331 150.372 15.0815 150.74 14.7468C150.824 14.7468 151.075 14.8974 151.477 15.1987C151.879 15.6674 152.063 15.6004 152.013 14.9978C151.962 14.6128 151.929 14.2278 151.929 13.8261C151.929 13.4578 151.628 13.2905 151.075 13.3407C150.54 13.4076 150.222 13.2737 150.138 12.9557C150.054 12.5874 150.272 12.4033 150.774 12.42C151.059 12.42 151.41 12.487 151.845 12.5539H154.775C155.176 12.5539 155.545 12.42 155.896 12.1522C156.231 11.8676 156.432 11.717 156.499 11.7002C157.721 11.9178 158.641 12.3363 159.261 12.9724C159.344 13.19 159.227 13.3909 158.926 13.5583C158.558 13.6755 158.357 13.96 158.323 14.412C157.955 16.1026 157.285 17.6259 156.331 18.965C155.98 19.4504 156.047 19.9359 156.566 20.438C157.419 21.1243 158.189 21.6265 158.876 21.9111C159.395 22.112 159.679 22.2459 159.729 22.3128C159.729 22.4802 159.562 22.5639 159.194 22.5472C158.424 22.6476 157.754 23.0159 157.202 23.6687C156.85 24.1709 156.415 24.2546 155.913 23.9198C155.176 23.2837 154.674 22.7648 154.423 22.3965C154.072 21.8943 153.636 21.8274 153.134 22.2124C151.259 23.4846 149.535 24.3048 147.945 24.6898C147.861 24.6396 147.811 24.5726 147.811 24.4889L149.954 23.1163C150.925 22.4467 151.812 21.66 152.632 20.7896C153 20.3878 153.101 19.9359 152.917 19.417C152.716 18.8646 152.548 18.2954 152.414 17.7263C152.347 17.2911 152.13 17.0735 151.762 17.0735H142.773C142.371 17.0735 142.07 17.3246 141.869 17.8267C141.434 18.9985 140.831 20.053 140.044 21.0072C139.693 21.4089 139.509 21.8106 139.509 22.2291C139.492 22.882 139.375 23.4176 139.174 23.8193C138.521 24.74 137.717 24.8572 136.797 24.1709C136.177 23.1498 136.027 21.9111 136.362 20.505C136.462 19.6011 136.445 18.7976 136.295 18.0946C136.278 17.6594 136.161 17.3246 135.96 17.0902C135.357 16.5378 135.073 16.2031 135.106 16.1026C135.156 16.0189 135.458 15.952 136.01 15.9185C136.194 15.8683 136.345 15.7678 136.462 15.6339L140.362 7.53221C140.597 7.08025 140.747 6.72873 140.797 6.49439V1.23831ZM135.173 6.44417C135.24 6.36047 135.592 6.41069 136.244 6.6283C138.554 7.78329 139.073 9.13916 137.818 10.6959C136.998 11.1981 136.311 11.0139 135.776 10.11C135.675 9.85894 135.642 9.47394 135.675 8.97177C135.776 8.35242 135.742 7.85025 135.592 7.49873C135.274 6.86264 135.14 6.51112 135.19 6.44417H135.173ZM135.659 0.418097C135.659 0.418097 136.044 0.317662 136.546 0.334401C137.115 0.384619 137.734 0.53527 138.37 0.786357C139.542 1.33875 140.061 2.1757 139.944 3.26374C139.877 3.68222 139.709 4.017 139.442 4.25135C138.22 5.00461 137.433 4.63635 137.031 3.11309C137.014 2.52722 136.763 1.90788 136.295 1.27179C135.826 0.786357 135.608 0.501792 135.659 0.418097ZM140.747 9.35677C140.747 8.98851 140.647 9.03873 140.446 9.5409C139.877 11.4659 139.324 13.3909 138.805 15.3159C138.253 16.8894 138.337 18.4963 139.09 20.12C139.224 20.5217 139.375 20.4715 139.542 19.9693C140.312 17.04 140.697 14.1776 140.68 11.3822C140.68 10.7126 140.697 10.0263 140.747 9.35677ZM142.706 19.3835C142.89 18.7474 143.241 18.4796 143.744 18.5967C144.329 18.7976 144.932 19.032 145.518 19.2998C145.819 19.4839 145.987 19.668 146.02 19.8522C145.97 20.0698 145.786 20.187 145.484 20.2037C145.317 20.2204 145.032 20.4883 144.647 20.9904C143.359 22.5806 142.053 23.7189 140.697 24.4387C140.111 24.7065 139.827 24.7735 139.843 24.6396C139.91 24.5056 140.094 24.2713 140.379 23.9365C141.383 22.6811 142.17 21.1746 142.706 19.3835ZM143.777 12.3865C143.777 11.9513 143.677 11.7337 143.476 11.7337C143.258 11.7337 143.107 11.9848 143.04 12.487C142.907 13.5415 142.722 14.6296 142.505 15.7511C142.404 16.2031 142.572 16.4374 143.007 16.4374C143.509 16.4374 143.76 16.2365 143.76 15.8348V12.3865H143.777ZM147.577 2.72809C147.577 2.2594 147.376 2.02505 146.974 2.02505H144.246C143.526 1.85766 143.225 2.09201 143.392 2.72809V5.0883C143.392 5.50678 143.593 5.72439 143.995 5.72439H146.957C147.376 5.72439 147.594 5.52352 147.594 5.12178V2.74483L147.577 2.72809ZM146.907 12.3865C146.907 11.9513 146.74 11.7337 146.422 11.7337C146.054 11.7337 145.869 11.9346 145.869 12.3363V15.8013C145.869 16.2198 146.037 16.4374 146.372 16.4374C146.706 16.4374 146.907 16.2365 146.907 15.8348V12.3865ZM147.125 18.647C147.125 18.647 147.476 18.5465 147.979 18.58C148.598 18.647 149.2 18.8311 149.753 19.1157C151.092 19.8187 151.41 20.8398 150.707 22.1454C150.473 22.4635 150.104 22.6141 149.619 22.5974C149.1 22.6309 148.715 22.363 148.447 21.8106C148.33 21.5763 148.246 21.2415 148.196 20.8063C148.112 20.3376 147.928 19.9024 147.644 19.4839C147.225 18.9985 147.041 18.7139 147.108 18.647H147.125ZM155.846 13.9098C155.846 13.4746 155.662 13.257 155.243 13.257H153.151C152.732 13.257 152.598 13.5248 152.766 14.0437C153.101 15.2657 153.536 16.3537 154.088 17.3078C154.39 17.7933 154.657 17.7765 154.892 17.2576C155.344 16.2533 155.662 15.1318 155.863 13.9098H155.846Z" fill="#6B6B6B"/>
<path d="M6.90129 59.039C6.71716 58.4866 6.68368 58.1853 6.83433 58.1518C7.50389 58.1853 8.15672 58.4029 8.77606 58.7879C9.69671 59.4575 9.89758 60.2777 9.36193 61.2486C9.24476 61.4327 9.37867 61.5331 9.79715 61.5331H12.375C12.7767 61.5331 13.0613 61.2821 13.2287 60.7799C13.3626 60.261 13.463 59.7421 13.53 59.2064C13.5634 58.654 13.848 58.4029 14.3669 58.4699C14.936 58.5871 15.5219 58.7377 16.091 58.9051C16.5932 59.1729 16.861 59.3571 16.8778 59.4408C16.8778 59.6918 16.7439 59.8425 16.4426 59.8927C16.2417 59.9597 16.0743 60.0601 15.9404 60.1773C15.6726 60.4618 15.388 60.7129 15.1034 60.9305C14.6515 61.2653 14.4506 61.4494 14.5008 61.4829C15.4382 61.5331 16.4091 61.5499 17.4134 61.5331C17.8319 61.5331 18.2336 61.2821 18.6354 60.7966L19.1878 60.0936C19.6565 59.6081 19.9745 59.3738 20.1252 59.3905C20.8282 59.7923 21.5145 60.3279 22.1506 61.0142C22.636 61.6168 22.8536 61.9684 22.8034 62.052C22.7197 62.1525 22.4184 62.2027 21.8995 62.2027H1.8126L1.00913 62.3534C0.473477 62.437 0.138695 62.3031 0.0215217 61.9684C-0.0789128 61.5499 0.172173 61.3657 0.774781 61.416C1.07608 61.416 1.41087 61.4829 1.76239 61.5499H6.90129C7.30302 61.5499 7.45368 61.4662 7.3365 61.2988C7.10215 61.0142 7.00172 60.6627 7.0352 60.2442C7.08542 59.8257 7.0352 59.4408 6.90129 59.0725V59.039ZM9.98128 39.6552C9.98128 39.1195 10.2156 38.8517 10.6843 38.8684C11.2702 38.8684 11.9063 38.9856 12.5591 39.153C12.9441 39.2032 13.1952 39.3538 13.3124 39.6049C13.3124 39.8058 13.1784 39.9565 12.9106 40.0402C12.7097 40.1238 12.6093 40.3749 12.6093 40.7767V48.0414C12.6093 48.4599 12.8102 48.6775 13.2119 48.6775H18.3676C18.786 48.6775 19.0036 48.4767 19.0036 48.0749V47.4388C19.0036 47.0204 18.8028 46.8027 18.401 46.8027H17.313C16.8945 46.8027 16.6769 46.9199 16.6769 47.1375C16.6937 47.8908 16.2417 48.2256 15.3043 48.1251C14.7519 48.0247 14.5008 47.7234 14.5678 47.2212C14.5678 47.0371 14.3502 46.9534 13.9317 46.9701C13.4965 47.0204 13.2119 46.8864 13.0947 46.5684C13.0278 46.2169 13.0278 46.016 13.0947 45.9825L13.9484 46.0327C14.3502 46.0662 14.551 45.8319 14.551 45.3464C14.551 44.861 14.3669 44.6267 14.0154 44.6434C13.5802 44.6936 13.3124 44.5597 13.2119 44.2417C13.145 43.8567 13.3458 43.6725 13.7978 43.706C14.3 43.7562 14.551 43.5386 14.551 43.0532C14.551 42.5678 14.3502 42.2999 13.9484 42.3167C13.5467 42.3669 13.2956 42.2162 13.1952 41.8815C13.145 41.5299 13.3458 41.3625 13.7978 41.3793C14.3 41.4295 14.551 41.2621 14.551 40.8771V40.1908C14.551 39.6552 14.8189 39.4041 15.3378 39.4375C15.8567 39.5045 16.4091 39.6049 16.9782 39.7221C17.3297 39.9062 17.3297 40.1238 16.9447 40.3749C16.7439 40.6093 16.6434 40.8604 16.6434 41.1115C16.6434 41.4128 16.8443 41.3625 17.2293 40.9273C17.5976 40.5088 17.8319 40.2912 17.9156 40.2745C17.9993 40.308 18.2169 40.4921 18.5517 40.8269C18.8363 41.2119 18.9869 41.1617 18.9869 40.6428V39.9565C18.9869 39.4208 19.2547 39.1697 19.7736 39.2199C20.8952 39.3371 21.6652 39.5212 22.1339 39.7723C22.1841 39.856 22.1339 40.0402 21.9497 40.308C21.6819 40.6428 21.548 40.9943 21.548 41.3458V48.4264C21.7489 49.2801 21.4141 49.8158 20.5436 49.9999C20.0582 50.0836 19.5728 49.933 19.1041 49.5647C19.0036 49.414 18.7693 49.3303 18.401 49.3303H4.23977C3.83803 49.3303 3.62043 49.414 3.58695 49.5814C3.40282 50.2175 2.88391 50.4853 2.01347 50.3849C1.17652 50.2845 0.824998 49.8158 1.00913 48.9956V39.9397C1.00913 39.4041 1.27695 39.153 1.79586 39.2032C2.91738 39.3204 3.68738 39.5045 4.15608 39.7556C4.20629 39.8393 4.13934 40.0234 3.95521 40.2912C3.70412 40.626 3.57021 40.9775 3.57021 41.3291V48.0414C3.57021 48.4599 3.77108 48.6775 4.17282 48.6775H9.36193C9.78041 48.6775 9.99802 48.4767 9.99802 48.0749V47.4388C9.99802 47.0873 9.78041 46.9032 9.34519 46.9032H8.22367C7.82194 46.9032 7.60433 47.0371 7.58759 47.3049C7.43694 48.1084 6.81759 48.326 5.74629 47.941C5.56216 47.8071 5.47846 47.5727 5.4952 47.2547C5.4952 47.0873 5.2776 47.0203 4.84238 47.0538C4.4239 47.104 4.15608 46.9534 4.0389 46.6186C3.95521 46.2671 4.17281 46.0997 4.67499 46.1164L4.90934 46.1499C5.31107 46.1667 5.51194 45.9323 5.51194 45.4469C5.51194 44.9614 5.29433 44.7271 4.85912 44.7438C4.4239 44.7941 4.15608 44.6434 4.05564 44.3086C3.98869 43.9738 4.22303 43.8064 4.74194 43.8064C5.26086 43.8399 5.52868 43.6223 5.52868 43.1704C5.52868 42.7184 5.31107 42.5008 4.87586 42.5175C4.44064 42.5678 4.17282 42.4171 4.07238 42.0823C4.00542 41.7475 4.00542 41.5634 4.07238 41.5299C4.35695 41.5299 4.64151 41.5634 4.92607 41.6136C5.32781 41.6136 5.52868 41.4295 5.52868 41.0278V40.1908C5.52868 39.6552 5.79651 39.4041 6.31542 39.4375C6.53303 39.4543 6.78411 39.5045 7.05194 39.5715C7.68802 39.6719 8.05628 39.7723 8.13998 39.8728C8.1902 39.9899 8.12324 40.1573 7.93911 40.3749C7.73824 40.6093 7.63781 40.8938 7.63781 41.2119C7.63781 41.5299 7.83867 41.4965 8.24041 41.1115C8.62541 40.693 8.8765 40.4921 8.97693 40.5088C9.09411 40.5758 9.2615 40.7599 9.46237 41.0612C9.84736 41.6304 10.0482 41.6973 10.0482 41.2621V39.6886L9.98128 39.6552ZM17.9993 49.9497C18.1667 49.548 18.4513 49.4475 18.8363 49.6651C19.7402 50.1506 20.6273 50.8536 21.4643 51.7408C21.4978 52.0421 21.1965 52.1425 20.5604 52.0421H2.76673L1.97999 52.1425C1.46108 52.176 1.14304 52.0253 1.04261 51.6906C0.942171 51.339 1.15978 51.1884 1.69543 51.2386C2.01347 51.2553 2.36499 51.3056 2.73325 51.3725H16.4258C16.9113 51.5064 17.246 51.3725 17.4134 50.9708C17.5808 50.636 17.7817 50.3012 17.9993 49.9664V49.9497ZM3.7376 53.7997C3.7376 53.264 3.98869 53.0464 4.49086 53.1636C4.92607 53.2975 5.36129 53.4649 5.81325 53.6658C5.98064 53.7662 6.2652 53.8164 6.66694 53.8164H15.8065C16.2082 53.8164 16.543 53.649 16.8108 53.3142C17.0954 53.0297 17.5139 52.9795 18.0495 53.1803C18.5852 53.4147 19.171 53.7495 19.7904 54.1847C20.2089 54.5529 20.0749 54.8877 19.3552 55.189C19.2882 55.3062 19.2547 55.574 19.2547 55.9758C19.2715 56.6286 19.2547 57.3149 19.2045 58.0179C18.7358 58.5871 18.0663 58.7879 17.2126 58.6205C16.8945 58.5034 16.7104 58.2858 16.6769 57.9845C16.6434 57.8505 16.4426 57.7836 16.0743 57.7836H6.93476C6.53303 57.7836 6.28194 57.9175 6.19824 58.1686C5.74629 58.7712 5.05999 58.9888 4.15608 58.8047C3.77108 58.6875 3.62043 58.3025 3.72086 57.6664V53.7662L3.7376 53.7997ZM7.06868 54.486C6.5665 54.5529 6.31542 54.7873 6.31542 55.189V56.5282C6.31542 56.9466 6.51629 57.1642 6.91802 57.1642H16.0576C16.476 57.1642 16.6936 56.9634 16.6936 56.5616V55.1723C16.6936 54.7203 16.476 54.486 16.0408 54.486H7.08542H7.06868ZM9.98128 42.8523C9.98128 42.4004 9.93106 42.2162 9.84736 42.2999C9.31171 42.3501 8.75932 42.3669 8.20693 42.3501C7.78846 42.3501 7.57085 42.6012 7.57085 43.1034C7.57085 43.6056 7.62107 43.8734 7.70476 43.8901C7.8052 43.8901 8.05628 43.6725 8.45802 43.2373C8.84302 42.8188 9.21128 42.7686 9.54606 43.0867C9.83063 43.4884 9.98128 43.4214 9.98128 42.8523ZM9.98128 45.2795C9.98128 44.8108 9.78041 44.5764 9.39541 44.5764H8.20693C7.78846 44.5764 7.57085 44.8443 7.57085 45.3799C7.57085 45.9156 7.60433 46.2001 7.67128 46.2336C7.75498 46.2169 7.98933 45.9825 8.35759 45.5473C8.74259 44.7271 9.19454 44.8108 9.73019 45.7984C9.79715 45.9658 9.8641 46.0327 9.93106 45.9993C9.96454 45.9323 9.98128 45.6812 9.98128 45.2627V45.2795ZM19.0204 42.6347C19.0204 42.2999 18.8028 42.1325 18.3676 42.1325H17.3297C16.9113 42.1325 16.6936 42.4004 16.6936 42.9193C16.6936 43.4884 16.8778 43.5721 17.2293 43.1704C17.5976 42.7686 17.8319 42.5678 17.9156 42.5678C18.016 42.6347 18.2002 42.8356 18.468 43.1704C18.8363 43.706 19.0204 43.7562 19.0204 43.321V42.6347ZM19.0204 45.0284C19.0204 44.543 18.9869 44.3254 18.92 44.3923C18.8363 44.4425 18.535 44.476 18.0328 44.476H17.3297C16.9113 44.476 16.6936 44.6769 16.6936 45.0786V45.564C16.6936 46.0495 16.928 46.0495 17.3967 45.5306C17.7984 45.0786 18.0328 44.861 18.0997 44.8777C18.4513 45.1288 18.7191 45.4134 18.8865 45.7314C18.9702 45.7482 19.0204 45.5138 19.0204 45.0284Z" fill="#6B6B6B"/>
<path d="M37.5479 39.5879C37.5479 39.0857 37.799 38.8346 38.3012 38.8514C39.3055 38.9183 40.1927 39.0857 40.9292 39.3535C41.2472 39.6381 41.1635 39.9059 40.6781 40.1403C40.4772 40.224 40.3768 40.4751 40.3768 40.8935V41.6301C40.3768 42.0485 40.5777 42.2661 40.9794 42.2661H45.817C46.2857 42.3666 46.654 42.2327 46.9385 41.8811C47.5077 41.1614 48.127 41.0777 48.7631 41.6301C49.8846 42.2494 50.6211 42.8185 50.9726 43.304C51.0563 43.5551 50.9057 43.7057 50.5374 43.7559C50.119 43.7559 49.7005 43.9401 49.2653 44.3418C48.1437 45.1453 47.1394 45.7981 46.2355 46.2668C45.9342 46.4174 45.7668 46.384 45.7501 46.1329C45.7501 45.9655 45.884 45.6642 46.135 45.2457C46.3861 44.6933 46.6037 44.1242 46.7879 43.5551C46.8883 43.1533 46.7377 42.9524 46.3359 42.9524L31.2205 42.9859C30.7184 43.0194 30.4171 43.2872 30.3166 43.7894C30.1492 44.6766 29.9149 45.3461 29.6303 45.7814C28.8771 46.6518 28.0568 46.7857 27.1697 46.1831C26.634 45.7144 26.6005 45.0281 27.1027 44.1577C27.3873 43.7727 27.7053 43.5216 28.0568 43.4044C29.0277 42.6177 29.6471 41.6635 29.8981 40.542C29.9818 40.5085 30.0655 40.542 30.1325 40.5922C30.2497 40.927 30.3334 41.2618 30.3668 41.5966C30.417 41.9983 30.7016 42.2159 31.2205 42.2494H36.9118C37.3303 42.2494 37.5479 42.0485 37.5479 41.6468V39.5712V39.5879ZM34.4344 44.1577C34.6186 43.5885 34.9533 43.3374 35.422 43.4211C35.9912 43.5216 36.5938 43.689 37.2131 43.9233C37.6149 44.0237 37.8492 44.2246 37.9162 44.5259C37.8157 44.7603 37.6818 44.8607 37.5144 44.8272C37.347 44.8607 37.1294 45.0616 36.8616 45.4131C36.644 45.7981 36.7277 45.999 37.1462 45.999H40.4605C41.0296 46.1496 41.5485 45.865 42.0005 45.1453C42.2348 44.9109 42.4357 44.8105 42.6031 44.8607C43.5572 45.4298 44.3272 46.1496 44.9131 47.02C44.9131 47.405 44.7122 47.6059 44.2603 47.6059C43.9088 47.6059 43.6242 47.8403 43.4233 48.309C42.8709 49.2463 42.2516 50.1 41.582 50.8366C41.1468 51.3387 41.1635 51.707 41.6657 51.9581C44.4109 52.9624 47.3737 53.4813 50.5542 53.4981C50.6546 53.5818 50.7048 53.6655 50.7048 53.7324C50.6546 53.8161 50.37 54.0002 49.8679 54.2681C49.349 54.6531 48.9974 55.0548 48.8133 55.4565C48.6124 56.0089 48.4785 56.3102 48.4283 56.3605C48.2274 56.4274 47.8592 56.3939 47.3068 56.2768L46.9553 56.2265C46.4698 56.1596 46.3024 56.2265 46.4531 56.4609C46.7042 56.712 46.654 56.9631 46.3024 57.2142C45.884 57.3648 45.7333 57.6996 45.8505 58.2018V61.6165C46.0848 62.5539 45.6496 63.1063 44.5281 63.2402C43.7414 63.4578 43.2559 63.2067 43.0885 62.5037C43.0718 62.0852 42.8542 61.8676 42.4525 61.8676H36.0749C35.6731 61.8676 35.4555 61.9681 35.4388 62.1522C35.3718 62.9891 34.8027 63.4411 33.7146 63.4746C32.8107 63.5248 32.4425 63.0728 32.6266 62.1354V56.6952C32.6266 56.2935 32.3755 56.1094 31.8733 56.1429C29.5299 56.4776 27.8894 56.6115 26.9688 56.5446C26.8851 56.4776 26.8516 56.3939 26.8684 56.3102C29.3792 55.8415 31.6223 55.1385 33.5975 54.2179C34.9533 53.5316 35.9577 52.8955 36.6272 52.3431C37.1629 51.8911 37.2299 51.4224 36.8114 50.9537C36.0414 49.9661 35.489 49.1627 35.1877 48.5768C34.9868 48.1583 34.6353 48.1583 34.1331 48.6103C32.8107 49.6983 31.5386 50.4683 30.2831 50.9705C29.6136 51.1881 29.2955 51.2383 29.329 51.1044C32.1077 48.8279 33.8318 46.5179 34.4679 44.1911L34.4344 44.1577ZM39.9416 53.6487C39.3892 53.2805 38.8703 53.247 38.3681 53.565C37.414 54.1676 36.3427 54.72 35.1542 55.2055C34.7357 55.3729 34.6688 55.5235 34.9533 55.6574C35.2714 55.8415 35.6396 55.942 36.0414 55.942H42.0675C42.4692 55.942 42.7872 55.8248 43.0048 55.6072C43.189 55.3729 43.0048 55.1385 42.4692 54.9042C41.7996 54.6196 41.1133 54.2848 40.4438 53.9165L39.9416 53.632V53.6487ZM43.0383 57.2978C43.0383 56.8459 42.8207 56.6115 42.3855 56.6115H36.0916C35.6564 56.6115 35.4388 56.8292 35.4388 57.2476V60.562C35.4388 60.9804 35.6396 61.1981 36.0414 61.1981H42.419C42.8375 61.1981 43.0551 60.9972 43.0551 60.5954V57.2978H43.0383ZM36.3259 46.6853C36.0749 46.7522 35.8573 46.8694 35.6731 47.0368C35.489 47.2377 35.5894 47.5892 35.9744 48.0746C36.6272 48.8111 37.2968 49.4305 37.9496 49.8992C38.4016 50.234 38.8368 50.1837 39.272 49.715C40.0588 48.7442 40.6614 47.7733 41.0631 46.8024C41.0464 46.7187 40.8288 46.6685 40.427 46.6685H36.3259V46.6853Z" fill="#6B6B6B"/>
<path d="M66.9288 39.7052C67.0125 39.203 67.3138 38.9687 67.8327 39.0022C68.8538 39.1361 69.8247 39.4709 70.7621 40.0065C70.9797 40.425 70.8458 40.6928 70.3268 40.7932C70.0423 40.7598 69.8247 40.9774 69.674 41.4293L68.5358 44.1076C68.3851 44.5093 68.5023 44.7102 68.9208 44.7102H72.7707C73.3231 44.9111 73.8253 44.6098 74.2605 43.823C74.6623 43.1702 75.1477 43.12 75.7001 43.6891C76.4701 44.1243 77.1564 44.5595 77.7255 45.0115C78.1942 45.5304 78.0268 45.9489 77.2233 46.2837C76.9388 46.4845 76.8216 46.8361 76.8886 47.3215C76.9388 52.7784 76.5538 57.0134 75.7168 60.0265C75.1142 62.1188 73.8253 63.2738 71.8668 63.4747C71.3312 63.4747 71.0299 63.2404 70.9629 62.7215C70.829 61.9682 70.2934 61.2986 69.3727 60.7462C68.8036 60.5956 68.5358 60.3445 68.586 59.993C68.6529 59.926 68.9375 59.8925 69.4397 59.8925C70.8625 60.0097 71.8836 59.9595 72.5029 59.7419C72.7875 59.5243 72.9884 59.1728 73.0888 58.6706C73.5742 56.6954 73.8588 53.7158 73.9425 49.7319V46.1665C73.909 45.6476 73.6579 45.3798 73.206 45.3798H68.519L67.9332 45.4802C66.8786 47.3382 65.7069 48.7945 64.4347 49.8324C63.9158 50.2174 63.6479 50.6191 63.6479 51.0208V60.4784C63.3299 61.3488 62.5766 61.6669 61.4049 61.4158C60.9195 61.1982 60.7353 60.8132 60.8693 60.2441C60.8693 59.7754 60.6684 59.541 60.2666 59.541H57.9399C57.5214 59.541 57.3038 59.7586 57.3038 60.1938C57.4043 61.2819 56.9691 61.918 55.9814 62.0686C54.8599 62.2528 54.3745 61.7673 54.4917 60.5956V44.4256C54.4917 43.8732 54.7595 43.6556 55.2784 43.7728C55.6132 43.8565 56.1823 44.0908 57.0025 44.4591C57.421 44.66 57.6888 44.5428 57.7893 44.1076C58.0571 43.0195 58.1575 41.6469 58.0906 39.9563C57.9901 39.1863 58.2914 38.9519 58.9945 39.27C59.664 39.3704 60.3503 39.5043 61.0199 39.6717C61.4384 39.7722 61.656 39.9563 61.6727 40.2074C61.6058 40.4585 61.4719 40.5924 61.271 40.5924C61.0701 40.5924 60.9027 40.743 60.7856 41.0778C60.1327 42.3332 59.4464 43.3376 58.7434 44.1076C58.3584 44.5093 58.3584 44.7102 58.7769 44.7102L60.1997 44.6767C60.501 44.4256 60.7688 44.1411 61.0032 43.823C61.2877 43.3376 61.7899 43.3208 62.4929 43.7728C63.5977 44.1745 64.284 44.7102 64.5853 45.3965C64.5351 45.5806 64.2506 45.7815 63.7484 45.9824C63.6814 46.0828 63.6479 46.3339 63.6479 46.7356V48.7276C63.6479 49.2632 63.8153 49.3134 64.1501 48.8782C65.6399 46.3171 66.5438 43.2539 66.8786 39.6885L66.9288 39.7052ZM60.1495 45.3798C59.2623 45.3798 58.3584 45.3798 57.4712 45.4132C57.3875 45.4634 57.3373 45.6978 57.3373 46.0995V50.9873C57.3373 51.4058 57.5382 51.6234 57.9399 51.6234H60.2666C60.6851 51.6234 60.9027 51.4226 60.9027 51.0208V46.1832C60.9027 45.7815 60.9027 45.5471 60.8525 45.4969C60.7856 45.43 60.5512 45.3965 60.1495 45.3965V45.3798ZM60.9027 52.9123C60.9027 52.4771 60.7019 52.2595 60.3169 52.2595H57.9567C57.5382 52.2595 57.3206 52.4604 57.3206 52.8621V58.2521C57.3206 58.6706 57.5214 58.8882 57.9232 58.8882H60.2499C60.6684 58.8882 60.886 58.6873 60.886 58.2856V52.9123H60.9027ZM66.1755 49.531C66.209 49.3971 66.4769 49.3971 66.979 49.531C69.3392 50.2174 70.896 51.59 71.6325 53.6489C71.6827 54.2347 71.5655 54.7704 71.2977 55.2391C70.6951 55.9086 69.9921 55.9923 69.2053 55.4734C68.9877 55.306 68.8036 55.0047 68.6697 54.5863C68.5692 52.9458 67.9666 51.523 66.8451 50.2843C66.3764 49.8491 66.1421 49.598 66.1588 49.531H66.1755Z" fill="#6B6B6B"/>
<path d="M85.9102 38.5503C85.9939 38.3662 86.178 38.3495 86.4626 38.5001C87.4334 38.8516 88.2871 39.2869 88.9902 39.789C89.6765 40.2745 89.6597 40.6427 88.94 40.8771C88.5047 40.7766 88.103 41.1114 87.718 41.8814C87.4669 42.2832 87.5339 42.484 87.9524 42.484H98.431C98.8997 42.6179 99.2512 42.484 99.4688 42.0823C99.6865 41.7475 99.9375 41.4127 100.222 41.0779C100.641 40.5925 100.892 40.3414 100.975 40.3247C101.578 40.4921 102.365 41.0779 103.336 42.0656C103.704 42.5342 103.888 42.8356 103.888 42.9527C103.804 43.0866 103.486 43.1536 102.951 43.1536H87.5171C87.1154 43.1536 86.6969 43.4047 86.2784 43.9069C84.8556 45.6812 83.3826 46.9701 81.8258 47.8071C81.173 48.0247 80.855 48.0749 80.8717 47.941C80.8717 47.8573 81.0056 47.7066 81.2232 47.5058C82.3615 46.3508 83.3156 45.0116 84.0856 43.4549C84.8221 41.8814 85.4415 40.241 85.9102 38.5503ZM85.6591 45.0284C85.7428 44.9447 86.0776 45.0284 86.6467 45.2795C86.9815 45.3966 87.3163 45.5473 87.6511 45.7314C88.1197 46.0829 88.555 46.2168 88.9734 46.1164H97.9121C98.3139 46.1164 98.6654 45.8988 98.9499 45.4803C99.2345 44.8442 99.653 44.7438 100.222 45.179C100.858 45.4636 101.544 45.9155 102.248 46.5516C102.549 46.9031 102.482 47.2212 102.047 47.5058C101.611 47.6062 101.411 47.874 101.444 48.3092L101.293 50.9205C101.293 51.3223 101.494 51.2721 101.879 50.7699C102.314 50.3179 102.582 50.0836 102.666 50.0668C103.687 50.636 104.558 51.4227 105.244 52.427C105.21 52.7786 104.876 52.8957 104.256 52.7786H101.829C101.427 52.7786 101.193 53.0297 101.143 53.5318L100.808 57.2981C100.791 57.8003 100.959 57.8673 101.31 57.4823L101.595 57.1475C102.013 56.6955 102.281 56.4612 102.381 56.4612C103.118 56.8629 103.804 57.4153 104.424 58.1016C104.758 58.654 104.909 58.972 104.859 59.039C104.775 59.1059 104.474 59.1394 103.972 59.1394H101.21C100.808 59.1394 100.54 59.3905 100.406 59.8927C99.7032 62.5542 98.0125 63.7427 95.3678 63.4581C95.2841 63.3912 95.2171 63.1066 95.1669 62.6044C95.0832 61.9683 94.5308 61.3322 93.5265 60.7129C93.5265 60.6125 93.5265 60.5288 93.5767 60.4618C95.033 60.512 96.0373 60.4618 96.6065 60.3112C96.891 60.2107 97.1756 59.9429 97.4602 59.5077C97.5941 59.2733 97.4602 59.1562 97.0752 59.1562H86.7806C86.3789 59.1562 86.0943 59.4072 85.9437 59.9094C85.86 60.7296 85.4415 61.1314 84.705 61.0979C83.1315 61.0979 82.6461 60.4283 83.2319 59.1059C83.7508 56.9968 84.1693 55.0886 84.5041 53.3812C84.5376 52.9794 84.3535 52.7786 83.9517 52.7786C83.6337 52.7786 83.1817 52.812 82.6126 52.9292C82.0602 52.9794 81.7254 52.8455 81.625 52.5442C81.5245 52.1257 81.7589 51.9416 82.3615 51.9918C82.9306 52.0588 83.5165 52.0923 84.0856 52.0923C84.4874 52.0923 84.7384 51.8412 84.8389 51.339L85.6758 45.0451L85.6591 45.0284ZM98.3139 53.4314C98.3473 52.9962 98.1799 52.7786 97.7782 52.7786H87.9524C87.5506 52.7786 87.2828 53.0297 87.1656 53.5318L86.3789 57.7836C86.3119 58.2355 86.4626 58.4699 86.8308 58.4699H97.1254C97.5271 58.4699 97.7782 58.2188 97.8786 57.7166C98.046 56.2938 98.1799 54.871 98.2804 53.4314H98.3139ZM98.6989 47.5225C98.8495 46.9366 98.6319 46.6855 98.046 46.786H88.94C88.421 46.8362 88.1197 47.1208 88.0528 47.6397L87.5506 51.406C87.4837 51.8412 87.651 52.0588 88.036 52.0588H97.7949C98.1967 52.0588 98.431 51.8077 98.4812 51.3055L98.7156 47.5058L98.6989 47.5225ZM90.5804 53.7327C90.5804 53.5988 90.865 53.5318 91.3839 53.5318C92.2543 53.649 92.9406 53.8833 93.4093 54.2181C94.2463 54.7873 94.6982 55.4066 94.7484 56.0427C94.7986 56.9466 94.4806 57.5659 93.7776 57.884C92.9239 58.1518 92.338 57.8505 92.0367 56.9968C91.9028 56.0594 91.7354 55.3731 91.5513 54.9714C91.3839 54.5864 91.0491 54.1679 90.5637 53.7327H90.5804ZM90.8315 47.5225C90.9152 47.4388 91.2165 47.4053 91.7186 47.4221C92.4719 47.5058 93.108 47.6564 93.6102 47.874C95.0497 48.4934 95.5686 49.4642 95.2004 50.7866C95.0665 51.2218 94.6982 51.5064 94.1123 51.6236C93.5767 51.7575 93.108 51.4897 92.723 50.8368C92.5389 49.8325 92.1539 48.9788 91.5513 48.3092C91.0491 47.8573 90.798 47.5895 90.8147 47.5225H90.8315Z" fill="#6B6B6B"/>
<path d="M128.342 48.46C128.76 47.9411 129.045 47.6565 129.179 47.623C129.447 47.623 129.882 47.9076 130.501 48.4098C131.221 48.9957 131.79 49.5983 132.175 50.2009C132.058 50.5356 131.706 50.6528 131.137 50.5356H110.163L109.36 50.6863C108.824 50.77 108.489 50.6528 108.372 50.3013C108.272 49.8828 108.506 49.6987 109.109 49.7489C109.41 49.7489 109.745 49.7824 110.096 49.8493H126.551C127.036 49.9498 127.388 49.8159 127.605 49.4643C127.823 49.1296 128.074 48.7948 128.359 48.46H128.342Z" fill="#6B6B6B"/>
<path d="M146.135 39.588C146.135 39.0189 146.386 38.751 146.872 38.7845C147.457 38.8013 148.06 38.885 148.646 39.0189C148.981 39.0524 149.265 39.136 149.483 39.2532C149.834 39.5545 149.767 39.8224 149.248 40.0567C149.031 40.1739 148.914 40.4417 148.914 40.8434V43.1032C148.914 43.5217 149.115 43.7393 149.516 43.7393H151.642C152.061 43.7393 152.429 43.5384 152.764 43.1534L153.4 42.3165C153.684 41.965 153.935 41.6804 154.153 41.4795C154.387 41.4795 154.772 41.6804 155.291 42.0821C155.726 42.35 156.363 42.986 157.216 44.0071C157.183 44.3921 156.848 44.526 156.229 44.3921H149.55C149.131 44.3921 148.914 44.593 148.914 44.9947V47.8571C148.914 48.2756 149.115 48.4932 149.516 48.4932H153.868C154.287 48.4932 154.655 48.2923 154.99 47.9073L156.028 46.5682C156.379 46.133 156.798 46.1665 157.3 46.6686C157.936 47.0871 158.656 47.7902 159.459 48.761C159.459 49.1125 159.158 49.2465 158.505 49.146H149.566C149.148 49.146 148.93 49.3469 148.93 49.7486V55.5906C148.495 56.9297 147.558 57.6495 146.118 57.8001C145.549 57.8001 145.248 57.6495 145.231 57.3649C145.231 56.6619 144.762 56.0425 143.892 55.5404C143.39 55.2893 143.122 55.1051 143.105 55.0047C143.105 54.8541 143.407 54.7871 143.942 54.8206C144.545 54.8875 145.164 54.8875 145.767 54.8206C146.118 54.6699 146.252 54.3519 146.152 53.8832V49.7654C146.152 49.3469 145.951 49.1293 145.549 49.1293H137.247L136.41 49.2799C135.874 49.3469 135.539 49.213 135.422 48.8949C135.338 48.4765 135.589 48.2923 136.158 48.3425C136.828 48.4765 137.849 48.5267 139.222 48.4765C139.64 48.4765 139.858 48.2756 139.858 47.8739V42.2997C139.858 41.8143 140.109 41.58 140.661 41.5967C141.498 41.6302 142.285 41.7641 143.022 41.9984C143.591 42.2495 143.591 42.5341 143.022 42.8521C142.787 42.986 142.67 43.2539 142.67 43.6556V47.8236C142.67 48.2421 142.871 48.4597 143.273 48.4597H145.532C145.951 48.4597 146.168 48.2589 146.168 47.8571V39.588H146.135ZM141.247 49.983C141.247 49.983 141.666 50.0499 142.285 50.3847C143.273 50.9538 143.942 51.5062 144.26 52.0084C144.294 52.3097 144.126 52.4436 143.758 52.4101C143.507 52.3934 143.155 52.611 142.72 53.0462C140.695 54.9712 138.669 56.143 136.644 56.5949C135.941 56.6619 135.606 56.6451 135.656 56.5112C138.385 54.7034 140.26 52.5273 141.247 49.983ZM154.588 52.4436C154.772 51.9415 155.124 51.7573 155.643 51.8912C156.999 52.2595 157.852 52.678 158.204 53.1299C158.237 53.3643 158.103 53.5149 157.802 53.5651C157.501 53.6488 157.2 53.8832 156.915 54.2682C154.605 57.0134 151.96 59.0388 148.997 60.311C145.047 62.0351 140.996 63.0227 136.845 63.2738C136.477 63.391 136.209 63.324 136.058 63.0395C136.326 62.8888 136.711 62.7716 137.196 62.6879C139.623 62.236 142.318 61.3823 145.298 60.1269C146.821 59.4908 148.16 58.7543 149.349 57.9173C151.759 56.3103 153.5 54.4858 154.588 52.4269V52.4436Z" fill="#6B6B6B"/>
</g>
<defs>
<clipPath id="clip0_1683_12228">
<rect width="160" height="64" fill="white"/>
</clipPath>
</defs>
</svg>
